<meta message track_name name=u'End Theme from Disneyland\'s "Fantasmic"' time=0>
<meta message copyright text=u'Sequenced by Randy Tennison' time=0>
<meta message text text=u'The music you hear as you leave Disneyland\'s exciting show "Fantasmic"!\n' time=0>
<meta message text text=u'Just remember, they had a 90 piece orchastra to perform this, I had 32 note polyphony!\n' time=0>
<meta message smpte_offset frame_rate=25 hours=32 minutes=0 seconds=3 frames=0 sub_frames=0 time=0>
<meta message time_signature numerator=4 denominator=4 clocks_per_click=24 notated_32nd_notes_per_beat=8 time=0>
<meta message key_signature key='C' time=0>
<meta message set_tempo tempo=444444 time=0>
program_change channel=0 program=1 time=0
control_change channel=0 control=7 value=127 time=0
control_change channel=0 control=10 value=64 time=0
control_change channel=1 control=0 value=0 time=0
control_change channel=1 control=32 value=0 time=0
program_change channel=1 program=60 time=0
control_change channel=1 control=7 value=127 time=0
control_change channel=1 control=10 value=64 time=0
control_change channel=2 control=0 value=0 time=0
control_change channel=2 control=32 value=0 time=0
program_change channel=2 program=61 time=0
control_change channel=2 control=7 value=127 time=0
control_change channel=2 control=10 value=64 time=0
control_change channel=3 control=0 value=0 time=0
control_change channel=3 control=32 value=0 time=0
program_change channel=3 program=62 time=0
control_change channel=3 control=7 value=127 time=0
control_change channel=3 control=10 value=64 time=0
control_change channel=4 control=0 value=0 time=0
control_change channel=4 control=32 value=0 time=0
program_change channel=4 program=33 time=0
control_change channel=4 control=7 value=127 time=0
control_change channel=4 control=10 value=64 time=0
control_change channel=5 control=0 value=0 time=0
control_change channel=5 control=32 value=0 time=0
program_change channel=5 program=48 time=0
control_change channel=5 control=7 value=127 time=0
control_change channel=5 control=10 value=64 time=0
control_change channel=6 control=0 value=0 time=0
control_change channel=6 control=32 value=0 time=0
program_change channel=6 program=55 time=0
control_change channel=6 control=7 value=127 time=0
control_change channel=6 control=10 value=64 time=0
control_change channel=7 control=0 value=0 time=0
control_change channel=7 control=32 value=0 time=0
program_change channel=7 program=72 time=0
control_change channel=7 control=7 value=81 time=0
control_change channel=7 control=10 value=64 time=0
control_change channel=8 control=0 value=0 time=0
control_change channel=8 control=32 value=0 time=0
program_change channel=8 program=81 time=0
control_change channel=8 control=7 value=123 time=0
control_change channel=8 control=10 value=64 time=0
control_change channel=9 control=7 value=78 time=0
control_change channel=9 control=10 value=64 time=0
control_change channel=9 control=0 value=0 time=0
control_change channel=9 control=32 value=0 time=0
program_change channel=10 program=50 time=0
control_change channel=10 control=7 value=127 time=0
control_change channel=10 control=10 value=64 time=0
control_change channel=11 control=0 value=0 time=0
control_change channel=11 control=32 value=0 time=0
program_change channel=11 program=57 time=0
control_change channel=11 control=7 value=127 time=0
control_change channel=11 control=10 value=64 time=0
program_change channel=12 program=30 time=0
control_change channel=12 control=7 value=127 time=0
control_change channel=12 control=10 value=64 time=0
control_change channel=13 control=0 value=0 time=0
control_change channel=13 control=32 value=0 time=0
program_change channel=13 program=29 time=0
control_change channel=13 control=7 value=78 time=0
control_change channel=13 control=10 value=64 time=0
control_change channel=14 control=0 value=0 time=0
control_change channel=14 control=32 value=0 time=0
program_change channel=14 program=56 time=0
control_change channel=14 control=7 value=127 time=0
control_change channel=15 control=0 value=0 time=0
control_change channel=15 control=32 value=0 time=0
program_change channel=15 program=47 time=0
note_on channel=5 note=50 velocity=97 time=480
note_on channel=5 note=55 velocity=58 time=30
note_on channel=5 note=50 velocity=0 time=10
note_on channel=5 note=55 velocity=0 time=10
note_on channel=5 note=57 velocity=56 time=10
note_on channel=5 note=57 velocity=0 time=40
note_on channel=5 note=50 velocity=89 time=0
note_on channel=5 note=50 velocity=0 time=40
note_on channel=5 note=55 velocity=67 time=0
note_on channel=5 note=55 velocity=0 time=20
note_on channel=5 note=57 velocity=69 time=0
note_on channel=5 note=57 velocity=0 time=40
note_on channel=5 note=50 velocity=97 time=0
note_on channel=5 note=50 velocity=0 time=40
note_on channel=5 note=55 velocity=97 time=0
note_on channel=5 note=55 velocity=97 time=0
note_on channel=5 note=57 velocity=53 time=0
note_on channel=5 note=55 velocity=0 time=20
note_on channel=5 note=57 velocity=82 time=0
note_on channel=5 note=55 velocity=0 time=20
note_on channel=5 note=62 velocity=97 time=0
note_on channel=5 note=57 velocity=0 time=20
note_on channel=5 note=57 velocity=0 time=0
note_on channel=5 note=50 velocity=97 time=0
note_on channel=1 note=62 velocity=127 time=16
note_on channel=5 note=62 velocity=0 time=4
note_on channel=5 note=55 velocity=97 time=0
note_on channel=5 note=55 velocity=85 time=0
pitchwheel channel=7 pitch=-358 time=13
pitchwheel channel=7 pitch=-358 time=0
pitchwheel channel=7 pitch=-358 time=0
note_on channel=5 note=50 velocity=0 time=7
note_on channel=5 note=57 velocity=94 time=0
note_on channel=5 note=57 velocity=58 time=0
pitchwheel channel=7 pitch=-716 time=1
pitchwheel channel=7 pitch=-716 time=0
pitchwheel channel=7 pitch=-716 time=0
pitchwheel channel=7 pitch=-1074 time=7
pitchwheel channel=7 pitch=-1074 time=2
pitchwheel channel=7 pitch=-1074 time=0
pitchwheel channel=7 pitch=-1535 time=7
pitchwheel channel=7 pitch=-1535 time=1
pitchwheel channel=7 pitch=-1535 time=0
note_on channel=5 note=55 velocity=0 time=2
note_on channel=5 note=55 velocity=0 time=0
note_on channel=1 note=67 velocity=112 time=2
pitchwheel channel=7 pitch=-1877 time=1
note_on channel=1 note=62 velocity=0 time=1
pitchwheel channel=7 pitch=-1877 time=0
pitchwheel channel=7 pitch=-1877 time=0
pitchwheel channel=7 pitch=-2247 time=4
pitchwheel channel=7 pitch=-2247 time=0
pitchwheel channel=7 pitch=-2247 time=0
pitchwheel channel=7 pitch=-2545 time=2
pitchwheel channel=7 pitch=-2545 time=1
pitchwheel channel=7 pitch=-2545 time=0
pitchwheel channel=7 pitch=-2883 time=5
pitchwheel channel=7 pitch=-2883 time=0
pitchwheel channel=7 pitch=-2883 time=0
note_on channel=5 note=57 velocity=0 time=4
note_on channel=5 note=57 velocity=0 time=0
note_on channel=5 note=62 velocity=97 time=0
pitchwheel channel=7 pitch=-3242 time=2
pitchwheel channel=7 pitch=-3242 time=0
pitchwheel channel=7 pitch=-3242 time=0
pitchwheel channel=7 pitch=-3583 time=4
pitchwheel channel=7 pitch=-3583 time=1
pitchwheel channel=7 pitch=-3583 time=0
pitchwheel channel=7 pitch=-4096 time=10
pitchwheel channel=7 pitch=-4096 time=1
pitchwheel channel=7 pitch=-4096 time=0
note_on channel=5 note=50 velocity=97 time=2
note_on channel=1 note=67 velocity=0 time=3
note_on channel=1 note=74 velocity=127 time=12
note_on channel=5 note=62 velocity=0 time=5
note_on channel=5 note=55 velocity=97 time=0
note_on channel=5 note=55 velocity=97 time=0
note_on channel=5 note=50 velocity=0 time=20
note_on channel=5 note=57 velocity=94 time=0
note_on channel=5 note=57 velocity=69 time=0
note_on channel=1 note=74 velocity=0 time=11
note_on channel=5 note=55 velocity=0 time=9
note_on channel=5 note=55 velocity=0 time=0
pitchwheel channel=7 pitch=-4334 time=13
pitchwheel channel=7 pitch=-4334 time=1
pitchwheel channel=7 pitch=-4334 time=0
note_on channel=1 note=74 velocity=127 time=1
note_on channel=5 note=57 velocity=0 time=5
note_on channel=5 note=62 velocity=97 time=0
note_on channel=10 note=52 velocity=105 time=0
pitchwheel channel=7 pitch=-4693 time=14
pitchwheel channel=7 pitch=-4693 time=0
pitchwheel channel=7 pitch=-4693 time=1
note_on channel=5 note=62 velocity=0 time=5
note_on channel=5 note=57 velocity=0 time=0
note_on channel=5 note=50 velocity=97 time=0
note_on channel=5 note=55 velocity=89 time=0
note_on channel=10 note=55 velocity=99 time=6
note_on channel=10 note=52 velocity=0 time=9
note_on channel=5 note=55 velocity=94 time=5
note_on channel=10 note=57 velocity=97 time=13
note_on channel=5 note=55 velocity=0 time=7
note_on channel=5 note=50 velocity=0 time=0
note_on channel=5 note=57 velocity=97 time=0
note_on channel=5 note=57 velocity=64 time=0
note_on channel=10 note=55 velocity=0 time=6
note_on channel=5 note=55 velocity=0 time=14
note_on channel=5 note=62 velocity=97 time=0
note_on channel=1 note=74 velocity=0 time=17
note_on channel=10 note=57 velocity=0 time=1
note_on channel=5 note=57 velocity=0 time=2
note_on channel=10 note=52 velocity=112 time=2
note_on channel=14 note=62 velocity=112 time=7
note_on channel=14 note=74 velocity=99 time=1
note_on channel=1 note=72 velocity=127 time=4
note_on channel=5 note=62 velocity=0 time=6
note_on channel=5 note=57 velocity=0 time=0
note_on channel=2 note=62 velocity=100 time=0
note_on channel=2 note=74 velocity=105 time=0
note_on channel=5 note=50 velocity=97 time=0
note_on channel=5 note=55 velocity=82 time=0
note_on channel=11 note=74 velocity=97 time=0
note_on channel=11 note=62 velocity=83 time=0
note_on channel=14 note=74 velocity=0 time=11
note_on channel=10 note=55 velocity=105 time=1
note_on channel=14 note=76 velocity=127 time=6
note_on channel=10 note=52 velocity=0 time=1
note_on channel=14 note=64 velocity=90 time=0
note_on channel=14 note=62 velocity=0 time=1
note_on channel=5 note=55 velocity=89 time=0
note_on channel=5 note=57 velocity=97 time=0
note_on channel=11 note=74 velocity=0 time=10
note_on channel=11 note=62 velocity=0 time=0
note_on channel=2 note=62 velocity=0 time=0
note_on channel=2 note=74 velocity=0 time=0
note_on channel=2 note=64 velocity=100 time=0
note_on channel=2 note=76 velocity=102 time=0
note_on channel=11 note=76 velocity=63 time=0
note_on channel=11 note=64 velocity=127 time=0
note_on channel=10 note=57 velocity=102 time=8
note_on channel=5 note=55 velocity=0 time=2
note_on channel=5 note=50 velocity=0 time=0
note_on channel=5 note=57 velocity=49 time=0
note_on channel=1 note=72 velocity=0 time=5
note_on channel=1 note=71 velocity=127 time=0
note_on channel=10 note=55 velocity=0 time=6
note_on channel=14 note=76 velocity=0 time=4
note_on channel=11 note=76 velocity=0 time=5
note_on channel=2 note=64 velocity=0 time=0
note_on channel=2 note=76 velocity=0 time=0
note_on channel=11 note=64 velocity=0 time=0
note_on channel=14 note=64 velocity=0 time=0
note_on channel=5 note=55 velocity=0 time=0
note_on channel=5 note=62 velocity=97 time=0
note_on channel=5 note=57 velocity=0 time=20
note_on channel=5 note=55 velocity=97 time=0
note_on channel=10 note=52 velocity=102 time=7
note_on channel=10 note=57 velocity=0 time=3
note_on channel=2 note=79 velocity=112 time=0
note_on channel=2 note=67 velocity=100 time=0
note_on channel=11 note=67 velocity=105 time=0
note_on channel=11 note=79 velocity=124 time=0
note_on channel=14 note=67 velocity=105 time=3
note_on channel=14 note=79 velocity=127 time=2
note_on channel=1 note=71 velocity=0 time=4
note_on channel=5 note=62 velocity=0 time=1
note_on channel=5 note=57 velocity=0 time=0
note_on channel=5 note=50 velocity=89 time=0
note_on channel=1 note=69 velocity=127 time=5
note_on channel=5 note=57 velocity=97 time=15
note_on channel=5 note=55 velocity=97 time=0
note_on channel=10 note=55 velocity=90 time=0
note_on channel=10 note=52 velocity=0 time=6
note_on channel=5 note=50 velocity=0 time=14
note_on channel=5 note=55 velocity=0 time=0
note_on channel=10 note=57 velocity=97 time=7
note_on channel=11 note=67 velocity=0 time=3
note_on channel=11 note=79 velocity=0 time=0
note_on channel=10 note=55 velocity=0 time=6
note_on channel=5 note=55 velocity=0 time=4
note_on channel=5 note=57 velocity=54 time=0
note_on channel=5 note=62 velocity=97 time=0
note_on channel=14 note=67 velocity=0 time=5
note_on channel=14 note=79 velocity=0 time=2
note_on channel=14 note=69 velocity=99 time=0
note_on channel=14 note=81 velocity=105 time=2
note_on channel=5 note=57 velocity=0 time=11
note_on channel=2 note=79 velocity=0 time=0
note_on channel=2 note=67 velocity=0 time=0
note_on channel=2 note=69 velocity=100 time=0
note_on channel=2 note=81 velocity=102 time=0
note_on channel=5 note=55 velocity=97 time=0
note_on channel=11 note=69 velocity=127 time=0
note_on channel=11 note=81 velocity=127 time=0
note_on channel=10 note=57 velocity=0 time=17
note_on channel=5 note=57 velocity=0 time=3
note_on channel=5 note=62 velocity=0 time=0
note_on channel=5 note=50 velocity=89 time=0
note_on channel=5 note=57 velocity=97 time=0
note_on channel=10 note=52 velocity=84 time=0
note_on channel=11 note=69 velocity=0 time=10
note_on channel=2 note=81 velocity=0 time=0
note_on channel=11 note=81 velocity=0 time=0
note_on channel=2 note=69 velocity=0 time=0
note_on channel=14 note=81 velocity=0 time=9
note_on channel=5 note=55 velocity=0 time=1
note_on channel=14 note=69 velocity=0 time=0
note_on channel=1 note=69 velocity=0 time=3
note_on channel=10 note=55 velocity=78 time=6
note_on channel=1 note=67 velocity=127 time=2
note_on channel=14 note=67 velocity=79 time=3
note_on channel=14 note=79 velocity=127 time=2
note_on channel=5 note=50 velocity=0 time=4
note_on channel=2 note=67 velocity=100 time=0
note_on channel=2 note=79 velocity=88 time=0
note_on channel=5 note=55 velocity=85 time=0
note_on channel=11 note=67 velocity=84 time=0
note_on channel=11 note=79 velocity=124 time=0
note_on channel=10 note=52 velocity=0 time=2
note_on channel=10 note=57 velocity=86 time=14
note_on channel=5 note=55 velocity=0 time=4
note_on channel=5 note=57 velocity=0 time=0
note_on channel=5 note=57 velocity=62 time=0
note_on channel=5 note=55 velocity=97 time=0
note_on channel=5 note=62 velocity=51 time=0
note_on channel=14 note=81 velocity=92 time=4
note_on channel=14 note=69 velocity=108 time=0
note_on channel=10 note=55 velocity=0 time=2
note_on channel=2 note=79 velocity=0 time=4
note_on channel=11 note=67 velocity=0 time=0
note_on channel=11 note=79 velocity=0 time=0
note_on channel=2 note=67 velocity=0 time=0
note_on channel=14 note=79 velocity=0 time=0
note_on channel=2 note=69 velocity=100 time=0
note_on channel=2 note=81 velocity=86 time=0
note_on channel=11 note=81 velocity=97 time=0
note_on channel=11 note=69 velocity=127 time=0
note_on channel=14 note=67 velocity=0 time=9
note_on channel=14 note=69 velocity=0 time=1
note_on channel=14 note=81 velocity=0 time=5
note_on channel=14 note=83 velocity=88 time=9
note_on channel=14 note=71 velocity=119 time=4
note_on channel=11 note=81 velocity=0 time=2
note_on channel=2 note=69 velocity=0 time=0
note_on channel=5 note=62 velocity=0 time=0
note_on channel=2 note=81 velocity=0 time=0
note_on channel=11 note=69 velocity=0 time=0
note_on channel=5 note=57 velocity=0 time=0
note_on channel=2 note=83 velocity=115 time=0
note_on channel=2 note=71 velocity=100 time=0
note_on channel=5 note=50 velocity=89 time=0
note_on channel=5 note=57 velocity=97 time=0
note_on channel=11 note=83 velocity=99 time=0
note_on channel=11 note=71 velocity=94 time=0
note_on channel=10 note=52 velocity=81 time=15
note_on channel=10 note=57 velocity=0 time=5
note_on channel=5 note=55 velocity=0 time=0
note_on channel=11 note=71 velocity=0 time=10
note_on channel=11 note=83 velocity=0 time=0
note_on channel=2 note=83 velocity=0 time=0
note_on channel=2 note=71 velocity=0 time=0
note_on channel=14 note=83 velocity=0 time=7
note_on channel=14 note=71 velocity=0 time=1
note_on channel=5 note=50 velocity=0 time=2
note_on channel=5 note=55 velocity=97 time=0
note_on channel=10 note=55 velocity=66 time=6
note_on channel=10 note=52 velocity=0 time=8
note_on channel=14 note=74 velocity=127 time=5
note_on channel=5 note=55 velocity=0 time=1
note_on channel=5 note=57 velocity=0 time=0
pitchwheel channel=2 pitch=0 time=0
note_on channel=2 note=74 velocity=100 time=0
note_on channel=2 note=79 velocity=127 time=0
note_on channel=2 note=86 velocity=127 time=0
note_on channel=5 note=57 velocity=82 time=0
note_on channel=5 note=62 velocity=72 time=0
note_on channel=11 note=74 velocity=127 time=0
note_on channel=11 note=86 velocity=127 time=0
note_on channel=14 note=86 velocity=127 time=0
note_on channel=4 note=38 velocity=110 time=1
note_on channel=10 note=57 velocity=99 time=9
note_on channel=5 note=55 velocity=24 time=10
note_on channel=10 note=55 velocity=0 time=2
pitchwheel channel=2 pitch=-128 time=4
pitchwheel channel=2 pitch=-256 time=8
note_on channel=5 note=62 velocity=0 time=6
note_on channel=5 note=57 velocity=0 time=0
pitchwheel channel=2 pitch=-384 time=0
note_on channel=5 note=50 velocity=94 time=0
pitchwheel channel=2 pitch=-512 time=2
pitchwheel channel=2 pitch=-640 time=2
pitchwheel channel=2 pitch=-768 time=2
pitchwheel channel=2 pitch=-1024 time=2
pitchwheel channel=2 pitch=-1280 time=2
pitchwheel channel=2 pitch=-1792 time=6
pitchwheel channel=2 pitch=-1920 time=2
note_on channel=2 note=86 velocity=0 time=2
note_on channel=11 note=74 velocity=0 time=0
note_on channel=2 note=79 velocity=0 time=0
note_on channel=11 note=86 velocity=0 time=0
note_on channel=2 note=74 velocity=0 time=0
note_on channel=5 note=55 velocity=0 time=0
note_on channel=5 note=57 velocity=97 time=0
note_on channel=14 note=86 velocity=0 time=2
note_on channel=14 note=74 velocity=0 time=1
note_on channel=10 note=52 velocity=83 time=0
note_on channel=10 note=57 velocity=0 time=9
note_on channel=5 note=50 velocity=0 time=8
note_on channel=5 note=55 velocity=94 time=0
note_on channel=5 note=62 velocity=97 time=0
note_on channel=5 note=57 velocity=60 time=0
pitchwheel channel=2 pitch=0 time=8
note_on channel=10 note=55 velocity=78 time=7
note_on channel=5 note=55 velocity=0 time=5
note_on channel=5 note=57 velocity=0 time=0
note_on channel=10 note=52 velocity=0 time=4
note_on channel=10 note=57 velocity=84 time=14
note_on channel=5 note=62 velocity=0 time=2
note_on channel=5 note=57 velocity=0 time=0
note_on channel=5 note=55 velocity=89 time=0
note_on channel=5 note=50 velocity=97 time=0
note_on channel=10 note=55 velocity=0 time=9
note_on channel=5 note=57 velocity=97 time=11
note_on channel=5 note=55 velocity=0 time=20
note_on channel=5 note=62 velocity=34 time=0
note_on channel=5 note=55 velocity=97 time=0
note_on channel=4 note=38 velocity=0 time=5
note_on channel=10 note=52 velocity=77 time=9
note_on channel=14 note=84 velocity=127 time=4
note_on channel=14 note=72 velocity=127 time=1
note_on channel=10 note=57 velocity=0 time=1
note_on channel=5 note=50 velocity=0 time=0
note_on channel=2 note=72 velocity=100 time=0
note_on channel=2 note=76 velocity=100 time=0
note_on channel=2 note=84 velocity=127 time=0
note_on channel=5 note=57 velocity=62 time=0
note_on channel=11 note=72 velocity=127 time=0
note_on channel=11 note=84 velocity=127 time=0
note_on channel=4 note=38 velocity=51 time=7
note_on channel=5 note=55 velocity=0 time=13
note_on channel=5 note=57 velocity=0 time=0
note_on channel=5 note=62 velocity=0 time=0
note_on channel=5 note=55 velocity=82 time=0
note_on channel=15 note=50 velocity=57 time=3
note_on channel=10 note=55 velocity=78 time=1
control_change channel=1 control=7 value=119 time=5
note_on channel=10 note=52 velocity=0 time=6
note_on channel=15 note=50 velocity=0 time=4
note_on channel=5 note=57 velocity=0 time=1
note_on channel=5 note=50 velocity=94 time=0
note_on channel=10 note=57 velocity=99 time=11
note_on channel=14 note=72 velocity=0 time=5
note_on channel=14 note=84 velocity=0 time=2
note_on channel=15 note=50 velocity=44 time=0
note_on channel=11 note=72 velocity=0 time=2
note_on channel=5 note=55 velocity=0 time=0
note_on channel=2 note=72 velocity=0 time=0
note_on channel=2 note=76 velocity=0 time=0
note_on channel=2 note=84 velocity=0 time=0
note_on channel=11 note=84 velocity=0 time=0
note_on channel=10 note=55 velocity=0 time=0
note_on channel=5 note=57 velocity=97 time=0
note_on channel=5 note=50 velocity=0 time=20
note_on channel=5 note=55 velocity=97 time=0
note_on channel=5 note=62 velocity=97 time=0
note_on channel=15 note=50 velocity=0 time=10
note_on channel=5 note=57 velocity=0 time=10
note_on channel=5 note=57 velocity=43 time=0
note_on channel=15 note=50 velocity=65 time=0
note_on channel=14 note=71 velocity=127 time=13
note_on channel=4 note=38 velocity=0 time=1
note_on channel=14 note=83 velocity=127 time=0
note_on channel=15 note=50 velocity=0 time=2
note_on channel=15 note=50 velocity=68 time=3
note_on channel=5 note=55 velocity=0 time=1
note_on channel=5 note=62 velocity=0 time=0
note_on channel=2 note=71 velocity=100 time=0
note_on channel=2 note=76 velocity=100 time=0
note_on channel=2 note=83 velocity=127 time=0
note_on channel=5 note=55 velocity=97 time=0
note_on channel=5 note=50 velocity=89 time=0
note_on channel=11 note=83 velocity=124 time=0
note_on channel=11 note=71 velocity=124 time=0
note_on channel=4 note=38 velocity=66 time=10
note_on channel=15 note=50 velocity=0 time=5
note_on channel=5 note=57 velocity=0 time=5
note_on channel=10 note=55 velocity=66 time=0
note_on channel=15 note=50 velocity=84 time=4
note_on channel=10 note=52 velocity=62 time=4
note_on channel=10 note=57 velocity=0 time=1
note_on channel=5 note=50 velocity=0 time=11
note_on channel=5 note=55 velocity=0 time=0
note_on channel=5 note=57 velocity=97 time=0
note_on channel=5 note=55 velocity=97 time=0
note_on channel=15 note=50 velocity=0 time=2
note_on channel=10 note=55 velocity=0 time=3
note_on channel=15 note=50 velocity=81 time=2
note_on channel=14 note=71 velocity=0 time=9
note_on channel=14 note=83 velocity=0 time=1
note_on channel=2 note=71 velocity=0 time=3
note_on channel=2 note=76 velocity=0 time=0
note_on channel=2 note=83 velocity=0 time=0
note_on channel=11 note=71 velocity=0 time=0
note_on channel=11 note=83 velocity=0 time=0
note_on channel=5 note=62 velocity=82 time=0
note_on channel=15 note=50 velocity=0 time=2
note_on channel=10 note=57 velocity=60 time=6
note_on channel=15 note=50 velocity=99 time=4
note_on channel=5 note=57 velocity=0 time=8
note_on channel=5 note=55 velocity=97 time=0
note_on channel=10 note=52 velocity=0 time=2
note_on channel=15 note=50 velocity=0 time=7
note_on channel=2 note=69 velocity=100 time=1
note_on channel=2 note=74 velocity=100 time=0
note_on channel=2 note=81 velocity=127 time=0
note_on channel=11 note=81 velocity=115 time=0
note_on channel=11 note=69 velocity=97 time=0
note_on channel=14 note=69 velocity=77 time=3
note_on channel=14 note=71 velocity=68 time=0
note_on channel=14 note=81 velocity=119 time=2
note_on channel=15 note=50 velocity=88 time=1
note_on channel=5 note=55 velocity=0 time=4
note_on channel=5 note=62 velocity=0 time=0
note_on channel=5 note=50 velocity=97 time=0
note_on channel=10 note=55 velocity=127 time=0
note_on channel=4 note=38 velocity=0 time=5
note_on channel=14 note=71 velocity=0 time=4
note_on channel=15 note=50 velocity=0 time=0
note_on channel=14 note=69 velocity=0 time=3
note_on channel=14 note=81 velocity=0 time=0
note_on channel=14 note=67 velocity=102 time=5
note_on channel=14 note=79 velocity=127 time=1
note_on channel=2 note=81 velocity=0 time=2
note_on channel=11 note=69 velocity=0 time=0
note_on channel=2 note=74 velocity=0 time=0
note_on channel=5 note=55 velocity=0 time=0
note_on channel=11 note=81 velocity=0 time=0
note_on channel=2 note=69 velocity=0 time=0
note_on channel=2 note=79 velocity=127 time=0
note_on channel=2 note=67 velocity=100 time=0
note_on channel=2 note=74 velocity=100 time=0
note_on channel=5 note=57 velocity=97 time=0
note_on channel=5 note=57 velocity=48 time=0
note_on channel=11 note=79 velocity=119 time=0
note_on channel=11 note=67 velocity=90 time=0
note_on channel=15 note=50 velocity=79 time=0
note_on channel=10 note=55 velocity=0 time=2
note_on channel=4 note=38 velocity=65 time=2
note_on channel=10 note=57 velocity=0 time=3
control_change channel=1 control=7 value=118 time=0
control_change channel=1 control=7 value=116 time=4
control_change channel=1 control=7 value=115 time=5
note_on channel=5 note=57 velocity=0 time=4
note_on channel=5 note=50 velocity=0 time=0
note_on channel=5 note=62 velocity=97 time=0
note_on channel=5 note=55 velocity=72 time=0
note_on channel=15 note=50 velocity=0 time=1
control_change channel=1 control=7 value=112 time=3
note_on channel=14 note=79 velocity=0 time=4
note_on channel=2 note=67 velocity=0 time=2
note_on channel=2 note=74 velocity=0 time=0
note_on channel=2 note=79 velocity=0 time=0
note_on channel=14 note=67 velocity=0 time=0
note_on channel=11 note=67 velocity=0 time=0
note_on channel=11 note=79 velocity=0 time=0
control_change channel=1 control=7 value=105 time=0
control_change channel=1 control=7 value=104 time=5
note_on channel=15 note=50 velocity=127 time=0
note_on channel=5 note=57 velocity=0 time=5
control_change channel=1 control=7 value=102 time=0
note_on channel=5 note=55 velocity=82 time=0
note_on channel=4 note=38 velocity=0 time=10
note_on channel=6 note=67 velocity=54 time=1
note_on channel=6 note=79 velocity=64 time=0
note_on channel=7 note=91 velocity=74 time=0
note_on channel=7 note=79 velocity=88 time=0
note_on channel=1 note=67 velocity=0 time=2
control_change channel=1 control=7 value=94 time=0
note_on channel=9 note=49 velocity=127 time=0
note_on channel=7 note=89 velocity=73 time=3
note_on channel=15 note=50 velocity=0 time=3
control_change channel=1 control=7 value=93 time=0
note_on channel=14 note=67 velocity=127 time=0
note_on channel=5 note=55 velocity=0 time=1
note_on channel=5 note=55 velocity=0 time=0
note_on channel=5 note=62 velocity=0 time=0
note_on channel=2 note=67 velocity=100 time=0
note_on channel=2 note=74 velocity=100 time=0
note_on channel=2 note=79 velocity=100 time=0
note_on channel=4 note=31 velocity=100 time=0
note_on channel=5 note=50 velocity=75 time=0
note_on channel=5 note=57 velocity=97 time=0
note_on channel=5 note=57 velocity=72 time=0
note_on channel=9 note=36 velocity=108 time=0
note_on channel=9 note=44 velocity=100 time=0
note_on channel=14 note=79 velocity=127 time=0
pitchwheel channel=7 pitch=-4334 time=1
pitchwheel channel=7 pitch=-4334 time=0
pitchwheel channel=7 pitch=-4334 time=0
note_on channel=10 note=67 velocity=127 time=0
pitchwheel channel=7 pitch=-3412 time=5
pitchwheel channel=7 pitch=-3412 time=0
pitchwheel channel=7 pitch=-3412 time=0
note_on channel=11 note=91 velocity=69 time=0
pitchwheel channel=7 pitch=0 time=2
note_on channel=11 note=79 velocity=68 time=0
pitchwheel channel=7 pitch=0 time=1
note_on channel=15 note=43 velocity=127 time=0
pitchwheel channel=7 pitch=0 time=1
control_change channel=1 control=7 value=91 time=1
pitchwheel channel=7 pitch=-119 time=1
pitchwheel channel=7 pitch=-119 time=0
pitchwheel channel=7 pitch=-119 time=1
pitchwheel channel=7 pitch=0 time=1
pitchwheel channel=7 pitch=0 time=1
pitchwheel channel=7 pitch=0 time=1
note_on channel=11 note=89 velocity=84 time=2
note_on channel=5 note=57 velocity=0 time=2
note_on channel=5 note=57 velocity=0 time=0
note_on channel=5 note=50 velocity=0 time=0
note_on channel=7 note=89 velocity=0 time=4
control_change channel=1 control=7 value=90 time=0
note_on channel=11 note=89 velocity=0 time=3
note_on channel=9 note=49 velocity=0 time=2
control_change channel=1 control=7 value=89 time=0
note_on channel=15 note=43 velocity=0 time=4
note_on channel=10 note=67 velocity=0 time=11
note_on channel=9 note=36 velocity=0 time=1
pitchwheel channel=11 pitch=-119 time=2
pitchwheel channel=11 pitch=-119 time=0
pitchwheel channel=11 pitch=-119 time=1
pitchwheel channel=11 pitch=-597 time=2
pitchwheel channel=11 pitch=-597 time=0
pitchwheel channel=11 pitch=-597 time=0
pitchwheel channel=11 pitch=-1074 time=3
pitchwheel channel=11 pitch=-1074 time=1
pitchwheel channel=11 pitch=-1074 time=0
pitchwheel channel=11 pitch=-1706 time=2
pitchwheel channel=11 pitch=-1706 time=0
pitchwheel channel=11 pitch=-1706 time=0
note_on channel=14 note=79 velocity=0 time=3
pitchwheel channel=11 pitch=-2346 time=0
pitchwheel channel=11 pitch=-2346 time=0
pitchwheel channel=11 pitch=-2346 time=0
note_on channel=9 note=44 velocity=0 time=1
note_on channel=2 note=74 velocity=0 time=0
note_on channel=2 note=67 velocity=0 time=0
note_on channel=2 note=79 velocity=0 time=0
note_on channel=3 note=67 velocity=127 time=0
note_on channel=8 note=67 velocity=127 time=0
note_on channel=9 note=44 velocity=100 time=0
pitchwheel channel=11 pitch=-2764 time=0
note_on channel=14 note=67 velocity=0 time=1
pitchwheel channel=11 pitch=-2764 time=0
pitchwheel channel=11 pitch=-2764 time=0
note_on channel=1 note=67 velocity=81 time=2
pitchwheel channel=11 pitch=-3122 time=0
pitchwheel channel=11 pitch=-3122 time=1
pitchwheel channel=11 pitch=-3122 time=0
pitchwheel channel=11 pitch=-3583 time=1
pitchwheel channel=11 pitch=-3583 time=1
pitchwheel channel=11 pitch=-3583 time=1
pitchwheel channel=11 pitch=-4215 time=5
pitchwheel channel=11 pitch=-4215 time=0
pitchwheel channel=11 pitch=-4215 time=0
pitchwheel channel=11 pitch=-4573 time=3
note_on channel=7 note=79 velocity=0 time=1
pitchwheel channel=11 pitch=-4573 time=0
pitchwheel channel=11 pitch=-4573 time=0
note_on channel=7 note=91 velocity=0 time=1
note_on channel=11 note=91 velocity=0 time=2
note_on channel=1 note=67 velocity=0 time=2
note_on channel=11 note=79 velocity=0 time=1
pitchwheel channel=11 pitch=-4096 time=2
pitchwheel channel=11 pitch=-4096 time=0
pitchwheel channel=11 pitch=-4096 time=1
pitchwheel channel=11 pitch=-3412 time=2
pitchwheel channel=11 pitch=-3412 time=0
pitchwheel channel=11 pitch=-3412 time=0
pitchwheel channel=11 pitch=-2346 time=2
pitchwheel channel=11 pitch=-2346 time=0
note_on channel=3 note=67 velocity=0 time=1
note_on channel=8 note=67 velocity=0 time=0
note_on channel=1 note=67 velocity=102 time=0
note_on channel=3 note=67 velocity=127 time=0
note_on channel=8 note=67 velocity=127 time=0
note_on channel=9 note=40 velocity=108 time=0
pitchwheel channel=11 pitch=-2346 time=0
note_on channel=6 note=67 velocity=0 time=1
pitchwheel channel=11 pitch=0 time=1
pitchwheel channel=11 pitch=0 time=1
pitchwheel channel=11 pitch=0 time=0
note_on channel=6 note=79 velocity=0 time=1
note_on channel=1 note=67 velocity=0 time=21
note_on channel=8 note=67 velocity=0 time=5
note_on channel=9 note=44 velocity=0 time=0
note_on channel=3 note=67 velocity=0 time=0
note_on channel=9 note=44 velocity=100 time=0
note_on channel=9 note=40 velocity=0 time=15
note_on channel=4 note=31 velocity=0 time=0
note_on channel=9 note=44 velocity=0 time=45
note_on channel=1 note=64 velocity=112 time=0
note_on channel=3 note=69 velocity=69 time=0
note_on channel=4 note=31 velocity=70 time=0
note_on channel=8 note=69 velocity=112 time=0
note_on channel=9 note=35 velocity=108 time=0
note_on channel=9 note=44 velocity=100 time=0
note_on channel=1 note=64 velocity=0 time=23
note_on channel=4 note=31 velocity=0 time=6
note_on channel=8 note=69 velocity=0 time=1
note_on channel=3 note=69 velocity=0 time=0
note_on channel=9 note=35 velocity=0 time=15
note_on channel=1 note=67 velocity=115 time=8
note_on channel=9 note=44 velocity=0 time=7
note_on channel=3 note=71 velocity=97 time=0
note_on channel=3 note=67 velocity=92 time=0
note_on channel=3 note=67 velocity=115 time=0
note_on channel=4 note=31 velocity=100 time=0
note_on channel=8 note=71 velocity=105 time=0
note_on channel=9 note=35 velocity=108 time=0
note_on channel=9 note=44 velocity=100 time=0
note_on channel=3 note=67 velocity=0 time=30
note_on channel=9 note=35 velocity=0 time=15
note_on channel=9 note=44 velocity=0 time=15
note_on channel=3 note=67 velocity=0 time=0
note_on channel=8 note=71 velocity=0 time=0
note_on channel=9 note=44 velocity=100 time=0
note_on channel=1 note=67 velocity=0 time=6
note_on channel=3 note=71 velocity=0 time=24
note_on channel=1 note=67 velocity=115 time=0
note_on channel=3 note=67 velocity=119 time=0
note_on channel=3 note=62 velocity=83 time=0
note_on channel=3 note=74 velocity=70 time=0
note_on channel=8 note=74 velocity=102 time=0
pitchwheel channel=7 pitch=-358 time=8
pitchwheel channel=7 pitch=-358 time=0
pitchwheel channel=7 pitch=-358 time=1
pitchwheel channel=7 pitch=-597 time=6
pitchwheel channel=7 pitch=-597 time=0
pitchwheel channel=7 pitch=-597 time=0
pitchwheel channel=7 pitch=-955 time=5
pitchwheel channel=7 pitch=-955 time=1
pitchwheel channel=7 pitch=-955 time=0
pitchwheel channel=7 pitch=-1706 time=5
pitchwheel channel=7 pitch=-1706 time=1
pitchwheel channel=7 pitch=-1706 time=0
note_on channel=3 note=62 velocity=0 time=3
note_on channel=3 note=67 velocity=0 time=0
note_on channel=9 note=44 velocity=0 time=0
note_on channel=9 note=40 velocity=108 time=0
note_on channel=9 note=44 velocity=100 time=0
pitchwheel channel=7 pitch=-2048 time=1
pitchwheel channel=7 pitch=-2048 time=1
pitchwheel channel=7 pitch=-2048 time=1
pitchwheel channel=7 pitch=-2346 time=2
pitchwheel channel=7 pitch=-2346 time=1
pitchwheel channel=7 pitch=-2346 time=0
pitchwheel channel=7 pitch=-2545 time=2
pitchwheel channel=7 pitch=-2545 time=0
pitchwheel channel=7 pitch=-2545 time=0
pitchwheel channel=7 pitch=-3122 time=5
pitchwheel channel=7 pitch=-3122 time=0
pitchwheel channel=7 pitch=-3122 time=0
pitchwheel channel=7 pitch=-3583 time=2
pitchwheel channel=7 pitch=-3583 time=0
pitchwheel channel=7 pitch=-3583 time=1
pitchwheel channel=7 pitch=-4096 time=5
pitchwheel channel=7 pitch=-4096 time=0
pitchwheel channel=7 pitch=-4096 time=1
note_on channel=1 note=67 velocity=0 time=2
pitchwheel channel=7 pitch=-4334 time=1
pitchwheel channel=7 pitch=-4334 time=0
pitchwheel channel=7 pitch=-4334 time=1
note_on channel=4 note=31 velocity=0 time=3
note_on channel=3 note=74 velocity=0 time=1
note_on channel=8 note=74 velocity=0 time=0
note_on channel=9 note=40 velocity=0 time=15
note_on channel=9 note=44 velocity=0 time=15
note_on channel=3 note=64 velocity=108 time=0
note_on channel=3 note=67 velocity=119 time=0
note_on channel=3 note=72 velocity=92 time=0
note_on channel=4 note=31 velocity=69 time=0
note_on channel=8 note=72 velocity=112 time=0
note_on channel=9 note=44 velocity=100 time=0
note_on channel=1 note=64 velocity=99 time=5
control_change channel=1 control=7 value=87 time=41
note_on channel=9 note=44 velocity=0 time=14
note_on channel=9 note=35 velocity=108 time=0
note_on channel=9 note=44 velocity=100 time=0
control_change channel=1 control=7 value=86 time=35
note_on channel=9 note=35 velocity=0 time=10
note_on channel=9 note=44 velocity=0 time=15
note_on channel=9 note=44 velocity=100 time=0
note_on channel=9 note=40 velocity=108 time=30
control_change channel=1 control=7 value=83 time=25
note_on channel=9 note=44 velocity=0 time=5
control_change channel=1 control=7 value=82 time=0
note_on channel=9 note=44 velocity=100 time=0
note_on channel=9 note=40 velocity=0 time=15
note_on channel=3 note=64 velocity=0 time=15
note_on channel=3 note=67 velocity=0 time=0
note_on channel=1 note=64 velocity=0 time=0
note_on channel=4 note=31 velocity=0 time=4
note_on channel=9 note=44 velocity=0 time=26
note_on channel=3 note=72 velocity=0 time=0
note_on channel=8 note=72 velocity=0 time=0
note_on channel=1 note=67 velocity=124 time=0
note_on channel=3 note=71 velocity=94 time=0
note_on channel=3 note=67 velocity=102 time=0
note_on channel=8 note=71 velocity=92 time=0
note_on channel=9 note=35 velocity=108 time=0
note_on channel=9 note=44 velocity=100 time=0
note_on channel=4 note=43 velocity=55 time=8
note_on channel=1 note=67 velocity=0 time=14
note_on channel=8 note=71 velocity=0 time=8
note_on channel=3 note=71 velocity=0 time=0
note_on channel=3 note=67 velocity=0 time=0
note_on channel=1 note=66 velocity=124 time=0
note_on channel=3 note=69 velocity=97 time=0
note_on channel=3 note=66 velocity=127 time=0
note_on channel=8 note=69 velocity=119 time=0
note_on channel=4 note=43 velocity=0 time=10
note_on channel=9 note=35 velocity=0 time=5
note_on channel=3 note=66 velocity=0 time=15
note_on channel=1 note=66 velocity=0 time=0
note_on channel=9 note=44 velocity=0 time=0
note_on channel=8 note=69 velocity=0 time=0
note_on channel=3 note=69 velocity=0 time=0
note_on channel=1 note=64 velocity=127 time=0
note_on channel=3 note=64 velocity=97 time=0
note_on channel=3 note=67 velocity=94 time=0
note_on channel=8 note=67 velocity=112 time=0
note_on channel=9 note=33 velocity=108 time=0
note_on channel=9 note=44 velocity=100 time=0
note_on channel=4 note=36 velocity=79 time=7
note_on channel=9 note=33 velocity=0 time=38
note_on channel=9 note=44 velocity=0 time=15
note_on channel=9 note=44 velocity=100 time=0
note_on channel=1 note=64 velocity=0 time=36
note_on channel=4 note=36 velocity=0 time=1
note_on channel=8 note=67 velocity=0 time=23
note_on channel=3 note=64 velocity=0 time=0
note_on channel=9 note=44 velocity=0 time=0
note_on channel=3 note=67 velocity=0 time=0
note_on channel=3 note=69 velocity=119 time=0
note_on channel=3 note=66 velocity=119 time=0
note_on channel=4 note=38 velocity=74 time=0
note_on channel=8 note=69 velocity=127 time=0
note_on channel=9 note=45 velocity=108 time=0
note_on channel=9 note=44 velocity=100 time=0
note_on channel=1 note=66 velocity=127 time=5
note_on channel=9 note=45 velocity=0 time=40
pitchwheel channel=7 pitch=-4693 time=10
pitchwheel channel=7 pitch=-4693 time=0
pitchwheel channel=7 pitch=-4693 time=0
note_on channel=9 note=44 velocity=0 time=5
note_on channel=9 note=44 velocity=100 time=0
note_on channel=4 note=38 velocity=0 time=24
note_on channel=3 note=66 velocity=0 time=6
note_on channel=1 note=66 velocity=0 time=10
note_on channel=7 note=79 velocity=102 time=19
note_on channel=7 note=91 velocity=115 time=0
note_on channel=3 note=69 velocity=0 time=1
note_on channel=8 note=69 velocity=0 time=0
note_on channel=9 note=44 velocity=0 time=0
note_on channel=2 note=79 velocity=102 time=0
note_on channel=4 note=31 velocity=69 time=0
note_on channel=9 note=36 velocity=108 time=0
note_on channel=9 note=44 velocity=100 time=0
note_on channel=6 note=67 velocity=63 time=2
note_on channel=9 note=49 velocity=99 time=0
note_on channel=6 note=79 velocity=81 time=1
note_on channel=10 note=79 velocity=127 time=0
note_on channel=2 note=74 velocity=90 time=2
note_on channel=11 note=91 velocity=69 time=1
note_on channel=11 note=79 velocity=68 time=2
pitchwheel channel=7 pitch=-4334 time=4
pitchwheel channel=7 pitch=-4334 time=0
pitchwheel channel=7 pitch=-4334 time=0
note_on channel=15 note=43 velocity=127 time=0
pitchwheel channel=7 pitch=-3925 time=3
pitchwheel channel=7 pitch=-3925 time=1
pitchwheel channel=7 pitch=-3925 time=0
pitchwheel channel=7 pitch=-3003 time=2
pitchwheel channel=7 pitch=-3003 time=0
note_on channel=11 note=89 velocity=84 time=0
pitchwheel channel=7 pitch=-3003 time=1
pitchwheel channel=7 pitch=0 time=1
pitchwheel channel=7 pitch=0 time=1
pitchwheel channel=7 pitch=0 time=0
note_on channel=9 note=49 velocity=0 time=2
note_on channel=11 note=89 velocity=0 time=4
note_on channel=9 note=36 velocity=0 time=18
pitchwheel channel=11 pitch=-119 time=2
pitchwheel channel=11 pitch=-119 time=0
pitchwheel channel=11 pitch=-119 time=1
pitchwheel channel=11 pitch=-597 time=2
pitchwheel channel=11 pitch=-597 time=0
pitchwheel channel=11 pitch=-597 time=0
pitchwheel channel=11 pitch=-1074 time=3
note_on channel=10 note=79 velocity=0 time=1
pitchwheel channel=11 pitch=-1074 time=0
pitchwheel channel=11 pitch=-1074 time=0
pitchwheel channel=11 pitch=-1706 time=2
pitchwheel channel=11 pitch=-1706 time=0
pitchwheel channel=11 pitch=-1706 time=0
pitchwheel channel=11 pitch=-597 time=1
pitchwheel channel=11 pitch=-597 time=1
pitchwheel channel=11 pitch=-597 time=0
note_on channel=2 note=79 velocity=0 time=1
pitchwheel channel=11 pitch=-2346 time=0
pitchwheel channel=11 pitch=-2346 time=0
pitchwheel channel=11 pitch=-2346 time=0
note_on channel=9 note=44 velocity=0 time=1
note_on channel=9 note=44 velocity=100 time=0
pitchwheel channel=11 pitch=-2764 time=0
pitchwheel channel=11 pitch=-1364 time=0
pitchwheel channel=11 pitch=-1364 time=0
pitchwheel channel=11 pitch=-1364 time=0
pitchwheel channel=11 pitch=-2764 time=1
pitchwheel channel=11 pitch=-2764 time=0
pitchwheel channel=11 pitch=-2247 time=1
pitchwheel channel=11 pitch=-2247 time=0
pitchwheel channel=11 pitch=-2247 time=0
pitchwheel channel=11 pitch=-3122 time=1
pitchwheel channel=11 pitch=-3122 time=1
pitchwheel channel=11 pitch=-3122 time=0
pitchwheel channel=11 pitch=-2645 time=0
pitchwheel channel=11 pitch=-3583 time=1
pitchwheel channel=11 pitch=-2645 time=0
note_on channel=2 note=74 velocity=0 time=1
pitchwheel channel=11 pitch=-3583 time=0
pitchwheel channel=11 pitch=-2645 time=0
pitchwheel channel=11 pitch=-3583 time=1
pitchwheel channel=11 pitch=-3242 time=0
pitchwheel channel=11 pitch=-3242 time=0
pitchwheel channel=11 pitch=-3242 time=1
pitchwheel channel=11 pitch=-3754 time=1
pitchwheel channel=11 pitch=-3754 time=1
pitchwheel channel=11 pitch=-3754 time=0
pitchwheel channel=11 pitch=-4215 time=2
pitchwheel channel=11 pitch=-4215 time=0
pitchwheel channel=11 pitch=-4215 time=0
pitchwheel channel=11 pitch=-4215 time=0
pitchwheel channel=11 pitch=-4215 time=1
pitchwheel channel=11 pitch=-4215 time=0
pitchwheel channel=11 pitch=-4573 time=2
pitchwheel channel=11 pitch=-4573 time=1
pitchwheel channel=11 pitch=-4573 time=0
pitchwheel channel=11 pitch=-4573 time=0
pitchwheel channel=11 pitch=-4573 time=0
pitchwheel channel=11 pitch=-4573 time=0
note_on channel=11 note=91 velocity=0 time=3
note_on channel=11 note=79 velocity=0 time=3
pitchwheel channel=11 pitch=-4096 time=2
pitchwheel channel=11 pitch=-4096 time=0
pitchwheel channel=11 pitch=-4096 time=1
pitchwheel channel=11 pitch=-3754 time=0
pitchwheel channel=11 pitch=-3754 time=1
pitchwheel channel=11 pitch=-3754 time=0
pitchwheel channel=11 pitch=-3412 time=1
pitchwheel channel=11 pitch=-3412 time=0
pitchwheel channel=11 pitch=-3412 time=0
pitchwheel channel=11 pitch=-1877 time=1
pitchwheel channel=11 pitch=-1877 time=0
pitchwheel channel=11 pitch=-1877 time=0
pitchwheel channel=11 pitch=-2346 time=1
pitchwheel channel=11 pitch=-2346 time=0
note_on channel=1 note=67 velocity=119 time=1
note_on channel=3 note=67 velocity=108 time=0
note_on channel=8 note=67 velocity=108 time=0
note_on channel=9 note=40 velocity=108 time=0
pitchwheel channel=11 pitch=-2346 time=0
pitchwheel channel=11 pitch=0 time=0
pitchwheel channel=11 pitch=0 time=1
pitchwheel channel=11 pitch=0 time=0
pitchwheel channel=11 pitch=0 time=1
pitchwheel channel=11 pitch=0 time=1
pitchwheel channel=11 pitch=0 time=0
note_on channel=6 note=67 velocity=0 time=2
note_on channel=15 note=43 velocity=0 time=3
note_on channel=6 note=79 velocity=0 time=1
note_on channel=7 note=91 velocity=0 time=5
note_on channel=1 note=67 velocity=0 time=1
note_on channel=4 note=31 velocity=0 time=2
note_on channel=7 note=79 velocity=0 time=2
note_on channel=9 note=44 velocity=0 time=11
note_on channel=8 note=67 velocity=0 time=0
note_on channel=3 note=67 velocity=0 time=0
note_on channel=1 note=67 velocity=112 time=0
note_on channel=3 note=67 velocity=108 time=0
note_on channel=8 note=67 velocity=88 time=0
note_on channel=9 note=44 velocity=100 time=0
note_on channel=9 note=40 velocity=0 time=15
note_on channel=1 note=67 velocity=0 time=10
note_on channel=8 note=67 velocity=0 time=5
note_on channel=3 note=67 velocity=0 time=0
note_on channel=4 note=31 velocity=38 time=15
note_on channel=9 note=44 velocity=0 time=15
note_on channel=1 note=64 velocity=127 time=0
note_on channel=3 note=69 velocity=97 time=0
note_on channel=8 note=69 velocity=102 time=0
note_on channel=9 note=35 velocity=108 time=0
note_on channel=9 note=44 velocity=100 time=0
note_on channel=1 note=64 velocity=0 time=18
note_on channel=4 note=31 velocity=0 time=5
note_on channel=8 note=69 velocity=0 time=7
note_on channel=3 note=69 velocity=0 time=0
note_on channel=9 note=35 velocity=0 time=15
note_on channel=1 note=67 velocity=127 time=11
note_on channel=9 note=44 velocity=0 time=4
note_on channel=3 note=71 velocity=97 time=0
note_on channel=3 note=67 velocity=119 time=0
note_on channel=4 note=31 velocity=84 time=0
note_on channel=8 note=71 velocity=115 time=0
note_on channel=9 note=35 velocity=108 time=0
note_on channel=9 note=44 velocity=100 time=0
note_on channel=9 note=35 velocity=0 time=45
note_on channel=1 note=67 velocity=0 time=7
note_on channel=3 note=67 velocity=0 time=8
note_on channel=3 note=71 velocity=0 time=0
note_on channel=8 note=71 velocity=0 time=0
note_on channel=9 note=44 velocity=0 time=0
note_on channel=9 note=44 velocity=100 time=0
note_on channel=1 note=67 velocity=127 time=30
note_on channel=3 note=67 velocity=119 time=0
note_on channel=3 note=74 velocity=100 time=0
note_on channel=8 note=74 velocity=112 time=0
note_on channel=3 note=74 velocity=0 time=30
note_on channel=3 note=67 velocity=0 time=0
note_on channel=9 note=44 velocity=0 time=0
note_on channel=9 note=40 velocity=108 time=0
note_on channel=9 note=44 velocity=100 time=0
note_on channel=1 note=67 velocity=0 time=3
note_on channel=4 note=31 velocity=0 time=16
pitchwheel channel=7 pitch=-238 time=9
pitchwheel channel=7 pitch=-238 time=1
pitchwheel channel=7 pitch=-238 time=0
note_on channel=8 note=74 velocity=0 time=1
pitchwheel channel=7 pitch=-597 time=10
pitchwheel channel=7 pitch=-597 time=1
pitchwheel channel=7 pitch=-597 time=0
note_on channel=9 note=40 velocity=0 time=4
pitchwheel channel=7 pitch=-955 time=0
pitchwheel channel=7 pitch=-955 time=0
pitchwheel channel=7 pitch=-955 time=0
pitchwheel channel=7 pitch=-1364 time=8
pitchwheel channel=7 pitch=-1364 time=0
pitchwheel channel=7 pitch=-1364 time=1
pitchwheel channel=7 pitch=-1706 time=5
pitchwheel channel=7 pitch=-1706 time=0
pitchwheel channel=7 pitch=-1706 time=0
note_on channel=9 note=44 velocity=0 time=1
note_on channel=1 note=69 velocity=127 time=0
note_on channel=1 note=65 velocity=127 time=0
note_on channel=3 note=72 velocity=94 time=0
note_on channel=3 note=69 velocity=102 time=0
note_on channel=4 note=31 velocity=84 time=0
note_on channel=8 note=72 velocity=127 time=0
note_on channel=9 note=44 velocity=100 time=0
pitchwheel channel=7 pitch=-2048 time=4
pitchwheel channel=7 pitch=-2048 time=0
pitchwheel channel=7 pitch=-2048 time=1
pitchwheel channel=7 pitch=-2446 time=5
pitchwheel channel=7 pitch=-2446 time=0
pitchwheel channel=7 pitch=-2446 time=0
pitchwheel channel=7 pitch=-2645 time=6
pitchwheel channel=7 pitch=-2645 time=0
pitchwheel channel=7 pitch=-2645 time=0
pitchwheel channel=7 pitch=-3003 time=8
pitchwheel channel=7 pitch=-3003 time=0
pitchwheel channel=7 pitch=-3003 time=0
pitchwheel channel=7 pitch=-3412 time=7
pitchwheel channel=7 pitch=-3412 time=1
pitchwheel channel=7 pitch=-3412 time=0
pitchwheel channel=7 pitch=-3754 time=13
pitchwheel channel=7 pitch=-3754 time=0
pitchwheel channel=7 pitch=-3754 time=0
note_on channel=9 note=44 velocity=0 time=15
pitchwheel channel=7 pitch=-4215 time=0
pitchwheel channel=7 pitch=-4215 time=0
pitchwheel channel=7 pitch=-4215 time=0
note_on channel=9 note=35 velocity=108 time=0
note_on channel=9 note=44 velocity=100 time=0
pitchwheel channel=7 pitch=-4454 time=11
pitchwheel channel=7 pitch=-4454 time=1
pitchwheel channel=7 pitch=-4454 time=0
note_on channel=9 note=35 velocity=0 time=33
note_on channel=9 note=44 velocity=0 time=15
note_on channel=9 note=44 velocity=100 time=0
note_on channel=9 note=40 velocity=108 time=30
note_on channel=9 note=44 velocity=0 time=30
note_on channel=9 note=44 velocity=100 time=0
note_on channel=9 note=40 velocity=0 time=15
note_on channel=4 note=31 velocity=0 time=12
note_on channel=8 note=72 velocity=0 time=13
note_on channel=3 note=69 velocity=0 time=0
note_on channel=3 note=72 velocity=0 time=0
note_on channel=1 note=69 velocity=0 time=0
note_on channel=1 note=65 velocity=0 time=0
note_on channel=9 note=44 velocity=0 time=20
note_on channel=1 note=65 velocity=127 time=0
note_on channel=3 note=65 velocity=49 time=0
note_on channel=3 note=69 velocity=127 time=0
note_on channel=4 note=31 velocity=83 time=0
note_on channel=8 note=69 velocity=75 time=0
note_on channel=9 note=35 velocity=108 time=0
note_on channel=9 note=44 velocity=100 time=0
note_on channel=1 note=65 velocity=0 time=28
note_on channel=8 note=69 velocity=0 time=2
note_on channel=3 note=65 velocity=0 time=0
note_on channel=3 note=69 velocity=0 time=0
note_on channel=1 note=62 velocity=124 time=0
note_on channel=3 note=62 velocity=112 time=0
note_on channel=3 note=65 velocity=63 time=0
note_on channel=8 note=65 velocity=112 time=0
note_on channel=9 note=35 velocity=0 time=15
note_on channel=4 note=31 velocity=0 time=1
note_on channel=1 note=60 velocity=127 time=12
note_on channel=9 note=44 velocity=0 time=2
note_on channel=3 note=65 velocity=0 time=0
note_on channel=3 note=62 velocity=0 time=0
note_on channel=1 note=62 velocity=0 time=0
note_on channel=8 note=65 velocity=0 time=0
note_on channel=3 note=60 velocity=124 time=0
note_on channel=3 note=57 velocity=124 time=0
note_on channel=8 note=60 velocity=105 time=0
note_on channel=9 note=33 velocity=108 time=0
note_on channel=9 note=44 velocity=100 time=0
note_on channel=4 note=36 velocity=81 time=1
note_on channel=9 note=33 velocity=0 time=44
note_on channel=9 note=44 velocity=0 time=15
note_on channel=9 note=44 velocity=100 time=0
note_on channel=3 note=57 velocity=0 time=30
note_on channel=4 note=36 velocity=0 time=10
note_on channel=1 note=60 velocity=0 time=14
note_on channel=1 note=62 velocity=112 time=1
note_on channel=4 note=38 velocity=97 time=3
note_on channel=3 note=60 velocity=0 time=2
note_on channel=8 note=60 velocity=0 time=0
note_on channel=9 note=44 velocity=0 time=0
note_on channel=3 note=57 velocity=124 time=0
note_on channel=3 note=62 velocity=99 time=0
note_on channel=8 note=62 velocity=108 time=0
note_on channel=9 note=45 velocity=108 time=0
note_on channel=9 note=44 velocity=100 time=0
pitchwheel channel=7 pitch=-4693 time=33
pitchwheel channel=7 pitch=-4693 time=0
pitchwheel channel=7 pitch=-4693 time=1
note_on channel=9 note=45 velocity=0 time=11
note_on channel=9 note=44 velocity=0 time=15
note_on channel=9 note=44 velocity=100 time=0
note_on channel=3 note=57 velocity=0 time=30
note_on channel=8 note=62 velocity=0 time=0
note_on channel=7 note=79 velocity=94 time=9
note_on channel=7 note=91 velocity=115 time=0
note_on channel=4 note=38 velocity=0 time=3
note_on channel=7 note=81 velocity=92 time=0
pitchwheel channel=7 pitch=-4215 time=12
pitchwheel channel=7 pitch=-4215 time=0
pitchwheel channel=7 pitch=-4215 time=1
note_on channel=6 note=67 velocity=62 time=1
pitchwheel channel=7 pitch=-2048 time=0
note_on channel=6 note=79 velocity=68 time=1
pitchwheel channel=7 pitch=-2048 time=0
pitchwheel channel=7 pitch=-2048 time=0
note_on channel=3 note=62 velocity=0 time=3
note_on channel=9 note=44 velocity=0 time=0
note_on channel=2 note=79 velocity=115 time=0
note_on channel=2 note=74 velocity=102 time=0
note_on channel=4 note=31 velocity=90 time=0
note_on channel=9 note=49 velocity=74 time=0
note_on channel=9 note=36 velocity=108 time=0
note_on channel=9 note=44 velocity=100 time=0
pitchwheel channel=7 pitch=546 time=1
pitchwheel channel=7 pitch=546 time=0
pitchwheel channel=7 pitch=546 time=0
note_on channel=15 note=43 velocity=127 time=0
pitchwheel channel=7 pitch=0 time=1
pitchwheel channel=7 pitch=0 time=0
note_on channel=10 note=79 velocity=127 time=0
pitchwheel channel=7 pitch=0 time=1
note_on channel=1 note=62 velocity=0 time=3
note_on channel=11 note=91 velocity=69 time=0
note_on channel=11 note=79 velocity=68 time=2
note_on channel=11 note=89 velocity=84 time=10
note_on channel=9 note=49 velocity=0 time=8
note_on channel=11 note=89 velocity=0 time=1
note_on channel=7 note=81 velocity=0 time=13
note_on channel=9 note=36 velocity=0 time=5
pitchwheel channel=11 pitch=-119 time=2
pitchwheel channel=11 pitch=-119 time=0
pitchwheel channel=11 pitch=-119 time=1
pitchwheel channel=11 pitch=-597 time=2
pitchwheel channel=11 pitch=-597 time=0
pitchwheel channel=11 pitch=-597 time=0
note_on channel=10 note=79 velocity=0 time=3
pitchwheel channel=11 pitch=-1074 time=0
pitchwheel channel=11 pitch=-1074 time=1
pitchwheel channel=11 pitch=-1074 time=0
pitchwheel channel=11 pitch=-1706 time=2
pitchwheel channel=11 pitch=-1706 time=0
pitchwheel channel=11 pitch=-1706 time=0
note_on channel=2 note=79 velocity=0 time=3
pitchwheel channel=11 pitch=-2346 time=0
pitchwheel channel=11 pitch=-2346 time=0
pitchwheel channel=11 pitch=-2346 time=0
note_on channel=9 note=44 velocity=0 time=1
note_on channel=9 note=44 velocity=100 time=0
pitchwheel channel=11 pitch=-2764 time=0
pitchwheel channel=11 pitch=-2764 time=1
pitchwheel channel=11 pitch=-2764 time=0
pitchwheel channel=11 pitch=-3122 time=2
pitchwheel channel=11 pitch=-3122 time=1
pitchwheel channel=11 pitch=-3122 time=0
note_on channel=2 note=74 velocity=0 time=1
pitchwheel channel=11 pitch=-3583 time=0
pitchwheel channel=11 pitch=-3583 time=1
note_on channel=6 note=79 velocity=0 time=1
note_on channel=7 note=91 velocity=0 time=0
pitchwheel channel=11 pitch=-3583 time=0
note_on channel=6 note=67 velocity=0 time=1
note_on channel=7 note=79 velocity=0 time=4
note_on channel=15 note=43 velocity=0 time=0
pitchwheel channel=11 pitch=-4215 time=0
pitchwheel channel=11 pitch=-4215 time=0
pitchwheel channel=11 pitch=-4215 time=0
pitchwheel channel=11 pitch=-4573 time=3
pitchwheel channel=11 pitch=-4573 time=1
pitchwheel channel=11 pitch=-4573 time=0
note_on channel=11 note=91 velocity=0 time=3
note_on channel=11 note=79 velocity=0 time=3
pitchwheel channel=11 pitch=-4096 time=2
pitchwheel channel=11 pitch=-4096 time=0
pitchwheel channel=11 pitch=-4096 time=1
pitchwheel channel=11 pitch=-3412 time=2
pitchwheel channel=11 pitch=-3412 time=0
pitchwheel channel=11 pitch=-3412 time=0
pitchwheel channel=11 pitch=-2346 time=2
pitchwheel channel=11 pitch=-2346 time=0
note_on channel=1 note=67 velocity=124 time=1
note_on channel=3 note=67 velocity=84 time=0
note_on channel=8 note=67 velocity=97 time=0
note_on channel=9 note=40 velocity=108 time=0
pitchwheel channel=11 pitch=-2346 time=0
pitchwheel channel=11 pitch=0 time=2
pitchwheel channel=11 pitch=0 time=1
pitchwheel channel=11 pitch=0 time=0
note_on channel=1 note=67 velocity=0 time=12
note_on channel=8 note=67 velocity=0 time=15
note_on channel=3 note=67 velocity=0 time=0
note_on channel=9 note=44 velocity=0 time=0
note_on channel=1 note=67 velocity=108 time=0
note_on channel=3 note=67 velocity=94 time=0
note_on channel=8 note=67 velocity=66 time=0
note_on channel=9 note=44 velocity=100 time=0
note_on channel=4 note=31 velocity=0 time=6
note_on channel=9 note=40 velocity=0 time=9
note_on channel=1 note=67 velocity=0 time=11
note_on channel=3 note=67 velocity=0 time=4
note_on channel=8 note=67 velocity=0 time=0
note_on channel=9 note=44 velocity=0 time=30
note_on channel=1 note=64 velocity=127 time=0
note_on channel=3 note=69 velocity=119 time=0
note_on channel=3 note=67 velocity=69 time=0
note_on channel=4 note=31 velocity=90 time=0
note_on channel=8 note=69 velocity=105 time=0
note_on channel=9 note=35 velocity=108 time=0
note_on channel=9 note=44 velocity=100 time=0
note_on channel=1 note=64 velocity=0 time=19
note_on channel=4 note=31 velocity=0 time=7
note_on channel=3 note=69 velocity=0 time=4
note_on channel=8 note=69 velocity=0 time=0
note_on channel=3 note=67 velocity=0 time=0
note_on channel=9 note=35 velocity=0 time=15
note_on channel=9 note=44 velocity=0 time=15
note_on channel=1 note=67 velocity=127 time=0
note_on channel=3 note=71 velocity=105 time=0
note_on channel=3 note=67 velocity=79 time=0
note_on channel=4 note=31 velocity=73 time=0
note_on channel=8 note=71 velocity=119 time=0
note_on channel=9 note=35 velocity=108 time=0
note_on channel=9 note=44 velocity=100 time=0
note_on channel=9 note=35 velocity=0 time=45
note_on channel=8 note=71 velocity=0 time=15
note_on channel=3 note=71 velocity=0 time=0
note_on channel=1 note=67 velocity=0 time=0
note_on channel=3 note=67 velocity=0 time=0
note_on channel=9 note=44 velocity=0 time=0
note_on channel=9 note=44 velocity=100 time=0
note_on channel=3 note=74 velocity=99 time=30
note_on channel=3 note=67 velocity=74 time=0
note_on channel=8 note=74 velocity=94 time=0
note_on channel=1 note=67 velocity=108 time=3
note_on channel=9 note=44 velocity=0 time=27
note_on channel=9 note=40 velocity=108 time=0
note_on channel=9 note=44 velocity=100 time=0
note_on channel=8 note=74 velocity=0 time=30
note_on channel=3 note=67 velocity=0 time=0
note_on channel=3 note=74 velocity=0 time=0
note_on channel=1 note=67 velocity=0 time=5
note_on channel=9 note=40 velocity=0 time=10
note_on channel=9 note=44 velocity=0 time=15
note_on channel=3 note=71 velocity=73 time=0
note_on channel=3 note=67 velocity=86 time=0
note_on channel=8 note=71 velocity=77 time=0
note_on channel=9 note=44 velocity=100 time=0
note_on channel=1 note=67 velocity=102 time=3
note_on channel=4 note=31 velocity=0 time=19
note_on channel=8 note=71 velocity=0 time=8
note_on channel=3 note=71 velocity=0 time=0
note_on channel=3 note=67 velocity=0 time=0
note_on channel=9 note=40 velocity=127 time=0
note_on channel=1 note=67 velocity=0 time=11
note_on channel=9 note=40 velocity=0 time=4
note_on channel=4 note=40 velocity=83 time=7
<meta message time_signature numerator=2 denominator=4 clocks_per_click=24 notated_32nd_notes_per_beat=8 time=8>
note_on channel=9 note=44 velocity=0 time=0
note_on channel=1 note=72 velocity=83 time=0
note_on channel=3 note=76 velocity=112 time=0
note_on channel=8 note=76 velocity=84 time=0
note_on channel=9 note=40 velocity=127 time=0
note_on channel=9 note=36 velocity=127 time=0
note_on channel=9 note=49 velocity=127 time=7
note_on channel=9 note=40 velocity=0 time=8
note_on channel=8 note=76 velocity=0 time=15
note_on channel=9 note=36 velocity=0 time=3
note_on channel=4 note=40 velocity=0 time=16
note_on channel=9 note=49 velocity=0 time=1
note_on channel=3 note=76 velocity=0 time=10
note_on channel=1 note=72 velocity=0 time=13
note_on channel=4 note=38 velocity=94 time=13
note_on channel=3 note=74 velocity=100 time=4
note_on channel=3 note=78 velocity=124 time=0
note_on channel=8 note=78 velocity=97 time=0
note_on channel=9 note=40 velocity=127 time=0
note_on channel=9 note=36 velocity=127 time=5
note_on channel=9 note=49 velocity=127 time=1
note_on channel=1 note=74 velocity=61 time=1
note_on channel=9 note=40 velocity=0 time=8
note_on channel=4 note=38 velocity=0 time=23
note_on channel=9 note=36 velocity=0 time=0
note_on channel=9 note=49 velocity=0 time=8
note_on channel=8 note=78 velocity=0 time=14
note_on channel=3 note=74 velocity=0 time=0
note_on channel=3 note=78 velocity=0 time=0
control_change channel=1 control=7 value=127 time=0
control_change channel=1 control=7 value=126 time=18
note_on channel=3 note=72 velocity=100 time=12
note_on channel=3 note=79 velocity=127 time=0
note_on channel=4 note=36 velocity=81 time=0
note_on channel=8 note=79 velocity=127 time=0
note_on channel=1 note=76 velocity=92 time=1
note_on channel=1 note=74 velocity=0 time=1
control_change channel=1 control=7 value=125 time=6
note_on channel=9 note=40 velocity=127 time=1
note_on channel=9 note=49 velocity=127 time=0
note_on channel=9 note=36 velocity=127 time=0
control_change channel=1 control=7 value=124 time=11
note_on channel=9 note=40 velocity=0 time=4
control_change channel=1 control=7 value=123 time=12
control_change channel=1 control=7 value=122 time=6
control_change channel=1 control=7 value=121 time=8
control_change channel=1 control=7 value=120 time=8
<meta message time_signature numerator=4 denominator=4 clocks_per_click=24 notated_32nd_notes_per_beat=8 time=2>
note_on channel=9 note=36 velocity=0 time=1
control_change channel=1 control=7 value=118 time=5
control_change channel=1 control=7 value=117 time=6
note_on channel=9 note=49 velocity=0 time=8
control_change channel=1 control=7 value=116 time=0
control_change channel=1 control=7 value=114 time=4
control_change channel=1 control=7 value=112 time=6
control_change channel=1 control=7 value=110 time=8
control_change channel=1 control=7 value=109 time=6
control_change channel=1 control=7 value=108 time=4
control_change channel=1 control=7 value=107 time=4
note_on channel=9 note=44 velocity=127 time=1
control_change channel=1 control=7 value=105 time=5
control_change channel=1 control=7 value=103 time=6
control_change channel=1 control=7 value=102 time=4
note_on channel=9 note=44 velocity=0 time=1
control_change channel=1 control=7 value=101 time=3
control_change channel=1 control=7 value=99 time=6
control_change channel=1 control=7 value=96 time=6
control_change channel=1 control=7 value=95 time=4
control_change channel=1 control=7 value=93 time=6
control_change channel=1 control=7 value=91 time=6
control_change channel=1 control=7 value=90 time=2
control_change channel=1 control=7 value=89 time=2
control_change channel=1 control=7 value=88 time=4
control_change channel=1 control=7 value=87 time=4
control_change channel=1 control=7 value=86 time=4
note_on channel=9 note=44 velocity=97 time=1
control_change channel=1 control=7 value=84 time=3
note_on channel=1 note=59 velocity=100 time=0
note_on channel=9 note=40 velocity=127 time=0
control_change channel=1 control=7 value=83 time=4
control_change channel=1 control=7 value=82 time=2
control_change channel=1 control=7 value=80 time=2
control_change channel=1 control=7 value=80 time=2
note_on channel=9 note=44 velocity=0 time=9
control_change channel=1 control=7 value=81 time=1
control_change channel=1 control=7 value=83 time=8
note_on channel=3 note=72 velocity=0 time=6
control_change channel=1 control=7 value=85 time=0
note_on channel=8 note=79 velocity=0 time=3
note_on channel=1 note=76 velocity=0 time=4
control_change channel=1 control=7 value=87 time=1
note_on channel=3 note=79 velocity=0 time=3
control_change channel=1 control=7 value=89 time=5
control_change channel=1 control=7 value=91 time=6
note_on channel=9 note=40 velocity=0 time=4
note_on channel=9 note=44 velocity=97 time=0
control_change channel=1 control=7 value=93 time=8
note_on channel=10 note=78 velocity=46 time=0
note_on channel=5 note=78 velocity=89 time=3
note_on channel=4 note=36 velocity=0 time=4
note_on channel=9 note=44 velocity=0 time=3
control_change channel=1 control=7 value=96 time=0
control_change channel=1 control=7 value=100 time=10
note_on channel=5 note=79 velocity=82 time=1
note_on channel=5 note=78 velocity=0 time=7
control_change channel=1 control=7 value=105 time=0
note_on channel=10 note=79 velocity=65 time=4
note_on channel=10 note=81 velocity=62 time=1
control_change channel=1 control=7 value=110 time=3
note_on channel=10 note=78 velocity=0 time=2
control_change channel=1 control=7 value=114 time=6
note_on channel=10 note=81 velocity=0 time=4
control_change channel=1 control=7 value=118 time=0
note_on channel=4 note=37 velocity=99 time=0
control_change channel=1 control=7 value=120 time=2
note_on channel=1 note=59 velocity=0 time=2
note_on channel=1 note=71 velocity=127 time=0
note_on channel=9 note=44 velocity=102 time=0
note_on channel=9 note=36 velocity=127 time=0
note_on channel=5 note=81 velocity=75 time=1
control_change channel=1 control=7 value=123 time=1
note_on channel=5 note=79 velocity=0 time=2
control_change channel=1 control=7 value=125 time=2
note_on channel=10 note=81 velocity=81 time=1
control_change channel=1 control=7 value=127 time=3
note_on channel=9 note=44 velocity=0 time=9
control_change channel=1 control=7 value=83 time=5
note_on channel=10 note=79 velocity=0 time=14
note_on channel=9 note=36 velocity=0 time=22
control_change channel=1 control=7 value=84 time=3
note_on channel=9 note=44 velocity=84 time=0
note_on channel=9 note=44 velocity=0 time=18
note_on channel=5 note=81 velocity=0 time=29
note_on channel=10 note=81 velocity=0 time=4
note_on channel=1 note=71 velocity=0 time=2
note_on channel=5 note=76 velocity=72 time=4
note_on channel=9 note=46 velocity=127 time=0
note_on channel=9 note=40 velocity=127 time=0
note_on channel=1 note=69 velocity=97 time=1
note_on channel=10 note=76 velocity=94 time=3
control_change channel=1 control=7 value=85 time=5
note_on channel=9 note=46 velocity=0 time=10
control_change channel=1 control=7 value=87 time=5
control_change channel=1 control=7 value=88 time=10
note_on channel=9 note=40 velocity=0 time=26
note_on channel=9 note=44 velocity=86 time=4
note_on channel=9 note=44 velocity=0 time=18
note_on channel=4 note=37 velocity=0 time=18
control_change channel=1 control=7 value=91 time=0
note_on channel=1 note=69 velocity=0 time=8
note_on channel=4 note=38 velocity=83 time=11
note_on channel=10 note=78 velocity=97 time=0
note_on channel=9 note=35 velocity=105 time=1
note_on channel=9 note=44 velocity=127 time=0
note_on channel=5 note=78 velocity=94 time=1
note_on channel=1 note=66 velocity=127 time=1
note_on channel=10 note=76 velocity=0 time=4
note_on channel=5 note=76 velocity=0 time=3
note_on channel=9 note=44 velocity=0 time=7
note_on channel=9 note=35 velocity=0 time=1
note_on channel=9 note=44 velocity=99 time=45
control_change channel=1 control=7 value=92 time=5
note_on channel=1 note=64 velocity=49 time=10
note_on channel=1 note=66 velocity=0 time=3
note_on channel=9 note=44 velocity=0 time=1
note_on channel=1 note=57 velocity=88 time=3
control_change channel=1 control=7 value=94 time=10
note_on channel=1 note=64 velocity=0 time=7
note_on channel=1 note=62 velocity=124 time=7
note_on channel=1 note=57 velocity=0 time=12
note_on channel=9 note=40 velocity=105 time=0
note_on channel=9 note=44 velocity=115 time=1
note_on channel=1 note=62 velocity=94 time=2
note_on channel=9 note=40 velocity=0 time=14
note_on channel=9 note=44 velocity=0 time=2
control_change channel=1 control=7 value=95 time=15
note_on channel=9 note=44 velocity=102 time=24
note_on channel=5 note=78 velocity=0 time=3
note_on channel=10 note=78 velocity=0 time=5
control_change channel=1 control=7 value=96 time=4
note_on channel=5 note=76 velocity=45 time=0
note_on channel=9 note=44 velocity=0 time=4
control_change channel=1 control=7 value=98 time=0
note_on channel=10 note=76 velocity=70 time=5
note_on channel=1 note=62 velocity=0 time=19
note_on channel=5 note=78 velocity=56 time=2
note_on channel=10 note=78 velocity=72 time=3
note_on channel=5 note=76 velocity=0 time=6
note_on channel=10 note=76 velocity=0 time=5
note_on channel=1 note=69 velocity=97 time=0
note_on channel=9 note=44 velocity=127 time=3
note_on channel=4 note=38 velocity=0 time=2
note_on channel=4 note=35 velocity=77 time=1
note_on channel=9 note=35 velocity=105 time=0
note_on channel=10 note=79 velocity=99 time=5
note_on channel=5 note=79 velocity=94 time=1
note_on channel=1 note=62 velocity=0 time=3
note_on channel=5 note=78 velocity=0 time=3
note_on channel=10 note=78 velocity=0 time=0
note_on channel=9 note=44 velocity=0 time=2
note_on channel=9 note=35 velocity=0 time=3
note_on channel=9 note=44 velocity=99 time=38
note_on channel=9 note=44 velocity=0 time=18
note_on channel=1 note=69 velocity=0 time=31
note_on channel=1 note=67 velocity=83 time=8
note_on channel=5 note=79 velocity=0 time=1
note_on channel=10 note=79 velocity=0 time=7
note_on channel=9 note=40 velocity=105 time=0
note_on channel=9 note=46 velocity=127 time=0
note_on channel=5 note=74 velocity=64 time=3
note_on channel=10 note=74 velocity=102 time=6
note_on channel=9 note=46 velocity=0 time=8
note_on channel=9 note=40 velocity=0 time=0
pitchwheel channel=7 pitch=-358 time=39
pitchwheel channel=7 pitch=-358 time=1
pitchwheel channel=7 pitch=-358 time=0
note_on channel=9 note=44 velocity=102 time=2
pitchwheel channel=7 pitch=-716 time=5
pitchwheel channel=7 pitch=-716 time=0
pitchwheel channel=7 pitch=-716 time=0
pitchwheel channel=7 pitch=-1074 time=5
pitchwheel channel=7 pitch=-1074 time=1
pitchwheel channel=7 pitch=-1074 time=0
pitchwheel channel=7 pitch=-1535 time=5
pitchwheel channel=7 pitch=-1535 time=0
pitchwheel channel=7 pitch=-1535 time=1
note_on channel=9 note=44 velocity=0 time=1
pitchwheel channel=7 pitch=-1877 time=3
pitchwheel channel=7 pitch=-1877 time=1
pitchwheel channel=7 pitch=-1877 time=0
pitchwheel channel=7 pitch=-2147 time=7
pitchwheel channel=7 pitch=-2147 time=1
pitchwheel channel=7 pitch=-2147 time=0
pitchwheel channel=7 pitch=-2446 time=7
pitchwheel channel=7 pitch=-2446 time=0
pitchwheel channel=7 pitch=-2446 time=1
pitchwheel channel=7 pitch=-2645 time=7
note_on channel=5 note=74 velocity=0 time=1
pitchwheel channel=7 pitch=-2645 time=0
pitchwheel channel=7 pitch=-2645 time=0
note_on channel=5 note=76 velocity=58 time=3
pitchwheel channel=7 pitch=-3003 time=5
pitchwheel channel=7 pitch=-3003 time=0
pitchwheel channel=7 pitch=-3003 time=0
note_on channel=10 note=74 velocity=0 time=2
note_on channel=10 note=76 velocity=102 time=1
note_on channel=1 note=67 velocity=0 time=1
note_on channel=4 note=36 velocity=83 time=0
note_on channel=1 note=64 velocity=108 time=2
note_on channel=9 note=35 velocity=105 time=1
note_on channel=9 note=44 velocity=127 time=4
note_on channel=4 note=35 velocity=0 time=1
pitchwheel channel=7 pitch=-3412 time=1
pitchwheel channel=7 pitch=-3412 time=0
pitchwheel channel=7 pitch=-3412 time=0
note_on channel=9 note=35 velocity=0 time=11
pitchwheel channel=7 pitch=-3754 time=2
pitchwheel channel=7 pitch=-3754 time=1
pitchwheel channel=7 pitch=-3754 time=0
note_on channel=9 note=44 velocity=0 time=1
pitchwheel channel=7 pitch=-4215 time=12
pitchwheel channel=7 pitch=-4215 time=0
pitchwheel channel=7 pitch=-4215 time=0
note_on channel=9 note=44 velocity=92 time=26
note_on channel=9 note=44 velocity=0 time=18
note_on channel=1 note=62 velocity=66 time=6
note_on channel=1 note=64 velocity=0 time=9
note_on channel=1 note=57 velocity=83 time=2
note_on channel=1 note=57 velocity=0 time=20
note_on channel=1 note=60 velocity=102 time=1
note_on channel=1 note=60 velocity=112 time=4
note_on channel=9 note=44 velocity=108 time=0
note_on channel=9 note=40 velocity=105 time=1
note_on channel=1 note=62 velocity=0 time=4
note_on channel=9 note=40 velocity=0 time=13
note_on channel=9 note=44 velocity=0 time=0
note_on channel=5 note=76 velocity=0 time=39
note_on channel=9 note=44 velocity=94 time=1
note_on channel=10 note=76 velocity=0 time=13
note_on channel=5 note=74 velocity=47 time=2
note_on channel=9 note=44 velocity=0 time=1
note_on channel=10 note=74 velocity=69 time=7
note_on channel=5 note=76 velocity=78 time=15
note_on channel=5 note=74 velocity=0 time=8
note_on channel=10 note=76 velocity=75 time=0
note_on channel=1 note=60 velocity=0 time=5
note_on channel=10 note=74 velocity=0 time=2
note_on channel=1 note=60 velocity=0 time=3
note_on channel=9 note=44 velocity=124 time=4
note_on channel=5 note=77 velocity=72 time=1
note_on channel=1 note=67 velocity=90 time=2
note_on channel=4 note=33 velocity=84 time=0
note_on channel=9 note=35 velocity=105 time=0
note_on channel=4 note=36 velocity=0 time=3
note_on channel=5 note=76 velocity=0 time=2
note_on channel=10 note=77 velocity=119 time=0
note_on channel=10 note=76 velocity=0 time=7
note_on channel=9 note=35 velocity=0 time=5
note_on channel=9 note=44 velocity=0 time=0
note_on channel=9 note=44 velocity=99 time=40
note_on channel=9 note=44 velocity=0 time=17
note_on channel=10 note=77 velocity=0 time=22
note_on channel=10 note=72 velocity=88 time=22
note_on channel=5 note=77 velocity=0 time=1
note_on channel=9 note=46 velocity=127 time=1
note_on channel=9 note=40 velocity=105 time=0
note_on channel=1 note=65 velocity=102 time=2
note_on channel=1 note=67 velocity=0 time=2
note_on channel=5 note=72 velocity=62 time=1
note_on channel=9 note=46 velocity=0 time=11
note_on channel=9 note=40 velocity=0 time=1
note_on channel=9 note=44 velocity=102 time=41
note_on channel=9 note=44 velocity=0 time=17
note_on channel=1 note=65 velocity=0 time=42
note_on channel=1 note=62 velocity=70 time=3
note_on channel=4 note=34 velocity=119 time=0
note_on channel=5 note=74 velocity=78 time=0
note_on channel=9 note=36 velocity=119 time=0
note_on channel=10 note=74 velocity=108 time=0
note_on channel=10 note=72 velocity=0 time=5
note_on channel=9 note=44 velocity=127 time=0
note_on channel=5 note=72 velocity=0 time=1
note_on channel=4 note=33 velocity=0 time=4
note_on channel=9 note=36 velocity=0 time=5
note_on channel=9 note=44 velocity=0 time=4
note_on channel=9 note=44 velocity=102 time=38
note_on channel=10 note=74 velocity=0 time=10
note_on channel=10 note=72 velocity=68 time=5
note_on channel=5 note=74 velocity=0 time=1
note_on channel=9 note=44 velocity=0 time=2
note_on channel=1 note=62 velocity=0 time=1
note_on channel=5 note=72 velocity=43 time=4
note_on channel=9 note=44 velocity=119 time=10
note_on channel=10 note=74 velocity=55 time=5
note_on channel=5 note=74 velocity=54 time=6
note_on channel=9 note=44 velocity=0 time=4
note_on channel=10 note=72 velocity=0 time=1
note_on channel=5 note=72 velocity=0 time=4
note_on channel=1 note=61 velocity=70 time=8
note_on channel=10 note=76 velocity=102 time=0
note_on channel=5 note=76 velocity=75 time=2
note_on channel=9 note=40 velocity=119 time=0
note_on channel=9 note=44 velocity=127 time=0
note_on channel=4 note=34 velocity=0 time=4
note_on channel=10 note=74 velocity=0 time=2
note_on channel=5 note=74 velocity=0 time=2
note_on channel=9 note=40 velocity=0 time=7
note_on channel=4 note=33 velocity=79 time=0
note_on channel=9 note=44 velocity=0 time=3
note_on channel=10 note=76 velocity=0 time=42
note_on channel=9 note=44 velocity=108 time=1
note_on channel=5 note=76 velocity=0 time=3
note_on channel=10 note=74 velocity=77 time=5
note_on channel=5 note=74 velocity=33 time=4
note_on channel=9 note=44 velocity=0 time=5
note_on channel=1 note=61 velocity=0 time=2
note_on channel=9 note=44 velocity=119 time=10
note_on channel=10 note=76 velocity=105 time=6
note_on channel=5 note=76 velocity=72 time=5
note_on channel=10 note=74 velocity=0 time=3
note_on channel=9 note=44 velocity=0 time=1
note_on channel=5 note=74 velocity=0 time=8
note_on channel=1 note=60 velocity=69 time=0
note_on channel=9 note=36 velocity=119 time=7
note_on channel=10 note=77 velocity=99 time=0
note_on channel=9 note=44 velocity=119 time=4
note_on channel=5 note=77 velocity=75 time=6
note_on channel=4 note=38 velocity=90 time=1
note_on channel=10 note=76 velocity=0 time=1
note_on channel=4 note=33 velocity=0 time=0
note_on channel=9 note=36 velocity=0 time=3
note_on channel=5 note=76 velocity=0 time=2
note_on channel=9 note=44 velocity=0 time=2
note_on channel=9 note=44 velocity=112 time=43
note_on channel=10 note=77 velocity=0 time=3
note_on channel=5 note=77 velocity=0 time=4
note_on channel=10 note=76 velocity=78 time=3
note_on channel=5 note=76 velocity=51 time=5
note_on channel=9 note=44 velocity=0 time=2
note_on channel=1 note=60 velocity=0 time=2
note_on channel=9 note=44 velocity=119 time=9
note_on channel=10 note=77 velocity=70 time=6
note_on channel=5 note=77 velocity=60 time=5
note_on channel=9 note=44 velocity=0 time=4
note_on channel=10 note=76 velocity=0 time=1
note_on channel=5 note=76 velocity=0 time=2
note_on channel=4 note=38 velocity=0 time=8
note_on channel=1 note=58 velocity=70 time=1
note_on channel=4 note=31 velocity=97 time=2
note_on channel=9 note=40 velocity=119 time=1
note_on channel=10 note=79 velocity=119 time=1
note_on channel=9 note=44 velocity=127 time=2
note_on channel=5 note=79 velocity=56 time=2
note_on channel=10 note=77 velocity=0 time=4
note_on channel=9 note=40 velocity=0 time=6
note_on channel=5 note=77 velocity=0 time=1
note_on channel=9 note=44 velocity=0 time=4
note_on channel=10 note=79 velocity=0 time=37
note_on channel=9 note=44 velocity=115 time=5
note_on channel=10 note=77 velocity=63 time=5
note_on channel=1 note=58 velocity=0 time=6
note_on channel=9 note=44 velocity=0 time=4
note_on channel=5 note=79 velocity=0 time=2
note_on channel=5 note=76 velocity=32 time=2
note_on channel=9 note=44 velocity=119 time=9
note_on channel=5 note=77 velocity=1 time=3
note_on channel=10 note=79 velocity=41 time=0
note_on channel=10 note=77 velocity=0 time=4
note_on channel=5 note=76 velocity=0 time=5
note_on channel=9 note=44 velocity=0 time=3
note_on channel=4 note=31 velocity=0 time=9
note_on channel=10 note=81 velocity=112 time=1
note_on channel=5 note=81 velocity=49 time=4
note_on channel=9 note=44 velocity=127 time=1
note_on channel=9 note=36 velocity=127 time=0
note_on channel=9 note=49 velocity=127 time=0
note_on channel=5 note=79 velocity=43 time=1
note_on channel=4 note=33 velocity=90 time=3
note_on channel=10 note=79 velocity=0 time=1
note_on channel=5 note=77 velocity=0 time=0
note_on channel=1 note=57 velocity=69 time=0
note_on channel=5 note=79 velocity=0 time=12
note_on channel=9 note=49 velocity=0 time=2
note_on channel=9 note=36 velocity=0 time=0
note_on channel=9 note=44 velocity=0 time=4
note_on channel=9 note=44 velocity=127 time=41
note_on channel=9 note=44 velocity=0 time=23
note_on channel=9 note=40 velocity=127 time=33
note_on channel=9 note=46 velocity=127 time=0
note_on channel=9 note=46 velocity=0 time=41
note_on channel=9 note=40 velocity=0 time=0
note_on channel=5 note=81 velocity=0 time=1
note_on channel=3 note=69 velocity=108 time=18
note_on channel=9 note=44 velocity=105 time=0
note_on channel=5 note=81 velocity=51 time=15
note_on channel=9 note=44 velocity=0 time=8
note_on channel=4 note=33 velocity=0 time=3
note_on channel=3 note=69 velocity=0 time=4
note_on channel=3 note=71 velocity=97 time=0
note_on channel=1 note=57 velocity=0 time=1
note_on channel=5 note=83 velocity=54 time=0
note_on channel=5 note=81 velocity=0 time=14
control_change channel=1 control=7 value=99 time=0
control_change channel=1 control=7 value=102 time=10
note_on channel=5 note=84 velocity=82 time=0
note_on channel=3 note=71 velocity=0 time=5
note_on channel=3 note=72 velocity=127 time=0
note_on channel=9 note=36 velocity=127 time=0
note_on channel=9 note=49 velocity=127 time=1
note_on channel=5 note=83 velocity=0 time=2
note_on channel=4 note=33 velocity=83 time=1
control_change channel=1 control=7 value=103 time=5
note_on channel=9 note=36 velocity=0 time=32
note_on channel=9 note=49 velocity=0 time=1
note_on channel=9 note=44 velocity=119 time=14
note_on channel=9 note=44 velocity=0 time=27
note_on channel=3 note=72 velocity=0 time=7
note_on channel=5 note=84 velocity=0 time=17
note_on channel=10 note=81 velocity=0 time=8
note_on channel=4 note=36 velocity=57 time=4
note_on channel=3 note=74 velocity=127 time=1
note_on channel=9 note=36 velocity=127 time=0
note_on channel=4 note=33 velocity=0 time=2
note_on channel=5 note=86 velocity=39 time=0
note_on channel=9 note=49 velocity=127 time=3
note_on channel=9 note=49 velocity=0 time=34
note_on channel=9 note=36 velocity=0 time=2
note_on channel=9 note=44 velocity=108 time=17
control_change channel=1 control=7 value=102 time=5
control_change channel=1 control=7 value=101 time=5
control_change channel=1 control=7 value=100 time=7
note_on channel=4 note=36 velocity=0 time=8
note_on channel=9 note=44 velocity=0 time=1
control_change channel=1 control=7 value=98 time=5
note_on channel=3 note=74 velocity=0 time=1
note_on channel=5 note=86 velocity=0 time=7
note_on channel=7 note=91 velocity=99 time=10
note_on channel=7 note=79 velocity=94 time=1
pitchwheel channel=7 pitch=-3754 time=5
pitchwheel channel=7 pitch=-3754 time=0
pitchwheel channel=7 pitch=-3754 time=0
note_on channel=5 note=79 velocity=49 time=2
pitchwheel channel=7 pitch=-3412 time=0
note_on channel=15 note=43 velocity=127 time=0
pitchwheel channel=7 pitch=-3412 time=1
pitchwheel channel=7 pitch=-3412 time=0
note_on channel=4 note=31 velocity=97 time=1
note_on channel=5 note=91 velocity=49 time=1
pitchwheel channel=7 pitch=-2645 time=0
pitchwheel channel=7 pitch=-2645 time=0
pitchwheel channel=7 pitch=-2645 time=0
note_on channel=1 note=55 velocity=119 time=2
note_on channel=3 note=79 velocity=127 time=0
note_on channel=6 note=67 velocity=65 time=0
note_on channel=9 note=36 velocity=127 time=0
note_on channel=9 note=36 velocity=108 time=0
note_on channel=9 note=44 velocity=100 time=0
pitchwheel channel=7 pitch=0 time=1
pitchwheel channel=7 pitch=0 time=0
pitchwheel channel=7 pitch=0 time=0
note_on channel=2 note=74 velocity=127 time=3
note_on channel=10 note=79 velocity=127 time=2
note_on channel=11 note=91 velocity=69 time=0
note_on channel=2 note=79 velocity=112 time=1
note_on channel=6 note=79 velocity=70 time=0
note_on channel=9 note=49 velocity=127 time=0
control_change channel=1 control=7 value=97 time=1
note_on channel=11 note=79 velocity=68 time=0
note_on channel=14 note=67 velocity=102 time=0
note_on channel=14 note=79 velocity=127 time=2
control_change channel=1 control=7 value=94 time=8
note_on channel=11 note=89 velocity=84 time=0
note_on channel=10 note=79 velocity=0 time=3
note_on channel=11 note=89 velocity=0 time=6
note_on channel=9 note=36 velocity=0 time=14
note_on channel=5 note=91 velocity=0 time=2
note_on channel=9 note=49 velocity=0 time=0
note_on channel=9 note=36 velocity=0 time=2
note_on channel=5 note=79 velocity=0 time=0
control_change channel=1 control=7 value=93 time=0
pitchwheel channel=11 pitch=-119 time=2
pitchwheel channel=11 pitch=-119 time=0
pitchwheel channel=11 pitch=-119 time=1
pitchwheel channel=11 pitch=-597 time=2
pitchwheel channel=11 pitch=-597 time=0
pitchwheel channel=11 pitch=-597 time=0
note_on channel=2 note=79 velocity=0 time=3
control_change channel=1 control=7 value=91 time=0
pitchwheel channel=11 pitch=-1074 time=0
note_on channel=1 note=55 velocity=0 time=1
pitchwheel channel=11 pitch=-1074 time=0
pitchwheel channel=11 pitch=-1074 time=0
pitchwheel channel=11 pitch=-1706 time=2
pitchwheel channel=11 pitch=-1706 time=0
pitchwheel channel=11 pitch=-1706 time=0
pitchwheel channel=11 pitch=-2346 time=3
pitchwheel channel=11 pitch=-2346 time=0
pitchwheel channel=11 pitch=-2346 time=0
note_on channel=3 note=79 velocity=0 time=1
note_on channel=14 note=79 velocity=0 time=0
note_on channel=2 note=74 velocity=0 time=0
note_on channel=9 note=44 velocity=0 time=0
note_on channel=9 note=44 velocity=100 time=0
pitchwheel channel=11 pitch=-2764 time=0
pitchwheel channel=11 pitch=-2764 time=1
pitchwheel channel=11 pitch=-2764 time=0
note_on channel=15 note=43 velocity=0 time=1
pitchwheel channel=11 pitch=-3122 time=1
pitchwheel channel=11 pitch=-3122 time=1
pitchwheel channel=11 pitch=-3122 time=0
note_on channel=14 note=67 velocity=0 time=1
pitchwheel channel=11 pitch=-3583 time=0
pitchwheel channel=11 pitch=-3583 time=1
pitchwheel channel=11 pitch=-3583 time=1
pitchwheel channel=11 pitch=-4215 time=5
pitchwheel channel=11 pitch=-4215 time=0
pitchwheel channel=11 pitch=-4215 time=0
pitchwheel channel=11 pitch=-4573 time=3
pitchwheel channel=11 pitch=-4573 time=1
pitchwheel channel=11 pitch=-4573 time=0
note_on channel=11 note=79 velocity=0 time=6
note_on channel=1 note=67 velocity=124 time=1
note_on channel=7 note=91 velocity=0 time=1
pitchwheel channel=11 pitch=-4096 time=0
pitchwheel channel=11 pitch=-4096 time=0
pitchwheel channel=11 pitch=-4096 time=1
pitchwheel channel=11 pitch=-3412 time=2
pitchwheel channel=11 pitch=-3412 time=0
pitchwheel channel=11 pitch=-3412 time=0
pitchwheel channel=11 pitch=-2346 time=2
pitchwheel channel=11 pitch=-2346 time=0
note_on channel=3 note=67 velocity=94 time=1
note_on channel=3 note=62 velocity=90 time=0
note_on channel=8 note=67 velocity=53 time=0
note_on channel=9 note=40 velocity=108 time=0
pitchwheel channel=11 pitch=-2346 time=0
note_on channel=7 note=79 velocity=0 time=2
pitchwheel channel=11 pitch=0 time=0
pitchwheel channel=11 pitch=0 time=1
pitchwheel channel=11 pitch=0 time=0
note_on channel=11 note=91 velocity=0 time=4
note_on channel=1 note=67 velocity=0 time=0
note_on channel=6 note=79 velocity=0 time=0
note_on channel=6 note=67 velocity=0 time=4
note_on channel=1 note=67 velocity=127 time=17
note_on channel=3 note=62 velocity=0 time=2
note_on channel=3 note=67 velocity=0 time=0
note_on channel=8 note=67 velocity=0 time=0
note_on channel=9 note=44 velocity=0 time=0
note_on channel=3 note=67 velocity=66 time=0
note_on channel=3 note=62 velocity=73 time=0
note_on channel=8 note=67 velocity=64 time=0
note_on channel=9 note=44 velocity=100 time=0
note_on channel=4 note=31 velocity=0 time=9
note_on channel=9 note=40 velocity=0 time=6
note_on channel=1 note=67 velocity=0 time=12
note_on channel=3 note=62 velocity=0 time=3
note_on channel=3 note=67 velocity=0 time=0
note_on channel=8 note=67 velocity=0 time=0
note_on channel=1 note=64 velocity=102 time=28
note_on channel=9 note=44 velocity=0 time=2
note_on channel=3 note=62 velocity=92 time=0
note_on channel=3 note=69 velocity=97 time=0
note_on channel=8 note=69 velocity=77 time=0
note_on channel=8 note=67 velocity=84 time=0
note_on channel=9 note=35 velocity=108 time=0
note_on channel=9 note=44 velocity=100 time=0
note_on channel=4 note=31 velocity=94 time=3
note_on channel=4 note=31 velocity=0 time=19
note_on channel=1 note=64 velocity=0 time=6
note_on channel=3 note=62 velocity=0 time=2
note_on channel=8 note=67 velocity=0 time=0
note_on channel=8 note=69 velocity=0 time=0
note_on channel=3 note=69 velocity=0 time=0
note_on channel=9 note=35 velocity=0 time=15
note_on channel=9 note=44 velocity=0 time=15
note_on channel=3 note=62 velocity=78 time=0
note_on channel=3 note=71 velocity=97 time=0
note_on channel=8 note=67 velocity=81 time=0
note_on channel=8 note=71 velocity=92 time=0
note_on channel=9 note=35 velocity=108 time=0
note_on channel=9 note=44 velocity=100 time=0
note_on channel=1 note=67 velocity=127 time=2
pitchwheel channel=7 pitch=-119 time=0
pitchwheel channel=7 pitch=-119 time=1
pitchwheel channel=7 pitch=-119 time=0
note_on channel=4 note=31 velocity=94 time=2
pitchwheel channel=7 pitch=-597 time=7
pitchwheel channel=7 pitch=-597 time=1
pitchwheel channel=7 pitch=-597 time=0
pitchwheel channel=7 pitch=-835 time=14
pitchwheel channel=7 pitch=-835 time=0
pitchwheel channel=7 pitch=-835 time=0
pitchwheel channel=7 pitch=-1194 time=10
pitchwheel channel=7 pitch=-1194 time=0
pitchwheel channel=7 pitch=-1194 time=0
note_on channel=9 note=35 velocity=0 time=8
control_change channel=1 control=7 value=90 time=0
pitchwheel channel=7 pitch=-1706 time=0
pitchwheel channel=7 pitch=-1706 time=0
pitchwheel channel=7 pitch=-1706 time=0
control_change channel=1 control=7 value=89 time=7
pitchwheel channel=7 pitch=-1877 time=0
pitchwheel channel=7 pitch=-1877 time=1
pitchwheel channel=7 pitch=-1877 time=0
control_change channel=1 control=7 value=87 time=5
note_on channel=8 note=67 velocity=0 time=2
note_on channel=9 note=44 velocity=0 time=0
note_on channel=9 note=44 velocity=100 time=0
pitchwheel channel=7 pitch=-2346 time=2
pitchwheel channel=7 pitch=-2346 time=0
control_change channel=1 control=7 value=86 time=1
pitchwheel channel=7 pitch=-2346 time=0
pitchwheel channel=7 pitch=-2545 time=4
pitchwheel channel=7 pitch=-2545 time=0
pitchwheel channel=7 pitch=-2545 time=0
note_on channel=1 note=67 velocity=0 time=3
pitchwheel channel=7 pitch=-2883 time=2
pitchwheel channel=7 pitch=-2883 time=0
pitchwheel channel=7 pitch=-2883 time=0
pitchwheel channel=7 pitch=-3242 time=5
pitchwheel channel=7 pitch=-3242 time=1
pitchwheel channel=7 pitch=-3242 time=0
pitchwheel channel=7 pitch=-3583 time=4
pitchwheel channel=7 pitch=-3583 time=1
pitchwheel channel=7 pitch=-3583 time=0
note_on channel=3 note=62 velocity=0 time=7
note_on channel=8 note=71 velocity=0 time=0
note_on channel=3 note=71 velocity=0 time=0
note_on channel=1 note=67 velocity=127 time=0
note_on channel=3 note=62 velocity=81 time=0
note_on channel=3 note=74 velocity=81 time=0
note_on channel=8 note=67 velocity=79 time=0
note_on channel=8 note=74 velocity=79 time=0
pitchwheel channel=7 pitch=-4096 time=1
pitchwheel channel=7 pitch=-4096 time=0
pitchwheel channel=7 pitch=-4096 time=0
pitchwheel channel=7 pitch=-4334 time=8
pitchwheel channel=7 pitch=-4334 time=0
pitchwheel channel=7 pitch=-4334 time=0
pitchwheel channel=7 pitch=-4693 time=18
pitchwheel channel=7 pitch=-4693 time=1
pitchwheel channel=7 pitch=-4693 time=0
note_on channel=9 note=44 velocity=0 time=2
note_on channel=9 note=40 velocity=108 time=0
note_on channel=9 note=44 velocity=100 time=0
note_on channel=1 note=67 velocity=0 time=23
note_on channel=4 note=31 velocity=0 time=3
note_on channel=3 note=62 velocity=0 time=4
note_on channel=8 note=67 velocity=0 time=0
note_on channel=3 note=74 velocity=0 time=0
note_on channel=8 note=74 velocity=0 time=0
note_on channel=9 note=40 velocity=0 time=15
note_on channel=1 note=64 velocity=124 time=11
note_on channel=9 note=44 velocity=0 time=4
note_on channel=3 note=72 velocity=84 time=0
note_on channel=3 note=64 velocity=94 time=0
note_on channel=8 note=64 velocity=86 time=0
note_on channel=8 note=72 velocity=99 time=0
note_on channel=9 note=44 velocity=100 time=0
note_on channel=9 note=44 velocity=0 time=60
note_on channel=9 note=35 velocity=108 time=0
note_on channel=9 note=44 velocity=100 time=0
note_on channel=4 note=31 velocity=97 time=4
note_on channel=9 note=35 velocity=0 time=41
note_on channel=9 note=44 velocity=0 time=15
note_on channel=9 note=44 velocity=100 time=0
note_on channel=9 note=40 velocity=108 time=30
note_on channel=9 note=44 velocity=0 time=30
note_on channel=8 note=72 velocity=0 time=0
note_on channel=9 note=44 velocity=100 time=0
note_on channel=9 note=40 velocity=0 time=15
note_on channel=1 note=64 velocity=0 time=11
note_on channel=3 note=64 velocity=0 time=4
note_on channel=8 note=64 velocity=0 time=0
note_on channel=3 note=72 velocity=0 time=0
note_on channel=4 note=31 velocity=0 time=12
note_on channel=9 note=44 velocity=0 time=18
note_on channel=1 note=67 velocity=127 time=0
note_on channel=3 note=71 velocity=66 time=0
note_on channel=3 note=64 velocity=70 time=0
note_on channel=8 note=67 velocity=33 time=0
note_on channel=8 note=71 velocity=39 time=0
note_on channel=9 note=35 velocity=108 time=0
note_on channel=9 note=44 velocity=100 time=0
note_on channel=4 note=31 velocity=102 time=10
note_on channel=8 note=71 velocity=0 time=20
note_on channel=8 note=67 velocity=0 time=0
note_on channel=3 note=64 velocity=0 time=0
note_on channel=3 note=71 velocity=0 time=0
note_on channel=3 note=69 velocity=102 time=0
note_on channel=3 note=62 velocity=119 time=0
note_on channel=8 note=69 velocity=92 time=0
note_on channel=8 note=64 velocity=66 time=0
note_on channel=1 note=66 velocity=127 time=5
note_on channel=1 note=67 velocity=0 time=1
note_on channel=9 note=35 velocity=0 time=9
note_on channel=4 note=31 velocity=0 time=5
note_on channel=1 note=66 velocity=0 time=9
note_on channel=3 note=62 velocity=0 time=1
note_on channel=3 note=69 velocity=0 time=0
note_on channel=9 note=44 velocity=0 time=0
note_on channel=8 note=64 velocity=0 time=0
note_on channel=8 note=69 velocity=0 time=0
note_on channel=1 note=64 velocity=102 time=0
note_on channel=3 note=67 velocity=83 time=0
note_on channel=3 note=60 velocity=83 time=0
note_on channel=8 note=60 velocity=94 time=0
note_on channel=8 note=67 velocity=81 time=0
note_on channel=9 note=33 velocity=108 time=0
note_on channel=9 note=44 velocity=100 time=0
note_on channel=4 note=36 velocity=127 time=15
note_on channel=9 note=33 velocity=0 time=30
note_on channel=9 note=44 velocity=0 time=15
note_on channel=9 note=44 velocity=100 time=0
note_on channel=3 note=67 velocity=0 time=30
note_on channel=8 note=60 velocity=0 time=0
note_on channel=3 note=60 velocity=0 time=30
note_on channel=8 note=67 velocity=0 time=0
note_on channel=9 note=44 velocity=0 time=0
note_on channel=1 note=66 velocity=127 time=0
note_on channel=3 note=69 velocity=102 time=0
note_on channel=3 note=62 velocity=84 time=0
note_on channel=8 note=69 velocity=56 time=0
note_on channel=8 note=62 velocity=65 time=0
note_on channel=9 note=45 velocity=127 time=0
note_on channel=9 note=44 velocity=100 time=0
note_on channel=1 note=64 velocity=0 time=5
note_on channel=4 note=36 velocity=0 time=5
note_on channel=4 note=38 velocity=94 time=5
note_on channel=9 note=45 velocity=0 time=30
note_on channel=9 note=44 velocity=0 time=15
note_on channel=9 note=44 velocity=100 time=0
note_on channel=3 note=69 velocity=0 time=30
note_on channel=7 note=91 velocity=102 time=16
note_on channel=1 note=66 velocity=0 time=1
note_on channel=7 note=79 velocity=99 time=0
pitchwheel channel=7 pitch=-4334 time=5
pitchwheel channel=7 pitch=-4334 time=0
pitchwheel channel=7 pitch=-4334 time=0
note_on channel=4 note=38 velocity=0 time=6
note_on channel=15 note=43 velocity=127 time=0
note_on channel=8 note=62 velocity=0 time=2
note_on channel=3 note=62 velocity=0 time=0
note_on channel=8 note=69 velocity=0 time=0
note_on channel=9 note=44 velocity=0 time=0
note_on channel=2 note=74 velocity=100 time=0
note_on channel=2 note=79 velocity=100 time=0
note_on channel=4 note=31 velocity=115 time=0
note_on channel=6 note=67 velocity=72 time=0
note_on channel=6 note=79 velocity=86 time=0
note_on channel=9 note=36 velocity=108 time=0
note_on channel=9 note=44 velocity=100 time=0
note_on channel=9 note=49 velocity=127 time=0
pitchwheel channel=7 pitch=-3754 time=2
pitchwheel channel=7 pitch=-3754 time=0
pitchwheel channel=7 pitch=-3754 time=0
pitchwheel channel=7 pitch=-3412 time=0
pitchwheel channel=7 pitch=-3412 time=1
pitchwheel channel=7 pitch=-3412 time=1
note_on channel=9 note=49 velocity=75 time=2
note_on channel=11 note=91 velocity=69 time=0
pitchwheel channel=7 pitch=-477 time=2
pitchwheel channel=7 pitch=-477 time=0
pitchwheel channel=7 pitch=-477 time=0
note_on channel=11 note=79 velocity=68 time=0
note_on channel=14 note=67 velocity=127 time=0
note_on channel=14 note=79 velocity=127 time=0
pitchwheel channel=7 pitch=0 time=1
pitchwheel channel=7 pitch=0 time=1
pitchwheel channel=7 pitch=0 time=1
pitchwheel channel=7 pitch=-238 time=1
pitchwheel channel=7 pitch=-238 time=0
pitchwheel channel=7 pitch=-238 time=0
pitchwheel channel=7 pitch=0 time=2
pitchwheel channel=7 pitch=0 time=0
pitchwheel channel=7 pitch=0 time=0
note_on channel=11 note=89 velocity=84 time=4
note_on channel=9 note=49 velocity=0 time=5
note_on channel=11 note=89 velocity=0 time=4
note_on channel=9 note=49 velocity=0 time=7
note_on channel=9 note=36 velocity=0 time=11
pitchwheel channel=11 pitch=-119 time=2
pitchwheel channel=11 pitch=-119 time=0
pitchwheel channel=11 pitch=-119 time=1
pitchwheel channel=11 pitch=-597 time=2
pitchwheel channel=11 pitch=-597 time=0
pitchwheel channel=11 pitch=-597 time=0
pitchwheel channel=11 pitch=-1074 time=3
note_on channel=15 note=43 velocity=0 time=1
pitchwheel channel=11 pitch=-1074 time=0
pitchwheel channel=11 pitch=-1074 time=0
pitchwheel channel=11 pitch=-1706 time=2
pitchwheel channel=11 pitch=-1706 time=0
pitchwheel channel=11 pitch=-1706 time=0
note_on channel=14 note=67 velocity=0 time=2
pitchwheel channel=11 pitch=-2346 time=1
pitchwheel channel=11 pitch=-2346 time=0
pitchwheel channel=11 pitch=-2346 time=0
note_on channel=2 note=79 velocity=0 time=1
note_on channel=2 note=74 velocity=0 time=0
note_on channel=9 note=44 velocity=0 time=0
note_on channel=9 note=44 velocity=100 time=0
pitchwheel channel=11 pitch=-2764 time=0
note_on channel=14 note=79 velocity=0 time=1
note_on channel=6 note=79 velocity=0 time=0
pitchwheel channel=11 pitch=-2764 time=0
pitchwheel channel=11 pitch=-2764 time=0
pitchwheel channel=11 pitch=-3122 time=2
pitchwheel channel=11 pitch=-3122 time=1
pitchwheel channel=11 pitch=-3122 time=0
pitchwheel channel=11 pitch=-3583 time=1
note_on channel=6 note=67 velocity=0 time=1
pitchwheel channel=11 pitch=-3583 time=0
pitchwheel channel=11 pitch=-3583 time=1
pitchwheel channel=11 pitch=-4215 time=5
pitchwheel channel=11 pitch=-4215 time=0
pitchwheel channel=11 pitch=-4215 time=0
pitchwheel channel=11 pitch=-4573 time=3
pitchwheel channel=11 pitch=-4573 time=1
pitchwheel channel=11 pitch=-4573 time=0
note_on channel=11 note=91 velocity=0 time=3
note_on channel=11 note=79 velocity=0 time=3
pitchwheel channel=11 pitch=-4096 time=2
pitchwheel channel=11 pitch=-4096 time=0
pitchwheel channel=11 pitch=-4096 time=1
pitchwheel channel=11 pitch=-3412 time=2
pitchwheel channel=11 pitch=-3412 time=0
pitchwheel channel=11 pitch=-3412 time=0
note_on channel=1 note=67 velocity=119 time=1
pitchwheel channel=11 pitch=-2346 time=1
pitchwheel channel=11 pitch=-2346 time=0
note_on channel=3 note=67 velocity=102 time=1
note_on channel=3 note=62 velocity=84 time=0
note_on channel=8 note=67 velocity=83 time=0
note_on channel=9 note=40 velocity=108 time=0
pitchwheel channel=11 pitch=-2346 time=0
pitchwheel channel=11 pitch=0 time=2
pitchwheel channel=11 pitch=0 time=1
pitchwheel channel=11 pitch=0 time=0
note_on channel=7 note=91 velocity=0 time=7
note_on channel=1 note=67 velocity=0 time=1
note_on channel=4 note=31 velocity=0 time=1
note_on channel=7 note=79 velocity=0 time=3
note_on channel=1 note=67 velocity=108 time=13
note_on channel=3 note=67 velocity=0 time=2
note_on channel=9 note=44 velocity=0 time=0
note_on channel=8 note=67 velocity=0 time=0
note_on channel=3 note=62 velocity=0 time=0
note_on channel=3 note=67 velocity=69 time=0
note_on channel=3 note=62 velocity=73 time=0
note_on channel=8 note=67 velocity=68 time=0
note_on channel=9 note=44 velocity=100 time=0
note_on channel=9 note=40 velocity=0 time=15
note_on channel=8 note=67 velocity=0 time=15
note_on channel=3 note=62 velocity=0 time=0
note_on channel=3 note=67 velocity=0 time=0
note_on channel=1 note=67 velocity=0 time=4
note_on channel=9 note=44 velocity=0 time=26
note_on channel=3 note=69 velocity=99 time=0
note_on channel=3 note=62 velocity=81 time=0
note_on channel=8 note=69 velocity=86 time=0
note_on channel=8 note=67 velocity=90 time=0
note_on channel=9 note=35 velocity=108 time=0
note_on channel=9 note=44 velocity=100 time=0
note_on channel=1 note=64 velocity=127 time=7
note_on channel=4 note=31 velocity=112 time=0
note_on channel=4 note=31 velocity=0 time=21
note_on channel=3 note=69 velocity=0 time=2
note_on channel=8 note=67 velocity=0 time=0
note_on channel=8 note=69 velocity=0 time=0
note_on channel=3 note=62 velocity=0 time=0
note_on channel=1 note=64 velocity=0 time=6
note_on channel=9 note=35 velocity=0 time=9
note_on channel=9 note=44 velocity=0 time=15
note_on channel=3 note=62 velocity=84 time=0
note_on channel=3 note=71 velocity=92 time=0
note_on channel=8 note=71 velocity=94 time=0
note_on channel=8 note=67 velocity=86 time=0
note_on channel=9 note=35 velocity=108 time=0
note_on channel=9 note=44 velocity=100 time=0
note_on channel=1 note=67 velocity=127 time=1
note_on channel=4 note=31 velocity=119 time=8
pitchwheel channel=7 pitch=-358 time=10
pitchwheel channel=7 pitch=-358 time=0
pitchwheel channel=7 pitch=-358 time=0
pitchwheel channel=7 pitch=-597 time=8
pitchwheel channel=7 pitch=-597 time=0
pitchwheel channel=7 pitch=-597 time=0
pitchwheel channel=7 pitch=-955 time=7
pitchwheel channel=7 pitch=-955 time=1
pitchwheel channel=7 pitch=-955 time=0
note_on channel=9 note=35 velocity=0 time=10
pitchwheel channel=7 pitch=-1364 time=0
pitchwheel channel=7 pitch=-1364 time=0
pitchwheel channel=7 pitch=-1364 time=1
pitchwheel channel=7 pitch=-1706 time=8
pitchwheel channel=7 pitch=-1706 time=0
pitchwheel channel=7 pitch=-1706 time=0
note_on channel=8 note=67 velocity=0 time=6
note_on channel=3 note=62 velocity=0 time=0
note_on channel=3 note=71 velocity=0 time=0
note_on channel=8 note=71 velocity=0 time=0
note_on channel=9 note=44 velocity=0 time=0
note_on channel=9 note=44 velocity=100 time=0
note_on channel=1 note=67 velocity=0 time=1
pitchwheel channel=7 pitch=-2048 time=4
pitchwheel channel=7 pitch=-2048 time=0
pitchwheel channel=7 pitch=-2048 time=1
pitchwheel channel=7 pitch=-2346 time=3
pitchwheel channel=7 pitch=-2346 time=1
pitchwheel channel=7 pitch=-2346 time=0
pitchwheel channel=7 pitch=-2645 time=7
pitchwheel channel=7 pitch=-2645 time=1
pitchwheel channel=7 pitch=-2645 time=0
pitchwheel channel=7 pitch=-3003 time=7
pitchwheel channel=7 pitch=-3003 time=1
pitchwheel channel=7 pitch=-3003 time=0
note_on channel=1 note=71 velocity=127 time=4
note_on channel=3 note=62 velocity=88 time=0
note_on channel=3 note=72 velocity=37 time=0
note_on channel=3 note=74 velocity=75 time=0
note_on channel=8 note=67 velocity=94 time=0
note_on channel=8 note=74 velocity=68 time=0
pitchwheel channel=7 pitch=-3412 time=7
pitchwheel channel=7 pitch=-3412 time=1
pitchwheel channel=7 pitch=-3412 time=0
pitchwheel channel=7 pitch=-3925 time=9
pitchwheel channel=7 pitch=-3925 time=1
pitchwheel channel=7 pitch=-3925 time=0
note_on channel=8 note=74 velocity=0 time=12
note_on channel=8 note=67 velocity=0 time=0
note_on channel=3 note=72 velocity=0 time=0
note_on channel=9 note=44 velocity=0 time=0
note_on channel=1 note=71 velocity=0 time=0
note_on channel=3 note=62 velocity=0 time=0
note_on channel=3 note=74 velocity=0 time=0
note_on channel=9 note=40 velocity=108 time=0
note_on channel=9 note=44 velocity=100 time=0
pitchwheel channel=7 pitch=-4334 time=11
pitchwheel channel=7 pitch=-4334 time=0
pitchwheel channel=7 pitch=-4334 time=1
pitchwheel channel=7 pitch=-4573 time=21
pitchwheel channel=7 pitch=-4573 time=0
pitchwheel channel=7 pitch=-4573 time=0
note_on channel=4 note=31 velocity=0 time=2
note_on channel=9 note=40 velocity=0 time=10
note_on channel=9 note=44 velocity=0 time=15
note_on channel=3 note=65 velocity=102 time=0
note_on channel=3 note=77 velocity=102 time=0
note_on channel=8 note=77 velocity=97 time=0
note_on channel=8 note=69 velocity=105 time=0
note_on channel=9 note=44 velocity=100 time=0
note_on channel=1 note=69 velocity=127 time=7
note_on channel=9 note=44 velocity=0 time=53
note_on channel=4 note=31 velocity=127 time=0
note_on channel=9 note=35 velocity=108 time=0
note_on channel=9 note=44 velocity=100 time=0
note_on channel=9 note=35 velocity=0 time=45
note_on channel=9 note=44 velocity=0 time=15
note_on channel=9 note=44 velocity=100 time=0
note_on channel=9 note=40 velocity=108 time=30
note_on channel=4 note=31 velocity=0 time=26
note_on channel=9 note=44 velocity=0 time=4
note_on channel=9 note=44 velocity=100 time=0
note_on channel=9 note=40 velocity=0 time=15
note_on channel=8 note=77 velocity=0 time=15
note_on channel=3 note=65 velocity=0 time=0
note_on channel=8 note=69 velocity=0 time=30
note_on channel=3 note=77 velocity=0 time=0
note_on channel=9 note=44 velocity=0 time=0
note_on channel=1 note=69 velocity=102 time=0
note_on channel=3 note=76 velocity=102 time=0
note_on channel=3 note=64 velocity=102 time=0
note_on channel=4 note=31 velocity=119 time=0
note_on channel=8 note=67 velocity=102 time=0
note_on channel=8 note=76 velocity=102 time=0
note_on channel=9 note=35 velocity=108 time=0
note_on channel=9 note=44 velocity=100 time=0
note_on channel=1 note=69 velocity=0 time=5
note_on channel=3 note=64 velocity=0 time=25
note_on channel=1 note=69 velocity=0 time=0
note_on channel=8 note=67 velocity=0 time=0
note_on channel=3 note=76 velocity=0 time=0
note_on channel=8 note=76 velocity=0 time=0
note_on channel=1 note=67 velocity=102 time=0
note_on channel=3 note=74 velocity=94 time=0
note_on channel=3 note=62 velocity=102 time=0
note_on channel=8 note=64 velocity=102 time=0
note_on channel=8 note=74 velocity=90 time=0
note_on channel=9 note=35 velocity=0 time=15
note_on channel=4 note=31 velocity=0 time=11
note_on channel=8 note=64 velocity=0 time=4
note_on channel=3 note=62 velocity=0 time=0
note_on channel=1 note=67 velocity=0 time=0
note_on channel=3 note=74 velocity=0 time=0
note_on channel=9 note=44 velocity=0 time=0
note_on channel=8 note=74 velocity=0 time=0
note_on channel=1 note=69 velocity=127 time=0
note_on channel=3 note=72 velocity=99 time=0
note_on channel=3 note=60 velocity=79 time=0
note_on channel=8 note=60 velocity=108 time=0
note_on channel=8 note=72 velocity=127 time=0
note_on channel=9 note=33 velocity=108 time=0
note_on channel=9 note=44 velocity=100 time=0
note_on channel=4 note=36 velocity=119 time=16
note_on channel=9 note=33 velocity=0 time=29
note_on channel=9 note=44 velocity=0 time=15
note_on channel=9 note=44 velocity=100 time=0
pitchwheel channel=7 pitch=-4792 time=27
note_on channel=1 note=69 velocity=0 time=1
pitchwheel channel=7 pitch=-4792 time=0
pitchwheel channel=7 pitch=-4792 time=0
note_on channel=3 note=60 velocity=0 time=32
note_on channel=8 note=72 velocity=0 time=0
note_on channel=8 note=60 velocity=0 time=0
note_on channel=3 note=72 velocity=0 time=0
note_on channel=9 note=44 velocity=0 time=0
note_on channel=1 note=67 velocity=119 time=0
note_on channel=3 note=74 velocity=97 time=0
note_on channel=3 note=62 velocity=105 time=0
note_on channel=4 note=38 velocity=102 time=0
note_on channel=8 note=62 velocity=81 time=0
note_on channel=8 note=74 velocity=108 time=0
note_on channel=9 note=45 velocity=127 time=0
note_on channel=9 note=44 velocity=100 time=0
note_on channel=4 note=36 velocity=0 time=2
note_on channel=9 note=45 velocity=0 time=43
note_on channel=9 note=44 velocity=0 time=15
note_on channel=9 note=44 velocity=100 time=0
note_on channel=1 note=67 velocity=0 time=34
note_on channel=4 note=38 velocity=0 time=5
note_on channel=7 note=91 velocity=108 time=12
note_on channel=7 note=79 velocity=86 time=1
note_on channel=14 note=79 velocity=119 time=2
note_on channel=14 note=67 velocity=124 time=0
note_on channel=9 note=49 velocity=102 time=4
note_on channel=3 note=74 velocity=0 time=2
note_on channel=8 note=74 velocity=0 time=0
note_on channel=3 note=62 velocity=0 time=0
note_on channel=8 note=62 velocity=0 time=0
note_on channel=9 note=44 velocity=0 time=0
note_on channel=2 note=74 velocity=100 time=0
note_on channel=2 note=79 velocity=100 time=0
note_on channel=9 note=36 velocity=108 time=0
note_on channel=9 note=44 velocity=100 time=0
note_on channel=15 note=43 velocity=127 time=2
note_on channel=6 note=67 velocity=77 time=2
note_on channel=6 note=79 velocity=77 time=0
note_on channel=9 note=49 velocity=64 time=2
note_on channel=11 note=91 velocity=69 time=0
note_on channel=4 note=31 velocity=108 time=2
note_on channel=11 note=79 velocity=68 time=0
note_on channel=11 note=89 velocity=84 time=10
pitchwheel channel=7 pitch=-4334 time=2
pitchwheel channel=7 pitch=-4334 time=0
pitchwheel channel=7 pitch=-4334 time=0
pitchwheel channel=7 pitch=-4096 time=3
pitchwheel channel=7 pitch=-4096 time=0
pitchwheel channel=7 pitch=-4096 time=1
pitchwheel channel=7 pitch=-3583 time=1
pitchwheel channel=7 pitch=-3583 time=1
pitchwheel channel=7 pitch=-3583 time=0
note_on channel=11 note=89 velocity=0 time=1
note_on channel=9 note=49 velocity=0 time=0
pitchwheel channel=7 pitch=-835 time=0
pitchwheel channel=7 pitch=-835 time=1
pitchwheel channel=7 pitch=-835 time=0
pitchwheel channel=7 pitch=0 time=2
pitchwheel channel=7 pitch=0 time=1
pitchwheel channel=7 pitch=0 time=0
pitchwheel channel=7 pitch=-358 time=2
pitchwheel channel=7 pitch=-358 time=0
pitchwheel channel=7 pitch=-358 time=0
note_on channel=9 note=49 velocity=0 time=1
pitchwheel channel=7 pitch=0 time=2
pitchwheel channel=7 pitch=0 time=0
pitchwheel channel=7 pitch=0 time=0
note_on channel=9 note=36 velocity=0 time=9
note_on channel=14 note=67 velocity=0 time=1
note_on channel=6 note=67 velocity=0 time=1
note_on channel=6 note=79 velocity=0 time=0
pitchwheel channel=11 pitch=-119 time=0
pitchwheel channel=11 pitch=-119 time=0
pitchwheel channel=11 pitch=-119 time=1
note_on channel=14 note=79 velocity=0 time=2
pitchwheel channel=11 pitch=-597 time=0
pitchwheel channel=11 pitch=-597 time=0
pitchwheel channel=11 pitch=-597 time=0
pitchwheel channel=11 pitch=-1074 time=3
pitchwheel channel=11 pitch=-1074 time=1
pitchwheel channel=11 pitch=-1074 time=0
pitchwheel channel=11 pitch=-1706 time=2
pitchwheel channel=11 pitch=-1706 time=0
pitchwheel channel=11 pitch=-1706 time=0
pitchwheel channel=11 pitch=-2346 time=3
pitchwheel channel=11 pitch=-2346 time=0
pitchwheel channel=11 pitch=-2346 time=0
note_on channel=9 note=44 velocity=0 time=1
note_on channel=2 note=79 velocity=0 time=0
note_on channel=2 note=74 velocity=0 time=0
note_on channel=9 note=44 velocity=100 time=0
pitchwheel channel=11 pitch=-2764 time=0
pitchwheel channel=11 pitch=-2764 time=1
pitchwheel channel=11 pitch=-2764 time=0
pitchwheel channel=11 pitch=-3122 time=2
pitchwheel channel=11 pitch=-3122 time=1
pitchwheel channel=11 pitch=-3122 time=0
pitchwheel channel=11 pitch=-3583 time=1
pitchwheel channel=11 pitch=-3583 time=1
pitchwheel channel=11 pitch=-3583 time=1
pitchwheel channel=11 pitch=-4215 time=5
pitchwheel channel=11 pitch=-4215 time=0
pitchwheel channel=11 pitch=-4215 time=0
pitchwheel channel=11 pitch=-4573 time=3
pitchwheel channel=11 pitch=-4573 time=1
pitchwheel channel=11 pitch=-4573 time=0
note_on channel=15 note=43 velocity=0 time=2
note_on channel=11 note=91 velocity=0 time=1
note_on channel=11 note=79 velocity=0 time=3
pitchwheel channel=11 pitch=-4096 time=2
pitchwheel channel=11 pitch=-4096 time=0
pitchwheel channel=11 pitch=-4096 time=1
pitchwheel channel=11 pitch=-3412 time=2
pitchwheel channel=11 pitch=-3412 time=0
pitchwheel channel=11 pitch=-3412 time=0
pitchwheel channel=11 pitch=-2346 time=2
pitchwheel channel=11 pitch=-2346 time=0
note_on channel=1 note=67 velocity=90 time=1
note_on channel=3 note=67 velocity=94 time=0
note_on channel=3 note=62 velocity=54 time=0
note_on channel=8 note=67 velocity=84 time=0
note_on channel=9 note=40 velocity=108 time=0
pitchwheel channel=11 pitch=-2346 time=0
pitchwheel channel=11 pitch=0 time=2
pitchwheel channel=11 pitch=0 time=1
pitchwheel channel=11 pitch=0 time=0
note_on channel=7 note=91 velocity=0 time=2
note_on channel=1 note=67 velocity=0 time=8
note_on channel=7 note=79 velocity=0 time=2
note_on channel=4 note=31 velocity=0 time=5
note_on channel=9 note=44 velocity=0 time=10
note_on channel=3 note=67 velocity=0 time=0
note_on channel=8 note=67 velocity=0 time=0
note_on channel=3 note=62 velocity=0 time=0
note_on channel=1 note=67 velocity=90 time=0
note_on channel=3 note=67 velocity=49 time=0
note_on channel=3 note=62 velocity=88 time=0
note_on channel=8 note=67 velocity=68 time=0
note_on channel=9 note=44 velocity=100 time=0
note_on channel=9 note=40 velocity=0 time=15
note_on channel=8 note=67 velocity=0 time=15
note_on channel=3 note=62 velocity=0 time=0
note_on channel=3 note=67 velocity=0 time=0
note_on channel=1 note=67 velocity=0 time=7
note_on channel=1 note=64 velocity=102 time=20
note_on channel=9 note=44 velocity=0 time=3
note_on channel=3 note=69 velocity=86 time=0
note_on channel=3 note=62 velocity=92 time=0
note_on channel=8 note=69 velocity=83 time=0
note_on channel=8 note=67 velocity=90 time=0
note_on channel=9 note=35 velocity=108 time=0
note_on channel=9 note=44 velocity=100 time=0
note_on channel=4 note=31 velocity=115 time=7
note_on channel=4 note=31 velocity=0 time=18
note_on channel=8 note=67 velocity=0 time=5
note_on channel=8 note=69 velocity=0 time=0
note_on channel=3 note=62 velocity=0 time=0
note_on channel=3 note=69 velocity=0 time=0
note_on channel=1 note=64 velocity=0 time=4
note_on channel=9 note=35 velocity=0 time=11
note_on channel=9 note=44 velocity=0 time=15
note_on channel=1 note=67 velocity=127 time=0
note_on channel=3 note=62 velocity=88 time=0
note_on channel=3 note=71 velocity=108 time=0
note_on channel=8 note=71 velocity=94 time=0
note_on channel=8 note=67 velocity=81 time=0
note_on channel=9 note=35 velocity=108 time=0
note_on channel=9 note=44 velocity=100 time=0
note_on channel=4 note=31 velocity=127 time=13
note_on channel=9 note=35 velocity=0 time=32
note_on channel=8 note=71 velocity=0 time=15
note_on channel=8 note=67 velocity=0 time=0
note_on channel=3 note=62 velocity=0 time=0
note_on channel=3 note=71 velocity=0 time=0
note_on channel=9 note=44 velocity=0 time=0
note_on channel=9 note=44 velocity=100 time=0
note_on channel=1 note=67 velocity=0 time=1
note_on channel=3 note=74 velocity=92 time=29
note_on channel=3 note=62 velocity=83 time=0
note_on channel=8 note=74 velocity=67 time=0
note_on channel=8 note=67 velocity=97 time=0
note_on channel=1 note=67 velocity=127 time=7
note_on channel=8 note=67 velocity=0 time=23
note_on channel=9 note=44 velocity=0 time=0
note_on channel=9 note=40 velocity=108 time=0
note_on channel=9 note=44 velocity=100 time=0
note_on channel=8 note=74 velocity=0 time=30
note_on channel=3 note=62 velocity=0 time=0
note_on channel=3 note=74 velocity=0 time=0
note_on channel=1 note=67 velocity=0 time=7
note_on channel=9 note=40 velocity=0 time=8
note_on channel=9 note=44 velocity=0 time=15
note_on channel=1 note=71 velocity=74 time=0
note_on channel=3 note=71 velocity=74 time=0
note_on channel=3 note=62 velocity=78 time=0
note_on channel=8 note=71 velocity=66 time=0
note_on channel=8 note=67 velocity=74 time=0
note_on channel=9 note=44 velocity=100 time=0
note_on channel=8 note=67 velocity=0 time=30
note_on channel=3 note=62 velocity=0 time=0
note_on channel=1 note=71 velocity=0 time=0
note_on channel=3 note=71 velocity=0 time=0
note_on channel=8 note=71 velocity=0 time=0
note_on channel=9 note=40 velocity=127 time=0
note_on channel=9 note=40 velocity=0 time=15
note_on channel=4 note=31 velocity=0 time=2
note_on channel=9 note=44 velocity=0 time=13
note_on channel=1 note=72 velocity=105 time=0
note_on channel=3 note=64 velocity=92 time=0
note_on channel=3 note=76 velocity=99 time=0
note_on channel=8 note=76 velocity=92 time=0
note_on channel=8 note=64 velocity=108 time=0
note_on channel=9 note=49 velocity=115 time=0
note_on channel=9 note=40 velocity=127 time=0
note_on channel=9 note=36 velocity=127 time=0
note_on channel=4 note=40 velocity=127 time=8
note_on channel=9 note=40 velocity=0 time=7
note_on channel=9 note=36 velocity=0 time=18
note_on channel=9 note=49 velocity=0 time=10
note_on channel=8 note=64 velocity=0 time=17
note_on channel=8 note=76 velocity=0 time=0
note_on channel=3 note=76 velocity=0 time=0
note_on channel=3 note=64 velocity=0 time=0
note_on channel=1 note=72 velocity=0 time=10
note_on channel=4 note=40 velocity=0 time=7
note_on channel=3 note=78 velocity=102 time=13
note_on channel=3 note=62 velocity=92 time=0
note_on channel=8 note=78 velocity=99 time=0
note_on channel=8 note=62 velocity=94 time=0
note_on channel=9 note=40 velocity=127 time=0
note_on channel=4 note=38 velocity=127 time=1
note_on channel=9 note=36 velocity=127 time=4
note_on channel=1 note=74 velocity=105 time=1
note_on channel=9 note=49 velocity=120 time=0
note_on channel=9 note=40 velocity=0 time=9
note_on channel=9 note=36 velocity=0 time=23
note_on channel=9 note=49 velocity=0 time=8
note_on channel=3 note=62 velocity=0 time=14
note_on channel=8 note=62 velocity=0 time=0
note_on channel=8 note=78 velocity=0 time=0
note_on channel=3 note=78 velocity=0 time=0
note_on channel=1 note=74 velocity=0 time=6
note_on channel=4 note=38 velocity=0 time=16
note_on channel=1 note=76 velocity=105 time=8
note_on channel=3 note=60 velocity=92 time=0
note_on channel=3 note=79 velocity=102 time=0
note_on channel=8 note=79 velocity=78 time=0
note_on channel=8 note=60 velocity=90 time=0
note_on channel=4 note=36 velocity=108 time=7
control_change channel=0 control=7 value=105 time=2
note_on channel=9 note=49 velocity=127 time=0
note_on channel=9 note=40 velocity=127 time=0
note_on channel=9 note=36 velocity=127 time=0
note_on channel=9 note=40 velocity=0 time=15
control_change channel=0 control=7 value=103 time=1
note_on channel=9 note=49 velocity=0 time=7
control_change channel=0 control=7 value=102 time=14
control_change channel=0 control=7 value=100 time=5
note_on channel=9 note=36 velocity=0 time=10
control_change channel=0 control=7 value=99 time=0
note_on channel=9 note=44 velocity=119 time=13
note_on channel=9 note=44 velocity=0 time=21
control_change channel=0 control=7 value=97 time=5
note_on channel=9 note=44 velocity=88 time=30
note_on channel=9 note=44 velocity=0 time=20
note_on channel=9 note=44 velocity=88 time=48
note_on channel=9 note=44 velocity=0 time=21
note_on channel=9 note=44 velocity=94 time=29
note_on channel=1 note=76 velocity=0 time=2
note_on channel=5 note=78 velocity=89 time=2
note_on channel=10 note=78 velocity=94 time=0
control_change channel=1 control=7 value=87 time=10
note_on channel=3 note=79 velocity=0 time=8
note_on channel=3 note=60 velocity=0 time=0
note_on channel=9 note=44 velocity=0 time=0
control_change channel=1 control=7 value=88 time=2
note_on channel=10 note=79 velocity=115 time=0
note_on channel=10 note=78 velocity=0 time=4
note_on channel=5 note=78 velocity=0 time=0
note_on channel=5 note=79 velocity=89 time=0
control_change channel=0 control=7 value=96 time=15
note_on channel=5 note=81 velocity=78 time=4
<meta message time_signature numerator=2 denominator=4 clocks_per_click=24 notated_32nd_notes_per_beat=8 time=5>
note_on channel=8 note=60 velocity=0 time=0
note_on channel=8 note=79 velocity=0 time=0
note_on channel=10 note=81 velocity=124 time=1
note_on channel=10 note=79 velocity=0 time=3
note_on channel=4 note=39 velocity=127 time=2
note_on channel=5 note=79 velocity=0 time=4
note_on channel=4 note=36 velocity=0 time=1
note_on channel=9 note=36 velocity=127 time=2
note_on channel=9 note=44 velocity=127 time=0
note_on channel=9 note=44 velocity=0 time=24
note_on channel=9 note=36 velocity=0 time=27
note_on channel=9 note=44 velocity=84 time=1
note_on channel=9 note=44 velocity=0 time=19
note_on channel=5 note=81 velocity=0 time=27
note_on channel=10 note=81 velocity=0 time=5
note_on channel=10 note=79 velocity=99 time=0
note_on channel=4 note=38 velocity=127 time=4
note_on channel=5 note=79 velocity=47 time=0
note_on channel=9 note=36 velocity=112 time=0
note_on channel=9 note=44 velocity=127 time=3
control_change channel=0 control=64 value=127 time=4
control_change channel=0 control=64 value=127 time=0
control_change channel=0 control=64 value=127 time=0
control_change channel=0 control=7 value=95 time=10
note_on channel=9 note=44 velocity=0 time=7
note_on channel=4 note=39 velocity=0 time=0
note_on channel=9 note=36 velocity=0 time=11
control_change channel=1 control=7 value=87 time=26
note_on channel=9 note=44 velocity=90 time=0
note_on channel=9 note=44 velocity=0 time=21
control_change channel=0 control=64 value=0 time=7
control_change channel=0 control=64 value=0 time=0
control_change channel=0 control=64 value=0 time=0
control_change channel=1 control=7 value=86 time=8
note_on channel=0 note=60 velocity=75 time=16
note_on channel=10 note=76 velocity=108 time=3
<meta message time_signature numerator=4 denominator=4 clocks_per_click=24 notated_32nd_notes_per_beat=8 time=4>
note_on channel=4 note=38 velocity=0 time=0
note_on channel=4 note=36 velocity=119 time=0
control_change channel=6 control=64 value=2 time=0
control_change channel=0 control=64 value=127 time=1
control_change channel=0 control=64 value=127 time=1
control_change channel=0 control=64 value=127 time=0
note_on channel=9 note=44 velocity=127 time=0
note_on channel=9 note=36 velocity=127 time=1
note_on channel=10 note=79 velocity=0 time=1
note_on channel=5 note=79 velocity=0 time=2
control_change channel=6 control=64 value=3 time=0
note_on channel=5 note=76 velocity=58 time=1
control_change channel=6 control=64 value=4 time=17
note_on channel=0 note=64 velocity=53 time=1
note_on channel=9 note=44 velocity=0 time=3
note_on channel=0 note=60 velocity=0 time=18
control_change channel=6 control=64 value=5 time=0
control_change channel=6 control=64 value=6 time=2
note_on channel=0 note=67 velocity=52 time=7
control_change channel=6 control=64 value=8 time=3
note_on channel=9 note=44 velocity=99 time=3
note_on channel=0 note=64 velocity=0 time=1
control_change channel=6 control=64 value=9 time=2
control_change channel=6 control=64 value=10 time=2
control_change channel=6 control=64 value=11 time=4
control_change channel=6 control=64 value=12 time=2
control_change channel=6 control=64 value=13 time=2
control_change channel=6 control=64 value=14 time=2
note_on channel=9 note=44 velocity=0 time=8
control_change channel=6 control=64 value=15 time=2
note_on channel=0 note=72 velocity=53 time=1
control_change channel=6 control=64 value=16 time=1
control_change channel=6 control=64 value=17 time=14
control_change channel=6 control=64 value=18 time=4
control_change channel=6 control=64 value=19 time=6
note_on channel=0 note=76 velocity=74 time=2
control_change channel=6 control=64 value=20 time=4
note_on channel=9 note=44 velocity=119 time=3
note_on channel=0 note=72 velocity=0 time=1
note_on channel=0 note=67 velocity=0 time=16
control_change channel=6 control=64 value=22 time=0
note_on channel=9 note=44 velocity=0 time=7
note_on channel=0 note=79 velocity=55 time=3
control_change channel=6 control=64 value=23 time=0
control_change channel=6 control=64 value=24 time=2
note_on channel=0 note=76 velocity=0 time=2
control_change channel=6 control=64 value=25 time=2
control_change channel=6 control=64 value=26 time=4
control_change channel=6 control=64 value=27 time=2
control_change channel=6 control=64 value=29 time=2
control_change channel=6 control=64 value=30 time=6
note_on channel=0 note=79 velocity=0 time=7
control_change channel=6 control=64 value=33 time=1
note_on channel=9 note=44 velocity=115 time=4
note_on channel=0 note=84 velocity=94 time=1
control_change channel=6 control=64 value=35 time=1
control_change channel=6 control=64 value=36 time=2
control_change channel=6 control=64 value=37 time=2
control_change channel=6 control=64 value=38 time=2
control_change channel=6 control=64 value=39 time=2
control_change channel=6 control=64 value=40 time=2
note_on channel=9 note=36 velocity=0 time=2
control_change channel=6 control=64 value=44 time=0
control_change channel=6 control=64 value=49 time=4
control_change channel=6 control=64 value=51 time=2
control_change channel=6 control=64 value=54 time=2
note_on channel=9 note=44 velocity=0 time=3
control_change channel=6 control=64 value=59 time=3
note_on channel=0 note=88 velocity=127 time=5
control_change channel=6 control=64 value=65 time=1
control_change channel=6 control=64 value=70 time=4
note_on channel=0 note=84 velocity=0 time=4
control_change channel=6 control=64 value=73 time=2
control_change channel=6 control=64 value=75 time=2
control_change channel=6 control=64 value=77 time=4
control_change channel=6 control=64 value=80 time=2
control_change channel=6 control=64 value=84 time=2
control_change channel=6 control=64 value=88 time=2
control_change channel=6 control=64 value=94 time=2
note_on channel=9 note=47 velocity=127 time=0
note_on channel=9 note=40 velocity=127 time=1
control_change channel=6 control=64 value=100 time=1
note_on channel=9 note=44 velocity=108 time=0
control_change channel=6 control=64 value=110 time=2
control_change channel=6 control=64 value=126 time=2
note_on channel=0 note=91 velocity=127 time=1
note_on channel=0 note=88 velocity=0 time=1
control_change channel=6 control=64 value=125 time=0
note_on channel=9 note=44 velocity=0 time=7
control_change channel=6 control=64 value=124 time=1
control_change channel=6 control=64 value=122 time=8
note_on channel=0 note=88 velocity=127 time=6
note_on channel=9 note=47 velocity=0 time=6
control_change channel=6 control=64 value=118 time=0
note_on channel=0 note=91 velocity=0 time=10
note_on channel=9 note=40 velocity=0 time=5
control_change channel=6 control=64 value=113 time=1
note_on channel=0 note=84 velocity=99 time=5
note_on channel=5 note=67 velocity=47 time=1
note_on channel=9 note=44 velocity=108 time=0
note_on channel=5 note=76 velocity=0 time=1
note_on channel=0 note=88 velocity=0 time=0
note_on channel=10 note=76 velocity=0 time=1
control_change channel=6 control=64 value=111 time=4
note_on channel=10 note=67 velocity=81 time=3
control_change channel=6 control=64 value=109 time=1
control_change channel=6 control=64 value=107 time=8
note_on channel=9 note=44 velocity=0 time=4
control_change channel=6 control=64 value=103 time=4
note_on channel=0 note=79 velocity=54 time=3
control_change channel=6 control=64 value=96 time=13
note_on channel=0 note=84 velocity=0 time=7
note_on channel=5 note=72 velocity=44 time=7
control_change channel=6 control=64 value=90 time=0
note_on channel=0 note=76 velocity=46 time=2
control_change channel=6 control=64 value=89 time=0
note_on channel=0 note=79 velocity=0 time=5
control_change channel=6 control=64 value=87 time=1
note_on channel=9 note=44 velocity=81 time=0
note_on channel=10 note=72 velocity=99 time=0
control_change channel=6 control=64 value=85 time=6
note_on channel=5 note=67 velocity=0 time=4
control_change channel=6 control=64 value=81 time=0
control_change channel=6 control=64 value=78 time=6
note_on channel=9 note=44 velocity=0 time=1
note_on channel=10 note=67 velocity=0 time=4
control_change channel=6 control=64 value=73 time=1
control_change channel=6 control=64 value=70 time=4
note_on channel=0 note=72 velocity=94 time=1
control_change channel=6 control=64 value=67 time=3
note_on channel=0 note=76 velocity=0 time=2
control_change channel=6 control=64 value=64 time=0
control_change channel=0 control=7 value=94 time=2
control_change channel=6 control=64 value=61 time=0
control_change channel=6 control=64 value=58 time=4
control_change channel=6 control=64 value=55 time=2
control_change channel=6 control=64 value=51 time=6
note_on channel=5 note=76 velocity=69 time=5
control_change channel=6 control=64 value=45 time=1
note_on channel=9 note=44 velocity=102 time=2
note_on channel=10 note=76 velocity=97 time=0
control_change channel=6 control=64 value=39 time=4
note_on channel=5 note=72 velocity=0 time=1
control_change channel=0 control=7 value=92 time=0
note_on channel=0 note=67 velocity=58 time=0
note_on channel=10 note=72 velocity=0 time=3
control_change channel=6 control=64 value=34 time=4
note_on channel=9 note=44 velocity=0 time=4
note_on channel=4 note=36 velocity=0 time=1
control_change channel=6 control=64 value=28 time=3
note_on channel=0 note=64 velocity=77 time=11
control_change channel=6 control=64 value=21 time=1
note_on channel=0 note=67 velocity=0 time=3
note_on channel=5 note=76 velocity=0 time=3
note_on channel=0 note=64 velocity=0 time=4
control_change channel=6 control=64 value=14 time=2
note_on channel=10 note=76 velocity=0 time=8
control_change channel=6 control=64 value=9 time=4
note_on channel=0 note=62 velocity=83 time=4
note_on channel=0 note=64 velocity=86 time=0
note_on channel=10 note=78 velocity=88 time=1
note_on channel=9 note=36 velocity=127 time=1
note_on channel=0 note=72 velocity=0 time=1
note_on channel=9 note=44 velocity=127 time=0
note_on channel=0 note=64 velocity=0 time=1
control_change channel=0 control=64 value=0 time=0
control_change channel=0 control=64 value=0 time=0
control_change channel=0 control=64 value=0 time=0
control_change channel=6 control=64 value=5 time=0
note_on channel=4 note=36 velocity=127 time=2
note_on channel=5 note=78 velocity=82 time=3
control_change channel=6 control=64 value=4 time=1
control_change channel=6 control=64 value=8 time=4
control_change channel=6 control=64 value=12 time=2
control_change channel=6 control=64 value=17 time=6
note_on channel=9 note=44 velocity=0 time=3
note_on channel=0 note=66 velocity=51 time=3
control_change channel=6 control=64 value=22 time=0
control_change channel=6 control=64 value=25 time=6
control_change channel=0 control=64 value=0 time=2
control_change channel=0 control=64 value=0 time=0
control_change channel=0 control=64 value=0 time=0
control_change channel=6 control=64 value=28 time=4
note_on channel=9 note=36 velocity=0 time=9
control_change channel=6 control=64 value=31 time=3
note_on channel=0 note=69 velocity=56 time=6
control_change channel=6 control=64 value=33 time=2
note_on channel=9 note=44 velocity=108 time=0
control_change channel=6 control=64 value=36 time=12
note_on channel=9 note=44 velocity=0 time=9
note_on channel=0 note=74 velocity=39 time=5
note_on channel=0 note=72 velocity=35 time=1
control_change channel=6 control=64 value=42 time=1
note_on channel=0 note=72 velocity=0 time=3
note_on channel=0 note=78 velocity=97 time=24
control_change channel=6 control=64 value=48 time=1
note_on channel=9 note=44 velocity=119 time=5
control_change channel=0 control=64 value=0 time=2
control_change channel=0 control=64 value=0 time=0
control_change channel=0 control=64 value=0 time=1
control_change channel=6 control=64 value=52 time=12
note_on channel=9 note=44 velocity=0 time=4
control_change channel=6 control=64 value=55 time=4
note_on channel=0 note=81 velocity=56 time=1
note_on channel=0 note=78 velocity=0 time=3
control_change channel=6 control=64 value=58 time=2
control_change channel=0 control=64 value=127 time=6
control_change channel=0 control=64 value=127 time=0
control_change channel=0 control=64 value=127 time=0
control_change channel=6 control=64 value=64 time=0
control_change channel=6 control=64 value=70 time=4
control_change channel=6 control=64 value=77 time=8
control_change channel=6 control=64 value=84 time=6
note_on channel=0 note=86 velocity=68 time=1
note_on channel=0 note=81 velocity=0 time=1
control_change channel=6 control=64 value=89 time=6
note_on channel=0 note=86 velocity=0 time=4
note_on channel=9 note=44 velocity=115 time=0
control_change channel=6 control=64 value=93 time=6
control_change channel=6 control=64 value=96 time=8
note_on channel=0 note=90 velocity=75 time=5
note_on channel=9 note=44 velocity=0 time=3
control_change channel=6 control=64 value=98 time=8
note_on channel=0 note=90 velocity=0 time=17
note_on channel=0 note=93 velocity=127 time=7
note_on channel=9 note=47 velocity=127 time=5
note_on channel=9 note=44 velocity=115 time=1
note_on channel=9 note=40 velocity=127 time=0
control_change channel=6 control=64 value=94 time=10
control_change channel=6 control=64 value=91 time=8
note_on channel=9 note=44 velocity=0 time=4
note_on channel=0 note=90 velocity=92 time=1
note_on channel=9 note=40 velocity=0 time=3
control_change channel=6 control=64 value=87 time=0
note_on channel=10 note=78 velocity=0 time=2
note_on channel=9 note=47 velocity=0 time=2
note_on channel=0 note=93 velocity=0 time=2
note_on channel=5 note=78 velocity=0 time=3
control_change channel=6 control=64 value=83 time=3
control_change channel=6 control=64 value=80 time=8
control_change channel=6 control=64 value=79 time=6
note_on channel=0 note=86 velocity=78 time=1
note_on channel=0 note=90 velocity=0 time=4
note_on channel=10 note=78 velocity=72 time=3
note_on channel=9 note=44 velocity=108 time=1
control_change channel=6 control=64 value=77 time=1
note_on channel=5 note=78 velocity=69 time=2
note_on channel=0 note=86 velocity=0 time=2
control_change channel=6 control=64 value=75 time=8
note_on channel=9 note=44 velocity=0 time=6
note_on channel=0 note=81 velocity=83 time=4
control_change channel=6 control=64 value=70 time=6
note_on channel=0 note=81 velocity=0 time=5
control_change channel=6 control=64 value=66 time=7
note_on channel=5 note=79 velocity=62 time=8
note_on channel=10 note=79 velocity=105 time=1
note_on channel=5 note=78 velocity=0 time=3
note_on channel=0 note=78 velocity=97 time=0
control_change channel=6 control=64 value=58 time=0
note_on channel=0 note=69 velocity=0 time=1
note_on channel=0 note=74 velocity=0 time=1
note_on channel=0 note=62 velocity=0 time=0
control_change channel=6 control=64 value=17 time=0
note_on channel=0 note=66 velocity=0 time=1
note_on channel=10 note=78 velocity=0 time=1
control_change channel=0 control=64 value=0 time=0
control_change channel=0 control=64 value=0 time=0
control_change channel=0 control=64 value=0 time=0
control_change channel=6 control=64 value=56 time=0
control_change channel=6 control=64 value=55 time=2
control_change channel=6 control=64 value=54 time=2
control_change channel=6 control=64 value=52 time=2
note_on channel=9 note=44 velocity=115 time=0
control_change channel=6 control=64 value=48 time=6
control_change channel=6 control=64 value=45 time=8
note_on channel=9 note=44 velocity=0 time=1
note_on channel=0 note=74 velocity=56 time=5
control_change channel=6 control=64 value=41 time=0
control_change channel=6 control=64 value=39 time=4
control_change channel=0 control=64 value=127 time=3
control_change channel=0 control=64 value=127 time=0
control_change channel=0 control=64 value=127 time=1
control_change channel=6 control=64 value=37 time=0
control_change channel=6 control=64 value=36 time=2
control_change channel=6 control=64 value=33 time=8
control_change channel=6 control=64 value=30 time=6
note_on channel=5 note=81 velocity=85 time=4
note_on channel=0 note=69 velocity=52 time=1
note_on channel=10 note=81 velocity=70 time=0
control_change channel=6 control=64 value=27 time=3
note_on channel=9 note=44 velocity=112 time=3
note_on channel=5 note=79 velocity=0 time=1
control_change channel=6 control=64 value=25 time=0
note_on channel=10 note=79 velocity=0 time=2
control_change channel=6 control=64 value=23 time=4
note_on channel=9 note=44 velocity=0 time=6
control_change channel=6 control=64 value=22 time=0
control_change channel=6 control=64 value=21 time=4
control_change channel=6 control=64 value=19 time=6
note_on channel=0 note=66 velocity=51 time=1
control_change channel=6 control=64 value=18 time=3
note_on channel=0 note=74 velocity=0 time=2
note_on channel=0 note=69 velocity=0 time=1
control_change channel=6 control=64 value=17 time=1
control_change channel=6 control=64 value=16 time=2
note_on channel=0 note=66 velocity=0 time=3
note_on channel=4 note=36 velocity=0 time=3
control_change channel=6 control=64 value=14 time=0
control_change channel=6 control=64 value=12 time=2
control_change channel=6 control=64 value=11 time=4
control_change channel=6 control=64 value=9 time=2
note_on channel=10 note=81 velocity=0 time=2
control_change channel=6 control=64 value=5 time=0
note_on channel=5 note=81 velocity=0 time=3
control_change channel=6 control=64 value=3 time=1
note_on channel=10 note=74 velocity=94 time=1
note_on channel=0 note=59 velocity=102 time=1
control_change channel=6 control=64 value=2 time=0
control_change channel=6 control=64 value=0 time=2
note_on channel=0 note=78 velocity=0 time=1
control_change channel=0 control=64 value=0 time=0
control_change channel=0 control=64 value=0 time=0
note_on channel=5 note=74 velocity=89 time=0
control_change channel=0 control=64 value=0 time=1
control_change channel=6 control=64 value=0 time=0
note_on channel=9 note=36 velocity=127 time=0
note_on channel=9 note=44 velocity=127 time=0
note_on channel=4 note=35 velocity=127 time=2
note_on channel=9 note=44 velocity=0 time=18
note_on channel=0 note=62 velocity=40 time=4
control_change channel=6 control=64 value=1 time=2
note_on channel=9 note=36 velocity=0 time=2
control_change channel=6 control=64 value=2 time=4
control_change channel=0 control=64 value=127 time=5
control_change channel=0 control=64 value=127 time=0
control_change channel=0 control=64 value=127 time=0
control_change channel=6 control=64 value=4 time=3
note_on channel=0 note=59 velocity=0 time=12
note_on channel=0 note=67 velocity=50 time=2
control_change channel=6 control=64 value=7 time=0
note_on channel=9 note=44 velocity=108 time=5
control_change channel=6 control=64 value=11 time=11
note_on channel=9 note=44 velocity=0 time=7
note_on channel=0 note=62 velocity=0 time=9
note_on channel=0 note=71 velocity=36 time=2
control_change channel=6 control=64 value=16 time=0
control_change channel=6 control=64 value=20 time=18
note_on channel=0 note=74 velocity=49 time=11
note_on channel=9 note=44 velocity=127 time=0
note_on channel=0 note=71 velocity=0 time=11
control_change channel=0 control=64 value=0 time=0
control_change channel=0 control=64 value=0 time=0
control_change channel=0 control=64 value=0 time=0
control_change channel=6 control=64 value=22 time=0
control_change channel=0 control=64 value=0 time=1
control_change channel=0 control=64 value=0 time=0
control_change channel=0 control=64 value=0 time=0
control_change channel=6 control=64 value=25 time=1
control_change channel=6 control=64 value=28 time=2
control_change channel=6 control=64 value=10 time=2
note_on channel=9 note=44 velocity=0 time=3
note_on channel=0 note=67 velocity=0 time=4
note_on channel=0 note=79 velocity=64 time=4
control_change channel=6 control=64 value=33 time=3
note_on channel=0 note=74 velocity=0 time=4
control_change channel=6 control=64 value=10 time=0
control_change channel=0 control=64 value=127 time=2
control_change channel=0 control=64 value=127 time=0
control_change channel=0 control=64 value=127 time=0
control_change channel=6 control=64 value=31 time=4
control_change channel=6 control=64 value=12 time=2
control_change channel=6 control=64 value=37 time=2
control_change channel=6 control=64 value=40 time=10
note_on channel=0 note=79 velocity=0 time=4
note_on channel=0 note=83 velocity=97 time=1
note_on channel=9 note=44 velocity=127 time=0
control_change channel=6 control=64 value=16 time=1
control_change channel=6 control=64 value=42 time=2
control_change channel=6 control=64 value=35 time=2
control_change channel=6 control=64 value=45 time=8
control_change channel=6 control=64 value=46 time=6
note_on channel=9 note=44 velocity=0 time=1
control_change channel=6 control=64 value=38 time=1
control_change channel=6 control=64 value=21 time=2
control_change channel=6 control=64 value=49 time=4
note_on channel=0 note=86 velocity=86 time=2
control_change channel=6 control=64 value=52 time=6
control_change channel=6 control=64 value=53 time=6
control_change channel=6 control=64 value=27 time=6
control_change channel=6 control=64 value=53 time=6
note_on channel=0 note=83 velocity=0 time=3
control_change channel=6 control=64 value=54 time=3
note_on channel=0 note=91 velocity=127 time=2
note_on channel=0 note=86 velocity=0 time=2
control_change channel=6 control=64 value=72 time=0
note_on channel=9 note=44 velocity=115 time=2
note_on channel=9 note=47 velocity=127 time=1
control_change channel=6 control=64 value=71 time=1
note_on channel=9 note=40 velocity=127 time=2
control_change channel=6 control=64 value=55 time=2
control_change channel=6 control=64 value=54 time=2
control_change channel=6 control=64 value=69 time=2
control_change channel=6 control=64 value=51 time=2
control_change channel=6 control=64 value=65 time=6
note_on channel=10 note=74 velocity=0 time=2
control_change channel=6 control=64 value=53 time=0
note_on channel=9 note=44 velocity=0 time=2
note_on channel=9 note=40 velocity=0 time=3
note_on channel=0 note=86 velocity=84 time=0
control_change channel=6 control=64 value=63 time=1
control_change channel=6 control=64 value=33 time=2
note_on channel=5 note=74 velocity=0 time=1
note_on channel=9 note=47 velocity=0 time=0
control_change channel=6 control=64 value=61 time=1
control_change channel=6 control=64 value=59 time=4
control_change channel=6 control=64 value=58 time=4
control_change channel=6 control=64 value=55 time=4
control_change channel=6 control=64 value=38 time=2
control_change channel=6 control=64 value=69 time=2
control_change channel=6 control=64 value=67 time=2
control_change channel=6 control=64 value=53 time=2
control_change channel=6 control=64 value=42 time=2
note_on channel=0 note=83 velocity=40 time=2
control_change channel=6 control=64 value=47 time=0
control_change channel=6 control=64 value=51 time=2
note_on channel=0 note=91 velocity=0 time=1
control_change channel=6 control=64 value=63 time=1
note_on channel=0 note=86 velocity=0 time=3
note_on channel=9 note=44 velocity=124 time=0
note_on channel=10 note=74 velocity=102 time=1
note_on channel=5 note=74 velocity=69 time=2
control_change channel=6 control=64 value=48 time=0
control_change channel=6 control=64 value=46 time=8
control_change channel=6 control=64 value=44 time=4
note_on channel=9 note=44 velocity=0 time=2
control_change channel=6 control=64 value=43 time=0
control_change channel=6 control=64 value=42 time=6
note_on channel=0 note=79 velocity=54 time=6
control_change channel=6 control=64 value=41 time=0
note_on channel=0 note=83 velocity=0 time=3
control_change channel=6 control=64 value=39 time=3
control_change channel=6 control=64 value=38 time=2
control_change channel=6 control=64 value=37 time=4
control_change channel=6 control=64 value=35 time=4
control_change channel=6 control=64 value=33 time=2
control_change channel=6 control=64 value=31 time=4
note_on channel=10 note=74 velocity=0 time=3
control_change channel=6 control=64 value=29 time=1
note_on channel=0 note=74 velocity=92 time=2
note_on channel=5 note=79 velocity=75 time=1
control_change channel=6 control=64 value=27 time=1
control_change channel=6 control=64 value=25 time=2
note_on channel=9 note=44 velocity=112 time=1
control_change channel=6 control=64 value=23 time=1
note_on channel=10 note=67 velocity=92 time=1
control_change channel=6 control=64 value=21 time=1
control_change channel=6 control=64 value=19 time=2
note_on channel=0 note=79 velocity=0 time=1
note_on channel=5 note=74 velocity=0 time=1
note_on channel=9 note=44 velocity=0 time=11
note_on channel=0 note=71 velocity=57 time=6
control_change channel=6 control=64 value=17 time=1
note_on channel=0 note=74 velocity=0 time=1
control_change channel=6 control=64 value=16 time=19
note_on channel=5 note=79 velocity=0 time=7
note_on channel=5 note=86 velocity=37 time=3
note_on channel=0 note=67 velocity=69 time=1
note_on channel=9 note=44 velocity=97 time=0
note_on channel=0 note=71 velocity=0 time=1
control_change channel=6 control=64 value=15 time=8
note_on channel=10 note=74 velocity=127 time=0
note_on channel=10 note=67 velocity=0 time=1
note_on channel=9 note=44 velocity=0 time=5
control_change channel=6 control=64 value=14 time=2
control_change channel=6 control=64 value=13 time=4
note_on channel=0 note=62 velocity=92 time=8
control_change channel=6 control=64 value=12 time=0
control_change channel=6 control=64 value=11 time=2
control_change channel=6 control=64 value=10 time=2
note_on channel=5 note=86 velocity=0 time=4
note_on channel=0 note=62 velocity=0 time=2
control_change channel=6 control=64 value=9 time=0
note_on channel=10 note=74 velocity=0 time=3
control_change channel=6 control=64 value=8 time=3
control_change channel=6 control=64 value=7 time=2
control_change channel=6 control=64 value=6 time=6
control_change channel=6 control=64 value=5 time=2
control_change channel=0 control=64 value=0 time=2
control_change channel=0 control=64 value=0 time=0
control_change channel=0 control=64 value=0 time=0
control_change channel=6 control=64 value=4 time=0
note_on channel=0 note=67 velocity=0 time=2
note_on channel=0 note=60 velocity=90 time=0
note_on channel=5 note=86 velocity=69 time=2
control_change channel=6 control=64 value=3 time=0
note_on channel=10 note=74 velocity=73 time=1
control_change channel=6 control=64 value=2 time=1
note_on channel=9 note=44 velocity=127 time=1
note_on channel=9 note=36 velocity=127 time=0
note_on channel=4 note=36 velocity=105 time=1
control_change channel=6 control=64 value=1 time=0
control_change channel=6 control=64 value=0 time=2
note_on channel=4 note=35 velocity=0 time=3
control_change channel=6 control=64 value=3 time=15
note_on channel=9 note=44 velocity=0 time=1
note_on channel=0 note=64 velocity=56 time=2
control_change channel=6 control=64 value=5 time=3
note_on channel=9 note=36 velocity=0 time=1
control_change channel=0 control=64 value=127 time=4
control_change channel=0 control=64 value=127 time=0
control_change channel=0 control=64 value=127 time=0
control_change channel=6 control=64 value=6 time=1
control_change channel=6 control=64 value=7 time=2
control_change channel=6 control=64 value=9 time=6
note_on channel=0 note=60 velocity=0 time=1
control_change channel=6 control=64 value=11 time=5
control_change channel=6 control=64 value=12 time=4
note_on channel=0 note=67 velocity=70 time=6
control_change channel=6 control=64 value=14 time=0
note_on channel=9 note=44 velocity=99 time=0
control_change channel=6 control=64 value=15 time=2
note_on channel=0 note=64 velocity=0 time=4
control_change channel=6 control=64 value=17 time=0
control_change channel=6 control=64 value=18 time=2
control_change channel=6 control=64 value=19 time=2
control_change channel=6 control=64 value=20 time=4
control_change channel=6 control=64 value=21 time=2
note_on channel=9 note=44 velocity=0 time=6
control_change channel=6 control=64 value=23 time=2
note_on channel=0 note=72 velocity=66 time=3
control_change channel=6 control=64 value=27 time=13
note_on channel=10 note=72 velocity=92 time=13
note_on channel=0 note=76 velocity=73 time=2
note_on channel=5 note=84 velocity=34 time=3
note_on channel=9 note=44 velocity=102 time=2
note_on channel=0 note=72 velocity=0 time=1
note_on channel=0 note=67 velocity=0 time=1
control_change channel=6 control=64 value=32 time=0
note_on channel=10 note=74 velocity=0 time=4
note_on channel=5 note=86 velocity=0 time=6
control_change channel=0 control=64 value=0 time=5
control_change channel=0 control=64 value=0 time=0
control_change channel=0 control=64 value=0 time=0
control_change channel=6 control=64 value=36 time=1
note_on channel=9 note=44 velocity=0 time=4
note_on channel=0 note=79 velocity=78 time=1
note_on channel=0 note=76 velocity=0 time=4
control_change channel=6 control=64 value=38 time=3
control_change channel=6 control=64 value=40 time=8
control_change channel=6 control=64 value=42 time=6
control_change channel=0 control=64 value=127 time=4
control_change channel=0 control=64 value=127 time=0
control_change channel=0 control=64 value=127 time=0
note_on channel=10 note=71 velocity=124 time=3
control_change channel=6 control=64 value=43 time=1
note_on channel=5 note=83 velocity=60 time=5
control_change channel=6 control=64 value=45 time=1
note_on channel=0 note=84 velocity=92 time=1
control_change channel=6 control=64 value=46 time=1
note_on channel=9 note=44 velocity=112 time=0
note_on channel=0 note=79 velocity=0 time=3
note_on channel=10 note=72 velocity=0 time=1
control_change channel=6 control=64 value=47 time=2
note_on channel=5 note=84 velocity=0 time=1
control_change channel=6 control=64 value=49 time=3
control_change channel=6 control=64 value=51 time=6
note_on channel=9 note=44 velocity=0 time=7
control_change channel=6 control=64 value=53 time=1
note_on channel=0 note=88 velocity=119 time=3
control_change channel=6 control=64 value=56 time=11
note_on channel=0 note=91 velocity=108 time=18
note_on channel=9 note=47 velocity=127 time=0
note_on channel=0 note=88 velocity=0 time=1
note_on channel=5 note=81 velocity=78 time=0
note_on channel=0 note=84 velocity=0 time=1
note_on channel=9 note=40 velocity=127 time=1
note_on channel=10 note=69 velocity=86 time=1
note_on channel=9 note=44 velocity=112 time=2
control_change channel=0 control=64 value=0 time=2
control_change channel=0 control=64 value=0 time=1
control_change channel=0 control=64 value=0 time=0
note_on channel=10 note=71 velocity=0 time=1
note_on channel=9 note=44 velocity=0 time=4
note_on channel=5 note=83 velocity=0 time=2
note_on channel=9 note=40 velocity=0 time=11
note_on channel=9 note=47 velocity=0 time=3
control_change channel=6 control=64 value=57 time=0
note_on channel=0 note=88 velocity=127 time=1
note_on channel=0 note=91 velocity=0 time=6
note_on channel=9 note=44 velocity=108 time=22
note_on channel=0 note=84 velocity=84 time=1
control_change channel=0 control=64 value=127 time=1
control_change channel=0 control=64 value=127 time=0
control_change channel=0 control=64 value=127 time=0
note_on channel=0 note=88 velocity=0 time=1
control_change channel=6 control=64 value=56 time=2
control_change channel=6 control=64 value=55 time=12
note_on channel=9 note=44 velocity=0 time=5
note_on channel=0 note=79 velocity=65 time=10
control_change channel=0 control=7 value=93 time=10
note_on channel=10 note=69 velocity=0 time=5
note_on channel=0 note=84 velocity=0 time=8
note_on channel=10 note=67 velocity=45 time=2
control_change channel=6 control=64 value=53 time=4
note_on channel=0 note=76 velocity=92 time=2
note_on channel=0 note=79 velocity=0 time=3
note_on channel=9 note=44 velocity=97 time=3
note_on channel=5 note=81 velocity=0 time=1
note_on channel=5 note=79 velocity=78 time=0
control_change channel=6 control=64 value=51 time=5
note_on channel=9 note=44 velocity=0 time=11
note_on channel=0 note=76 velocity=0 time=7
control_change channel=6 control=64 value=48 time=0
note_on channel=0 note=72 velocity=75 time=1
control_change channel=0 control=7 value=95 time=9
control_change channel=6 control=64 value=46 time=0
control_change channel=6 control=64 value=45 time=6
control_change channel=6 control=64 value=44 time=6
control_change channel=0 control=7 value=97 time=5
note_on channel=0 note=67 velocity=88 time=3
control_change channel=6 control=64 value=43 time=0
note_on channel=9 note=44 velocity=90 time=1
control_change channel=6 control=64 value=41 time=3
control_change channel=6 control=64 value=40 time=4
control_change channel=6 control=64 value=39 time=2
control_change channel=6 control=64 value=37 time=2
note_on channel=0 note=72 velocity=0 time=2
note_on channel=9 note=44 velocity=0 time=2
control_change channel=6 control=64 value=35 time=2
control_change channel=0 control=7 value=98 time=4
control_change channel=6 control=64 value=33 time=0
control_change channel=6 control=64 value=31 time=4
control_change channel=6 control=64 value=28 time=6
note_on channel=0 note=64 velocity=127 time=1
control_change channel=6 control=64 value=25 time=1
note_on channel=0 note=67 velocity=0 time=1
control_change channel=6 control=64 value=23 time=3
control_change channel=0 control=7 value=100 time=1
control_change channel=0 control=64 value=0 time=0
control_change channel=0 control=64 value=0 time=0
control_change channel=0 control=64 value=0 time=0
control_change channel=6 control=64 value=21 time=3
control_change channel=6 control=64 value=20 time=2
control_change channel=6 control=64 value=19 time=2
control_change channel=6 control=64 value=18 time=2
control_change channel=6 control=64 value=15 time=2
control_change channel=6 control=64 value=11 time=2
control_change channel=6 control=64 value=10 time=2
control_change channel=6 control=64 value=8 time=2
note_on channel=0 note=64 velocity=0 time=1
control_change channel=6 control=64 value=5 time=1
note_on channel=0 note=72 velocity=70 time=2
control_change channel=6 control=64 value=4 time=0
control_change channel=6 control=64 value=3 time=2
note_on channel=9 note=36 velocity=127 time=0
note_on channel=9 note=44 velocity=127 time=0
note_on channel=0 note=69 velocity=119 time=2
control_change channel=6 control=64 value=2 time=0
note_on channel=4 note=36 velocity=0 time=1
note_on channel=10 note=69 velocity=70 time=0
note_on channel=10 note=67 velocity=0 time=1
note_on channel=0 note=81 velocity=127 time=0
note_on channel=4 note=33 velocity=127 time=0
control_change channel=6 control=64 value=4 time=2
control_change channel=6 control=64 value=5 time=2
note_on channel=5 note=81 velocity=94 time=3
control_change channel=6 control=64 value=6 time=3
note_on channel=5 note=79 velocity=0 time=3
control_change channel=6 control=64 value=9 time=5
note_on channel=9 note=44 velocity=0 time=1
note_on channel=9 note=36 velocity=0 time=8
control_change channel=6 control=64 value=15 time=1
control_change channel=6 control=64 value=19 time=8
control_change channel=6 control=64 value=21 time=6
control_change channel=6 control=64 value=22 time=2
control_change channel=6 control=64 value=23 time=4
control_change channel=6 control=64 value=25 time=4
note_on channel=9 note=44 velocity=83 time=1
control_change channel=6 control=64 value=26 time=7
control_change channel=6 control=64 value=27 time=6
note_on channel=9 note=44 velocity=0 time=5
note_on channel=0 note=74 velocity=75 time=11
note_on channel=5 note=83 velocity=43 time=2
note_on channel=0 note=83 velocity=127 time=1
note_on channel=0 note=71 velocity=127 time=1
note_on channel=10 note=71 velocity=81 time=1
note_on channel=0 note=72 velocity=0 time=2
note_on channel=5 note=81 velocity=0 time=4
note_on channel=10 note=69 velocity=0 time=0
note_on channel=0 note=69 velocity=0 time=3
note_on channel=0 note=81 velocity=0 time=2
control_change channel=6 control=64 value=28 time=2
control_change channel=6 control=64 value=29 time=2
control_change channel=6 control=64 value=32 time=6
note_on channel=9 note=44 velocity=127 time=4
control_change channel=6 control=64 value=37 time=2
control_change channel=6 control=64 value=42 time=4
control_change channel=6 control=64 value=43 time=4
control_change channel=6 control=64 value=48 time=2
control_change channel=6 control=64 value=49 time=2
control_change channel=6 control=64 value=51 time=4
note_on channel=9 note=44 velocity=0 time=1
control_change channel=6 control=64 value=53 time=1
control_change channel=6 control=64 value=51 time=18
control_change channel=6 control=64 value=46 time=8
note_on channel=0 note=76 velocity=79 time=6
control_change channel=6 control=64 value=41 time=2
note_on channel=0 note=74 velocity=0 time=5
note_on channel=0 note=84 velocity=119 time=0
note_on channel=0 note=83 velocity=0 time=1
note_on channel=9 note=44 velocity=112 time=0
note_on channel=10 note=72 velocity=70 time=0
note_on channel=0 note=72 velocity=70 time=1
control_change channel=6 control=64 value=35 time=1
note_on channel=0 note=71 velocity=0 time=4
note_on channel=10 note=71 velocity=0 time=1
note_on channel=5 note=84 velocity=89 time=1
control_change channel=6 control=64 value=32 time=2
note_on channel=5 note=83 velocity=0 time=3
control_change channel=6 control=64 value=31 time=1
control_change channel=6 control=64 value=29 time=2
note_on channel=9 note=44 velocity=0 time=2
control_change channel=6 control=64 value=28 time=0
control_change channel=6 control=64 value=27 time=2
control_change channel=6 control=64 value=26 time=2
control_change channel=6 control=64 value=25 time=2
control_change channel=6 control=64 value=23 time=2
control_change channel=6 control=64 value=21 time=4
control_change channel=6 control=64 value=18 time=2
control_change channel=6 control=64 value=15 time=4
control_change channel=6 control=64 value=10 time=2
control_change channel=6 control=64 value=6 time=2
control_change channel=6 control=64 value=4 time=2
control_change channel=6 control=64 value=3 time=6
control_change channel=6 control=64 value=2 time=2
control_change channel=6 control=64 value=1 time=6
note_on channel=9 note=47 velocity=127 time=7
note_on channel=9 note=40 velocity=127 time=1
control_change channel=6 control=64 value=2 time=4
note_on channel=0 note=77 velocity=74 time=1
note_on channel=0 note=74 velocity=108 time=0
note_on channel=0 note=86 velocity=127 time=0
note_on channel=4 note=33 velocity=0 time=1
control_change channel=6 control=64 value=5 time=0
note_on channel=4 note=35 velocity=115 time=1
note_on channel=0 note=84 velocity=0 time=1
note_on channel=0 note=76 velocity=0 time=2
note_on channel=5 note=84 velocity=0 time=1
note_on channel=5 note=86 velocity=39 time=0
note_on channel=10 note=74 velocity=88 time=0
note_on channel=10 note=72 velocity=0 time=6
note_on channel=0 note=72 velocity=0 time=3
note_on channel=9 note=40 velocity=0 time=4
note_on channel=9 note=47 velocity=0 time=3
control_change channel=6 control=64 value=12 time=1
control_change channel=6 control=64 value=20 time=26
note_on channel=9 note=44 velocity=112 time=4
control_change channel=6 control=64 value=24 time=12
note_on channel=9 note=44 velocity=0 time=7
control_change channel=6 control=64 value=27 time=5
control_change channel=6 control=64 value=30 time=4
control_change channel=6 control=64 value=34 time=8
control_change channel=6 control=64 value=40 time=8
control_change channel=6 control=64 value=46 time=4
control_change channel=6 control=64 value=51 time=2
control_change channel=6 control=64 value=59 time=2
note_on channel=0 note=77 velocity=0 time=4
control_change channel=6 control=64 value=63 time=0
control_change channel=6 control=64 value=64 time=2
note_on channel=0 note=74 velocity=0 time=3
note_on channel=9 note=44 velocity=105 time=5
note_on channel=0 note=86 velocity=0 time=2
control_change channel=0 control=7 value=101 time=0
note_on channel=5 note=86 velocity=0 time=3
control_change channel=0 control=7 value=103 time=0
note_on channel=0 note=67 velocity=88 time=0
note_on channel=5 note=79 velocity=56 time=0
note_on channel=0 note=79 velocity=112 time=3
control_change channel=6 control=64 value=61 time=0
note_on channel=0 note=71 velocity=112 time=3
note_on channel=9 note=44 velocity=0 time=4
note_on channel=10 note=74 velocity=0 time=0
note_on channel=10 note=67 velocity=73 time=2
control_change channel=6 control=64 value=56 time=1
control_change channel=0 control=7 value=104 time=6
control_change channel=6 control=64 value=53 time=0
control_change channel=6 control=64 value=50 time=8
control_change channel=6 control=64 value=46 time=10
control_change channel=6 control=64 value=43 time=6
note_on channel=9 note=44 velocity=119 time=4
control_change channel=6 control=64 value=39 time=2
control_change channel=6 control=64 value=36 time=4
control_change channel=6 control=64 value=34 time=4
control_change channel=6 control=64 value=32 time=2
note_on channel=9 note=44 velocity=0 time=2
control_change channel=6 control=64 value=29 time=0
control_change channel=6 control=64 value=26 time=4
control_change channel=6 control=64 value=23 time=2
control_change channel=6 control=64 value=21 time=2
control_change channel=6 control=64 value=19 time=4
control_change channel=6 control=64 value=16 time=2
control_change channel=6 control=64 value=15 time=2
control_change channel=6 control=64 value=13 time=4
control_change channel=6 control=64 value=11 time=2
control_change channel=6 control=64 value=10 time=2
note_on channel=0 note=67 velocity=0 time=1
note_on channel=5 note=79 velocity=0 time=1
control_change channel=6 control=64 value=9 time=2
control_change channel=6 control=64 value=7 time=2
note_on channel=10 note=67 velocity=0 time=4
control_change channel=6 control=64 value=5 time=0
note_on channel=0 note=79 velocity=0 time=1
note_on channel=0 note=71 velocity=0 time=3
control_change channel=6 control=64 value=3 time=0
control_change channel=6 control=64 value=2 time=2
control_change channel=6 control=64 value=1 time=4
control_change channel=6 control=64 value=0 time=2
note_on channel=9 note=36 velocity=127 time=3
note_on channel=9 note=44 velocity=127 time=0
note_on channel=0 note=79 velocity=115 time=1
note_on channel=5 note=79 velocity=58 time=2
note_on channel=4 note=29 velocity=127 time=2
note_on channel=0 note=67 velocity=99 time=1
note_on channel=10 note=67 velocity=83 time=0
note_on channel=4 note=35 velocity=0 time=5
note_on channel=0 note=71 velocity=83 time=2
note_on channel=9 note=44 velocity=0 time=10
control_change channel=6 control=64 value=0 time=0
control_change channel=6 control=64 value=1 time=2
note_on channel=9 note=36 velocity=0 time=1
control_change channel=6 control=64 value=4 time=7
control_change channel=6 control=64 value=9 time=8
control_change channel=6 control=64 value=15 time=14
note_on channel=9 note=44 velocity=97 time=2
control_change channel=6 control=64 value=23 time=14
note_on channel=9 note=44 velocity=0 time=3
control_change channel=6 control=64 value=31 time=9
note_on channel=5 note=81 velocity=64 time=1
note_on channel=0 note=67 velocity=0 time=7
note_on channel=0 note=69 velocity=64 time=0
note_on channel=10 note=69 velocity=92 time=1
note_on channel=5 note=79 velocity=0 time=1
note_on channel=0 note=72 velocity=74 time=0
note_on channel=0 note=79 velocity=0 time=2
note_on channel=0 note=81 velocity=124 time=2
control_change channel=6 control=64 value=37 time=0
note_on channel=10 note=67 velocity=0 time=2
note_on channel=0 note=71 velocity=0 time=1
control_change channel=6 control=64 value=43 time=7
note_on channel=9 note=44 velocity=127 time=8
control_change channel=6 control=64 value=48 time=4
control_change channel=6 control=64 value=51 time=10
note_on channel=9 note=44 velocity=0 time=5
control_change channel=6 control=64 value=54 time=1
control_change channel=6 control=64 value=58 time=8
control_change channel=6 control=64 value=60 time=8
control_change channel=6 control=64 value=63 time=4
control_change channel=6 control=64 value=64 time=4
control_change channel=6 control=64 value=65 time=4
control_change channel=6 control=64 value=66 time=6
note_on channel=10 note=71 velocity=78 time=3
note_on channel=0 note=74 velocity=67 time=1
note_on channel=5 note=83 velocity=51 time=2
control_change channel=6 control=64 value=67 time=0
note_on channel=0 note=71 velocity=119 time=1
note_on channel=0 note=83 velocity=97 time=2
control_change channel=6 control=64 value=68 time=3
note_on channel=9 note=44 velocity=127 time=0
note_on channel=0 note=69 velocity=0 time=2
note_on channel=0 note=72 velocity=0 time=0
note_on channel=10 note=69 velocity=0 time=1
note_on channel=5 note=81 velocity=0 time=0
control_change channel=6 control=64 value=70 time=3
note_on channel=9 note=44 velocity=0 time=12
control_change channel=6 control=64 value=71 time=8
note_on channel=0 note=81 velocity=0 time=7
control_change channel=6 control=64 value=72 time=5
control_change channel=6 control=64 value=73 time=16
note_on channel=9 note=47 velocity=127 time=1
note_on channel=10 note=71 velocity=0 time=4
note_on channel=9 note=40 velocity=127 time=0
note_on channel=10 note=72 velocity=86 time=0
control_change channel=6 control=64 value=74 time=3
note_on channel=0 note=84 velocity=88 time=2
note_on channel=0 note=83 velocity=0 time=1
note_on channel=0 note=76 velocity=70 time=1
note_on channel=5 note=84 velocity=60 time=0
note_on channel=5 note=83 velocity=0 time=1
note_on channel=0 note=72 velocity=127 time=0
note_on channel=4 note=29 velocity=0 time=1
note_on channel=0 note=74 velocity=0 time=3
note_on channel=0 note=71 velocity=0 time=0
note_on channel=4 note=34 velocity=124 time=0
note_on channel=9 note=40 velocity=0 time=10
note_on channel=9 note=47 velocity=0 time=3
control_change channel=0 control=10 value=64 time=34
control_change channel=1 control=7 value=83 time=0
control_change channel=1 control=10 value=64 time=0
control_change channel=2 control=7 value=127 time=0
control_change channel=2 control=10 value=64 time=0
control_change channel=3 control=7 value=104 time=0
control_change channel=3 control=10 value=64 time=0
control_change channel=4 control=7 value=127 time=0
control_change channel=4 control=10 value=64 time=0
control_change channel=5 control=7 value=127 time=0
control_change channel=5 control=10 value=64 time=0
control_change channel=6 control=7 value=127 time=0
control_change channel=6 control=10 value=64 time=0
control_change channel=7 control=7 value=81 time=0
control_change channel=7 control=10 value=64 time=0
control_change channel=8 control=7 value=95 time=0
control_change channel=8 control=10 value=64 time=0
control_change channel=9 control=7 value=78 time=0
control_change channel=9 control=10 value=64 time=0
note_on channel=9 note=44 velocity=115 time=0
control_change channel=10 control=7 value=124 time=0
control_change channel=10 control=10 value=64 time=0
control_change channel=11 control=7 value=127 time=0
control_change channel=11 control=10 value=64 time=0
control_change channel=12 control=7 value=127 time=0
control_change channel=12 control=10 value=64 time=0
control_change channel=13 control=7 value=127 time=0
control_change channel=13 control=10 value=64 time=0
control_change channel=14 control=7 value=127 time=0
control_change channel=14 control=10 value=64 time=0
control_change channel=15 control=7 value=127 time=0
control_change channel=15 control=10 value=64 time=0
note_on channel=9 note=44 velocity=0 time=18
note_on channel=0 note=84 velocity=0 time=41
note_on channel=0 note=77 velocity=86 time=0
note_on channel=0 note=76 velocity=0 time=1
note_on channel=5 note=84 velocity=0 time=0
note_on channel=0 note=65 velocity=66 time=0
note_on channel=10 note=65 velocity=92 time=0
note_on channel=10 note=72 velocity=0 time=1
note_on channel=0 note=69 velocity=81 time=0
note_on channel=5 note=77 velocity=62 time=2
control_change channel=6 control=64 value=73 time=1
note_on channel=0 note=72 velocity=0 time=3
note_on channel=9 note=44 velocity=105 time=1
control_change channel=6 control=64 value=72 time=4
control_change channel=6 control=64 value=69 time=6
note_on channel=9 note=44 velocity=0 time=7
control_change channel=6 control=64 value=67 time=1
control_change channel=6 control=64 value=65 time=8
control_change channel=6 control=64 value=64 time=6
control_change channel=6 control=64 value=62 time=10
control_change channel=6 control=64 value=61 time=8
control_change channel=6 control=64 value=59 time=6
note_on channel=9 note=44 velocity=127 time=1
control_change channel=6 control=64 value=57 time=7
note_on channel=9 note=44 velocity=0 time=8
control_change channel=6 control=64 value=53 time=0
note_on channel=0 note=65 velocity=0 time=1
control_change channel=6 control=64 value=51 time=3
control_change channel=6 control=64 value=48 time=4
control_change channel=6 control=64 value=47 time=2
note_on channel=0 note=77 velocity=0 time=2
note_on channel=0 note=69 velocity=0 time=0
control_change channel=6 control=64 value=44 time=0
control_change channel=6 control=64 value=41 time=4
control_change channel=6 control=64 value=38 time=2
control_change channel=6 control=64 value=35 time=2
control_change channel=6 control=64 value=31 time=4
control_change channel=6 control=64 value=26 time=2
control_change channel=6 control=64 value=19 time=2
note_on channel=5 note=77 velocity=0 time=1
note_on channel=4 note=34 velocity=0 time=3
control_change channel=6 control=64 value=15 time=0
control_change channel=6 control=64 value=13 time=2
control_change channel=6 control=64 value=10 time=2
note_on channel=4 note=29 velocity=115 time=1
control_change channel=6 control=64 value=9 time=1
note_on channel=0 note=76 velocity=97 time=1
note_on channel=0 note=64 velocity=92 time=1
control_change channel=6 control=64 value=7 time=0
note_on channel=10 note=64 velocity=66 time=0
note_on channel=9 note=36 velocity=127 time=1
control_change channel=6 control=64 value=5 time=1
note_on channel=10 note=65 velocity=0 time=1
control_change channel=6 control=64 value=3 time=1
note_on channel=9 note=44 velocity=127 time=1
control_change channel=6 control=64 value=2 time=1
note_on channel=0 note=67 velocity=78 time=2
control_change channel=6 control=64 value=4 time=0
control_change channel=6 control=64 value=8 time=8
note_on channel=5 note=76 velocity=83 time=1
note_on channel=9 note=44 velocity=0 time=8
note_on channel=9 note=36 velocity=0 time=3
control_change channel=6 control=64 value=20 time=0
control_change channel=6 control=64 value=32 time=12
control_change channel=6 control=64 value=38 time=10
control_change channel=6 control=64 value=40 time=6
note_on channel=9 note=44 velocity=105 time=4
control_change channel=6 control=64 value=42 time=4
note_on channel=10 note=65 velocity=78 time=7
control_change channel=6 control=64 value=43 time=5
note_on channel=9 note=44 velocity=0 time=4
note_on channel=10 note=64 velocity=0 time=1
control_change channel=6 control=64 value=44 time=1
note_on channel=0 note=65 velocity=78 time=3
note_on channel=0 note=77 velocity=124 time=0
note_on channel=5 note=77 velocity=74 time=0
note_on channel=0 note=69 velocity=65 time=3
note_on channel=5 note=76 velocity=0 time=2
note_on channel=0 note=76 velocity=0 time=1
control_change channel=6 control=64 value=46 time=1
note_on channel=0 note=64 velocity=0 time=1
note_on channel=0 note=67 velocity=0 time=9
control_change channel=6 control=64 value=50 time=0
control_change channel=6 control=64 value=54 time=10
note_on channel=9 note=44 velocity=119 time=6
control_change channel=6 control=64 value=59 time=8
note_on channel=9 note=44 velocity=0 time=10
control_change channel=6 control=64 value=63 time=6
control_change channel=6 control=64 value=65 time=14
note_on channel=10 note=67 velocity=105 time=4
note_on channel=5 note=79 velocity=82 time=7
note_on channel=10 note=65 velocity=0 time=1
control_change channel=6 control=64 value=68 time=0
note_on channel=0 note=79 velocity=99 time=1
note_on channel=0 note=67 velocity=97 time=2
note_on channel=0 note=71 velocity=51 time=3
note_on channel=9 note=44 velocity=119 time=1
control_change channel=6 control=64 value=71 time=1
note_on channel=5 note=77 velocity=0 time=2
note_on channel=0 note=77 velocity=0 time=0
note_on channel=0 note=65 velocity=0 time=2
note_on channel=0 note=69 velocity=0 time=2
control_change channel=6 control=64 value=73 time=2
control_change channel=6 control=64 value=74 time=6
note_on channel=9 note=44 velocity=0 time=6
control_change channel=6 control=64 value=75 time=0
note_on channel=0 note=79 velocity=0 time=17
note_on channel=0 note=67 velocity=0 time=0
note_on channel=4 note=34 velocity=124 time=11
control_change channel=6 control=64 value=74 time=8
note_on channel=0 note=71 velocity=0 time=3
note_on channel=0 note=60 velocity=99 time=2
note_on channel=10 note=67 velocity=0 time=3
note_on channel=9 note=47 velocity=127 time=0
note_on channel=9 note=40 velocity=127 time=0
note_on channel=0 note=72 velocity=102 time=2
note_on channel=0 note=64 velocity=79 time=2
note_on channel=10 note=60 velocity=97 time=1
note_on channel=5 note=79 velocity=0 time=1
control_change channel=6 control=64 value=73 time=0
note_on channel=5 note=72 velocity=56 time=7
control_change channel=6 control=64 value=71 time=1
note_on channel=4 note=29 velocity=0 time=6
note_on channel=9 note=40 velocity=0 time=4
control_change channel=6 control=64 value=69 time=0
note_on channel=9 note=47 velocity=0 time=5
control_change channel=6 control=64 value=66 time=11
control_change channel=6 control=64 value=62 time=14
note_on channel=9 note=44 velocity=119 time=8
control_change channel=6 control=64 value=59 time=2
note_on channel=0 note=60 velocity=0 time=9
control_change channel=6 control=64 value=55 time=3
note_on channel=9 note=44 velocity=0 time=2
control_change channel=6 control=64 value=52 time=6
control_change channel=6 control=64 value=47 time=8
note_on channel=0 note=64 velocity=0 time=4
control_change channel=6 control=64 value=42 time=0
note_on channel=0 note=72 velocity=0 time=1
control_change channel=6 control=64 value=38 time=5
note_on channel=10 note=60 velocity=0 time=1
note_on channel=5 note=72 velocity=0 time=3
control_change channel=6 control=64 value=35 time=2
control_change channel=6 control=64 value=31 time=2
control_change channel=6 control=64 value=27 time=2
note_on channel=0 note=72 velocity=127 time=3
control_change channel=6 control=64 value=24 time=1
control_change channel=6 control=64 value=21 time=2
control_change channel=6 control=64 value=19 time=2
note_on channel=0 note=60 velocity=86 time=2
note_on channel=10 note=60 velocity=88 time=0
control_change channel=6 control=64 value=15 time=2
note_on channel=9 note=44 velocity=97 time=0
control_change channel=6 control=64 value=13 time=2
note_on channel=5 note=72 velocity=64 time=2
control_change channel=6 control=64 value=9 time=0
note_on channel=0 note=64 velocity=92 time=1
note_on channel=9 note=44 velocity=0 time=9
note_on channel=9 note=44 velocity=108 time=42
note_on channel=9 note=44 velocity=0 time=16
control_change channel=0 control=7 value=106 time=15
control_change channel=0 control=7 value=107 time=10
note_on channel=0 note=69 velocity=86 time=10
note_on channel=0 note=77 velocity=127 time=1
note_on channel=0 note=65 velocity=127 time=0
note_on channel=5 note=72 velocity=0 time=1
note_on channel=0 note=72 velocity=0 time=4
note_on channel=5 note=77 velocity=67 time=0
note_on channel=0 note=64 velocity=0 time=1
note_on channel=10 note=65 velocity=97 time=2
note_on channel=4 note=34 velocity=0 time=1
note_on channel=9 note=36 velocity=127 time=0
note_on channel=4 note=38 velocity=105 time=1
note_on channel=9 note=44 velocity=127 time=0
note_on channel=0 note=60 velocity=0 time=1
note_on channel=10 note=60 velocity=0 time=6
note_on channel=9 note=44 velocity=0 time=18
note_on channel=9 note=44 velocity=99 time=34
note_on channel=9 note=44 velocity=0 time=19
note_on channel=5 note=77 velocity=0 time=25
note_on channel=0 note=65 velocity=0 time=0
note_on channel=4 note=38 velocity=0 time=2
note_on channel=0 note=77 velocity=0 time=1
note_on channel=5 note=76 velocity=67 time=1
note_on channel=4 note=40 velocity=112 time=1
note_on channel=10 note=64 velocity=65 time=1
note_on channel=0 note=64 velocity=119 time=1
note_on channel=0 note=76 velocity=127 time=1
note_on channel=0 note=69 velocity=0 time=2
note_on channel=10 note=65 velocity=0 time=1
note_on channel=0 note=67 velocity=59 time=1
note_on channel=9 note=44 velocity=119 time=3
note_on channel=9 note=44 velocity=0 time=17
note_on channel=9 note=36 velocity=0 time=1
note_on channel=9 note=44 velocity=102 time=44
note_on channel=9 note=44 velocity=0 time=15
note_on channel=0 note=64 velocity=0 time=24
note_on channel=4 note=41 velocity=119 time=6
note_on channel=0 note=76 velocity=0 time=1
note_on channel=0 note=62 velocity=115 time=1
note_on channel=0 note=74 velocity=127 time=2
note_on channel=0 note=67 velocity=0 time=2
note_on channel=0 note=65 velocity=94 time=1
note_on channel=9 note=44 velocity=127 time=1
note_on channel=9 note=40 velocity=127 time=1
note_on channel=10 note=62 velocity=99 time=1
note_on channel=4 note=40 velocity=0 time=1
note_on channel=10 note=64 velocity=0 time=2
control_change channel=0 control=64 value=127 time=6
control_change channel=0 control=64 value=127 time=0
control_change channel=0 control=64 value=127 time=0
note_on channel=5 note=74 velocity=75 time=0
note_on channel=5 note=76 velocity=0 time=1
note_on channel=9 note=40 velocity=0 time=26
control_change channel=0 control=64 value=0 time=8
control_change channel=0 control=64 value=0 time=0
control_change channel=0 control=64 value=0 time=0
note_on channel=9 note=44 velocity=0 time=26
note_on channel=9 note=40 velocity=81 time=46
note_on channel=9 note=40 velocity=127 time=3
note_on channel=9 note=44 velocity=127 time=1
note_on channel=9 note=40 velocity=127 time=0
note_on channel=9 note=40 velocity=0 time=13
control_change channel=0 control=7 value=106 time=0
note_on channel=9 note=40 velocity=0 time=3
note_on channel=9 note=44 velocity=0 time=4
control_change channel=0 control=7 value=105 time=5
note_on channel=9 note=40 velocity=0 time=3
control_change channel=0 control=7 value=103 time=5
control_change channel=0 control=7 value=102 time=5
control_change channel=0 control=7 value=100 time=10
note_on channel=9 note=44 velocity=105 time=0
control_change channel=0 control=7 value=99 time=10
note_on channel=9 note=40 velocity=77 time=11
note_on channel=9 note=44 velocity=0 time=4
control_change channel=0 control=7 value=97 time=5
note_on channel=9 note=40 velocity=0 time=2
note_on channel=0 note=62 velocity=0 time=2
note_on channel=0 note=65 velocity=0 time=3
control_change channel=0 control=7 value=96 time=0
note_on channel=0 note=74 velocity=0 time=10
note_on channel=9 note=40 velocity=94 time=0
note_on channel=10 note=62 velocity=0 time=13
note_on channel=5 note=74 velocity=0 time=2
note_on channel=9 note=40 velocity=0 time=2
note_on channel=9 note=40 velocity=81 time=8
note_on channel=4 note=41 velocity=0 time=1
note_on channel=5 note=76 velocity=60 time=0
control_change channel=6 control=64 value=3 time=0
note_on channel=0 note=60 velocity=61 time=4
note_on channel=4 note=40 velocity=124 time=0
control_change channel=6 control=64 value=6 time=0
note_on channel=9 note=36 velocity=127 time=0
note_on channel=10 note=64 velocity=94 time=1
note_on channel=9 note=49 velocity=124 time=1
note_on channel=9 note=40 velocity=0 time=1
control_change channel=0 control=64 value=127 time=14
control_change channel=0 control=64 value=127 time=1
control_change channel=0 control=64 value=127 time=0
control_change channel=6 control=64 value=17 time=2
note_on channel=9 note=49 velocity=0 time=7
control_change channel=0 control=7 value=95 time=0
note_on channel=9 note=36 velocity=0 time=1
note_on channel=0 note=60 velocity=0 time=2
control_change channel=0 control=7 value=94 time=0
note_on channel=0 note=64 velocity=48 time=0
control_change channel=0 control=7 value=92 time=14
control_change channel=6 control=64 value=34 time=0
control_change channel=0 control=7 value=91 time=10
note_on channel=0 note=64 velocity=0 time=6
note_on channel=0 note=67 velocity=50 time=0
note_on channel=9 note=44 velocity=112 time=6
control_change channel=6 control=64 value=53 time=2
note_on channel=9 note=44 velocity=0 time=12
control_change channel=6 control=64 value=66 time=8
note_on channel=0 note=72 velocity=72 time=2
control_change channel=6 control=64 value=75 time=18
note_on channel=0 note=72 velocity=0 time=12
note_on channel=0 note=67 velocity=0 time=0
note_on channel=0 note=76 velocity=57 time=0
control_change channel=6 control=64 value=81 time=2
note_on channel=9 note=44 velocity=86 time=2
control_change channel=6 control=64 value=86 time=10
note_on channel=9 note=44 velocity=0 time=5
control_change channel=6 control=64 value=96 time=3
note_on channel=0 note=76 velocity=0 time=8
note_on channel=0 note=79 velocity=65 time=0
control_change channel=6 control=64 value=106 time=2
control_change channel=6 control=64 value=113 time=6
control_change channel=6 control=64 value=121 time=8
control_change channel=6 control=64 value=127 time=4
note_on channel=0 note=79 velocity=0 time=10
note_on channel=0 note=84 velocity=68 time=0
note_on channel=9 note=44 velocity=94 time=0
note_on channel=9 note=44 velocity=0 time=14
control_change channel=0 control=7 value=92 time=5
note_on channel=0 note=88 velocity=124 time=11
note_on channel=0 note=88 velocity=0 time=30
note_on channel=0 note=84 velocity=0 time=0
note_on channel=0 note=91 velocity=127 time=0
note_on channel=9 note=47 velocity=105 time=3
note_on channel=9 note=45 velocity=94 time=1
note_on channel=9 note=40 velocity=127 time=5
note_on channel=0 note=91 velocity=0 time=21
note_on channel=0 note=88 velocity=108 time=0
note_on channel=9 note=40 velocity=0 time=3
note_on channel=9 note=45 velocity=0 time=2
note_on channel=9 note=47 velocity=0 time=4
note_on channel=10 note=64 velocity=0 time=10
note_on channel=5 note=76 velocity=0 time=7
note_on channel=10 note=55 velocity=52 time=0
note_on channel=5 note=67 velocity=64 time=3
note_on channel=0 note=88 velocity=0 time=1
note_on channel=0 note=84 velocity=84 time=0
note_on channel=9 note=44 velocity=99 time=4
note_on channel=9 note=44 velocity=0 time=21
note_on channel=0 note=79 velocity=90 time=5
note_on channel=0 note=79 velocity=0 time=30
note_on channel=0 note=84 velocity=0 time=0
note_on channel=0 note=76 velocity=127 time=0
note_on channel=9 note=44 velocity=108 time=0
note_on channel=5 note=72 velocity=36 time=5
note_on channel=10 note=60 velocity=79 time=0
note_on channel=10 note=55 velocity=0 time=6
note_on channel=9 note=44 velocity=0 time=5
note_on channel=5 note=67 velocity=0 time=8
note_on channel=0 note=76 velocity=0 time=6
note_on channel=0 note=72 velocity=70 time=0
control_change channel=6 control=64 value=123 time=22
note_on channel=0 note=67 velocity=68 time=8
note_on channel=5 note=76 velocity=85 time=1
control_change channel=6 control=64 value=115 time=1
note_on channel=10 note=64 velocity=94 time=0
note_on channel=9 note=44 velocity=102 time=1
note_on channel=10 note=60 velocity=0 time=1
control_change channel=6 control=64 value=108 time=4
note_on channel=5 note=72 velocity=0 time=3
control_change channel=6 control=64 value=102 time=1
control_change channel=6 control=64 value=97 time=6
note_on channel=9 note=44 velocity=0 time=2
control_change channel=6 control=64 value=90 time=4
note_on channel=0 note=72 velocity=0 time=6
note_on channel=0 note=67 velocity=0 time=0
note_on channel=0 note=64 velocity=70 time=0
control_change channel=0 control=7 value=91 time=2
control_change channel=6 control=64 value=83 time=0
control_change channel=6 control=64 value=78 time=4
note_on channel=5 note=76 velocity=0 time=6
control_change channel=6 control=64 value=72 time=2
note_on channel=4 note=40 velocity=0 time=3
control_change channel=6 control=64 value=66 time=3
control_change channel=6 control=64 value=2 time=2
control_change channel=0 control=7 value=89 time=4
control_change channel=6 control=64 value=0 time=0
control_change channel=6 control=64 value=3 time=2
note_on channel=0 note=64 velocity=0 time=2
note_on channel=0 note=62 velocity=65 time=0
note_on channel=4 note=45 velocity=108 time=0
control_change channel=6 control=64 value=6 time=0
control_change channel=6 control=64 value=3 time=2
control_change channel=6 control=64 value=2 time=2
note_on channel=9 note=36 velocity=127 time=1
control_change channel=0 control=64 value=0 time=1
control_change channel=0 control=64 value=0 time=0
control_change channel=0 control=64 value=0 time=0
note_on channel=5 note=78 velocity=97 time=1
note_on channel=9 note=44 velocity=127 time=0
note_on channel=10 note=64 velocity=0 time=3
note_on channel=10 note=66 velocity=88 time=3
note_on channel=9 note=44 velocity=0 time=15
note_on channel=0 note=66 velocity=79 time=2
note_on channel=9 note=36 velocity=0 time=8
note_on channel=9 note=44 velocity=88 time=20
note_on channel=0 note=69 velocity=55 time=2
note_on channel=9 note=44 velocity=0 time=17
note_on channel=0 note=74 velocity=36 time=13
note_on channel=0 note=78 velocity=55 time=30
note_on channel=9 note=44 velocity=108 time=0
note_on channel=9 note=44 velocity=0 time=18
note_on channel=0 note=78 velocity=0 time=12
note_on channel=0 note=74 velocity=0 time=0
note_on channel=0 note=69 velocity=0 time=0
note_on channel=0 note=66 velocity=0 time=0
note_on channel=0 note=62 velocity=0 time=0
note_on channel=0 note=81 velocity=37 time=0
note_on channel=0 note=81 velocity=0 time=30
control_change channel=0 control=64 value=127 time=0
note_on channel=0 note=86 velocity=66 time=0
note_on channel=9 note=44 velocity=119 time=0
note_on channel=9 note=44 velocity=0 time=21
note_on channel=0 note=86 velocity=0 time=9
note_on channel=0 note=90 velocity=103 time=0
note_on channel=10 note=66 velocity=0 time=3
note_on channel=9 note=40 velocity=127 time=19
note_on channel=9 note=47 velocity=108 time=2
note_on channel=0 note=90 velocity=0 time=6
note_on channel=0 note=93 velocity=127 time=0
note_on channel=9 note=44 velocity=90 time=0
note_on channel=9 note=44 velocity=0 time=6
note_on channel=9 note=40 velocity=0 time=12
note_on channel=9 note=47 velocity=0 time=5
note_on channel=0 note=93 velocity=0 time=7
note_on channel=0 note=90 velocity=29 time=0
note_on channel=5 note=78 velocity=0 time=1
control_change channel=0 control=7 value=90 time=0
note_on channel=9 note=44 velocity=105 time=24
note_on channel=0 note=90 velocity=0 time=5
note_on channel=0 note=86 velocity=94 time=0
note_on channel=5 note=78 velocity=78 time=1
note_on channel=9 note=44 velocity=0 time=14
note_on channel=10 note=66 velocity=73 time=0
note_on channel=0 note=86 velocity=0 time=15
note_on channel=0 note=81 velocity=84 time=0
note_on channel=10 note=66 velocity=0 time=18
control_change channel=0 control=7 value=92 time=0
note_on channel=5 note=78 velocity=0 time=3
note_on channel=9 note=44 velocity=99 time=3
note_on channel=5 note=79 velocity=82 time=2
note_on channel=0 note=81 velocity=0 time=4
note_on channel=0 note=78 velocity=77 time=0
note_on channel=10 note=67 velocity=66 time=8
note_on channel=9 note=44 velocity=0 time=7
note_on channel=0 note=78 velocity=0 time=15
note_on channel=0 note=74 velocity=92 time=0
note_on channel=10 note=69 velocity=44 time=19
note_on channel=5 note=81 velocity=53 time=3
note_on channel=5 note=79 velocity=0 time=1
note_on channel=10 note=67 velocity=0 time=5
note_on channel=9 note=44 velocity=112 time=0
note_on channel=0 note=69 velocity=49 time=2
note_on channel=9 note=44 velocity=0 time=14
note_on channel=0 note=69 velocity=0 time=16
note_on channel=0 note=66 velocity=73 time=0
note_on channel=10 note=69 velocity=0 time=16
note_on channel=5 note=81 velocity=0 time=5
note_on channel=9 note=49 velocity=127 time=4
note_on channel=9 note=36 velocity=127 time=2
control_change channel=0 control=64 value=0 time=2
control_change channel=0 control=64 value=0 time=0
control_change channel=0 control=64 value=0 time=0
note_on channel=0 note=66 velocity=0 time=1
note_on channel=0 note=74 velocity=0 time=0
note_on channel=4 note=43 velocity=119 time=0
note_on channel=10 note=69 velocity=69 time=4
note_on channel=0 note=69 velocity=127 time=3
note_on channel=4 note=45 velocity=0 time=2
note_on channel=5 note=81 velocity=97 time=0
note_on channel=0 note=81 velocity=105 time=3
note_on channel=9 note=49 velocity=0 time=15
note_on channel=9 note=36 velocity=0 time=3
note_on channel=9 note=44 velocity=36 time=59
note_on channel=9 note=38 velocity=99 time=25
note_on channel=9 note=44 velocity=0 time=1
note_on channel=9 note=38 velocity=0 time=26
note_on channel=4 note=43 velocity=0 time=18
note_on channel=9 note=49 velocity=124 time=8
note_on channel=9 note=36 velocity=127 time=2
note_on channel=0 note=69 velocity=0 time=8
note_on channel=0 note=71 velocity=127 time=2
note_on channel=0 note=81 velocity=0 time=2
note_on channel=0 note=83 velocity=127 time=0
note_on channel=4 note=43 velocity=92 time=4
note_on channel=10 note=69 velocity=0 time=10
note_on channel=5 note=81 velocity=0 time=2
note_on channel=10 note=71 velocity=92 time=0
note_on channel=5 note=83 velocity=54 time=5
note_on channel=9 note=49 velocity=0 time=5
note_on channel=9 note=36 velocity=0 time=0
note_on channel=9 note=44 velocity=75 time=71
note_on channel=9 note=44 velocity=0 time=21
note_on channel=9 note=38 velocity=84 time=1
control_change channel=1 control=7 value=87 time=4
note_on channel=9 note=38 velocity=0 time=20
note_on channel=4 note=43 velocity=0 time=27
control_change channel=1 control=7 value=88 time=0
note_on channel=10 note=71 velocity=0 time=22
note_on channel=5 note=79 velocity=78 time=0
note_on channel=9 note=49 velocity=119 time=0
note_on channel=9 note=36 velocity=127 time=0
note_on channel=10 note=67 velocity=90 time=0
note_on channel=0 note=79 velocity=127 time=1
note_on channel=0 note=67 velocity=90 time=0
note_on channel=5 note=83 velocity=0 time=1
note_on channel=4 note=41 velocity=115 time=0
note_on channel=0 note=83 velocity=0 time=2
note_on channel=0 note=71 velocity=0 time=2
note_on channel=11 note=60 velocity=112 time=173
note_on channel=2 note=60 velocity=97 time=3
note_on channel=14 note=60 velocity=97 time=0
note_on channel=2 note=72 velocity=97 time=1
note_on channel=11 note=72 velocity=97 time=0
note_on channel=14 note=72 velocity=97 time=0
note_on channel=11 note=60 velocity=0 time=8
note_on channel=0 note=67 velocity=0 time=2
note_on channel=0 note=79 velocity=0 time=5
note_on channel=2 note=60 velocity=0 time=2
note_on channel=14 note=60 velocity=0 time=0
note_on channel=11 note=72 velocity=0 time=1
note_on channel=2 note=72 velocity=0 time=0
note_on channel=14 note=72 velocity=0 time=0
note_on channel=11 note=60 velocity=105 time=9
note_on channel=2 note=72 velocity=63 time=1
note_on channel=11 note=72 velocity=63 time=0
note_on channel=14 note=72 velocity=63 time=0
note_on channel=2 note=60 velocity=97 time=1
note_on channel=14 note=60 velocity=97 time=0
note_on channel=4 note=41 velocity=26 time=5
note_on channel=14 note=60 velocity=0 time=13
note_on channel=2 note=60 velocity=0 time=0
note_on channel=11 note=60 velocity=0 time=5
note_on channel=11 note=72 velocity=0 time=2
note_on channel=14 note=72 velocity=0 time=0
note_on channel=2 note=72 velocity=0 time=0
note_on channel=4 note=41 velocity=0 time=9
note_on channel=2 note=74 velocity=127 time=26
note_on channel=2 note=62 velocity=97 time=0
note_on channel=14 note=74 velocity=127 time=0
note_on channel=14 note=62 velocity=97 time=0
note_on channel=11 note=62 velocity=127 time=4
note_on channel=11 note=74 velocity=127 time=3
note_on channel=4 note=41 velocity=38 time=6
note_on channel=14 note=62 velocity=0 time=5
note_on channel=2 note=62 velocity=0 time=0
note_on channel=14 note=74 velocity=0 time=5
note_on channel=2 note=74 velocity=0 time=0
note_on channel=11 note=74 velocity=0 time=7
note_on channel=11 note=62 velocity=0 time=2
note_on channel=4 note=41 velocity=0 time=7
note_on channel=11 note=62 velocity=119 time=25
note_on channel=2 note=74 velocity=119 time=4
note_on channel=11 note=74 velocity=119 time=0
note_on channel=14 note=74 velocity=119 time=0
note_on channel=4 note=41 velocity=43 time=6
note_on channel=2 note=62 velocity=97 time=1
note_on channel=14 note=62 velocity=97 time=0
note_on channel=11 note=62 velocity=0 time=56
note_on channel=14 note=74 velocity=0 time=6
note_on channel=11 note=74 velocity=0 time=0
note_on channel=2 note=74 velocity=0 time=0
note_on channel=2 note=62 velocity=0 time=7
note_on channel=14 note=62 velocity=0 time=0
note_on channel=11 note=64 velocity=127 time=15
note_on channel=2 note=76 velocity=127 time=3
note_on channel=11 note=76 velocity=127 time=0
note_on channel=14 note=76 velocity=127 time=0
note_on channel=2 note=64 velocity=97 time=3
note_on channel=14 note=64 velocity=97 time=0
note_on channel=4 note=48 velocity=38 time=6
note_on channel=9 note=36 velocity=0 time=2
note_on channel=4 note=41 velocity=0 time=5
note_on channel=2 note=64 velocity=0 time=5
note_on channel=14 note=64 velocity=0 time=0
note_on channel=9 note=49 velocity=0 time=3
note_on channel=4 note=48 velocity=0 time=3
note_on channel=2 note=76 velocity=0 time=18
note_on channel=11 note=76 velocity=0 time=0
note_on channel=14 note=76 velocity=0 time=0
note_on channel=11 note=64 velocity=0 time=2
note_on channel=2 note=72 velocity=99 time=60
note_on channel=11 note=72 velocity=99 time=0
note_on channel=14 note=72 velocity=99 time=0
note_on channel=2 note=60 velocity=97 time=1
note_on channel=14 note=60 velocity=97 time=0
note_on channel=11 note=60 velocity=127 time=1
note_on channel=14 note=72 velocity=0 time=13
note_on channel=2 note=72 velocity=0 time=0
note_on channel=11 note=72 velocity=0 time=0
note_on channel=11 note=60 velocity=0 time=3
note_on channel=14 note=60 velocity=0 time=1
note_on channel=2 note=60 velocity=0 time=0
note_on channel=2 note=72 velocity=97 time=11
note_on channel=11 note=60 velocity=115 time=0
note_on channel=11 note=72 velocity=97 time=0
note_on channel=14 note=72 velocity=97 time=0
note_on channel=2 note=60 velocity=97 time=1
note_on channel=14 note=60 velocity=97 time=0
note_on channel=5 note=79 velocity=0 time=15
note_on channel=4 note=41 velocity=34 time=1
note_on channel=14 note=60 velocity=0 time=2
note_on channel=2 note=60 velocity=0 time=0
note_on channel=10 note=67 velocity=0 time=4
note_on channel=11 note=60 velocity=0 time=3
note_on channel=11 note=72 velocity=0 time=3
note_on channel=2 note=72 velocity=0 time=0
note_on channel=14 note=72 velocity=0 time=0
note_on channel=4 note=41 velocity=0 time=15
note_on channel=4 note=41 velocity=0 time=15
note_on channel=2 note=62 velocity=97 time=2
note_on channel=14 note=62 velocity=97 time=0
note_on channel=11 note=62 velocity=127 time=1
note_on channel=2 note=74 velocity=127 time=4
note_on channel=11 note=74 velocity=127 time=0
note_on channel=14 note=74 velocity=127 time=0
note_on channel=4 note=41 velocity=44 time=10
note_on channel=14 note=62 velocity=0 time=3
note_on channel=2 note=62 velocity=0 time=0
note_on channel=11 note=62 velocity=0 time=9
note_on channel=11 note=74 velocity=0 time=3
note_on channel=2 note=74 velocity=0 time=0
note_on channel=14 note=74 velocity=0 time=0
note_on channel=4 note=41 velocity=0 time=9
note_on channel=11 note=64 velocity=127 time=23
note_on channel=2 note=76 velocity=127 time=7
note_on channel=11 note=76 velocity=127 time=0
note_on channel=14 note=76 velocity=127 time=0
note_on channel=2 note=64 velocity=97 time=6
note_on channel=14 note=64 velocity=97 time=0
note_on channel=4 note=41 velocity=39 time=6
note_on channel=14 note=64 velocity=0 time=12
note_on channel=2 note=64 velocity=0 time=0
note_on channel=11 note=64 velocity=0 time=6
note_on channel=14 note=76 velocity=0 time=27
note_on channel=2 note=76 velocity=0 time=0
note_on channel=11 note=76 velocity=0 time=0
note_on channel=4 note=41 velocity=0 time=19
note_on channel=11 note=67 velocity=127 time=14
note_on channel=2 note=79 velocity=115 time=3
note_on channel=11 note=79 velocity=115 time=0
note_on channel=14 note=79 velocity=115 time=0
note_on channel=2 note=67 velocity=97 time=3
note_on channel=14 note=67 velocity=97 time=0
note_on channel=4 note=41 velocity=42 time=5
note_on channel=14 note=67 velocity=0 time=13
note_on channel=2 note=67 velocity=0 time=0
note_on channel=11 note=67 velocity=0 time=21
note_on channel=4 note=41 velocity=0 time=3
note_on channel=2 note=79 velocity=0 time=5
note_on channel=14 note=79 velocity=0 time=0
note_on channel=11 note=79 velocity=0 time=0
pitchwheel channel=7 pitch=-358 time=26
pitchwheel channel=7 pitch=-358 time=0
pitchwheel channel=7 pitch=-358 time=0
pitchwheel channel=7 pitch=-597 time=11
pitchwheel channel=7 pitch=-597 time=0
pitchwheel channel=7 pitch=-597 time=0
note_on channel=11 note=72 velocity=88 time=6
pitchwheel channel=7 pitch=-955 time=1
pitchwheel channel=7 pitch=-955 time=1
pitchwheel channel=7 pitch=-955 time=0
note_on channel=11 note=60 velocity=127 time=2
pitchwheel channel=7 pitch=-1364 time=5
note_on channel=2 note=72 velocity=88 time=1
pitchwheel channel=7 pitch=-1364 time=0
pitchwheel channel=7 pitch=-1364 time=0
note_on channel=14 note=72 velocity=88 time=0
note_on channel=2 note=60 velocity=97 time=5
note_on channel=14 note=60 velocity=97 time=0
pitchwheel channel=7 pitch=-1706 time=5
pitchwheel channel=7 pitch=-1706 time=0
pitchwheel channel=7 pitch=-1706 time=1
note_on channel=2 note=62 velocity=97 time=9
note_on channel=14 note=62 velocity=97 time=0
note_on channel=14 note=60 velocity=0 time=3
note_on channel=11 note=72 velocity=0 time=0
note_on channel=2 note=60 velocity=0 time=0
note_on channel=2 note=74 velocity=102 time=0
note_on channel=11 note=74 velocity=102 time=0
note_on channel=14 note=74 velocity=102 time=0
note_on channel=11 note=62 velocity=127 time=1
note_on channel=11 note=60 velocity=0 time=5
note_on channel=14 note=72 velocity=0 time=4
note_on channel=2 note=72 velocity=0 time=0
note_on channel=2 note=62 velocity=0 time=5
note_on channel=14 note=62 velocity=0 time=0
pitchwheel channel=7 pitch=-2048 time=7
pitchwheel channel=7 pitch=-2048 time=0
pitchwheel channel=7 pitch=-2048 time=0
note_on channel=2 note=64 velocity=97 time=5
note_on channel=14 note=64 velocity=97 time=0
note_on channel=2 note=76 velocity=127 time=1
note_on channel=11 note=76 velocity=127 time=0
note_on channel=14 note=76 velocity=127 time=0
note_on channel=11 note=64 velocity=127 time=6
note_on channel=11 note=74 velocity=0 time=2
note_on channel=14 note=74 velocity=0 time=0
note_on channel=2 note=74 velocity=0 time=0
note_on channel=2 note=64 velocity=0 time=9
note_on channel=14 note=64 velocity=0 time=0
note_on channel=11 note=62 velocity=0 time=4
note_on channel=14 note=76 velocity=0 time=11
note_on channel=11 note=76 velocity=0 time=0
note_on channel=2 note=76 velocity=0 time=0
note_on channel=11 note=64 velocity=0 time=1
note_on channel=9 note=40 velocity=127 time=20
note_on channel=2 note=67 velocity=97 time=6
note_on channel=5 note=78 velocity=56 time=0
note_on channel=9 note=47 velocity=100 time=0
note_on channel=14 note=67 velocity=97 time=0
note_on channel=4 note=41 velocity=37 time=2
note_on channel=2 note=79 velocity=127 time=4
note_on channel=11 note=79 velocity=127 time=0
note_on channel=14 note=79 velocity=127 time=0
note_on channel=10 note=78 velocity=80 time=3
note_on channel=11 note=67 velocity=127 time=3
note_on channel=9 note=47 velocity=127 time=1
note_on channel=14 note=67 velocity=0 time=5
note_on channel=2 note=67 velocity=0 time=0
note_on channel=5 note=79 velocity=85 time=6
note_on channel=4 note=41 velocity=0 time=2
note_on channel=10 note=79 velocity=80 time=5
note_on channel=14 note=79 velocity=0 time=3
note_on channel=11 note=79 velocity=0 time=0
note_on channel=5 note=78 velocity=0 time=0
note_on channel=2 note=79 velocity=0 time=0
note_on channel=11 note=67 velocity=0 time=1
note_on channel=10 note=78 velocity=0 time=7
note_on channel=9 note=40 velocity=0 time=7
note_on channel=5 note=81 velocity=62 time=2
note_on channel=10 note=81 velocity=75 time=5
note_on channel=9 note=47 velocity=0 time=4
note_on channel=9 note=47 velocity=0 time=0
note_on channel=2 note=69 velocity=97 time=0
note_on channel=2 note=81 velocity=127 time=0
note_on channel=4 note=38 velocity=88 time=0
note_on channel=9 note=49 velocity=100 time=0
note_on channel=9 note=36 velocity=108 time=0
note_on channel=9 note=44 velocity=100 time=0
note_on channel=14 note=69 velocity=97 time=0
note_on channel=14 note=81 velocity=127 time=0
note_on channel=5 note=79 velocity=0 time=1
control_change channel=13 control=93 value=121 time=1
note_on channel=10 note=79 velocity=0 time=4
note_on channel=11 note=81 velocity=127 time=4
note_on channel=11 note=69 velocity=127 time=0
note_on channel=13 note=62 velocity=88 time=0
pitchwheel channel=7 pitch=-1535 time=5
pitchwheel channel=7 pitch=-1535 time=0
pitchwheel channel=7 pitch=-1535 time=0
note_on channel=7 note=81 velocity=94 time=1
note_on channel=7 note=93 velocity=99 time=0
note_on channel=14 note=69 velocity=0 time=2
note_on channel=2 note=69 velocity=0 time=0
pitchwheel channel=7 pitch=-1074 time=1
pitchwheel channel=7 pitch=-1074 time=0
pitchwheel channel=7 pitch=-1074 time=0
pitchwheel channel=7 pitch=0 time=2
pitchwheel channel=7 pitch=0 time=1
pitchwheel channel=7 pitch=0 time=0
note_on channel=9 note=36 velocity=0 time=23
note_on channel=13 note=62 velocity=0 time=1
note_on channel=9 note=49 velocity=0 time=14
note_on channel=9 note=44 velocity=0 time=0
note_on channel=4 note=38 velocity=0 time=0
note_on channel=9 note=44 velocity=100 time=0
note_on channel=14 note=81 velocity=0 time=14
note_on channel=2 note=81 velocity=0 time=0
pitchwheel channel=11 pitch=-358 time=11
pitchwheel channel=11 pitch=-358 time=0
note_on channel=7 note=81 velocity=0 time=1
pitchwheel channel=11 pitch=-358 time=0
note_on channel=7 note=93 velocity=0 time=1
pitchwheel channel=11 pitch=-597 time=2
pitchwheel channel=11 pitch=-597 time=0
note_on channel=9 note=40 velocity=108 time=1
pitchwheel channel=11 pitch=-597 time=0
note_on channel=12 note=62 velocity=127 time=0
pitchwheel channel=11 pitch=-955 time=3
pitchwheel channel=11 pitch=-955 time=0
pitchwheel channel=11 pitch=-955 time=0
note_on channel=13 note=62 velocity=84 time=1
pitchwheel channel=11 pitch=-1364 time=1
pitchwheel channel=11 pitch=-1364 time=0
pitchwheel channel=11 pitch=-1364 time=1
pitchwheel channel=11 pitch=-1706 time=4
pitchwheel channel=11 pitch=-1706 time=0
pitchwheel channel=11 pitch=-1706 time=0
pitchwheel channel=11 pitch=-2147 time=4
pitchwheel channel=11 pitch=-2147 time=0
pitchwheel channel=11 pitch=-2147 time=0
note_on channel=11 note=81 velocity=0 time=3
note_on channel=12 note=62 velocity=0 time=1
pitchwheel channel=11 pitch=-2446 time=0
pitchwheel channel=11 pitch=-2446 time=0
pitchwheel channel=11 pitch=-2446 time=0
note_on channel=11 note=69 velocity=0 time=1
pitchwheel channel=11 pitch=-2645 time=3
pitchwheel channel=11 pitch=-2645 time=0
pitchwheel channel=11 pitch=-2645 time=0
pitchwheel channel=11 pitch=-3003 time=2
pitchwheel channel=11 pitch=-3003 time=0
pitchwheel channel=11 pitch=-3003 time=0
control_change channel=13 control=93 value=122 time=0
note_on channel=12 note=62 velocity=67 time=3
note_on channel=13 note=62 velocity=0 time=1
note_on channel=4 note=38 velocity=73 time=1
pitchwheel channel=11 pitch=-3412 time=0
pitchwheel channel=11 pitch=-3412 time=0
note_on channel=9 note=44 velocity=0 time=1
note_on channel=9 note=44 velocity=100 time=0
pitchwheel channel=11 pitch=-3412 time=0
pitchwheel channel=11 pitch=-3754 time=8
pitchwheel channel=11 pitch=-3754 time=0
pitchwheel channel=11 pitch=-3754 time=0
note_on channel=9 note=40 velocity=0 time=7
note_on channel=12 note=62 velocity=0 time=10
pitchwheel channel=11 pitch=-3412 time=0
pitchwheel channel=11 pitch=-3412 time=0
pitchwheel channel=11 pitch=-3412 time=1
pitchwheel channel=11 pitch=-3003 time=0
pitchwheel channel=11 pitch=-3003 time=1
pitchwheel channel=11 pitch=-3003 time=0
pitchwheel channel=11 pitch=-2645 time=1
pitchwheel channel=11 pitch=-2645 time=0
pitchwheel channel=11 pitch=-2645 time=0
pitchwheel channel=11 pitch=-2346 time=1
pitchwheel channel=11 pitch=-2346 time=0
pitchwheel channel=11 pitch=-2346 time=1
pitchwheel channel=11 pitch=-1535 time=1
pitchwheel channel=11 pitch=-1535 time=0
pitchwheel channel=11 pitch=-1535 time=0
pitchwheel channel=11 pitch=-238 time=1
pitchwheel channel=11 pitch=-238 time=0
pitchwheel channel=11 pitch=-238 time=0
pitchwheel channel=11 pitch=0 time=1
pitchwheel channel=11 pitch=0 time=0
pitchwheel channel=11 pitch=0 time=1
note_on channel=12 note=64 velocity=127 time=24
note_on channel=9 note=44 velocity=0 time=2
note_on channel=9 note=35 velocity=108 time=0
note_on channel=9 note=44 velocity=100 time=0
note_on channel=4 note=38 velocity=0 time=5
control_change channel=13 control=93 value=121 time=21
note_on channel=12 note=64 velocity=0 time=3
note_on channel=9 note=35 velocity=0 time=16
note_on channel=12 note=66 velocity=127 time=8
note_on channel=4 note=38 velocity=86 time=4
note_on channel=13 note=62 velocity=84 time=0
note_on channel=9 note=44 velocity=0 time=3
note_on channel=9 note=35 velocity=108 time=0
note_on channel=9 note=44 velocity=100 time=0
note_on channel=9 note=35 velocity=0 time=45
note_on channel=12 note=66 velocity=0 time=5
note_on channel=13 note=62 velocity=0 time=10
note_on channel=9 note=44 velocity=0 time=0
note_on channel=9 note=46 velocity=100 time=0
note_on channel=4 note=38 velocity=0 time=10
control_change channel=13 control=93 value=120 time=8
note_on channel=12 note=69 velocity=127 time=3
note_on channel=13 note=62 velocity=94 time=14
note_on channel=13 note=62 velocity=0 time=17
note_on channel=9 note=46 velocity=0 time=8
note_on channel=4 note=38 velocity=94 time=0
note_on channel=9 note=40 velocity=108 time=0
note_on channel=9 note=44 velocity=100 time=0
note_on channel=12 note=69 velocity=0 time=20
control_change channel=13 control=93 value=121 time=18
note_on channel=9 note=40 velocity=0 time=7
control_change channel=13 control=93 value=122 time=9
note_on channel=4 note=38 velocity=0 time=2
note_on channel=9 note=44 velocity=0 time=4
note_on channel=9 note=44 velocity=100 time=0
note_on channel=12 note=72 velocity=127 time=9
control_change channel=13 control=93 value=124 time=5
note_on channel=9 note=44 velocity=0 time=46
note_on channel=4 note=38 velocity=88 time=0
note_on channel=9 note=35 velocity=108 time=0
note_on channel=9 note=44 velocity=100 time=0
note_on channel=13 note=62 velocity=63 time=7
note_on channel=9 note=35 velocity=0 time=38
note_on channel=2 note=74 velocity=97 time=11
note_on channel=11 note=74 velocity=97 time=0
note_on channel=9 note=44 velocity=0 time=4
note_on channel=9 note=44 velocity=100 time=0
note_on channel=11 note=62 velocity=97 time=0
note_on channel=14 note=74 velocity=97 time=0
note_on channel=13 note=62 velocity=0 time=2
note_on channel=4 note=38 velocity=0 time=6
control_change channel=13 control=93 value=125 time=0
note_on channel=2 note=76 velocity=112 time=7
note_on channel=11 note=64 velocity=97 time=0
note_on channel=11 note=76 velocity=112 time=0
note_on channel=14 note=76 velocity=112 time=4
note_on channel=11 note=74 velocity=0 time=1
note_on channel=2 note=74 velocity=0 time=0
note_on channel=11 note=62 velocity=0 time=4
note_on channel=14 note=74 velocity=0 time=0
note_on channel=9 note=40 velocity=108 time=6
control_change channel=13 control=93 value=126 time=0
note_on channel=11 note=64 velocity=0 time=9
note_on channel=2 note=76 velocity=0 time=0
note_on channel=11 note=76 velocity=0 time=0
note_on channel=13 note=62 velocity=99 time=3
note_on channel=14 note=76 velocity=0 time=1
control_change channel=13 control=93 value=127 time=7
note_on channel=9 note=44 velocity=0 time=10
note_on channel=4 note=38 velocity=94 time=0
note_on channel=9 note=44 velocity=100 time=0
control_change channel=13 control=93 value=125 time=0
control_change channel=13 control=93 value=126 time=4
note_on channel=2 note=78 velocity=124 time=5
note_on channel=11 note=78 velocity=124 time=0
note_on channel=13 note=62 velocity=0 time=1
note_on channel=14 note=78 velocity=124 time=3
note_on channel=9 note=40 velocity=0 time=2
note_on channel=11 note=66 velocity=124 time=0
note_on channel=2 note=78 velocity=0 time=13
note_on channel=11 note=78 velocity=0 time=0
note_on channel=14 note=78 velocity=0 time=4
note_on channel=11 note=66 velocity=0 time=2
note_on channel=9 note=44 velocity=0 time=26
note_on channel=9 note=35 velocity=108 time=0
note_on channel=9 note=44 velocity=100 time=0
note_on channel=11 note=69 velocity=108 time=0
note_on channel=2 note=81 velocity=108 time=4
note_on channel=11 note=81 velocity=108 time=0
note_on channel=14 note=81 velocity=108 time=4
note_on channel=4 note=38 velocity=0 time=6
note_on channel=11 note=69 velocity=0 time=7
note_on channel=11 note=81 velocity=0 time=4
note_on channel=2 note=81 velocity=0 time=0
note_on channel=14 note=81 velocity=0 time=4
note_on channel=9 note=35 velocity=0 time=16
note_on channel=9 note=44 velocity=0 time=15
note_on channel=2 note=81 velocity=115 time=0
note_on channel=2 note=84 velocity=115 time=0
note_on channel=2 note=72 velocity=100 time=0
note_on channel=2 note=72 velocity=127 time=0
note_on channel=2 note=74 velocity=127 time=0
note_on channel=9 note=33 velocity=108 time=0
note_on channel=9 note=44 velocity=100 time=0
note_on channel=11 note=74 velocity=100 time=0
note_on channel=11 note=81 velocity=115 time=0
note_on channel=11 note=84 velocity=115 time=0
note_on channel=11 note=72 velocity=100 time=0
note_on channel=14 note=81 velocity=115 time=4
note_on channel=14 note=72 velocity=100 time=0
note_on channel=14 note=72 velocity=127 time=0
note_on channel=14 note=74 velocity=127 time=0
note_on channel=4 note=38 velocity=94 time=3
note_on channel=11 note=81 velocity=0 time=7
note_on channel=2 note=81 velocity=0 time=0
note_on channel=2 note=84 velocity=0 time=3
note_on channel=11 note=84 velocity=0 time=0
note_on channel=2 note=72 velocity=0 time=1
note_on channel=14 note=81 velocity=0 time=0
note_on channel=2 note=74 velocity=0 time=1
note_on channel=13 note=62 velocity=105 time=1
note_on channel=14 note=72 velocity=0 time=2
note_on channel=14 note=74 velocity=0 time=1
note_on channel=11 note=74 velocity=0 time=7
note_on channel=11 note=72 velocity=0 time=0
note_on channel=2 note=72 velocity=0 time=0
note_on channel=2 note=72 velocity=124 time=0
note_on channel=2 note=84 velocity=127 time=0
note_on channel=2 note=81 velocity=124 time=0
note_on channel=11 note=74 velocity=124 time=0
note_on channel=11 note=72 velocity=124 time=0
note_on channel=11 note=84 velocity=127 time=0
note_on channel=11 note=81 velocity=124 time=0
note_on channel=14 note=72 velocity=0 time=4
note_on channel=14 note=72 velocity=124 time=0
note_on channel=14 note=81 velocity=124 time=0
note_on channel=2 note=74 velocity=127 time=4
note_on channel=2 note=72 velocity=127 time=0
note_on channel=14 note=74 velocity=127 time=4
note_on channel=14 note=72 velocity=127 time=0
note_on channel=9 note=33 velocity=0 time=3
note_on channel=2 note=81 velocity=0 time=9
note_on channel=2 note=72 velocity=0 time=0
note_on channel=11 note=72 velocity=0 time=0
note_on channel=11 note=74 velocity=0 time=0
note_on channel=11 note=81 velocity=0 time=0
note_on channel=14 note=81 velocity=0 time=4
note_on channel=14 note=72 velocity=0 time=0
note_on channel=2 note=84 velocity=0 time=1
note_on channel=11 note=84 velocity=0 time=0
note_on channel=9 note=44 velocity=0 time=1
note_on channel=9 note=44 velocity=100 time=0
note_on channel=2 note=74 velocity=0 time=2
note_on channel=2 note=72 velocity=0 time=0
pitchwheel channel=12 pitch=-119 time=0
pitchwheel channel=12 pitch=-119 time=0
pitchwheel channel=12 pitch=-119 time=1
note_on channel=14 note=72 velocity=0 time=3
note_on channel=14 note=74 velocity=0 time=0
note_on channel=4 note=38 velocity=0 time=4
note_on channel=13 note=62 velocity=0 time=2
pitchwheel channel=12 pitch=-477 time=0
pitchwheel channel=12 pitch=-477 time=0
pitchwheel channel=12 pitch=-477 time=0
note_on channel=2 note=71 velocity=127 time=18
note_on channel=11 note=74 velocity=127 time=0
note_on channel=11 note=71 velocity=127 time=0
note_on channel=2 note=79 velocity=127 time=1
note_on channel=2 note=83 velocity=127 time=0
note_on channel=11 note=79 velocity=127 time=0
note_on channel=11 note=83 velocity=127 time=0
note_on channel=14 note=71 velocity=127 time=3
note_on channel=14 note=79 velocity=127 time=1
note_on channel=2 note=72 velocity=127 time=6
note_on channel=2 note=74 velocity=127 time=1
pitchwheel channel=12 pitch=-716 time=2
pitchwheel channel=12 pitch=-716 time=0
pitchwheel channel=12 pitch=-716 time=1
note_on channel=13 note=62 velocity=78 time=0
note_on channel=14 note=72 velocity=127 time=0
note_on channel=14 note=74 velocity=127 time=1
note_on channel=4 note=38 velocity=83 time=12
note_on channel=9 note=44 velocity=0 time=2
note_on channel=9 note=46 velocity=108 time=0
note_on channel=9 note=44 velocity=100 time=0
pitchwheel channel=12 pitch=-1074 time=0
pitchwheel channel=12 pitch=-1074 time=0
pitchwheel channel=12 pitch=-1074 time=0
note_on channel=13 note=62 velocity=0 time=10
pitchwheel channel=12 pitch=-1535 time=0
pitchwheel channel=12 pitch=-1535 time=0
pitchwheel channel=12 pitch=-1535 time=1
note_on channel=11 note=83 velocity=0 time=14
note_on channel=2 note=83 velocity=0 time=0
note_on channel=2 note=71 velocity=0 time=2
note_on channel=11 note=71 velocity=0 time=0
note_on channel=11 note=74 velocity=0 time=0
note_on channel=2 note=79 velocity=0 time=1
note_on channel=11 note=79 velocity=0 time=0
note_on channel=14 note=71 velocity=0 time=3
note_on channel=14 note=79 velocity=0 time=1
note_on channel=5 note=81 velocity=0 time=3
note_on channel=2 note=72 velocity=0 time=2
note_on channel=2 note=74 velocity=0 time=1
pitchwheel channel=12 pitch=-2048 time=0
pitchwheel channel=12 pitch=-2048 time=0
pitchwheel channel=12 pitch=-2048 time=0
note_on channel=14 note=72 velocity=0 time=3
note_on channel=14 note=74 velocity=0 time=1
note_on channel=9 note=46 velocity=0 time=3
note_on channel=10 note=81 velocity=0 time=5
note_on channel=2 note=69 velocity=127 time=3
note_on channel=2 note=81 velocity=127 time=0
note_on channel=2 note=78 velocity=127 time=0
note_on channel=11 note=69 velocity=127 time=0
note_on channel=11 note=81 velocity=127 time=0
note_on channel=11 note=78 velocity=127 time=0
note_on channel=14 note=69 velocity=127 time=4
note_on channel=14 note=81 velocity=127 time=0
note_on channel=14 note=78 velocity=127 time=0
note_on channel=9 note=44 velocity=0 time=3
note_on channel=4 note=38 velocity=0 time=0
note_on channel=11 note=74 velocity=127 time=0
note_on channel=2 note=72 velocity=127 time=2
note_on channel=2 note=74 velocity=127 time=0
pitchwheel channel=12 pitch=-2346 time=0
pitchwheel channel=12 pitch=-2346 time=0
pitchwheel channel=12 pitch=-2346 time=1
note_on channel=14 note=72 velocity=127 time=3
note_on channel=14 note=74 velocity=127 time=0
note_on channel=10 note=78 velocity=49 time=2
pitchwheel channel=12 pitch=-2545 time=3
pitchwheel channel=12 pitch=-2545 time=0
pitchwheel channel=12 pitch=-2545 time=0
note_on channel=5 note=78 velocity=75 time=1
note_on channel=11 note=78 velocity=0 time=12
note_on channel=2 note=69 velocity=0 time=0
note_on channel=2 note=78 velocity=0 time=0
note_on channel=11 note=69 velocity=0 time=0
note_on channel=11 note=81 velocity=0 time=3
note_on channel=2 note=81 velocity=0 time=0
note_on channel=14 note=69 velocity=0 time=1
note_on channel=14 note=78 velocity=0 time=0
note_on channel=14 note=81 velocity=0 time=3
note_on channel=11 note=74 velocity=0 time=0
note_on channel=10 note=79 velocity=90 time=3
note_on channel=5 note=79 velocity=62 time=1
note_on channel=2 note=74 velocity=0 time=1
note_on channel=2 note=72 velocity=0 time=2
note_on channel=14 note=74 velocity=0 time=2
pitchwheel channel=12 pitch=-835 time=0
pitchwheel channel=12 pitch=-835 time=0
pitchwheel channel=12 pitch=-835 time=1
note_on channel=12 note=72 velocity=0 time=1
note_on channel=14 note=72 velocity=0 time=0
control_change channel=13 control=93 value=127 time=0
pitchwheel channel=12 pitch=0 time=1
pitchwheel channel=12 pitch=0 time=0
pitchwheel channel=12 pitch=0 time=0
note_on channel=10 note=78 velocity=0 time=1
note_on channel=5 note=78 velocity=0 time=1
note_on channel=5 note=81 velocity=60 time=0
note_on channel=5 note=79 velocity=0 time=5
note_on channel=10 note=81 velocity=75 time=9
note_on channel=5 note=81 velocity=0 time=1
note_on channel=4 note=38 velocity=94 time=0
note_on channel=5 note=81 velocity=65 time=0
note_on channel=9 note=36 velocity=108 time=0
note_on channel=9 note=44 velocity=100 time=0
note_on channel=13 note=62 velocity=66 time=0
note_on channel=10 note=79 velocity=0 time=4
note_on channel=9 note=36 velocity=0 time=41
note_on channel=13 note=62 velocity=0 time=8
note_on channel=9 note=44 velocity=0 time=7
note_on channel=9 note=44 velocity=100 time=0
note_on channel=4 note=38 velocity=0 time=4
note_on channel=12 note=62 velocity=127 time=7
note_on channel=9 note=40 velocity=108 time=19
note_on channel=12 note=62 velocity=0 time=2
note_on channel=12 note=62 velocity=86 time=10
note_on channel=13 note=62 velocity=70 time=1
note_on channel=9 note=44 velocity=0 time=17
note_on channel=4 note=38 velocity=66 time=0
note_on channel=9 note=44 velocity=100 time=0
note_on channel=13 note=62 velocity=0 time=7
note_on channel=12 note=62 velocity=0 time=5
note_on channel=9 note=40 velocity=0 time=3
note_on channel=12 note=64 velocity=127 time=29
note_on channel=4 note=38 velocity=0 time=13
note_on channel=9 note=44 velocity=0 time=3
note_on channel=9 note=35 velocity=108 time=0
note_on channel=9 note=44 velocity=100 time=0
note_on channel=12 note=64 velocity=0 time=16
note_on channel=12 note=66 velocity=127 time=24
note_on channel=9 note=35 velocity=0 time=5
note_on channel=13 note=62 velocity=70 time=14
note_on channel=9 note=44 velocity=0 time=1
note_on channel=4 note=38 velocity=81 time=0
note_on channel=9 note=35 velocity=108 time=0
note_on channel=9 note=44 velocity=100 time=0
note_on channel=9 note=35 velocity=0 time=45
note_on channel=12 note=66 velocity=0 time=5
note_on channel=13 note=62 velocity=0 time=7
note_on channel=9 note=44 velocity=0 time=3
note_on channel=9 note=46 velocity=100 time=0
note_on channel=4 note=38 velocity=0 time=13
note_on channel=12 note=69 velocity=127 time=6
note_on channel=13 note=62 velocity=70 time=7
note_on channel=13 note=62 velocity=0 time=26
note_on channel=9 note=46 velocity=0 time=8
note_on channel=9 note=40 velocity=108 time=0
note_on channel=9 note=44 velocity=100 time=0
note_on channel=4 note=38 velocity=90 time=3
note_on channel=9 note=40 velocity=0 time=42
note_on channel=9 note=44 velocity=0 time=15
note_on channel=9 note=44 velocity=100 time=0
note_on channel=4 note=38 velocity=0 time=7
note_on channel=12 note=69 velocity=0 time=44
control_change channel=13 control=93 value=126 time=1
control_change channel=13 control=93 value=125 time=2
note_on channel=12 note=71 velocity=127 time=2
control_change channel=13 control=93 value=126 time=0
note_on channel=12 note=70 velocity=127 time=2
note_on channel=9 note=44 velocity=0 time=2
note_on channel=4 note=38 velocity=84 time=0
note_on channel=9 note=35 velocity=108 time=0
note_on channel=9 note=44 velocity=100 time=0
note_on channel=13 note=62 velocity=60 time=1
note_on channel=12 note=71 velocity=73 time=2
note_on channel=12 note=70 velocity=0 time=5
note_on channel=9 note=35 velocity=0 time=37
note_on channel=9 note=44 velocity=0 time=15
note_on channel=9 note=44 velocity=100 time=0
note_on channel=4 note=38 velocity=0 time=2
note_on channel=13 note=62 velocity=0 time=4
note_on channel=9 note=40 velocity=108 time=24
note_on channel=12 note=74 velocity=127 time=4
note_on channel=12 note=71 velocity=0 time=1
note_on channel=12 note=71 velocity=0 time=4
note_on channel=13 note=62 velocity=44 time=1
pitchwheel channel=2 pitch=0 time=5
pitchwheel channel=2 pitch=0 time=0
pitchwheel channel=2 pitch=0 time=0
note_on channel=9 note=44 velocity=0 time=15
note_on channel=4 note=38 velocity=92 time=0
note_on channel=9 note=44 velocity=100 time=0
note_on channel=13 note=62 velocity=0 time=8
note_on channel=9 note=40 velocity=0 time=7
note_on channel=4 note=38 velocity=0 time=31
note_on channel=9 note=44 velocity=0 time=14
note_on channel=9 note=35 velocity=108 time=0
note_on channel=9 note=44 velocity=100 time=0
note_on channel=12 note=74 velocity=0 time=7
note_on channel=12 note=67 velocity=127 time=9
control_change channel=13 control=7 value=119 time=25
note_on channel=9 note=35 velocity=0 time=4
note_on channel=9 note=44 velocity=0 time=15
note_on channel=2 note=62 velocity=112 time=0
note_on channel=2 note=74 velocity=112 time=0
note_on channel=9 note=33 velocity=108 time=0
note_on channel=9 note=44 velocity=100 time=0
note_on channel=11 note=62 velocity=112 time=0
note_on channel=11 note=74 velocity=112 time=0
note_on channel=14 note=62 velocity=112 time=0
note_on channel=14 note=74 velocity=112 time=0
note_on channel=4 note=38 velocity=115 time=1
control_change channel=13 control=93 value=125 time=5
control_change channel=13 control=7 value=118 time=2
note_on channel=13 note=62 velocity=48 time=0
note_on channel=14 note=74 velocity=0 time=22
note_on channel=14 note=62 velocity=0 time=0
note_on channel=2 note=74 velocity=0 time=0
note_on channel=2 note=62 velocity=0 time=0
note_on channel=11 note=74 velocity=0 time=1
note_on channel=11 note=62 velocity=0 time=0
control_change channel=13 control=7 value=117 time=0
note_on channel=13 note=62 velocity=0 time=5
note_on channel=9 note=33 velocity=0 time=9
note_on channel=4 note=38 velocity=0 time=1
control_change channel=13 control=7 value=115 time=0
control_change channel=13 control=7 value=114 time=5
control_change channel=13 control=7 value=112 time=5
note_on channel=9 note=44 velocity=0 time=4
note_on channel=2 note=64 velocity=119 time=0
note_on channel=2 note=76 velocity=119 time=0
note_on channel=9 note=44 velocity=100 time=0
note_on channel=11 note=64 velocity=119 time=0
control_change channel=13 control=7 value=111 time=0
note_on channel=14 note=64 velocity=119 time=0
note_on channel=14 note=76 velocity=119 time=0
note_on channel=11 note=76 velocity=119 time=6
control_change channel=13 control=7 value=109 time=0
control_change channel=13 control=7 value=108 time=10
note_on channel=11 note=64 velocity=0 time=6
control_change channel=13 control=7 value=106 time=0
note_on channel=11 note=76 velocity=0 time=6
note_on channel=14 note=64 velocity=0 time=2
note_on channel=2 note=64 velocity=0 time=0
note_on channel=14 note=76 velocity=0 time=0
note_on channel=2 note=76 velocity=0 time=0
control_change channel=13 control=7 value=100 time=0
control_change channel=13 control=7 value=99 time=5
control_change channel=13 control=7 value=97 time=10
control_change channel=13 control=7 value=96 time=5
control_change channel=13 control=7 value=95 time=5
note_on channel=9 note=44 velocity=0 time=5
note_on channel=2 note=67 velocity=124 time=0
note_on channel=2 note=79 velocity=124 time=0
note_on channel=4 note=38 velocity=112 time=0
note_on channel=9 note=45 velocity=108 time=0
note_on channel=9 note=44 velocity=100 time=0
note_on channel=11 note=67 velocity=124 time=0
note_on channel=14 note=67 velocity=124 time=0
note_on channel=14 note=79 velocity=124 time=0
note_on channel=11 note=79 velocity=124 time=5
control_change channel=13 control=7 value=94 time=0
note_on channel=13 note=62 velocity=30 time=10
note_on channel=11 note=67 velocity=0 time=2
control_change channel=13 control=7 value=92 time=0
note_on channel=5 note=81 velocity=0 time=3
note_on channel=11 note=79 velocity=0 time=2
control_change channel=13 control=7 value=91 time=0
note_on channel=13 note=62 velocity=0 time=6
note_on channel=2 note=67 velocity=0 time=2
note_on channel=2 note=79 velocity=0 time=0
note_on channel=14 note=79 velocity=0 time=0
note_on channel=14 note=67 velocity=0 time=0
note_on channel=2 note=67 velocity=124 time=0
note_on channel=2 note=79 velocity=127 time=0
note_on channel=11 note=67 velocity=124 time=0
note_on channel=14 note=67 velocity=124 time=0
note_on channel=14 note=79 velocity=127 time=0
note_on channel=4 note=38 velocity=0 time=1
note_on channel=10 note=81 velocity=0 time=1
note_on channel=11 note=79 velocity=127 time=0
control_change channel=13 control=7 value=89 time=0
control_change channel=13 control=7 value=88 time=10
note_on channel=9 note=45 velocity=0 time=3
note_on channel=11 note=67 velocity=0 time=2
control_change channel=13 control=7 value=86 time=0
note_on channel=4 note=44 velocity=105 time=8
note_on channel=5 note=78 velocity=53 time=2
control_change channel=13 control=7 value=85 time=0
note_on channel=14 note=67 velocity=0 time=3
note_on channel=14 note=79 velocity=0 time=0
note_on channel=9 note=44 velocity=0 time=0
note_on channel=2 note=79 velocity=0 time=0
note_on channel=2 note=67 velocity=0 time=0
note_on channel=9 note=44 velocity=100 time=0
note_on channel=11 note=79 velocity=0 time=4
note_on channel=10 note=78 velocity=79 time=1
control_change channel=13 control=7 value=83 time=0
note_on channel=4 note=45 velocity=97 time=5
note_on channel=5 note=79 velocity=56 time=6
note_on channel=4 note=44 velocity=0 time=8
note_on channel=10 note=79 velocity=102 time=0
control_change channel=13 control=7 value=82 time=0
note_on channel=5 note=78 velocity=0 time=4
note_on channel=10 note=78 velocity=0 time=7
note_on channel=5 note=81 velocity=82 time=5
note_on channel=4 note=50 velocity=79 time=4
note_on channel=4 note=45 velocity=0 time=2
note_on channel=5 note=79 velocity=0 time=3
control_change channel=13 control=7 value=80 time=0
note_on channel=10 note=81 velocity=75 time=2
note_on channel=10 note=79 velocity=0 time=7
note_on channel=12 note=67 velocity=0 time=1
note_on channel=9 note=44 velocity=0 time=1
note_on channel=2 note=81 velocity=127 time=0
note_on channel=2 note=69 velocity=127 time=0
note_on channel=9 note=36 velocity=108 time=0
note_on channel=9 note=44 velocity=100 time=0
note_on channel=11 note=74 velocity=127 time=0
note_on channel=11 note=81 velocity=127 time=0
note_on channel=11 note=69 velocity=127 time=0
note_on channel=14 note=81 velocity=127 time=0
note_on channel=14 note=69 velocity=127 time=0
note_on channel=14 note=74 velocity=127 time=0
note_on channel=4 note=38 velocity=75 time=8
note_on channel=4 note=50 velocity=0 time=4
note_on channel=11 note=69 velocity=0 time=5
pitchwheel channel=2 pitch=-119 time=3
pitchwheel channel=2 pitch=-119 time=0
pitchwheel channel=2 pitch=-119 time=0
pitchwheel channel=2 pitch=-477 time=5
pitchwheel channel=2 pitch=-477 time=0
pitchwheel channel=2 pitch=-477 time=1
control_change channel=13 control=7 value=79 time=0
pitchwheel channel=2 pitch=-835 time=4
pitchwheel channel=2 pitch=-835 time=0
pitchwheel channel=2 pitch=-835 time=0
pitchwheel channel=2 pitch=-1535 time=3
pitchwheel channel=2 pitch=-1535 time=0
pitchwheel channel=2 pitch=-1535 time=0
control_change channel=13 control=7 value=77 time=0
pitchwheel channel=2 pitch=-1877 time=3
pitchwheel channel=2 pitch=-1877 time=0
pitchwheel channel=2 pitch=-1877 time=1
pitchwheel channel=2 pitch=-2346 time=2
pitchwheel channel=2 pitch=-2346 time=0
pitchwheel channel=2 pitch=-2346 time=0
note_on channel=11 note=74 velocity=0 time=2
pitchwheel channel=2 pitch=-2645 time=0
pitchwheel channel=2 pitch=-2645 time=0
pitchwheel channel=2 pitch=-2645 time=0
note_on channel=9 note=36 velocity=0 time=4
note_on channel=11 note=81 velocity=0 time=1
note_on channel=4 note=38 velocity=0 time=1
pitchwheel channel=2 pitch=-3003 time=0
pitchwheel channel=2 pitch=-3003 time=1
pitchwheel channel=2 pitch=-3003 time=0
pitchwheel channel=2 pitch=-2645 time=6
pitchwheel channel=2 pitch=-2645 time=0
pitchwheel channel=2 pitch=-2645 time=0
pitchwheel channel=2 pitch=-2346 time=3
pitchwheel channel=2 pitch=-2346 time=0
pitchwheel channel=2 pitch=-2346 time=0
pitchwheel channel=2 pitch=-2048 time=1
pitchwheel channel=2 pitch=-2048 time=0
pitchwheel channel=2 pitch=-2048 time=0
note_on channel=2 note=69 velocity=0 time=2
note_on channel=14 note=81 velocity=0 time=0
note_on channel=14 note=69 velocity=0 time=0
note_on channel=14 note=74 velocity=0 time=0
note_on channel=9 note=44 velocity=0 time=0
note_on channel=2 note=81 velocity=0 time=0
pitchwheel channel=2 pitch=-1074 time=0
pitchwheel channel=2 pitch=-1074 time=0
note_on channel=9 note=44 velocity=100 time=0
pitchwheel channel=2 pitch=-1074 time=1
pitchwheel channel=2 pitch=-597 time=1
pitchwheel channel=2 pitch=-597 time=0
pitchwheel channel=2 pitch=-597 time=1
pitchwheel channel=2 pitch=-238 time=0
pitchwheel channel=2 pitch=-238 time=1
pitchwheel channel=2 pitch=-238 time=0
note_on channel=13 note=62 velocity=124 time=13
note_on channel=9 note=40 velocity=108 time=13
note_on channel=12 note=66 velocity=127 time=3
note_on channel=13 note=62 velocity=0 time=5
note_on channel=13 note=62 velocity=79 time=8
note_on channel=12 note=66 velocity=0 time=3
note_on channel=12 note=66 velocity=77 time=10
note_on channel=9 note=44 velocity=0 time=1
note_on channel=9 note=44 velocity=100 time=0
note_on channel=4 note=38 velocity=102 time=3
note_on channel=9 note=40 velocity=0 time=12
note_on channel=13 note=62 velocity=0 time=2
control_change channel=13 control=93 value=126 time=1
note_on channel=12 note=66 velocity=0 time=11
note_on channel=4 note=38 velocity=0 time=16
note_on channel=13 note=64 velocity=127 time=4
note_on channel=9 note=44 velocity=0 time=11
note_on channel=9 note=35 velocity=108 time=0
note_on channel=9 note=44 velocity=100 time=0
note_on channel=12 note=67 velocity=108 time=1
note_on channel=13 note=64 velocity=0 time=24
control_change channel=13 control=7 value=76 time=11
note_on channel=12 note=67 velocity=0 time=2
note_on channel=9 note=35 velocity=0 time=7
note_on channel=12 note=69 velocity=127 time=12
note_on channel=13 note=66 velocity=127 time=1
note_on channel=9 note=44 velocity=0 time=2
note_on channel=4 note=38 velocity=86 time=0
note_on channel=9 note=35 velocity=108 time=0
note_on channel=9 note=44 velocity=100 time=0
control_change channel=13 control=7 value=74 time=0
control_change channel=13 control=7 value=73 time=10
note_on channel=9 note=35 velocity=0 time=35
control_change channel=13 control=93 value=125 time=1
note_on channel=9 note=44 velocity=0 time=14
note_on channel=9 note=44 velocity=100 time=0
note_on channel=13 note=66 velocity=0 time=6
note_on channel=4 note=38 velocity=0 time=5
note_on channel=12 note=69 velocity=0 time=3
note_on channel=12 note=74 velocity=127 time=12
note_on channel=13 note=66 velocity=127 time=5
control_change channel=13 control=7 value=71 time=7
note_on channel=9 note=44 velocity=0 time=22
note_on channel=9 note=40 velocity=108 time=0
note_on channel=9 note=44 velocity=100 time=0
control_change channel=13 control=93 value=124 time=0
note_on channel=4 note=38 velocity=88 time=2
note_on channel=13 note=66 velocity=0 time=36
note_on channel=9 note=40 velocity=0 time=7
note_on channel=12 note=74 velocity=0 time=8
note_on channel=4 note=38 velocity=0 time=0
note_on channel=9 note=44 velocity=0 time=7
note_on channel=9 note=44 velocity=100 time=0
note_on channel=12 note=76 velocity=127 time=4
note_on channel=13 note=67 velocity=127 time=4
note_on channel=9 note=44 velocity=0 time=52
note_on channel=9 note=35 velocity=108 time=0
note_on channel=9 note=44 velocity=100 time=0
note_on channel=4 note=38 velocity=88 time=6
note_on channel=9 note=35 velocity=0 time=39
note_on channel=2 note=67 velocity=97 time=10
note_on channel=2 note=79 velocity=115 time=0
note_on channel=9 note=44 velocity=0 time=5
note_on channel=9 note=44 velocity=100 time=0
note_on channel=11 note=79 velocity=115 time=0
note_on channel=14 note=67 velocity=127 time=0
note_on channel=4 note=38 velocity=0 time=6
note_on channel=9 note=40 velocity=108 time=24
note_on channel=14 note=67 velocity=0 time=13
note_on channel=2 note=67 velocity=0 time=9
note_on channel=2 note=79 velocity=0 time=1
note_on channel=2 note=69 velocity=61 time=3
note_on channel=2 note=81 velocity=124 time=1
note_on channel=11 note=79 velocity=0 time=1
note_on channel=9 note=44 velocity=0 time=2
note_on channel=9 note=44 velocity=100 time=0
note_on channel=11 note=81 velocity=124 time=0
note_on channel=14 note=69 velocity=124 time=0
note_on channel=4 note=38 velocity=70 time=1
note_on channel=9 note=40 velocity=0 time=14
note_on channel=2 note=81 velocity=0 time=8
note_on channel=11 note=81 velocity=0 time=3
note_on channel=14 note=69 velocity=0 time=0
control_change channel=13 control=93 value=125 time=0
note_on channel=2 note=69 velocity=0 time=1
note_on channel=2 note=74 velocity=127 time=26
note_on channel=2 note=86 velocity=127 time=0
note_on channel=4 note=38 velocity=0 time=7
note_on channel=9 note=44 velocity=0 time=0
note_on channel=9 note=35 velocity=108 time=0
note_on channel=9 note=44 velocity=100 time=0
note_on channel=11 note=86 velocity=127 time=0
note_on channel=14 note=74 velocity=127 time=0
control_change channel=13 control=7 value=72 time=10
note_on channel=2 note=86 velocity=0 time=12
note_on channel=2 note=74 velocity=0 time=1
note_on channel=14 note=74 velocity=0 time=6
note_on channel=11 note=86 velocity=0 time=0
note_on channel=9 note=35 velocity=0 time=16
note_on channel=2 note=81 velocity=127 time=0
note_on channel=11 note=84 velocity=127 time=0
note_on channel=14 note=72 velocity=127 time=0
note_on channel=2 note=84 velocity=127 time=5
note_on channel=2 note=72 velocity=127 time=1
note_on channel=9 note=44 velocity=0 time=9
note_on channel=9 note=33 velocity=108 time=0
note_on channel=9 note=44 velocity=100 time=0
note_on channel=4 note=38 velocity=88 time=1
note_on channel=14 note=72 velocity=0 time=15
note_on channel=11 note=84 velocity=0 time=0
note_on channel=2 note=81 velocity=0 time=0
note_on channel=2 note=84 velocity=0 time=5
note_on channel=2 note=86 velocity=115 time=3
note_on channel=2 note=72 velocity=0 time=2
note_on channel=2 note=74 velocity=127 time=1
note_on channel=2 note=81 velocity=115 time=3
note_on channel=11 note=86 velocity=115 time=0
note_on channel=14 note=74 velocity=115 time=0
note_on channel=9 note=33 velocity=0 time=15
note_on channel=2 note=86 velocity=0 time=15
note_on channel=9 note=44 velocity=0 time=0
note_on channel=9 note=46 velocity=100 time=0
note_on channel=2 note=74 velocity=0 time=1
note_on channel=11 note=86 velocity=0 time=5
note_on channel=2 note=81 velocity=0 time=0
note_on channel=14 note=74 velocity=0 time=0
note_on channel=4 note=38 velocity=0 time=3
note_on channel=2 note=76 velocity=127 time=17
note_on channel=2 note=88 velocity=127 time=2
note_on channel=2 note=79 velocity=127 time=2
note_on channel=11 note=88 velocity=127 time=0
note_on channel=14 note=76 velocity=127 time=0
pitchwheel channel=13 pitch=-358 time=25
pitchwheel channel=13 pitch=-358 time=0
pitchwheel channel=13 pitch=-358 time=1
note_on channel=9 note=46 velocity=0 time=4
note_on channel=4 note=38 velocity=69 time=0
note_on channel=9 note=45 velocity=108 time=0
note_on channel=9 note=44 velocity=100 time=0
pitchwheel channel=13 pitch=-597 time=9
pitchwheel channel=13 pitch=-597 time=0
pitchwheel channel=13 pitch=-597 time=0
pitchwheel channel=13 pitch=-955 time=13
pitchwheel channel=13 pitch=-955 time=0
pitchwheel channel=13 pitch=-955 time=0
note_on channel=10 note=81 velocity=0 time=5
pitchwheel channel=13 pitch=-1364 time=10
pitchwheel channel=13 pitch=-1364 time=1
pitchwheel channel=13 pitch=-1364 time=0
note_on channel=5 note=81 velocity=0 time=1
pitchwheel channel=12 pitch=-119 time=5
pitchwheel channel=12 pitch=-119 time=0
pitchwheel channel=12 pitch=-119 time=0
note_on channel=9 note=45 velocity=0 time=1
pitchwheel channel=13 pitch=-1706 time=3
pitchwheel channel=13 pitch=-1706 time=0
pitchwheel channel=13 pitch=-1706 time=0
pitchwheel channel=12 pitch=-477 time=1
pitchwheel channel=12 pitch=-477 time=0
pitchwheel channel=12 pitch=-477 time=0
note_on channel=2 note=88 velocity=0 time=2
note_on channel=2 note=76 velocity=0 time=1
control_change channel=13 control=93 value=126 time=0
note_on channel=14 note=76 velocity=0 time=1
note_on channel=2 note=79 velocity=0 time=0
note_on channel=11 note=88 velocity=0 time=0
note_on channel=2 note=74 velocity=127 time=0
note_on channel=2 note=86 velocity=127 time=1
pitchwheel channel=12 pitch=-716 time=4
pitchwheel channel=12 pitch=-716 time=0
pitchwheel channel=12 pitch=-716 time=1
note_on channel=9 note=44 velocity=0 time=1
note_on channel=2 note=81 velocity=127 time=0
note_on channel=9 note=44 velocity=100 time=0
note_on channel=11 note=86 velocity=127 time=0
note_on channel=14 note=74 velocity=127 time=0
note_on channel=4 note=38 velocity=0 time=1
pitchwheel channel=13 pitch=-2048 time=1
pitchwheel channel=12 pitch=-1194 time=1
pitchwheel channel=13 pitch=-2048 time=0
note_on channel=5 note=78 velocity=69 time=1
note_on channel=10 note=78 velocity=83 time=0
pitchwheel channel=12 pitch=-1194 time=0
pitchwheel channel=12 pitch=-1194 time=0
pitchwheel channel=13 pitch=-2048 time=0
pitchwheel channel=12 pitch=-1706 time=4
pitchwheel channel=12 pitch=-1706 time=1
pitchwheel channel=12 pitch=-1706 time=1
pitchwheel channel=13 pitch=-2346 time=0
pitchwheel channel=13 pitch=-2346 time=1
pitchwheel channel=13 pitch=-2346 time=0
pitchwheel channel=12 pitch=-2147 time=3
pitchwheel channel=12 pitch=-2147 time=1
pitchwheel channel=12 pitch=-2147 time=0
pitchwheel channel=12 pitch=-2545 time=3
pitchwheel channel=12 pitch=-2545 time=0
pitchwheel channel=12 pitch=-2545 time=1
pitchwheel channel=13 pitch=-2545 time=3
note_on channel=5 note=79 velocity=54 time=1
pitchwheel channel=13 pitch=-2545 time=0
pitchwheel channel=13 pitch=-2545 time=0
note_on channel=10 note=79 velocity=86 time=1
pitchwheel channel=12 pitch=-2883 time=0
pitchwheel channel=12 pitch=-2883 time=0
pitchwheel channel=12 pitch=-2883 time=0
pitchwheel channel=12 pitch=-3412 time=5
pitchwheel channel=12 pitch=-3412 time=0
pitchwheel channel=12 pitch=-3412 time=1
pitchwheel channel=13 pitch=-2883 time=0
pitchwheel channel=13 pitch=-2883 time=0
pitchwheel channel=13 pitch=-2883 time=1
note_on channel=10 note=78 velocity=0 time=2
note_on channel=5 note=78 velocity=0 time=0
pitchwheel channel=12 pitch=-3925 time=0
pitchwheel channel=12 pitch=-3925 time=1
pitchwheel channel=12 pitch=-3925 time=0
pitchwheel channel=12 pitch=-4454 time=1
pitchwheel channel=12 pitch=-4454 time=0
pitchwheel channel=12 pitch=-4454 time=1
note_on channel=2 note=86 velocity=0 time=1
pitchwheel channel=12 pitch=-4693 time=0
pitchwheel channel=12 pitch=-4693 time=1
pitchwheel channel=12 pitch=-4693 time=0
note_on channel=2 note=74 velocity=0 time=1
pitchwheel channel=12 pitch=-5091 time=1
pitchwheel channel=13 pitch=-3242 time=0
pitchwheel channel=13 pitch=-3242 time=0
pitchwheel channel=12 pitch=-5091 time=1
pitchwheel channel=12 pitch=-5091 time=0
pitchwheel channel=13 pitch=-3242 time=0
note_on channel=14 note=74 velocity=0 time=2
note_on channel=11 note=86 velocity=0 time=0
note_on channel=2 note=81 velocity=0 time=0
note_on channel=5 note=81 velocity=72 time=1
pitchwheel channel=12 pitch=-5460 time=0
pitchwheel channel=12 pitch=-5460 time=0
pitchwheel channel=12 pitch=-5460 time=0
control_change channel=13 control=93 value=127 time=0
note_on channel=10 note=81 velocity=72 time=1
pitchwheel channel=12 pitch=-5802 time=4
pitchwheel channel=12 pitch=-5802 time=1
pitchwheel channel=12 pitch=-5802 time=0
note_on channel=5 note=79 velocity=0 time=2
note_on channel=10 note=79 velocity=0 time=0
note_on channel=13 note=67 velocity=0 time=3
pitchwheel channel=12 pitch=-6263 time=1
pitchwheel channel=12 pitch=-6263 time=0
pitchwheel channel=12 pitch=-6263 time=1
note_on channel=9 note=44 velocity=0 time=3
note_on channel=9 note=36 velocity=108 time=0
note_on channel=9 note=44 velocity=100 time=0
pitchwheel channel=13 pitch=-2645 time=1
pitchwheel channel=13 pitch=-2645 time=0
pitchwheel channel=13 pitch=-2645 time=1
pitchwheel channel=13 pitch=-1706 time=2
pitchwheel channel=13 pitch=-1706 time=0
pitchwheel channel=13 pitch=-1706 time=0
note_on channel=12 note=76 velocity=0 time=1
pitchwheel channel=13 pitch=0 time=2
pitchwheel channel=13 pitch=0 time=0
pitchwheel channel=13 pitch=0 time=0
note_on channel=4 note=38 velocity=88 time=5
pitchwheel channel=12 pitch=-4991 time=0
pitchwheel channel=12 pitch=-4991 time=1
pitchwheel channel=12 pitch=-4991 time=0
pitchwheel channel=12 pitch=-119 time=3
pitchwheel channel=12 pitch=-119 time=0
pitchwheel channel=12 pitch=-119 time=0
pitchwheel channel=12 pitch=0 time=2
pitchwheel channel=12 pitch=0 time=0
pitchwheel channel=12 pitch=0 time=1
note_on channel=9 note=36 velocity=0 time=26
note_on channel=9 note=44 velocity=0 time=15
note_on channel=9 note=44 velocity=100 time=0
note_on channel=4 note=38 velocity=0 time=8
note_on channel=12 note=66 velocity=127 time=14
note_on channel=9 note=40 velocity=108 time=8
note_on channel=13 note=62 velocity=108 time=4
note_on channel=12 note=66 velocity=0 time=5
note_on channel=13 note=62 velocity=0 time=11
note_on channel=12 note=66 velocity=102 time=2
note_on channel=9 note=44 velocity=0 time=8
note_on channel=9 note=44 velocity=100 time=0
note_on channel=13 note=62 velocity=72 time=0
note_on channel=4 note=38 velocity=83 time=3
note_on channel=9 note=40 velocity=0 time=12
note_on channel=12 note=66 velocity=0 time=11
note_on channel=13 note=62 velocity=0 time=7
note_on channel=4 note=38 velocity=0 time=19
note_on channel=13 note=64 velocity=119 time=3
note_on channel=12 note=67 velocity=112 time=3
note_on channel=9 note=44 velocity=0 time=2
note_on channel=9 note=35 velocity=108 time=0
note_on channel=9 note=44 velocity=100 time=0
note_on channel=13 note=64 velocity=0 time=25
note_on channel=12 note=67 velocity=0 time=7
note_on channel=9 note=35 velocity=0 time=13
note_on channel=13 note=66 velocity=112 time=8
note_on channel=4 note=38 velocity=81 time=3
note_on channel=12 note=69 velocity=127 time=0
note_on channel=9 note=44 velocity=0 time=4
note_on channel=9 note=35 velocity=108 time=0
note_on channel=9 note=44 velocity=100 time=0
note_on channel=9 note=35 velocity=0 time=45
note_on channel=4 note=38 velocity=0 time=10
note_on channel=9 note=44 velocity=0 time=5
note_on channel=9 note=44 velocity=100 time=0
note_on channel=13 note=66 velocity=0 time=1
note_on channel=12 note=69 velocity=0 time=13
note_on channel=12 note=74 velocity=127 time=11
note_on channel=13 note=66 velocity=124 time=1
note_on channel=4 note=38 velocity=70 time=33
note_on channel=9 note=44 velocity=0 time=1
note_on channel=9 note=40 velocity=108 time=0
note_on channel=9 note=44 velocity=100 time=0
note_on channel=9 note=40 velocity=0 time=45
note_on channel=9 note=44 velocity=0 time=15
note_on channel=9 note=44 velocity=100 time=0
note_on channel=4 note=38 velocity=0 time=10
note_on channel=13 note=66 velocity=0 time=17
note_on channel=9 note=40 velocity=108 time=3
note_on channel=5 note=81 velocity=0 time=12
note_on channel=10 note=81 velocity=0 time=9
note_on channel=12 note=74 velocity=0 time=6
note_on channel=13 note=67 velocity=124 time=2
note_on channel=9 note=44 velocity=0 time=1
note_on channel=9 note=40 velocity=0 time=0
note_on channel=9 note=35 velocity=108 time=0
note_on channel=9 note=44 velocity=100 time=0
note_on channel=12 note=71 velocity=127 time=5
note_on channel=4 note=31 velocity=97 time=2
note_on channel=9 note=35 velocity=0 time=38
note_on channel=9 note=44 velocity=0 time=15
note_on channel=9 note=44 velocity=100 time=0
note_on channel=4 note=31 velocity=0 time=5
note_on channel=13 note=67 velocity=0 time=18
note_on channel=9 note=40 velocity=108 time=7
note_on channel=13 note=69 velocity=127 time=5
note_on channel=12 note=73 velocity=127 time=3
note_on channel=4 note=30 velocity=112 time=1
note_on channel=2 note=78 velocity=112 time=3
note_on channel=11 note=78 velocity=112 time=0
note_on channel=14 note=78 velocity=112 time=0
note_on channel=12 note=71 velocity=0 time=3
note_on channel=11 note=66 velocity=112 time=0
note_on channel=2 note=66 velocity=127 time=2
note_on channel=14 note=66 velocity=127 time=0
control_change channel=1 control=7 value=87 time=5
note_on channel=14 note=78 velocity=0 time=2
note_on channel=11 note=78 velocity=0 time=0
note_on channel=2 note=78 velocity=0 time=0
note_on channel=11 note=66 velocity=0 time=3
note_on channel=2 note=66 velocity=0 time=2
note_on channel=14 note=66 velocity=0 time=0
note_on channel=9 note=44 velocity=0 time=1
note_on channel=9 note=44 velocity=100 time=0
note_on channel=11 note=66 velocity=112 time=0
note_on channel=2 note=78 velocity=112 time=6
note_on channel=2 note=66 velocity=115 time=0
note_on channel=11 note=78 velocity=112 time=0
note_on channel=14 note=78 velocity=112 time=0
note_on channel=14 note=66 velocity=115 time=0
note_on channel=9 note=40 velocity=0 time=9
note_on channel=11 note=66 velocity=0 time=17
note_on channel=4 note=30 velocity=0 time=1
note_on channel=11 note=78 velocity=0 time=5
note_on channel=14 note=78 velocity=0 time=0
note_on channel=2 note=78 velocity=0 time=0
note_on channel=2 note=66 velocity=0 time=2
note_on channel=14 note=66 velocity=0 time=0
note_on channel=13 note=69 velocity=0 time=17
note_on channel=9 note=44 velocity=0 time=3
note_on channel=9 note=35 velocity=108 time=0
note_on channel=9 note=44 velocity=100 time=0
note_on channel=2 note=67 velocity=124 time=5
note_on channel=14 note=67 velocity=124 time=0
note_on channel=12 note=73 velocity=0 time=1
note_on channel=13 note=71 velocity=127 time=1
note_on channel=4 note=28 velocity=119 time=1
note_on channel=2 note=79 velocity=127 time=1
note_on channel=11 note=79 velocity=127 time=0
note_on channel=14 note=79 velocity=127 time=0
note_on channel=11 note=67 velocity=127 time=6
note_on channel=12 note=74 velocity=127 time=0
note_on channel=14 note=79 velocity=0 time=18
note_on channel=11 note=79 velocity=0 time=0
note_on channel=2 note=79 velocity=0 time=0
note_on channel=14 note=67 velocity=0 time=6
note_on channel=11 note=67 velocity=0 time=0
note_on channel=2 note=67 velocity=0 time=0
note_on channel=9 note=35 velocity=0 time=6
control_change channel=13 control=93 value=125 time=13
note_on channel=9 note=44 velocity=0 time=2
note_on channel=9 note=33 velocity=108 time=0
note_on channel=9 note=44 velocity=100 time=0
note_on channel=11 note=64 velocity=127 time=0
note_on channel=11 note=76 velocity=127 time=0
note_on channel=2 note=64 velocity=127 time=4
note_on channel=14 note=64 velocity=127 time=0
note_on channel=2 note=76 velocity=127 time=5
note_on channel=14 note=76 velocity=127 time=0
control_change channel=13 control=93 value=126 time=27
pitchwheel channel=2 pitch=-358 time=1
pitchwheel channel=2 pitch=-358 time=0
pitchwheel channel=2 pitch=-358 time=0
pitchwheel channel=2 pitch=-716 time=3
pitchwheel channel=2 pitch=-716 time=0
pitchwheel channel=2 pitch=-716 time=0
pitchwheel channel=2 pitch=-1074 time=2
pitchwheel channel=2 pitch=-1074 time=0
pitchwheel channel=2 pitch=-1074 time=1
pitchwheel channel=2 pitch=-1535 time=1
pitchwheel channel=2 pitch=-1535 time=0
note_on channel=9 note=33 velocity=0 time=1
pitchwheel channel=2 pitch=-1535 time=0
pitchwheel channel=2 pitch=-1877 time=0
pitchwheel channel=2 pitch=-1877 time=0
pitchwheel channel=2 pitch=-1877 time=1
pitchwheel channel=2 pitch=-2247 time=0
pitchwheel channel=2 pitch=-2247 time=1
pitchwheel channel=2 pitch=-2247 time=0
pitchwheel channel=2 pitch=-2545 time=1
pitchwheel channel=2 pitch=-2545 time=0
pitchwheel channel=2 pitch=-2545 time=0
pitchwheel channel=2 pitch=-2883 time=1
pitchwheel channel=2 pitch=-2883 time=0
pitchwheel channel=2 pitch=-2883 time=0
note_on channel=11 note=76 velocity=0 time=2
note_on channel=11 note=64 velocity=0 time=0
pitchwheel channel=2 pitch=-3583 time=1
pitchwheel channel=2 pitch=-3583 time=0
pitchwheel channel=2 pitch=-3583 time=0
note_on channel=14 note=64 velocity=0 time=3
note_on channel=2 note=64 velocity=0 time=0
pitchwheel channel=2 pitch=-4096 time=0
pitchwheel channel=2 pitch=-4096 time=0
pitchwheel channel=2 pitch=-4096 time=0
pitchwheel channel=2 pitch=-4454 time=2
pitchwheel channel=2 pitch=-4454 time=0
pitchwheel channel=2 pitch=-4454 time=0
pitchwheel channel=2 pitch=-4693 time=1
pitchwheel channel=2 pitch=-4693 time=0
pitchwheel channel=2 pitch=-4693 time=0
note_on channel=9 note=44 velocity=0 time=2
note_on channel=14 note=76 velocity=0 time=0
note_on channel=2 note=76 velocity=0 time=0
note_on channel=9 note=44 velocity=100 time=0
pitchwheel channel=2 pitch=-4991 time=1
pitchwheel channel=2 pitch=-4991 time=0
pitchwheel channel=2 pitch=-4991 time=1
pitchwheel channel=2 pitch=-5290 time=5
pitchwheel channel=2 pitch=-5290 time=0
pitchwheel channel=2 pitch=-5290 time=0
pitchwheel channel=2 pitch=-4892 time=8
pitchwheel channel=2 pitch=-4892 time=0
pitchwheel channel=2 pitch=-4892 time=0
pitchwheel channel=2 pitch=-4334 time=2
pitchwheel channel=2 pitch=-4334 time=0
pitchwheel channel=2 pitch=-4334 time=0
pitchwheel channel=2 pitch=-3122 time=2
pitchwheel channel=2 pitch=-3122 time=0
pitchwheel channel=2 pitch=-3122 time=0
pitchwheel channel=2 pitch=-1074 time=1
pitchwheel channel=2 pitch=-1074 time=0
pitchwheel channel=2 pitch=-1074 time=0
pitchwheel channel=2 pitch=0 time=1
pitchwheel channel=2 pitch=0 time=0
pitchwheel channel=2 pitch=0 time=1
control_change channel=1 control=7 value=88 time=15
note_on channel=4 note=28 velocity=0 time=3
control_change channel=1 control=7 value=91 time=11
note_on channel=9 note=44 velocity=0 time=9
note_on channel=4 note=33 velocity=102 time=0
note_on channel=9 note=45 velocity=108 time=0
note_on channel=9 note=44 velocity=100 time=0
note_on channel=11 note=57 velocity=127 time=0
note_on channel=2 note=57 velocity=127 time=3
note_on channel=14 note=57 velocity=127 time=0
control_change channel=13 control=93 value=127 time=1
note_on channel=2 note=69 velocity=127 time=2
note_on channel=11 note=69 velocity=127 time=0
note_on channel=14 note=69 velocity=127 time=0
control_change channel=1 control=7 value=92 time=4
pitchwheel channel=13 pitch=-358 time=22
pitchwheel channel=13 pitch=-358 time=0
pitchwheel channel=13 pitch=-358 time=0
control_change channel=1 control=7 value=94 time=1
pitchwheel channel=12 pitch=-238 time=3
pitchwheel channel=12 pitch=-238 time=1
pitchwheel channel=12 pitch=-238 time=0
pitchwheel channel=13 pitch=-597 time=0
pitchwheel channel=13 pitch=-597 time=0
pitchwheel channel=13 pitch=-597 time=0
pitchwheel channel=13 pitch=-955 time=4
pitchwheel channel=13 pitch=-955 time=0
pitchwheel channel=12 pitch=-597 time=1
pitchwheel channel=12 pitch=-597 time=0
pitchwheel channel=12 pitch=-597 time=0
pitchwheel channel=13 pitch=-955 time=0
note_on channel=9 note=45 velocity=0 time=3
pitchwheel channel=13 pitch=-1364 time=1
pitchwheel channel=13 pitch=-1364 time=1
pitchwheel channel=13 pitch=-1364 time=0
pitchwheel channel=12 pitch=-955 time=3
pitchwheel channel=12 pitch=-955 time=1
pitchwheel channel=12 pitch=-955 time=0
pitchwheel channel=13 pitch=-1877 time=0
pitchwheel channel=13 pitch=-1877 time=0
note_on channel=11 note=57 velocity=0 time=1
pitchwheel channel=13 pitch=-1877 time=0
pitchwheel channel=12 pitch=-1364 time=3
pitchwheel channel=12 pitch=-1364 time=1
pitchwheel channel=12 pitch=-1364 time=0
pitchwheel channel=13 pitch=-2147 time=0
pitchwheel channel=13 pitch=-2147 time=0
pitchwheel channel=13 pitch=-2147 time=0
note_on channel=14 note=69 velocity=0 time=2
note_on channel=11 note=69 velocity=0 time=0
note_on channel=2 note=69 velocity=0 time=0
note_on channel=9 note=44 velocity=0 time=2
note_on channel=9 note=40 velocity=82 time=0
note_on channel=9 note=44 velocity=100 time=0
note_on channel=2 note=79 velocity=81 time=1
note_on channel=14 note=79 velocity=81 time=0
pitchwheel channel=13 pitch=-2446 time=1
pitchwheel channel=13 pitch=-2446 time=1
pitchwheel channel=13 pitch=-2446 time=0
note_on channel=14 note=57 velocity=0 time=2
note_on channel=2 note=57 velocity=0 time=0
control_change channel=1 control=7 value=95 time=0
pitchwheel channel=12 pitch=-1706 time=1
pitchwheel channel=12 pitch=-1706 time=1
pitchwheel channel=12 pitch=-1706 time=0
note_on channel=13 note=71 velocity=0 time=3
pitchwheel channel=13 pitch=-2764 time=0
pitchwheel channel=13 pitch=-2764 time=1
pitchwheel channel=13 pitch=-2764 time=0
pitchwheel channel=13 pitch=-3122 time=2
control_change channel=1 control=7 value=96 time=1
pitchwheel channel=13 pitch=-3122 time=0
pitchwheel channel=13 pitch=-3122 time=0
pitchwheel channel=12 pitch=-2247 time=2
pitchwheel channel=12 pitch=-2247 time=1
pitchwheel channel=12 pitch=-2247 time=1
note_on channel=2 note=81 velocity=86 time=1
pitchwheel channel=13 pitch=-3583 time=0
note_on channel=14 note=81 velocity=86 time=0
pitchwheel channel=13 pitch=-3583 time=1
pitchwheel channel=13 pitch=-3583 time=0
pitchwheel channel=12 pitch=-2545 time=3
pitchwheel channel=12 pitch=-2545 time=0
pitchwheel channel=12 pitch=-2545 time=0
pitchwheel channel=13 pitch=-4096 time=4
pitchwheel channel=12 pitch=-2764 time=1
pitchwheel channel=12 pitch=-2764 time=0
pitchwheel channel=12 pitch=-2764 time=0
pitchwheel channel=13 pitch=-4096 time=0
pitchwheel channel=13 pitch=-4096 time=0
note_on channel=9 note=40 velocity=80 time=2
pitchwheel channel=13 pitch=-4334 time=2
pitchwheel channel=13 pitch=-4334 time=0
pitchwheel channel=13 pitch=-4334 time=1
note_on channel=14 note=79 velocity=0 time=1
note_on channel=2 note=79 velocity=0 time=0
pitchwheel channel=12 pitch=-3242 time=0
pitchwheel channel=12 pitch=-3242 time=0
pitchwheel channel=12 pitch=-3242 time=0
control_change channel=1 control=7 value=98 time=3
pitchwheel channel=13 pitch=-4693 time=0
note_on channel=4 note=33 velocity=0 time=1
control_change channel=1 control=7 value=99 time=0
pitchwheel channel=12 pitch=-3754 time=0
pitchwheel channel=12 pitch=-3754 time=0
pitchwheel channel=12 pitch=-3754 time=0
pitchwheel channel=13 pitch=-4693 time=0
pitchwheel channel=13 pitch=-4693 time=0
note_on channel=2 note=83 velocity=112 time=4
note_on channel=14 note=83 velocity=112 time=0
pitchwheel channel=12 pitch=-4215 time=2
pitchwheel channel=12 pitch=-4215 time=0
pitchwheel channel=12 pitch=-4215 time=0
pitchwheel channel=13 pitch=-4991 time=0
note_on channel=9 note=40 velocity=0 time=1
pitchwheel channel=13 pitch=-4991 time=0
pitchwheel channel=13 pitch=-4991 time=0
pitchwheel channel=12 pitch=-4693 time=1
pitchwheel channel=12 pitch=-4693 time=1
pitchwheel channel=12 pitch=-4693 time=0
pitchwheel channel=12 pitch=-4991 time=2
pitchwheel channel=12 pitch=-4991 time=0
pitchwheel channel=12 pitch=-4991 time=1
pitchwheel channel=12 pitch=-5290 time=1
pitchwheel channel=12 pitch=-5290 time=1
pitchwheel channel=12 pitch=-5290 time=0
note_on channel=7 note=83 velocity=75 time=1
note_on channel=10 note=71 velocity=86 time=0
pitchwheel channel=12 pitch=-5631 time=2
note_on channel=12 note=74 velocity=0 time=1
note_on channel=14 note=81 velocity=0 time=0
note_on channel=2 note=81 velocity=0 time=0
pitchwheel channel=12 pitch=-5631 time=0
pitchwheel channel=12 pitch=-5631 time=0
note_on channel=9 note=44 velocity=0 time=4
control_change channel=1 control=7 value=102 time=0
note_on channel=4 note=31 velocity=83 time=0
note_on channel=9 note=36 velocity=108 time=0
note_on channel=9 note=44 velocity=100 time=0
pitchwheel channel=12 pitch=-6263 time=1
pitchwheel channel=12 pitch=-6263 time=0
pitchwheel channel=12 pitch=-6263 time=0
note_on channel=0 note=71 velocity=102 time=2
note_on channel=2 note=84 velocity=79 time=2
pitchwheel channel=13 pitch=-4693 time=0
pitchwheel channel=13 pitch=-4693 time=0
note_on channel=14 note=84 velocity=79 time=0
pitchwheel channel=13 pitch=-4693 time=1
note_on channel=0 note=83 velocity=102 time=1
control_change channel=1 control=7 value=103 time=0
pitchwheel channel=12 pitch=-6621 time=0
pitchwheel channel=12 pitch=-6621 time=0
pitchwheel channel=12 pitch=-6621 time=0
pitchwheel channel=13 pitch=-4334 time=0
note_on channel=2 note=86 velocity=127 time=1
pitchwheel channel=13 pitch=-4334 time=0
pitchwheel channel=13 pitch=-4334 time=0
note_on channel=14 note=86 velocity=127 time=0
note_on channel=14 note=83 velocity=0 time=3
note_on channel=2 note=83 velocity=0 time=0
pitchwheel channel=12 pitch=-7218 time=0
pitchwheel channel=12 pitch=-7218 time=0
pitchwheel channel=13 pitch=-2764 time=0
pitchwheel channel=13 pitch=-2764 time=0
pitchwheel channel=13 pitch=-2764 time=0
pitchwheel channel=12 pitch=-7218 time=1
pitchwheel channel=13 pitch=0 time=0
pitchwheel channel=13 pitch=0 time=1
pitchwheel channel=13 pitch=0 time=0
note_on channel=9 note=40 velocity=0 time=2
note_on channel=14 note=84 velocity=0 time=4
note_on channel=2 note=84 velocity=0 time=0
pitchwheel channel=12 pitch=-710 time=0
pitchwheel channel=12 pitch=-7622 time=0
control_change channel=1 control=7 value=105 time=10
pitchwheel channel=12 pitch=-7218 time=5
pitchwheel channel=12 pitch=-7218 time=1
pitchwheel channel=12 pitch=-7218 time=0
pitchwheel channel=12 pitch=-6860 time=2
pitchwheel channel=12 pitch=-6860 time=1
pitchwheel channel=12 pitch=-6860 time=0
pitchwheel channel=12 pitch=-6263 time=3
pitchwheel channel=12 pitch=-6263 time=0
pitchwheel channel=12 pitch=-6263 time=0
pitchwheel channel=12 pitch=-5190 time=2
pitchwheel channel=12 pitch=-5190 time=0
pitchwheel channel=12 pitch=-5190 time=0
note_on channel=9 note=36 velocity=0 time=2
pitchwheel channel=12 pitch=-1535 time=0
pitchwheel channel=12 pitch=-1535 time=0
pitchwheel channel=12 pitch=-1535 time=1
note_on channel=2 note=86 velocity=0 time=1
note_on channel=14 note=86 velocity=0 time=0
pitchwheel channel=12 pitch=0 time=2
pitchwheel channel=12 pitch=0 time=0
pitchwheel channel=12 pitch=0 time=0
note_on channel=5 note=88 velocity=38 time=7
note_on channel=9 note=44 velocity=0 time=4
note_on channel=9 note=44 velocity=100 time=0
note_on channel=5 note=90 velocity=33 time=6
note_on channel=4 note=31 velocity=0 time=10
note_on channel=1 note=67 velocity=99 time=2
note_on channel=5 note=91 velocity=50 time=10
note_on channel=9 note=40 velocity=108 time=2
note_on channel=1 note=67 velocity=0 time=5
note_on channel=5 note=88 velocity=0 time=5
note_on channel=1 note=67 velocity=73 time=7
note_on channel=4 note=31 velocity=86 time=11
note_on channel=9 note=44 velocity=0 time=2
note_on channel=9 note=44 velocity=100 time=0
note_on channel=5 note=90 velocity=0 time=11
note_on channel=9 note=40 velocity=0 time=4
note_on channel=1 note=67 velocity=0 time=2
control_change channel=1 control=7 value=106 time=15
note_on channel=5 note=91 velocity=0 time=2
control_change channel=1 control=7 value=107 time=8
control_change channel=1 control=7 value=109 time=5
control_change channel=1 control=7 value=110 time=5
note_on channel=9 note=44 velocity=0 time=8
control_change channel=1 control=7 value=112 time=0
note_on channel=1 note=69 velocity=105 time=0
note_on channel=9 note=35 velocity=108 time=0
note_on channel=9 note=44 velocity=100 time=0
note_on channel=5 note=88 velocity=32 time=9
note_on channel=4 note=31 velocity=0 time=4
note_on channel=5 note=90 velocity=32 time=6
note_on channel=1 note=69 velocity=0 time=9
note_on channel=9 note=35 velocity=0 time=17
note_on channel=5 note=91 velocity=38 time=3
note_on channel=5 note=88 velocity=0 time=1
note_on channel=4 note=31 velocity=92 time=8
note_on channel=9 note=44 velocity=0 time=3
note_on channel=9 note=35 velocity=108 time=0
note_on channel=9 note=44 velocity=100 time=0
note_on channel=1 note=71 velocity=127 time=5
note_on channel=5 note=90 velocity=0 time=2
note_on channel=5 note=91 velocity=0 time=35
note_on channel=9 note=35 velocity=0 time=3
note_on channel=9 note=44 velocity=0 time=15
note_on channel=9 note=44 velocity=100 time=0
note_on channel=0 note=71 velocity=0 time=1
note_on channel=7 note=74 velocity=49 time=0
note_on channel=0 note=62 velocity=59 time=2
note_on channel=10 note=62 velocity=73 time=0
note_on channel=7 note=83 velocity=0 time=2
note_on channel=10 note=71 velocity=0 time=0
note_on channel=0 note=74 velocity=66 time=0
note_on channel=0 note=83 velocity=0 time=4
note_on channel=5 note=88 velocity=40 time=8
note_on channel=4 note=31 velocity=0 time=1
note_on channel=1 note=71 velocity=0 time=2
control_change channel=1 control=7 value=113 time=7
note_on channel=5 note=90 velocity=26 time=2
control_change channel=1 control=7 value=114 time=9
note_on channel=1 note=74 velocity=115 time=0
note_on channel=5 note=91 velocity=38 time=17
note_on channel=10 note=67 velocity=79 time=3
note_on channel=0 note=74 velocity=0 time=1
note_on channel=0 note=79 velocity=90 time=0
note_on channel=9 note=44 velocity=0 time=1
note_on channel=0 note=67 velocity=83 time=0
note_on channel=4 note=31 velocity=90 time=0
note_on channel=9 note=40 velocity=108 time=0
note_on channel=9 note=44 velocity=100 time=0
note_on channel=7 note=79 velocity=74 time=6
note_on channel=10 note=62 velocity=0 time=3
note_on channel=0 note=62 velocity=0 time=2
note_on channel=5 note=88 velocity=0 time=2
note_on channel=7 note=74 velocity=0 time=8
note_on channel=5 note=90 velocity=0 time=7
note_on channel=9 note=40 velocity=0 time=17
note_on channel=10 note=71 velocity=108 time=6
note_on channel=7 note=83 velocity=84 time=6
note_on channel=0 note=83 velocity=127 time=1
note_on channel=9 note=44 velocity=0 time=2
note_on channel=9 note=44 velocity=100 time=0
note_on channel=10 note=67 velocity=0 time=2
note_on channel=0 note=71 velocity=94 time=2
control_change channel=1 control=7 value=116 time=1
note_on channel=0 note=79 velocity=0 time=3
note_on channel=0 note=67 velocity=0 time=3
note_on channel=7 note=79 velocity=0 time=1
note_on channel=5 note=91 velocity=0 time=2
control_change channel=1 control=7 value=117 time=1
note_on channel=0 note=71 velocity=0 time=12
note_on channel=4 note=31 velocity=0 time=1
note_on channel=0 note=83 velocity=0 time=8
control_change channel=1 control=7 value=120 time=2
note_on channel=0 note=85 velocity=108 time=20
note_on channel=0 note=73 velocity=108 time=1
note_on channel=10 note=73 velocity=115 time=0
note_on channel=9 note=44 velocity=0 time=1
note_on channel=4 note=31 velocity=94 time=0
note_on channel=9 note=35 velocity=108 time=0
note_on channel=9 note=44 velocity=100 time=0
note_on channel=10 note=71 velocity=0 time=5
note_on channel=7 note=85 velocity=94 time=1
note_on channel=7 note=83 velocity=0 time=4
note_on channel=9 note=35 velocity=0 time=35
note_on channel=1 note=74 velocity=0 time=11
note_on channel=9 note=44 velocity=0 time=4
note_on channel=9 note=44 velocity=100 time=0
note_on channel=4 note=31 velocity=0 time=16
note_on channel=9 note=40 velocity=108 time=14
note_on channel=2 note=73 velocity=127 time=5
note_on channel=2 note=73 velocity=0 time=22
note_on channel=4 note=31 velocity=81 time=1
note_on channel=9 note=44 velocity=0 time=2
note_on channel=9 note=44 velocity=100 time=0
note_on channel=2 note=73 velocity=57 time=4
note_on channel=9 note=40 velocity=0 time=11
note_on channel=2 note=73 velocity=0 time=22
control_change channel=1 control=7 value=121 time=10
control_change channel=1 control=7 value=123 time=5
note_on channel=9 note=44 velocity=0 time=8
control_change channel=1 control=7 value=124 time=0
note_on channel=9 note=35 velocity=108 time=0
note_on channel=9 note=44 velocity=100 time=0
note_on channel=2 note=74 velocity=127 time=11
note_on channel=4 note=31 velocity=0 time=5
note_on channel=2 note=74 velocity=0 time=23
note_on channel=9 note=35 velocity=0 time=6
note_on channel=9 note=44 velocity=0 time=15
note_on channel=9 note=33 velocity=108 time=0
note_on channel=9 note=44 velocity=100 time=0
note_on channel=2 note=76 velocity=127 time=3
note_on channel=4 note=31 velocity=81 time=2
note_on channel=7 note=85 velocity=0 time=28
note_on channel=0 note=73 velocity=0 time=0
note_on channel=0 note=85 velocity=0 time=3
note_on channel=9 note=33 velocity=0 time=9
note_on channel=10 note=73 velocity=0 time=3
note_on channel=0 note=73 velocity=65 time=8
note_on channel=9 note=44 velocity=0 time=4
note_on channel=9 note=44 velocity=100 time=0
note_on channel=7 note=85 velocity=66 time=3
note_on channel=0 note=85 velocity=69 time=1
note_on channel=10 note=73 velocity=92 time=4
note_on channel=2 note=76 velocity=0 time=4
note_on channel=4 note=31 velocity=0 time=4
note_on channel=2 note=69 velocity=127 time=21
note_on channel=0 note=86 velocity=77 time=20
note_on channel=9 note=44 velocity=0 time=3
note_on channel=0 note=74 velocity=77 time=0
note_on channel=7 note=86 velocity=74 time=0
note_on channel=9 note=45 velocity=108 time=0
note_on channel=9 note=46 velocity=100 time=0
note_on channel=10 note=74 velocity=74 time=0
note_on channel=7 note=85 velocity=0 time=1
note_on channel=0 note=85 velocity=0 time=3
note_on channel=10 note=73 velocity=0 time=3
note_on channel=4 note=31 velocity=81 time=1
note_on channel=0 note=73 velocity=0 time=5
note_on channel=9 note=45 velocity=0 time=32
note_on channel=10 note=76 velocity=92 time=4
note_on channel=7 note=88 velocity=78 time=3
note_on channel=7 note=86 velocity=0 time=6
note_on channel=10 note=74 velocity=0 time=0
note_on channel=0 note=88 velocity=70 time=0
note_on channel=9 note=46 velocity=0 time=2
note_on channel=0 note=76 velocity=70 time=0
note_on channel=0 note=86 velocity=0 time=4
note_on channel=0 note=74 velocity=0 time=3
note_on channel=4 note=31 velocity=0 time=19
note_on channel=10 note=76 velocity=0 time=24
note_on channel=7 note=88 velocity=0 time=5
note_on channel=0 note=81 velocity=127 time=1
note_on channel=10 note=69 velocity=88 time=0
note_on channel=0 note=69 velocity=115 time=4
note_on channel=7 note=81 velocity=90 time=0
note_on channel=9 note=36 velocity=108 time=0
note_on channel=9 note=44 velocity=100 time=0
note_on channel=10 note=76 velocity=81 time=0
note_on channel=4 note=30 velocity=105 time=2
note_on channel=0 note=88 velocity=0 time=11
note_on channel=0 note=76 velocity=0 time=2
note_on channel=2 note=69 velocity=0 time=6
note_on channel=9 note=36 velocity=0 time=24
note_on channel=9 note=44 velocity=0 time=15
note_on channel=9 note=44 velocity=100 time=0
note_on channel=4 note=30 velocity=0 time=18
note_on channel=1 note=66 velocity=127 time=6
note_on channel=9 note=40 velocity=108 time=6
note_on channel=1 note=66 velocity=0 time=10
note_on channel=1 note=66 velocity=97 time=14
note_on channel=9 note=44 velocity=0 time=6
note_on channel=9 note=44 velocity=100 time=0
note_on channel=4 note=30 velocity=94 time=3
note_on channel=9 note=40 velocity=0 time=12
note_on channel=1 note=66 velocity=0 time=12
note_on channel=9 note=44 velocity=0 time=33
note_on channel=9 note=35 velocity=108 time=0
note_on channel=9 note=44 velocity=100 time=0
note_on channel=1 note=67 velocity=78 time=5
note_on channel=4 note=30 velocity=0 time=14
note_on channel=1 note=67 velocity=0 time=15
control_change channel=1 control=7 value=127 time=5
control_change channel=1 control=7 value=125 time=0
note_on channel=9 note=35 velocity=0 time=6
note_on channel=9 note=44 velocity=0 time=15
note_on channel=9 note=35 velocity=108 time=0
note_on channel=9 note=44 velocity=100 time=0
note_on channel=0 note=69 velocity=0 time=5
note_on channel=4 note=30 velocity=102 time=0
note_on channel=1 note=69 velocity=124 time=2
note_on channel=0 note=81 velocity=0 time=9
note_on channel=7 note=81 velocity=0 time=21
note_on channel=10 note=69 velocity=0 time=2
note_on channel=10 note=76 velocity=0 time=2
note_on channel=9 note=35 velocity=0 time=4
note_on channel=9 note=44 velocity=0 time=15
note_on channel=9 note=44 velocity=100 time=0
note_on channel=0 note=69 velocity=74 time=1
note_on channel=7 note=81 velocity=62 time=0
note_on channel=0 note=81 velocity=97 time=2
note_on channel=10 note=69 velocity=78 time=0
note_on channel=1 note=69 velocity=0 time=19
note_on channel=4 note=30 velocity=0 time=6
note_on channel=7 note=86 velocity=78 time=28
note_on channel=10 note=74 velocity=92 time=2
note_on channel=9 note=44 velocity=0 time=2
note_on channel=7 note=81 velocity=0 time=0
note_on channel=10 note=69 velocity=0 time=0
note_on channel=0 note=86 velocity=127 time=0
note_on channel=9 note=40 velocity=108 time=0
note_on channel=9 note=44 velocity=100 time=0
note_on channel=1 note=62 velocity=112 time=5
note_on channel=0 note=74 velocity=97 time=1
note_on channel=4 note=30 velocity=88 time=0
note_on channel=0 note=81 velocity=0 time=2
note_on channel=0 note=69 velocity=0 time=10
note_on channel=0 note=74 velocity=0 time=24
note_on channel=7 note=86 velocity=0 time=1
note_on channel=9 note=40 velocity=0 time=2
note_on channel=10 note=74 velocity=0 time=6
note_on channel=10 note=81 velocity=73 time=1
note_on channel=7 note=93 velocity=46 time=3
note_on channel=9 note=44 velocity=0 time=5
note_on channel=9 note=44 velocity=100 time=0
note_on channel=0 note=93 velocity=77 time=3
note_on channel=0 note=86 velocity=0 time=3
note_on channel=0 note=81 velocity=127 time=1
note_on channel=4 note=30 velocity=0 time=13
note_on channel=10 note=81 velocity=0 time=9
note_on channel=7 note=93 velocity=0 time=1
note_on channel=0 note=81 velocity=0 time=2
note_on channel=1 note=62 velocity=0 time=2
note_on channel=0 note=93 velocity=0 time=4
control_change channel=10 control=7 value=127 time=0
note_on channel=10 note=81 velocity=77 time=10
note_on channel=7 note=93 velocity=73 time=6
note_on channel=0 note=81 velocity=127 time=5
note_on channel=9 note=44 velocity=0 time=1
note_on channel=0 note=93 velocity=99 time=0
note_on channel=1 note=71 velocity=105 time=0
note_on channel=4 note=31 velocity=86 time=0
note_on channel=9 note=35 velocity=108 time=0
note_on channel=9 note=44 velocity=100 time=0
note_on channel=9 note=35 velocity=0 time=45
note_on channel=9 note=44 velocity=0 time=15
note_on channel=9 note=44 velocity=100 time=0
note_on channel=14 note=73 velocity=115 time=0
note_on channel=2 note=73 velocity=115 time=2
note_on channel=4 note=31 velocity=0 time=26
note_on channel=9 note=40 velocity=108 time=2
note_on channel=14 note=73 velocity=0 time=1
note_on channel=14 note=74 velocity=81 time=0
note_on channel=2 note=73 velocity=0 time=2
note_on channel=2 note=74 velocity=81 time=0
note_on channel=7 note=91 velocity=53 time=17
note_on channel=10 note=79 velocity=72 time=0
note_on channel=14 note=76 velocity=115 time=3
note_on channel=0 note=91 velocity=77 time=1
note_on channel=2 note=76 velocity=115 time=1
note_on channel=14 note=74 velocity=0 time=2
note_on channel=2 note=74 velocity=0 time=2
note_on channel=9 note=44 velocity=0 time=1
note_on channel=7 note=93 velocity=0 time=0
note_on channel=0 note=79 velocity=105 time=0
note_on channel=9 note=44 velocity=100 time=0
note_on channel=0 note=81 velocity=0 time=1
note_on channel=4 note=31 velocity=88 time=1
note_on channel=9 note=40 velocity=0 time=13
note_on channel=0 note=93 velocity=0 time=2
note_on channel=10 note=81 velocity=0 time=1
note_on channel=14 note=76 velocity=0 time=9
note_on channel=14 note=78 velocity=127 time=0
note_on channel=2 note=76 velocity=0 time=2
note_on channel=2 note=78 velocity=127 time=0
note_on channel=0 note=78 velocity=74 time=16
note_on channel=10 note=78 velocity=99 time=0
note_on channel=0 note=90 velocity=112 time=3
note_on channel=7 note=90 velocity=45 time=0
note_on channel=7 note=91 velocity=0 time=6
note_on channel=10 note=79 velocity=0 time=3
note_on channel=0 note=79 velocity=0 time=0
note_on channel=9 note=44 velocity=0 time=3
note_on channel=9 note=35 velocity=108 time=0
note_on channel=9 note=44 velocity=100 time=0
note_on channel=0 note=91 velocity=0 time=4
note_on channel=14 note=78 velocity=0 time=4
note_on channel=2 note=78 velocity=0 time=2
note_on channel=4 note=31 velocity=0 time=1
note_on channel=0 note=78 velocity=0 time=15
note_on channel=7 note=88 velocity=57 time=18
note_on channel=9 note=35 velocity=0 time=1
note_on channel=0 note=76 velocity=57 time=0
note_on channel=10 note=76 velocity=62 time=0
note_on channel=0 note=90 velocity=0 time=5
note_on channel=7 note=90 velocity=0 time=2
note_on channel=0 note=88 velocity=127 time=0
note_on channel=4 note=31 velocity=92 time=0
note_on channel=10 note=78 velocity=0 time=1
note_on channel=9 note=44 velocity=0 time=7
note_on channel=9 note=33 velocity=108 time=0
note_on channel=9 note=44 velocity=100 time=0
note_on channel=9 note=33 velocity=0 time=45
note_on channel=1 note=71 velocity=0 time=8
note_on channel=14 note=74 velocity=90 time=2
note_on channel=2 note=74 velocity=90 time=2
note_on channel=9 note=44 velocity=0 time=3
note_on channel=9 note=44 velocity=100 time=0
note_on channel=4 note=31 velocity=0 time=14
control_change channel=10 control=7 value=126 time=0
note_on channel=14 note=76 velocity=99 time=6
note_on channel=2 note=76 velocity=99 time=2
control_change channel=10 control=7 value=124 time=0
note_on channel=14 note=74 velocity=0 time=3
note_on channel=2 note=74 velocity=0 time=2
control_change channel=10 control=7 value=123 time=0
control_change channel=10 control=7 value=121 time=15
note_on channel=0 note=76 velocity=0 time=7
note_on channel=14 note=78 velocity=108 time=0
note_on channel=2 note=78 velocity=108 time=2
note_on channel=7 note=86 velocity=66 time=2
note_on channel=0 note=74 velocity=97 time=1
note_on channel=14 note=76 velocity=0 time=1
note_on channel=7 note=88 velocity=0 time=1
note_on channel=2 note=76 velocity=0 time=1
note_on channel=10 note=74 velocity=79 time=1
note_on channel=0 note=88 velocity=0 time=1
note_on channel=0 note=86 velocity=127 time=0
note_on channel=4 note=31 velocity=94 time=0
note_on channel=9 note=44 velocity=0 time=1
note_on channel=9 note=45 velocity=108 time=0
note_on channel=9 note=44 velocity=100 time=0
note_on channel=10 note=76 velocity=0 time=7
note_on channel=14 note=78 velocity=0 time=11
note_on channel=2 note=78 velocity=0 time=2
note_on channel=14 note=79 velocity=84 time=1
note_on channel=2 note=79 velocity=84 time=2
control_change channel=10 control=7 value=120 time=0
control_change channel=10 control=7 value=118 time=10
control_change channel=10 control=7 value=117 time=5
note_on channel=9 note=45 velocity=0 time=7
control_change channel=10 control=7 value=115 time=0
note_on channel=14 note=81 velocity=127 time=7
note_on channel=2 note=81 velocity=127 time=2
control_change channel=10 control=7 value=114 time=0
note_on channel=14 note=79 velocity=0 time=1
note_on channel=2 note=79 velocity=0 time=2
note_on channel=9 note=44 velocity=0 time=3
note_on channel=9 note=44 velocity=100 time=0
note_on channel=4 note=31 velocity=0 time=18
note_on channel=14 note=83 velocity=112 time=3
note_on channel=2 note=83 velocity=112 time=2
note_on channel=14 note=81 velocity=0 time=3
note_on channel=2 note=81 velocity=0 time=2
control_change channel=10 control=7 value=112 time=0
note_on channel=0 note=74 velocity=0 time=6
note_on channel=0 note=86 velocity=0 time=1
control_change channel=10 control=7 value=111 time=0
note_on channel=10 note=72 velocity=55 time=9
note_on channel=7 note=72 velocity=127 time=6
note_on channel=10 note=72 velocity=79 time=1
note_on channel=14 note=83 velocity=0 time=1
note_on channel=7 note=71 velocity=119 time=0
control_change channel=10 control=7 value=109 time=0
note_on channel=10 note=74 velocity=0 time=1
note_on channel=2 note=83 velocity=0 time=1
note_on channel=0 note=44 velocity=81 time=1
note_on channel=0 note=44 velocity=73 time=0
note_on channel=14 note=84 velocity=127 time=0
note_on channel=14 note=72 velocity=90 time=0
note_on channel=0 note=56 velocity=77 time=1
note_on channel=0 note=63 velocity=78 time=1
note_on channel=0 note=60 velocity=83 time=0
note_on channel=2 note=84 velocity=127 time=0
note_on channel=2 note=72 velocity=90 time=0
note_on channel=0 note=56 velocity=69 time=1
note_on channel=10 note=44 velocity=77 time=0
note_on channel=10 note=56 velocity=88 time=0
note_on channel=10 note=60 velocity=105 time=0
note_on channel=9 note=44 velocity=0 time=2
note_on channel=0 note=84 velocity=127 time=0
note_on channel=4 note=32 velocity=112 time=0
note_on channel=5 note=72 velocity=77 time=0
note_on channel=7 note=84 velocity=112 time=0
note_on channel=9 note=36 velocity=108 time=0
note_on channel=9 note=44 velocity=100 time=0
control_change channel=10 control=7 value=108 time=0
note_on channel=7 note=84 velocity=83 time=7
note_on channel=7 note=86 velocity=0 time=2
control_change channel=10 control=7 value=106 time=5
note_on channel=7 note=71 velocity=0 time=3
control_change channel=10 control=7 value=105 time=17
note_on channel=9 note=36 velocity=0 time=11
control_change channel=10 control=7 value=103 time=0
control_change channel=10 control=7 value=102 time=5
note_on channel=9 note=44 velocity=0 time=10
note_on channel=9 note=44 velocity=100 time=0
note_on channel=14 note=84 velocity=0 time=6
note_on channel=2 note=84 velocity=0 time=2
note_on channel=4 note=32 velocity=0 time=8
note_on channel=9 note=40 velocity=108 time=14
note_on channel=0 note=84 velocity=0 time=6
note_on channel=9 note=44 velocity=0 time=24
note_on channel=9 note=44 velocity=100 time=0
note_on channel=4 note=32 velocity=94 time=7
note_on channel=9 note=40 velocity=0 time=8
control_change channel=10 control=7 value=99 time=10
control_change channel=10 control=7 value=100 time=0
control_change channel=10 control=7 value=97 time=10
control_change channel=10 control=7 value=96 time=10
note_on channel=9 note=44 velocity=0 time=15
note_on channel=9 note=35 velocity=108 time=0
note_on channel=9 note=44 velocity=100 time=0
note_on channel=4 note=32 velocity=0 time=17
control_change channel=10 control=7 value=95 time=5
note_on channel=0 note=75 velocity=81 time=10
control_change channel=10 control=7 value=94 time=0
note_on channel=9 note=35 velocity=0 time=13
note_on channel=0 note=80 velocity=49 time=5
note_on channel=0 note=84 velocity=69 time=1
control_change channel=10 control=7 value=92 time=5
note_on channel=9 note=44 velocity=0 time=4
note_on channel=9 note=35 velocity=108 time=0
note_on channel=9 note=44 velocity=100 time=0
note_on channel=4 note=32 velocity=102 time=4
note_on channel=10 note=72 velocity=0 time=38
note_on channel=9 note=35 velocity=0 time=3
note_on channel=14 note=72 velocity=0 time=5
note_on channel=2 note=72 velocity=0 time=2
note_on channel=7 note=84 velocity=0 time=1
note_on channel=2 note=63 velocity=66 time=3
note_on channel=5 note=72 velocity=0 time=4
note_on channel=9 note=44 velocity=0 time=0
note_on channel=7 note=84 velocity=0 time=0
note_on channel=5 note=63 velocity=90 time=0
note_on channel=7 note=75 velocity=127 time=0
note_on channel=9 note=44 velocity=100 time=0
note_on channel=10 note=63 velocity=75 time=3
note_on channel=10 note=72 velocity=0 time=8
note_on channel=7 note=72 velocity=0 time=2
note_on channel=7 note=63 velocity=108 time=1
note_on channel=4 note=32 velocity=0 time=3
note_on channel=2 note=68 velocity=39 time=36
note_on channel=9 note=44 velocity=0 time=7
note_on channel=7 note=75 velocity=0 time=0
note_on channel=5 note=68 velocity=88 time=0
note_on channel=7 note=80 velocity=77 time=0
note_on channel=9 note=40 velocity=108 time=0
note_on channel=9 note=44 velocity=100 time=0
note_on channel=2 note=63 velocity=0 time=3
note_on channel=7 note=68 velocity=102 time=0
note_on channel=10 note=68 velocity=79 time=1
note_on channel=4 note=32 velocity=108 time=1
note_on channel=0 note=44 velocity=0 time=3
note_on channel=7 note=63 velocity=0 time=8
note_on channel=0 note=56 velocity=0 time=3
note_on channel=5 note=63 velocity=0 time=11
note_on channel=0 note=60 velocity=0 time=4
note_on channel=0 note=63 velocity=0 time=6
note_on channel=9 note=40 velocity=0 time=5
note_on channel=2 note=72 velocity=54 time=4
note_on channel=0 note=44 velocity=0 time=2
note_on channel=2 note=68 velocity=0 time=5
note_on channel=10 note=72 velocity=84 time=1
note_on channel=0 note=56 velocity=0 time=3
note_on channel=5 note=68 velocity=0 time=0
note_on channel=9 note=44 velocity=0 time=0
note_on channel=7 note=80 velocity=0 time=0
note_on channel=5 note=72 velocity=102 time=0
note_on channel=7 note=84 velocity=92 time=0
note_on channel=9 note=44 velocity=100 time=0
note_on channel=7 note=72 velocity=105 time=1
note_on channel=7 note=71 velocity=105 time=0
note_on channel=10 note=68 velocity=0 time=1
note_on channel=4 note=32 velocity=0 time=7
note_on channel=7 note=68 velocity=0 time=0
note_on channel=7 note=71 velocity=0 time=11
note_on channel=10 note=63 velocity=0 time=17
note_on channel=10 note=72 velocity=0 time=12
note_on channel=2 note=72 velocity=0 time=0
note_on channel=7 note=72 velocity=0 time=5
note_on channel=0 note=58 velocity=83 time=2
note_on channel=10 note=74 velocity=63 time=0
note_on channel=0 note=46 velocity=79 time=1
note_on channel=10 note=60 velocity=0 time=1
note_on channel=7 note=84 velocity=0 time=2
note_on channel=10 note=44 velocity=0 time=0
note_on channel=5 note=72 velocity=0 time=0
note_on channel=9 note=44 velocity=0 time=0
note_on channel=2 note=74 velocity=40 time=0
note_on channel=5 note=74 velocity=57 time=0
note_on channel=7 note=86 velocity=115 time=0
note_on channel=9 note=35 velocity=108 time=0
note_on channel=9 note=44 velocity=100 time=0
note_on channel=10 note=56 velocity=0 time=1
note_on channel=0 note=75 velocity=0 time=0
note_on channel=7 note=74 velocity=124 time=1
note_on channel=0 note=84 velocity=0 time=1
note_on channel=0 note=80 velocity=0 time=0
note_on channel=0 note=44 velocity=65 time=6
note_on channel=0 note=56 velocity=61 time=2
note_on channel=4 note=32 velocity=112 time=0
note_on channel=10 note=62 velocity=67 time=0
note_on channel=0 note=62 velocity=58 time=3
note_on channel=0 note=58 velocity=55 time=0
note_on channel=10 note=58 velocity=86 time=0
note_on channel=10 note=56 velocity=55 time=5
note_on channel=10 note=44 velocity=60 time=0
note_on channel=9 note=35 velocity=0 time=26
note_on channel=4 note=32 velocity=0 time=15
note_on channel=9 note=44 velocity=0 time=0
note_on channel=9 note=44 velocity=100 time=0
note_on channel=9 note=40 velocity=108 time=30
note_on channel=9 note=44 velocity=0 time=30
note_on channel=4 note=32 velocity=127 time=0
note_on channel=9 note=44 velocity=100 time=0
note_on channel=9 note=40 velocity=0 time=15
note_on channel=9 note=44 velocity=0 time=45
note_on channel=9 note=35 velocity=108 time=0
note_on channel=9 note=44 velocity=100 time=0
note_on channel=4 note=32 velocity=0 time=11
note_on channel=0 note=77 velocity=88 time=19
note_on channel=9 note=35 velocity=0 time=15
note_on channel=0 note=82 velocity=92 time=3
note_on channel=0 note=86 velocity=119 time=5
note_on channel=9 note=44 velocity=0 time=7
note_on channel=9 note=33 velocity=108 time=0
note_on channel=9 note=44 velocity=100 time=0
note_on channel=4 note=32 velocity=119 time=3
note_on channel=10 note=74 velocity=0 time=25
note_on channel=2 note=74 velocity=0 time=2
note_on channel=5 note=74 velocity=0 time=0
note_on channel=7 note=86 velocity=0 time=0
note_on channel=7 note=74 velocity=0 time=13
note_on channel=9 note=33 velocity=0 time=2
note_on channel=10 note=74 velocity=64 time=13
note_on channel=9 note=44 velocity=0 time=2
note_on channel=2 note=74 velocity=60 time=0
note_on channel=5 note=74 velocity=74 time=0
note_on channel=7 note=86 velocity=74 time=0
note_on channel=9 note=44 velocity=100 time=0
note_on channel=7 note=74 velocity=88 time=2
note_on channel=4 note=32 velocity=0 time=9
note_on channel=0 note=58 velocity=0 time=12
note_on channel=0 note=46 velocity=0 time=6
note_on channel=0 note=56 velocity=0 time=12
note_on channel=0 note=44 velocity=0 time=7
note_on channel=10 note=75 velocity=43 time=0
note_on channel=7 note=75 velocity=115 time=8
note_on channel=10 note=74 velocity=0 time=3
note_on channel=2 note=74 velocity=0 time=1
note_on channel=5 note=74 velocity=0 time=0
note_on channel=9 note=44 velocity=0 time=0
note_on channel=7 note=86 velocity=0 time=0
note_on channel=2 note=75 velocity=44 time=0
note_on channel=5 note=75 velocity=61 time=0
note_on channel=7 note=87 velocity=74 time=0
note_on channel=9 note=45 velocity=108 time=0
note_on channel=9 note=44 velocity=100 time=0
note_on channel=4 note=32 velocity=127 time=5
note_on channel=7 note=74 velocity=0 time=4
note_on channel=2 note=77 velocity=33 time=21
note_on channel=9 note=45 velocity=0 time=15
note_on channel=0 note=62 velocity=0 time=2
note_on channel=10 note=75 velocity=0 time=5
note_on channel=0 note=58 velocity=0 time=0
note_on channel=7 note=77 velocity=127 time=0
note_on channel=10 note=77 velocity=94 time=0
note_on channel=5 note=75 velocity=0 time=8
note_on channel=9 note=44 velocity=0 time=0
note_on channel=7 note=75 velocity=0 time=0
note_on channel=2 note=75 velocity=0 time=0
note_on channel=7 note=87 velocity=0 time=0
note_on channel=5 note=77 velocity=68 time=0
note_on channel=7 note=89 velocity=59 time=0
note_on channel=9 note=44 velocity=100 time=0
note_on channel=10 note=56 velocity=0 time=14
note_on channel=4 note=32 velocity=0 time=3
note_on channel=10 note=44 velocity=0 time=3
note_on channel=10 note=62 velocity=0 time=17
note_on channel=10 note=58 velocity=0 time=4
note_on channel=7 note=77 velocity=0 time=3
note_on channel=7 note=70 velocity=127 time=6
note_on channel=0 note=43 velocity=68 time=2
note_on channel=0 note=55 velocity=58 time=3
note_on channel=10 note=43 velocity=83 time=1
note_on channel=10 note=55 velocity=72 time=0
note_on channel=10 note=77 velocity=0 time=1
note_on channel=0 note=43 velocity=61 time=2
note_on channel=9 note=44 velocity=0 time=1
note_on channel=2 note=77 velocity=0 time=0
note_on channel=7 note=89 velocity=0 time=0
note_on channel=5 note=77 velocity=0 time=0
note_on channel=0 note=55 velocity=69 time=0
note_on channel=0 note=58 velocity=53 time=0
note_on channel=2 note=70 velocity=73 time=0
note_on channel=5 note=70 velocity=54 time=0
note_on channel=7 note=82 velocity=105 time=0
note_on channel=9 note=36 velocity=108 time=0
note_on channel=9 note=44 velocity=100 time=0
note_on channel=10 note=58 velocity=81 time=0
note_on channel=0 note=82 velocity=0 time=1
note_on channel=0 note=62 velocity=67 time=0
note_on channel=10 note=70 velocity=58 time=0
note_on channel=10 note=62 velocity=97 time=0
note_on channel=0 note=77 velocity=0 time=5
note_on channel=0 note=86 velocity=0 time=0
note_on channel=4 note=31 velocity=97 time=4
control_change channel=10 control=7 value=93 time=15
note_on channel=9 note=36 velocity=0 time=20
note_on channel=9 note=44 velocity=0 time=15
note_on channel=9 note=44 velocity=100 time=0
note_on channel=4 note=31 velocity=0 time=13
note_on channel=9 note=40 velocity=108 time=17
note_on channel=9 note=44 velocity=0 time=30
note_on channel=9 note=44 velocity=100 time=0
note_on channel=4 note=31 velocity=94 time=2
note_on channel=9 note=40 velocity=0 time=13
note_on channel=9 note=44 velocity=0 time=45
note_on channel=9 note=35 velocity=108 time=0
note_on channel=9 note=44 velocity=100 time=0
note_on channel=4 note=31 velocity=0 time=10
note_on channel=0 note=77 velocity=49 time=3
note_on channel=0 note=82 velocity=33 time=26
note_on channel=0 note=79 velocity=15 time=3
note_on channel=9 note=35 velocity=0 time=3
note_on channel=0 note=86 velocity=115 time=2
note_on channel=4 note=31 velocity=94 time=11
note_on channel=9 note=44 velocity=0 time=2
note_on channel=9 note=35 velocity=108 time=0
note_on channel=9 note=44 velocity=100 time=0
note_on channel=10 note=70 velocity=0 time=15
note_on channel=7 note=70 velocity=0 time=15
note_on channel=2 note=70 velocity=0 time=0
note_on channel=5 note=70 velocity=0 time=0
note_on channel=9 note=35 velocity=0 time=15
note_on channel=7 note=70 velocity=127 time=13
note_on channel=10 note=70 velocity=61 time=0
note_on channel=9 note=44 velocity=0 time=2
note_on channel=7 note=82 velocity=0 time=0
note_on channel=2 note=70 velocity=62 time=0
note_on channel=5 note=70 velocity=65 time=0
note_on channel=7 note=82 velocity=97 time=0
note_on channel=9 note=44 velocity=100 time=0
note_on channel=4 note=31 velocity=0 time=8
note_on channel=0 note=43 velocity=0 time=28
note_on channel=0 note=55 velocity=0 time=5
note_on channel=7 note=75 velocity=66 time=9
note_on channel=4 note=31 velocity=97 time=7
note_on channel=7 note=70 velocity=0 time=1
note_on channel=10 note=75 velocity=52 time=1
note_on channel=5 note=70 velocity=0 time=1
note_on channel=2 note=70 velocity=0 time=0
note_on channel=9 note=44 velocity=0 time=0
note_on channel=7 note=82 velocity=0 time=0
note_on channel=2 note=75 velocity=36 time=0
note_on channel=5 note=75 velocity=79 time=0
note_on channel=7 note=87 velocity=80 time=0
note_on channel=9 note=40 velocity=108 time=0
note_on channel=9 note=46 velocity=100 time=0
note_on channel=0 note=43 velocity=0 time=5
note_on channel=0 note=55 velocity=0 time=11
note_on channel=10 note=70 velocity=0 time=9
note_on channel=7 note=87 velocity=0 time=5
note_on channel=0 note=58 velocity=0 time=1
note_on channel=7 note=75 velocity=0 time=3
note_on channel=0 note=62 velocity=0 time=8
note_on channel=9 note=40 velocity=0 time=3
note_on channel=10 note=75 velocity=0 time=2
note_on channel=7 note=82 velocity=81 time=2
note_on channel=4 note=31 velocity=0 time=10
note_on channel=2 note=75 velocity=0 time=1
note_on channel=5 note=75 velocity=0 time=0
note_on channel=9 note=46 velocity=0 time=0
note_on channel=2 note=82 velocity=39 time=0
note_on channel=5 note=82 velocity=37 time=0
note_on channel=7 note=94 velocity=127 time=0
note_on channel=9 note=44 velocity=100 time=0
note_on channel=10 note=82 velocity=84 time=0
note_on channel=10 note=43 velocity=0 time=5
note_on channel=10 note=55 velocity=0 time=5
note_on channel=10 note=82 velocity=0 time=18
note_on channel=5 note=82 velocity=0 time=2
note_on channel=2 note=82 velocity=0 time=0
note_on channel=7 note=94 velocity=0 time=0
note_on channel=7 note=82 velocity=0 time=2
note_on channel=10 note=58 velocity=0 time=13
note_on channel=10 note=62 velocity=0 time=1
note_on channel=10 note=60 velocity=49 time=4
note_on channel=0 note=44 velocity=55 time=2
note_on channel=7 note=82 velocity=94 time=0
note_on channel=10 note=82 velocity=43 time=0
note_on channel=0 note=56 velocity=63 time=1
note_on channel=0 note=44 velocity=84 time=3
note_on channel=0 note=56 velocity=112 time=3
note_on channel=0 note=60 velocity=66 time=0
note_on channel=0 note=63 velocity=50 time=0
note_on channel=10 note=44 velocity=72 time=0
note_on channel=9 note=44 velocity=0 time=1
note_on channel=2 note=82 velocity=60 time=0
note_on channel=5 note=82 velocity=49 time=0
note_on channel=7 note=94 velocity=127 time=0
note_on channel=9 note=35 velocity=108 time=0
note_on channel=9 note=44 velocity=100 time=0
note_on channel=4 note=32 velocity=119 time=2
note_on channel=10 note=56 velocity=88 time=3
note_on channel=0 note=79 velocity=0 time=2
note_on channel=0 note=86 velocity=0 time=9
note_on channel=0 note=82 velocity=0 time=3
note_on channel=0 note=77 velocity=0 time=0
note_on channel=9 note=35 velocity=0 time=26
note_on channel=9 note=44 velocity=0 time=15
note_on channel=9 note=44 velocity=100 time=0
note_on channel=4 note=32 velocity=0 time=12
note_on channel=9 note=40 velocity=108 time=18
note_on channel=10 note=80 velocity=37 time=23
note_on channel=7 note=80 velocity=77 time=4
note_on channel=10 note=82 velocity=0 time=2
note_on channel=9 note=44 velocity=0 time=1
note_on channel=7 note=94 velocity=0 time=0
note_on channel=5 note=82 velocity=0 time=0
note_on channel=2 note=82 velocity=0 time=0
note_on channel=2 note=80 velocity=44 time=0
note_on channel=5 note=82 velocity=53 time=0
note_on channel=7 note=92 velocity=100 time=0
note_on channel=9 note=44 velocity=100 time=0
note_on channel=4 note=32 velocity=119 time=4
note_on channel=9 note=40 velocity=0 time=11
note_on channel=7 note=82 velocity=0 time=0
note_on channel=7 note=80 velocity=0 time=35
note_on channel=10 note=79 velocity=64 time=1
note_on channel=7 note=79 velocity=92 time=4
note_on channel=10 note=80 velocity=0 time=4
note_on channel=9 note=44 velocity=0 time=1
note_on channel=7 note=92 velocity=0 time=0
note_on channel=5 note=82 velocity=0 time=0
note_on channel=2 note=80 velocity=0 time=0
note_on channel=2 note=79 velocity=45 time=0
note_on channel=5 note=79 velocity=49 time=0
note_on channel=7 note=91 velocity=90 time=0
note_on channel=9 note=35 velocity=108 time=0
note_on channel=9 note=44 velocity=100 time=0
note_on channel=4 note=32 velocity=0 time=11
note_on channel=2 note=77 velocity=52 time=19
note_on channel=0 note=75 velocity=41 time=5
note_on channel=9 note=35 velocity=0 time=10
note_on channel=7 note=77 velocity=127 time=6
note_on channel=10 note=77 velocity=52 time=5
note_on channel=10 note=79 velocity=0 time=3
note_on channel=7 note=79 velocity=0 time=1
note_on channel=9 note=44 velocity=0 time=0
note_on channel=7 note=91 velocity=0 time=0
note_on channel=5 note=79 velocity=0 time=0
note_on channel=2 note=79 velocity=0 time=0
note_on channel=0 note=80 velocity=66 time=0
note_on channel=0 note=84 velocity=75 time=0
note_on channel=5 note=77 velocity=63 time=0
note_on channel=7 note=89 velocity=90 time=0
note_on channel=9 note=33 velocity=108 time=0
note_on channel=9 note=44 velocity=100 time=0
note_on channel=4 note=32 velocity=127 time=5
control_change channel=0 control=7 value=109 time=35
note_on channel=9 note=33 velocity=0 time=5
note_on channel=9 note=44 velocity=0 time=15
note_on channel=9 note=44 velocity=100 time=0
note_on channel=4 note=32 velocity=0 time=13
control_change channel=0 control=7 value=108 time=15
control_change channel=0 control=7 value=106 time=5
control_change channel=0 control=7 value=105 time=5
note_on channel=7 note=75 velocity=112 time=19
note_on channel=10 note=75 velocity=38 time=0
note_on channel=10 note=77 velocity=0 time=1
note_on channel=7 note=89 velocity=0 time=2
note_on channel=9 note=44 velocity=0 time=0
note_on channel=2 note=77 velocity=0 time=0
note_on channel=5 note=77 velocity=0 time=0
note_on channel=2 note=75 velocity=72 time=0
note_on channel=5 note=75 velocity=39 time=0
note_on channel=7 note=87 velocity=99 time=0
note_on channel=9 note=45 velocity=108 time=0
note_on channel=9 note=44 velocity=100 time=0
note_on channel=7 note=77 velocity=0 time=2
note_on channel=4 note=32 velocity=127 time=5
control_change channel=0 control=7 value=103 time=5
control_change channel=0 control=7 value=102 time=5
control_change channel=0 control=7 value=100 time=5
control_change channel=0 control=7 value=99 time=5
note_on channel=0 note=56 velocity=0 time=11
control_change channel=0 control=7 value=95 time=0
note_on channel=9 note=45 velocity=0 time=7
note_on channel=0 note=44 velocity=0 time=2
note_on channel=0 note=60 velocity=0 time=1
note_on channel=0 note=63 velocity=0 time=2
note_on channel=4 note=32 velocity=0 time=9
note_on channel=0 note=56 velocity=0 time=1
note_on channel=9 note=44 velocity=0 time=0
note_on channel=9 note=46 velocity=100 time=0
note_on channel=0 note=44 velocity=0 time=6
control_change channel=0 control=7 value=94 time=0
control_change channel=0 control=7 value=89 time=5
note_on channel=10 note=60 velocity=0 time=4
note_on channel=10 note=56 velocity=0 time=1
control_change channel=0 control=7 value=80 time=5
note_on channel=10 note=44 velocity=0 time=2
note_on channel=0 note=75 velocity=0 time=4
note_on channel=0 note=80 velocity=0 time=0
control_change channel=0 control=7 value=74 time=0
note_on channel=2 note=75 velocity=0 time=3
note_on channel=0 note=84 velocity=0 time=7
note_on channel=10 note=75 velocity=0 time=3
note_on channel=7 note=75 velocity=0 time=5
note_on channel=0 note=61 velocity=97 time=13
note_on channel=0 note=56 velocity=94 time=0
note_on channel=0 note=65 velocity=102 time=0
note_on channel=0 note=41 velocity=115 time=1
note_on channel=0 note=53 velocity=124 time=0
note_on channel=7 note=87 velocity=0 time=1
note_on channel=9 note=46 velocity=0 time=0
note_on channel=5 note=75 velocity=0 time=0
note_on channel=5 note=77 velocity=75 time=0
note_on channel=10 note=77 velocity=75 time=0
note_on channel=4 note=29 velocity=105 time=1
note_on channel=9 note=46 velocity=127 time=1
note_on channel=9 note=36 velocity=127 time=1
note_on channel=12 note=65 velocity=99 time=1
note_on channel=13 note=65 velocity=99 time=0
note_on channel=9 note=46 velocity=0 time=24
note_on channel=9 note=44 velocity=99 time=33
note_on channel=9 note=44 velocity=0 time=23
note_on channel=12 note=67 velocity=97 time=5
note_on channel=13 note=67 velocity=97 time=0
note_on channel=12 note=65 velocity=0 time=7
note_on channel=13 note=65 velocity=0 time=0
note_on channel=9 note=44 velocity=119 time=25
note_on channel=9 note=44 velocity=0 time=24
note_on channel=4 note=29 velocity=0 time=19
note_on channel=10 note=77 velocity=0 time=6
note_on channel=5 note=77 velocity=0 time=0
note_on channel=12 note=67 velocity=0 time=2
note_on channel=13 note=67 velocity=0 time=0
note_on channel=12 note=68 velocity=99 time=2
note_on channel=13 note=68 velocity=99 time=0
note_on channel=9 note=44 velocity=115 time=6
control_change channel=0 control=7 value=75 time=5
note_on channel=5 note=79 velocity=84 time=8
note_on channel=10 note=79 velocity=84 time=0
note_on channel=9 note=36 velocity=0 time=1
note_on channel=4 note=29 velocity=88 time=1
note_on channel=0 note=41 velocity=0 time=5
note_on channel=0 note=53 velocity=0 time=0
note_on channel=0 note=61 velocity=0 time=0
note_on channel=0 note=65 velocity=0 time=1
note_on channel=0 note=56 velocity=0 time=2
note_on channel=9 note=44 velocity=0 time=2
note_on channel=5 note=80 velocity=112 time=8
note_on channel=10 note=80 velocity=112 time=0
note_on channel=10 note=79 velocity=0 time=10
note_on channel=5 note=79 velocity=0 time=0
note_on channel=4 note=29 velocity=0 time=6
note_on channel=0 note=70 velocity=102 time=4
note_on channel=0 note=55 velocity=119 time=0
note_on channel=0 note=61 velocity=108 time=0
note_on channel=0 note=43 velocity=127 time=1
note_on channel=0 note=63 velocity=119 time=0
note_on channel=9 note=47 velocity=127 time=4
note_on channel=12 note=68 velocity=0 time=1
note_on channel=13 note=68 velocity=0 time=0
note_on channel=9 note=40 velocity=127 time=0
note_on channel=5 note=82 velocity=124 time=1
note_on channel=9 note=44 velocity=108 time=0
note_on channel=10 note=82 velocity=124 time=0
note_on channel=12 note=70 velocity=86 time=4
note_on channel=13 note=70 velocity=86 time=0
note_on channel=5 note=80 velocity=0 time=2
note_on channel=10 note=80 velocity=0 time=0
note_on channel=4 note=31 velocity=105 time=0
note_on channel=9 note=44 velocity=0 time=7
note_on channel=9 note=47 velocity=0 time=21
note_on channel=9 note=40 velocity=0 time=15
note_on channel=9 note=44 velocity=108 time=7
note_on channel=9 note=44 velocity=0 time=22
note_on channel=5 note=82 velocity=0 time=32
note_on channel=10 note=82 velocity=0 time=0
note_on channel=12 note=70 velocity=0 time=6
note_on channel=13 note=70 velocity=0 time=0
note_on channel=12 note=63 velocity=83 time=0
note_on channel=13 note=63 velocity=83 time=0
note_on channel=9 note=44 velocity=81 time=4
note_on channel=5 note=75 velocity=108 time=8
note_on channel=10 note=75 velocity=108 time=0
note_on channel=9 note=44 velocity=0 time=9
note_on channel=9 note=44 velocity=102 time=37
note_on channel=9 note=44 velocity=0 time=16
note_on channel=10 note=75 velocity=0 time=2
note_on channel=5 note=75 velocity=0 time=0
note_on channel=0 note=63 velocity=0 time=16
note_on channel=0 note=43 velocity=0 time=2
note_on channel=0 note=55 velocity=0 time=1
note_on channel=4 note=31 velocity=0 time=1
note_on channel=0 note=70 velocity=0 time=1
note_on channel=13 note=63 velocity=0 time=2
note_on channel=0 note=61 velocity=0 time=0
note_on channel=12 note=63 velocity=0 time=0
note_on channel=9 note=36 velocity=127 time=21
note_on channel=9 note=46 velocity=127 time=1
note_on channel=0 note=68 velocity=115 time=2
note_on channel=12 note=63 velocity=115 time=0
note_on channel=13 note=63 velocity=115 time=0
note_on channel=0 note=61 velocity=112 time=3
note_on channel=0 note=49 velocity=124 time=0
note_on channel=0 note=63 velocity=124 time=1
note_on channel=0 note=37 velocity=112 time=0
note_on channel=5 note=75 velocity=108 time=0
note_on channel=10 note=75 velocity=108 time=0
note_on channel=4 note=37 velocity=127 time=4
note_on channel=9 note=46 velocity=0 time=12
note_on channel=9 note=36 velocity=0 time=24
note_on channel=9 note=44 velocity=108 time=11
note_on channel=9 note=44 velocity=0 time=21
note_on channel=12 note=65 velocity=69 time=5
note_on channel=13 note=65 velocity=69 time=0
note_on channel=12 note=63 velocity=0 time=4
note_on channel=13 note=63 velocity=0 time=0
note_on channel=9 note=44 velocity=119 time=31
note_on channel=9 note=44 velocity=0 time=19
note_on channel=10 note=75 velocity=0 time=19
note_on channel=5 note=75 velocity=0 time=0
note_on channel=4 note=37 velocity=0 time=5
note_on channel=12 note=67 velocity=99 time=13
note_on channel=13 note=67 velocity=99 time=0
note_on channel=5 note=77 velocity=105 time=5
note_on channel=10 note=77 velocity=105 time=0
note_on channel=9 note=44 velocity=115 time=4
note_on channel=12 note=65 velocity=0 time=1
note_on channel=13 note=65 velocity=0 time=0
note_on channel=4 note=37 velocity=102 time=2
note_on channel=5 note=79 velocity=99 time=16
note_on channel=10 note=79 velocity=99 time=0
note_on channel=9 note=44 velocity=0 time=3
note_on channel=10 note=77 velocity=0 time=8
note_on channel=5 note=77 velocity=0 time=0
note_on channel=5 note=80 velocity=127 time=12
note_on channel=10 note=80 velocity=127 time=0
note_on channel=0 note=63 velocity=0 time=4
note_on channel=5 note=79 velocity=0 time=1
note_on channel=10 note=79 velocity=0 time=0
note_on channel=0 note=49 velocity=0 time=3
note_on channel=0 note=68 velocity=0 time=0
note_on channel=0 note=61 velocity=0 time=1
note_on channel=0 note=37 velocity=0 time=0
note_on channel=4 note=37 velocity=0 time=0
note_on channel=9 note=47 velocity=97 time=8
note_on channel=12 note=67 velocity=0 time=1
note_on channel=13 note=67 velocity=0 time=0
note_on channel=9 note=44 velocity=115 time=0
note_on channel=9 note=40 velocity=127 time=0
note_on channel=4 note=30 velocity=94 time=5
note_on channel=12 note=68 velocity=102 time=0
note_on channel=13 note=68 velocity=102 time=0
note_on channel=0 note=42 velocity=127 time=5
note_on channel=0 note=54 velocity=124 time=1
note_on channel=0 note=58 velocity=127 time=1
note_on channel=0 note=61 velocity=127 time=3
note_on channel=9 note=44 velocity=0 time=7
note_on channel=9 note=40 velocity=0 time=4
note_on channel=9 note=47 velocity=0 time=4
note_on channel=9 note=44 velocity=108 time=31
note_on channel=9 note=44 velocity=0 time=19
note_on channel=5 note=73 velocity=72 time=28
note_on channel=10 note=73 velocity=72 time=0
note_on channel=5 note=80 velocity=0 time=1
note_on channel=10 note=80 velocity=0 time=0
note_on channel=13 note=68 velocity=0 time=6
note_on channel=12 note=68 velocity=0 time=0
note_on channel=12 note=61 velocity=99 time=1
note_on channel=13 note=61 velocity=99 time=0
note_on channel=9 note=44 velocity=115 time=8
note_on channel=9 note=44 velocity=0 time=15
note_on channel=9 note=44 velocity=112 time=40
note_on channel=10 note=73 velocity=0 time=4
note_on channel=5 note=73 velocity=0 time=0
note_on channel=9 note=44 velocity=0 time=9
note_on channel=0 note=54 velocity=0 time=25
note_on channel=13 note=61 velocity=0 time=1
note_on channel=12 note=61 velocity=0 time=0
note_on channel=0 note=42 velocity=0 time=1
note_on channel=0 note=61 velocity=0 time=1
note_on channel=0 note=58 velocity=0 time=1
note_on channel=4 note=30 velocity=0 time=0
note_on channel=5 note=73 velocity=105 time=11
note_on channel=10 note=73 velocity=105 time=0
note_on channel=0 note=43 velocity=127 time=6
note_on channel=9 note=36 velocity=127 time=0
note_on channel=0 note=55 velocity=127 time=1
note_on channel=9 note=46 velocity=127 time=1
note_on channel=12 note=61 velocity=115 time=3
note_on channel=13 note=61 velocity=115 time=0
note_on channel=0 note=61 velocity=127 time=1
note_on channel=4 note=31 velocity=88 time=0
note_on channel=0 note=59 velocity=119 time=1
note_on channel=9 note=46 velocity=0 time=15
note_on channel=9 note=36 velocity=0 time=6
note_on channel=9 note=44 velocity=108 time=31
note_on channel=9 note=44 velocity=0 time=18
note_on channel=12 note=62 velocity=84 time=9
note_on channel=13 note=62 velocity=84 time=0
note_on channel=13 note=61 velocity=0 time=4
note_on channel=12 note=61 velocity=0 time=0
note_on channel=9 note=44 velocity=127 time=27
note_on channel=9 note=44 velocity=0 time=20
note_on channel=9 note=44 velocity=127 time=40
note_on channel=12 note=64 velocity=84 time=5
note_on channel=13 note=64 velocity=84 time=0
note_on channel=12 note=62 velocity=0 time=3
note_on channel=10 note=73 velocity=0 time=0
note_on channel=13 note=62 velocity=0 time=0
note_on channel=5 note=73 velocity=0 time=0
note_on channel=4 note=31 velocity=0 time=1
note_on channel=5 note=74 velocity=68 time=3
note_on channel=10 note=74 velocity=68 time=0
note_on channel=9 note=44 velocity=0 time=8
note_on channel=4 note=31 velocity=59 time=2
note_on channel=5 note=76 velocity=40 time=6
note_on channel=10 note=76 velocity=40 time=0
note_on channel=10 note=74 velocity=0 time=16
note_on channel=5 note=74 velocity=0 time=0
note_on channel=4 note=31 velocity=0 time=6
note_on channel=5 note=81 velocity=90 time=6
note_on channel=10 note=81 velocity=90 time=0
note_on channel=12 note=64 velocity=0 time=8
note_on channel=13 note=64 velocity=0 time=0
note_on channel=9 note=44 velocity=115 time=1
note_on channel=5 note=76 velocity=0 time=1
note_on channel=10 note=76 velocity=0 time=0
note_on channel=9 note=47 velocity=108 time=0
note_on channel=9 note=40 velocity=127 time=3
note_on channel=4 note=31 velocity=90 time=2
note_on channel=12 note=57 velocity=105 time=0
note_on channel=13 note=57 velocity=105 time=0
note_on channel=9 note=44 velocity=0 time=16
note_on channel=9 note=40 velocity=0 time=3
note_on channel=9 note=47 velocity=0 time=4
note_on channel=9 note=44 velocity=124 time=32
note_on channel=9 note=44 velocity=0 time=17
note_on channel=12 note=57 velocity=0 time=29
note_on channel=13 note=57 velocity=0 time=0
note_on channel=9 note=44 velocity=112 time=16
note_on channel=12 note=57 velocity=94 time=7
note_on channel=13 note=57 velocity=94 time=0
note_on channel=9 note=44 velocity=0 time=11
note_on channel=0 note=55 velocity=0 time=34
note_on channel=9 note=44 velocity=97 time=4
note_on channel=0 note=43 velocity=0 time=2
note_on channel=0 note=61 velocity=0 time=5
note_on channel=0 note=59 velocity=0 time=1
note_on channel=9 note=44 velocity=0 time=7
note_on channel=4 note=31 velocity=0 time=17
note_on channel=4 note=30 velocity=100 time=29
note_on channel=7 note=78 velocity=119 time=0
note_on channel=9 note=49 velocity=127 time=0
note_on channel=9 note=44 velocity=127 time=3
note_on channel=9 note=36 velocity=127 time=0
note_on channel=0 note=38 velocity=124 time=1
note_on channel=0 note=62 velocity=127 time=1
note_on channel=0 note=66 velocity=119 time=1
note_on channel=0 note=50 velocity=124 time=0
note_on channel=0 note=57 velocity=105 time=1
note_on channel=0 note=59 velocity=92 time=2
note_on channel=12 note=66 velocity=127 time=1
note_on channel=13 note=66 velocity=127 time=0
note_on channel=0 note=59 velocity=0 time=7
note_on channel=9 note=49 velocity=0 time=3
note_on channel=5 note=81 velocity=0 time=0
note_on channel=10 note=81 velocity=0 time=0
note_on channel=12 note=57 velocity=0 time=2
note_on channel=13 note=57 velocity=0 time=0
note_on channel=9 note=44 velocity=0 time=3
note_on channel=7 note=78 velocity=0 time=2
note_on channel=9 note=36 velocity=0 time=4
note_on channel=7 note=77 velocity=119 time=3
note_on channel=5 note=78 velocity=45 time=14
note_on channel=10 note=78 velocity=45 time=0
note_on channel=5 note=78 velocity=55 time=12
note_on channel=9 note=44 velocity=99 time=0
note_on channel=10 note=78 velocity=55 time=0
note_on channel=7 note=77 velocity=0 time=4
note_on channel=7 note=78 velocity=94 time=5
note_on channel=9 note=44 velocity=0 time=13
note_on channel=7 note=78 velocity=0 time=8
note_on channel=7 note=77 velocity=115 time=8
note_on channel=7 note=77 velocity=0 time=19
note_on channel=9 note=44 velocity=102 time=3
note_on channel=7 note=78 velocity=97 time=1
note_on channel=7 note=78 velocity=0 time=21
note_on channel=9 note=44 velocity=0 time=0
note_on channel=7 note=77 velocity=108 time=4
note_on channel=10 note=78 velocity=0 time=6
note_on channel=5 note=78 velocity=0 time=0
note_on channel=7 note=77 velocity=0 time=9
note_on channel=7 note=78 velocity=68 time=4
note_on channel=7 note=78 velocity=0 time=15
note_on channel=9 note=44 velocity=112 time=0
note_on channel=7 note=77 velocity=94 time=8
note_on channel=7 note=77 velocity=0 time=11
note_on channel=9 note=44 velocity=0 time=4
note_on channel=7 note=78 velocity=84 time=2
note_on channel=7 note=78 velocity=0 time=15
note_on channel=7 note=77 velocity=90 time=6
note_on channel=9 note=47 velocity=115 time=10
note_on channel=9 note=40 velocity=127 time=3
note_on channel=7 note=77 velocity=0 time=1
note_on channel=9 note=44 velocity=112 time=2
note_on channel=9 note=38 velocity=108 time=0
note_on channel=7 note=78 velocity=92 time=3
note_on channel=9 note=44 velocity=0 time=5
note_on channel=9 note=38 velocity=0 time=3
note_on channel=7 note=78 velocity=0 time=7
note_on channel=9 note=40 velocity=0 time=3
note_on channel=9 note=47 velocity=0 time=3
note_on channel=7 note=77 velocity=92 time=2
note_on channel=7 note=77 velocity=0 time=10
note_on channel=7 note=78 velocity=73 time=5
note_on channel=5 note=78 velocity=0 time=2
note_on channel=10 note=78 velocity=0 time=0
note_on channel=9 note=44 velocity=108 time=10
note_on channel=7 note=78 velocity=0 time=2
note_on channel=7 note=77 velocity=79 time=7
note_on channel=7 note=77 velocity=0 time=13
note_on channel=9 note=44 velocity=0 time=0
note_on channel=7 note=78 velocity=97 time=3
note_on channel=7 note=78 velocity=0 time=16
note_on channel=7 note=77 velocity=102 time=7
note_on channel=9 note=38 velocity=127 time=11
note_on channel=7 note=77 velocity=0 time=3
note_on channel=7 note=78 velocity=79 time=4
note_on channel=9 note=44 velocity=97 time=3
note_on channel=7 note=78 velocity=0 time=7
note_on channel=9 note=38 velocity=0 time=0
note_on channel=7 note=77 velocity=61 time=3
note_on channel=9 note=44 velocity=0 time=7
note_on channel=7 note=77 velocity=0 time=3
note_on channel=13 note=66 velocity=0 time=8
note_on channel=12 note=66 velocity=0 time=0
note_on channel=0 note=50 velocity=0 time=19
note_on channel=0 note=38 velocity=0 time=1
note_on channel=9 note=38 velocity=74 time=0
note_on channel=9 note=44 velocity=90 time=7
note_on channel=0 note=66 velocity=0 time=3
note_on channel=0 note=62 velocity=0 time=0
note_on channel=9 note=38 velocity=0 time=5
note_on channel=0 note=57 velocity=0 time=2
note_on channel=9 note=38 velocity=74 time=4
note_on channel=9 note=44 velocity=0 time=1
note_on channel=9 note=38 velocity=0 time=13
note_on channel=9 note=38 velocity=127 time=4
note_on channel=9 note=38 velocity=0 time=12
note_on channel=5 note=78 velocity=81 time=0
note_on channel=10 note=78 velocity=81 time=0
note_on channel=0 note=43 velocity=115 time=12
note_on channel=0 note=55 velocity=108 time=0
note_on channel=0 note=66 velocity=127 time=4
note_on channel=0 note=62 velocity=105 time=0
note_on channel=4 note=30 velocity=0 time=1
note_on channel=0 note=69 velocity=127 time=0
note_on channel=4 note=31 velocity=97 time=0
note_on channel=9 note=49 velocity=100 time=0
note_on channel=9 note=36 velocity=127 time=0
note_on channel=9 note=44 velocity=127 time=0
note_on channel=12 note=66 velocity=124 time=2
note_on channel=13 note=66 velocity=124 time=0
note_on channel=9 note=44 velocity=0 time=21
note_on channel=9 note=36 velocity=0 time=8
note_on channel=9 note=44 velocity=83 time=26
note_on channel=9 note=49 velocity=0 time=3
note_on channel=9 note=44 velocity=0 time=15
note_on channel=12 note=67 velocity=70 time=2
note_on channel=13 note=67 velocity=70 time=0
note_on channel=12 note=66 velocity=0 time=8
note_on channel=13 note=66 velocity=0 time=0
note_on channel=9 note=44 velocity=127 time=31
note_on channel=9 note=44 velocity=0 time=19
note_on channel=4 note=31 velocity=0 time=33
note_on channel=10 note=78 velocity=0 time=1
note_on channel=5 note=78 velocity=0 time=0
note_on channel=12 note=69 velocity=127 time=0
note_on channel=13 note=69 velocity=127 time=0
note_on channel=12 note=67 velocity=0 time=2
note_on channel=13 note=67 velocity=0 time=0
note_on channel=5 note=79 velocity=64 time=5
note_on channel=9 note=44 velocity=112 time=0
note_on channel=10 note=79 velocity=64 time=0
note_on channel=5 note=81 velocity=81 time=12
note_on channel=10 note=81 velocity=81 time=0
note_on channel=4 note=31 velocity=102 time=3
note_on channel=9 note=44 velocity=0 time=3
note_on channel=10 note=79 velocity=0 time=10
note_on channel=5 note=79 velocity=0 time=0
note_on channel=4 note=31 velocity=0 time=10
note_on channel=5 note=86 velocity=72 time=8
note_on channel=10 note=86 velocity=72 time=3
note_on channel=5 note=81 velocity=0 time=7
note_on channel=10 note=81 velocity=0 time=0
note_on channel=13 note=69 velocity=0 time=4
note_on channel=12 note=69 velocity=0 time=0
note_on channel=9 note=47 velocity=108 time=3
note_on channel=9 note=40 velocity=127 time=1
note_on channel=12 note=62 velocity=102 time=2
note_on channel=13 note=62 velocity=102 time=0
note_on channel=4 note=31 velocity=112 time=3
note_on channel=9 note=40 velocity=0 time=19
note_on channel=9 note=47 velocity=0 time=3
note_on channel=9 note=44 velocity=112 time=31
note_on channel=9 note=44 velocity=0 time=19
note_on channel=13 note=62 velocity=0 time=0
note_on channel=12 note=62 velocity=0 time=0
note_on channel=12 note=62 velocity=99 time=46
note_on channel=13 note=62 velocity=99 time=0
note_on channel=9 note=44 velocity=105 time=1
note_on channel=9 note=44 velocity=0 time=15
note_on channel=9 note=44 velocity=119 time=37
note_on channel=0 note=55 velocity=0 time=4
note_on channel=0 note=43 velocity=0 time=2
note_on channel=0 note=66 velocity=0 time=4
note_on channel=0 note=69 velocity=0 time=2
note_on channel=9 note=44 velocity=0 time=2
note_on channel=0 note=62 velocity=0 time=3
note_on channel=4 note=31 velocity=0 time=22
note_on channel=4 note=34 velocity=99 time=20
note_on channel=9 note=44 velocity=127 time=4
note_on channel=13 note=62 velocity=0 time=1
note_on channel=12 note=62 velocity=0 time=0
note_on channel=7 note=79 velocity=127 time=0
note_on channel=9 note=36 velocity=127 time=0
note_on channel=0 note=62 velocity=112 time=1
note_on channel=0 note=58 velocity=108 time=0
note_on channel=0 note=67 velocity=112 time=1
note_on channel=12 note=67 velocity=102 time=3
note_on channel=13 note=67 velocity=102 time=0
note_on channel=0 note=46 velocity=127 time=3
note_on channel=5 note=86 velocity=0 time=8
note_on channel=10 note=86 velocity=0 time=3
note_on channel=9 note=44 velocity=0 time=3
note_on channel=7 note=79 velocity=0 time=0
note_on channel=4 note=34 velocity=0 time=3
note_on channel=7 note=78 velocity=119 time=0
note_on channel=9 note=36 velocity=0 time=6
note_on channel=7 note=78 velocity=0 time=15
note_on channel=7 note=79 velocity=127 time=3
note_on channel=4 note=34 velocity=53 time=6
note_on channel=9 note=44 velocity=83 time=2
note_on channel=7 note=79 velocity=0 time=10
note_on channel=7 note=78 velocity=105 time=5
note_on channel=9 note=44 velocity=0 time=3
note_on channel=4 note=34 velocity=0 time=4
note_on channel=7 note=78 velocity=0 time=13
note_on channel=7 note=79 velocity=124 time=1
note_on channel=4 note=34 velocity=67 time=18
note_on channel=7 note=79 velocity=0 time=2
note_on channel=9 note=44 velocity=127 time=3
note_on channel=7 note=78 velocity=105 time=1
note_on channel=9 note=44 velocity=0 time=18
note_on channel=7 note=79 velocity=119 time=2
note_on channel=7 note=78 velocity=0 time=1
note_on channel=4 note=34 velocity=0 time=1
note_on channel=7 note=79 velocity=0 time=19
note_on channel=7 note=78 velocity=112 time=6
note_on channel=4 note=34 velocity=83 time=8
note_on channel=9 note=44 velocity=112 time=4
note_on channel=7 note=79 velocity=94 time=9
note_on channel=7 note=78 velocity=0 time=4
note_on channel=9 note=44 velocity=0 time=5
note_on channel=4 note=34 velocity=0 time=3
note_on channel=7 note=79 velocity=0 time=5
note_on channel=7 note=78 velocity=94 time=2
note_on channel=7 note=79 velocity=115 time=23
note_on channel=7 note=78 velocity=0 time=1
note_on channel=4 note=34 velocity=127 time=6
note_on channel=9 note=47 velocity=108 time=5
note_on channel=9 note=40 velocity=127 time=1
note_on channel=7 note=79 velocity=0 time=10
note_on channel=4 note=34 velocity=0 time=7
note_on channel=7 note=78 velocity=127 time=1
note_on channel=9 note=40 velocity=0 time=6
note_on channel=9 note=47 velocity=0 time=3
note_on channel=7 note=78 velocity=0 time=9
note_on channel=7 note=79 velocity=115 time=3
note_on channel=4 note=34 velocity=119 time=12
note_on channel=7 note=79 velocity=0 time=7
note_on channel=9 note=44 velocity=112 time=0
note_on channel=7 note=78 velocity=127 time=4
note_on channel=7 note=79 velocity=52 time=12
note_on channel=4 note=34 velocity=0 time=1
note_on channel=9 note=44 velocity=0 time=2
note_on channel=7 note=78 velocity=0 time=3
note_on channel=7 note=79 velocity=0 time=15
note_on channel=4 note=34 velocity=127 time=25
note_on channel=12 note=70 velocity=105 time=0
note_on channel=13 note=70 velocity=105 time=0
note_on channel=9 note=44 velocity=105 time=4
note_on channel=13 note=67 velocity=0 time=7
note_on channel=12 note=67 velocity=0 time=0
note_on channel=4 note=34 velocity=0 time=7
note_on channel=9 note=44 velocity=0 time=1
note_on channel=0 note=58 velocity=0 time=33
note_on channel=0 note=62 velocity=0 time=3
note_on channel=9 note=44 velocity=119 time=1
control_change channel=0 control=7 value=78 time=4
control_change channel=0 control=7 value=77 time=0
note_on channel=4 note=34 velocity=97 time=0
note_on channel=9 note=38 velocity=127 time=1
note_on channel=0 note=46 velocity=0 time=7
note_on channel=9 note=44 velocity=0 time=2
note_on channel=0 note=67 velocity=0 time=0
control_change channel=0 control=7 value=80 time=15
note_on channel=9 note=38 velocity=0 time=10
note_on channel=4 note=32 velocity=119 time=21
note_on channel=5 note=72 velocity=112 time=1
note_on channel=13 note=70 velocity=0 time=2
note_on channel=12 note=70 velocity=0 time=0
note_on channel=9 note=36 velocity=127 time=0
note_on channel=9 note=44 velocity=127 time=0
note_on channel=4 note=34 velocity=0 time=1
note_on channel=9 note=36 velocity=119 time=0
note_on channel=7 note=72 velocity=127 time=2
note_on channel=10 note=72 velocity=127 time=0
note_on channel=12 note=72 velocity=79 time=1
note_on channel=13 note=72 velocity=79 time=0
note_on channel=9 note=44 velocity=127 time=2
note_on channel=9 note=36 velocity=0 time=10
note_on channel=9 note=44 velocity=0 time=4
note_on channel=9 note=44 velocity=0 time=3
note_on channel=9 note=36 velocity=0 time=3
note_on channel=10 note=72 velocity=0 time=23
note_on channel=5 note=72 velocity=0 time=3
note_on channel=10 note=67 velocity=86 time=0
note_on channel=7 note=72 velocity=0 time=1
note_on channel=5 note=67 velocity=81 time=2
note_on channel=7 note=67 velocity=94 time=0
note_on channel=9 note=44 velocity=102 time=3
control_change channel=0 control=7 value=83 time=5
control_change channel=0 control=7 value=81 time=0
control_change channel=0 control=7 value=84 time=5
note_on channel=9 note=44 velocity=0 time=8
note_on channel=5 note=72 velocity=127 time=7
note_on channel=10 note=72 velocity=127 time=0
note_on channel=5 note=67 velocity=0 time=4
note_on channel=7 note=72 velocity=127 time=1
note_on channel=10 note=67 velocity=0 time=1
note_on channel=9 note=44 velocity=119 time=2
note_on channel=4 note=32 velocity=0 time=3
note_on channel=7 note=67 velocity=0 time=1
note_on channel=9 note=44 velocity=0 time=11
note_on channel=5 note=72 velocity=0 time=8
note_on channel=5 note=74 velocity=105 time=2
note_on channel=10 note=74 velocity=127 time=0
note_on channel=10 note=72 velocity=0 time=2
note_on channel=4 note=31 velocity=105 time=1
note_on channel=7 note=74 velocity=127 time=0
note_on channel=7 note=72 velocity=0 time=1
note_on channel=9 note=40 velocity=119 time=1
note_on channel=9 note=44 velocity=127 time=0
note_on channel=12 note=74 velocity=73 time=0
note_on channel=13 note=74 velocity=73 time=0
note_on channel=9 note=40 velocity=0 time=15
note_on channel=12 note=72 velocity=0 time=0
note_on channel=13 note=72 velocity=0 time=0
note_on channel=9 note=44 velocity=0 time=3
note_on channel=10 note=74 velocity=0 time=30
note_on channel=5 note=74 velocity=0 time=0
note_on channel=7 note=74 velocity=0 time=2
note_on channel=5 note=72 velocity=88 time=1
note_on channel=10 note=72 velocity=112 time=0
note_on channel=7 note=72 velocity=112 time=4
note_on channel=9 note=44 velocity=108 time=6
note_on channel=9 note=44 velocity=0 time=17
note_on channel=5 note=72 velocity=0 time=0
note_on channel=5 note=74 velocity=115 time=3
note_on channel=10 note=74 velocity=127 time=0
note_on channel=7 note=74 velocity=127 time=3
note_on channel=10 note=72 velocity=0 time=2
note_on channel=4 note=31 velocity=0 time=2
note_on channel=7 note=72 velocity=0 time=0
note_on channel=9 note=44 velocity=119 time=2
note_on channel=9 note=44 velocity=0 time=15
note_on channel=10 note=75 velocity=127 time=9
note_on channel=12 note=75 velocity=105 time=1
note_on channel=13 note=75 velocity=105 time=0
note_on channel=5 note=74 velocity=0 time=1
note_on channel=5 note=75 velocity=119 time=1
note_on channel=10 note=74 velocity=0 time=1
note_on channel=7 note=75 velocity=127 time=1
note_on channel=9 note=36 velocity=119 time=1
note_on channel=7 note=74 velocity=0 time=1
note_on channel=13 note=74 velocity=0 time=3
note_on channel=12 note=74 velocity=0 time=0
note_on channel=4 note=29 velocity=108 time=0
note_on channel=9 note=44 velocity=119 time=0
note_on channel=9 note=36 velocity=0 time=11
note_on channel=9 note=44 velocity=0 time=4
note_on channel=10 note=75 velocity=0 time=33
note_on channel=5 note=75 velocity=0 time=1
note_on channel=5 note=74 velocity=105 time=1
note_on channel=10 note=74 velocity=105 time=0
note_on channel=7 note=75 velocity=0 time=4
note_on channel=7 note=74 velocity=127 time=0
note_on channel=9 note=44 velocity=112 time=4
note_on channel=10 note=74 velocity=0 time=16
note_on channel=9 note=44 velocity=0 time=1
note_on channel=10 note=75 velocity=127 time=2
note_on channel=4 note=29 velocity=0 time=4
note_on channel=5 note=75 velocity=119 time=1
note_on channel=5 note=74 velocity=0 time=1
note_on channel=7 note=75 velocity=127 time=2
control_change channel=0 control=7 value=86 time=1
note_on channel=9 note=44 velocity=119 time=0
note_on channel=7 note=74 velocity=0 time=7
control_change channel=0 control=7 value=87 time=0
control_change channel=0 control=7 value=92 time=5
note_on channel=9 note=44 velocity=0 time=3
note_on channel=10 note=75 velocity=0 time=7
note_on channel=10 note=77 velocity=127 time=3
note_on channel=5 note=75 velocity=0 time=4
note_on channel=4 note=27 velocity=112 time=1
note_on channel=9 note=40 velocity=119 time=0
note_on channel=7 note=75 velocity=0 time=1
note_on channel=7 note=77 velocity=127 time=1
note_on channel=5 note=77 velocity=127 time=1
note_on channel=9 note=44 velocity=127 time=0
note_on channel=12 note=77 velocity=59 time=8
note_on channel=13 note=77 velocity=59 time=0
note_on channel=13 note=75 velocity=0 time=2
note_on channel=12 note=75 velocity=0 time=0
note_on channel=9 note=40 velocity=0 time=2
note_on channel=9 note=44 velocity=0 time=5
note_on channel=10 note=77 velocity=0 time=37
note_on channel=5 note=77 velocity=0 time=1
note_on channel=10 note=75 velocity=115 time=0
note_on channel=7 note=75 velocity=105 time=1
note_on channel=5 note=75 velocity=78 time=1
note_on channel=7 note=77 velocity=0 time=1
note_on channel=9 note=44 velocity=115 time=1
note_on channel=9 note=44 velocity=0 time=15
note_on channel=7 note=77 velocity=124 time=8
note_on channel=10 note=77 velocity=124 time=0
note_on channel=5 note=77 velocity=41 time=4
note_on channel=7 note=75 velocity=0 time=1
note_on channel=9 note=44 velocity=119 time=0
note_on channel=10 note=75 velocity=0 time=1
control_change channel=0 control=7 value=93 time=0
note_on channel=5 note=75 velocity=0 time=3
control_change channel=0 control=7 value=95 time=0
note_on channel=4 note=27 velocity=0 time=6
note_on channel=9 note=44 velocity=0 time=5
note_on channel=7 note=77 velocity=0 time=5
note_on channel=5 note=77 velocity=0 time=0
note_on channel=10 note=77 velocity=0 time=2
control_change channel=0 control=7 value=97 time=1
note_on channel=7 note=79 velocity=127 time=0
note_on channel=10 note=79 velocity=127 time=2
note_on channel=10 note=77 velocity=105 time=1
note_on channel=5 note=79 velocity=105 time=1
note_on channel=10 note=77 velocity=0 time=3
control_change channel=0 control=7 value=98 time=0
note_on channel=4 note=38 velocity=112 time=0
note_on channel=9 note=44 velocity=127 time=0
note_on channel=9 note=36 velocity=127 time=0
note_on channel=9 note=49 velocity=127 time=0
note_on channel=12 note=79 velocity=108 time=4
note_on channel=13 note=79 velocity=108 time=0
note_on channel=13 note=77 velocity=0 time=5
note_on channel=12 note=77 velocity=0 time=0
note_on channel=9 note=49 velocity=0 time=10
note_on channel=9 note=36 velocity=0 time=0
note_on channel=9 note=44 velocity=0 time=4
note_on channel=9 note=44 velocity=127 time=41
note_on channel=9 note=44 velocity=0 time=23
note_on channel=9 note=40 velocity=127 time=33
note_on channel=9 note=46 velocity=127 time=0
note_on channel=14 note=62 velocity=78 time=0
note_on channel=14 note=74 velocity=99 time=3
note_on channel=2 note=62 velocity=78 time=1
note_on channel=2 note=74 velocity=99 time=3
note_on channel=11 note=74 velocity=102 time=0
note_on channel=11 note=62 velocity=77 time=5
note_on channel=14 note=62 velocity=0 time=11
note_on channel=14 note=64 velocity=54 time=2
note_on channel=14 note=74 velocity=0 time=1
note_on channel=14 note=76 velocity=97 time=0
note_on channel=2 note=62 velocity=0 time=1
note_on channel=2 note=64 velocity=54 time=2
note_on channel=2 note=74 velocity=0 time=1
note_on channel=2 note=76 velocity=97 time=0
note_on channel=11 note=76 velocity=127 time=4
note_on channel=11 note=64 velocity=127 time=3
note_on channel=9 note=40 velocity=0 time=4
note_on channel=9 note=46 velocity=0 time=0
note_on channel=11 note=74 velocity=0 time=0
note_on channel=11 note=62 velocity=0 time=3
note_on channel=14 note=76 velocity=0 time=4
note_on channel=14 note=64 velocity=0 time=1
note_on channel=2 note=76 velocity=0 time=3
note_on channel=2 note=64 velocity=0 time=1
note_on channel=11 note=76 velocity=0 time=0
note_on channel=11 note=64 velocity=0 time=2
note_on channel=9 note=44 velocity=105 time=5
note_on channel=9 note=44 velocity=0 time=23
note_on channel=14 note=67 velocity=90 time=3
note_on channel=14 note=65 velocity=83 time=1
note_on channel=14 note=79 velocity=124 time=1
note_on channel=2 note=67 velocity=90 time=2
note_on channel=2 note=79 velocity=124 time=2
note_on channel=11 note=79 velocity=124 time=6
note_on channel=11 note=67 velocity=108 time=1
note_on channel=14 note=65 velocity=0 time=4
note_on channel=4 note=38 velocity=0 time=17
note_on channel=9 note=36 velocity=127 time=0
note_on channel=9 note=49 velocity=127 time=1
note_on channel=4 note=38 velocity=49 time=17
note_on channel=9 note=36 velocity=0 time=23
note_on channel=9 note=49 velocity=0 time=1
note_on channel=14 note=67 velocity=0 time=4
note_on channel=14 note=79 velocity=0 time=1
note_on channel=11 note=67 velocity=0 time=1
note_on channel=14 note=69 velocity=81 time=0
note_on channel=2 note=67 velocity=0 time=2
note_on channel=14 note=81 velocity=99 time=0
note_on channel=2 note=79 velocity=0 time=1
note_on channel=2 note=69 velocity=81 time=1
note_on channel=2 note=81 velocity=99 time=2
note_on channel=11 note=79 velocity=0 time=2
note_on channel=9 note=44 velocity=119 time=0
note_on channel=11 note=81 velocity=127 time=9
note_on channel=14 note=81 velocity=0 time=4
note_on channel=2 note=81 velocity=0 time=4
note_on channel=11 note=69 velocity=112 time=0
note_on channel=14 note=69 velocity=0 time=3
note_on channel=2 note=69 velocity=0 time=4
note_on channel=9 note=44 velocity=0 time=3
note_on channel=4 note=38 velocity=0 time=5
note_on channel=11 note=81 velocity=0 time=4
note_on channel=11 note=69 velocity=0 time=10
note_on channel=14 note=67 velocity=88 time=3
note_on channel=4 note=38 velocity=63 time=1
note_on channel=14 note=79 velocity=94 time=1
note_on channel=2 note=67 velocity=88 time=2
control_change channel=1 control=7 value=126 time=2
note_on channel=2 note=79 velocity=94 time=0
note_on channel=11 note=79 velocity=94 time=8
note_on channel=9 note=46 velocity=127 time=1
note_on channel=9 note=36 velocity=127 time=0
control_change channel=1 control=7 value=124 time=3
note_on channel=11 note=67 velocity=88 time=0
note_on channel=14 note=69 velocity=99 time=7
note_on channel=14 note=81 velocity=102 time=0
note_on channel=14 note=79 velocity=0 time=4
note_on channel=2 note=69 velocity=99 time=0
note_on channel=2 note=81 velocity=102 time=0
note_on channel=11 note=81 velocity=102 time=2
note_on channel=2 note=79 velocity=0 time=2
note_on channel=14 note=67 velocity=0 time=0
control_change channel=1 control=7 value=123 time=0
note_on channel=11 note=69 velocity=83 time=2
note_on channel=2 note=67 velocity=0 time=2
note_on channel=11 note=79 velocity=0 time=5
note_on channel=11 note=67 velocity=0 time=4
note_on channel=14 note=69 velocity=0 time=2
note_on channel=9 note=46 velocity=0 time=1
note_on channel=2 note=69 velocity=0 time=3
note_on channel=9 note=36 velocity=0 time=4
note_on channel=14 note=83 velocity=102 time=4
note_on channel=14 note=71 velocity=108 time=0
note_on channel=11 note=83 velocity=127 time=3
note_on channel=2 note=83 velocity=102 time=1
note_on channel=2 note=71 velocity=108 time=0
note_on channel=14 note=81 velocity=0 time=1
note_on channel=11 note=81 velocity=0 time=0
note_on channel=11 note=71 velocity=127 time=1
note_on channel=11 note=69 velocity=0 time=3
note_on channel=2 note=81 velocity=0 time=0
note_on channel=9 note=44 velocity=108 time=4
note_on channel=11 note=71 velocity=0 time=11
note_on channel=11 note=83 velocity=0 time=1
note_on channel=14 note=83 velocity=0 time=2
note_on channel=14 note=71 velocity=0 time=0
control_change channel=1 control=7 value=121 time=0
note_on channel=2 note=83 velocity=0 time=4
note_on channel=2 note=71 velocity=0 time=0
note_on channel=4 note=38 velocity=0 time=4
note_on channel=9 note=44 velocity=0 time=4
control_change channel=1 control=7 value=120 time=0
note_on channel=12 note=79 velocity=0 time=13
note_on channel=13 note=79 velocity=0 time=0
note_on channel=5 note=79 velocity=0 time=5
note_on channel=5 note=81 velocity=66 time=2
note_on channel=10 note=81 velocity=127 time=1
note_on channel=14 note=74 velocity=105 time=0
note_on channel=14 note=86 velocity=127 time=1
note_on channel=10 note=79 velocity=0 time=3
note_on channel=2 note=74 velocity=105 time=0
note_on channel=7 note=81 velocity=127 time=0
note_on channel=2 note=86 velocity=127 time=1
note_on channel=11 note=74 velocity=127 time=0
note_on channel=7 note=79 velocity=0 time=1
note_on channel=11 note=86 velocity=127 time=2
note_on channel=9 note=44 velocity=127 time=7
note_on channel=9 note=36 velocity=127 time=0
note_on channel=9 note=49 velocity=127 time=0
note_on channel=2 note=81 velocity=127 time=1
note_on channel=4 note=38 velocity=88 time=5
pitchwheel channel=12 pitch=273 time=0
pitchwheel channel=12 pitch=273 time=0
control_change channel=1 control=7 value=118 time=1
pitchwheel channel=12 pitch=273 time=0
pitchwheel channel=12 pitch=683 time=4
pitchwheel channel=12 pitch=683 time=1
pitchwheel channel=12 pitch=683 time=0
pitchwheel channel=12 pitch=1366 time=5
pitchwheel channel=12 pitch=1366 time=1
pitchwheel channel=12 pitch=1366 time=0
note_on channel=9 note=49 velocity=0 time=1
note_on channel=9 note=36 velocity=0 time=0
pitchwheel channel=12 pitch=1775 time=0
pitchwheel channel=12 pitch=1775 time=1
pitchwheel channel=12 pitch=1775 time=0
pitchwheel channel=12 pitch=2275 time=2
note_on channel=9 note=44 velocity=0 time=1
pitchwheel channel=12 pitch=2275 time=0
pitchwheel channel=12 pitch=2275 time=0
pitchwheel channel=12 pitch=2867 time=2
pitchwheel channel=12 pitch=2867 time=0
pitchwheel channel=12 pitch=2867 time=0
pitchwheel channel=12 pitch=3550 time=2
pitchwheel channel=12 pitch=3550 time=1
pitchwheel channel=12 pitch=3550 time=0
pitchwheel channel=12 pitch=4232 time=2
pitchwheel channel=12 pitch=4232 time=0
pitchwheel channel=12 pitch=4232 time=0
pitchwheel channel=12 pitch=5120 time=2
pitchwheel channel=12 pitch=5120 time=0
pitchwheel channel=12 pitch=5120 time=1
pitchwheel channel=12 pitch=6007 time=1
pitchwheel channel=12 pitch=6007 time=1
pitchwheel channel=12 pitch=6007 time=0
note_on channel=14 note=74 velocity=0 time=2
note_on channel=14 note=86 velocity=0 time=1
pitchwheel channel=12 pitch=6963 time=0
pitchwheel channel=12 pitch=6963 time=1
pitchwheel channel=12 pitch=6963 time=0
pitchwheel channel=12 pitch=7737 time=1
pitchwheel channel=12 pitch=7737 time=0
note_on channel=2 note=74 velocity=0 time=1
pitchwheel channel=12 pitch=7737 time=0
note_on channel=2 note=86 velocity=0 time=1
pitchwheel channel=12 pitch=8191 time=1
pitchwheel channel=12 pitch=8191 time=0
pitchwheel channel=12 pitch=8191 time=1
pitchwheel channel=2 pitch=-238 time=9
pitchwheel channel=2 pitch=-238 time=0
pitchwheel channel=2 pitch=-238 time=1
note_on channel=11 note=86 velocity=0 time=3
control_change channel=1 control=7 value=117 time=0
pitchwheel channel=2 pitch=-597 time=0
pitchwheel channel=2 pitch=-597 time=1
pitchwheel channel=2 pitch=-597 time=0
pitchwheel channel=2 pitch=-1074 time=6
pitchwheel channel=2 pitch=-1074 time=0
pitchwheel channel=2 pitch=-1074 time=0
note_on channel=9 note=44 velocity=127 time=0
pitchwheel channel=2 pitch=-1535 time=2
pitchwheel channel=2 pitch=-1535 time=0
pitchwheel channel=2 pitch=-1535 time=1
note_on channel=11 note=74 velocity=0 time=1
pitchwheel channel=2 pitch=-2048 time=0
pitchwheel channel=2 pitch=-2048 time=0
pitchwheel channel=2 pitch=-2048 time=1
pitchwheel channel=2 pitch=-2346 time=2
pitchwheel channel=2 pitch=-2346 time=0
pitchwheel channel=2 pitch=-2346 time=0
control_change channel=7 control=7 value=74 time=0
pitchwheel channel=2 pitch=-2764 time=5
pitchwheel channel=2 pitch=-2764 time=1
pitchwheel channel=2 pitch=-2764 time=0
note_on channel=2 note=81 velocity=0 time=2
pitchwheel channel=2 pitch=-3122 time=3
pitchwheel channel=2 pitch=-3122 time=0
control_change channel=1 control=7 value=115 time=1
pitchwheel channel=2 pitch=-3122 time=0
note_on channel=9 note=44 velocity=0 time=4
pitchwheel channel=2 pitch=-2764 time=15
pitchwheel channel=2 pitch=-2764 time=0
pitchwheel channel=2 pitch=-2764 time=1
pitchwheel channel=2 pitch=-2545 time=1
pitchwheel channel=2 pitch=-2545 time=0
pitchwheel channel=2 pitch=-2545 time=1
pitchwheel channel=2 pitch=-2247 time=2
pitchwheel channel=2 pitch=-2247 time=1
pitchwheel channel=2 pitch=-2247 time=0
pitchwheel channel=2 pitch=-1535 time=1
pitchwheel channel=2 pitch=-1535 time=1
pitchwheel channel=2 pitch=-1535 time=0
pitchwheel channel=2 pitch=-716 time=3
pitchwheel channel=2 pitch=-716 time=0
pitchwheel channel=2 pitch=-716 time=0
pitchwheel channel=2 pitch=0 time=3
pitchwheel channel=2 pitch=0 time=0
pitchwheel channel=2 pitch=0 time=0
note_on channel=9 note=40 velocity=127 time=4
note_on channel=9 note=46 velocity=127 time=0
control_change channel=1 control=7 value=114 time=30
control_change channel=7 control=7 value=75 time=0
control_change channel=7 control=7 value=80 time=5
note_on channel=4 note=38 velocity=0 time=5
note_on channel=9 note=40 velocity=0 time=1
note_on channel=9 note=46 velocity=0 time=0
control_change channel=7 control=7 value=81 time=0
note_on channel=14 note=84 velocity=124 time=8
note_on channel=14 note=72 velocity=124 time=1
note_on channel=2 note=84 velocity=124 time=3
control_change channel=0 control=7 value=100 time=1
note_on channel=2 note=72 velocity=124 time=0
control_change channel=7 control=7 value=83 time=0
note_on channel=9 note=44 velocity=105 time=6
note_on channel=11 note=84 velocity=127 time=1
note_on channel=4 note=38 velocity=73 time=5
control_change channel=7 control=7 value=84 time=0
note_on channel=11 note=72 velocity=127 time=6
note_on channel=9 note=44 velocity=0 time=11
control_change channel=1 control=7 value=112 time=5
control_change channel=7 control=7 value=86 time=0
note_on channel=4 note=38 velocity=0 time=7
note_on channel=14 note=72 velocity=0 time=2
note_on channel=2 note=72 velocity=0 time=4
control_change channel=7 control=7 value=87 time=0
note_on channel=14 note=84 velocity=0 time=5
note_on channel=11 note=84 velocity=0 time=4
note_on channel=2 note=84 velocity=0 time=0
control_change channel=7 control=7 value=89 time=0
control_change channel=7 control=7 value=90 time=5
note_on channel=9 note=49 velocity=127 time=5
note_on channel=9 note=36 velocity=127 time=0
note_on channel=11 note=72 velocity=0 time=1
control_change channel=7 control=7 value=95 time=0
control_change channel=1 control=7 value=111 time=5
note_on channel=4 note=38 velocity=108 time=5
control_change channel=7 control=7 value=97 time=0
control_change channel=7 control=7 value=103 time=5
control_change channel=7 control=7 value=104 time=5
control_change channel=7 control=7 value=106 time=15
note_on channel=9 note=49 velocity=0 time=5
note_on channel=9 note=36 velocity=0 time=0
note_on channel=14 note=83 velocity=105 time=9
note_on channel=11 note=83 velocity=124 time=1
note_on channel=14 note=71 velocity=119 time=0
note_on channel=2 note=83 velocity=105 time=3
note_on channel=2 note=71 velocity=119 time=1
note_on channel=9 note=44 velocity=119 time=1
control_change channel=1 control=7 value=109 time=1
note_on channel=9 note=48 velocity=127 time=0
note_on channel=11 note=71 velocity=127 time=0
control_change channel=0 control=7 value=101 time=20
control_change channel=1 control=7 value=108 time=0
note_on channel=9 note=44 velocity=0 time=6
control_change channel=0 control=7 value=106 time=0
control_change channel=1 control=7 value=106 time=0
note_on channel=9 note=48 velocity=0 time=1
note_on channel=14 note=71 velocity=0 time=8
note_on channel=2 note=71 velocity=0 time=4
note_on channel=14 note=83 velocity=0 time=1
note_on channel=11 note=83 velocity=0 time=3
note_on channel=2 note=83 velocity=0 time=1
control_change channel=1 control=7 value=105 time=0
note_on channel=11 note=71 velocity=0 time=6
control_change channel=1 control=7 value=103 time=5
note_on channel=9 note=46 velocity=127 time=8
note_on channel=9 note=36 velocity=127 time=0
control_change channel=1 control=7 value=102 time=10
control_change channel=7 control=7 value=107 time=0
control_change channel=7 control=7 value=109 time=11
note_on channel=11 note=81 velocity=127 time=0
control_change channel=1 control=7 value=100 time=5
note_on channel=14 note=69 velocity=72 time=3
note_on channel=14 note=81 velocity=119 time=0
note_on channel=11 note=69 velocity=127 time=2
note_on channel=2 note=69 velocity=72 time=2
note_on channel=2 note=81 velocity=119 time=0
note_on channel=9 note=46 velocity=0 time=1
control_change channel=7 control=7 value=110 time=1
note_on channel=9 note=47 velocity=127 time=0
note_on channel=11 note=81 velocity=0 time=5
note_on channel=10 note=79 velocity=124 time=0
note_on channel=9 note=36 velocity=0 time=1
note_on channel=11 note=69 velocity=0 time=5
note_on channel=14 note=69 velocity=0 time=2
note_on channel=14 note=81 velocity=0 time=0
note_on channel=14 note=67 velocity=83 time=1
note_on channel=10 note=79 velocity=0 time=2
note_on channel=14 note=79 velocity=124 time=0
note_on channel=9 note=47 velocity=0 time=1
note_on channel=2 note=69 velocity=0 time=0
note_on channel=2 note=81 velocity=0 time=0
note_on channel=2 note=67 velocity=83 time=1
note_on channel=2 note=79 velocity=124 time=2
control_change channel=7 control=7 value=112 time=0
control_change channel=1 control=7 value=99 time=3
note_on channel=9 note=44 velocity=108 time=0
note_on channel=10 note=79 velocity=97 time=0
note_on channel=11 note=79 velocity=127 time=0
note_on channel=9 note=45 velocity=127 time=1
note_on channel=9 note=40 velocity=108 time=1
note_on channel=11 note=67 velocity=127 time=6
control_change channel=1 control=7 value=97 time=5
note_on channel=9 note=45 velocity=0 time=3
note_on channel=14 note=67 velocity=0 time=4
note_on channel=14 note=79 velocity=0 time=2
note_on channel=2 note=67 velocity=0 time=2
note_on channel=9 note=44 velocity=0 time=2
note_on channel=2 note=79 velocity=0 time=0
note_on channel=11 note=79 velocity=0 time=1
note_on channel=9 note=40 velocity=0 time=1
note_on channel=4 note=38 velocity=0 time=6
note_on channel=11 note=67 velocity=0 time=2
note_on channel=10 note=79 velocity=0 time=5
note_on channel=5 note=81 velocity=0 time=2
note_on channel=10 note=81 velocity=0 time=1
note_on channel=7 note=90 velocity=127 time=4
note_on channel=7 note=81 velocity=0 time=6
note_on channel=2 note=79 velocity=127 time=0
pitchwheel channel=12 pitch=8077 time=0
pitchwheel channel=12 pitch=8077 time=0
pitchwheel channel=12 pitch=8077 time=0
note_on channel=14 note=67 velocity=127 time=0
note_on channel=14 note=79 velocity=127 time=0
pitchwheel channel=12 pitch=7737 time=2
pitchwheel channel=12 pitch=7737 time=0
note_on channel=14 note=67 velocity=127 time=0
note_on channel=2 note=67 velocity=127 time=1
pitchwheel channel=12 pitch=7737 time=0
note_on channel=2 note=67 velocity=127 time=1
note_on channel=2 note=79 velocity=127 time=0
note_on channel=14 note=79 velocity=127 time=0
note_on channel=4 note=31 velocity=97 time=3
note_on channel=6 note=79 velocity=119 time=1
note_on channel=9 note=36 velocity=127 time=0
note_on channel=9 note=36 velocity=108 time=0
note_on channel=9 note=44 velocity=100 time=0
pitchwheel channel=12 pitch=7373 time=0
pitchwheel channel=12 pitch=7373 time=0
note_on channel=11 note=79 velocity=127 time=1
pitchwheel channel=12 pitch=7373 time=0
note_on channel=15 note=43 velocity=127 time=0
note_on channel=10 note=79 velocity=127 time=1
pitchwheel channel=12 pitch=6963 time=0
note_on channel=11 note=91 velocity=127 time=1
pitchwheel channel=12 pitch=6963 time=0
pitchwheel channel=12 pitch=6963 time=0
note_on channel=5 note=79 velocity=97 time=1
note_on channel=11 note=79 velocity=127 time=1
pitchwheel channel=12 pitch=6690 time=0
pitchwheel channel=12 pitch=6690 time=0
pitchwheel channel=12 pitch=6690 time=1
note_on channel=9 note=49 velocity=127 time=1
pitchwheel channel=12 pitch=6280 time=0
note_on channel=7 note=91 velocity=127 time=1
pitchwheel channel=12 pitch=6280 time=0
pitchwheel channel=12 pitch=6280 time=0
note_on channel=11 note=67 velocity=127 time=1
pitchwheel channel=12 pitch=5871 time=1
pitchwheel channel=12 pitch=5871 time=1
pitchwheel channel=12 pitch=5871 time=0
pitchwheel channel=12 pitch=5598 time=1
pitchwheel channel=12 pitch=5598 time=1
pitchwheel channel=12 pitch=5598 time=0
pitchwheel channel=12 pitch=5006 time=2
pitchwheel channel=12 pitch=5006 time=1
pitchwheel channel=12 pitch=5006 time=0
pitchwheel channel=12 pitch=4505 time=2
pitchwheel channel=12 pitch=4505 time=0
pitchwheel channel=12 pitch=4505 time=0
note_on channel=7 note=90 velocity=0 time=2
pitchwheel channel=12 pitch=4096 time=0
pitchwheel channel=12 pitch=4096 time=0
pitchwheel channel=12 pitch=4096 time=0
pitchwheel channel=12 pitch=3414 time=2
pitchwheel channel=12 pitch=3414 time=1
pitchwheel channel=12 pitch=3414 time=0
pitchwheel channel=12 pitch=3004 time=2
pitchwheel channel=12 pitch=3004 time=0
pitchwheel channel=12 pitch=3004 time=1
pitchwheel channel=12 pitch=2503 time=1
pitchwheel channel=12 pitch=2503 time=1
pitchwheel channel=12 pitch=2503 time=0
pitchwheel channel=12 pitch=2275 time=2
pitchwheel channel=12 pitch=2275 time=0
pitchwheel channel=12 pitch=2275 time=1
note_on channel=14 note=79 velocity=0 time=3
pitchwheel channel=12 pitch=1911 time=1
pitchwheel channel=12 pitch=1911 time=1
pitchwheel channel=12 pitch=1911 time=0
note_on channel=2 note=79 velocity=0 time=2
note_on channel=14 note=67 velocity=0 time=0
note_on channel=9 note=36 velocity=0 time=3
note_on channel=2 note=67 velocity=0 time=1
note_on channel=9 note=49 velocity=0 time=1
note_on channel=9 note=36 velocity=0 time=2
note_on channel=2 note=79 velocity=0 time=7
note_on channel=2 note=67 velocity=0 time=2
note_on channel=11 note=79 velocity=0 time=0
note_on channel=11 note=67 velocity=0 time=3
note_on channel=6 note=79 velocity=0 time=2
note_on channel=15 note=43 velocity=0 time=1
note_on channel=9 note=44 velocity=0 time=0
note_on channel=9 note=44 velocity=100 time=0
pitchwheel channel=12 pitch=1502 time=1
pitchwheel channel=12 pitch=1502 time=1
pitchwheel channel=12 pitch=1502 time=0
note_on channel=11 note=91 velocity=0 time=1
note_on channel=7 note=91 velocity=0 time=2
note_on channel=10 note=79 velocity=0 time=0
pitchwheel channel=12 pitch=956 time=1
pitchwheel channel=12 pitch=956 time=1
pitchwheel channel=12 pitch=956 time=0
note_on channel=11 note=79 velocity=0 time=1
note_on channel=14 note=79 velocity=0 time=1
note_on channel=14 note=67 velocity=0 time=2
pitchwheel channel=12 pitch=409 time=1
pitchwheel channel=12 pitch=409 time=0
pitchwheel channel=12 pitch=409 time=0
pitchwheel channel=12 pitch=0 time=9
pitchwheel channel=12 pitch=0 time=0
pitchwheel channel=12 pitch=0 time=1
note_on channel=1 note=67 velocity=127 time=8
note_on channel=3 note=67 velocity=115 time=0
note_on channel=8 note=67 velocity=99 time=0
note_on channel=8 note=67 velocity=86 time=0
note_on channel=9 note=40 velocity=108 time=0
note_on channel=1 note=67 velocity=0 time=19
note_on channel=3 note=67 velocity=0 time=11
note_on channel=8 note=67 velocity=0 time=0
note_on channel=9 note=44 velocity=0 time=0
note_on channel=8 note=67 velocity=0 time=0
note_on channel=1 note=67 velocity=119 time=0
note_on channel=3 note=67 velocity=105 time=0
note_on channel=8 note=67 velocity=77 time=0
note_on channel=8 note=67 velocity=67 time=0
note_on channel=9 note=44 velocity=100 time=0
note_on channel=4 note=31 velocity=0 time=8
note_on channel=9 note=40 velocity=0 time=7
note_on channel=1 note=67 velocity=0 time=12
note_on channel=8 note=67 velocity=0 time=3
note_on channel=3 note=67 velocity=0 time=0
note_on channel=8 note=67 velocity=0 time=0
control_change channel=7 control=7 value=113 time=15
note_on channel=4 note=31 velocity=112 time=7
control_change channel=7 control=7 value=115 time=0
note_on channel=9 note=44 velocity=0 time=8
note_on channel=1 note=67 velocity=127 time=0
note_on channel=3 note=69 velocity=112 time=0
note_on channel=8 note=69 velocity=86 time=0
note_on channel=8 note=67 velocity=70 time=0
note_on channel=9 note=35 velocity=108 time=0
note_on channel=9 note=44 velocity=100 time=0
note_on channel=4 note=31 velocity=0 time=17
control_change channel=7 control=7 value=116 time=5
note_on channel=1 note=67 velocity=0 time=5
note_on channel=8 note=69 velocity=0 time=3
note_on channel=3 note=69 velocity=0 time=0
note_on channel=8 note=67 velocity=0 time=0
note_on channel=9 note=35 velocity=0 time=15
note_on channel=1 note=67 velocity=127 time=11
note_on channel=9 note=44 velocity=0 time=4
note_on channel=3 note=71 velocity=124 time=0
control_change channel=7 control=7 value=118 time=0
note_on channel=8 note=71 velocity=92 time=0
note_on channel=8 note=67 velocity=84 time=0
note_on channel=9 note=35 velocity=108 time=0
note_on channel=9 note=44 velocity=100 time=0
note_on channel=4 note=31 velocity=127 time=8
control_change channel=7 control=7 value=119 time=5
control_change channel=7 control=7 value=121 time=15
note_on channel=9 note=35 velocity=0 time=17
control_change channel=7 control=7 value=122 time=0
control_change channel=7 control=7 value=124 time=10
note_on channel=9 note=44 velocity=0 time=5
note_on channel=8 note=67 velocity=0 time=0
note_on channel=9 note=44 velocity=100 time=0
control_change channel=7 control=7 value=125 time=10
note_on channel=1 note=67 velocity=0 time=4
control_change channel=7 control=7 value=127 time=5
note_on channel=8 note=71 velocity=0 time=11
note_on channel=3 note=71 velocity=0 time=0
note_on channel=3 note=74 velocity=119 time=0
note_on channel=8 note=74 velocity=70 time=0
note_on channel=8 note=67 velocity=97 time=0
note_on channel=1 note=67 velocity=127 time=11
note_on channel=9 note=44 velocity=0 time=19
note_on channel=9 note=40 velocity=108 time=0
note_on channel=9 note=46 velocity=100 time=0
note_on channel=3 note=74 velocity=0 time=30
note_on channel=8 note=67 velocity=0 time=0
note_on channel=1 note=67 velocity=0 time=15
note_on channel=9 note=40 velocity=0 time=0
note_on channel=4 note=31 velocity=0 time=5
note_on channel=1 note=69 velocity=127 time=6
note_on channel=9 note=46 velocity=0 time=4
note_on channel=8 note=74 velocity=0 time=0
note_on channel=3 note=72 velocity=127 time=0
note_on channel=8 note=72 velocity=97 time=0
note_on channel=8 note=69 velocity=94 time=0
note_on channel=9 note=44 velocity=100 time=0
note_on channel=4 note=29 velocity=112 time=21
note_on channel=9 note=44 velocity=0 time=39
note_on channel=9 note=35 velocity=108 time=0
note_on channel=9 note=44 velocity=100 time=0
note_on channel=9 note=35 velocity=0 time=45
note_on channel=9 note=44 velocity=0 time=15
note_on channel=9 note=44 velocity=100 time=0
note_on channel=9 note=40 velocity=108 time=30
note_on channel=9 note=44 velocity=0 time=30
note_on channel=9 note=44 velocity=100 time=0
note_on channel=9 note=40 velocity=0 time=15
note_on channel=8 note=69 velocity=0 time=15
note_on channel=4 note=29 velocity=0 time=5
control_change channel=1 control=7 value=96 time=0
control_change channel=1 control=7 value=95 time=10
note_on channel=1 note=67 velocity=112 time=5
note_on channel=9 note=44 velocity=0 time=10
note_on channel=8 note=72 velocity=0 time=0
note_on channel=3 note=72 velocity=0 time=0
note_on channel=3 note=71 velocity=108 time=0
note_on channel=8 note=71 velocity=67 time=0
note_on channel=8 note=69 velocity=51 time=0
note_on channel=9 note=35 velocity=108 time=0
note_on channel=9 note=44 velocity=100 time=0
note_on channel=1 note=69 velocity=0 time=3
note_on channel=4 note=29 velocity=97 time=3
note_on channel=4 note=29 velocity=0 time=22
note_on channel=1 note=67 velocity=0 time=0
note_on channel=1 note=64 velocity=127 time=1
note_on channel=3 note=71 velocity=0 time=1
note_on channel=8 note=71 velocity=0 time=0
note_on channel=8 note=69 velocity=0 time=0
note_on channel=3 note=69 velocity=127 time=0
note_on channel=8 note=69 velocity=92 time=0
note_on channel=8 note=67 velocity=124 time=0
note_on channel=9 note=35 velocity=0 time=15
control_change channel=1 control=7 value=94 time=0
note_on channel=8 note=69 velocity=0 time=15
note_on channel=3 note=69 velocity=0 time=0
note_on channel=9 note=44 velocity=0 time=0
note_on channel=8 note=67 velocity=0 time=0
note_on channel=3 note=67 velocity=112 time=0
note_on channel=8 note=67 velocity=102 time=0
note_on channel=8 note=60 velocity=52 time=0
note_on channel=9 note=33 velocity=108 time=0
note_on channel=9 note=44 velocity=100 time=0
note_on channel=4 note=29 velocity=127 time=7
note_on channel=1 note=62 velocity=108 time=1
note_on channel=1 note=64 velocity=0 time=4
control_change channel=1 control=7 value=92 time=25
note_on channel=9 note=33 velocity=0 time=8
note_on channel=9 note=44 velocity=0 time=15
note_on channel=9 note=44 velocity=100 time=0
note_on channel=8 note=67 velocity=0 time=30
note_on channel=4 note=29 velocity=0 time=13
note_on channel=3 note=67 velocity=0 time=17
note_on channel=8 note=60 velocity=0 time=0
note_on channel=9 note=44 velocity=0 time=0
note_on channel=3 note=69 velocity=127 time=0
note_on channel=8 note=69 velocity=124 time=0
note_on channel=8 note=62 velocity=99 time=0
note_on channel=9 note=45 velocity=108 time=0
note_on channel=9 note=44 velocity=100 time=0
note_on channel=1 note=60 velocity=105 time=2
note_on channel=1 note=62 velocity=0 time=6
note_on channel=4 note=29 velocity=92 time=4
note_on channel=9 note=45 velocity=0 time=33
note_on channel=9 note=44 velocity=0 time=15
note_on channel=9 note=44 velocity=100 time=0
note_on channel=4 note=29 velocity=0 time=42
note_on channel=7 note=90 velocity=127 time=0
note_on channel=15 note=43 velocity=127 time=11
note_on channel=6 note=79 velocity=112 time=5
note_on channel=14 note=67 velocity=127 time=0
note_on channel=3 note=69 velocity=0 time=2
note_on channel=8 note=62 velocity=0 time=0
note_on channel=8 note=69 velocity=0 time=0
note_on channel=9 note=44 velocity=0 time=0
note_on channel=4 note=36 velocity=112 time=0
note_on channel=7 note=91 velocity=127 time=0
note_on channel=9 note=36 velocity=127 time=0
note_on channel=9 note=36 velocity=108 time=0
note_on channel=9 note=44 velocity=100 time=0
note_on channel=2 note=67 velocity=127 time=1
note_on channel=2 note=79 velocity=127 time=0
note_on channel=11 note=79 velocity=127 time=0
note_on channel=14 note=79 velocity=127 time=0
note_on channel=11 note=91 velocity=127 time=1
note_on channel=1 note=60 velocity=0 time=3
note_on channel=9 note=49 velocity=127 time=2
note_on channel=7 note=90 velocity=0 time=6
note_on channel=9 note=36 velocity=0 time=28
note_on channel=9 note=49 velocity=0 time=2
note_on channel=9 note=36 velocity=0 time=2
note_on channel=6 note=79 velocity=0 time=7
note_on channel=15 note=43 velocity=0 time=1
note_on channel=9 note=44 velocity=0 time=7
note_on channel=1 note=67 velocity=127 time=0
note_on channel=3 note=67 velocity=124 time=0
note_on channel=8 note=67 velocity=102 time=0
note_on channel=9 note=44 velocity=100 time=0
note_on channel=7 note=91 velocity=0 time=4
note_on channel=11 note=91 velocity=0 time=2
note_on channel=2 note=67 velocity=0 time=0
note_on channel=11 note=79 velocity=0 time=0
note_on channel=2 note=79 velocity=0 time=1
note_on channel=14 note=67 velocity=0 time=12
note_on channel=14 note=79 velocity=0 time=0
note_on channel=1 note=67 velocity=0 time=0
note_on channel=8 note=67 velocity=0 time=11
note_on channel=3 note=67 velocity=0 time=0
note_on channel=1 note=67 velocity=108 time=0
note_on channel=3 note=67 velocity=105 time=0
note_on channel=8 note=67 velocity=90 time=0
note_on channel=8 note=67 velocity=86 time=0
note_on channel=9 note=40 velocity=108 time=0
note_on channel=1 note=67 velocity=0 time=29
note_on channel=3 note=67 velocity=0 time=1
note_on channel=8 note=67 velocity=0 time=0
note_on channel=9 note=44 velocity=0 time=0
note_on channel=8 note=67 velocity=0 time=0
note_on channel=8 note=67 velocity=73 time=0
note_on channel=9 note=44 velocity=100 time=0
note_on channel=4 note=36 velocity=0 time=6
note_on channel=9 note=40 velocity=0 time=9
note_on channel=8 note=67 velocity=0 time=15
note_on channel=1 note=67 velocity=127 time=23
note_on channel=9 note=44 velocity=0 time=7
note_on channel=3 note=69 velocity=127 time=0
note_on channel=8 note=69 velocity=115 time=0
note_on channel=8 note=67 velocity=94 time=0
note_on channel=9 note=35 velocity=108 time=0
note_on channel=9 note=44 velocity=100 time=0
note_on channel=4 note=36 velocity=92 time=1
note_on channel=1 note=67 velocity=0 time=17
note_on channel=4 note=36 velocity=0 time=8
note_on channel=8 note=67 velocity=0 time=4
note_on channel=8 note=69 velocity=0 time=0
note_on channel=3 note=69 velocity=0 time=0
note_on channel=9 note=35 velocity=0 time=15
note_on channel=9 note=44 velocity=0 time=15
note_on channel=1 note=67 velocity=127 time=0
note_on channel=3 note=71 velocity=127 time=0
note_on channel=8 note=71 velocity=105 time=0
note_on channel=8 note=67 velocity=99 time=0
note_on channel=9 note=35 velocity=108 time=0
note_on channel=9 note=44 velocity=100 time=0
note_on channel=4 note=36 velocity=119 time=7
note_on channel=9 note=35 velocity=0 time=38
note_on channel=9 note=44 velocity=0 time=15
note_on channel=8 note=67 velocity=0 time=0
note_on channel=9 note=44 velocity=100 time=0
note_on channel=1 note=67 velocity=0 time=11
note_on channel=8 note=71 velocity=0 time=19
note_on channel=3 note=71 velocity=0 time=0
note_on channel=1 note=67 velocity=88 time=0
note_on channel=3 note=74 velocity=115 time=0
note_on channel=8 note=74 velocity=94 time=0
note_on channel=8 note=67 velocity=88 time=0
note_on channel=9 note=44 velocity=0 time=30
note_on channel=9 note=40 velocity=108 time=0
note_on channel=9 note=44 velocity=100 time=0
note_on channel=3 note=74 velocity=0 time=30
note_on channel=1 note=67 velocity=0 time=0
note_on channel=8 note=67 velocity=0 time=0
note_on channel=4 note=36 velocity=0 time=9
note_on channel=9 note=40 velocity=0 time=6
note_on channel=1 note=69 velocity=127 time=14
note_on channel=9 note=44 velocity=0 time=1
note_on channel=8 note=74 velocity=0 time=0
note_on channel=3 note=72 velocity=127 time=0
note_on channel=8 note=72 velocity=83 time=0
note_on channel=8 note=69 velocity=112 time=0
note_on channel=9 note=44 velocity=100 time=0
note_on channel=4 note=38 velocity=124 time=7
note_on channel=9 note=44 velocity=0 time=53
note_on channel=9 note=35 velocity=108 time=0
note_on channel=9 note=44 velocity=100 time=0
note_on channel=9 note=35 velocity=0 time=45
note_on channel=9 note=44 velocity=0 time=15
note_on channel=9 note=44 velocity=100 time=0
note_on channel=9 note=40 velocity=108 time=30
note_on channel=9 note=44 velocity=0 time=30
note_on channel=8 note=69 velocity=0 time=0
note_on channel=9 note=44 velocity=100 time=0
note_on channel=9 note=40 velocity=0 time=15
note_on channel=4 note=38 velocity=0 time=31
note_on channel=1 note=69 velocity=0 time=12
note_on channel=8 note=72 velocity=0 time=2
note_on channel=3 note=72 velocity=0 time=0
note_on channel=9 note=44 velocity=0 time=0
note_on channel=1 note=69 velocity=124 time=0
note_on channel=3 note=69 velocity=119 time=0
note_on channel=8 note=69 velocity=75 time=0
note_on channel=9 note=35 velocity=108 time=0
note_on channel=9 note=44 velocity=100 time=0
note_on channel=4 note=38 velocity=70 time=8
note_on channel=1 note=69 velocity=0 time=19
note_on channel=8 note=69 velocity=0 time=3
note_on channel=3 note=69 velocity=0 time=0
note_on channel=1 note=65 velocity=127 time=0
note_on channel=3 note=65 velocity=92 time=0
note_on channel=8 note=65 velocity=68 time=0
note_on channel=4 note=38 velocity=0 time=8
note_on channel=9 note=35 velocity=0 time=7
note_on channel=1 note=60 velocity=119 time=14
note_on channel=9 note=44 velocity=0 time=1
note_on channel=3 note=65 velocity=0 time=0
note_on channel=8 note=65 velocity=0 time=0
note_on channel=3 note=60 velocity=127 time=0
note_on channel=8 note=60 velocity=78 time=0
note_on channel=9 note=33 velocity=108 time=0
note_on channel=9 note=44 velocity=100 time=0
note_on channel=1 note=65 velocity=0 time=2
note_on channel=4 note=31 velocity=127 time=9
pitchwheel channel=4 pitch=-597 time=16
pitchwheel channel=4 pitch=-597 time=1
pitchwheel channel=4 pitch=-597 time=0
pitchwheel channel=4 pitch=-1194 time=2
pitchwheel channel=4 pitch=-1194 time=0
pitchwheel channel=4 pitch=-1194 time=0
pitchwheel channel=4 pitch=-2048 time=2
pitchwheel channel=4 pitch=-2048 time=0
pitchwheel channel=4 pitch=-2048 time=1
pitchwheel channel=4 pitch=-2545 time=2
pitchwheel channel=4 pitch=-2545 time=0
pitchwheel channel=4 pitch=-2545 time=0
pitchwheel channel=4 pitch=-2883 time=2
pitchwheel channel=4 pitch=-2883 time=0
pitchwheel channel=4 pitch=-2883 time=0
pitchwheel channel=4 pitch=-3583 time=4
pitchwheel channel=4 pitch=-3583 time=0
pitchwheel channel=4 pitch=-3583 time=1
pitchwheel channel=4 pitch=-4573 time=1
pitchwheel channel=4 pitch=-4573 time=0
pitchwheel channel=4 pitch=-4573 time=0
note_on channel=9 note=33 velocity=0 time=2
pitchwheel channel=4 pitch=-5290 time=0
pitchwheel channel=4 pitch=-5290 time=1
pitchwheel channel=4 pitch=-5290 time=0
pitchwheel channel=4 pitch=-6621 time=2
pitchwheel channel=4 pitch=-6621 time=0
pitchwheel channel=4 pitch=-6621 time=0
pitchwheel channel=4 pitch=-7622 time=2
pitchwheel channel=4 pitch=-7622 time=0
pitchwheel channel=4 pitch=-7622 time=1
pitchwheel channel=4 pitch=-8192 time=1
pitchwheel channel=4 pitch=-8192 time=0
pitchwheel channel=4 pitch=-8192 time=1
note_on channel=9 note=44 velocity=0 time=7
note_on channel=9 note=44 velocity=100 time=0
note_on channel=4 note=31 velocity=0 time=27
pitchwheel channel=4 pitch=-6263 time=20
pitchwheel channel=4 pitch=-6263 time=0
pitchwheel channel=4 pitch=-6263 time=1
pitchwheel channel=4 pitch=-4454 time=2
pitchwheel channel=4 pitch=-4454 time=0
pitchwheel channel=4 pitch=-4454 time=0
pitchwheel channel=4 pitch=-2048 time=2
pitchwheel channel=4 pitch=-2048 time=0
pitchwheel channel=4 pitch=-2048 time=1
pitchwheel channel=4 pitch=409 time=2
pitchwheel channel=4 pitch=409 time=0
pitchwheel channel=4 pitch=409 time=1
pitchwheel channel=4 pitch=0 time=1
pitchwheel channel=4 pitch=0 time=1
pitchwheel channel=4 pitch=0 time=0
note_on channel=8 note=60 velocity=0 time=2
note_on channel=3 note=60 velocity=0 time=0
note_on channel=9 note=44 velocity=0 time=0
note_on channel=1 note=62 velocity=127 time=0
note_on channel=3 note=62 velocity=92 time=0
note_on channel=8 note=62 velocity=112 time=0
note_on channel=9 note=45 velocity=108 time=0
note_on channel=9 note=46 velocity=100 time=0
note_on channel=4 note=28 velocity=119 time=10
note_on channel=1 note=60 velocity=0 time=24
note_on channel=9 note=45 velocity=0 time=11
note_on channel=9 note=46 velocity=0 time=15
note_on channel=9 note=44 velocity=100 time=0
note_on channel=4 note=28 velocity=0 time=20
note_on channel=5 note=79 velocity=0 time=12
note_on channel=5 note=93 velocity=68 time=22
note_on channel=5 note=81 velocity=43 time=3
note_on channel=11 note=81 velocity=127 time=0
note_on channel=11 note=93 velocity=127 time=2
note_on channel=8 note=62 velocity=0 time=1
note_on channel=3 note=62 velocity=0 time=0
note_on channel=1 note=62 velocity=0 time=0
note_on channel=9 note=44 velocity=0 time=0
note_on channel=4 note=33 velocity=127 time=0
note_on channel=6 note=81 velocity=127 time=0
note_on channel=9 note=36 velocity=127 time=0
note_on channel=9 note=36 velocity=108 time=0
note_on channel=9 note=44 velocity=100 time=0
note_on channel=2 note=69 velocity=127 time=1
note_on channel=14 note=69 velocity=127 time=0
note_on channel=14 note=81 velocity=127 time=0
note_on channel=2 note=81 velocity=127 time=3
note_on channel=15 note=45 velocity=119 time=0
note_on channel=5 note=83 velocity=43 time=3
note_on channel=9 note=49 velocity=127 time=0
note_on channel=5 note=79 velocity=79 time=32
note_on channel=9 note=36 velocity=0 time=2
note_on channel=9 note=49 velocity=0 time=2
note_on channel=5 note=93 velocity=0 time=0
note_on channel=9 note=36 velocity=0 time=2
note_on channel=5 note=83 velocity=0 time=0
note_on channel=9 note=44 velocity=0 time=15
note_on channel=15 note=45 velocity=0 time=0
note_on channel=3 note=69 velocity=119 time=0
note_on channel=8 note=69 velocity=119 time=0
note_on channel=9 note=44 velocity=100 time=0
note_on channel=11 note=93 velocity=0 time=2
note_on channel=11 note=81 velocity=0 time=2
note_on channel=6 note=81 velocity=0 time=1
note_on channel=14 note=69 velocity=0 time=2
note_on channel=2 note=69 velocity=0 time=1
note_on channel=5 note=81 velocity=0 time=0
note_on channel=2 note=81 velocity=0 time=1
note_on channel=14 note=81 velocity=0 time=0
note_on channel=5 note=79 velocity=0 time=1
note_on channel=1 note=69 velocity=119 time=5
note_on channel=3 note=69 velocity=0 time=3
note_on channel=8 note=69 velocity=0 time=0
note_on channel=3 note=69 velocity=119 time=12
note_on channel=8 note=69 velocity=119 time=0
note_on channel=9 note=40 velocity=108 time=0
note_on channel=1 note=69 velocity=0 time=3
note_on channel=1 note=69 velocity=124 time=7
note_on channel=5 note=93 velocity=68 time=15
note_on channel=9 note=44 velocity=0 time=5
note_on channel=9 note=44 velocity=100 time=0
note_on channel=5 note=81 velocity=51 time=5
note_on channel=4 note=33 velocity=0 time=2
note_on channel=5 note=83 velocity=55 time=0
note_on channel=3 note=69 velocity=0 time=8
note_on channel=9 note=40 velocity=0 time=0
note_on channel=8 note=69 velocity=0 time=3
note_on channel=1 note=69 velocity=0 time=7
note_on channel=5 note=93 velocity=0 time=20
note_on channel=4 note=33 velocity=124 time=3
note_on channel=5 note=83 velocity=0 time=5
note_on channel=5 note=81 velocity=0 time=7
note_on channel=9 note=44 velocity=0 time=0
note_on channel=1 note=69 velocity=127 time=0
note_on channel=3 note=71 velocity=124 time=0
note_on channel=8 note=71 velocity=115 time=0
note_on channel=8 note=69 velocity=102 time=0
note_on channel=9 note=35 velocity=108 time=0
note_on channel=9 note=44 velocity=100 time=0
note_on channel=4 note=33 velocity=0 time=14
note_on channel=1 note=69 velocity=0 time=13
note_on channel=8 note=71 velocity=0 time=3
note_on channel=8 note=69 velocity=0 time=0
note_on channel=3 note=71 velocity=0 time=0
note_on channel=9 note=35 velocity=0 time=15
note_on channel=1 note=69 velocity=127 time=11
note_on channel=5 note=93 velocity=72 time=1
note_on channel=9 note=44 velocity=0 time=3
note_on channel=3 note=73 velocity=124 time=0
note_on channel=8 note=73 velocity=127 time=0
note_on channel=8 note=69 velocity=105 time=0
note_on channel=9 note=35 velocity=108 time=0
note_on channel=9 note=44 velocity=100 time=0
note_on channel=5 note=81 velocity=54 time=4
note_on channel=4 note=33 velocity=127 time=3
note_on channel=5 note=81 velocity=0 time=35
note_on channel=9 note=35 velocity=0 time=3
note_on channel=5 note=93 velocity=0 time=3
note_on channel=8 note=69 velocity=0 time=12
note_on channel=9 note=44 velocity=0 time=0
note_on channel=9 note=44 velocity=100 time=0
note_on channel=1 note=69 velocity=0 time=18
note_on channel=8 note=73 velocity=0 time=12
note_on channel=3 note=73 velocity=0 time=0
note_on channel=1 note=69 velocity=115 time=0
note_on channel=3 note=76 velocity=127 time=0
note_on channel=8 note=76 velocity=90 time=0
note_on channel=8 note=69 velocity=92 time=0
note_on channel=5 note=81 velocity=92 time=28
note_on channel=5 note=93 velocity=78 time=0
note_on channel=9 note=44 velocity=0 time=2
note_on channel=9 note=40 velocity=108 time=0
note_on channel=9 note=44 velocity=100 time=0
note_on channel=5 note=83 velocity=57 time=6
note_on channel=5 note=85 velocity=62 time=20
note_on channel=3 note=76 velocity=0 time=4
note_on channel=8 note=69 velocity=0 time=0
note_on channel=4 note=33 velocity=0 time=3
note_on channel=5 note=81 velocity=0 time=9
note_on channel=5 note=83 velocity=0 time=2
note_on channel=9 note=40 velocity=0 time=1
note_on channel=5 note=93 velocity=0 time=3
note_on channel=5 note=85 velocity=0 time=3
note_on channel=1 note=69 velocity=0 time=3
note_on channel=8 note=76 velocity=0 time=6
note_on channel=9 note=44 velocity=0 time=0
note_on channel=3 note=74 velocity=127 time=0
note_on channel=4 note=33 velocity=127 time=0
note_on channel=8 note=74 velocity=124 time=0
note_on channel=8 note=71 velocity=108 time=0
note_on channel=9 note=44 velocity=100 time=0
note_on channel=1 note=71 velocity=127 time=11
note_on channel=9 note=44 velocity=0 time=49
note_on channel=9 note=35 velocity=108 time=0
note_on channel=9 note=44 velocity=100 time=0
note_on channel=5 note=81 velocity=52 time=3
note_on channel=5 note=93 velocity=78 time=0
note_on channel=5 note=85 velocity=33 time=18
note_on channel=5 note=81 velocity=0 time=20
note_on channel=9 note=35 velocity=0 time=4
note_on channel=5 note=93 velocity=0 time=5
note_on channel=5 note=85 velocity=0 time=8
note_on channel=9 note=44 velocity=0 time=2
note_on channel=9 note=44 velocity=100 time=0
note_on channel=9 note=40 velocity=108 time=30
note_on channel=5 note=81 velocity=56 time=21
note_on channel=5 note=93 velocity=77 time=4
note_on channel=9 note=44 velocity=0 time=5
note_on channel=8 note=71 velocity=0 time=0
note_on channel=9 note=44 velocity=100 time=0
note_on channel=5 note=83 velocity=53 time=4
note_on channel=5 note=85 velocity=38 time=5
note_on channel=9 note=40 velocity=0 time=6
note_on channel=4 note=33 velocity=0 time=6
note_on channel=5 note=81 velocity=0 time=8
note_on channel=5 note=83 velocity=0 time=6
note_on channel=5 note=93 velocity=0 time=6
note_on channel=5 note=85 velocity=0 time=3
note_on channel=1 note=69 velocity=94 time=1
note_on channel=1 note=71 velocity=0 time=7
note_on channel=4 note=33 velocity=78 time=5
note_on channel=4 note=35 velocity=74 time=1
note_on channel=3 note=74 velocity=0 time=2
note_on channel=8 note=74 velocity=0 time=0
note_on channel=9 note=44 velocity=0 time=0
note_on channel=3 note=73 velocity=127 time=0
note_on channel=8 note=73 velocity=97 time=0
note_on channel=8 note=71 velocity=69 time=0
note_on channel=9 note=35 velocity=108 time=0
note_on channel=9 note=44 velocity=100 time=0
note_on channel=4 note=35 velocity=0 time=18
note_on channel=4 note=33 velocity=0 time=2
note_on channel=1 note=69 velocity=0 time=3
note_on channel=1 note=66 velocity=127 time=2
note_on channel=3 note=73 velocity=0 time=5
note_on channel=8 note=73 velocity=0 time=0
note_on channel=8 note=71 velocity=0 time=0
note_on channel=3 note=71 velocity=127 time=0
note_on channel=8 note=71 velocity=124 time=0
note_on channel=8 note=69 velocity=61 time=0
note_on channel=9 note=35 velocity=0 time=15
note_on channel=5 note=81 velocity=49 time=4
note_on channel=1 note=66 velocity=0 time=4
note_on channel=5 note=93 velocity=73 time=1
note_on channel=5 note=83 velocity=61 time=2
note_on channel=9 note=44 velocity=0 time=4
note_on channel=3 note=71 velocity=0 time=0
note_on channel=8 note=71 velocity=0 time=0
note_on channel=8 note=69 velocity=0 time=0
note_on channel=1 note=64 velocity=127 time=0
note_on channel=3 note=69 velocity=102 time=0
note_on channel=4 note=33 velocity=102 time=0
note_on channel=8 note=64 velocity=127 time=0
note_on channel=8 note=69 velocity=102 time=0
note_on channel=9 note=33 velocity=108 time=0
note_on channel=9 note=46 velocity=100 time=0
note_on channel=5 note=85 velocity=54 time=12
note_on channel=5 note=83 velocity=0 time=13
note_on channel=5 note=81 velocity=0 time=1
note_on channel=5 note=85 velocity=0 time=13
note_on channel=9 note=33 velocity=0 time=6
note_on channel=5 note=93 velocity=0 time=2
note_on channel=9 note=46 velocity=0 time=13
note_on channel=9 note=44 velocity=100 time=0
note_on channel=3 note=69 velocity=0 time=30
note_on channel=8 note=69 velocity=0 time=0
note_on channel=8 note=64 velocity=0 time=0
note_on channel=4 note=33 velocity=0 time=8
note_on channel=5 note=81 velocity=65 time=8
note_on channel=1 note=62 velocity=127 time=9
note_on channel=9 note=44 velocity=0 time=5
note_on channel=3 note=71 velocity=127 time=0
note_on channel=5 note=83 velocity=32 time=0
note_on channel=5 note=93 velocity=90 time=0
note_on channel=8 note=71 velocity=127 time=0
note_on channel=8 note=62 velocity=99 time=0
note_on channel=9 note=45 velocity=108 time=0
note_on channel=9 note=44 velocity=100 time=0
note_on channel=1 note=64 velocity=0 time=2
note_on channel=5 note=85 velocity=31 time=0
note_on channel=4 note=32 velocity=127 time=9
note_on channel=4 note=31 velocity=59 time=7
note_on channel=5 note=81 velocity=0 time=5
note_on channel=5 note=83 velocity=0 time=5
note_on channel=5 note=85 velocity=0 time=11
note_on channel=9 note=45 velocity=0 time=6
control_change channel=5 control=7 value=126 time=10
note_on channel=9 note=44 velocity=0 time=5
note_on channel=9 note=44 velocity=100 time=0
note_on channel=5 note=93 velocity=0 time=1
control_change channel=5 control=7 value=124 time=0
control_change channel=5 control=7 value=118 time=5
note_on channel=4 note=31 velocity=0 time=13
control_change channel=5 control=7 value=117 time=0
note_on channel=4 note=32 velocity=0 time=8
note_on channel=8 note=62 velocity=0 time=3
note_on channel=3 note=71 velocity=0 time=0
note_on channel=8 note=71 velocity=0 time=0
note_on channel=1 note=62 velocity=0 time=17
note_on channel=5 note=86 velocity=79 time=7
note_on channel=5 note=88 velocity=88 time=2
note_on channel=9 note=44 velocity=0 time=4
note_on channel=9 note=36 velocity=127 time=0
note_on channel=9 note=36 velocity=108 time=0
note_on channel=9 note=44 velocity=100 time=0
note_on channel=5 note=84 velocity=78 time=4
note_on channel=10 note=72 velocity=88 time=0
note_on channel=4 note=31 velocity=119 time=2
note_on channel=9 note=49 velocity=127 time=1
note_on channel=5 note=88 velocity=0 time=3
note_on channel=5 note=86 velocity=0 time=1
note_on channel=5 note=84 velocity=0 time=14
note_on channel=10 note=72 velocity=0 time=6
note_on channel=9 note=36 velocity=0 time=10
note_on channel=9 note=49 velocity=0 time=2
note_on channel=9 note=36 velocity=0 time=2
note_on channel=9 note=44 velocity=0 time=15
note_on channel=9 note=44 velocity=100 time=0
note_on channel=2 note=60 velocity=88 time=9
note_on channel=2 note=72 velocity=112 time=5
note_on channel=9 note=40 velocity=108 time=16
note_on channel=2 note=72 velocity=0 time=4
note_on channel=2 note=60 velocity=0 time=0
note_on channel=2 note=60 velocity=90 time=10
note_on channel=2 note=72 velocity=84 time=1
note_on channel=5 note=86 velocity=77 time=5
control_change channel=5 control=7 value=115 time=7
note_on channel=10 note=72 velocity=90 time=0
note_on channel=9 note=44 velocity=0 time=3
note_on channel=9 note=44 velocity=100 time=0
control_change channel=5 control=7 value=114 time=1
note_on channel=5 note=88 velocity=78 time=0
note_on channel=4 note=31 velocity=0 time=4
control_change channel=5 control=7 value=112 time=3
note_on channel=5 note=84 velocity=54 time=0
note_on channel=5 note=86 velocity=0 time=5
note_on channel=9 note=40 velocity=0 time=2
note_on channel=2 note=72 velocity=0 time=1
control_change channel=5 control=7 value=111 time=0
note_on channel=5 note=88 velocity=0 time=4
note_on channel=10 note=72 velocity=0 time=9
note_on channel=2 note=60 velocity=0 time=0
note_on channel=5 note=84 velocity=0 time=0
note_on channel=2 note=62 velocity=72 time=27
note_on channel=2 note=74 velocity=124 time=2
note_on channel=9 note=44 velocity=0 time=2
note_on channel=4 note=31 velocity=127 time=0
note_on channel=9 note=35 velocity=108 time=0
note_on channel=9 note=44 velocity=100 time=0
note_on channel=4 note=31 velocity=0 time=21
note_on channel=2 note=74 velocity=0 time=8
note_on channel=2 note=62 velocity=0 time=2
note_on channel=5 note=86 velocity=84 time=12
note_on channel=10 note=72 velocity=94 time=0
note_on channel=9 note=35 velocity=0 time=2
note_on channel=5 note=88 velocity=66 time=6
note_on channel=2 note=62 velocity=94 time=6
note_on channel=9 note=44 velocity=0 time=3
note_on channel=5 note=84 velocity=74 time=0
note_on channel=9 note=35 velocity=108 time=0
note_on channel=9 note=44 velocity=100 time=0
note_on channel=2 note=74 velocity=115 time=1
note_on channel=5 note=86 velocity=0 time=2
note_on channel=5 note=88 velocity=0 time=4
note_on channel=4 note=31 velocity=127 time=0
note_on channel=10 note=72 velocity=0 time=10
note_on channel=5 note=84 velocity=0 time=14
note_on channel=9 note=35 velocity=0 time=14
note_on channel=9 note=44 velocity=0 time=15
note_on channel=9 note=44 velocity=100 time=0
note_on channel=2 note=62 velocity=0 time=22
note_on channel=2 note=64 velocity=99 time=3
note_on channel=2 note=76 velocity=127 time=2
note_on channel=2 note=74 velocity=0 time=1
note_on channel=5 note=86 velocity=70 time=11
note_on channel=5 note=88 velocity=56 time=9
note_on channel=10 note=72 velocity=99 time=0
note_on channel=5 note=84 velocity=66 time=8
note_on channel=5 note=86 velocity=0 time=3
note_on channel=9 note=44 velocity=0 time=1
note_on channel=9 note=40 velocity=108 time=0
note_on channel=9 note=44 velocity=100 time=0
note_on channel=5 note=88 velocity=0 time=3
note_on channel=4 note=31 velocity=0 time=14
note_on channel=10 note=72 velocity=0 time=4
note_on channel=5 note=84 velocity=0 time=12
note_on channel=9 note=40 velocity=0 time=12
note_on channel=9 note=44 velocity=0 time=15
note_on channel=9 note=44 velocity=100 time=0
note_on channel=2 note=76 velocity=0 time=4
note_on channel=4 note=31 velocity=127 time=4
note_on channel=2 note=64 velocity=0 time=5
note_on channel=2 note=60 velocity=84 time=17
note_on channel=2 note=72 velocity=97 time=2
note_on channel=5 note=86 velocity=79 time=8
note_on channel=5 note=88 velocity=84 time=5
note_on channel=2 note=60 velocity=0 time=8
note_on channel=2 note=72 velocity=0 time=2
note_on channel=5 note=84 velocity=88 time=1
note_on channel=10 note=72 velocity=92 time=1
note_on channel=5 note=86 velocity=0 time=2
note_on channel=9 note=44 velocity=0 time=1
note_on channel=9 note=35 velocity=108 time=0
note_on channel=9 note=44 velocity=100 time=0
note_on channel=5 note=88 velocity=0 time=1
note_on channel=2 note=60 velocity=67 time=0
note_on channel=2 note=72 velocity=59 time=1
note_on channel=10 note=72 velocity=0 time=23
note_on channel=5 note=84 velocity=0 time=3
note_on channel=2 note=72 velocity=0 time=8
note_on channel=2 note=60 velocity=0 time=5
note_on channel=9 note=35 velocity=0 time=4
note_on channel=2 note=74 velocity=124 time=11
note_on channel=2 note=62 velocity=75 time=3
note_on channel=9 note=44 velocity=0 time=1
note_on channel=9 note=44 velocity=100 time=0
note_on channel=2 note=74 velocity=0 time=26
note_on channel=2 note=62 velocity=0 time=3
note_on channel=9 note=40 velocity=108 time=1
note_on channel=5 note=86 velocity=97 time=8
note_on channel=4 note=31 velocity=0 time=3
note_on channel=5 note=88 velocity=90 time=6
note_on channel=2 note=64 velocity=119 time=3
note_on channel=2 note=76 velocity=127 time=5
note_on channel=10 note=72 velocity=102 time=0
note_on channel=5 note=84 velocity=72 time=2
note_on channel=5 note=86 velocity=0 time=2
note_on channel=9 note=44 velocity=0 time=1
note_on channel=9 note=44 velocity=100 time=0
note_on channel=5 note=88 velocity=0 time=2
note_on channel=9 note=40 velocity=0 time=13
note_on channel=5 note=84 velocity=0 time=4
note_on channel=10 note=72 velocity=0 time=6
note_on channel=4 note=31 velocity=119 time=29
control_change channel=7 control=7 value=126 time=0
note_on channel=9 note=44 velocity=0 time=6
note_on channel=9 note=35 velocity=108 time=0
note_on channel=9 note=44 velocity=100 time=0
note_on channel=4 note=31 velocity=0 time=15
note_on channel=2 note=67 velocity=63 time=1
note_on channel=2 note=79 velocity=108 time=0
note_on channel=2 note=76 velocity=0 time=3
note_on channel=2 note=64 velocity=0 time=7
note_on channel=5 note=86 velocity=66 time=4
note_on channel=5 note=88 velocity=88 time=8
note_on channel=9 note=35 velocity=0 time=7
note_on channel=10 note=76 velocity=88 time=0
note_on channel=5 note=86 velocity=0 time=2
control_change channel=5 control=7 value=112 time=0
note_on channel=5 note=84 velocity=51 time=0
note_on channel=5 note=88 velocity=0 time=10
control_change channel=5 control=7 value=113 time=0
note_on channel=9 note=44 velocity=0 time=3
note_on channel=4 note=31 velocity=127 time=0
note_on channel=9 note=49 velocity=108 time=0
note_on channel=9 note=35 velocity=108 time=0
note_on channel=9 note=44 velocity=100 time=0
note_on channel=10 note=76 velocity=0 time=4
control_change channel=5 control=7 value=118 time=0
note_on channel=10 note=72 velocity=63 time=5
note_on channel=5 note=84 velocity=0 time=1
control_change channel=5 control=7 value=124 time=0
note_on channel=2 note=79 velocity=0 time=3
note_on channel=2 note=67 velocity=0 time=6
control_change channel=5 control=7 value=127 time=0
note_on channel=10 note=72 velocity=0 time=4
note_on channel=9 note=35 velocity=0 time=22
note_on channel=9 note=49 velocity=0 time=0
note_on channel=5 note=86 velocity=58 time=11
note_on channel=9 note=44 velocity=0 time=4
control_change channel=7 control=7 value=124 time=0
note_on channel=10 note=74 velocity=58 time=0
control_change channel=7 control=7 value=123 time=10
note_on channel=5 note=86 velocity=0 time=14
note_on channel=5 note=84 velocity=102 time=0
note_on channel=10 note=74 velocity=0 time=4
note_on channel=10 note=72 velocity=102 time=2
note_on channel=5 note=84 velocity=0 time=7
note_on channel=10 note=72 velocity=0 time=6
control_change channel=7 control=7 value=121 time=0
note_on channel=5 note=79 velocity=68 time=13
control_change channel=7 control=7 value=120 time=4
note_on channel=9 note=45 velocity=108 time=0
note_on channel=9 note=44 velocity=100 time=0
note_on channel=10 note=67 velocity=68 time=0
note_on channel=4 note=31 velocity=0 time=11
note_on channel=5 note=79 velocity=0 time=5
note_on channel=10 note=67 velocity=0 time=4
control_change channel=7 control=7 value=118 time=0
note_on channel=5 note=84 velocity=99 time=7
control_change channel=7 control=7 value=117 time=3
note_on channel=10 note=72 velocity=99 time=0
note_on channel=5 note=84 velocity=0 time=13
note_on channel=9 note=45 velocity=0 time=2
note_on channel=10 note=72 velocity=0 time=1
control_change channel=7 control=7 value=115 time=5
note_on channel=9 note=44 velocity=0 time=9
note_on channel=5 note=86 velocity=88 time=0
note_on channel=10 note=74 velocity=88 time=0
control_change channel=7 control=7 value=114 time=5
note_on channel=10 note=74 velocity=0 time=9
note_on channel=5 note=86 velocity=0 time=0
note_on channel=5 note=91 velocity=115 time=15
control_change channel=5 control=7 value=118 time=1
note_on channel=10 note=79 velocity=115 time=0
control_change channel=5 control=7 value=109 time=10
control_change channel=5 control=7 value=108 time=5
note_on channel=5 note=91 velocity=0 time=9
note_on channel=10 note=79 velocity=0 time=1
control_change channel=5 control=7 value=106 time=0
note_on channel=10 note=72 velocity=99 time=3
note_on channel=4 note=29 velocity=115 time=2
note_on channel=9 note=49 velocity=127 time=0
note_on channel=9 note=36 velocity=127 time=0
note_on channel=9 note=44 velocity=100 time=0
note_on channel=5 note=84 velocity=84 time=1
control_change channel=5 control=7 value=105 time=6
note_on channel=5 note=86 velocity=94 time=0
control_change channel=7 control=7 value=112 time=0
control_change channel=7 control=7 value=111 time=5
control_change channel=5 control=7 value=103 time=5
note_on channel=5 note=88 velocity=78 time=1
note_on channel=5 note=84 velocity=0 time=6
note_on channel=10 note=72 velocity=0 time=3
control_change channel=7 control=7 value=109 time=0
note_on channel=9 note=49 velocity=0 time=9
note_on channel=9 note=36 velocity=0 time=5
note_on channel=5 note=86 velocity=0 time=0
control_change channel=5 control=7 value=102 time=4
note_on channel=5 note=88 velocity=0 time=6
control_change channel=5 control=7 value=100 time=0
note_on channel=2 note=60 velocity=86 time=7
note_on channel=5 note=84 velocity=36 time=0
note_on channel=9 note=44 velocity=0 time=2
control_change channel=5 control=7 value=99 time=0
note_on channel=9 note=44 velocity=100 time=0
note_on channel=2 note=72 velocity=94 time=4
control_change channel=5 control=7 value=95 time=0
control_change channel=5 control=7 value=89 time=10
note_on channel=5 note=84 velocity=0 time=2
control_change channel=7 control=7 value=108 time=0
note_on channel=2 note=72 velocity=0 time=7
note_on channel=2 note=60 velocity=0 time=2
note_on channel=9 note=40 velocity=108 time=5
note_on channel=2 note=72 velocity=81 time=7
note_on channel=2 note=60 velocity=77 time=1
note_on channel=10 note=72 velocity=112 time=18
note_on channel=9 note=44 velocity=0 time=4
note_on channel=5 note=84 velocity=102 time=0
note_on channel=9 note=44 velocity=100 time=0
note_on channel=4 note=29 velocity=0 time=3
note_on channel=5 note=86 velocity=92 time=3
note_on channel=2 note=72 velocity=0 time=3
note_on channel=2 note=60 velocity=0 time=5
note_on channel=9 note=40 velocity=0 time=1
note_on channel=5 note=88 velocity=63 time=2
note_on channel=10 note=72 velocity=0 time=5
note_on channel=5 note=84 velocity=0 time=3
control_change channel=7 control=7 value=106 time=0
control_change channel=7 control=7 value=105 time=5
note_on channel=5 note=86 velocity=0 time=12
control_change channel=7 control=7 value=103 time=0
note_on channel=2 note=62 velocity=84 time=5
note_on channel=5 note=88 velocity=0 time=1
note_on channel=2 note=74 velocity=99 time=0
note_on channel=9 note=44 velocity=0 time=12
note_on channel=4 note=29 velocity=119 time=0
control_change channel=7 control=7 value=102 time=0
note_on channel=9 note=35 velocity=108 time=0
note_on channel=9 note=44 velocity=100 time=0
control_change channel=7 control=7 value=100 time=10
note_on channel=4 note=29 velocity=0 time=11
note_on channel=2 note=62 velocity=0 time=3
note_on channel=2 note=74 velocity=0 time=1
control_change channel=7 control=7 value=99 time=5
note_on channel=9 note=35 velocity=0 time=15
control_change channel=7 control=7 value=97 time=5
note_on channel=2 note=64 velocity=105 time=4
note_on channel=10 note=72 velocity=99 time=2
note_on channel=2 note=76 velocity=124 time=2
note_on channel=9 note=44 velocity=0 time=2
note_on channel=4 note=29 velocity=127 time=0
note_on channel=9 note=35 velocity=108 time=0
note_on channel=9 note=44 velocity=100 time=0
control_change channel=7 control=7 value=96 time=15
note_on channel=10 note=72 velocity=0 time=12
note_on channel=9 note=35 velocity=0 time=18
note_on channel=9 note=44 velocity=0 time=15
note_on channel=9 note=44 velocity=100 time=0
control_change channel=7 control=7 value=95 time=5
note_on channel=10 note=67 velocity=64 time=10
note_on channel=5 note=79 velocity=64 time=2
note_on channel=2 note=76 velocity=0 time=5
note_on channel=2 note=79 velocity=108 time=5
note_on channel=2 note=64 velocity=0 time=1
note_on channel=2 note=67 velocity=86 time=1
control_change channel=7 control=7 value=94 time=5
note_on channel=10 note=69 velocity=78 time=11
note_on channel=5 note=81 velocity=78 time=2
note_on channel=9 note=44 velocity=0 time=13
note_on channel=9 note=40 velocity=108 time=0
note_on channel=9 note=44 velocity=100 time=0
note_on channel=10 note=72 velocity=124 time=0
note_on channel=10 note=67 velocity=0 time=3
note_on channel=5 note=79 velocity=0 time=2
note_on channel=5 note=83 velocity=83 time=8
note_on channel=10 note=71 velocity=83 time=2
note_on channel=10 note=69 velocity=0 time=11
note_on channel=10 note=72 velocity=0 time=2
note_on channel=5 note=81 velocity=0 time=0
control_change channel=7 control=7 value=92 time=2
note_on channel=10 note=72 velocity=75 time=0
note_on channel=5 note=84 velocity=75 time=6
control_change channel=7 control=7 value=91 time=0
note_on channel=9 note=40 velocity=0 time=9
note_on channel=2 note=64 velocity=62 time=0
note_on channel=2 note=76 velocity=72 time=0
note_on channel=2 note=79 velocity=0 time=2
note_on channel=2 note=67 velocity=0 time=1
note_on channel=5 note=83 velocity=0 time=5
note_on channel=10 note=71 velocity=0 time=2
control_change channel=5 control=7 value=90 time=0
note_on channel=4 note=29 velocity=0 time=4
note_on channel=9 note=44 velocity=0 time=1
control_change channel=5 control=7 value=92 time=0
control_change channel=7 control=7 value=89 time=0
note_on channel=9 note=40 velocity=127 time=0
note_on channel=9 note=44 velocity=100 time=0
note_on channel=10 note=74 velocity=92 time=0
control_change channel=5 control=7 value=100 time=4
note_on channel=5 note=86 velocity=92 time=0
note_on channel=10 note=72 velocity=0 time=3
note_on channel=5 note=84 velocity=0 time=6
control_change channel=5 control=7 value=106 time=0
control_change channel=5 control=7 value=115 time=5
note_on channel=2 note=76 velocity=0 time=5
control_change channel=7 control=7 value=88 time=0
control_change channel=5 control=7 value=121 time=5
note_on channel=9 note=40 velocity=0 time=2
note_on channel=9 note=40 velocity=127 time=0
note_on channel=2 note=64 velocity=0 time=1
control_change channel=5 control=7 value=122 time=5
control_change channel=7 control=7 value=86 time=0
control_change channel=5 control=7 value=124 time=5
note_on channel=5 note=88 velocity=112 time=4
note_on channel=10 note=76 velocity=112 time=0
note_on channel=10 note=74 velocity=0 time=3
control_change channel=5 control=7 value=127 time=0
note_on channel=5 note=86 velocity=0 time=4
note_on channel=9 note=36 velocity=127 time=6
note_on channel=9 note=44 velocity=0 time=2
note_on channel=9 note=40 velocity=0 time=0
note_on channel=2 note=81 velocity=105 time=0
note_on channel=4 note=29 velocity=108 time=0
note_on channel=9 note=49 velocity=108 time=0
note_on channel=2 note=69 velocity=108 time=6
note_on channel=10 note=76 velocity=127 time=6
note_on channel=9 note=49 velocity=0 time=33
note_on channel=9 note=36 velocity=0 time=2
note_on channel=2 note=69 velocity=0 time=13
note_on channel=2 note=81 velocity=0 time=3
note_on channel=9 note=36 velocity=127 time=24
note_on channel=2 note=83 velocity=124 time=3
note_on channel=4 note=29 velocity=108 time=0
note_on channel=9 note=40 velocity=108 time=0
note_on channel=9 note=49 velocity=127 time=0
note_on channel=2 note=71 velocity=127 time=1
note_on channel=4 note=29 velocity=0 time=15
note_on channel=4 note=29 velocity=0 time=14
note_on channel=9 note=36 velocity=0 time=10
note_on channel=9 note=49 velocity=0 time=3
note_on channel=9 note=40 velocity=0 time=2
note_on channel=2 note=71 velocity=0 time=10
note_on channel=2 note=83 velocity=0 time=3
note_on channel=2 note=72 velocity=127 time=25
note_on channel=2 note=84 velocity=127 time=0
control_change channel=7 control=7 value=85 time=0
note_on channel=4 note=29 velocity=115 time=7
control_change channel=7 control=7 value=83 time=0
note_on channel=9 note=44 velocity=100 time=0
note_on channel=9 note=49 velocity=127 time=0
note_on channel=9 note=36 velocity=127 time=5
control_change channel=5 control=7 value=126 time=5
control_change channel=7 control=7 value=82 time=0
control_change channel=5 control=7 value=124 time=7
control_change channel=5 control=7 value=123 time=5
control_change channel=5 control=7 value=121 time=10
control_change channel=5 control=7 value=120 time=5
control_change channel=5 control=7 value=118 time=8
control_change channel=5 control=7 value=117 time=11
note_on channel=9 note=44 velocity=0 time=4
note_on channel=9 note=44 velocity=100 time=0
control_change channel=5 control=7 value=115 time=10
control_change channel=5 control=7 value=114 time=5
control_change channel=5 control=7 value=106 time=5
note_on channel=9 note=49 velocity=0 time=5
note_on channel=5 note=88 velocity=0 time=1
note_on channel=10 note=76 velocity=0 time=0
note_on channel=10 note=76 velocity=0 time=4
note_on channel=9 note=36 velocity=0 time=0
control_change channel=5 control=7 value=105 time=0
note_on channel=10 note=67 velocity=66 time=26
note_on channel=9 note=44 velocity=0 time=4
note_on channel=5 note=67 velocity=66 time=8
note_on channel=10 note=72 velocity=47 time=49
note_on channel=9 note=45 velocity=108 time=3
note_on channel=9 note=44 velocity=100 time=0
note_on channel=10 note=67 velocity=0 time=8
note_on channel=5 note=72 velocity=47 time=1
note_on channel=5 note=67 velocity=0 time=11
note_on channel=9 note=45 velocity=0 time=25
note_on channel=10 note=72 velocity=0 time=8
control_change channel=5 control=7 value=106 time=1
note_on channel=10 note=76 velocity=83 time=0
note_on channel=9 note=44 velocity=0 time=6
note_on channel=4 note=29 velocity=0 time=0
note_on channel=9 note=44 velocity=100 time=0
control_change channel=5 control=7 value=107 time=1
note_on channel=5 note=72 velocity=0 time=4
control_change channel=5 control=7 value=109 time=1
note_on channel=5 note=76 velocity=83 time=0
control_change channel=5 control=7 value=110 time=5
note_on channel=10 note=76 velocity=0 time=20
control_change channel=7 control=7 value=80 time=0
note_on channel=5 note=76 velocity=0 time=12
note_on channel=2 note=84 velocity=0 time=3
note_on channel=2 note=72 velocity=0 time=1
note_on channel=9 note=44 velocity=0 time=13
note_on channel=9 note=36 velocity=127 time=0
note_on channel=9 note=36 velocity=108 time=0
note_on channel=9 note=44 velocity=100 time=0
note_on channel=10 note=78 velocity=124 time=0
note_on channel=4 note=38 velocity=90 time=1
note_on channel=5 note=78 velocity=124 time=11
note_on channel=9 note=36 velocity=0 time=29
control_change channel=5 control=7 value=112 time=0
note_on channel=9 note=36 velocity=0 time=4
note_on channel=9 note=44 velocity=0 time=15
note_on channel=9 note=44 velocity=100 time=0
note_on channel=9 note=40 velocity=108 time=30
note_on channel=9 note=44 velocity=0 time=30
note_on channel=9 note=44 velocity=100 time=0
note_on channel=9 note=40 velocity=0 time=15
note_on channel=4 note=38 velocity=0 time=12
note_on channel=9 note=44 velocity=0 time=33
note_on channel=4 note=38 velocity=92 time=0
note_on channel=9 note=49 velocity=127 time=0
note_on channel=9 note=35 velocity=108 time=0
note_on channel=9 note=44 velocity=100 time=0
note_on channel=4 note=38 velocity=0 time=41
note_on channel=9 note=35 velocity=0 time=4
note_on channel=9 note=49 velocity=0 time=15
note_on channel=9 note=44 velocity=0 time=0
note_on channel=4 note=36 velocity=92 time=0
note_on channel=9 note=44 velocity=100 time=0
note_on channel=10 note=78 velocity=0 time=36
control_change channel=7 control=7 value=81 time=0
note_on channel=5 note=78 velocity=0 time=12
note_on channel=10 note=78 velocity=84 time=9
note_on channel=9 note=44 velocity=0 time=3
note_on channel=9 note=44 velocity=100 time=0
note_on channel=5 note=78 velocity=84 time=9
note_on channel=9 note=44 velocity=0 time=51
note_on channel=9 note=40 velocity=108 time=0
note_on channel=9 note=44 velocity=100 time=0
note_on channel=10 note=78 velocity=0 time=1
note_on channel=10 note=79 velocity=105 time=0
note_on channel=5 note=78 velocity=0 time=12
note_on channel=5 note=79 velocity=105 time=0
note_on channel=4 note=36 velocity=0 time=18
note_on channel=9 note=40 velocity=0 time=14
note_on channel=10 note=81 velocity=84 time=8
note_on channel=9 note=44 velocity=0 time=7
note_on channel=10 note=79 velocity=0 time=0
note_on channel=9 note=44 velocity=100 time=0
note_on channel=5 note=81 velocity=84 time=5
note_on channel=4 note=36 velocity=79 time=4
note_on channel=5 note=79 velocity=0 time=3
note_on channel=4 note=36 velocity=0 time=29
note_on channel=10 note=81 velocity=0 time=10
note_on channel=9 note=44 velocity=0 time=9
note_on channel=9 note=35 velocity=108 time=0
note_on channel=9 note=44 velocity=100 time=0
note_on channel=10 note=74 velocity=92 time=0
note_on channel=5 note=81 velocity=0 time=3
note_on channel=4 note=35 velocity=90 time=9
note_on channel=5 note=74 velocity=92 time=0
note_on channel=9 note=35 velocity=0 time=33
note_on channel=9 note=44 velocity=0 time=15
note_on channel=9 note=44 velocity=100 time=0
note_on channel=9 note=40 velocity=108 time=30
note_on channel=9 note=44 velocity=0 time=30
note_on channel=9 note=44 velocity=100 time=0
note_on channel=9 note=40 velocity=0 time=15
note_on channel=4 note=35 velocity=0 time=14
note_on channel=9 note=49 velocity=127 time=27
note_on channel=9 note=44 velocity=0 time=4
note_on channel=4 note=35 velocity=64 time=0
note_on channel=9 note=35 velocity=108 time=0
note_on channel=9 note=44 velocity=100 time=0
note_on channel=4 note=35 velocity=0 time=32
note_on channel=9 note=35 velocity=0 time=13
note_on channel=4 note=33 velocity=105 time=9
note_on channel=9 note=44 velocity=0 time=6
note_on channel=9 note=33 velocity=108 time=0
note_on channel=9 note=44 velocity=100 time=0
note_on channel=9 note=33 velocity=0 time=45
note_on channel=10 note=74 velocity=0 time=1
note_on channel=5 note=74 velocity=0 time=12
note_on channel=9 note=44 velocity=0 time=2
note_on channel=9 note=44 velocity=100 time=0
note_on channel=10 note=62 velocity=68 time=0
note_on channel=9 note=49 velocity=0 time=1
note_on channel=5 note=62 velocity=68 time=11
note_on channel=10 note=67 velocity=79 time=47
note_on channel=9 note=44 velocity=0 time=1
note_on channel=9 note=45 velocity=108 time=0
note_on channel=9 note=44 velocity=100 time=0
note_on channel=10 note=62 velocity=0 time=11
note_on channel=5 note=67 velocity=79 time=0
note_on channel=5 note=62 velocity=0 time=12
note_on channel=4 note=33 velocity=0 time=6
note_on channel=9 note=45 velocity=0 time=16
note_on channel=10 note=67 velocity=0 time=13
note_on channel=9 note=44 velocity=0 time=2
note_on channel=9 note=44 velocity=100 time=0
note_on channel=10 note=74 velocity=112 time=3
note_on channel=4 note=33 velocity=78 time=1
note_on channel=5 note=67 velocity=0 time=6
note_on channel=5 note=74 velocity=112 time=5
note_on channel=10 note=74 velocity=0 time=20
note_on channel=4 note=33 velocity=0 time=10
note_on channel=5 note=74 velocity=0 time=2
note_on channel=10 note=74 velocity=119 time=9
note_on channel=9 note=44 velocity=0 time=4
note_on channel=4 note=32 velocity=105 time=0
note_on channel=9 note=36 velocity=127 time=0
note_on channel=9 note=36 velocity=108 time=0
note_on channel=9 note=44 velocity=100 time=0
note_on channel=9 note=49 velocity=127 time=7
note_on channel=5 note=74 velocity=119 time=1
note_on channel=9 note=36 velocity=0 time=33
note_on channel=9 note=49 velocity=0 time=2
note_on channel=9 note=36 velocity=0 time=2
note_on channel=9 note=44 velocity=0 time=15
note_on channel=9 note=44 velocity=100 time=0
note_on channel=9 note=40 velocity=108 time=30
note_on channel=4 note=32 velocity=0 time=15
note_on channel=10 note=72 velocity=78 time=4
note_on channel=9 note=44 velocity=0 time=11
note_on channel=9 note=44 velocity=100 time=0
note_on channel=5 note=72 velocity=78 time=1
note_on channel=10 note=74 velocity=0 time=3
note_on channel=4 note=31 velocity=119 time=3
note_on channel=9 note=40 velocity=0 time=8
note_on channel=5 note=74 velocity=0 time=1
note_on channel=10 note=71 velocity=127 time=37
note_on channel=9 note=44 velocity=0 time=7
note_on channel=9 note=35 velocity=108 time=0
note_on channel=9 note=44 velocity=100 time=0
note_on channel=5 note=71 velocity=127 time=5
note_on channel=10 note=72 velocity=0 time=2
note_on channel=5 note=72 velocity=0 time=12
note_on channel=9 note=35 velocity=0 time=26
note_on channel=10 note=69 velocity=60 time=3
note_on channel=10 note=71 velocity=0 time=11
note_on channel=9 note=44 velocity=0 time=1
note_on channel=5 note=69 velocity=60 time=0
note_on channel=9 note=35 velocity=108 time=0
note_on channel=9 note=44 velocity=100 time=0
note_on channel=5 note=71 velocity=0 time=11
note_on channel=9 note=35 velocity=0 time=34
note_on channel=9 note=44 velocity=0 time=15
note_on channel=9 note=44 velocity=100 time=0
note_on channel=10 note=67 velocity=75 time=52
note_on channel=10 note=69 velocity=0 time=5
note_on channel=9 note=44 velocity=0 time=3
note_on channel=9 note=40 velocity=108 time=0
note_on channel=9 note=44 velocity=100 time=0
note_on channel=5 note=67 velocity=75 time=4
note_on channel=5 note=69 velocity=0 time=5
note_on channel=9 note=40 velocity=0 time=36
note_on channel=9 note=44 velocity=0 time=15
note_on channel=9 note=44 velocity=100 time=0
note_on channel=4 note=31 velocity=0 time=6
note_on channel=10 note=67 velocity=0 time=32
note_on channel=5 note=67 velocity=0 time=12
note_on channel=4 note=34 velocity=127 time=3
note_on channel=9 note=44 velocity=0 time=7
note_on channel=9 note=49 velocity=108 time=0
note_on channel=9 note=35 velocity=108 time=0
note_on channel=9 note=44 velocity=100 time=0
note_on channel=10 note=76 velocity=124 time=0
note_on channel=5 note=76 velocity=124 time=12
note_on channel=9 note=35 velocity=0 time=33
note_on channel=9 note=49 velocity=0 time=0
note_on channel=9 note=44 velocity=0 time=15
note_on channel=9 note=44 velocity=100 time=0
note_on channel=9 note=40 velocity=108 time=30
note_on channel=10 note=74 velocity=77 time=25
note_on channel=4 note=34 velocity=0 time=1
note_on channel=9 note=44 velocity=0 time=4
note_on channel=9 note=44 velocity=100 time=0
note_on channel=5 note=74 velocity=77 time=7
note_on channel=4 note=33 velocity=119 time=2
note_on channel=10 note=76 velocity=0 time=2
note_on channel=9 note=40 velocity=0 time=4
note_on channel=5 note=76 velocity=0 time=8
note_on channel=10 note=73 velocity=115 time=31
note_on channel=9 note=44 velocity=0 time=6
note_on channel=9 note=35 velocity=108 time=0
note_on channel=9 note=44 velocity=100 time=0
note_on channel=5 note=73 velocity=115 time=6
note_on channel=10 note=74 velocity=0 time=4
note_on channel=5 note=74 velocity=0 time=12
note_on channel=9 note=35 velocity=0 time=23
note_on channel=10 note=71 velocity=112 time=13
note_on channel=10 note=73 velocity=0 time=1
note_on channel=9 note=44 velocity=0 time=1
note_on channel=9 note=33 velocity=108 time=0
note_on channel=9 note=44 velocity=100 time=0
note_on channel=5 note=71 velocity=112 time=10
note_on channel=5 note=73 velocity=0 time=1
note_on channel=9 note=33 velocity=0 time=34
note_on channel=9 note=44 velocity=0 time=15
note_on channel=9 note=44 velocity=100 time=0
note_on channel=10 note=71 velocity=0 time=54
note_on channel=9 note=44 velocity=0 time=6
note_on channel=2 note=69 velocity=97 time=0
note_on channel=9 note=45 velocity=108 time=0
note_on channel=9 note=44 velocity=100 time=0
note_on channel=10 note=69 velocity=108 time=0
note_on channel=11 note=57 velocity=97 time=0
note_on channel=14 note=69 velocity=97 time=0
note_on channel=5 note=71 velocity=0 time=6
note_on channel=5 note=69 velocity=108 time=6
note_on channel=14 note=69 velocity=0 time=18
note_on channel=11 note=57 velocity=0 time=0
note_on channel=2 note=69 velocity=0 time=0
note_on channel=9 note=45 velocity=0 time=15
note_on channel=9 note=44 velocity=0 time=15
note_on channel=2 note=71 velocity=99 time=0
note_on channel=9 note=44 velocity=100 time=0
note_on channel=11 note=59 velocity=99 time=0
note_on channel=14 note=71 velocity=99 time=0
note_on channel=14 note=71 velocity=0 time=30
note_on channel=2 note=71 velocity=0 time=0
note_on channel=11 note=59 velocity=0 time=0
note_on channel=9 note=44 velocity=0 time=30
note_on channel=2 note=74 velocity=81 time=0
note_on channel=9 note=36 velocity=108 time=0
note_on channel=9 note=44 velocity=100 time=0
note_on channel=11 note=62 velocity=81 time=0
note_on channel=14 note=74 velocity=81 time=0
note_on channel=14 note=74 velocity=0 time=30
note_on channel=11 note=62 velocity=0 time=0
note_on channel=2 note=74 velocity=0 time=0
note_on channel=2 note=76 velocity=81 time=0
note_on channel=11 note=64 velocity=59 time=0
note_on channel=14 note=76 velocity=59 time=0
note_on channel=9 note=36 velocity=0 time=15
note_on channel=14 note=76 velocity=0 time=15
note_on channel=2 note=76 velocity=0 time=0
note_on channel=9 note=44 velocity=0 time=0
note_on channel=11 note=64 velocity=0 time=0
note_on channel=2 note=79 velocity=102 time=0
note_on channel=9 note=44 velocity=100 time=0
note_on channel=11 note=67 velocity=102 time=0
note_on channel=14 note=79 velocity=102 time=0
note_on channel=14 note=79 velocity=0 time=30
note_on channel=2 note=79 velocity=0 time=0
note_on channel=11 note=67 velocity=0 time=0
note_on channel=9 note=40 velocity=108 time=0
note_on channel=9 note=48 velocity=97 time=26
note_on channel=9 note=44 velocity=0 time=4
note_on channel=2 note=79 velocity=92 time=0
note_on channel=9 note=44 velocity=100 time=0
note_on channel=11 note=67 velocity=92 time=0
note_on channel=14 note=79 velocity=92 time=0
note_on channel=9 note=40 velocity=0 time=15
note_on channel=9 note=48 velocity=0 time=9
note_on channel=9 note=47 velocity=115 time=1
note_on channel=14 note=79 velocity=0 time=5
note_on channel=11 note=67 velocity=0 time=0
note_on channel=2 note=79 velocity=0 time=0
note_on channel=2 note=81 velocity=92 time=0
note_on channel=11 note=69 velocity=92 time=0
note_on channel=14 note=81 velocity=92 time=0
note_on channel=4 note=33 velocity=0 time=4
note_on channel=9 note=47 velocity=0 time=12
note_on channel=2 note=81 velocity=0 time=14
note_on channel=9 note=44 velocity=0 time=0
note_on channel=14 note=81 velocity=0 time=0
note_on channel=11 note=69 velocity=0 time=0
note_on channel=9 note=35 velocity=108 time=0
note_on channel=9 note=44 velocity=100 time=0
control_change channel=13 control=7 value=71 time=20
note_on channel=2 note=79 velocity=92 time=10
note_on channel=2 note=83 velocity=127 time=0
note_on channel=11 note=71 velocity=115 time=0
note_on channel=11 note=67 velocity=115 time=0
note_on channel=14 note=83 velocity=127 time=0
note_on channel=9 note=35 velocity=0 time=15
note_on channel=2 note=79 velocity=0 time=15
note_on channel=9 note=44 velocity=0 time=0
note_on channel=9 note=35 velocity=108 time=0
note_on channel=9 note=44 velocity=100 time=0
control_change channel=13 control=7 value=72 time=15
control_change channel=13 control=7 value=77 time=5
note_on channel=2 note=83 velocity=0 time=10
note_on channel=14 note=83 velocity=0 time=0
note_on channel=11 note=67 velocity=0 time=0
note_on channel=11 note=71 velocity=0 time=0
control_change channel=13 control=7 value=78 time=5
note_on channel=9 note=35 velocity=0 time=10
control_change channel=13 control=7 value=80 time=0
note_on channel=9 note=44 velocity=0 time=15
note_on channel=2 note=79 velocity=119 time=0
note_on channel=2 note=81 velocity=119 time=0
note_on channel=9 note=44 velocity=100 time=0
note_on channel=11 note=67 velocity=119 time=0
note_on channel=11 note=69 velocity=119 time=0
control_change channel=13 control=7 value=81 time=0
note_on channel=14 note=79 velocity=119 time=0
note_on channel=14 note=81 velocity=119 time=0
control_change channel=13 control=7 value=83 time=10
control_change channel=13 control=7 value=84 time=10
control_change channel=13 control=7 value=86 time=5
note_on channel=14 note=81 velocity=0 time=5
note_on channel=2 note=79 velocity=0 time=0
note_on channel=14 note=79 velocity=0 time=0
note_on channel=2 note=81 velocity=0 time=0
note_on channel=11 note=69 velocity=0 time=0
note_on channel=11 note=67 velocity=0 time=0
note_on channel=9 note=47 velocity=88 time=1
control_change channel=13 control=7 value=87 time=0
note_on channel=10 note=69 velocity=0 time=7
control_change channel=13 control=7 value=89 time=0
note_on channel=9 note=45 velocity=112 time=7
note_on channel=9 note=47 velocity=0 time=7
note_on channel=5 note=69 velocity=0 time=2
control_change channel=13 control=7 value=90 time=0
note_on channel=9 note=44 velocity=0 time=6
note_on channel=2 note=79 velocity=92 time=0
note_on channel=9 note=40 velocity=108 time=0
note_on channel=9 note=44 velocity=100 time=0
note_on channel=11 note=67 velocity=92 time=0
control_change channel=13 control=7 value=92 time=0
note_on channel=14 note=79 velocity=92 time=0
control_change channel=13 control=7 value=93 time=5
note_on channel=9 note=45 velocity=0 time=9
control_change channel=13 control=7 value=95 time=0
note_on channel=9 note=43 velocity=66 time=5
note_on channel=11 note=67 velocity=0 time=11
note_on channel=2 note=79 velocity=0 time=0
note_on channel=14 note=79 velocity=0 time=0
note_on channel=2 note=81 velocity=119 time=0
note_on channel=11 note=69 velocity=119 time=0
control_change channel=13 control=7 value=97 time=0
note_on channel=14 note=81 velocity=119 time=0
note_on channel=9 note=43 velocity=0 time=6
control_change channel=13 control=7 value=98 time=0
control_change channel=13 control=7 value=100 time=5
note_on channel=9 note=40 velocity=0 time=4
control_change channel=13 control=7 value=101 time=5
control_change channel=13 control=7 value=103 time=5
note_on channel=2 note=81 velocity=0 time=5
note_on channel=9 note=44 velocity=0 time=0
note_on channel=14 note=81 velocity=0 time=0
note_on channel=11 note=69 velocity=0 time=0
note_on channel=2 note=83 velocity=127 time=0
note_on channel=9 note=44 velocity=100 time=0
note_on channel=11 note=71 velocity=127 time=0
note_on channel=14 note=83 velocity=127 time=0
control_change channel=13 control=7 value=104 time=5
control_change channel=13 control=7 value=106 time=10
control_change channel=13 control=7 value=107 time=10
note_on channel=14 note=83 velocity=0 time=5
note_on channel=11 note=71 velocity=0 time=0
note_on channel=2 note=83 velocity=0 time=0
control_change channel=13 control=7 value=109 time=5
control_change channel=13 control=7 value=110 time=10
note_on channel=10 note=50 velocity=68 time=8
note_on channel=4 note=38 velocity=102 time=3
note_on channel=10 note=74 velocity=127 time=1
note_on channel=9 note=44 velocity=0 time=3
note_on channel=2 note=74 velocity=127 time=0
note_on channel=2 note=86 velocity=127 time=0
note_on channel=9 note=36 velocity=127 time=0
note_on channel=9 note=36 velocity=108 time=0
note_on channel=9 note=44 velocity=100 time=0
note_on channel=11 note=74 velocity=127 time=0
note_on channel=11 note=86 velocity=127 time=0
note_on channel=14 note=86 velocity=127 time=0
note_on channel=5 note=62 velocity=115 time=1
control_change channel=13 control=7 value=112 time=0
note_on channel=9 note=49 velocity=127 time=6
control_change channel=13 control=7 value=113 time=0
control_change channel=13 control=7 value=115 time=10
control_change channel=13 control=7 value=116 time=5
control_change channel=13 control=7 value=118 time=10
control_change channel=13 control=7 value=119 time=5
note_on channel=9 note=36 velocity=0 time=4
note_on channel=9 note=49 velocity=0 time=2
note_on channel=9 note=36 velocity=0 time=2
control_change channel=13 control=7 value=121 time=10
note_on channel=9 note=44 velocity=0 time=5
note_on channel=9 note=44 velocity=100 time=0
note_on channel=5 note=62 velocity=0 time=1
control_change channel=13 control=7 value=122 time=0
note_on channel=13 note=74 velocity=90 time=22
note_on channel=10 note=74 velocity=0 time=1
note_on channel=12 note=74 velocity=49 time=2
note_on channel=9 note=40 velocity=108 time=4
note_on channel=13 note=74 velocity=0 time=6
note_on channel=12 note=74 velocity=0 time=6
note_on channel=13 note=74 velocity=70 time=8
note_on channel=9 note=44 velocity=0 time=10
note_on channel=11 note=74 velocity=0 time=0
note_on channel=2 note=86 velocity=0 time=0
note_on channel=11 note=86 velocity=0 time=0
note_on channel=2 note=74 velocity=0 time=0
note_on channel=14 note=86 velocity=0 time=0
note_on channel=9 note=44 velocity=100 time=0
note_on channel=12 note=74 velocity=63 time=2
note_on channel=4 note=38 velocity=0 time=9
note_on channel=9 note=40 velocity=0 time=4
control_change channel=13 control=7 value=124 time=0
note_on channel=13 note=74 velocity=0 time=4
control_change channel=13 control=7 value=125 time=0
control_change channel=13 control=7 value=127 time=5
note_on channel=12 note=74 velocity=0 time=8
note_on channel=4 note=38 velocity=102 time=23
note_on channel=9 note=44 velocity=0 time=5
note_on channel=9 note=35 velocity=108 time=0
note_on channel=9 note=44 velocity=100 time=0
note_on channel=13 note=76 velocity=105 time=0
note_on channel=12 note=74 velocity=53 time=4
note_on channel=4 note=38 velocity=0 time=18
note_on channel=13 note=76 velocity=0 time=5
note_on channel=12 note=74 velocity=0 time=1
note_on channel=9 note=35 velocity=0 time=17
note_on channel=9 note=44 velocity=0 time=15
note_on channel=4 note=38 velocity=115 time=0
note_on channel=9 note=35 velocity=108 time=0
note_on channel=9 note=44 velocity=100 time=0
note_on channel=13 note=78 velocity=105 time=3
note_on channel=12 note=74 velocity=61 time=4
note_on channel=9 note=35 velocity=0 time=38
note_on channel=13 note=78 velocity=0 time=13
note_on channel=9 note=44 velocity=0 time=2
note_on channel=9 note=44 velocity=100 time=0
note_on channel=12 note=74 velocity=0 time=6
note_on channel=13 note=81 velocity=66 time=24
note_on channel=12 note=74 velocity=51 time=13
note_on channel=9 note=44 velocity=0 time=17
note_on channel=9 note=40 velocity=108 time=0
note_on channel=9 note=44 velocity=100 time=0
note_on channel=12 note=74 velocity=0 time=12
note_on channel=4 note=38 velocity=0 time=12
note_on channel=13 note=81 velocity=0 time=8
note_on channel=9 note=40 velocity=0 time=13
note_on channel=9 note=44 velocity=0 time=15
note_on channel=9 note=44 velocity=100 time=0
note_on channel=12 note=74 velocity=66 time=2
note_on channel=13 note=79 velocity=90 time=1
note_on channel=4 note=38 velocity=124 time=8
note_on channel=9 note=44 velocity=0 time=49
note_on channel=9 note=35 velocity=108 time=0
note_on channel=9 note=44 velocity=100 time=0
note_on channel=9 note=35 velocity=0 time=45
note_on channel=9 note=44 velocity=0 time=15
note_on channel=9 note=44 velocity=100 time=0
note_on channel=9 note=40 velocity=108 time=30
note_on channel=9 note=44 velocity=0 time=30
note_on channel=9 note=44 velocity=100 time=0
note_on channel=12 note=74 velocity=0 time=9
note_on channel=9 note=40 velocity=0 time=6
note_on channel=4 note=38 velocity=0 time=6
note_on channel=13 note=79 velocity=0 time=33
note_on channel=13 note=78 velocity=92 time=2
note_on channel=12 note=74 velocity=62 time=1
note_on channel=9 note=44 velocity=0 time=3
note_on channel=9 note=35 velocity=108 time=0
note_on channel=9 note=44 velocity=100 time=0
note_on channel=4 note=38 velocity=112 time=4
note_on channel=13 note=78 velocity=0 time=13
note_on channel=13 note=76 velocity=124 time=4
note_on channel=12 note=73 velocity=81 time=5
note_on channel=4 note=38 velocity=0 time=3
note_on channel=12 note=74 velocity=0 time=2
note_on channel=9 note=35 velocity=0 time=14
note_on channel=13 note=76 velocity=0 time=0
note_on channel=13 note=74 velocity=105 time=0
note_on channel=10 note=71 velocity=127 time=5
note_on channel=12 note=71 velocity=61 time=2
note_on channel=12 note=73 velocity=0 time=2
note_on channel=10 note=50 velocity=0 time=0
note_on channel=2 note=67 velocity=90 time=2
note_on channel=5 note=59 velocity=124 time=0
note_on channel=9 note=44 velocity=0 time=4
note_on channel=2 note=79 velocity=127 time=0
note_on channel=9 note=33 velocity=108 time=0
note_on channel=9 note=44 velocity=100 time=0
note_on channel=10 note=59 velocity=55 time=0
note_on channel=11 note=67 velocity=127 time=0
note_on channel=14 note=67 velocity=127 time=0
note_on channel=4 note=31 velocity=119 time=7
note_on channel=9 note=33 velocity=0 time=38
note_on channel=9 note=44 velocity=0 time=15
note_on channel=9 note=44 velocity=100 time=0
note_on channel=5 note=59 velocity=0 time=8
note_on channel=10 note=71 velocity=0 time=12
note_on channel=14 note=67 velocity=0 time=4
note_on channel=11 note=67 velocity=0 time=0
note_on channel=2 note=79 velocity=0 time=0
note_on channel=2 note=67 velocity=0 time=1
note_on channel=4 note=31 velocity=0 time=12
note_on channel=13 note=74 velocity=0 time=13
note_on channel=10 note=55 velocity=48 time=1
note_on channel=2 note=81 velocity=112 time=2
note_on channel=10 note=69 velocity=127 time=0
note_on channel=10 note=59 velocity=0 time=1
note_on channel=13 note=76 velocity=119 time=2
note_on channel=5 note=57 velocity=92 time=2
note_on channel=10 note=71 velocity=97 time=1
note_on channel=9 note=44 velocity=0 time=1
note_on channel=2 note=79 velocity=112 time=0
note_on channel=2 note=69 velocity=66 time=0
note_on channel=9 note=46 velocity=108 time=0
note_on channel=9 note=45 velocity=100 time=0
note_on channel=11 note=69 velocity=112 time=0
note_on channel=12 note=73 velocity=59 time=0
note_on channel=14 note=67 velocity=112 time=0
note_on channel=14 note=69 velocity=112 time=0
note_on channel=12 note=71 velocity=0 time=3
note_on channel=4 note=33 velocity=115 time=2
note_on channel=10 note=71 velocity=0 time=12
note_on channel=9 note=46 velocity=0 time=28
note_on channel=9 note=45 velocity=0 time=15
note_on channel=9 note=44 velocity=100 time=0
note_on channel=5 note=57 velocity=0 time=9
note_on channel=4 note=33 velocity=0 time=6
note_on channel=2 note=81 velocity=0 time=1
note_on channel=14 note=67 velocity=0 time=7
note_on channel=10 note=69 velocity=0 time=0
note_on channel=2 note=79 velocity=0 time=0
note_on channel=14 note=69 velocity=0 time=0
note_on channel=11 note=69 velocity=0 time=0
note_on channel=10 note=55 velocity=0 time=20
note_on channel=2 note=69 velocity=0 time=5
note_on channel=5 note=62 velocity=102 time=3
note_on channel=10 note=74 velocity=127 time=3
note_on channel=2 note=74 velocity=105 time=1
note_on channel=2 note=86 velocity=127 time=3
note_on channel=9 note=44 velocity=0 time=2
note_on channel=9 note=36 velocity=108 time=0
note_on channel=9 note=44 velocity=100 time=0
note_on channel=9 note=49 velocity=127 time=0
note_on channel=10 note=50 velocity=52 time=0
note_on channel=11 note=74 velocity=112 time=0
note_on channel=14 note=74 velocity=112 time=0
note_on channel=4 note=38 velocity=105 time=3
note_on channel=9 note=49 velocity=75 time=3
note_on channel=12 note=73 velocity=0 time=6
note_on channel=13 note=76 velocity=0 time=4
note_on channel=9 note=49 velocity=0 time=7
note_on channel=9 note=49 velocity=0 time=11
note_on channel=9 note=36 velocity=0 time=11
note_on channel=9 note=44 velocity=0 time=15
note_on channel=9 note=44 velocity=100 time=0
note_on channel=5 note=62 velocity=0 time=3
note_on channel=2 note=74 velocity=0 time=2
note_on channel=13 note=74 velocity=115 time=2
note_on channel=2 note=86 velocity=0 time=2
note_on channel=12 note=74 velocity=65 time=7
note_on channel=11 note=74 velocity=0 time=7
note_on channel=14 note=74 velocity=0 time=0
note_on channel=13 note=74 velocity=0 time=5
note_on channel=10 note=74 velocity=0 time=0
note_on channel=9 note=40 velocity=108 time=2
note_on channel=12 note=74 velocity=0 time=5
note_on channel=13 note=74 velocity=72 time=6
note_on channel=12 note=74 velocity=59 time=11
note_on channel=9 note=44 velocity=0 time=8
note_on channel=9 note=44 velocity=100 time=0
note_on channel=13 note=74 velocity=0 time=12
note_on channel=4 note=38 velocity=0 time=0
note_on channel=9 note=40 velocity=0 time=3
note_on channel=12 note=74 velocity=0 time=4
note_on channel=13 note=76 velocity=94 time=26
note_on channel=12 note=74 velocity=66 time=7
note_on channel=9 note=44 velocity=0 time=8
note_on channel=9 note=35 velocity=108 time=0
note_on channel=9 note=44 velocity=100 time=0
note_on channel=4 note=38 velocity=119 time=1
note_on channel=12 note=74 velocity=0 time=13
note_on channel=13 note=76 velocity=0 time=5
note_on channel=4 note=38 velocity=0 time=8
note_on channel=9 note=35 velocity=0 time=18
note_on channel=13 note=78 velocity=102 time=8
note_on channel=9 note=44 velocity=0 time=7
note_on channel=4 note=38 velocity=115 time=0
note_on channel=9 note=35 velocity=108 time=0
note_on channel=9 note=44 velocity=100 time=0
note_on channel=12 note=74 velocity=94 time=4
note_on channel=9 note=35 velocity=0 time=41
note_on channel=9 note=44 velocity=0 time=15
note_on channel=9 note=44 velocity=100 time=0
note_on channel=13 note=78 velocity=0 time=9
note_on channel=12 note=74 velocity=0 time=6
note_on channel=13 note=81 velocity=81 time=14
note_on channel=12 note=74 velocity=55 time=13
note_on channel=9 note=44 velocity=0 time=18
note_on channel=9 note=40 velocity=108 time=0
note_on channel=9 note=44 velocity=100 time=0
note_on channel=12 note=74 velocity=0 time=11
note_on channel=13 note=81 velocity=0 time=12
note_on channel=4 note=38 velocity=0 time=4
note_on channel=9 note=40 velocity=0 time=18
note_on channel=9 note=44 velocity=0 time=15
note_on channel=9 note=44 velocity=100 time=0
note_on channel=12 note=74 velocity=84 time=0
note_on channel=13 note=84 velocity=105 time=7
note_on channel=4 note=38 velocity=119 time=4
note_on channel=9 note=44 velocity=0 time=49
note_on channel=9 note=35 velocity=108 time=0
note_on channel=9 note=44 velocity=100 time=0
note_on channel=9 note=35 velocity=0 time=45
note_on channel=9 note=44 velocity=0 time=15
note_on channel=9 note=44 velocity=100 time=0
note_on channel=9 note=40 velocity=108 time=30
note_on channel=9 note=44 velocity=0 time=30
note_on channel=9 note=44 velocity=100 time=0
note_on channel=9 note=40 velocity=0 time=15
note_on channel=4 note=38 velocity=0 time=6
note_on channel=12 note=74 velocity=0 time=36
note_on channel=12 note=79 velocity=38 time=2
note_on channel=9 note=44 velocity=0 time=1
note_on channel=9 note=35 velocity=108 time=0
note_on channel=9 note=44 velocity=100 time=0
note_on channel=4 note=38 velocity=94 time=4
note_on channel=13 note=84 velocity=0 time=1
note_on channel=13 note=83 velocity=105 time=1
note_on channel=12 note=78 velocity=60 time=15
note_on channel=13 note=83 velocity=0 time=6
note_on channel=4 note=38 velocity=0 time=5
note_on channel=13 note=81 velocity=108 time=0
note_on channel=12 note=79 velocity=0 time=3
note_on channel=10 note=50 velocity=0 time=6
note_on channel=9 note=35 velocity=0 time=4
note_on channel=10 note=55 velocity=47 time=5
note_on channel=10 note=67 velocity=127 time=3
note_on channel=13 note=79 velocity=102 time=0
note_on channel=2 note=84 velocity=108 time=1
note_on channel=13 note=81 velocity=0 time=1
note_on channel=2 note=72 velocity=127 time=0
note_on channel=12 note=76 velocity=70 time=1
note_on channel=12 note=77 velocity=53 time=2
note_on channel=9 note=44 velocity=0 time=2
note_on channel=5 note=55 velocity=115 time=0
note_on channel=9 note=33 velocity=108 time=0
note_on channel=9 note=44 velocity=100 time=0
note_on channel=11 note=60 velocity=108 time=0
note_on channel=14 note=72 velocity=108 time=0
note_on channel=12 note=78 velocity=0 time=2
note_on channel=4 note=36 velocity=83 time=2
note_on channel=12 note=77 velocity=0 time=6
note_on channel=9 note=33 velocity=0 time=35
note_on channel=4 note=36 velocity=0 time=0
note_on channel=9 note=44 velocity=0 time=15
note_on channel=9 note=44 velocity=100 time=0
note_on channel=5 note=55 velocity=0 time=13
note_on channel=10 note=67 velocity=0 time=9
note_on channel=2 note=84 velocity=0 time=9
note_on channel=2 note=72 velocity=0 time=6
note_on channel=11 note=60 velocity=0 time=0
note_on channel=14 note=72 velocity=0 time=0
note_on channel=5 note=57 velocity=94 time=13
note_on channel=10 note=55 velocity=0 time=1
note_on channel=10 note=57 velocity=61 time=2
note_on channel=12 note=76 velocity=0 time=2
note_on channel=12 note=74 velocity=52 time=1
note_on channel=10 note=69 velocity=127 time=1
note_on channel=13 note=81 velocity=94 time=2
note_on channel=9 note=44 velocity=0 time=1
note_on channel=2 note=67 velocity=127 time=0
note_on channel=2 note=69 velocity=127 time=0
note_on channel=2 note=81 velocity=127 time=0
note_on channel=4 note=31 velocity=127 time=0
note_on channel=9 note=45 velocity=108 time=0
note_on channel=9 note=44 velocity=100 time=0
note_on channel=11 note=57 velocity=127 time=0
note_on channel=14 note=79 velocity=127 time=0
note_on channel=14 note=69 velocity=127 time=0
note_on channel=13 note=79 velocity=0 time=3
note_on channel=9 note=45 velocity=0 time=42
note_on channel=9 note=44 velocity=0 time=15
note_on channel=9 note=44 velocity=100 time=0
note_on channel=4 note=31 velocity=0 time=18
note_on channel=2 note=81 velocity=0 time=1
note_on channel=2 note=67 velocity=0 time=0
note_on channel=14 note=79 velocity=0 time=0
note_on channel=10 note=69 velocity=0 time=4
note_on channel=2 note=69 velocity=0 time=5
note_on channel=11 note=57 velocity=0 time=0
note_on channel=14 note=69 velocity=0 time=0
note_on channel=5 note=57 velocity=0 time=1
note_on channel=10 note=57 velocity=0 time=22
note_on channel=2 note=74 velocity=127 time=3
note_on channel=2 note=86 velocity=115 time=1
note_on channel=10 note=50 velocity=52 time=0
note_on channel=10 note=74 velocity=127 time=0
note_on channel=5 note=62 velocity=127 time=3
note_on channel=9 note=44 velocity=0 time=2
note_on channel=4 note=38 velocity=97 time=0
note_on channel=9 note=36 velocity=127 time=0
note_on channel=9 note=44 velocity=100 time=0
note_on channel=11 note=62 velocity=127 time=0
note_on channel=14 note=74 velocity=127 time=0
note_on channel=9 note=49 velocity=127 time=7
note_on channel=13 note=81 velocity=0 time=14
note_on channel=12 note=74 velocity=0 time=1
note_on channel=9 note=36 velocity=0 time=19
note_on channel=9 note=49 velocity=0 time=2
note_on channel=9 note=44 velocity=0 time=17
note_on channel=9 note=44 velocity=100 time=0
note_on channel=2 note=86 velocity=0 time=10
note_on channel=13 note=74 velocity=105 time=2
note_on channel=12 note=74 velocity=62 time=1
note_on channel=5 note=62 velocity=0 time=1
note_on channel=2 note=74 velocity=0 time=0
note_on channel=14 note=74 velocity=0 time=14
note_on channel=11 note=62 velocity=0 time=0
note_on channel=9 note=40 velocity=108 time=2
note_on channel=10 note=74 velocity=0 time=2
note_on channel=13 note=74 velocity=0 time=4
note_on channel=12 note=74 velocity=0 time=0
note_on channel=13 note=74 velocity=53 time=10
note_on channel=12 note=74 velocity=65 time=4
note_on channel=9 note=44 velocity=0 time=10
note_on channel=9 note=44 velocity=100 time=0
note_on channel=9 note=40 velocity=0 time=15
note_on channel=4 note=38 velocity=0 time=1
note_on channel=13 note=74 velocity=0 time=4
note_on channel=12 note=74 velocity=0 time=5
note_on channel=13 note=76 velocity=94 time=24
note_on channel=12 note=74 velocity=58 time=8
note_on channel=9 note=44 velocity=0 time=3
note_on channel=9 note=35 velocity=108 time=0
note_on channel=9 note=44 velocity=100 time=0
note_on channel=4 note=38 velocity=78 time=5
note_on channel=13 note=76 velocity=0 time=18
note_on channel=12 note=74 velocity=0 time=3
note_on channel=4 note=38 velocity=0 time=4
note_on channel=9 note=35 velocity=0 time=15
note_on channel=13 note=78 velocity=88 time=8
note_on channel=9 note=44 velocity=0 time=7
note_on channel=4 note=38 velocity=102 time=0
note_on channel=9 note=35 velocity=108 time=0
note_on channel=9 note=44 velocity=100 time=0
note_on channel=12 note=74 velocity=61 time=0
note_on channel=9 note=35 velocity=0 time=45
note_on channel=9 note=44 velocity=0 time=15
note_on channel=9 note=44 velocity=100 time=0
note_on channel=12 note=74 velocity=0 time=9
note_on channel=13 note=78 velocity=0 time=4
note_on channel=13 note=81 velocity=81 time=13
note_on channel=12 note=74 velocity=61 time=12
note_on channel=9 note=44 velocity=0 time=22
note_on channel=9 note=40 velocity=108 time=0
note_on channel=9 note=44 velocity=100 time=0
note_on channel=4 note=38 velocity=0 time=5
note_on channel=12 note=74 velocity=0 time=5
note_on channel=13 note=81 velocity=0 time=17
note_on channel=9 note=40 velocity=0 time=18
note_on channel=12 note=74 velocity=56 time=7
note_on channel=9 note=44 velocity=0 time=8
note_on channel=4 note=38 velocity=112 time=0
note_on channel=9 note=44 velocity=100 time=0
note_on channel=13 note=78 velocity=86 time=0
note_on channel=10 note=50 velocity=0 time=9
note_on channel=13 note=78 velocity=0 time=19
note_on channel=4 note=38 velocity=0 time=2
note_on channel=12 note=74 velocity=0 time=5
note_on channel=2 note=67 velocity=68 time=23
note_on channel=9 note=44 velocity=0 time=2
note_on channel=4 note=31 velocity=127 time=0
note_on channel=9 note=49 velocity=100 time=0
note_on channel=9 note=35 velocity=108 time=0
note_on channel=9 note=44 velocity=100 time=0
note_on channel=11 note=67 velocity=115 time=0
note_on channel=12 note=79 velocity=58 time=0
note_on channel=14 note=67 velocity=115 time=0
note_on channel=2 note=79 velocity=115 time=3
note_on channel=10 note=71 velocity=105 time=5
note_on channel=13 note=83 velocity=66 time=0
note_on channel=9 note=35 velocity=0 time=37
note_on channel=9 note=49 velocity=0 time=15
note_on channel=13 note=83 velocity=0 time=0
note_on channel=9 note=44 velocity=0 time=0
note_on channel=4 note=31 velocity=0 time=6
note_on channel=10 note=71 velocity=0 time=14
note_on channel=2 note=67 velocity=0 time=1
note_on channel=11 note=67 velocity=0 time=6
note_on channel=14 note=67 velocity=0 time=0
note_on channel=2 note=79 velocity=0 time=3
note_on channel=2 note=78 velocity=127 time=0
note_on channel=9 note=49 velocity=108 time=0
note_on channel=9 note=40 velocity=108 time=0
note_on channel=10 note=73 velocity=102 time=0
note_on channel=11 note=66 velocity=127 time=0
note_on channel=14 note=66 velocity=127 time=0
note_on channel=12 note=79 velocity=0 time=3
note_on channel=2 note=66 velocity=55 time=0
note_on channel=12 note=78 velocity=43 time=0
note_on channel=13 note=85 velocity=102 time=3
note_on channel=4 note=30 velocity=127 time=3
note_on channel=9 note=40 velocity=0 time=36
note_on channel=9 note=49 velocity=0 time=0
note_on channel=4 note=30 velocity=0 time=13
note_on channel=2 note=78 velocity=0 time=0
note_on channel=14 note=66 velocity=0 time=0
note_on channel=11 note=66 velocity=0 time=0
note_on channel=2 note=66 velocity=0 time=9
note_on channel=13 note=85 velocity=0 time=1
note_on channel=10 note=73 velocity=0 time=12
note_on channel=2 note=64 velocity=99 time=7
note_on channel=4 note=28 velocity=127 time=0
note_on channel=2 note=76 velocity=127 time=1
note_on channel=9 note=49 velocity=108 time=2
note_on channel=9 note=35 velocity=108 time=0
note_on channel=11 note=64 velocity=127 time=0
note_on channel=14 note=64 velocity=127 time=0
note_on channel=10 note=74 velocity=97 time=3
note_on channel=12 note=78 velocity=0 time=2
note_on channel=12 note=76 velocity=63 time=0
note_on channel=13 note=86 velocity=99 time=0
note_on channel=9 note=49 velocity=0 time=40
note_on channel=9 note=35 velocity=0 time=0
note_on channel=9 note=38 velocity=127 time=129
note_on channel=9 note=36 velocity=127 time=0
note_on channel=4 note=28 velocity=0 time=59
note_on channel=2 note=73 velocity=127 time=17
note_on channel=11 note=73 velocity=115 time=0
note_on channel=5 note=73 velocity=124 time=4
note_on channel=14 note=73 velocity=119 time=1
note_on channel=2 note=64 velocity=0 time=2
note_on channel=10 note=74 velocity=0 time=2
note_on channel=2 note=76 velocity=0 time=0
note_on channel=14 note=64 velocity=0 time=2
note_on channel=11 note=64 velocity=0 time=0
note_on channel=13 note=86 velocity=0 time=8
note_on channel=5 note=74 velocity=127 time=4
note_on channel=11 note=74 velocity=127 time=0
note_on channel=2 note=73 velocity=0 time=2
note_on channel=12 note=76 velocity=0 time=0
note_on channel=2 note=74 velocity=102 time=1
note_on channel=14 note=74 velocity=127 time=0
note_on channel=11 note=73 velocity=0 time=2
note_on channel=14 note=76 velocity=112 time=1
note_on channel=5 note=73 velocity=0 time=2
note_on channel=14 note=73 velocity=0 time=2
note_on channel=2 note=76 velocity=127 time=3
note_on channel=14 note=76 velocity=0 time=1
note_on channel=9 note=38 velocity=0 time=0
note_on channel=9 note=36 velocity=0 time=4
note_on channel=11 note=76 velocity=102 time=2
note_on channel=2 note=74 velocity=0 time=4
note_on channel=11 note=74 velocity=0 time=2
note_on channel=2 note=70 velocity=119 time=0
note_on channel=2 note=82 velocity=124 time=0
note_on channel=5 note=76 velocity=119 time=0
note_on channel=4 note=34 velocity=127 time=2
note_on channel=14 note=76 velocity=127 time=0
note_on channel=5 note=74 velocity=0 time=3
note_on channel=9 note=38 velocity=127 time=2
note_on channel=14 note=74 velocity=0 time=2
note_on channel=2 note=76 velocity=0 time=95
note_on channel=5 note=76 velocity=0 time=8
note_on channel=11 note=76 velocity=0 time=0
note_on channel=14 note=76 velocity=0 time=4
note_on channel=11 note=73 velocity=127 time=1
note_on channel=5 note=73 velocity=127 time=2
note_on channel=14 note=73 velocity=127 time=1
note_on channel=2 note=73 velocity=127 time=1
note_on channel=4 note=34 velocity=0 time=79
note_on channel=2 note=73 velocity=0 time=22
note_on channel=9 note=38 velocity=0 time=0
note_on channel=11 note=73 velocity=0 time=13
note_on channel=2 note=82 velocity=0 time=0
note_on channel=5 note=78 velocity=127 time=0
note_on channel=2 note=81 velocity=90 time=1
note_on channel=2 note=70 velocity=0 time=3
note_on channel=11 note=78 velocity=127 time=0
note_on channel=5 note=73 velocity=0 time=1
note_on channel=2 note=78 velocity=127 time=0
note_on channel=2 note=69 velocity=83 time=0
note_on channel=4 note=33 velocity=127 time=1
note_on channel=14 note=78 velocity=127 time=1
note_on channel=9 note=36 velocity=127 time=4
note_on channel=14 note=73 velocity=0 time=1
note_on channel=9 note=49 velocity=127 time=0
note_on channel=5 note=78 velocity=0 time=163
note_on channel=2 note=78 velocity=0 time=2
note_on channel=9 note=49 velocity=0 time=6
note_on channel=11 note=78 velocity=0 time=3
note_on channel=14 note=78 velocity=0 time=4
note_on channel=5 note=76 velocity=97 time=2
note_on channel=9 note=36 velocity=0 time=1
note_on channel=2 note=76 velocity=74 time=2
note_on channel=11 note=76 velocity=88 time=3
note_on channel=14 note=76 velocity=112 time=5
note_on channel=5 note=78 velocity=81 time=9
note_on channel=2 note=78 velocity=124 time=5
note_on channel=11 note=78 velocity=99 time=5
note_on channel=5 note=76 velocity=0 time=4
note_on channel=4 note=33 velocity=0 time=0
note_on channel=14 note=78 velocity=119 time=0
note_on channel=2 note=76 velocity=0 time=2
note_on channel=11 note=76 velocity=0 time=2
note_on channel=2 note=69 velocity=0 time=6
note_on channel=14 note=76 velocity=0 time=1
note_on channel=5 note=79 velocity=124 time=0
note_on channel=2 note=81 velocity=0 time=6
note_on channel=2 note=79 velocity=124 time=0
note_on channel=2 note=70 velocity=67 time=0
note_on channel=2 note=82 velocity=108 time=2
<meta message time_signature numerator=2 denominator=4 clocks_per_click=24 notated_32nd_notes_per_beat=8 time=1>
note_on channel=5 note=78 velocity=0 time=0
note_on channel=11 note=79 velocity=127 time=1
note_on channel=9 note=38 velocity=127 time=2
note_on channel=2 note=78 velocity=0 time=3
note_on channel=9 note=49 velocity=127 time=0
note_on channel=14 note=79 velocity=127 time=0
note_on channel=11 note=78 velocity=0 time=3
note_on channel=4 note=34 velocity=127 time=0
note_on channel=14 note=78 velocity=0 time=8
note_on channel=9 note=49 velocity=0 time=43
note_on channel=9 note=38 velocity=0 time=3
note_on channel=4 note=34 velocity=0 time=36
note_on channel=11 note=79 velocity=0 time=5
note_on channel=14 note=79 velocity=0 time=7
note_on channel=2 note=79 velocity=0 time=1
note_on channel=11 note=81 velocity=119 time=0
note_on channel=5 note=81 velocity=127 time=2
note_on channel=5 note=79 velocity=0 time=2
note_on channel=14 note=81 velocity=127 time=1
note_on channel=9 note=36 velocity=127 time=1
note_on channel=9 note=49 velocity=127 time=2
note_on channel=2 note=81 velocity=127 time=2
note_on channel=2 note=70 velocity=0 time=9
note_on channel=4 note=33 velocity=90 time=1
note_on channel=2 note=82 velocity=0 time=1
note_on channel=2 note=69 velocity=92 time=2
note_on channel=2 note=81 velocity=127 time=1
note_on channel=9 note=49 velocity=0 time=22
note_on channel=9 note=36 velocity=0 time=4
note_on channel=14 note=81 velocity=0 time=43
note_on channel=2 note=81 velocity=0 time=3
note_on channel=5 note=81 velocity=0 time=3
note_on channel=4 note=33 velocity=0 time=1
note_on channel=11 note=81 velocity=0 time=6
note_on channel=2 note=81 velocity=0 time=6
note_on channel=2 note=69 velocity=0 time=0
note_on channel=7 note=98 velocity=127 time=3
note_on channel=15 note=50 velocity=127 time=3
note_on channel=4 note=38 velocity=127 time=6
note_on channel=10 note=74 velocity=119 time=2
<meta message time_signature numerator=4 denominator=4 clocks_per_click=24 notated_32nd_notes_per_beat=8 time=2>
note_on channel=5 note=86 velocity=40 time=0
note_on channel=9 note=36 velocity=127 time=0
note_on channel=9 note=49 velocity=127 time=0
note_on channel=9 note=51 velocity=102 time=6
note_on channel=9 note=51 velocity=0 time=3
note_on channel=4 note=38 velocity=127 time=2
note_on channel=10 note=86 velocity=97 time=1
note_on channel=10 note=74 velocity=0 time=6
note_on channel=15 note=50 velocity=0 time=5
note_on channel=10 note=86 velocity=0 time=9
note_on channel=15 note=50 velocity=79 time=4
note_on channel=10 note=74 velocity=70 time=6
note_on channel=15 note=50 velocity=0 time=13
note_on channel=10 note=86 velocity=61 time=0
note_on channel=10 note=74 velocity=0 time=8
note_on channel=10 note=86 velocity=0 time=16
note_on channel=2 note=62 velocity=119 time=0
note_on channel=2 note=64 velocity=105 time=1
note_on channel=14 note=62 velocity=119 time=1
note_on channel=11 note=62 velocity=127 time=3
note_on channel=10 note=74 velocity=68 time=3
note_on channel=2 note=64 velocity=0 time=3
note_on channel=15 note=50 velocity=34 time=3
note_on channel=2 note=62 velocity=0 time=3
note_on channel=11 note=62 velocity=0 time=2
note_on channel=14 note=62 velocity=0 time=2
note_on channel=15 note=50 velocity=0 time=0
note_on channel=10 note=86 velocity=72 time=6
note_on channel=10 note=74 velocity=0 time=3
note_on channel=2 note=62 velocity=105 time=1
note_on channel=14 note=62 velocity=73 time=1
note_on channel=11 note=62 velocity=99 time=2
note_on channel=10 note=86 velocity=0 time=12
note_on channel=10 note=74 velocity=61 time=4
note_on channel=14 note=62 velocity=0 time=7
note_on channel=2 note=62 velocity=0 time=2
note_on channel=11 note=62 velocity=0 time=0
note_on channel=10 note=86 velocity=56 time=12
note_on channel=10 note=74 velocity=0 time=3
note_on channel=10 note=86 velocity=0 time=14
note_on channel=4 note=38 velocity=0 time=2
note_on channel=14 note=64 velocity=127 time=2
note_on channel=10 note=74 velocity=53 time=1
note_on channel=11 note=64 velocity=127 time=0
note_on channel=2 note=64 velocity=127 time=5
note_on channel=10 note=74 velocity=0 time=16
note_on channel=14 note=64 velocity=0 time=1
note_on channel=15 note=50 velocity=31 time=0
note_on channel=11 note=64 velocity=0 time=1
note_on channel=10 note=86 velocity=70 time=1
note_on channel=15 note=50 velocity=0 time=4
note_on channel=2 note=64 velocity=0 time=2
note_on channel=10 note=86 velocity=0 time=10
note_on channel=10 note=74 velocity=67 time=6
note_on channel=11 note=64 velocity=127 time=6
note_on channel=15 note=50 velocity=29 time=2
note_on channel=14 note=64 velocity=127 time=3
note_on channel=10 note=74 velocity=0 time=9
note_on channel=2 note=64 velocity=127 time=0
note_on channel=10 note=86 velocity=78 time=3
note_on channel=15 note=50 velocity=0 time=7
note_on channel=10 note=86 velocity=0 time=11
note_on channel=10 note=74 velocity=59 time=1
note_on channel=15 note=50 velocity=32 time=12
note_on channel=10 note=74 velocity=0 time=7
note_on channel=10 note=86 velocity=73 time=5
note_on channel=11 note=64 velocity=0 time=6
note_on channel=15 note=50 velocity=0 time=6
note_on channel=14 note=64 velocity=0 time=5
note_on channel=10 note=86 velocity=0 time=2
note_on channel=2 note=64 velocity=0 time=1
note_on channel=10 note=74 velocity=64 time=2
note_on channel=11 note=66 velocity=127 time=6
note_on channel=15 note=50 velocity=42 time=3
note_on channel=14 note=66 velocity=127 time=4
note_on channel=2 note=66 velocity=127 time=2
note_on channel=10 note=74 velocity=0 time=7
note_on channel=10 note=86 velocity=74 time=3
note_on channel=10 note=86 velocity=0 time=15
note_on channel=15 note=50 velocity=0 time=2
note_on channel=10 note=74 velocity=66 time=3
note_on channel=15 note=50 velocity=42 time=13
note_on channel=10 note=74 velocity=0 time=7
note_on channel=10 note=86 velocity=79 time=3
note_on channel=11 note=66 velocity=0 time=2
note_on channel=14 note=66 velocity=0 time=1
note_on channel=2 note=66 velocity=0 time=11
note_on channel=10 note=86 velocity=0 time=4
note_on channel=15 note=50 velocity=0 time=2
note_on channel=10 note=74 velocity=57 time=2
note_on channel=15 note=50 velocity=39 time=17
note_on channel=10 note=74 velocity=0 time=3
note_on channel=10 note=86 velocity=66 time=2
note_on channel=11 note=62 velocity=127 time=11
note_on channel=14 note=62 velocity=108 time=0
note_on channel=10 note=86 velocity=0 time=7
note_on channel=15 note=50 velocity=0 time=1
note_on channel=2 note=62 velocity=124 time=3
note_on channel=10 note=74 velocity=63 time=3
note_on channel=11 note=62 velocity=0 time=5
note_on channel=14 note=62 velocity=0 time=1
note_on channel=2 note=62 velocity=0 time=10
note_on channel=11 note=62 velocity=105 time=1
note_on channel=10 note=74 velocity=0 time=2
note_on channel=14 note=62 velocity=74 time=0
note_on channel=10 note=86 velocity=72 time=2
note_on channel=2 note=62 velocity=75 time=5
note_on channel=10 note=86 velocity=0 time=15
note_on channel=11 note=62 velocity=0 time=2
note_on channel=14 note=62 velocity=0 time=4
note_on channel=10 note=74 velocity=45 time=0
note_on channel=2 note=62 velocity=0 time=9
note_on channel=10 note=74 velocity=0 time=3
note_on channel=10 note=86 velocity=66 time=6
note_on channel=14 note=64 velocity=127 time=14
note_on channel=10 note=86 velocity=0 time=4
note_on channel=10 note=74 velocity=55 time=1
note_on channel=11 note=64 velocity=127 time=0
note_on channel=2 note=64 velocity=127 time=2
note_on channel=10 note=74 velocity=0 time=16
note_on channel=14 note=64 velocity=0 time=4
note_on channel=11 note=64 velocity=0 time=1
note_on channel=10 note=86 velocity=64 time=2
note_on channel=9 note=49 velocity=0 time=5
note_on channel=9 note=36 velocity=0 time=2
note_on channel=2 note=64 velocity=0 time=3
note_on channel=10 note=86 velocity=0 time=6
note_on channel=10 note=74 velocity=42 time=7
note_on channel=14 note=66 velocity=127 time=7
note_on channel=11 note=66 velocity=127 time=2
note_on channel=4 note=38 velocity=0 time=3
note_on channel=10 note=74 velocity=0 time=1
note_on channel=2 note=66 velocity=127 time=3
note_on channel=15 note=43 velocity=127 time=1
note_on channel=10 note=86 velocity=57 time=3
note_on channel=4 note=31 velocity=127 time=1
note_on channel=9 note=36 velocity=127 time=4
note_on channel=9 note=49 velocity=127 time=0
note_on channel=15 note=43 velocity=0 time=9
note_on channel=10 note=86 velocity=0 time=3
note_on channel=15 note=43 velocity=99 time=1
note_on channel=10 note=74 velocity=79 time=11
note_on channel=15 note=43 velocity=0 time=4
note_on channel=15 note=43 velocity=102 time=12
note_on channel=10 note=86 velocity=61 time=1
note_on channel=10 note=74 velocity=0 time=1
note_on channel=2 note=66 velocity=0 time=12
note_on channel=11 note=66 velocity=0 time=2
note_on channel=15 note=43 velocity=0 time=1
note_on channel=10 note=86 velocity=0 time=0
note_on channel=14 note=66 velocity=0 time=4
note_on channel=15 note=43 velocity=86 time=1
note_on channel=10 note=74 velocity=94 time=8
note_on channel=11 note=69 velocity=127 time=0
note_on channel=2 note=69 velocity=119 time=3
note_on channel=14 note=69 velocity=124 time=2
note_on channel=15 note=43 velocity=0 time=4
note_on channel=10 note=74 velocity=0 time=1
note_on channel=15 note=43 velocity=84 time=10
note_on channel=15 note=43 velocity=0 time=16
note_on channel=15 note=43 velocity=81 time=8
note_on channel=15 note=43 velocity=0 time=13
note_on channel=11 note=69 velocity=0 time=4
note_on channel=2 note=69 velocity=0 time=2
note_on channel=15 note=43 velocity=72 time=10
note_on channel=14 note=69 velocity=0 time=2
note_on channel=15 note=43 velocity=0 time=11
note_on channel=5 note=86 velocity=0 time=6
note_on channel=15 note=43 velocity=88 time=3
note_on channel=9 note=49 velocity=0 time=7
note_on channel=7 note=98 velocity=0 time=1
note_on channel=9 note=36 velocity=0 time=4
note_on channel=15 note=43 velocity=0 time=3
note_on channel=5 note=88 velocity=48 time=0
note_on channel=10 note=64 velocity=110 time=0
note_on channel=10 note=76 velocity=75 time=0
note_on channel=7 note=88 velocity=119 time=3
note_on channel=15 note=43 velocity=78 time=9
note_on channel=10 note=76 velocity=0 time=3
note_on channel=10 note=64 velocity=0 time=5
note_on channel=15 note=43 velocity=0 time=8
note_on channel=10 note=74 velocity=127 time=1
note_on channel=5 note=86 velocity=75 time=1
note_on channel=7 note=88 velocity=0 time=2
note_on channel=10 note=62 velocity=127 time=0
note_on channel=5 note=88 velocity=0 time=2
note_on channel=7 note=86 velocity=94 time=0
note_on channel=15 note=43 velocity=90 time=0
note_on channel=10 note=74 velocity=0 time=11
note_on channel=10 note=62 velocity=0 time=1
note_on channel=15 note=43 velocity=0 time=3
note_on channel=5 note=86 velocity=0 time=5
note_on channel=7 note=81 velocity=66 time=0
note_on channel=7 note=86 velocity=0 time=4
note_on channel=5 note=81 velocity=63 time=2
note_on channel=10 note=57 velocity=117 time=0
note_on channel=10 note=69 velocity=97 time=3
note_on channel=15 note=43 velocity=78 time=0
note_on channel=10 note=57 velocity=0 time=12
note_on channel=15 note=43 velocity=0 time=3
note_on channel=10 note=69 velocity=0 time=5
note_on channel=15 note=43 velocity=94 time=0
note_on channel=7 note=86 velocity=83 time=4
note_on channel=5 note=86 velocity=36 time=3
note_on channel=10 note=62 velocity=105 time=3
note_on channel=10 note=74 velocity=90 time=2
note_on channel=5 note=81 velocity=0 time=3
note_on channel=7 note=88 velocity=90 time=1
note_on channel=15 note=43 velocity=0 time=1
note_on channel=7 note=81 velocity=0 time=0
note_on channel=10 note=62 velocity=0 time=7
note_on channel=7 note=86 velocity=0 time=6
note_on channel=5 note=86 velocity=0 time=0
note_on channel=15 note=43 velocity=77 time=0
note_on channel=10 note=74 velocity=0 time=2
note_on channel=5 note=88 velocity=67 time=5
note_on channel=10 note=64 velocity=112 time=2
note_on channel=10 note=76 velocity=54 time=5
note_on channel=15 note=43 velocity=0 time=1
note_on channel=7 note=88 velocity=0 time=10
note_on channel=10 note=64 velocity=0 time=1
note_on channel=7 note=93 velocity=127 time=2
note_on channel=5 note=88 velocity=0 time=5
note_on channel=10 note=76 velocity=0 time=0
note_on channel=10 note=69 velocity=127 time=2
note_on channel=5 note=93 velocity=79 time=2
note_on channel=15 note=43 velocity=99 time=1
note_on channel=10 note=81 velocity=83 time=5
note_on channel=10 note=69 velocity=0 time=9
note_on channel=5 note=93 velocity=0 time=1
note_on channel=7 note=93 velocity=0 time=1
note_on channel=15 note=43 velocity=0 time=9
note_on channel=10 note=81 velocity=0 time=2
note_on channel=7 note=98 velocity=79 time=0
note_on channel=4 note=31 velocity=0 time=1
note_on channel=9 note=36 velocity=127 time=0
note_on channel=9 note=49 velocity=127 time=0
note_on channel=4 note=38 velocity=127 time=1
note_on channel=5 note=86 velocity=64 time=2
note_on channel=10 note=74 velocity=115 time=2
note_on channel=15 note=50 velocity=127 time=1
note_on channel=10 note=86 velocity=97 time=8
note_on channel=15 note=50 velocity=0 time=6
note_on channel=10 note=74 velocity=0 time=5
note_on channel=10 note=86 velocity=0 time=10
note_on channel=10 note=74 velocity=79 time=13
note_on channel=10 note=86 velocity=73 time=16
note_on channel=10 note=74 velocity=0 time=7
note_on channel=2 note=62 velocity=108 time=0
note_on channel=11 note=62 velocity=112 time=0
note_on channel=10 note=86 velocity=0 time=10
note_on channel=2 note=62 velocity=0 time=2
note_on channel=14 note=62 velocity=127 time=3
note_on channel=11 note=62 velocity=0 time=7
note_on channel=10 note=74 velocity=61 time=6
note_on channel=14 note=62 velocity=0 time=2
note_on channel=2 note=62 velocity=108 time=3
note_on channel=11 note=62 velocity=115 time=5
note_on channel=10 note=86 velocity=79 time=5
note_on channel=10 note=74 velocity=0 time=3
note_on channel=14 note=62 velocity=102 time=1
note_on channel=2 note=62 velocity=0 time=13
note_on channel=11 note=62 velocity=0 time=3
note_on channel=10 note=86 velocity=0 time=1
note_on channel=14 note=62 velocity=0 time=6
note_on channel=10 note=74 velocity=57 time=2
note_on channel=10 note=86 velocity=66 time=17
note_on channel=10 note=74 velocity=0 time=2
note_on channel=2 note=64 velocity=127 time=0
note_on channel=14 note=64 velocity=127 time=17
note_on channel=10 note=86 velocity=0 time=1
note_on channel=10 note=74 velocity=52 time=9
note_on channel=11 note=64 velocity=127 time=0
note_on channel=2 note=64 velocity=0 time=1
note_on channel=14 note=64 velocity=0 time=12
note_on channel=10 note=74 velocity=0 time=5
note_on channel=10 note=86 velocity=75 time=0
note_on channel=11 note=64 velocity=0 time=4
note_on channel=10 note=86 velocity=0 time=16
note_on channel=14 note=64 velocity=127 time=4
note_on channel=2 note=64 velocity=127 time=2
note_on channel=10 note=74 velocity=64 time=1
note_on channel=11 note=64 velocity=127 time=1
note_on channel=10 note=74 velocity=0 time=17
note_on channel=10 note=86 velocity=66 time=3
note_on channel=10 note=86 velocity=0 time=18
note_on channel=10 note=74 velocity=59 time=9
note_on channel=10 note=74 velocity=0 time=16
note_on channel=11 note=64 velocity=0 time=0
note_on channel=14 note=64 velocity=0 time=1
note_on channel=2 note=64 velocity=0 time=1
note_on channel=10 note=86 velocity=67 time=3
note_on channel=10 note=86 velocity=0 time=17
note_on channel=2 note=66 velocity=127 time=3
note_on channel=11 note=66 velocity=127 time=0
note_on channel=14 note=66 velocity=127 time=3
note_on channel=10 note=74 velocity=53 time=1
note_on channel=10 note=74 velocity=0 time=19
note_on channel=10 note=86 velocity=67 time=2
note_on channel=10 note=86 velocity=0 time=17
note_on channel=10 note=74 velocity=54 time=9
note_on channel=2 note=66 velocity=0 time=9
note_on channel=11 note=66 velocity=0 time=3
note_on channel=10 note=74 velocity=0 time=5
note_on channel=10 note=86 velocity=69 time=3
note_on channel=14 note=66 velocity=0 time=1
note_on channel=10 note=86 velocity=0 time=20
note_on channel=10 note=74 velocity=62 time=5
note_on channel=11 note=62 velocity=127 time=10
note_on channel=2 note=62 velocity=127 time=1
note_on channel=14 note=62 velocity=119 time=0
note_on channel=10 note=74 velocity=0 time=8
note_on channel=10 note=86 velocity=62 time=4
note_on channel=14 note=62 velocity=0 time=6
note_on channel=11 note=62 velocity=0 time=0
note_on channel=2 note=62 velocity=0 time=3
note_on channel=11 note=62 velocity=46 time=4
note_on channel=2 note=62 velocity=68 time=3
note_on channel=10 note=86 velocity=0 time=4
note_on channel=14 note=62 velocity=88 time=1
note_on channel=10 note=74 velocity=62 time=3
note_on channel=11 note=62 velocity=0 time=15
note_on channel=10 note=74 velocity=0 time=5
note_on channel=2 note=62 velocity=0 time=1
note_on channel=10 note=86 velocity=57 time=2
note_on channel=14 note=62 velocity=0 time=1
note_on channel=9 note=36 velocity=0 time=6
note_on channel=9 note=49 velocity=0 time=7
note_on channel=10 note=86 velocity=0 time=6
note_on channel=10 note=74 velocity=61 time=3
note_on channel=11 note=64 velocity=127 time=6
note_on channel=2 note=64 velocity=127 time=4
note_on channel=14 note=64 velocity=127 time=0
note_on channel=10 note=74 velocity=0 time=10
note_on channel=10 note=86 velocity=52 time=4
note_on channel=11 note=64 velocity=0 time=8
note_on channel=14 note=64 velocity=0 time=6
note_on channel=2 note=64 velocity=0 time=1
note_on channel=10 note=86 velocity=0 time=4
note_on channel=10 note=74 velocity=57 time=1
note_on channel=10 note=74 velocity=0 time=20
note_on channel=4 note=38 velocity=0 time=1
note_on channel=10 note=86 velocity=58 time=3
note_on channel=11 note=66 velocity=127 time=2
note_on channel=2 note=66 velocity=127 time=2
note_on channel=14 note=66 velocity=127 time=0
note_on channel=15 note=43 velocity=90 time=7
note_on channel=10 note=86 velocity=0 time=9
note_on channel=4 note=31 velocity=127 time=0
note_on channel=9 note=49 velocity=127 time=0
note_on channel=9 note=36 velocity=127 time=0
note_on channel=10 note=74 velocity=64 time=0
note_on channel=15 note=43 velocity=0 time=9
note_on channel=15 note=43 velocity=88 time=4
note_on channel=10 note=74 velocity=0 time=6
note_on channel=10 note=86 velocity=61 time=7
note_on channel=15 note=43 velocity=0 time=3
note_on channel=2 note=66 velocity=0 time=15
note_on channel=10 note=86 velocity=0 time=2
note_on channel=15 note=43 velocity=49 time=0
note_on channel=10 note=74 velocity=78 time=6
note_on channel=11 note=66 velocity=0 time=1
note_on channel=15 note=43 velocity=0 time=5
note_on channel=14 note=66 velocity=0 time=0
note_on channel=10 note=74 velocity=0 time=4
note_on channel=11 note=69 velocity=127 time=6
note_on channel=2 note=69 velocity=119 time=1
note_on channel=15 note=43 velocity=40 time=3
note_on channel=14 note=69 velocity=115 time=5
note_on channel=15 note=43 velocity=0 time=6
note_on channel=15 note=43 velocity=63 time=12
note_on channel=15 note=43 velocity=0 time=17
note_on channel=2 note=69 velocity=0 time=8
note_on channel=11 note=69 velocity=0 time=1
note_on channel=15 note=43 velocity=61 time=1
note_on channel=15 note=43 velocity=0 time=12
note_on channel=14 note=69 velocity=0 time=3
note_on channel=5 note=86 velocity=0 time=9
note_on channel=15 note=43 velocity=59 time=3
note_on channel=15 note=43 velocity=0 time=13
note_on channel=7 note=98 velocity=0 time=0
note_on channel=10 note=64 velocity=99 time=4
note_on channel=10 note=76 velocity=64 time=2
note_on channel=5 note=88 velocity=46 time=1
note_on channel=15 note=43 velocity=86 time=1
note_on channel=7 note=88 velocity=119 time=5
note_on channel=9 note=49 velocity=0 time=7
note_on channel=9 note=36 velocity=0 time=1
note_on channel=10 note=76 velocity=0 time=5
note_on channel=15 note=43 velocity=0 time=0
note_on channel=10 note=64 velocity=0 time=1
note_on channel=10 note=62 velocity=127 time=8
note_on channel=5 note=88 velocity=0 time=1
note_on channel=10 note=74 velocity=119 time=0
note_on channel=5 note=86 velocity=75 time=1
note_on channel=15 note=43 velocity=55 time=2
note_on channel=7 note=88 velocity=0 time=6
note_on channel=7 note=86 velocity=86 time=1
note_on channel=10 note=62 velocity=0 time=2
note_on channel=10 note=74 velocity=0 time=2
note_on channel=15 note=43 velocity=0 time=2
note_on channel=5 note=86 velocity=0 time=3
note_on channel=15 note=43 velocity=86 time=5
note_on channel=7 note=81 velocity=70 time=4
note_on channel=10 note=57 velocity=105 time=1
note_on channel=10 note=69 velocity=92 time=1
note_on channel=7 note=86 velocity=0 time=2
note_on channel=5 note=81 velocity=58 time=0
note_on channel=15 note=43 velocity=0 time=9
note_on channel=10 note=57 velocity=0 time=3
note_on channel=10 note=69 velocity=0 time=4
note_on channel=15 note=43 velocity=77 time=6
note_on channel=10 note=62 velocity=119 time=2
note_on channel=10 note=74 velocity=99 time=1
note_on channel=5 note=81 velocity=0 time=3
note_on channel=5 note=86 velocity=38 time=3
note_on channel=7 note=86 velocity=68 time=0
note_on channel=15 note=43 velocity=0 time=6
note_on channel=7 note=81 velocity=0 time=0
note_on channel=7 note=88 velocity=32 time=3
note_on channel=10 note=62 velocity=0 time=1
note_on channel=10 note=74 velocity=0 time=2
note_on channel=15 note=43 velocity=92 time=1
note_on channel=5 note=86 velocity=0 time=7
note_on channel=10 note=64 velocity=112 time=4
note_on channel=5 note=88 velocity=48 time=1
note_on channel=10 note=76 velocity=92 time=2
note_on channel=7 note=86 velocity=0 time=4
note_on channel=15 note=43 velocity=0 time=2
note_on channel=7 note=93 velocity=124 time=5
note_on channel=7 note=91 velocity=108 time=2
note_on channel=10 note=64 velocity=0 time=1
note_on channel=7 note=88 velocity=0 time=2
note_on channel=5 note=88 velocity=0 time=0
note_on channel=10 note=76 velocity=0 time=0
note_on channel=15 note=43 velocity=90 time=2
note_on channel=10 note=69 velocity=119 time=3
note_on channel=7 note=91 velocity=0 time=5
note_on channel=10 note=81 velocity=84 time=2
note_on channel=15 note=43 velocity=0 time=7
note_on channel=5 note=93 velocity=55 time=0
note_on channel=7 note=93 velocity=0 time=2
note_on channel=10 note=81 velocity=0 time=5
note_on channel=10 note=69 velocity=0 time=0
note_on channel=5 note=93 velocity=0 time=7
note_on channel=7 note=98 velocity=86 time=2
note_on channel=15 note=43 velocity=99 time=0
note_on channel=4 note=31 velocity=0 time=14
note_on channel=15 note=50 velocity=127 time=0
note_on channel=15 note=43 velocity=0 time=3
note_on channel=5 note=86 velocity=73 time=3
note_on channel=10 note=74 velocity=97 time=1
note_on channel=4 note=38 velocity=127 time=4
note_on channel=10 note=86 velocity=75 time=0
note_on channel=15 note=50 velocity=0 time=2
note_on channel=9 note=36 velocity=127 time=3
note_on channel=9 note=49 velocity=127 time=0
note_on channel=10 note=74 velocity=0 time=7
note_on channel=10 note=86 velocity=0 time=8
note_on channel=10 note=74 velocity=68 time=9
note_on channel=10 note=74 velocity=0 time=21
note_on channel=10 note=86 velocity=77 time=0
note_on channel=14 note=62 velocity=127 time=13
note_on channel=2 note=62 velocity=127 time=3
note_on channel=10 note=86 velocity=0 time=4
note_on channel=11 note=62 velocity=127 time=3
note_on channel=14 note=62 velocity=0 time=5
note_on channel=10 note=74 velocity=59 time=0
note_on channel=2 note=62 velocity=0 time=4
note_on channel=11 note=62 velocity=0 time=6
note_on channel=10 note=74 velocity=0 time=9
note_on channel=2 note=62 velocity=102 time=1
note_on channel=14 note=62 velocity=105 time=0
note_on channel=10 note=86 velocity=66 time=3
note_on channel=11 note=62 velocity=115 time=5
note_on channel=10 note=86 velocity=0 time=13
note_on channel=14 note=62 velocity=0 time=2
note_on channel=2 note=62 velocity=0 time=3
note_on channel=10 note=74 velocity=59 time=2
note_on channel=11 note=62 velocity=0 time=4
note_on channel=10 note=74 velocity=0 time=16
note_on channel=10 note=86 velocity=62 time=3
note_on channel=2 note=64 velocity=108 time=5
note_on channel=14 note=64 velocity=127 time=9
note_on channel=10 note=86 velocity=0 time=5
note_on channel=11 note=64 velocity=127 time=0
note_on channel=10 note=74 velocity=59 time=8
note_on channel=2 note=64 velocity=0 time=10
note_on channel=14 note=64 velocity=0 time=7
note_on channel=10 note=74 velocity=0 time=2
note_on channel=10 note=86 velocity=59 time=1
note_on channel=11 note=64 velocity=0 time=2
note_on channel=10 note=86 velocity=0 time=17
note_on channel=2 note=66 velocity=127 time=6
note_on channel=10 note=74 velocity=52 time=3
note_on channel=11 note=66 velocity=127 time=2
note_on channel=14 note=66 velocity=127 time=0
note_on channel=10 note=74 velocity=0 time=15
note_on channel=10 note=86 velocity=60 time=4
note_on channel=10 note=86 velocity=0 time=18
note_on channel=10 note=74 velocity=65 time=5
note_on channel=11 note=66 velocity=0 time=21
note_on channel=2 note=66 velocity=0 time=0
note_on channel=10 note=74 velocity=0 time=1
note_on channel=10 note=86 velocity=60 time=1
note_on channel=14 note=66 velocity=0 time=2
note_on channel=14 note=69 velocity=119 time=13
note_on channel=10 note=86 velocity=0 time=6
note_on channel=2 note=69 velocity=127 time=1
note_on channel=11 note=69 velocity=127 time=0
note_on channel=10 note=74 velocity=55 time=3
note_on channel=10 note=74 velocity=0 time=19
note_on channel=10 note=86 velocity=61 time=4
note_on channel=10 note=86 velocity=0 time=21
note_on channel=14 note=69 velocity=0 time=0
note_on channel=10 note=74 velocity=99 time=6
note_on channel=7 note=98 velocity=0 time=5
note_on channel=9 note=36 velocity=0 time=5
note_on channel=10 note=74 velocity=0 time=4
note_on channel=11 note=69 velocity=0 time=2
note_on channel=9 note=49 velocity=0 time=0
note_on channel=2 note=69 velocity=0 time=2
note_on channel=5 note=86 velocity=0 time=11
note_on channel=10 note=69 velocity=127 time=13
note_on channel=2 note=69 velocity=99 time=10
note_on channel=11 note=69 velocity=108 time=13
note_on channel=10 note=69 velocity=0 time=20
note_on channel=4 note=38 velocity=0 time=11
note_on channel=2 note=69 velocity=0 time=0
note_on channel=5 note=83 velocity=57 time=1
note_on channel=11 note=69 velocity=0 time=2
note_on channel=10 note=71 velocity=127 time=4
note_on channel=4 note=31 velocity=105 time=5
note_on channel=9 note=36 velocity=112 time=0
note_on channel=9 note=38 velocity=102 time=2
note_on channel=2 note=71 velocity=105 time=1
note_on channel=11 note=71 velocity=119 time=0
note_on channel=9 note=49 velocity=127 time=1
note_on channel=9 note=36 velocity=127 time=2
note_on channel=9 note=38 velocity=0 time=1
note_on channel=2 note=55 velocity=81 time=0
note_on channel=9 note=49 velocity=127 time=0
note_on channel=11 note=55 velocity=70 time=0
note_on channel=10 note=69 velocity=127 time=52
note_on channel=10 note=71 velocity=0 time=1
note_on channel=9 note=49 velocity=0 time=12
note_on channel=9 note=36 velocity=0 time=1
note_on channel=9 note=36 velocity=0 time=4
note_on channel=9 note=49 velocity=0 time=1
note_on channel=2 note=55 velocity=0 time=12
note_on channel=10 note=71 velocity=127 time=0
note_on channel=10 note=69 velocity=0 time=4
note_on channel=11 note=55 velocity=0 time=11
note_on channel=5 note=85 velocity=39 time=8
note_on channel=5 note=83 velocity=0 time=2
note_on channel=11 note=71 velocity=0 time=0
note_on channel=2 note=54 velocity=82 time=4
note_on channel=9 note=36 velocity=115 time=3
note_on channel=9 note=49 velocity=127 time=1
note_on channel=10 note=73 velocity=127 time=2
note_on channel=11 note=73 velocity=127 time=0
note_on channel=2 note=73 velocity=124 time=1
note_on channel=11 note=54 velocity=67 time=1
note_on channel=4 note=30 velocity=127 time=2
note_on channel=2 note=71 velocity=0 time=1
note_on channel=10 note=71 velocity=0 time=0
note_on channel=4 note=31 velocity=0 time=7
note_on channel=10 note=71 velocity=108 time=43
note_on channel=10 note=73 velocity=0 time=1
note_on channel=9 note=49 velocity=0 time=16
note_on channel=9 note=36 velocity=0 time=1
note_on channel=2 note=54 velocity=0 time=13
note_on channel=10 note=73 velocity=127 time=1
note_on channel=10 note=71 velocity=0 time=6
note_on channel=11 note=73 velocity=0 time=2
note_on channel=11 note=54 velocity=0 time=9
note_on channel=5 note=85 velocity=0 time=10
note_on channel=2 note=53 velocity=83 time=1
note_on channel=5 note=86 velocity=45 time=1
note_on channel=11 note=74 velocity=124 time=0
note_on channel=9 note=49 velocity=127 time=1
note_on channel=2 note=73 velocity=0 time=3
note_on channel=9 note=36 velocity=105 time=0
note_on channel=10 note=74 velocity=127 time=1
note_on channel=2 note=74 velocity=74 time=1
note_on channel=10 note=73 velocity=0 time=1
note_on channel=11 note=53 velocity=72 time=0
note_on channel=4 note=30 velocity=0 time=3
note_on channel=4 note=29 velocity=88 time=2
note_on channel=10 note=73 velocity=127 time=53
note_on channel=10 note=74 velocity=0 time=2
note_on channel=9 note=49 velocity=0 time=6
note_on channel=9 note=36 velocity=0 time=0
note_on channel=2 note=53 velocity=0 time=22
note_on channel=10 note=74 velocity=127 time=0
note_on channel=10 note=73 velocity=0 time=4
note_on channel=11 note=74 velocity=0 time=1
note_on channel=11 note=53 velocity=0 time=2
note_on channel=5 note=88 velocity=59 time=16
note_on channel=11 note=52 velocity=65 time=3
note_on channel=2 note=52 velocity=88 time=1
note_on channel=5 note=86 velocity=0 time=1
note_on channel=10 note=74 velocity=0 time=2
note_on channel=2 note=76 velocity=115 time=1
note_on channel=9 note=36 velocity=112 time=0
note_on channel=9 note=49 velocity=127 time=0
note_on channel=10 note=76 velocity=127 time=1
note_on channel=11 note=76 velocity=127 time=0
note_on channel=4 note=28 velocity=127 time=6
note_on channel=2 note=74 velocity=0 time=3
note_on channel=4 note=29 velocity=0 time=6
note_on channel=9 note=36 velocity=0 time=28
note_on channel=9 note=49 velocity=0 time=4
note_on channel=10 note=76 velocity=0 time=16
note_on channel=10 note=74 velocity=127 time=2
note_on channel=11 note=76 velocity=0 time=14
note_on channel=11 note=52 velocity=0 time=5
note_on channel=10 note=76 velocity=127 time=6
note_on channel=2 note=52 velocity=0 time=5
note_on channel=10 note=74 velocity=0 time=1
note_on channel=2 note=51 velocity=78 time=13
note_on channel=9 note=36 velocity=105 time=5
note_on channel=9 note=49 velocity=127 time=0
note_on channel=11 note=78 velocity=127 time=2
note_on channel=11 note=51 velocity=74 time=0
note_on channel=4 note=27 velocity=127 time=2
note_on channel=4 note=28 velocity=0 time=1
note_on channel=5 note=88 velocity=0 time=2
note_on channel=9 note=57 velocity=127 time=0
note_on channel=5 note=90 velocity=62 time=2
note_on channel=2 note=78 velocity=99 time=1
note_on channel=2 note=76 velocity=0 time=2
note_on channel=10 note=78 velocity=112 time=0
note_on channel=10 note=76 velocity=0 time=4
note_on channel=10 note=78 velocity=0 time=157
note_on channel=10 note=76 velocity=124 time=2
note_on channel=2 note=78 velocity=0 time=5
note_on channel=9 note=36 velocity=0 time=10
note_on channel=10 note=78 velocity=127 time=10
note_on channel=9 note=49 velocity=0 time=1
note_on channel=10 note=76 velocity=0 time=4
note_on channel=2 note=76 velocity=90 time=9
note_on channel=10 note=78 velocity=0 time=16
note_on channel=10 note=79 velocity=127 time=1
note_on channel=5 note=90 velocity=0 time=3
note_on channel=2 note=78 velocity=108 time=0
note_on channel=5 note=91 velocity=57 time=2
note_on channel=11 note=51 velocity=0 time=8
note_on channel=2 note=76 velocity=0 time=1
note_on channel=9 note=36 velocity=112 time=0
note_on channel=11 note=79 velocity=127 time=0
note_on channel=9 note=49 velocity=127 time=1
note_on channel=11 note=50 velocity=66 time=3
note_on channel=11 note=78 velocity=0 time=8
note_on channel=2 note=79 velocity=127 time=7
note_on channel=2 note=78 velocity=0 time=5
note_on channel=1 note=62 velocity=127 time=33
note_on channel=0 note=74 velocity=82 time=8
note_on channel=0 note=86 velocity=82 time=9
note_on channel=9 note=57 velocity=0 time=41
note_on channel=0 note=79 velocity=70 time=1
note_on channel=1 note=67 velocity=127 time=3
note_on channel=0 note=91 velocity=79 time=1
note_on channel=1 note=62 velocity=0 time=3
note_on channel=0 note=74 velocity=0 time=4
note_on channel=9 note=36 velocity=0 time=8
note_on channel=0 note=86 velocity=0 time=2
note_on channel=9 note=49 velocity=0 time=10
note_on channel=0 note=79 velocity=0 time=21
note_on channel=0 note=91 velocity=0 time=1
note_on channel=1 note=67 velocity=0 time=1
note_on channel=0 note=86 velocity=86 time=2
note_on channel=1 note=74 velocity=127 time=4
note_on channel=0 note=98 velocity=84 time=1
note_on channel=10 note=79 velocity=0 time=3
note_on channel=10 note=78 velocity=127 time=0
note_on channel=10 note=79 velocity=127 time=25
note_on channel=10 note=78 velocity=0 time=3
note_on channel=0 note=86 velocity=0 time=3
note_on channel=0 note=98 velocity=0 time=3
note_on channel=1 note=74 velocity=0 time=2
note_on channel=2 note=51 velocity=0 time=11
note_on channel=5 note=91 velocity=0 time=2
note_on channel=10 note=79 velocity=0 time=0
note_on channel=10 note=81 velocity=127 time=2
note_on channel=4 note=27 velocity=0 time=2
note_on channel=0 note=98 velocity=80 time=0
note_on channel=0 note=86 velocity=78 time=0
note_on channel=9 note=49 velocity=127 time=0
note_on channel=1 note=74 velocity=127 time=2
note_on channel=2 note=45 velocity=87 time=0
note_on channel=5 note=93 velocity=84 time=0
note_on channel=9 note=36 velocity=127 time=1
note_on channel=4 note=33 velocity=127 time=1
note_on channel=9 note=57 velocity=127 time=3
note_on channel=11 note=79 velocity=0 time=2
note_on channel=11 note=81 velocity=119 time=0
note_on channel=11 note=45 velocity=74 time=4
note_on channel=11 note=50 velocity=0 time=1
note_on channel=2 note=79 velocity=0 time=5
note_on channel=2 note=81 velocity=99 time=2
note_on channel=1 note=72 velocity=127 time=93
note_on channel=0 note=84 velocity=66 time=3
note_on channel=0 note=96 velocity=54 time=4
note_on channel=0 note=86 velocity=0 time=5
note_on channel=1 note=74 velocity=0 time=5
note_on channel=0 note=98 velocity=0 time=10
note_on channel=0 note=82 velocity=80 time=36
note_on channel=0 note=94 velocity=80 time=1
note_on channel=1 note=70 velocity=127 time=0
note_on channel=0 note=84 velocity=0 time=5
note_on channel=1 note=72 velocity=0 time=2
note_on channel=0 note=96 velocity=0 time=4
note_on channel=0 note=81 velocity=75 time=53
note_on channel=1 note=69 velocity=127 time=0
note_on channel=0 note=82 velocity=0 time=2
note_on channel=0 note=94 velocity=0 time=1
note_on channel=0 note=93 velocity=74 time=2
note_on channel=1 note=70 velocity=0 time=11
note_on channel=9 note=36 velocity=0 time=18
note_on channel=9 note=57 velocity=0 time=26
note_on channel=0 note=81 velocity=0 time=53
note_on channel=0 note=93 velocity=0 time=2
note_on channel=0 note=79 velocity=53 time=0
note_on channel=0 note=91 velocity=79 time=6
note_on channel=1 note=67 velocity=127 time=0
note_on channel=9 note=40 velocity=127 time=1
note_on channel=9 note=41 velocity=124 time=1
note_on channel=1 note=69 velocity=0 time=4
note_on channel=9 note=41 velocity=0 time=11
note_on channel=9 note=40 velocity=0 time=41
note_on channel=9 note=49 velocity=0 time=6
note_on channel=2 note=45 velocity=0 time=38
note_on channel=2 note=81 velocity=0 time=2
note_on channel=2 note=50 velocity=102 time=6
note_on channel=10 note=81 velocity=0 time=2
note_on channel=5 note=50 velocity=119 time=2
note_on channel=4 note=33 velocity=0 time=1
note_on channel=0 note=79 velocity=0 time=1
note_on channel=11 note=45 velocity=0 time=0
note_on channel=10 note=74 velocity=54 time=0
note_on channel=0 note=86 velocity=74 time=3
note_on channel=0 note=98 velocity=74 time=0
note_on channel=10 note=86 velocity=52 time=0
note_on channel=4 note=38 velocity=119 time=2
note_on channel=9 note=36 velocity=127 time=0
note_on channel=9 note=57 velocity=127 time=0
note_on channel=9 note=49 velocity=127 time=1
note_on channel=0 note=91 velocity=0 time=3
note_on channel=11 note=81 velocity=0 time=0
note_on channel=1 note=66 velocity=125 time=0
note_on channel=1 note=66 velocity=0 time=1
note_on channel=15 note=50 velocity=124 time=1
note_on channel=5 note=93 velocity=0 time=1
note_on channel=1 note=67 velocity=0 time=6
note_on channel=15 note=50 velocity=0 time=25
note_on channel=15 note=50 velocity=65 time=15
note_on channel=15 note=50 velocity=0 time=23
note_on channel=11 note=50 velocity=115 time=9
note_on channel=14 note=50 velocity=119 time=3
note_on channel=14 note=50 velocity=0 time=14
note_on channel=11 note=50 velocity=0 time=1
note_on channel=11 note=50 velocity=90 time=11
note_on channel=14 note=50 velocity=90 time=0
note_on channel=14 note=50 velocity=0 time=25
note_on channel=11 note=50 velocity=0 time=0
note_on channel=15 note=50 velocity=51 time=12
note_on channel=15 note=50 velocity=0 time=7
note_on channel=14 note=52 velocity=127 time=16
note_on channel=11 note=52 velocity=124 time=3
note_on channel=15 note=50 velocity=59 time=10
note_on channel=1 note=62 velocity=127 time=1
note_on channel=15 note=50 velocity=0 time=5
note_on channel=14 note=52 velocity=0 time=6
note_on channel=11 note=52 velocity=0 time=1
note_on channel=1 note=62 velocity=0 time=7
note_on channel=1 note=62 velocity=127 time=12
note_on channel=15 note=50 velocity=57 time=4
note_on channel=15 note=50 velocity=0 time=6
note_on channel=14 note=54 velocity=127 time=3
note_on channel=11 note=54 velocity=124 time=6
note_on channel=1 note=62 velocity=0 time=10
note_on channel=15 note=50 velocity=61 time=23
note_on channel=15 note=50 velocity=0 time=9
note_on channel=1 note=64 velocity=127 time=5
note_on channel=11 note=54 velocity=0 time=6
note_on channel=15 note=50 velocity=69 time=0
note_on channel=14 note=54 velocity=0 time=9
note_on channel=15 note=50 velocity=0 time=3
note_on channel=1 note=64 velocity=0 time=8
note_on channel=15 note=50 velocity=63 time=0
note_on channel=15 note=50 velocity=0 time=7
note_on channel=2 note=74 velocity=127 time=8
note_on channel=14 note=57 velocity=127 time=2
note_on channel=11 note=62 velocity=127 time=2
note_on channel=15 note=50 velocity=72 time=1
note_on channel=2 note=62 velocity=127 time=4
note_on channel=11 note=57 velocity=94 time=3
note_on channel=15 note=50 velocity=0 time=1
note_on channel=11 note=62 velocity=0 time=5
note_on channel=2 note=74 velocity=0 time=0
note_on channel=15 note=50 velocity=51 time=5
note_on channel=2 note=62 velocity=0 time=3
note_on channel=1 note=66 velocity=127 time=0
note_on channel=15 note=50 velocity=0 time=4
note_on channel=2 note=74 velocity=88 time=0
note_on channel=11 note=62 velocity=97 time=3
note_on channel=2 note=62 velocity=79 time=3
note_on channel=9 note=36 velocity=0 time=6
note_on channel=15 note=50 velocity=57 time=1
note_on channel=15 note=50 velocity=0 time=6
note_on channel=1 note=66 velocity=0 time=0
note_on channel=9 note=49 velocity=0 time=3
note_on channel=0 note=98 velocity=0 time=4
note_on channel=2 note=74 velocity=0 time=1
note_on channel=11 note=62 velocity=0 time=2
note_on channel=15 note=50 velocity=56 time=0
note_on channel=2 note=62 velocity=0 time=3
note_on channel=15 note=50 velocity=0 time=4
note_on channel=15 note=50 velocity=66 time=12
note_on channel=1 note=69 velocity=127 time=5
note_on channel=2 note=76 velocity=108 time=0
note_on channel=11 note=64 velocity=108 time=5
note_on channel=15 note=50 velocity=0 time=1
note_on channel=2 note=64 velocity=127 time=1
note_on channel=11 note=57 velocity=0 time=12
note_on channel=0 note=86 velocity=0 time=0
note_on channel=1 note=69 velocity=0 time=8
note_on channel=2 note=76 velocity=0 time=0
note_on channel=11 note=64 velocity=0 time=3
note_on channel=2 note=64 velocity=0 time=2
note_on channel=15 note=50 velocity=63 time=1
note_on channel=15 note=50 velocity=0 time=9
note_on channel=15 note=50 velocity=59 time=7
note_on channel=15 note=50 velocity=0 time=9
note_on channel=9 note=49 velocity=127 time=1
note_on channel=1 note=69 velocity=127 time=1
note_on channel=11 note=57 velocity=92 time=0
note_on channel=10 note=74 velocity=0 time=1
note_on channel=1 note=66 velocity=127 time=1
note_on channel=11 note=66 velocity=127 time=0
note_on channel=10 note=86 velocity=0 time=2
note_on channel=9 note=36 velocity=127 time=0
note_on channel=2 note=78 velocity=99 time=1
note_on channel=2 note=66 velocity=124 time=0
note_on channel=5 note=67 velocity=108 time=1
note_on channel=7 note=81 velocity=127 time=0
note_on channel=5 note=62 velocity=102 time=1
<meta message time_signature numerator=2 denominator=4 clocks_per_click=24 notated_32nd_notes_per_beat=8 time=2>
note_on channel=10 note=66 velocity=99 time=0
note_on channel=10 note=78 velocity=45 time=0
note_on channel=4 note=38 velocity=0 time=2
note_on channel=4 note=31 velocity=127 time=2
note_on channel=15 note=50 velocity=49 time=0
note_on channel=15 note=50 velocity=0 time=5
note_on channel=15 note=50 velocity=64 time=9
note_on channel=15 note=50 velocity=0 time=12
note_on channel=9 note=49 velocity=0 time=6
note_on channel=9 note=36 velocity=0 time=1
note_on channel=10 note=78 velocity=0 time=12
note_on channel=2 note=78 velocity=0 time=1
note_on channel=2 note=66 velocity=0 time=3
note_on channel=1 note=69 velocity=0 time=1
note_on channel=5 note=62 velocity=0 time=2
note_on channel=1 note=66 velocity=0 time=0
note_on channel=11 note=57 velocity=0 time=1
note_on channel=11 note=66 velocity=0 time=0
note_on channel=10 note=69 velocity=29 time=3
note_on channel=10 note=81 velocity=29 time=0
note_on channel=7 note=81 velocity=0 time=1
note_on channel=5 note=67 velocity=0 time=2
note_on channel=4 note=31 velocity=0 time=6
note_on channel=9 note=57 velocity=0 time=11
note_on channel=9 note=36 velocity=127 time=0
note_on channel=9 note=49 velocity=127 time=1
note_on channel=5 note=67 velocity=102 time=3
note_on channel=10 note=66 velocity=0 time=1
note_on channel=2 note=81 velocity=124 time=1
note_on channel=2 note=69 velocity=119 time=0
note_on channel=5 note=62 velocity=90 time=0
note_on channel=11 note=69 velocity=127 time=2
note_on channel=1 note=69 velocity=127 time=4
note_on channel=7 note=81 velocity=127 time=0
note_on channel=10 note=69 velocity=0 time=1
note_on channel=10 note=81 velocity=0 time=0
note_on channel=1 note=66 velocity=127 time=0
note_on channel=11 note=57 velocity=97 time=1
note_on channel=4 note=31 velocity=127 time=6
note_on channel=10 note=81 velocity=108 time=1
note_on channel=10 note=69 velocity=94 time=2
note_on channel=9 note=49 velocity=0 time=9
note_on channel=9 note=36 velocity=0 time=0
note_on channel=5 note=67 velocity=0 time=27
note_on channel=5 note=62 velocity=0 time=1
note_on channel=2 note=69 velocity=0 time=1
note_on channel=11 note=69 velocity=0 time=0
note_on channel=2 note=81 velocity=0 time=3
note_on channel=11 note=57 velocity=0 time=0
note_on channel=10 note=69 velocity=0 time=1
note_on channel=5 note=50 velocity=0 time=1
note_on channel=1 note=69 velocity=0 time=0
note_on channel=14 note=57 velocity=0 time=1
note_on channel=10 note=81 velocity=0 time=0
note_on channel=7 note=81 velocity=0 time=4
note_on channel=1 note=66 velocity=0 time=3
note_on channel=4 note=31 velocity=0 time=10
note_on channel=10 note=70 velocity=115 time=1
note_on channel=10 note=82 velocity=119 time=1
note_on channel=5 note=70 velocity=115 time=1
note_on channel=5 note=67 velocity=127 time=0
note_on channel=5 note=62 velocity=102 time=1
note_on channel=5 note=50 velocity=86 time=0
note_on channel=9 note=57 velocity=127 time=2
note_on channel=2 note=50 velocity=0 time=3
note_on channel=9 note=49 velocity=127 time=0
note_on channel=9 note=36 velocity=127 time=1
note_on channel=11 note=70 velocity=127 time=2
note_on channel=2 note=50 velocity=108 time=4
note_on channel=7 note=82 velocity=127 time=0
note_on channel=2 note=70 velocity=127 time=1
note_on channel=15 note=46 velocity=127 time=0
note_on channel=14 note=58 velocity=127 time=1
note_on channel=2 note=82 velocity=127 time=2
note_on channel=1 note=70 velocity=127 time=1
note_on channel=11 note=58 velocity=102 time=1
note_on channel=4 note=33 velocity=127 time=9
note_on channel=15 note=46 velocity=0 time=10
<meta message time_signature numerator=4 denominator=4 clocks_per_click=24 notated_32nd_notes_per_beat=8 time=35>
note_on channel=15 note=46 velocity=26 time=72
note_on channel=15 note=46 velocity=0 time=20
note_on channel=11 note=74 velocity=127 time=8
note_on channel=2 note=82 velocity=0 time=15
note_on channel=2 note=74 velocity=124 time=6
note_on channel=7 note=74 velocity=97 time=1
note_on channel=11 note=76 velocity=127 time=15
note_on channel=15 note=46 velocity=61 time=8
note_on channel=11 note=74 velocity=0 time=3
note_on channel=2 note=76 velocity=127 time=4
note_on channel=15 note=46 velocity=0 time=4
note_on channel=7 note=76 velocity=124 time=0
note_on channel=2 note=74 velocity=0 time=5
note_on channel=11 note=76 velocity=0 time=1
note_on channel=7 note=74 velocity=0 time=3
note_on channel=2 note=76 velocity=0 time=8
note_on channel=7 note=76 velocity=0 time=2
note_on channel=2 note=70 velocity=0 time=5
note_on channel=15 note=46 velocity=84 time=3
note_on channel=15 note=46 velocity=0 time=9
note_on channel=15 note=46 velocity=84 time=8
note_on channel=15 note=46 velocity=0 time=9
note_on channel=11 note=79 velocity=127 time=0
note_on channel=2 note=79 velocity=127 time=4
note_on channel=7 note=79 velocity=97 time=12
note_on channel=15 note=46 velocity=90 time=13
note_on channel=15 note=46 velocity=0 time=8
note_on channel=15 note=46 velocity=83 time=13
note_on channel=15 note=46 velocity=0 time=8
note_on channel=11 note=79 velocity=0 time=3
note_on channel=7 note=79 velocity=0 time=5
note_on channel=15 note=46 velocity=119 time=0
note_on channel=2 note=79 velocity=0 time=4
note_on channel=15 note=46 velocity=0 time=8
note_on channel=15 note=46 velocity=86 time=11
note_on channel=11 note=81 velocity=127 time=4
note_on channel=15 note=46 velocity=0 time=5
note_on channel=2 note=81 velocity=124 time=0
note_on channel=7 note=81 velocity=124 time=8
note_on channel=15 note=46 velocity=97 time=0
note_on channel=15 note=46 velocity=0 time=10
note_on channel=11 note=81 velocity=0 time=8
note_on channel=15 note=46 velocity=86 time=3
note_on channel=2 note=81 velocity=0 time=1
note_on channel=15 note=46 velocity=0 time=9
note_on channel=7 note=81 velocity=0 time=0
note_on channel=15 note=46 velocity=64 time=12
note_on channel=11 note=79 velocity=115 time=3
note_on channel=15 note=46 velocity=0 time=1
note_on channel=2 note=79 velocity=102 time=3
note_on channel=7 note=79 velocity=63 time=4
note_on channel=15 note=46 velocity=86 time=7
note_on channel=2 note=81 velocity=62 time=3
note_on channel=15 note=46 velocity=0 time=5
note_on channel=7 note=81 velocity=81 time=0
note_on channel=11 note=81 velocity=57 time=7
note_on channel=15 note=46 velocity=92 time=4
note_on channel=7 note=79 velocity=0 time=3
note_on channel=11 note=79 velocity=0 time=1
note_on channel=15 note=46 velocity=0 time=3
note_on channel=2 note=79 velocity=0 time=7
note_on channel=2 note=82 velocity=127 time=0
note_on channel=2 note=81 velocity=0 time=6
note_on channel=15 note=46 velocity=94 time=0
note_on channel=7 note=82 velocity=127 time=2
note_on channel=7 note=81 velocity=0 time=2
note_on channel=15 note=46 velocity=0 time=5
note_on channel=11 note=82 velocity=83 time=0
note_on channel=11 note=81 velocity=0 time=10
note_on channel=15 note=46 velocity=99 time=0
note_on channel=2 note=82 velocity=0 time=1
note_on channel=15 note=46 velocity=0 time=7
note_on channel=7 note=82 velocity=0 time=0
note_on channel=11 note=82 velocity=0 time=7
note_on channel=15 note=46 velocity=108 time=6
note_on channel=15 note=46 velocity=0 time=8
note_on channel=15 note=46 velocity=102 time=11
note_on channel=2 note=86 velocity=127 time=4
note_on channel=7 note=86 velocity=127 time=3
note_on channel=15 note=46 velocity=0 time=1
note_on channel=10 note=86 velocity=54 time=1
note_on channel=11 note=74 velocity=119 time=2
note_on channel=7 note=86 velocity=127 time=2
note_on channel=11 note=86 velocity=127 time=0
note_on channel=15 note=46 velocity=94 time=9
note_on channel=14 note=50 velocity=99 time=7
note_on channel=15 note=46 velocity=0 time=1
note_on channel=15 note=46 velocity=94 time=11
note_on channel=15 note=46 velocity=0 time=6
note_on channel=15 note=46 velocity=115 time=4
note_on channel=15 note=46 velocity=0 time=10
note_on channel=15 note=46 velocity=115 time=5
note_on channel=15 note=46 velocity=0 time=10
note_on channel=15 note=46 velocity=73 time=5
note_on channel=15 note=46 velocity=0 time=5
note_on channel=15 note=46 velocity=127 time=11
note_on channel=15 note=46 velocity=0 time=12
note_on channel=15 note=46 velocity=115 time=2
note_on channel=15 note=46 velocity=0 time=10
note_on channel=15 note=46 velocity=115 time=5
note_on channel=15 note=46 velocity=0 time=10
note_on channel=15 note=46 velocity=102 time=2
note_on channel=15 note=46 velocity=0 time=7
note_on channel=15 note=46 velocity=79 time=10
note_on channel=15 note=46 velocity=0 time=7
note_on channel=15 note=46 velocity=112 time=14
note_on channel=15 note=46 velocity=0 time=7
control_change channel=6 control=7 value=120 time=0
control_change channel=6 control=7 value=121 time=0
note_on channel=15 note=46 velocity=112 time=10
note_on channel=15 note=46 velocity=115 time=8
note_on channel=15 note=46 velocity=0 time=1
note_on channel=4 note=33 velocity=0 time=4
note_on channel=15 note=46 velocity=0 time=5
note_on channel=15 note=46 velocity=124 time=3
note_on channel=15 note=46 velocity=0 time=11
control_change channel=6 control=7 value=118 time=11
note_on channel=15 note=46 velocity=88 time=0
note_on channel=15 note=46 velocity=0 time=4
control_change channel=6 control=7 value=117 time=11
note_on channel=15 note=46 velocity=119 time=0
control_change channel=6 control=7 value=115 time=5
control_change channel=6 control=7 value=114 time=5
note_on channel=15 note=46 velocity=115 time=0
note_on channel=15 note=46 velocity=0 time=4
note_on channel=15 note=46 velocity=0 time=6
note_on channel=15 note=46 velocity=94 time=1
note_on channel=15 note=46 velocity=0 time=7
note_on channel=15 note=46 velocity=119 time=12
note_on channel=15 note=46 velocity=0 time=14
control_change channel=6 control=7 value=112 time=0
control_change channel=6 control=7 value=111 time=6
note_on channel=15 note=46 velocity=102 time=0
note_on channel=15 note=46 velocity=0 time=8
note_on channel=15 note=46 velocity=115 time=2
note_on channel=15 note=46 velocity=112 time=9
note_on channel=15 note=46 velocity=0 time=1
control_change channel=6 control=7 value=109 time=9
note_on channel=15 note=46 velocity=0 time=5
control_change channel=6 control=7 value=108 time=0
control_change channel=6 control=7 value=103 time=9
note_on channel=15 note=46 velocity=97 time=0
note_on channel=15 note=46 velocity=0 time=7
control_change channel=6 control=7 value=102 time=0
control_change channel=6 control=7 value=100 time=5
control_change channel=6 control=7 value=95 time=8
note_on channel=15 note=46 velocity=99 time=0
control_change channel=6 control=7 value=94 time=5
note_on channel=15 note=46 velocity=0 time=6
note_on channel=9 note=57 velocity=0 time=8
note_on channel=11 note=58 velocity=0 time=1
note_on channel=9 note=36 velocity=0 time=1
note_on channel=9 note=49 velocity=0 time=1
note_on channel=15 note=46 velocity=115 time=15
note_on channel=5 note=67 velocity=0 time=3
note_on channel=15 note=46 velocity=105 time=6
note_on channel=15 note=46 velocity=0 time=1
note_on channel=15 note=46 velocity=0 time=14
note_on channel=14 note=58 velocity=0 time=3
note_on channel=2 note=86 velocity=0 time=12
note_on channel=2 note=50 velocity=0 time=3
note_on channel=14 note=50 velocity=0 time=0
note_on channel=5 note=62 velocity=0 time=1
note_on channel=5 note=70 velocity=0 time=1
note_on channel=5 note=50 velocity=0 time=3
note_on channel=7 note=86 velocity=0 time=6
note_on channel=11 note=86 velocity=0 time=0
note_on channel=9 note=57 velocity=127 time=5
note_on channel=7 note=82 velocity=0 time=2
note_on channel=9 note=49 velocity=127 time=2
note_on channel=7 note=86 velocity=0 time=2
note_on channel=5 note=69 velocity=97 time=2
note_on channel=11 note=70 velocity=0 time=1
note_on channel=5 note=62 velocity=83 time=0
note_on channel=9 note=36 velocity=127 time=0
note_on channel=5 note=66 velocity=127 time=1
note_on channel=5 note=50 velocity=79 time=2
note_on channel=11 note=50 velocity=127 time=2
note_on channel=2 note=50 velocity=127 time=2
note_on channel=2 note=86 velocity=127 time=1
note_on channel=4 note=38 velocity=127 time=0
note_on channel=7 note=86 velocity=127 time=0
note_on channel=11 note=74 velocity=115 time=0
note_on channel=11 note=62 velocity=127 time=0
note_on channel=14 note=50 velocity=127 time=0
note_on channel=15 note=50 velocity=127 time=0
note_on channel=9 note=49 velocity=0 time=5
note_on channel=10 note=70 velocity=0 time=2
note_on channel=10 note=82 velocity=0 time=2
note_on channel=10 note=86 velocity=0 time=0
note_on channel=6 note=74 velocity=127 time=0
note_on channel=11 note=74 velocity=0 time=2
note_on channel=9 note=36 velocity=0 time=0
note_on channel=11 note=50 velocity=0 time=5
note_on channel=9 note=57 velocity=0 time=0
note_on channel=2 note=86 velocity=0 time=1
note_on channel=7 note=86 velocity=0 time=1
note_on channel=14 note=50 velocity=0 time=1
note_on channel=4 note=38 velocity=0 time=0
note_on channel=15 note=50 velocity=0 time=0
note_on channel=2 note=50 velocity=0 time=0
note_on channel=11 note=62 velocity=0 time=1
note_on channel=11 note=74 velocity=0 time=1
note_on channel=6 note=74 velocity=0 time=7
note_on channel=11 note=50 velocity=108 time=0
note_on channel=2 note=50 velocity=127 time=2
note_on channel=4 note=38 velocity=127 time=0
note_on channel=7 note=86 velocity=127 time=0
note_on channel=14 note=50 velocity=88 time=0
note_on channel=15 note=50 velocity=127 time=0
note_on channel=11 note=62 velocity=119 time=3
note_on channel=11 note=74 velocity=115 time=1
note_on channel=11 note=72 velocity=127 time=0
note_on channel=2 note=86 velocity=127 time=2
note_on channel=6 note=74 velocity=124 time=0
note_on channel=1 note=70 velocity=0 time=3
note_on channel=15 note=50 velocity=0 time=6
note_on channel=14 note=50 velocity=0 time=0
note_on channel=11 note=50 velocity=0 time=1
note_on channel=2 note=50 velocity=0 time=1
note_on channel=4 note=38 velocity=0 time=2
note_on channel=7 note=86 velocity=0 time=2
note_on channel=11 note=72 velocity=0 time=0
note_on channel=6 note=74 velocity=0 time=2
note_on channel=11 note=62 velocity=0 time=1
note_on channel=11 note=74 velocity=0 time=1
note_on channel=2 note=86 velocity=0 time=3
note_on channel=2 note=86 velocity=127 time=2
note_on channel=4 note=38 velocity=127 time=0
note_on channel=7 note=86 velocity=124 time=0
note_on channel=11 note=74 velocity=115 time=0
note_on channel=15 note=50 velocity=127 time=0
note_on channel=11 note=50 velocity=127 time=2
note_on channel=11 note=62 velocity=127 time=1
note_on channel=2 note=50 velocity=127 time=1
control_change channel=6 control=7 value=92 time=3
note_on channel=6 note=74 velocity=127 time=0
note_on channel=14 note=50 velocity=127 time=6
control_change channel=6 control=7 value=91 time=1
note_on channel=15 note=50 velocity=0 time=1
note_on channel=4 note=38 velocity=0 time=0
note_on channel=7 note=86 velocity=0 time=3
note_on channel=11 note=74 velocity=0 time=3
note_on channel=2 note=86 velocity=0 time=0
note_on channel=11 note=50 velocity=0 time=1
note_on channel=2 note=50 velocity=0 time=4
note_on channel=6 note=74 velocity=0 time=3
note_on channel=11 note=74 velocity=115 time=1
note_on channel=15 note=50 velocity=115 time=0
note_on channel=2 note=50 velocity=127 time=2
note_on channel=6 note=74 velocity=124 time=1
note_on channel=14 note=50 velocity=0 time=1
note_on channel=11 note=50 velocity=115 time=0
note_on channel=2 note=86 velocity=127 time=3
note_on channel=4 note=38 velocity=127 time=0
note_on channel=7 note=86 velocity=127 time=0
note_on channel=14 note=50 velocity=127 time=2
note_on channel=11 note=62 velocity=0 time=5
note_on channel=2 note=50 velocity=0 time=4
note_on channel=11 note=50 velocity=0 time=1
note_on channel=9 note=36 velocity=127 time=0
note_on channel=15 note=50 velocity=0 time=1
note_on channel=9 note=49 velocity=127 time=0
note_on channel=9 note=57 velocity=127 time=0
note_on channel=11 note=74 velocity=0 time=1
note_on channel=4 note=38 velocity=0 time=2
note_on channel=6 note=74 velocity=0 time=1
note_on channel=7 note=86 velocity=0 time=3
note_on channel=14 note=50 velocity=0 time=0
note_on channel=2 note=86 velocity=0 time=2
note_on channel=11 note=62 velocity=127 time=0
note_on channel=2 note=50 velocity=127 time=1
note_on channel=2 note=86 velocity=127 time=0
note_on channel=4 note=38 velocity=127 time=0
note_on channel=7 note=86 velocity=127 time=0
note_on channel=11 note=74 velocity=115 time=0
note_on channel=14 note=91 velocity=127 time=0
note_on channel=15 note=50 velocity=127 time=0
note_on channel=9 note=49 velocity=0 time=8
note_on channel=6 note=74 velocity=127 time=2
note_on channel=15 note=50 velocity=0 time=1
note_on channel=14 note=50 velocity=127 time=0
note_on channel=9 note=36 velocity=0 time=4
note_on channel=9 note=57 velocity=0 time=5
note_on channel=11 note=74 velocity=0 time=1
note_on channel=11 note=62 velocity=0 time=5
note_on channel=14 note=91 velocity=0 time=3
note_on channel=4 note=38 velocity=0 time=1
note_on channel=5 note=69 velocity=0 time=5
note_on channel=5 note=62 velocity=0 time=0
note_on channel=5 note=66 velocity=0 time=2
note_on channel=2 note=86 velocity=0 time=1
note_on channel=5 note=50 velocity=0 time=0
note_on channel=2 note=50 velocity=0 time=3
note_on channel=14 note=50 velocity=0 time=8
note_on channel=7 note=86 velocity=0 time=6
note_on channel=6 note=74 velocity=0 time=11
<meta message end_of_track time=0>
<meta message track_name name=u'End Theme from Disneyland\'s "Fantasmic"' time=0>
<meta message copyright text=u'Sequenced by Randy Tennison' time=0>
<meta message text text=u'The music you hear as you leave Disneyland\'s exciting show "Fantasmic"!\n' time=0>
<meta message text text=u'Just remember, they had a 90 piece orchastra to perform this, I had 32 note polyphony!\n' time=0>
<meta message smpte_offset frame_rate=25 hours=32 minutes=0 seconds=3 frames=0 sub_frames=0 time=0>
<meta message time_signature numerator=4 denominator=4 clocks_per_click=24 notated_32nd_notes_per_beat=8 time=0>
<meta message key_signature key='C' time=0>
<meta message set_tempo tempo=444444 time=0>
program_change channel=0 program=1 time=0
control_change channel=0 control=7 value=127 time=0
control_change channel=0 control=10 value=64 time=0
control_change channel=1 control=0 value=0 time=0
control_change channel=1 control=32 value=0 time=0
program_change channel=1 program=60 time=0
control_change channel=1 control=7 value=127 time=0
control_change channel=1 control=10 value=64 time=0
control_change channel=2 control=0 value=0 time=0
control_change channel=2 control=32 value=0 time=0
program_change channel=2 program=61 time=0
control_change channel=2 control=7 value=127 time=0
control_change channel=2 control=10 value=64 time=0
control_change channel=3 control=0 value=0 time=0
control_change channel=3 control=32 value=0 time=0
program_change channel=3 program=62 time=0
control_change channel=3 control=7 value=127 time=0
control_change channel=3 control=10 value=64 time=0
control_change channel=4 control=0 value=0 time=0
control_change channel=4 control=32 value=0 time=0
program_change channel=4 program=33 time=0
control_change channel=4 control=7 value=127 time=0
control_change channel=4 control=10 value=64 time=0
control_change channel=5 control=0 value=0 time=0
control_change channel=5 control=32 value=0 time=0
program_change channel=5 program=48 time=0
control_change channel=5 control=7 value=127 time=0
control_change channel=5 control=10 value=64 time=0
control_change channel=6 control=0 value=0 time=0
control_change channel=6 control=32 value=0 time=0
program_change channel=6 program=55 time=0
control_change channel=6 control=7 value=127 time=0
control_change channel=6 control=10 value=64 time=0
control_change channel=7 control=0 value=0 time=0
control_change channel=7 control=32 value=0 time=0
program_change channel=7 program=72 time=0
control_change channel=7 control=7 value=81 time=0
control_change channel=7 control=10 value=64 time=0
control_change channel=8 control=0 value=0 time=0
control_change channel=8 control=32 value=0 time=0
program_change channel=8 program=81 time=0
control_change channel=8 control=7 value=123 time=0
control_change channel=8 control=10 value=64 time=0
control_change channel=9 control=7 value=78 time=0
control_change channel=9 control=10 value=64 time=0
control_change channel=9 control=0 value=0 time=0
control_change channel=9 control=32 value=0 time=0
program_change channel=10 program=50 time=0
control_change channel=10 control=7 value=127 time=0
control_change channel=10 control=10 value=64 time=0
control_change channel=11 control=0 value=0 time=0
control_change channel=11 control=32 value=0 time=0
program_change channel=11 program=57 time=0
control_change channel=11 control=7 value=127 time=0
control_change channel=11 control=10 value=64 time=0
program_change channel=12 program=30 time=0
control_change channel=12 control=7 value=127 time=0
control_change channel=12 control=10 value=64 time=0
control_change channel=13 control=0 value=0 time=0
control_change channel=13 control=32 value=0 time=0
program_change channel=13 program=29 time=0
control_change channel=13 control=7 value=78 time=0
control_change channel=13 control=10 value=64 time=0
control_change channel=14 control=0 value=0 time=0
control_change channel=14 control=32 value=0 time=0
program_change channel=14 program=56 time=0
control_change channel=14 control=7 value=127 time=0
control_change channel=15 control=0 value=0 time=0
control_change channel=15 control=32 value=0 time=0
program_change channel=15 program=47 time=0
note_on channel=5 note=50 velocity=97 time=480
note_on channel=5 note=55 velocity=58 time=30
note_on channel=5 note=50 velocity=0 time=10
note_on channel=5 note=55 velocity=0 time=10
note_on channel=5 note=57 velocity=56 time=10
note_on channel=5 note=57 velocity=0 time=40
note_on channel=5 note=50 velocity=89 time=0
note_on channel=5 note=50 velocity=0 time=40
note_on channel=5 note=55 velocity=67 time=0
note_on channel=5 note=55 velocity=0 time=20
note_on channel=5 note=57 velocity=69 time=0
note_on channel=5 note=57 velocity=0 time=40
note_on channel=5 note=50 velocity=97 time=0
note_on channel=5 note=50 velocity=0 time=40
note_on channel=5 note=55 velocity=97 time=0
note_on channel=5 note=55 velocity=97 time=0
note_on channel=5 note=57 velocity=53 time=0
note_on channel=5 note=55 velocity=0 time=20
note_on channel=5 note=57 velocity=82 time=0
note_on channel=5 note=55 velocity=0 time=20
note_on channel=5 note=62 velocity=97 time=0
note_on channel=5 note=57 velocity=0 time=20
note_on channel=5 note=57 velocity=0 time=0
note_on channel=5 note=50 velocity=97 time=0
note_on channel=1 note=62 velocity=127 time=16
note_on channel=5 note=62 velocity=0 time=4
note_on channel=5 note=55 velocity=97 time=0
note_on channel=5 note=55 velocity=85 time=0
pitchwheel channel=7 pitch=-358 time=13
pitchwheel channel=7 pitch=-358 time=0
pitchwheel channel=7 pitch=-358 time=0
note_on channel=5 note=50 velocity=0 time=7
note_on channel=5 note=57 velocity=94 time=0
note_on channel=5 note=57 velocity=58 time=0
pitchwheel channel=7 pitch=-716 time=1
pitchwheel channel=7 pitch=-716 time=0
pitchwheel channel=7 pitch=-716 time=0
pitchwheel channel=7 pitch=-1074 time=7
pitchwheel channel=7 pitch=-1074 time=2
pitchwheel channel=7 pitch=-1074 time=0
pitchwheel channel=7 pitch=-1535 time=7
pitchwheel channel=7 pitch=-1535 time=1
pitchwheel channel=7 pitch=-1535 time=0
note_on channel=5 note=55 velocity=0 time=2
note_on channel=5 note=55 velocity=0 time=0
note_on channel=1 note=67 velocity=112 time=2
pitchwheel channel=7 pitch=-1877 time=1
note_on channel=1 note=62 velocity=0 time=1
pitchwheel channel=7 pitch=-1877 time=0
pitchwheel channel=7 pitch=-1877 time=0
pitchwheel channel=7 pitch=-2247 time=4
pitchwheel channel=7 pitch=-2247 time=0
pitchwheel channel=7 pitch=-2247 time=0
pitchwheel channel=7 pitch=-2545 time=2
pitchwheel channel=7 pitch=-2545 time=1
pitchwheel channel=7 pitch=-2545 time=0
pitchwheel channel=7 pitch=-2883 time=5
pitchwheel channel=7 pitch=-2883 time=0
pitchwheel channel=7 pitch=-2883 time=0
note_on channel=5 note=57 velocity=0 time=4
note_on channel=5 note=57 velocity=0 time=0
note_on channel=5 note=62 velocity=97 time=0
pitchwheel channel=7 pitch=-3242 time=2
pitchwheel channel=7 pitch=-3242 time=0
pitchwheel channel=7 pitch=-3242 time=0
pitchwheel channel=7 pitch=-3583 time=4
pitchwheel channel=7 pitch=-3583 time=1
pitchwheel channel=7 pitch=-3583 time=0
pitchwheel channel=7 pitch=-4096 time=10
pitchwheel channel=7 pitch=-4096 time=1
pitchwheel channel=7 pitch=-4096 time=0
note_on channel=5 note=50 velocity=97 time=2
note_on channel=1 note=67 velocity=0 time=3
note_on channel=1 note=74 velocity=127 time=12
note_on channel=5 note=62 velocity=0 time=5
note_on channel=5 note=55 velocity=97 time=0
note_on channel=5 note=55 velocity=97 time=0
note_on channel=5 note=50 velocity=0 time=20
note_on channel=5 note=57 velocity=94 time=0
note_on channel=5 note=57 velocity=69 time=0
note_on channel=1 note=74 velocity=0 time=11
note_on channel=5 note=55 velocity=0 time=9
note_on channel=5 note=55 velocity=0 time=0
pitchwheel channel=7 pitch=-4334 time=13
pitchwheel channel=7 pitch=-4334 time=1
pitchwheel channel=7 pitch=-4334 time=0
note_on channel=1 note=74 velocity=127 time=1
note_on channel=5 note=57 velocity=0 time=5
note_on channel=5 note=62 velocity=97 time=0
note_on channel=10 note=52 velocity=105 time=0
pitchwheel channel=7 pitch=-4693 time=14
pitchwheel channel=7 pitch=-4693 time=0
pitchwheel channel=7 pitch=-4693 time=1
note_on channel=5 note=62 velocity=0 time=5
note_on channel=5 note=57 velocity=0 time=0
note_on channel=5 note=50 velocity=97 time=0
note_on channel=5 note=55 velocity=89 time=0
note_on channel=10 note=55 velocity=99 time=6
note_on channel=10 note=52 velocity=0 time=9
note_on channel=5 note=55 velocity=94 time=5
note_on channel=10 note=57 velocity=97 time=13
note_on channel=5 note=55 velocity=0 time=7
note_on channel=5 note=50 velocity=0 time=0
note_on channel=5 note=57 velocity=97 time=0
note_on channel=5 note=57 velocity=64 time=0
note_on channel=10 note=55 velocity=0 time=6
note_on channel=5 note=55 velocity=0 time=14
note_on channel=5 note=62 velocity=97 time=0
note_on channel=1 note=74 velocity=0 time=17
note_on channel=10 note=57 velocity=0 time=1
note_on channel=5 note=57 velocity=0 time=2
note_on channel=10 note=52 velocity=112 time=2
note_on channel=14 note=62 velocity=112 time=7
note_on channel=14 note=74 velocity=99 time=1
note_on channel=1 note=72 velocity=127 time=4
note_on channel=5 note=62 velocity=0 time=6
note_on channel=5 note=57 velocity=0 time=0
note_on channel=2 note=62 velocity=100 time=0
note_on channel=2 note=74 velocity=105 time=0
note_on channel=5 note=50 velocity=97 time=0
note_on channel=5 note=55 velocity=82 time=0
note_on channel=11 note=74 velocity=97 time=0
note_on channel=11 note=62 velocity=83 time=0
note_on channel=14 note=74 velocity=0 time=11
note_on channel=10 note=55 velocity=105 time=1
note_on channel=14 note=76 velocity=127 time=6
note_on channel=10 note=52 velocity=0 time=1
note_on channel=14 note=64 velocity=90 time=0
note_on channel=14 note=62 velocity=0 time=1
note_on channel=5 note=55 velocity=89 time=0
note_on channel=5 note=57 velocity=97 time=0
note_on channel=11 note=74 velocity=0 time=10
note_on channel=11 note=62 velocity=0 time=0
note_on channel=2 note=62 velocity=0 time=0
note_on channel=2 note=74 velocity=0 time=0
note_on channel=2 note=64 velocity=100 time=0
note_on channel=2 note=76 velocity=102 time=0
note_on channel=11 note=76 velocity=63 time=0
note_on channel=11 note=64 velocity=127 time=0
note_on channel=10 note=57 velocity=102 time=8
note_on channel=5 note=55 velocity=0 time=2
note_on channel=5 note=50 velocity=0 time=0
note_on channel=5 note=57 velocity=49 time=0
note_on channel=1 note=72 velocity=0 time=5
note_on channel=1 note=71 velocity=127 time=0
note_on channel=10 note=55 velocity=0 time=6
note_on channel=14 note=76 velocity=0 time=4
note_on channel=11 note=76 velocity=0 time=5
note_on channel=2 note=64 velocity=0 time=0
note_on channel=2 note=76 velocity=0 time=0
note_on channel=11 note=64 velocity=0 time=0
note_on channel=14 note=64 velocity=0 time=0
note_on channel=5 note=55 velocity=0 time=0
note_on channel=5 note=62 velocity=97 time=0
note_on channel=5 note=57 velocity=0 time=20
note_on channel=5 note=55 velocity=97 time=0
note_on channel=10 note=52 velocity=102 time=7
note_on channel=10 note=57 velocity=0 time=3
note_on channel=2 note=79 velocity=112 time=0
note_on channel=2 note=67 velocity=100 time=0
note_on channel=11 note=67 velocity=105 time=0
note_on channel=11 note=79 velocity=124 time=0
note_on channel=14 note=67 velocity=105 time=3
note_on channel=14 note=79 velocity=127 time=2
note_on channel=1 note=71 velocity=0 time=4
note_on channel=5 note=62 velocity=0 time=1
note_on channel=5 note=57 velocity=0 time=0
note_on channel=5 note=50 velocity=89 time=0
note_on channel=1 note=69 velocity=127 time=5
note_on channel=5 note=57 velocity=97 time=15
note_on channel=5 note=55 velocity=97 time=0
note_on channel=10 note=55 velocity=90 time=0
note_on channel=10 note=52 velocity=0 time=6
note_on channel=5 note=50 velocity=0 time=14
note_on channel=5 note=55 velocity=0 time=0
note_on channel=10 note=57 velocity=97 time=7
note_on channel=11 note=67 velocity=0 time=3
note_on channel=11 note=79 velocity=0 time=0
note_on channel=10 note=55 velocity=0 time=6
note_on channel=5 note=55 velocity=0 time=4
note_on channel=5 note=57 velocity=54 time=0
note_on channel=5 note=62 velocity=97 time=0
note_on channel=14 note=67 velocity=0 time=5
note_on channel=14 note=79 velocity=0 time=2
note_on channel=14 note=69 velocity=99 time=0
note_on channel=14 note=81 velocity=105 time=2
note_on channel=5 note=57 velocity=0 time=11
note_on channel=2 note=79 velocity=0 time=0
note_on channel=2 note=67 velocity=0 time=0
note_on channel=2 note=69 velocity=100 time=0
note_on channel=2 note=81 velocity=102 time=0
note_on channel=5 note=55 velocity=97 time=0
note_on channel=11 note=69 velocity=127 time=0
note_on channel=11 note=81 velocity=127 time=0
note_on channel=10 note=57 velocity=0 time=17
note_on channel=5 note=57 velocity=0 time=3
note_on channel=5 note=62 velocity=0 time=0
note_on channel=5 note=50 velocity=89 time=0
note_on channel=5 note=57 velocity=97 time=0
note_on channel=10 note=52 velocity=84 time=0
note_on channel=11 note=69 velocity=0 time=10
note_on channel=2 note=81 velocity=0 time=0
note_on channel=11 note=81 velocity=0 time=0
note_on channel=2 note=69 velocity=0 time=0
note_on channel=14 note=81 velocity=0 time=9
note_on channel=5 note=55 velocity=0 time=1
note_on channel=14 note=69 velocity=0 time=0
note_on channel=1 note=69 velocity=0 time=3
note_on channel=10 note=55 velocity=78 time=6
note_on channel=1 note=67 velocity=127 time=2
note_on channel=14 note=67 velocity=79 time=3
note_on channel=14 note=79 velocity=127 time=2
note_on channel=5 note=50 velocity=0 time=4
note_on channel=2 note=67 velocity=100 time=0
note_on channel=2 note=79 velocity=88 time=0
note_on channel=5 note=55 velocity=85 time=0
note_on channel=11 note=67 velocity=84 time=0
note_on channel=11 note=79 velocity=124 time=0
note_on channel=10 note=52 velocity=0 time=2
note_on channel=10 note=57 velocity=86 time=14
note_on channel=5 note=55 velocity=0 time=4
note_on channel=5 note=57 velocity=0 time=0
note_on channel=5 note=57 velocity=62 time=0
note_on channel=5 note=55 velocity=97 time=0
note_on channel=5 note=62 velocity=51 time=0
note_on channel=14 note=81 velocity=92 time=4
note_on channel=14 note=69 velocity=108 time=0
note_on channel=10 note=55 velocity=0 time=2
note_on channel=2 note=79 velocity=0 time=4
note_on channel=11 note=67 velocity=0 time=0
note_on channel=11 note=79 velocity=0 time=0
note_on channel=2 note=67 velocity=0 time=0
note_on channel=14 note=79 velocity=0 time=0
note_on channel=2 note=69 velocity=100 time=0
note_on channel=2 note=81 velocity=86 time=0
note_on channel=11 note=81 velocity=97 time=0
note_on channel=11 note=69 velocity=127 time=0
note_on channel=14 note=67 velocity=0 time=9
note_on channel=14 note=69 velocity=0 time=1
note_on channel=14 note=81 velocity=0 time=5
note_on channel=14 note=83 velocity=88 time=9
note_on channel=14 note=71 velocity=119 time=4
note_on channel=11 note=81 velocity=0 time=2
note_on channel=2 note=69 velocity=0 time=0
note_on channel=5 note=62 velocity=0 time=0
note_on channel=2 note=81 velocity=0 time=0
note_on channel=11 note=69 velocity=0 time=0
note_on channel=5 note=57 velocity=0 time=0
note_on channel=2 note=83 velocity=115 time=0
note_on channel=2 note=71 velocity=100 time=0
note_on channel=5 note=50 velocity=89 time=0
note_on channel=5 note=57 velocity=97 time=0
note_on channel=11 note=83 velocity=99 time=0
note_on channel=11 note=71 velocity=94 time=0
note_on channel=10 note=52 velocity=81 time=15
note_on channel=10 note=57 velocity=0 time=5
note_on channel=5 note=55 velocity=0 time=0
note_on channel=11 note=71 velocity=0 time=10
note_on channel=11 note=83 velocity=0 time=0
note_on channel=2 note=83 velocity=0 time=0
note_on channel=2 note=71 velocity=0 time=0
note_on channel=14 note=83 velocity=0 time=7
note_on channel=14 note=71 velocity=0 time=1
note_on channel=5 note=50 velocity=0 time=2
note_on channel=5 note=55 velocity=97 time=0
note_on channel=10 note=55 velocity=66 time=6
note_on channel=10 note=52 velocity=0 time=8
note_on channel=14 note=74 velocity=127 time=5
note_on channel=5 note=55 velocity=0 time=1
note_on channel=5 note=57 velocity=0 time=0
pitchwheel channel=2 pitch=0 time=0
note_on channel=2 note=74 velocity=100 time=0
note_on channel=2 note=79 velocity=127 time=0
note_on channel=2 note=86 velocity=127 time=0
note_on channel=5 note=57 velocity=82 time=0
note_on channel=5 note=62 velocity=72 time=0
note_on channel=11 note=74 velocity=127 time=0
note_on channel=11 note=86 velocity=127 time=0
note_on channel=14 note=86 velocity=127 time=0
note_on channel=4 note=38 velocity=110 time=1
note_on channel=10 note=57 velocity=99 time=9
note_on channel=5 note=55 velocity=24 time=10
note_on channel=10 note=55 velocity=0 time=2
pitchwheel channel=2 pitch=-128 time=4
pitchwheel channel=2 pitch=-256 time=8
note_on channel=5 note=62 velocity=0 time=6
note_on channel=5 note=57 velocity=0 time=0
pitchwheel channel=2 pitch=-384 time=0
note_on channel=5 note=50 velocity=94 time=0
pitchwheel channel=2 pitch=-512 time=2
pitchwheel channel=2 pitch=-640 time=2
pitchwheel channel=2 pitch=-768 time=2
pitchwheel channel=2 pitch=-1024 time=2
pitchwheel channel=2 pitch=-1280 time=2
pitchwheel channel=2 pitch=-1792 time=6
pitchwheel channel=2 pitch=-1920 time=2
note_on channel=2 note=86 velocity=0 time=2
note_on channel=11 note=74 velocity=0 time=0
note_on channel=2 note=79 velocity=0 time=0
note_on channel=11 note=86 velocity=0 time=0
note_on channel=2 note=74 velocity=0 time=0
note_on channel=5 note=55 velocity=0 time=0
note_on channel=5 note=57 velocity=97 time=0
note_on channel=14 note=86 velocity=0 time=2
note_on channel=14 note=74 velocity=0 time=1
note_on channel=10 note=52 velocity=83 time=0
note_on channel=10 note=57 velocity=0 time=9
note_on channel=5 note=50 velocity=0 time=8
note_on channel=5 note=55 velocity=94 time=0
note_on channel=5 note=62 velocity=97 time=0
note_on channel=5 note=57 velocity=60 time=0
pitchwheel channel=2 pitch=0 time=8
note_on channel=10 note=55 velocity=78 time=7
note_on channel=5 note=55 velocity=0 time=5
note_on channel=5 note=57 velocity=0 time=0
note_on channel=10 note=52 velocity=0 time=4
note_on channel=10 note=57 velocity=84 time=14
note_on channel=5 note=62 velocity=0 time=2
note_on channel=5 note=57 velocity=0 time=0
note_on channel=5 note=55 velocity=89 time=0
note_on channel=5 note=50 velocity=97 time=0
note_on channel=10 note=55 velocity=0 time=9
note_on channel=5 note=57 velocity=97 time=11
note_on channel=5 note=55 velocity=0 time=20
note_on channel=5 note=62 velocity=34 time=0
note_on channel=5 note=55 velocity=97 time=0
note_on channel=4 note=38 velocity=0 time=5
note_on channel=10 note=52 velocity=77 time=9
note_on channel=14 note=84 velocity=127 time=4
note_on channel=14 note=72 velocity=127 time=1
note_on channel=10 note=57 velocity=0 time=1
note_on channel=5 note=50 velocity=0 time=0
note_on channel=2 note=72 velocity=100 time=0
note_on channel=2 note=76 velocity=100 time=0
note_on channel=2 note=84 velocity=127 time=0
note_on channel=5 note=57 velocity=62 time=0
note_on channel=11 note=72 velocity=127 time=0
note_on channel=11 note=84 velocity=127 time=0
note_on channel=4 note=38 velocity=51 time=7
note_on channel=5 note=55 velocity=0 time=13
note_on channel=5 note=57 velocity=0 time=0
note_on channel=5 note=62 velocity=0 time=0
note_on channel=5 note=55 velocity=82 time=0
note_on channel=15 note=50 velocity=57 time=3
note_on channel=10 note=55 velocity=78 time=1
control_change channel=1 control=7 value=119 time=5
note_on channel=10 note=52 velocity=0 time=6
note_on channel=15 note=50 velocity=0 time=4
note_on channel=5 note=57 velocity=0 time=1
note_on channel=5 note=50 velocity=94 time=0
note_on channel=10 note=57 velocity=99 time=11
note_on channel=14 note=72 velocity=0 time=5
note_on channel=14 note=84 velocity=0 time=2
note_on channel=15 note=50 velocity=44 time=0
note_on channel=11 note=72 velocity=0 time=2
note_on channel=5 note=55 velocity=0 time=0
note_on channel=2 note=72 velocity=0 time=0
note_on channel=2 note=76 velocity=0 time=0
note_on channel=2 note=84 velocity=0 time=0
note_on channel=11 note=84 velocity=0 time=0
note_on channel=10 note=55 velocity=0 time=0
note_on channel=5 note=57 velocity=97 time=0
note_on channel=5 note=50 velocity=0 time=20
note_on channel=5 note=55 velocity=97 time=0
note_on channel=5 note=62 velocity=97 time=0
note_on channel=15 note=50 velocity=0 time=10
note_on channel=5 note=57 velocity=0 time=10
note_on channel=5 note=57 velocity=43 time=0
note_on channel=15 note=50 velocity=65 time=0
note_on channel=14 note=71 velocity=127 time=13
note_on channel=4 note=38 velocity=0 time=1
note_on channel=14 note=83 velocity=127 time=0
note_on channel=15 note=50 velocity=0 time=2
note_on channel=15 note=50 velocity=68 time=3
note_on channel=5 note=55 velocity=0 time=1
note_on channel=5 note=62 velocity=0 time=0
note_on channel=2 note=71 velocity=100 time=0
note_on channel=2 note=76 velocity=100 time=0
note_on channel=2 note=83 velocity=127 time=0
note_on channel=5 note=55 velocity=97 time=0
note_on channel=5 note=50 velocity=89 time=0
note_on channel=11 note=83 velocity=124 time=0
note_on channel=11 note=71 velocity=124 time=0
note_on channel=4 note=38 velocity=66 time=10
note_on channel=15 note=50 velocity=0 time=5
note_on channel=5 note=57 velocity=0 time=5
note_on channel=10 note=55 velocity=66 time=0
note_on channel=15 note=50 velocity=84 time=4
note_on channel=10 note=52 velocity=62 time=4
note_on channel=10 note=57 velocity=0 time=1
note_on channel=5 note=50 velocity=0 time=11
note_on channel=5 note=55 velocity=0 time=0
note_on channel=5 note=57 velocity=97 time=0
note_on channel=5 note=55 velocity=97 time=0
note_on channel=15 note=50 velocity=0 time=2
note_on channel=10 note=55 velocity=0 time=3
note_on channel=15 note=50 velocity=81 time=2
note_on channel=14 note=71 velocity=0 time=9
note_on channel=14 note=83 velocity=0 time=1
note_on channel=2 note=71 velocity=0 time=3
note_on channel=2 note=76 velocity=0 time=0
note_on channel=2 note=83 velocity=0 time=0
note_on channel=11 note=71 velocity=0 time=0
note_on channel=11 note=83 velocity=0 time=0
note_on channel=5 note=62 velocity=82 time=0
note_on channel=15 note=50 velocity=0 time=2
note_on channel=10 note=57 velocity=60 time=6
note_on channel=15 note=50 velocity=99 time=4
note_on channel=5 note=57 velocity=0 time=8
note_on channel=5 note=55 velocity=97 time=0
note_on channel=10 note=52 velocity=0 time=2
note_on channel=15 note=50 velocity=0 time=7
note_on channel=2 note=69 velocity=100 time=1
note_on channel=2 note=74 velocity=100 time=0
note_on channel=2 note=81 velocity=127 time=0
note_on channel=11 note=81 velocity=115 time=0
note_on channel=11 note=69 velocity=97 time=0
note_on channel=14 note=69 velocity=77 time=3
note_on channel=14 note=71 velocity=68 time=0
note_on channel=14 note=81 velocity=119 time=2
note_on channel=15 note=50 velocity=88 time=1
note_on channel=5 note=55 velocity=0 time=4
note_on channel=5 note=62 velocity=0 time=0
note_on channel=5 note=50 velocity=97 time=0
note_on channel=10 note=55 velocity=127 time=0
note_on channel=4 note=38 velocity=0 time=5
note_on channel=14 note=71 velocity=0 time=4
note_on channel=15 note=50 velocity=0 time=0
note_on channel=14 note=69 velocity=0 time=3
note_on channel=14 note=81 velocity=0 time=0
note_on channel=14 note=67 velocity=102 time=5
note_on channel=14 note=79 velocity=127 time=1
note_on channel=2 note=81 velocity=0 time=2
note_on channel=11 note=69 velocity=0 time=0
note_on channel=2 note=74 velocity=0 time=0
note_on channel=5 note=55 velocity=0 time=0
note_on channel=11 note=81 velocity=0 time=0
note_on channel=2 note=69 velocity=0 time=0
note_on channel=2 note=79 velocity=127 time=0
note_on channel=2 note=67 velocity=100 time=0
note_on channel=2 note=74 velocity=100 time=0
note_on channel=5 note=57 velocity=97 time=0
note_on channel=5 note=57 velocity=48 time=0
note_on channel=11 note=79 velocity=119 time=0
note_on channel=11 note=67 velocity=90 time=0
note_on channel=15 note=50 velocity=79 time=0
note_on channel=10 note=55 velocity=0 time=2
note_on channel=4 note=38 velocity=65 time=2
note_on channel=10 note=57 velocity=0 time=3
control_change channel=1 control=7 value=118 time=0
control_change channel=1 control=7 value=116 time=4
control_change channel=1 control=7 value=115 time=5
note_on channel=5 note=57 velocity=0 time=4
note_on channel=5 note=50 velocity=0 time=0
note_on channel=5 note=62 velocity=97 time=0
note_on channel=5 note=55 velocity=72 time=0
note_on channel=15 note=50 velocity=0 time=1
control_change channel=1 control=7 value=112 time=3
note_on channel=14 note=79 velocity=0 time=4
note_on channel=2 note=67 velocity=0 time=2
note_on channel=2 note=74 velocity=0 time=0
note_on channel=2 note=79 velocity=0 time=0
note_on channel=14 note=67 velocity=0 time=0
note_on channel=11 note=67 velocity=0 time=0
note_on channel=11 note=79 velocity=0 time=0
control_change channel=1 control=7 value=105 time=0
control_change channel=1 control=7 value=104 time=5
note_on channel=15 note=50 velocity=127 time=0
note_on channel=5 note=57 velocity=0 time=5
control_change channel=1 control=7 value=102 time=0
note_on channel=5 note=55 velocity=82 time=0
note_on channel=4 note=38 velocity=0 time=10
note_on channel=6 note=67 velocity=54 time=1
note_on channel=6 note=79 velocity=64 time=0
note_on channel=7 note=91 velocity=74 time=0
note_on channel=7 note=79 velocity=88 time=0
note_on channel=1 note=67 velocity=0 time=2
control_change channel=1 control=7 value=94 time=0
note_on channel=9 note=49 velocity=127 time=0
note_on channel=7 note=89 velocity=73 time=3
note_on channel=15 note=50 velocity=0 time=3
control_change channel=1 control=7 value=93 time=0
note_on channel=14 note=67 velocity=127 time=0
note_on channel=5 note=55 velocity=0 time=1
note_on channel=5 note=55 velocity=0 time=0
note_on channel=5 note=62 velocity=0 time=0
note_on channel=2 note=67 velocity=100 time=0
note_on channel=2 note=74 velocity=100 time=0
note_on channel=2 note=79 velocity=100 time=0
note_on channel=4 note=31 velocity=100 time=0
note_on channel=5 note=50 velocity=75 time=0
note_on channel=5 note=57 velocity=97 time=0
note_on channel=5 note=57 velocity=72 time=0
note_on channel=9 note=36 velocity=108 time=0
note_on channel=9 note=44 velocity=100 time=0
note_on channel=14 note=79 velocity=127 time=0
pitchwheel channel=7 pitch=-4334 time=1
pitchwheel channel=7 pitch=-4334 time=0
pitchwheel channel=7 pitch=-4334 time=0
note_on channel=10 note=67 velocity=127 time=0
pitchwheel channel=7 pitch=-3412 time=5
pitchwheel channel=7 pitch=-3412 time=0
pitchwheel channel=7 pitch=-3412 time=0
note_on channel=11 note=91 velocity=69 time=0
pitchwheel channel=7 pitch=0 time=2
note_on channel=11 note=79 velocity=68 time=0
pitchwheel channel=7 pitch=0 time=1
note_on channel=15 note=43 velocity=127 time=0
pitchwheel channel=7 pitch=0 time=1
control_change channel=1 control=7 value=91 time=1
pitchwheel channel=7 pitch=-119 time=1
pitchwheel channel=7 pitch=-119 time=0
pitchwheel channel=7 pitch=-119 time=1
pitchwheel channel=7 pitch=0 time=1
pitchwheel channel=7 pitch=0 time=1
pitchwheel channel=7 pitch=0 time=1
note_on channel=11 note=89 velocity=84 time=2
note_on channel=5 note=57 velocity=0 time=2
note_on channel=5 note=57 velocity=0 time=0
note_on channel=5 note=50 velocity=0 time=0
note_on channel=7 note=89 velocity=0 time=4
control_change channel=1 control=7 value=90 time=0
note_on channel=11 note=89 velocity=0 time=3
note_on channel=9 note=49 velocity=0 time=2
control_change channel=1 control=7 value=89 time=0
note_on channel=15 note=43 velocity=0 time=4
note_on channel=10 note=67 velocity=0 time=11
note_on channel=9 note=36 velocity=0 time=1
pitchwheel channel=11 pitch=-119 time=2
pitchwheel channel=11 pitch=-119 time=0
pitchwheel channel=11 pitch=-119 time=1
pitchwheel channel=11 pitch=-597 time=2
pitchwheel channel=11 pitch=-597 time=0
pitchwheel channel=11 pitch=-597 time=0
pitchwheel channel=11 pitch=-1074 time=3
pitchwheel channel=11 pitch=-1074 time=1
pitchwheel channel=11 pitch=-1074 time=0
pitchwheel channel=11 pitch=-1706 time=2
pitchwheel channel=11 pitch=-1706 time=0
pitchwheel channel=11 pitch=-1706 time=0
note_on channel=14 note=79 velocity=0 time=3
pitchwheel channel=11 pitch=-2346 time=0
pitchwheel channel=11 pitch=-2346 time=0
pitchwheel channel=11 pitch=-2346 time=0
note_on channel=9 note=44 velocity=0 time=1
note_on channel=2 note=74 velocity=0 time=0
note_on channel=2 note=67 velocity=0 time=0
note_on channel=2 note=79 velocity=0 time=0
note_on channel=3 note=67 velocity=127 time=0
note_on channel=8 note=67 velocity=127 time=0
note_on channel=9 note=44 velocity=100 time=0
pitchwheel channel=11 pitch=-2764 time=0
note_on channel=14 note=67 velocity=0 time=1
pitchwheel channel=11 pitch=-2764 time=0
pitchwheel channel=11 pitch=-2764 time=0
note_on channel=1 note=67 velocity=81 time=2
pitchwheel channel=11 pitch=-3122 time=0
pitchwheel channel=11 pitch=-3122 time=1
pitchwheel channel=11 pitch=-3122 time=0
pitchwheel channel=11 pitch=-3583 time=1
pitchwheel channel=11 pitch=-3583 time=1
pitchwheel channel=11 pitch=-3583 time=1
pitchwheel channel=11 pitch=-4215 time=5
pitchwheel channel=11 pitch=-4215 time=0
pitchwheel channel=11 pitch=-4215 time=0
pitchwheel channel=11 pitch=-4573 time=3
note_on channel=7 note=79 velocity=0 time=1
pitchwheel channel=11 pitch=-4573 time=0
pitchwheel channel=11 pitch=-4573 time=0
note_on channel=7 note=91 velocity=0 time=1
note_on channel=11 note=91 velocity=0 time=2
note_on channel=1 note=67 velocity=0 time=2
note_on channel=11 note=79 velocity=0 time=1
pitchwheel channel=11 pitch=-4096 time=2
pitchwheel channel=11 pitch=-4096 time=0
pitchwheel channel=11 pitch=-4096 time=1
pitchwheel channel=11 pitch=-3412 time=2
pitchwheel channel=11 pitch=-3412 time=0
pitchwheel channel=11 pitch=-3412 time=0
pitchwheel channel=11 pitch=-2346 time=2
pitchwheel channel=11 pitch=-2346 time=0
note_on channel=3 note=67 velocity=0 time=1
note_on channel=8 note=67 velocity=0 time=0
note_on channel=1 note=67 velocity=102 time=0
note_on channel=3 note=67 velocity=127 time=0
note_on channel=8 note=67 velocity=127 time=0
note_on channel=9 note=40 velocity=108 time=0
pitchwheel channel=11 pitch=-2346 time=0
note_on channel=6 note=67 velocity=0 time=1
pitchwheel channel=11 pitch=0 time=1
pitchwheel channel=11 pitch=0 time=1
pitchwheel channel=11 pitch=0 time=0
note_on channel=6 note=79 velocity=0 time=1
note_on channel=1 note=67 velocity=0 time=21
note_on channel=8 note=67 velocity=0 time=5
note_on channel=9 note=44 velocity=0 time=0
note_on channel=3 note=67 velocity=0 time=0
note_on channel=9 note=44 velocity=100 time=0
note_on channel=9 note=40 velocity=0 time=15
note_on channel=4 note=31 velocity=0 time=0
note_on channel=9 note=44 velocity=0 time=45
note_on channel=1 note=64 velocity=112 time=0
note_on channel=3 note=69 velocity=69 time=0
note_on channel=4 note=31 velocity=70 time=0
note_on channel=8 note=69 velocity=112 time=0
note_on channel=9 note=35 velocity=108 time=0
note_on channel=9 note=44 velocity=100 time=0
note_on channel=1 note=64 velocity=0 time=23
note_on channel=4 note=31 velocity=0 time=6
note_on channel=8 note=69 velocity=0 time=1
note_on channel=3 note=69 velocity=0 time=0
note_on channel=9 note=35 velocity=0 time=15
note_on channel=1 note=67 velocity=115 time=8
note_on channel=9 note=44 velocity=0 time=7
note_on channel=3 note=71 velocity=97 time=0
note_on channel=3 note=67 velocity=92 time=0
note_on channel=3 note=67 velocity=115 time=0
note_on channel=4 note=31 velocity=100 time=0
note_on channel=8 note=71 velocity=105 time=0
note_on channel=9 note=35 velocity=108 time=0
note_on channel=9 note=44 velocity=100 time=0
note_on channel=3 note=67 velocity=0 time=30
note_on channel=9 note=35 velocity=0 time=15
note_on channel=9 note=44 velocity=0 time=15
note_on channel=3 note=67 velocity=0 time=0
note_on channel=8 note=71 velocity=0 time=0
note_on channel=9 note=44 velocity=100 time=0
note_on channel=1 note=67 velocity=0 time=6
note_on channel=3 note=71 velocity=0 time=24
note_on channel=1 note=67 velocity=115 time=0
note_on channel=3 note=67 velocity=119 time=0
note_on channel=3 note=62 velocity=83 time=0
note_on channel=3 note=74 velocity=70 time=0
note_on channel=8 note=74 velocity=102 time=0
pitchwheel channel=7 pitch=-358 time=8
pitchwheel channel=7 pitch=-358 time=0
pitchwheel channel=7 pitch=-358 time=1
pitchwheel channel=7 pitch=-597 time=6
pitchwheel channel=7 pitch=-597 time=0
pitchwheel channel=7 pitch=-597 time=0
pitchwheel channel=7 pitch=-955 time=5
pitchwheel channel=7 pitch=-955 time=1
pitchwheel channel=7 pitch=-955 time=0
pitchwheel channel=7 pitch=-1706 time=5
pitchwheel channel=7 pitch=-1706 time=1
pitchwheel channel=7 pitch=-1706 time=0
note_on channel=3 note=62 velocity=0 time=3
note_on channel=3 note=67 velocity=0 time=0
note_on channel=9 note=44 velocity=0 time=0
note_on channel=9 note=40 velocity=108 time=0
note_on channel=9 note=44 velocity=100 time=0
pitchwheel channel=7 pitch=-2048 time=1
pitchwheel channel=7 pitch=-2048 time=1
pitchwheel channel=7 pitch=-2048 time=1
pitchwheel channel=7 pitch=-2346 time=2
pitchwheel channel=7 pitch=-2346 time=1
pitchwheel channel=7 pitch=-2346 time=0
pitchwheel channel=7 pitch=-2545 time=2
pitchwheel channel=7 pitch=-2545 time=0
pitchwheel channel=7 pitch=-2545 time=0
pitchwheel channel=7 pitch=-3122 time=5
pitchwheel channel=7 pitch=-3122 time=0
pitchwheel channel=7 pitch=-3122 time=0
pitchwheel channel=7 pitch=-3583 time=2
pitchwheel channel=7 pitch=-3583 time=0
pitchwheel channel=7 pitch=-3583 time=1
pitchwheel channel=7 pitch=-4096 time=5
pitchwheel channel=7 pitch=-4096 time=0
pitchwheel channel=7 pitch=-4096 time=1
note_on channel=1 note=67 velocity=0 time=2
pitchwheel channel=7 pitch=-4334 time=1
pitchwheel channel=7 pitch=-4334 time=0
pitchwheel channel=7 pitch=-4334 time=1
note_on channel=4 note=31 velocity=0 time=3
note_on channel=3 note=74 velocity=0 time=1
note_on channel=8 note=74 velocity=0 time=0
note_on channel=9 note=40 velocity=0 time=15
note_on channel=9 note=44 velocity=0 time=15
note_on channel=3 note=64 velocity=108 time=0
note_on channel=3 note=67 velocity=119 time=0
note_on channel=3 note=72 velocity=92 time=0
note_on channel=4 note=31 velocity=69 time=0
note_on channel=8 note=72 velocity=112 time=0
note_on channel=9 note=44 velocity=100 time=0
note_on channel=1 note=64 velocity=99 time=5
control_change channel=1 control=7 value=87 time=41
note_on channel=9 note=44 velocity=0 time=14
note_on channel=9 note=35 velocity=108 time=0
note_on channel=9 note=44 velocity=100 time=0
control_change channel=1 control=7 value=86 time=35
note_on channel=9 note=35 velocity=0 time=10
note_on channel=9 note=44 velocity=0 time=15
note_on channel=9 note=44 velocity=100 time=0
note_on channel=9 note=40 velocity=108 time=30
control_change channel=1 control=7 value=83 time=25
note_on channel=9 note=44 velocity=0 time=5
control_change channel=1 control=7 value=82 time=0
note_on channel=9 note=44 velocity=100 time=0
note_on channel=9 note=40 velocity=0 time=15
note_on channel=3 note=64 velocity=0 time=15
note_on channel=3 note=67 velocity=0 time=0
note_on channel=1 note=64 velocity=0 time=0
note_on channel=4 note=31 velocity=0 time=4
note_on channel=9 note=44 velocity=0 time=26
note_on channel=3 note=72 velocity=0 time=0
note_on channel=8 note=72 velocity=0 time=0
note_on channel=1 note=67 velocity=124 time=0
note_on channel=3 note=71 velocity=94 time=0
note_on channel=3 note=67 velocity=102 time=0
note_on channel=8 note=71 velocity=92 time=0
note_on channel=9 note=35 velocity=108 time=0
note_on channel=9 note=44 velocity=100 time=0
note_on channel=4 note=43 velocity=55 time=8
note_on channel=1 note=67 velocity=0 time=14
note_on channel=8 note=71 velocity=0 time=8
note_on channel=3 note=71 velocity=0 time=0
note_on channel=3 note=67 velocity=0 time=0
note_on channel=1 note=66 velocity=124 time=0
note_on channel=3 note=69 velocity=97 time=0
note_on channel=3 note=66 velocity=127 time=0
note_on channel=8 note=69 velocity=119 time=0
note_on channel=4 note=43 velocity=0 time=10
note_on channel=9 note=35 velocity=0 time=5
note_on channel=3 note=66 velocity=0 time=15
note_on channel=1 note=66 velocity=0 time=0
note_on channel=9 note=44 velocity=0 time=0
note_on channel=8 note=69 velocity=0 time=0
note_on channel=3 note=69 velocity=0 time=0
note_on channel=1 note=64 velocity=127 time=0
note_on channel=3 note=64 velocity=97 time=0
note_on channel=3 note=67 velocity=94 time=0
note_on channel=8 note=67 velocity=112 time=0
note_on channel=9 note=33 velocity=108 time=0
note_on channel=9 note=44 velocity=100 time=0
note_on channel=4 note=36 velocity=79 time=7
note_on channel=9 note=33 velocity=0 time=38
note_on channel=9 note=44 velocity=0 time=15
note_on channel=9 note=44 velocity=100 time=0
note_on channel=1 note=64 velocity=0 time=36
note_on channel=4 note=36 velocity=0 time=1
note_on channel=8 note=67 velocity=0 time=23
note_on channel=3 note=64 velocity=0 time=0
note_on channel=9 note=44 velocity=0 time=0
note_on channel=3 note=67 velocity=0 time=0
note_on channel=3 note=69 velocity=119 time=0
note_on channel=3 note=66 velocity=119 time=0
note_on channel=4 note=38 velocity=74 time=0
note_on channel=8 note=69 velocity=127 time=0
note_on channel=9 note=45 velocity=108 time=0
note_on channel=9 note=44 velocity=100 time=0
note_on channel=1 note=66 velocity=127 time=5
note_on channel=9 note=45 velocity=0 time=40
pitchwheel channel=7 pitch=-4693 time=10
pitchwheel channel=7 pitch=-4693 time=0
pitchwheel channel=7 pitch=-4693 time=0
note_on channel=9 note=44 velocity=0 time=5
note_on channel=9 note=44 velocity=100 time=0
note_on channel=4 note=38 velocity=0 time=24
note_on channel=3 note=66 velocity=0 time=6
note_on channel=1 note=66 velocity=0 time=10
note_on channel=7 note=79 velocity=102 time=19
note_on channel=7 note=91 velocity=115 time=0
note_on channel=3 note=69 velocity=0 time=1
note_on channel=8 note=69 velocity=0 time=0
note_on channel=9 note=44 velocity=0 time=0
note_on channel=2 note=79 velocity=102 time=0
note_on channel=4 note=31 velocity=69 time=0
note_on channel=9 note=36 velocity=108 time=0
note_on channel=9 note=44 velocity=100 time=0
note_on channel=6 note=67 velocity=63 time=2
note_on channel=9 note=49 velocity=99 time=0
note_on channel=6 note=79 velocity=81 time=1
note_on channel=10 note=79 velocity=127 time=0
note_on channel=2 note=74 velocity=90 time=2
note_on channel=11 note=91 velocity=69 time=1
note_on channel=11 note=79 velocity=68 time=2
pitchwheel channel=7 pitch=-4334 time=4
pitchwheel channel=7 pitch=-4334 time=0
pitchwheel channel=7 pitch=-4334 time=0
note_on channel=15 note=43 velocity=127 time=0
pitchwheel channel=7 pitch=-3925 time=3
pitchwheel channel=7 pitch=-3925 time=1
pitchwheel channel=7 pitch=-3925 time=0
pitchwheel channel=7 pitch=-3003 time=2
pitchwheel channel=7 pitch=-3003 time=0
note_on channel=11 note=89 velocity=84 time=0
pitchwheel channel=7 pitch=-3003 time=1
pitchwheel channel=7 pitch=0 time=1
pitchwheel channel=7 pitch=0 time=1
pitchwheel channel=7 pitch=0 time=0
note_on channel=9 note=49 velocity=0 time=2
note_on channel=11 note=89 velocity=0 time=4
note_on channel=9 note=36 velocity=0 time=18
pitchwheel channel=11 pitch=-119 time=2
pitchwheel channel=11 pitch=-119 time=0
pitchwheel channel=11 pitch=-119 time=1
pitchwheel channel=11 pitch=-597 time=2
pitchwheel channel=11 pitch=-597 time=0
pitchwheel channel=11 pitch=-597 time=0
pitchwheel channel=11 pitch=-1074 time=3
note_on channel=10 note=79 velocity=0 time=1
pitchwheel channel=11 pitch=-1074 time=0
pitchwheel channel=11 pitch=-1074 time=0
pitchwheel channel=11 pitch=-1706 time=2
pitchwheel channel=11 pitch=-1706 time=0
pitchwheel channel=11 pitch=-1706 time=0
pitchwheel channel=11 pitch=-597 time=1
pitchwheel channel=11 pitch=-597 time=1
pitchwheel channel=11 pitch=-597 time=0
note_on channel=2 note=79 velocity=0 time=1
pitchwheel channel=11 pitch=-2346 time=0
pitchwheel channel=11 pitch=-2346 time=0
pitchwheel channel=11 pitch=-2346 time=0
note_on channel=9 note=44 velocity=0 time=1
note_on channel=9 note=44 velocity=100 time=0
pitchwheel channel=11 pitch=-2764 time=0
pitchwheel channel=11 pitch=-1364 time=0
pitchwheel channel=11 pitch=-1364 time=0
pitchwheel channel=11 pitch=-1364 time=0
pitchwheel channel=11 pitch=-2764 time=1
pitchwheel channel=11 pitch=-2764 time=0
pitchwheel channel=11 pitch=-2247 time=1
pitchwheel channel=11 pitch=-2247 time=0
pitchwheel channel=11 pitch=-2247 time=0
pitchwheel channel=11 pitch=-3122 time=1
pitchwheel channel=11 pitch=-3122 time=1
pitchwheel channel=11 pitch=-3122 time=0
pitchwheel channel=11 pitch=-2645 time=0
pitchwheel channel=11 pitch=-3583 time=1
pitchwheel channel=11 pitch=-2645 time=0
note_on channel=2 note=74 velocity=0 time=1
pitchwheel channel=11 pitch=-3583 time=0
pitchwheel channel=11 pitch=-2645 time=0
pitchwheel channel=11 pitch=-3583 time=1
pitchwheel channel=11 pitch=-3242 time=0
pitchwheel channel=11 pitch=-3242 time=0
pitchwheel channel=11 pitch=-3242 time=1
pitchwheel channel=11 pitch=-3754 time=1
pitchwheel channel=11 pitch=-3754 time=1
pitchwheel channel=11 pitch=-3754 time=0
pitchwheel channel=11 pitch=-4215 time=2
pitchwheel channel=11 pitch=-4215 time=0
pitchwheel channel=11 pitch=-4215 time=0
pitchwheel channel=11 pitch=-4215 time=0
pitchwheel channel=11 pitch=-4215 time=1
pitchwheel channel=11 pitch=-4215 time=0
pitchwheel channel=11 pitch=-4573 time=2
pitchwheel channel=11 pitch=-4573 time=1
pitchwheel channel=11 pitch=-4573 time=0
pitchwheel channel=11 pitch=-4573 time=0
pitchwheel channel=11 pitch=-4573 time=0
pitchwheel channel=11 pitch=-4573 time=0
note_on channel=11 note=91 velocity=0 time=3
note_on channel=11 note=79 velocity=0 time=3
pitchwheel channel=11 pitch=-4096 time=2
pitchwheel channel=11 pitch=-4096 time=0
pitchwheel channel=11 pitch=-4096 time=1
pitchwheel channel=11 pitch=-3754 time=0
pitchwheel channel=11 pitch=-3754 time=1
pitchwheel channel=11 pitch=-3754 time=0
pitchwheel channel=11 pitch=-3412 time=1
pitchwheel channel=11 pitch=-3412 time=0
pitchwheel channel=11 pitch=-3412 time=0
pitchwheel channel=11 pitch=-1877 time=1
pitchwheel channel=11 pitch=-1877 time=0
pitchwheel channel=11 pitch=-1877 time=0
pitchwheel channel=11 pitch=-2346 time=1
pitchwheel channel=11 pitch=-2346 time=0
note_on channel=1 note=67 velocity=119 time=1
note_on channel=3 note=67 velocity=108 time=0
note_on channel=8 note=67 velocity=108 time=0
note_on channel=9 note=40 velocity=108 time=0
pitchwheel channel=11 pitch=-2346 time=0
pitchwheel channel=11 pitch=0 time=0
pitchwheel channel=11 pitch=0 time=1
pitchwheel channel=11 pitch=0 time=0
pitchwheel channel=11 pitch=0 time=1
pitchwheel channel=11 pitch=0 time=1
pitchwheel channel=11 pitch=0 time=0
note_on channel=6 note=67 velocity=0 time=2
note_on channel=15 note=43 velocity=0 time=3
note_on channel=6 note=79 velocity=0 time=1
note_on channel=7 note=91 velocity=0 time=5
note_on channel=1 note=67 velocity=0 time=1
note_on channel=4 note=31 velocity=0 time=2
note_on channel=7 note=79 velocity=0 time=2
note_on channel=9 note=44 velocity=0 time=11
note_on channel=8 note=67 velocity=0 time=0
note_on channel=3 note=67 velocity=0 time=0
note_on channel=1 note=67 velocity=112 time=0
note_on channel=3 note=67 velocity=108 time=0
note_on channel=8 note=67 velocity=88 time=0
note_on channel=9 note=44 velocity=100 time=0
note_on channel=9 note=40 velocity=0 time=15
note_on channel=1 note=67 velocity=0 time=10
note_on channel=8 note=67 velocity=0 time=5
note_on channel=3 note=67 velocity=0 time=0
note_on channel=4 note=31 velocity=38 time=15
note_on channel=9 note=44 velocity=0 time=15
note_on channel=1 note=64 velocity=127 time=0
note_on channel=3 note=69 velocity=97 time=0
note_on channel=8 note=69 velocity=102 time=0
note_on channel=9 note=35 velocity=108 time=0
note_on channel=9 note=44 velocity=100 time=0
note_on channel=1 note=64 velocity=0 time=18
note_on channel=4 note=31 velocity=0 time=5
note_on channel=8 note=69 velocity=0 time=7
note_on channel=3 note=69 velocity=0 time=0
note_on channel=9 note=35 velocity=0 time=15
note_on channel=1 note=67 velocity=127 time=11
note_on channel=9 note=44 velocity=0 time=4
note_on channel=3 note=71 velocity=97 time=0
note_on channel=3 note=67 velocity=119 time=0
note_on channel=4 note=31 velocity=84 time=0
note_on channel=8 note=71 velocity=115 time=0
note_on channel=9 note=35 velocity=108 time=0
note_on channel=9 note=44 velocity=100 time=0
note_on channel=9 note=35 velocity=0 time=45
note_on channel=1 note=67 velocity=0 time=7
note_on channel=3 note=67 velocity=0 time=8
note_on channel=3 note=71 velocity=0 time=0
note_on channel=8 note=71 velocity=0 time=0
note_on channel=9 note=44 velocity=0 time=0
note_on channel=9 note=44 velocity=100 time=0
note_on channel=1 note=67 velocity=127 time=30
note_on channel=3 note=67 velocity=119 time=0
note_on channel=3 note=74 velocity=100 time=0
note_on channel=8 note=74 velocity=112 time=0
note_on channel=3 note=74 velocity=0 time=30
note_on channel=3 note=67 velocity=0 time=0
note_on channel=9 note=44 velocity=0 time=0
note_on channel=9 note=40 velocity=108 time=0
note_on channel=9 note=44 velocity=100 time=0
note_on channel=1 note=67 velocity=0 time=3
note_on channel=4 note=31 velocity=0 time=16
pitchwheel channel=7 pitch=-238 time=9
pitchwheel channel=7 pitch=-238 time=1
pitchwheel channel=7 pitch=-238 time=0
note_on channel=8 note=74 velocity=0 time=1
pitchwheel channel=7 pitch=-597 time=10
pitchwheel channel=7 pitch=-597 time=1
pitchwheel channel=7 pitch=-597 time=0
note_on channel=9 note=40 velocity=0 time=4
pitchwheel channel=7 pitch=-955 time=0
pitchwheel channel=7 pitch=-955 time=0
pitchwheel channel=7 pitch=-955 time=0
pitchwheel channel=7 pitch=-1364 time=8
pitchwheel channel=7 pitch=-1364 time=0
pitchwheel channel=7 pitch=-1364 time=1
pitchwheel channel=7 pitch=-1706 time=5
pitchwheel channel=7 pitch=-1706 time=0
pitchwheel channel=7 pitch=-1706 time=0
note_on channel=9 note=44 velocity=0 time=1
note_on channel=1 note=69 velocity=127 time=0
note_on channel=1 note=65 velocity=127 time=0
note_on channel=3 note=72 velocity=94 time=0
note_on channel=3 note=69 velocity=102 time=0
note_on channel=4 note=31 velocity=84 time=0
note_on channel=8 note=72 velocity=127 time=0
note_on channel=9 note=44 velocity=100 time=0
pitchwheel channel=7 pitch=-2048 time=4
pitchwheel channel=7 pitch=-2048 time=0
pitchwheel channel=7 pitch=-2048 time=1
pitchwheel channel=7 pitch=-2446 time=5
pitchwheel channel=7 pitch=-2446 time=0
pitchwheel channel=7 pitch=-2446 time=0
pitchwheel channel=7 pitch=-2645 time=6
pitchwheel channel=7 pitch=-2645 time=0
pitchwheel channel=7 pitch=-2645 time=0
pitchwheel channel=7 pitch=-3003 time=8
pitchwheel channel=7 pitch=-3003 time=0
pitchwheel channel=7 pitch=-3003 time=0
pitchwheel channel=7 pitch=-3412 time=7
pitchwheel channel=7 pitch=-3412 time=1
pitchwheel channel=7 pitch=-3412 time=0
pitchwheel channel=7 pitch=-3754 time=13
pitchwheel channel=7 pitch=-3754 time=0
pitchwheel channel=7 pitch=-3754 time=0
note_on channel=9 note=44 velocity=0 time=15
pitchwheel channel=7 pitch=-4215 time=0
pitchwheel channel=7 pitch=-4215 time=0
pitchwheel channel=7 pitch=-4215 time=0
note_on channel=9 note=35 velocity=108 time=0
note_on channel=9 note=44 velocity=100 time=0
pitchwheel channel=7 pitch=-4454 time=11
pitchwheel channel=7 pitch=-4454 time=1
pitchwheel channel=7 pitch=-4454 time=0
note_on channel=9 note=35 velocity=0 time=33
note_on channel=9 note=44 velocity=0 time=15
note_on channel=9 note=44 velocity=100 time=0
note_on channel=9 note=40 velocity=108 time=30
note_on channel=9 note=44 velocity=0 time=30
note_on channel=9 note=44 velocity=100 time=0
note_on channel=9 note=40 velocity=0 time=15
note_on channel=4 note=31 velocity=0 time=12
note_on channel=8 note=72 velocity=0 time=13
note_on channel=3 note=69 velocity=0 time=0
note_on channel=3 note=72 velocity=0 time=0
note_on channel=1 note=69 velocity=0 time=0
note_on channel=1 note=65 velocity=0 time=0
note_on channel=9 note=44 velocity=0 time=20
note_on channel=1 note=65 velocity=127 time=0
note_on channel=3 note=65 velocity=49 time=0
note_on channel=3 note=69 velocity=127 time=0
note_on channel=4 note=31 velocity=83 time=0
note_on channel=8 note=69 velocity=75 time=0
note_on channel=9 note=35 velocity=108 time=0
note_on channel=9 note=44 velocity=100 time=0
note_on channel=1 note=65 velocity=0 time=28
note_on channel=8 note=69 velocity=0 time=2
note_on channel=3 note=65 velocity=0 time=0
note_on channel=3 note=69 velocity=0 time=0
note_on channel=1 note=62 velocity=124 time=0
note_on channel=3 note=62 velocity=112 time=0
note_on channel=3 note=65 velocity=63 time=0
note_on channel=8 note=65 velocity=112 time=0
note_on channel=9 note=35 velocity=0 time=15
note_on channel=4 note=31 velocity=0 time=1
note_on channel=1 note=60 velocity=127 time=12
note_on channel=9 note=44 velocity=0 time=2
note_on channel=3 note=65 velocity=0 time=0
note_on channel=3 note=62 velocity=0 time=0
note_on channel=1 note=62 velocity=0 time=0
note_on channel=8 note=65 velocity=0 time=0
note_on channel=3 note=60 velocity=124 time=0
note_on channel=3 note=57 velocity=124 time=0
note_on channel=8 note=60 velocity=105 time=0
note_on channel=9 note=33 velocity=108 time=0
note_on channel=9 note=44 velocity=100 time=0
note_on channel=4 note=36 velocity=81 time=1
note_on channel=9 note=33 velocity=0 time=44
note_on channel=9 note=44 velocity=0 time=15
note_on channel=9 note=44 velocity=100 time=0
note_on channel=3 note=57 velocity=0 time=30
note_on channel=4 note=36 velocity=0 time=10
note_on channel=1 note=60 velocity=0 time=14
note_on channel=1 note=62 velocity=112 time=1
note_on channel=4 note=38 velocity=97 time=3
note_on channel=3 note=60 velocity=0 time=2
note_on channel=8 note=60 velocity=0 time=0
note_on channel=9 note=44 velocity=0 time=0
note_on channel=3 note=57 velocity=124 time=0
note_on channel=3 note=62 velocity=99 time=0
note_on channel=8 note=62 velocity=108 time=0
note_on channel=9 note=45 velocity=108 time=0
note_on channel=9 note=44 velocity=100 time=0
pitchwheel channel=7 pitch=-4693 time=33
pitchwheel channel=7 pitch=-4693 time=0
pitchwheel channel=7 pitch=-4693 time=1
note_on channel=9 note=45 velocity=0 time=11
note_on channel=9 note=44 velocity=0 time=15
note_on channel=9 note=44 velocity=100 time=0
note_on channel=3 note=57 velocity=0 time=30
note_on channel=8 note=62 velocity=0 time=0
note_on channel=7 note=79 velocity=94 time=9
note_on channel=7 note=91 velocity=115 time=0
note_on channel=4 note=38 velocity=0 time=3
note_on channel=7 note=81 velocity=92 time=0
pitchwheel channel=7 pitch=-4215 time=12
pitchwheel channel=7 pitch=-4215 time=0
pitchwheel channel=7 pitch=-4215 time=1
note_on channel=6 note=67 velocity=62 time=1
pitchwheel channel=7 pitch=-2048 time=0
note_on channel=6 note=79 velocity=68 time=1
pitchwheel channel=7 pitch=-2048 time=0
pitchwheel channel=7 pitch=-2048 time=0
note_on channel=3 note=62 velocity=0 time=3
note_on channel=9 note=44 velocity=0 time=0
note_on channel=2 note=79 velocity=115 time=0
note_on channel=2 note=74 velocity=102 time=0
note_on channel=4 note=31 velocity=90 time=0
note_on channel=9 note=49 velocity=74 time=0
note_on channel=9 note=36 velocity=108 time=0
note_on channel=9 note=44 velocity=100 time=0
pitchwheel channel=7 pitch=546 time=1
pitchwheel channel=7 pitch=546 time=0
pitchwheel channel=7 pitch=546 time=0
note_on channel=15 note=43 velocity=127 time=0
pitchwheel channel=7 pitch=0 time=1
pitchwheel channel=7 pitch=0 time=0
note_on channel=10 note=79 velocity=127 time=0
pitchwheel channel=7 pitch=0 time=1
note_on channel=1 note=62 velocity=0 time=3
note_on channel=11 note=91 velocity=69 time=0
note_on channel=11 note=79 velocity=68 time=2
note_on channel=11 note=89 velocity=84 time=10
note_on channel=9 note=49 velocity=0 time=8
note_on channel=11 note=89 velocity=0 time=1
note_on channel=7 note=81 velocity=0 time=13
note_on channel=9 note=36 velocity=0 time=5
pitchwheel channel=11 pitch=-119 time=2
pitchwheel channel=11 pitch=-119 time=0
pitchwheel channel=11 pitch=-119 time=1
pitchwheel channel=11 pitch=-597 time=2
pitchwheel channel=11 pitch=-597 time=0
pitchwheel channel=11 pitch=-597 time=0
note_on channel=10 note=79 velocity=0 time=3
pitchwheel channel=11 pitch=-1074 time=0
pitchwheel channel=11 pitch=-1074 time=1
pitchwheel channel=11 pitch=-1074 time=0
pitchwheel channel=11 pitch=-1706 time=2
pitchwheel channel=11 pitch=-1706 time=0
pitchwheel channel=11 pitch=-1706 time=0
note_on channel=2 note=79 velocity=0 time=3
pitchwheel channel=11 pitch=-2346 time=0
pitchwheel channel=11 pitch=-2346 time=0
pitchwheel channel=11 pitch=-2346 time=0
note_on channel=9 note=44 velocity=0 time=1
note_on channel=9 note=44 velocity=100 time=0
pitchwheel channel=11 pitch=-2764 time=0
pitchwheel channel=11 pitch=-2764 time=1
pitchwheel channel=11 pitch=-2764 time=0
pitchwheel channel=11 pitch=-3122 time=2
pitchwheel channel=11 pitch=-3122 time=1
pitchwheel channel=11 pitch=-3122 time=0
note_on channel=2 note=74 velocity=0 time=1
pitchwheel channel=11 pitch=-3583 time=0
pitchwheel channel=11 pitch=-3583 time=1
note_on channel=6 note=79 velocity=0 time=1
note_on channel=7 note=91 velocity=0 time=0
pitchwheel channel=11 pitch=-3583 time=0
note_on channel=6 note=67 velocity=0 time=1
note_on channel=7 note=79 velocity=0 time=4
note_on channel=15 note=43 velocity=0 time=0
pitchwheel channel=11 pitch=-4215 time=0
pitchwheel channel=11 pitch=-4215 time=0
pitchwheel channel=11 pitch=-4215 time=0
pitchwheel channel=11 pitch=-4573 time=3
pitchwheel channel=11 pitch=-4573 time=1
pitchwheel channel=11 pitch=-4573 time=0
note_on channel=11 note=91 velocity=0 time=3
note_on channel=11 note=79 velocity=0 time=3
pitchwheel channel=11 pitch=-4096 time=2
pitchwheel channel=11 pitch=-4096 time=0
pitchwheel channel=11 pitch=-4096 time=1
pitchwheel channel=11 pitch=-3412 time=2
pitchwheel channel=11 pitch=-3412 time=0
pitchwheel channel=11 pitch=-3412 time=0
pitchwheel channel=11 pitch=-2346 time=2
pitchwheel channel=11 pitch=-2346 time=0
note_on channel=1 note=67 velocity=124 time=1
note_on channel=3 note=67 velocity=84 time=0
note_on channel=8 note=67 velocity=97 time=0
note_on channel=9 note=40 velocity=108 time=0
pitchwheel channel=11 pitch=-2346 time=0
pitchwheel channel=11 pitch=0 time=2
pitchwheel channel=11 pitch=0 time=1
pitchwheel channel=11 pitch=0 time=0
note_on channel=1 note=67 velocity=0 time=12
note_on channel=8 note=67 velocity=0 time=15
note_on channel=3 note=67 velocity=0 time=0
note_on channel=9 note=44 velocity=0 time=0
note_on channel=1 note=67 velocity=108 time=0
note_on channel=3 note=67 velocity=94 time=0
note_on channel=8 note=67 velocity=66 time=0
note_on channel=9 note=44 velocity=100 time=0
note_on channel=4 note=31 velocity=0 time=6
note_on channel=9 note=40 velocity=0 time=9
note_on channel=1 note=67 velocity=0 time=11
note_on channel=3 note=67 velocity=0 time=4
note_on channel=8 note=67 velocity=0 time=0
note_on channel=9 note=44 velocity=0 time=30
note_on channel=1 note=64 velocity=127 time=0
note_on channel=3 note=69 velocity=119 time=0
note_on channel=3 note=67 velocity=69 time=0
note_on channel=4 note=31 velocity=90 time=0
note_on channel=8 note=69 velocity=105 time=0
note_on channel=9 note=35 velocity=108 time=0
note_on channel=9 note=44 velocity=100 time=0
note_on channel=1 note=64 velocity=0 time=19
note_on channel=4 note=31 velocity=0 time=7
note_on channel=3 note=69 velocity=0 time=4
note_on channel=8 note=69 velocity=0 time=0
note_on channel=3 note=67 velocity=0 time=0
note_on channel=9 note=35 velocity=0 time=15
note_on channel=9 note=44 velocity=0 time=15
note_on channel=1 note=67 velocity=127 time=0
note_on channel=3 note=71 velocity=105 time=0
note_on channel=3 note=67 velocity=79 time=0
note_on channel=4 note=31 velocity=73 time=0
note_on channel=8 note=71 velocity=119 time=0
note_on channel=9 note=35 velocity=108 time=0
note_on channel=9 note=44 velocity=100 time=0
note_on channel=9 note=35 velocity=0 time=45
note_on channel=8 note=71 velocity=0 time=15
note_on channel=3 note=71 velocity=0 time=0
note_on channel=1 note=67 velocity=0 time=0
note_on channel=3 note=67 velocity=0 time=0
note_on channel=9 note=44 velocity=0 time=0
note_on channel=9 note=44 velocity=100 time=0
note_on channel=3 note=74 velocity=99 time=30
note_on channel=3 note=67 velocity=74 time=0
note_on channel=8 note=74 velocity=94 time=0
note_on channel=1 note=67 velocity=108 time=3
note_on channel=9 note=44 velocity=0 time=27
note_on channel=9 note=40 velocity=108 time=0
note_on channel=9 note=44 velocity=100 time=0
note_on channel=8 note=74 velocity=0 time=30
note_on channel=3 note=67 velocity=0 time=0
note_on channel=3 note=74 velocity=0 time=0
note_on channel=1 note=67 velocity=0 time=5
note_on channel=9 note=40 velocity=0 time=10
note_on channel=9 note=44 velocity=0 time=15
note_on channel=3 note=71 velocity=73 time=0
note_on channel=3 note=67 velocity=86 time=0
note_on channel=8 note=71 velocity=77 time=0
note_on channel=9 note=44 velocity=100 time=0
note_on channel=1 note=67 velocity=102 time=3
note_on channel=4 note=31 velocity=0 time=19
note_on channel=8 note=71 velocity=0 time=8
note_on channel=3 note=71 velocity=0 time=0
note_on channel=3 note=67 velocity=0 time=0
note_on channel=9 note=40 velocity=127 time=0
note_on channel=1 note=67 velocity=0 time=11
note_on channel=9 note=40 velocity=0 time=4
note_on channel=4 note=40 velocity=83 time=7
<meta message time_signature numerator=2 denominator=4 clocks_per_click=24 notated_32nd_notes_per_beat=8 time=8>
note_on channel=9 note=44 velocity=0 time=0
note_on channel=1 note=72 velocity=83 time=0
note_on channel=3 note=76 velocity=112 time=0
note_on channel=8 note=76 velocity=84 time=0
note_on channel=9 note=40 velocity=127 time=0
note_on channel=9 note=36 velocity=127 time=0
note_on channel=9 note=49 velocity=127 time=7
note_on channel=9 note=40 velocity=0 time=8
note_on channel=8 note=76 velocity=0 time=15
note_on channel=9 note=36 velocity=0 time=3
note_on channel=4 note=40 velocity=0 time=16
note_on channel=9 note=49 velocity=0 time=1
note_on channel=3 note=76 velocity=0 time=10
note_on channel=1 note=72 velocity=0 time=13
note_on channel=4 note=38 velocity=94 time=13
note_on channel=3 note=74 velocity=100 time=4
note_on channel=3 note=78 velocity=124 time=0
note_on channel=8 note=78 velocity=97 time=0
note_on channel=9 note=40 velocity=127 time=0
note_on channel=9 note=36 velocity=127 time=5
note_on channel=9 note=49 velocity=127 time=1
note_on channel=1 note=74 velocity=61 time=1
note_on channel=9 note=40 velocity=0 time=8
note_on channel=4 note=38 velocity=0 time=23
note_on channel=9 note=36 velocity=0 time=0
note_on channel=9 note=49 velocity=0 time=8
note_on channel=8 note=78 velocity=0 time=14
note_on channel=3 note=74 velocity=0 time=0
note_on channel=3 note=78 velocity=0 time=0
control_change channel=1 control=7 value=127 time=0
control_change channel=1 control=7 value=126 time=18
note_on channel=3 note=72 velocity=100 time=12
note_on channel=3 note=79 velocity=127 time=0
note_on channel=4 note=36 velocity=81 time=0
note_on channel=8 note=79 velocity=127 time=0
note_on channel=1 note=76 velocity=92 time=1
note_on channel=1 note=74 velocity=0 time=1
control_change channel=1 control=7 value=125 time=6
note_on channel=9 note=40 velocity=127 time=1
note_on channel=9 note=49 velocity=127 time=0
note_on channel=9 note=36 velocity=127 time=0
control_change channel=1 control=7 value=124 time=11
note_on channel=9 note=40 velocity=0 time=4
control_change channel=1 control=7 value=123 time=12
control_change channel=1 control=7 value=122 time=6
control_change channel=1 control=7 value=121 time=8
control_change channel=1 control=7 value=120 time=8
<meta message time_signature numerator=4 denominator=4 clocks_per_click=24 notated_32nd_notes_per_beat=8 time=2>
note_on channel=9 note=36 velocity=0 time=1
control_change channel=1 control=7 value=118 time=5
control_change channel=1 control=7 value=117 time=6
note_on channel=9 note=49 velocity=0 time=8
control_change channel=1 control=7 value=116 time=0
control_change channel=1 control=7 value=114 time=4
control_change channel=1 control=7 value=112 time=6
control_change channel=1 control=7 value=110 time=8
control_change channel=1 control=7 value=109 time=6
control_change channel=1 control=7 value=108 time=4
control_change channel=1 control=7 value=107 time=4
note_on channel=9 note=44 velocity=127 time=1
control_change channel=1 control=7 value=105 time=5
control_change channel=1 control=7 value=103 time=6
control_change channel=1 control=7 value=102 time=4
note_on channel=9 note=44 velocity=0 time=1
control_change channel=1 control=7 value=101 time=3
control_change channel=1 control=7 value=99 time=6
control_change channel=1 control=7 value=96 time=6
control_change channel=1 control=7 value=95 time=4
control_change channel=1 control=7 value=93 time=6
control_change channel=1 control=7 value=91 time=6
control_change channel=1 control=7 value=90 time=2
control_change channel=1 control=7 value=89 time=2
control_change channel=1 control=7 value=88 time=4
control_change channel=1 control=7 value=87 time=4
control_change channel=1 control=7 value=86 time=4
note_on channel=9 note=44 velocity=97 time=1
control_change channel=1 control=7 value=84 time=3
note_on channel=1 note=59 velocity=100 time=0
note_on channel=9 note=40 velocity=127 time=0
control_change channel=1 control=7 value=83 time=4
control_change channel=1 control=7 value=82 time=2
control_change channel=1 control=7 value=80 time=2
control_change channel=1 control=7 value=80 time=2
note_on channel=9 note=44 velocity=0 time=9
control_change channel=1 control=7 value=81 time=1
control_change channel=1 control=7 value=83 time=8
note_on channel=3 note=72 velocity=0 time=6
control_change channel=1 control=7 value=85 time=0
note_on channel=8 note=79 velocity=0 time=3
note_on channel=1 note=76 velocity=0 time=4
control_change channel=1 control=7 value=87 time=1
note_on channel=3 note=79 velocity=0 time=3
control_change channel=1 control=7 value=89 time=5
control_change channel=1 control=7 value=91 time=6
note_on channel=9 note=40 velocity=0 time=4
note_on channel=9 note=44 velocity=97 time=0
control_change channel=1 control=7 value=93 time=8
note_on channel=10 note=78 velocity=46 time=0
note_on channel=5 note=78 velocity=89 time=3
note_on channel=4 note=36 velocity=0 time=4
note_on channel=9 note=44 velocity=0 time=3
control_change channel=1 control=7 value=96 time=0
control_change channel=1 control=7 value=100 time=10
note_on channel=5 note=79 velocity=82 time=1
note_on channel=5 note=78 velocity=0 time=7
control_change channel=1 control=7 value=105 time=0
note_on channel=10 note=79 velocity=65 time=4
note_on channel=10 note=81 velocity=62 time=1
control_change channel=1 control=7 value=110 time=3
note_on channel=10 note=78 velocity=0 time=2
control_change channel=1 control=7 value=114 time=6
note_on channel=10 note=81 velocity=0 time=4
control_change channel=1 control=7 value=118 time=0
note_on channel=4 note=37 velocity=99 time=0
control_change channel=1 control=7 value=120 time=2
note_on channel=1 note=59 velocity=0 time=2
note_on channel=1 note=71 velocity=127 time=0
note_on channel=9 note=44 velocity=102 time=0
note_on channel=9 note=36 velocity=127 time=0
note_on channel=5 note=81 velocity=75 time=1
control_change channel=1 control=7 value=123 time=1
note_on channel=5 note=79 velocity=0 time=2
control_change channel=1 control=7 value=125 time=2
note_on channel=10 note=81 velocity=81 time=1
control_change channel=1 control=7 value=127 time=3
note_on channel=9 note=44 velocity=0 time=9
control_change channel=1 control=7 value=83 time=5
note_on channel=10 note=79 velocity=0 time=14
note_on channel=9 note=36 velocity=0 time=22
control_change channel=1 control=7 value=84 time=3
note_on channel=9 note=44 velocity=84 time=0
note_on channel=9 note=44 velocity=0 time=18
note_on channel=5 note=81 velocity=0 time=29
note_on channel=10 note=81 velocity=0 time=4
note_on channel=1 note=71 velocity=0 time=2
note_on channel=5 note=76 velocity=72 time=4
note_on channel=9 note=46 velocity=127 time=0
note_on channel=9 note=40 velocity=127 time=0
note_on channel=1 note=69 velocity=97 time=1
note_on channel=10 note=76 velocity=94 time=3
control_change channel=1 control=7 value=85 time=5
note_on channel=9 note=46 velocity=0 time=10
control_change channel=1 control=7 value=87 time=5
control_change channel=1 control=7 value=88 time=10
note_on channel=9 note=40 velocity=0 time=26
note_on channel=9 note=44 velocity=86 time=4
note_on channel=9 note=44 velocity=0 time=18
note_on channel=4 note=37 velocity=0 time=18
control_change channel=1 control=7 value=91 time=0
note_on channel=1 note=69 velocity=0 time=8
note_on channel=4 note=38 velocity=83 time=11
note_on channel=10 note=78 velocity=97 time=0
note_on channel=9 note=35 velocity=105 time=1
note_on channel=9 note=44 velocity=127 time=0
note_on channel=5 note=78 velocity=94 time=1
note_on channel=1 note=66 velocity=127 time=1
note_on channel=10 note=76 velocity=0 time=4
note_on channel=5 note=76 velocity=0 time=3
note_on channel=9 note=44 velocity=0 time=7
note_on channel=9 note=35 velocity=0 time=1
note_on channel=9 note=44 velocity=99 time=45
control_change channel=1 control=7 value=92 time=5
note_on channel=1 note=64 velocity=49 time=10
note_on channel=1 note=66 velocity=0 time=3
note_on channel=9 note=44 velocity=0 time=1
note_on channel=1 note=57 velocity=88 time=3
control_change channel=1 control=7 value=94 time=10
note_on channel=1 note=64 velocity=0 time=7
note_on channel=1 note=62 velocity=124 time=7
note_on channel=1 note=57 velocity=0 time=12
note_on channel=9 note=40 velocity=105 time=0
note_on channel=9 note=44 velocity=115 time=1
note_on channel=1 note=62 velocity=94 time=2
note_on channel=9 note=40 velocity=0 time=14
note_on channel=9 note=44 velocity=0 time=2
control_change channel=1 control=7 value=95 time=15
note_on channel=9 note=44 velocity=102 time=24
note_on channel=5 note=78 velocity=0 time=3
note_on channel=10 note=78 velocity=0 time=5
control_change channel=1 control=7 value=96 time=4
note_on channel=5 note=76 velocity=45 time=0
note_on channel=9 note=44 velocity=0 time=4
control_change channel=1 control=7 value=98 time=0
note_on channel=10 note=76 velocity=70 time=5
note_on channel=1 note=62 velocity=0 time=19
note_on channel=5 note=78 velocity=56 time=2
note_on channel=10 note=78 velocity=72 time=3
note_on channel=5 note=76 velocity=0 time=6
note_on channel=10 note=76 velocity=0 time=5
note_on channel=1 note=69 velocity=97 time=0
note_on channel=9 note=44 velocity=127 time=3
note_on channel=4 note=38 velocity=0 time=2
note_on channel=4 note=35 velocity=77 time=1
note_on channel=9 note=35 velocity=105 time=0
note_on channel=10 note=79 velocity=99 time=5
note_on channel=5 note=79 velocity=94 time=1
note_on channel=1 note=62 velocity=0 time=3
note_on channel=5 note=78 velocity=0 time=3
note_on channel=10 note=78 velocity=0 time=0
note_on channel=9 note=44 velocity=0 time=2
note_on channel=9 note=35 velocity=0 time=3
note_on channel=9 note=44 velocity=99 time=38
note_on channel=9 note=44 velocity=0 time=18
note_on channel=1 note=69 velocity=0 time=31
note_on channel=1 note=67 velocity=83 time=8
note_on channel=5 note=79 velocity=0 time=1
note_on channel=10 note=79 velocity=0 time=7
note_on channel=9 note=40 velocity=105 time=0
note_on channel=9 note=46 velocity=127 time=0
note_on channel=5 note=74 velocity=64 time=3
note_on channel=10 note=74 velocity=102 time=6
note_on channel=9 note=46 velocity=0 time=8
note_on channel=9 note=40 velocity=0 time=0
pitchwheel channel=7 pitch=-358 time=39
pitchwheel channel=7 pitch=-358 time=1
pitchwheel channel=7 pitch=-358 time=0
note_on channel=9 note=44 velocity=102 time=2
pitchwheel channel=7 pitch=-716 time=5
pitchwheel channel=7 pitch=-716 time=0
pitchwheel channel=7 pitch=-716 time=0
pitchwheel channel=7 pitch=-1074 time=5
pitchwheel channel=7 pitch=-1074 time=1
pitchwheel channel=7 pitch=-1074 time=0
pitchwheel channel=7 pitch=-1535 time=5
pitchwheel channel=7 pitch=-1535 time=0
pitchwheel channel=7 pitch=-1535 time=1
note_on channel=9 note=44 velocity=0 time=1
pitchwheel channel=7 pitch=-1877 time=3
pitchwheel channel=7 pitch=-1877 time=1
pitchwheel channel=7 pitch=-1877 time=0
pitchwheel channel=7 pitch=-2147 time=7
pitchwheel channel=7 pitch=-2147 time=1
pitchwheel channel=7 pitch=-2147 time=0
pitchwheel channel=7 pitch=-2446 time=7
pitchwheel channel=7 pitch=-2446 time=0
pitchwheel channel=7 pitch=-2446 time=1
pitchwheel channel=7 pitch=-2645 time=7
note_on channel=5 note=74 velocity=0 time=1
pitchwheel channel=7 pitch=-2645 time=0
pitchwheel channel=7 pitch=-2645 time=0
note_on channel=5 note=76 velocity=58 time=3
pitchwheel channel=7 pitch=-3003 time=5
pitchwheel channel=7 pitch=-3003 time=0
pitchwheel channel=7 pitch=-3003 time=0
note_on channel=10 note=74 velocity=0 time=2
note_on channel=10 note=76 velocity=102 time=1
note_on channel=1 note=67 velocity=0 time=1
note_on channel=4 note=36 velocity=83 time=0
note_on channel=1 note=64 velocity=108 time=2
note_on channel=9 note=35 velocity=105 time=1
note_on channel=9 note=44 velocity=127 time=4
note_on channel=4 note=35 velocity=0 time=1
pitchwheel channel=7 pitch=-3412 time=1
pitchwheel channel=7 pitch=-3412 time=0
pitchwheel channel=7 pitch=-3412 time=0
note_on channel=9 note=35 velocity=0 time=11
pitchwheel channel=7 pitch=-3754 time=2
pitchwheel channel=7 pitch=-3754 time=1
pitchwheel channel=7 pitch=-3754 time=0
note_on channel=9 note=44 velocity=0 time=1
pitchwheel channel=7 pitch=-4215 time=12
pitchwheel channel=7 pitch=-4215 time=0
pitchwheel channel=7 pitch=-4215 time=0
note_on channel=9 note=44 velocity=92 time=26
note_on channel=9 note=44 velocity=0 time=18
note_on channel=1 note=62 velocity=66 time=6
note_on channel=1 note=64 velocity=0 time=9
note_on channel=1 note=57 velocity=83 time=2
note_on channel=1 note=57 velocity=0 time=20
note_on channel=1 note=60 velocity=102 time=1
note_on channel=1 note=60 velocity=112 time=4
note_on channel=9 note=44 velocity=108 time=0
note_on channel=9 note=40 velocity=105 time=1
note_on channel=1 note=62 velocity=0 time=4
note_on channel=9 note=40 velocity=0 time=13
note_on channel=9 note=44 velocity=0 time=0
note_on channel=5 note=76 velocity=0 time=39
note_on channel=9 note=44 velocity=94 time=1
note_on channel=10 note=76 velocity=0 time=13
note_on channel=5 note=74 velocity=47 time=2
note_on channel=9 note=44 velocity=0 time=1
note_on channel=10 note=74 velocity=69 time=7
note_on channel=5 note=76 velocity=78 time=15
note_on channel=5 note=74 velocity=0 time=8
note_on channel=10 note=76 velocity=75 time=0
note_on channel=1 note=60 velocity=0 time=5
note_on channel=10 note=74 velocity=0 time=2
note_on channel=1 note=60 velocity=0 time=3
note_on channel=9 note=44 velocity=124 time=4
note_on channel=5 note=77 velocity=72 time=1
note_on channel=1 note=67 velocity=90 time=2
note_on channel=4 note=33 velocity=84 time=0
note_on channel=9 note=35 velocity=105 time=0
note_on channel=4 note=36 velocity=0 time=3
note_on channel=5 note=76 velocity=0 time=2
note_on channel=10 note=77 velocity=119 time=0
note_on channel=10 note=76 velocity=0 time=7
note_on channel=9 note=35 velocity=0 time=5
note_on channel=9 note=44 velocity=0 time=0
note_on channel=9 note=44 velocity=99 time=40
note_on channel=9 note=44 velocity=0 time=17
note_on channel=10 note=77 velocity=0 time=22
note_on channel=10 note=72 velocity=88 time=22
note_on channel=5 note=77 velocity=0 time=1
note_on channel=9 note=46 velocity=127 time=1
note_on channel=9 note=40 velocity=105 time=0
note_on channel=1 note=65 velocity=102 time=2
note_on channel=1 note=67 velocity=0 time=2
note_on channel=5 note=72 velocity=62 time=1
note_on channel=9 note=46 velocity=0 time=11
note_on channel=9 note=40 velocity=0 time=1
note_on channel=9 note=44 velocity=102 time=41
note_on channel=9 note=44 velocity=0 time=17
note_on channel=1 note=65 velocity=0 time=42
note_on channel=1 note=62 velocity=70 time=3
note_on channel=4 note=34 velocity=119 time=0
note_on channel=5 note=74 velocity=78 time=0
note_on channel=9 note=36 velocity=119 time=0
note_on channel=10 note=74 velocity=108 time=0
note_on channel=10 note=72 velocity=0 time=5
note_on channel=9 note=44 velocity=127 time=0
note_on channel=5 note=72 velocity=0 time=1
note_on channel=4 note=33 velocity=0 time=4
note_on channel=9 note=36 velocity=0 time=5
note_on channel=9 note=44 velocity=0 time=4
note_on channel=9 note=44 velocity=102 time=38
note_on channel=10 note=74 velocity=0 time=10
note_on channel=10 note=72 velocity=68 time=5
note_on channel=5 note=74 velocity=0 time=1
note_on channel=9 note=44 velocity=0 time=2
note_on channel=1 note=62 velocity=0 time=1
note_on channel=5 note=72 velocity=43 time=4
note_on channel=9 note=44 velocity=119 time=10
note_on channel=10 note=74 velocity=55 time=5
note_on channel=5 note=74 velocity=54 time=6
note_on channel=9 note=44 velocity=0 time=4
note_on channel=10 note=72 velocity=0 time=1
note_on channel=5 note=72 velocity=0 time=4
note_on channel=1 note=61 velocity=70 time=8
note_on channel=10 note=76 velocity=102 time=0
note_on channel=5 note=76 velocity=75 time=2
note_on channel=9 note=40 velocity=119 time=0
note_on channel=9 note=44 velocity=127 time=0
note_on channel=4 note=34 velocity=0 time=4
note_on channel=10 note=74 velocity=0 time=2
note_on channel=5 note=74 velocity=0 time=2
note_on channel=9 note=40 velocity=0 time=7
note_on channel=4 note=33 velocity=79 time=0
note_on channel=9 note=44 velocity=0 time=3
note_on channel=10 note=76 velocity=0 time=42
note_on channel=9 note=44 velocity=108 time=1
note_on channel=5 note=76 velocity=0 time=3
note_on channel=10 note=74 velocity=77 time=5
note_on channel=5 note=74 velocity=33 time=4
note_on channel=9 note=44 velocity=0 time=5
note_on channel=1 note=61 velocity=0 time=2
note_on channel=9 note=44 velocity=119 time=10
note_on channel=10 note=76 velocity=105 time=6
note_on channel=5 note=76 velocity=72 time=5
note_on channel=10 note=74 velocity=0 time=3
note_on channel=9 note=44 velocity=0 time=1
note_on channel=5 note=74 velocity=0 time=8
note_on channel=1 note=60 velocity=69 time=0
note_on channel=9 note=36 velocity=119 time=7
note_on channel=10 note=77 velocity=99 time=0
note_on channel=9 note=44 velocity=119 time=4
note_on channel=5 note=77 velocity=75 time=6
note_on channel=4 note=38 velocity=90 time=1
note_on channel=10 note=76 velocity=0 time=1
note_on channel=4 note=33 velocity=0 time=0
note_on channel=9 note=36 velocity=0 time=3
note_on channel=5 note=76 velocity=0 time=2
note_on channel=9 note=44 velocity=0 time=2
note_on channel=9 note=44 velocity=112 time=43
note_on channel=10 note=77 velocity=0 time=3
note_on channel=5 note=77 velocity=0 time=4
note_on channel=10 note=76 velocity=78 time=3
note_on channel=5 note=76 velocity=51 time=5
note_on channel=9 note=44 velocity=0 time=2
note_on channel=1 note=60 velocity=0 time=2
note_on channel=9 note=44 velocity=119 time=9
note_on channel=10 note=77 velocity=70 time=6
note_on channel=5 note=77 velocity=60 time=5
note_on channel=9 note=44 velocity=0 time=4
note_on channel=10 note=76 velocity=0 time=1
note_on channel=5 note=76 velocity=0 time=2
note_on channel=4 note=38 velocity=0 time=8
note_on channel=1 note=58 velocity=70 time=1
note_on channel=4 note=31 velocity=97 time=2
note_on channel=9 note=40 velocity=119 time=1
note_on channel=10 note=79 velocity=119 time=1
note_on channel=9 note=44 velocity=127 time=2
note_on channel=5 note=79 velocity=56 time=2
note_on channel=10 note=77 velocity=0 time=4
note_on channel=9 note=40 velocity=0 time=6
note_on channel=5 note=77 velocity=0 time=1
note_on channel=9 note=44 velocity=0 time=4
note_on channel=10 note=79 velocity=0 time=37
note_on channel=9 note=44 velocity=115 time=5
note_on channel=10 note=77 velocity=63 time=5
note_on channel=1 note=58 velocity=0 time=6
note_on channel=9 note=44 velocity=0 time=4
note_on channel=5 note=79 velocity=0 time=2
note_on channel=5 note=76 velocity=32 time=2
note_on channel=9 note=44 velocity=119 time=9
note_on channel=5 note=77 velocity=1 time=3
note_on channel=10 note=79 velocity=41 time=0
note_on channel=10 note=77 velocity=0 time=4
note_on channel=5 note=76 velocity=0 time=5
note_on channel=9 note=44 velocity=0 time=3
note_on channel=4 note=31 velocity=0 time=9
note_on channel=10 note=81 velocity=112 time=1
note_on channel=5 note=81 velocity=49 time=4
note_on channel=9 note=44 velocity=127 time=1
note_on channel=9 note=36 velocity=127 time=0
note_on channel=9 note=49 velocity=127 time=0
note_on channel=5 note=79 velocity=43 time=1
note_on channel=4 note=33 velocity=90 time=3
note_on channel=10 note=79 velocity=0 time=1
note_on channel=5 note=77 velocity=0 time=0
note_on channel=1 note=57 velocity=69 time=0
note_on channel=5 note=79 velocity=0 time=12
note_on channel=9 note=49 velocity=0 time=2
note_on channel=9 note=36 velocity=0 time=0
note_on channel=9 note=44 velocity=0 time=4
note_on channel=9 note=44 velocity=127 time=41
note_on channel=9 note=44 velocity=0 time=23
note_on channel=9 note=40 velocity=127 time=33
note_on channel=9 note=46 velocity=127 time=0
note_on channel=9 note=46 velocity=0 time=41
note_on channel=9 note=40 velocity=0 time=0
note_on channel=5 note=81 velocity=0 time=1
note_on channel=3 note=69 velocity=108 time=18
note_on channel=9 note=44 velocity=105 time=0
note_on channel=5 note=81 velocity=51 time=15
note_on channel=9 note=44 velocity=0 time=8
note_on channel=4 note=33 velocity=0 time=3
note_on channel=3 note=69 velocity=0 time=4
note_on channel=3 note=71 velocity=97 time=0
note_on channel=1 note=57 velocity=0 time=1
note_on channel=5 note=83 velocity=54 time=0
note_on channel=5 note=81 velocity=0 time=14
control_change channel=1 control=7 value=99 time=0
control_change channel=1 control=7 value=102 time=10
note_on channel=5 note=84 velocity=82 time=0
note_on channel=3 note=71 velocity=0 time=5
note_on channel=3 note=72 velocity=127 time=0
note_on channel=9 note=36 velocity=127 time=0
note_on channel=9 note=49 velocity=127 time=1
note_on channel=5 note=83 velocity=0 time=2
note_on channel=4 note=33 velocity=83 time=1
control_change channel=1 control=7 value=103 time=5
note_on channel=9 note=36 velocity=0 time=32
note_on channel=9 note=49 velocity=0 time=1
note_on channel=9 note=44 velocity=119 time=14
note_on channel=9 note=44 velocity=0 time=27
note_on channel=3 note=72 velocity=0 time=7
note_on channel=5 note=84 velocity=0 time=17
note_on channel=10 note=81 velocity=0 time=8
note_on channel=4 note=36 velocity=57 time=4
note_on channel=3 note=74 velocity=127 time=1
note_on channel=9 note=36 velocity=127 time=0
note_on channel=4 note=33 velocity=0 time=2
note_on channel=5 note=86 velocity=39 time=0
note_on channel=9 note=49 velocity=127 time=3
note_on channel=9 note=49 velocity=0 time=34
note_on channel=9 note=36 velocity=0 time=2
note_on channel=9 note=44 velocity=108 time=17
control_change channel=1 control=7 value=102 time=5
control_change channel=1 control=7 value=101 time=5
control_change channel=1 control=7 value=100 time=7
note_on channel=4 note=36 velocity=0 time=8
note_on channel=9 note=44 velocity=0 time=1
control_change channel=1 control=7 value=98 time=5
note_on channel=3 note=74 velocity=0 time=1
note_on channel=5 note=86 velocity=0 time=7
note_on channel=7 note=91 velocity=99 time=10
note_on channel=7 note=79 velocity=94 time=1
pitchwheel channel=7 pitch=-3754 time=5
pitchwheel channel=7 pitch=-3754 time=0
pitchwheel channel=7 pitch=-3754 time=0
note_on channel=5 note=79 velocity=49 time=2
pitchwheel channel=7 pitch=-3412 time=0
note_on channel=15 note=43 velocity=127 time=0
pitchwheel channel=7 pitch=-3412 time=1
pitchwheel channel=7 pitch=-3412 time=0
note_on channel=4 note=31 velocity=97 time=1
note_on channel=5 note=91 velocity=49 time=1
pitchwheel channel=7 pitch=-2645 time=0
pitchwheel channel=7 pitch=-2645 time=0
pitchwheel channel=7 pitch=-2645 time=0
note_on channel=1 note=55 velocity=119 time=2
note_on channel=3 note=79 velocity=127 time=0
note_on channel=6 note=67 velocity=65 time=0
note_on channel=9 note=36 velocity=127 time=0
note_on channel=9 note=36 velocity=108 time=0
note_on channel=9 note=44 velocity=100 time=0
pitchwheel channel=7 pitch=0 time=1
pitchwheel channel=7 pitch=0 time=0
pitchwheel channel=7 pitch=0 time=0
note_on channel=2 note=74 velocity=127 time=3
note_on channel=10 note=79 velocity=127 time=2
note_on channel=11 note=91 velocity=69 time=0
note_on channel=2 note=79 velocity=112 time=1
note_on channel=6 note=79 velocity=70 time=0
note_on channel=9 note=49 velocity=127 time=0
control_change channel=1 control=7 value=97 time=1
note_on channel=11 note=79 velocity=68 time=0
note_on channel=14 note=67 velocity=102 time=0
note_on channel=14 note=79 velocity=127 time=2
control_change channel=1 control=7 value=94 time=8
note_on channel=11 note=89 velocity=84 time=0
note_on channel=10 note=79 velocity=0 time=3
note_on channel=11 note=89 velocity=0 time=6
note_on channel=9 note=36 velocity=0 time=14
note_on channel=5 note=91 velocity=0 time=2
note_on channel=9 note=49 velocity=0 time=0
note_on channel=9 note=36 velocity=0 time=2
note_on channel=5 note=79 velocity=0 time=0
control_change channel=1 control=7 value=93 time=0
pitchwheel channel=11 pitch=-119 time=2
pitchwheel channel=11 pitch=-119 time=0
pitchwheel channel=11 pitch=-119 time=1
pitchwheel channel=11 pitch=-597 time=2
pitchwheel channel=11 pitch=-597 time=0
pitchwheel channel=11 pitch=-597 time=0
note_on channel=2 note=79 velocity=0 time=3
control_change channel=1 control=7 value=91 time=0
pitchwheel channel=11 pitch=-1074 time=0
note_on channel=1 note=55 velocity=0 time=1
pitchwheel channel=11 pitch=-1074 time=0
pitchwheel channel=11 pitch=-1074 time=0
pitchwheel channel=11 pitch=-1706 time=2
pitchwheel channel=11 pitch=-1706 time=0
pitchwheel channel=11 pitch=-1706 time=0
pitchwheel channel=11 pitch=-2346 time=3
pitchwheel channel=11 pitch=-2346 time=0
pitchwheel channel=11 pitch=-2346 time=0
note_on channel=3 note=79 velocity=0 time=1
note_on channel=14 note=79 velocity=0 time=0
note_on channel=2 note=74 velocity=0 time=0
note_on channel=9 note=44 velocity=0 time=0
note_on channel=9 note=44 velocity=100 time=0
pitchwheel channel=11 pitch=-2764 time=0
pitchwheel channel=11 pitch=-2764 time=1
pitchwheel channel=11 pitch=-2764 time=0
note_on channel=15 note=43 velocity=0 time=1
pitchwheel channel=11 pitch=-3122 time=1
pitchwheel channel=11 pitch=-3122 time=1
pitchwheel channel=11 pitch=-3122 time=0
note_on channel=14 note=67 velocity=0 time=1
pitchwheel channel=11 pitch=-3583 time=0
pitchwheel channel=11 pitch=-3583 time=1
pitchwheel channel=11 pitch=-3583 time=1
pitchwheel channel=11 pitch=-4215 time=5
pitchwheel channel=11 pitch=-4215 time=0
pitchwheel channel=11 pitch=-4215 time=0
pitchwheel channel=11 pitch=-4573 time=3
pitchwheel channel=11 pitch=-4573 time=1
pitchwheel channel=11 pitch=-4573 time=0
note_on channel=11 note=79 velocity=0 time=6
note_on channel=1 note=67 velocity=124 time=1
note_on channel=7 note=91 velocity=0 time=1
pitchwheel channel=11 pitch=-4096 time=0
pitchwheel channel=11 pitch=-4096 time=0
pitchwheel channel=11 pitch=-4096 time=1
pitchwheel channel=11 pitch=-3412 time=2
pitchwheel channel=11 pitch=-3412 time=0
pitchwheel channel=11 pitch=-3412 time=0
pitchwheel channel=11 pitch=-2346 time=2
pitchwheel channel=11 pitch=-2346 time=0
note_on channel=3 note=67 velocity=94 time=1
note_on channel=3 note=62 velocity=90 time=0
note_on channel=8 note=67 velocity=53 time=0
note_on channel=9 note=40 velocity=108 time=0
pitchwheel channel=11 pitch=-2346 time=0
note_on channel=7 note=79 velocity=0 time=2
pitchwheel channel=11 pitch=0 time=0
pitchwheel channel=11 pitch=0 time=1
pitchwheel channel=11 pitch=0 time=0
note_on channel=11 note=91 velocity=0 time=4
note_on channel=1 note=67 velocity=0 time=0
note_on channel=6 note=79 velocity=0 time=0
note_on channel=6 note=67 velocity=0 time=4
note_on channel=1 note=67 velocity=127 time=17
note_on channel=3 note=62 velocity=0 time=2
note_on channel=3 note=67 velocity=0 time=0
note_on channel=8 note=67 velocity=0 time=0
note_on channel=9 note=44 velocity=0 time=0
note_on channel=3 note=67 velocity=66 time=0
note_on channel=3 note=62 velocity=73 time=0
note_on channel=8 note=67 velocity=64 time=0
note_on channel=9 note=44 velocity=100 time=0
note_on channel=4 note=31 velocity=0 time=9
note_on channel=9 note=40 velocity=0 time=6
note_on channel=1 note=67 velocity=0 time=12
note_on channel=3 note=62 velocity=0 time=3
note_on channel=3 note=67 velocity=0 time=0
note_on channel=8 note=67 velocity=0 time=0
note_on channel=1 note=64 velocity=102 time=28
note_on channel=9 note=44 velocity=0 time=2
note_on channel=3 note=62 velocity=92 time=0
note_on channel=3 note=69 velocity=97 time=0
note_on channel=8 note=69 velocity=77 time=0
note_on channel=8 note=67 velocity=84 time=0
note_on channel=9 note=35 velocity=108 time=0
note_on channel=9 note=44 velocity=100 time=0
note_on channel=4 note=31 velocity=94 time=3
note_on channel=4 note=31 velocity=0 time=19
note_on channel=1 note=64 velocity=0 time=6
note_on channel=3 note=62 velocity=0 time=2
note_on channel=8 note=67 velocity=0 time=0
note_on channel=8 note=69 velocity=0 time=0
note_on channel=3 note=69 velocity=0 time=0
note_on channel=9 note=35 velocity=0 time=15
note_on channel=9 note=44 velocity=0 time=15
note_on channel=3 note=62 velocity=78 time=0
note_on channel=3 note=71 velocity=97 time=0
note_on channel=8 note=67 velocity=81 time=0
note_on channel=8 note=71 velocity=92 time=0
note_on channel=9 note=35 velocity=108 time=0
note_on channel=9 note=44 velocity=100 time=0
note_on channel=1 note=67 velocity=127 time=2
pitchwheel channel=7 pitch=-119 time=0
pitchwheel channel=7 pitch=-119 time=1
pitchwheel channel=7 pitch=-119 time=0
note_on channel=4 note=31 velocity=94 time=2
pitchwheel channel=7 pitch=-597 time=7
pitchwheel channel=7 pitch=-597 time=1
pitchwheel channel=7 pitch=-597 time=0
pitchwheel channel=7 pitch=-835 time=14
pitchwheel channel=7 pitch=-835 time=0
pitchwheel channel=7 pitch=-835 time=0
pitchwheel channel=7 pitch=-1194 time=10
pitchwheel channel=7 pitch=-1194 time=0
pitchwheel channel=7 pitch=-1194 time=0
note_on channel=9 note=35 velocity=0 time=8
control_change channel=1 control=7 value=90 time=0
pitchwheel channel=7 pitch=-1706 time=0
pitchwheel channel=7 pitch=-1706 time=0
pitchwheel channel=7 pitch=-1706 time=0
control_change channel=1 control=7 value=89 time=7
pitchwheel channel=7 pitch=-1877 time=0
pitchwheel channel=7 pitch=-1877 time=1
pitchwheel channel=7 pitch=-1877 time=0
control_change channel=1 control=7 value=87 time=5
note_on channel=8 note=67 velocity=0 time=2
note_on channel=9 note=44 velocity=0 time=0
note_on channel=9 note=44 velocity=100 time=0
pitchwheel channel=7 pitch=-2346 time=2
pitchwheel channel=7 pitch=-2346 time=0
control_change channel=1 control=7 value=86 time=1
pitchwheel channel=7 pitch=-2346 time=0
pitchwheel channel=7 pitch=-2545 time=4
pitchwheel channel=7 pitch=-2545 time=0
pitchwheel channel=7 pitch=-2545 time=0
note_on channel=1 note=67 velocity=0 time=3
pitchwheel channel=7 pitch=-2883 time=2
pitchwheel channel=7 pitch=-2883 time=0
pitchwheel channel=7 pitch=-2883 time=0
pitchwheel channel=7 pitch=-3242 time=5
pitchwheel channel=7 pitch=-3242 time=1
pitchwheel channel=7 pitch=-3242 time=0
pitchwheel channel=7 pitch=-3583 time=4
pitchwheel channel=7 pitch=-3583 time=1
pitchwheel channel=7 pitch=-3583 time=0
note_on channel=3 note=62 velocity=0 time=7
note_on channel=8 note=71 velocity=0 time=0
note_on channel=3 note=71 velocity=0 time=0
note_on channel=1 note=67 velocity=127 time=0
note_on channel=3 note=62 velocity=81 time=0
note_on channel=3 note=74 velocity=81 time=0
note_on channel=8 note=67 velocity=79 time=0
note_on channel=8 note=74 velocity=79 time=0
pitchwheel channel=7 pitch=-4096 time=1
pitchwheel channel=7 pitch=-4096 time=0
pitchwheel channel=7 pitch=-4096 time=0
pitchwheel channel=7 pitch=-4334 time=8
pitchwheel channel=7 pitch=-4334 time=0
pitchwheel channel=7 pitch=-4334 time=0
pitchwheel channel=7 pitch=-4693 time=18
pitchwheel channel=7 pitch=-4693 time=1
pitchwheel channel=7 pitch=-4693 time=0
note_on channel=9 note=44 velocity=0 time=2
note_on channel=9 note=40 velocity=108 time=0
note_on channel=9 note=44 velocity=100 time=0
note_on channel=1 note=67 velocity=0 time=23
note_on channel=4 note=31 velocity=0 time=3
note_on channel=3 note=62 velocity=0 time=4
note_on channel=8 note=67 velocity=0 time=0
note_on channel=3 note=74 velocity=0 time=0
note_on channel=8 note=74 velocity=0 time=0
note_on channel=9 note=40 velocity=0 time=15
note_on channel=1 note=64 velocity=124 time=11
note_on channel=9 note=44 velocity=0 time=4
note_on channel=3 note=72 velocity=84 time=0
note_on channel=3 note=64 velocity=94 time=0
note_on channel=8 note=64 velocity=86 time=0
note_on channel=8 note=72 velocity=99 time=0
note_on channel=9 note=44 velocity=100 time=0
note_on channel=9 note=44 velocity=0 time=60
note_on channel=9 note=35 velocity=108 time=0
note_on channel=9 note=44 velocity=100 time=0
note_on channel=4 note=31 velocity=97 time=4
note_on channel=9 note=35 velocity=0 time=41
note_on channel=9 note=44 velocity=0 time=15
note_on channel=9 note=44 velocity=100 time=0
note_on channel=9 note=40 velocity=108 time=30
note_on channel=9 note=44 velocity=0 time=30
note_on channel=8 note=72 velocity=0 time=0
note_on channel=9 note=44 velocity=100 time=0
note_on channel=9 note=40 velocity=0 time=15
note_on channel=1 note=64 velocity=0 time=11
note_on channel=3 note=64 velocity=0 time=4
note_on channel=8 note=64 velocity=0 time=0
note_on channel=3 note=72 velocity=0 time=0
note_on channel=4 note=31 velocity=0 time=12
note_on channel=9 note=44 velocity=0 time=18
note_on channel=1 note=67 velocity=127 time=0
note_on channel=3 note=71 velocity=66 time=0
note_on channel=3 note=64 velocity=70 time=0
note_on channel=8 note=67 velocity=33 time=0
note_on channel=8 note=71 velocity=39 time=0
note_on channel=9 note=35 velocity=108 time=0
note_on channel=9 note=44 velocity=100 time=0
note_on channel=4 note=31 velocity=102 time=10
note_on channel=8 note=71 velocity=0 time=20
note_on channel=8 note=67 velocity=0 time=0
note_on channel=3 note=64 velocity=0 time=0
note_on channel=3 note=71 velocity=0 time=0
note_on channel=3 note=69 velocity=102 time=0
note_on channel=3 note=62 velocity=119 time=0
note_on channel=8 note=69 velocity=92 time=0
note_on channel=8 note=64 velocity=66 time=0
note_on channel=1 note=66 velocity=127 time=5
note_on channel=1 note=67 velocity=0 time=1
note_on channel=9 note=35 velocity=0 time=9
note_on channel=4 note=31 velocity=0 time=5
note_on channel=1 note=66 velocity=0 time=9
note_on channel=3 note=62 velocity=0 time=1
note_on channel=3 note=69 velocity=0 time=0
note_on channel=9 note=44 velocity=0 time=0
note_on channel=8 note=64 velocity=0 time=0
note_on channel=8 note=69 velocity=0 time=0
note_on channel=1 note=64 velocity=102 time=0
note_on channel=3 note=67 velocity=83 time=0
note_on channel=3 note=60 velocity=83 time=0
note_on channel=8 note=60 velocity=94 time=0
note_on channel=8 note=67 velocity=81 time=0
note_on channel=9 note=33 velocity=108 time=0
note_on channel=9 note=44 velocity=100 time=0
note_on channel=4 note=36 velocity=127 time=15
note_on channel=9 note=33 velocity=0 time=30
note_on channel=9 note=44 velocity=0 time=15
note_on channel=9 note=44 velocity=100 time=0
note_on channel=3 note=67 velocity=0 time=30
note_on channel=8 note=60 velocity=0 time=0
note_on channel=3 note=60 velocity=0 time=30
note_on channel=8 note=67 velocity=0 time=0
note_on channel=9 note=44 velocity=0 time=0
note_on channel=1 note=66 velocity=127 time=0
note_on channel=3 note=69 velocity=102 time=0
note_on channel=3 note=62 velocity=84 time=0
note_on channel=8 note=69 velocity=56 time=0
note_on channel=8 note=62 velocity=65 time=0
note_on channel=9 note=45 velocity=127 time=0
note_on channel=9 note=44 velocity=100 time=0
note_on channel=1 note=64 velocity=0 time=5
note_on channel=4 note=36 velocity=0 time=5
note_on channel=4 note=38 velocity=94 time=5
note_on channel=9 note=45 velocity=0 time=30
note_on channel=9 note=44 velocity=0 time=15
note_on channel=9 note=44 velocity=100 time=0
note_on channel=3 note=69 velocity=0 time=30
note_on channel=7 note=91 velocity=102 time=16
note_on channel=1 note=66 velocity=0 time=1
note_on channel=7 note=79 velocity=99 time=0
pitchwheel channel=7 pitch=-4334 time=5
pitchwheel channel=7 pitch=-4334 time=0
pitchwheel channel=7 pitch=-4334 time=0
note_on channel=4 note=38 velocity=0 time=6
note_on channel=15 note=43 velocity=127 time=0
note_on channel=8 note=62 velocity=0 time=2
note_on channel=3 note=62 velocity=0 time=0
note_on channel=8 note=69 velocity=0 time=0
note_on channel=9 note=44 velocity=0 time=0
note_on channel=2 note=74 velocity=100 time=0
note_on channel=2 note=79 velocity=100 time=0
note_on channel=4 note=31 velocity=115 time=0
note_on channel=6 note=67 velocity=72 time=0
note_on channel=6 note=79 velocity=86 time=0
note_on channel=9 note=36 velocity=108 time=0
note_on channel=9 note=44 velocity=100 time=0
note_on channel=9 note=49 velocity=127 time=0
pitchwheel channel=7 pitch=-3754 time=2
pitchwheel channel=7 pitch=-3754 time=0
pitchwheel channel=7 pitch=-3754 time=0
pitchwheel channel=7 pitch=-3412 time=0
pitchwheel channel=7 pitch=-3412 time=1
pitchwheel channel=7 pitch=-3412 time=1
note_on channel=9 note=49 velocity=75 time=2
note_on channel=11 note=91 velocity=69 time=0
pitchwheel channel=7 pitch=-477 time=2
pitchwheel channel=7 pitch=-477 time=0
pitchwheel channel=7 pitch=-477 time=0
note_on channel=11 note=79 velocity=68 time=0
note_on channel=14 note=67 velocity=127 time=0
note_on channel=14 note=79 velocity=127 time=0
pitchwheel channel=7 pitch=0 time=1
pitchwheel channel=7 pitch=0 time=1
pitchwheel channel=7 pitch=0 time=1
pitchwheel channel=7 pitch=-238 time=1
pitchwheel channel=7 pitch=-238 time=0
pitchwheel channel=7 pitch=-238 time=0
pitchwheel channel=7 pitch=0 time=2
pitchwheel channel=7 pitch=0 time=0
pitchwheel channel=7 pitch=0 time=0
note_on channel=11 note=89 velocity=84 time=4
note_on channel=9 note=49 velocity=0 time=5
note_on channel=11 note=89 velocity=0 time=4
note_on channel=9 note=49 velocity=0 time=7
note_on channel=9 note=36 velocity=0 time=11
pitchwheel channel=11 pitch=-119 time=2
pitchwheel channel=11 pitch=-119 time=0
pitchwheel channel=11 pitch=-119 time=1
pitchwheel channel=11 pitch=-597 time=2
pitchwheel channel=11 pitch=-597 time=0
pitchwheel channel=11 pitch=-597 time=0
pitchwheel channel=11 pitch=-1074 time=3
note_on channel=15 note=43 velocity=0 time=1
pitchwheel channel=11 pitch=-1074 time=0
pitchwheel channel=11 pitch=-1074 time=0
pitchwheel channel=11 pitch=-1706 time=2
pitchwheel channel=11 pitch=-1706 time=0
pitchwheel channel=11 pitch=-1706 time=0
note_on channel=14 note=67 velocity=0 time=2
pitchwheel channel=11 pitch=-2346 time=1
pitchwheel channel=11 pitch=-2346 time=0
pitchwheel channel=11 pitch=-2346 time=0
note_on channel=2 note=79 velocity=0 time=1
note_on channel=2 note=74 velocity=0 time=0
note_on channel=9 note=44 velocity=0 time=0
note_on channel=9 note=44 velocity=100 time=0
pitchwheel channel=11 pitch=-2764 time=0
note_on channel=14 note=79 velocity=0 time=1
note_on channel=6 note=79 velocity=0 time=0
pitchwheel channel=11 pitch=-2764 time=0
pitchwheel channel=11 pitch=-2764 time=0
pitchwheel channel=11 pitch=-3122 time=2
pitchwheel channel=11 pitch=-3122 time=1
pitchwheel channel=11 pitch=-3122 time=0
pitchwheel channel=11 pitch=-3583 time=1
note_on channel=6 note=67 velocity=0 time=1
pitchwheel channel=11 pitch=-3583 time=0
pitchwheel channel=11 pitch=-3583 time=1
pitchwheel channel=11 pitch=-4215 time=5
pitchwheel channel=11 pitch=-4215 time=0
pitchwheel channel=11 pitch=-4215 time=0
pitchwheel channel=11 pitch=-4573 time=3
pitchwheel channel=11 pitch=-4573 time=1
pitchwheel channel=11 pitch=-4573 time=0
note_on channel=11 note=91 velocity=0 time=3
note_on channel=11 note=79 velocity=0 time=3
pitchwheel channel=11 pitch=-4096 time=2
pitchwheel channel=11 pitch=-4096 time=0
pitchwheel channel=11 pitch=-4096 time=1
pitchwheel channel=11 pitch=-3412 time=2
pitchwheel channel=11 pitch=-3412 time=0
pitchwheel channel=11 pitch=-3412 time=0
note_on channel=1 note=67 velocity=119 time=1
pitchwheel channel=11 pitch=-2346 time=1
pitchwheel channel=11 pitch=-2346 time=0
note_on channel=3 note=67 velocity=102 time=1
note_on channel=3 note=62 velocity=84 time=0
note_on channel=8 note=67 velocity=83 time=0
note_on channel=9 note=40 velocity=108 time=0
pitchwheel channel=11 pitch=-2346 time=0
pitchwheel channel=11 pitch=0 time=2
pitchwheel channel=11 pitch=0 time=1
pitchwheel channel=11 pitch=0 time=0
note_on channel=7 note=91 velocity=0 time=7
note_on channel=1 note=67 velocity=0 time=1
note_on channel=4 note=31 velocity=0 time=1
note_on channel=7 note=79 velocity=0 time=3
note_on channel=1 note=67 velocity=108 time=13
note_on channel=3 note=67 velocity=0 time=2
note_on channel=9 note=44 velocity=0 time=0
note_on channel=8 note=67 velocity=0 time=0
note_on channel=3 note=62 velocity=0 time=0
note_on channel=3 note=67 velocity=69 time=0
note_on channel=3 note=62 velocity=73 time=0
note_on channel=8 note=67 velocity=68 time=0
note_on channel=9 note=44 velocity=100 time=0
note_on channel=9 note=40 velocity=0 time=15
note_on channel=8 note=67 velocity=0 time=15
note_on channel=3 note=62 velocity=0 time=0
note_on channel=3 note=67 velocity=0 time=0
note_on channel=1 note=67 velocity=0 time=4
note_on channel=9 note=44 velocity=0 time=26
note_on channel=3 note=69 velocity=99 time=0
note_on channel=3 note=62 velocity=81 time=0
note_on channel=8 note=69 velocity=86 time=0
note_on channel=8 note=67 velocity=90 time=0
note_on channel=9 note=35 velocity=108 time=0
note_on channel=9 note=44 velocity=100 time=0
note_on channel=1 note=64 velocity=127 time=7
note_on channel=4 note=31 velocity=112 time=0
note_on channel=4 note=31 velocity=0 time=21
note_on channel=3 note=69 velocity=0 time=2
note_on channel=8 note=67 velocity=0 time=0
note_on channel=8 note=69 velocity=0 time=0
note_on channel=3 note=62 velocity=0 time=0
note_on channel=1 note=64 velocity=0 time=6
note_on channel=9 note=35 velocity=0 time=9
note_on channel=9 note=44 velocity=0 time=15
note_on channel=3 note=62 velocity=84 time=0
note_on channel=3 note=71 velocity=92 time=0
note_on channel=8 note=71 velocity=94 time=0
note_on channel=8 note=67 velocity=86 time=0
note_on channel=9 note=35 velocity=108 time=0
note_on channel=9 note=44 velocity=100 time=0
note_on channel=1 note=67 velocity=127 time=1
note_on channel=4 note=31 velocity=119 time=8
pitchwheel channel=7 pitch=-358 time=10
pitchwheel channel=7 pitch=-358 time=0
pitchwheel channel=7 pitch=-358 time=0
pitchwheel channel=7 pitch=-597 time=8
pitchwheel channel=7 pitch=-597 time=0
pitchwheel channel=7 pitch=-597 time=0
pitchwheel channel=7 pitch=-955 time=7
pitchwheel channel=7 pitch=-955 time=1
pitchwheel channel=7 pitch=-955 time=0
note_on channel=9 note=35 velocity=0 time=10
pitchwheel channel=7 pitch=-1364 time=0
pitchwheel channel=7 pitch=-1364 time=0
pitchwheel channel=7 pitch=-1364 time=1
pitchwheel channel=7 pitch=-1706 time=8
pitchwheel channel=7 pitch=-1706 time=0
pitchwheel channel=7 pitch=-1706 time=0
note_on channel=8 note=67 velocity=0 time=6
note_on channel=3 note=62 velocity=0 time=0
note_on channel=3 note=71 velocity=0 time=0
note_on channel=8 note=71 velocity=0 time=0
note_on channel=9 note=44 velocity=0 time=0
note_on channel=9 note=44 velocity=100 time=0
note_on channel=1 note=67 velocity=0 time=1
pitchwheel channel=7 pitch=-2048 time=4
pitchwheel channel=7 pitch=-2048 time=0
pitchwheel channel=7 pitch=-2048 time=1
pitchwheel channel=7 pitch=-2346 time=3
pitchwheel channel=7 pitch=-2346 time=1
pitchwheel channel=7 pitch=-2346 time=0
pitchwheel channel=7 pitch=-2645 time=7
pitchwheel channel=7 pitch=-2645 time=1
pitchwheel channel=7 pitch=-2645 time=0
pitchwheel channel=7 pitch=-3003 time=7
pitchwheel channel=7 pitch=-3003 time=1
pitchwheel channel=7 pitch=-3003 time=0
note_on channel=1 note=71 velocity=127 time=4
note_on channel=3 note=62 velocity=88 time=0
note_on channel=3 note=72 velocity=37 time=0
note_on channel=3 note=74 velocity=75 time=0
note_on channel=8 note=67 velocity=94 time=0
note_on channel=8 note=74 velocity=68 time=0
pitchwheel channel=7 pitch=-3412 time=7
pitchwheel channel=7 pitch=-3412 time=1
pitchwheel channel=7 pitch=-3412 time=0
pitchwheel channel=7 pitch=-3925 time=9
pitchwheel channel=7 pitch=-3925 time=1
pitchwheel channel=7 pitch=-3925 time=0
note_on channel=8 note=74 velocity=0 time=12
note_on channel=8 note=67 velocity=0 time=0
note_on channel=3 note=72 velocity=0 time=0
note_on channel=9 note=44 velocity=0 time=0
note_on channel=1 note=71 velocity=0 time=0
note_on channel=3 note=62 velocity=0 time=0
note_on channel=3 note=74 velocity=0 time=0
note_on channel=9 note=40 velocity=108 time=0
note_on channel=9 note=44 velocity=100 time=0
pitchwheel channel=7 pitch=-4334 time=11
pitchwheel channel=7 pitch=-4334 time=0
pitchwheel channel=7 pitch=-4334 time=1
pitchwheel channel=7 pitch=-4573 time=21
pitchwheel channel=7 pitch=-4573 time=0
pitchwheel channel=7 pitch=-4573 time=0
note_on channel=4 note=31 velocity=0 time=2
note_on channel=9 note=40 velocity=0 time=10
note_on channel=9 note=44 velocity=0 time=15
note_on channel=3 note=65 velocity=102 time=0
note_on channel=3 note=77 velocity=102 time=0
note_on channel=8 note=77 velocity=97 time=0
note_on channel=8 note=69 velocity=105 time=0
note_on channel=9 note=44 velocity=100 time=0
note_on channel=1 note=69 velocity=127 time=7
note_on channel=9 note=44 velocity=0 time=53
note_on channel=4 note=31 velocity=127 time=0
note_on channel=9 note=35 velocity=108 time=0
note_on channel=9 note=44 velocity=100 time=0
note_on channel=9 note=35 velocity=0 time=45
note_on channel=9 note=44 velocity=0 time=15
note_on channel=9 note=44 velocity=100 time=0
note_on channel=9 note=40 velocity=108 time=30
note_on channel=4 note=31 velocity=0 time=26
note_on channel=9 note=44 velocity=0 time=4
note_on channel=9 note=44 velocity=100 time=0
note_on channel=9 note=40 velocity=0 time=15
note_on channel=8 note=77 velocity=0 time=15
note_on channel=3 note=65 velocity=0 time=0
note_on channel=8 note=69 velocity=0 time=30
note_on channel=3 note=77 velocity=0 time=0
note_on channel=9 note=44 velocity=0 time=0
note_on channel=1 note=69 velocity=102 time=0
note_on channel=3 note=76 velocity=102 time=0
note_on channel=3 note=64 velocity=102 time=0
note_on channel=4 note=31 velocity=119 time=0
note_on channel=8 note=67 velocity=102 time=0
note_on channel=8 note=76 velocity=102 time=0
note_on channel=9 note=35 velocity=108 time=0
note_on channel=9 note=44 velocity=100 time=0
note_on channel=1 note=69 velocity=0 time=5
note_on channel=3 note=64 velocity=0 time=25
note_on channel=1 note=69 velocity=0 time=0
note_on channel=8 note=67 velocity=0 time=0
note_on channel=3 note=76 velocity=0 time=0
note_on channel=8 note=76 velocity=0 time=0
note_on channel=1 note=67 velocity=102 time=0
note_on channel=3 note=74 velocity=94 time=0
note_on channel=3 note=62 velocity=102 time=0
note_on channel=8 note=64 velocity=102 time=0
note_on channel=8 note=74 velocity=90 time=0
note_on channel=9 note=35 velocity=0 time=15
note_on channel=4 note=31 velocity=0 time=11
note_on channel=8 note=64 velocity=0 time=4
note_on channel=3 note=62 velocity=0 time=0
note_on channel=1 note=67 velocity=0 time=0
note_on channel=3 note=74 velocity=0 time=0
note_on channel=9 note=44 velocity=0 time=0
note_on channel=8 note=74 velocity=0 time=0
note_on channel=1 note=69 velocity=127 time=0
note_on channel=3 note=72 velocity=99 time=0
note_on channel=3 note=60 velocity=79 time=0
note_on channel=8 note=60 velocity=108 time=0
note_on channel=8 note=72 velocity=127 time=0
note_on channel=9 note=33 velocity=108 time=0
note_on channel=9 note=44 velocity=100 time=0
note_on channel=4 note=36 velocity=119 time=16
note_on channel=9 note=33 velocity=0 time=29
note_on channel=9 note=44 velocity=0 time=15
note_on channel=9 note=44 velocity=100 time=0
pitchwheel channel=7 pitch=-4792 time=27
note_on channel=1 note=69 velocity=0 time=1
pitchwheel channel=7 pitch=-4792 time=0
pitchwheel channel=7 pitch=-4792 time=0
note_on channel=3 note=60 velocity=0 time=32
note_on channel=8 note=72 velocity=0 time=0
note_on channel=8 note=60 velocity=0 time=0
note_on channel=3 note=72 velocity=0 time=0
note_on channel=9 note=44 velocity=0 time=0
note_on channel=1 note=67 velocity=119 time=0
note_on channel=3 note=74 velocity=97 time=0
note_on channel=3 note=62 velocity=105 time=0
note_on channel=4 note=38 velocity=102 time=0
note_on channel=8 note=62 velocity=81 time=0
note_on channel=8 note=74 velocity=108 time=0
note_on channel=9 note=45 velocity=127 time=0
note_on channel=9 note=44 velocity=100 time=0
note_on channel=4 note=36 velocity=0 time=2
note_on channel=9 note=45 velocity=0 time=43
note_on channel=9 note=44 velocity=0 time=15
note_on channel=9 note=44 velocity=100 time=0
note_on channel=1 note=67 velocity=0 time=34
note_on channel=4 note=38 velocity=0 time=5
note_on channel=7 note=91 velocity=108 time=12
note_on channel=7 note=79 velocity=86 time=1
note_on channel=14 note=79 velocity=119 time=2
note_on channel=14 note=67 velocity=124 time=0
note_on channel=9 note=49 velocity=102 time=4
note_on channel=3 note=74 velocity=0 time=2
note_on channel=8 note=74 velocity=0 time=0
note_on channel=3 note=62 velocity=0 time=0
note_on channel=8 note=62 velocity=0 time=0
note_on channel=9 note=44 velocity=0 time=0
note_on channel=2 note=74 velocity=100 time=0
note_on channel=2 note=79 velocity=100 time=0
note_on channel=9 note=36 velocity=108 time=0
note_on channel=9 note=44 velocity=100 time=0
note_on channel=15 note=43 velocity=127 time=2
note_on channel=6 note=67 velocity=77 time=2
note_on channel=6 note=79 velocity=77 time=0
note_on channel=9 note=49 velocity=64 time=2
note_on channel=11 note=91 velocity=69 time=0
note_on channel=4 note=31 velocity=108 time=2
note_on channel=11 note=79 velocity=68 time=0
note_on channel=11 note=89 velocity=84 time=10
pitchwheel channel=7 pitch=-4334 time=2
pitchwheel channel=7 pitch=-4334 time=0
pitchwheel channel=7 pitch=-4334 time=0
pitchwheel channel=7 pitch=-4096 time=3
pitchwheel channel=7 pitch=-4096 time=0
pitchwheel channel=7 pitch=-4096 time=1
pitchwheel channel=7 pitch=-3583 time=1
pitchwheel channel=7 pitch=-3583 time=1
pitchwheel channel=7 pitch=-3583 time=0
note_on channel=11 note=89 velocity=0 time=1
note_on channel=9 note=49 velocity=0 time=0
pitchwheel channel=7 pitch=-835 time=0
pitchwheel channel=7 pitch=-835 time=1
pitchwheel channel=7 pitch=-835 time=0
pitchwheel channel=7 pitch=0 time=2
pitchwheel channel=7 pitch=0 time=1
pitchwheel channel=7 pitch=0 time=0
pitchwheel channel=7 pitch=-358 time=2
pitchwheel channel=7 pitch=-358 time=0
pitchwheel channel=7 pitch=-358 time=0
note_on channel=9 note=49 velocity=0 time=1
pitchwheel channel=7 pitch=0 time=2
pitchwheel channel=7 pitch=0 time=0
pitchwheel channel=7 pitch=0 time=0
note_on channel=9 note=36 velocity=0 time=9
note_on channel=14 note=67 velocity=0 time=1
note_on channel=6 note=67 velocity=0 time=1
note_on channel=6 note=79 velocity=0 time=0
pitchwheel channel=11 pitch=-119 time=0
pitchwheel channel=11 pitch=-119 time=0
pitchwheel channel=11 pitch=-119 time=1
note_on channel=14 note=79 velocity=0 time=2
pitchwheel channel=11 pitch=-597 time=0
pitchwheel channel=11 pitch=-597 time=0
pitchwheel channel=11 pitch=-597 time=0
pitchwheel channel=11 pitch=-1074 time=3
pitchwheel channel=11 pitch=-1074 time=1
pitchwheel channel=11 pitch=-1074 time=0
pitchwheel channel=11 pitch=-1706 time=2
pitchwheel channel=11 pitch=-1706 time=0
pitchwheel channel=11 pitch=-1706 time=0
pitchwheel channel=11 pitch=-2346 time=3
pitchwheel channel=11 pitch=-2346 time=0
pitchwheel channel=11 pitch=-2346 time=0
note_on channel=9 note=44 velocity=0 time=1
note_on channel=2 note=79 velocity=0 time=0
note_on channel=2 note=74 velocity=0 time=0
note_on channel=9 note=44 velocity=100 time=0
pitchwheel channel=11 pitch=-2764 time=0
pitchwheel channel=11 pitch=-2764 time=1
pitchwheel channel=11 pitch=-2764 time=0
pitchwheel channel=11 pitch=-3122 time=2
pitchwheel channel=11 pitch=-3122 time=1
pitchwheel channel=11 pitch=-3122 time=0
pitchwheel channel=11 pitch=-3583 time=1
pitchwheel channel=11 pitch=-3583 time=1
pitchwheel channel=11 pitch=-3583 time=1
pitchwheel channel=11 pitch=-4215 time=5
pitchwheel channel=11 pitch=-4215 time=0
pitchwheel channel=11 pitch=-4215 time=0
pitchwheel channel=11 pitch=-4573 time=3
pitchwheel channel=11 pitch=-4573 time=1
pitchwheel channel=11 pitch=-4573 time=0
note_on channel=15 note=43 velocity=0 time=2
note_on channel=11 note=91 velocity=0 time=1
note_on channel=11 note=79 velocity=0 time=3
pitchwheel channel=11 pitch=-4096 time=2
pitchwheel channel=11 pitch=-4096 time=0
pitchwheel channel=11 pitch=-4096 time=1
pitchwheel channel=11 pitch=-3412 time=2
pitchwheel channel=11 pitch=-3412 time=0
pitchwheel channel=11 pitch=-3412 time=0
pitchwheel channel=11 pitch=-2346 time=2
pitchwheel channel=11 pitch=-2346 time=0
note_on channel=1 note=67 velocity=90 time=1
note_on channel=3 note=67 velocity=94 time=0
note_on channel=3 note=62 velocity=54 time=0
note_on channel=8 note=67 velocity=84 time=0
note_on channel=9 note=40 velocity=108 time=0
pitchwheel channel=11 pitch=-2346 time=0
pitchwheel channel=11 pitch=0 time=2
pitchwheel channel=11 pitch=0 time=1
pitchwheel channel=11 pitch=0 time=0
note_on channel=7 note=91 velocity=0 time=2
note_on channel=1 note=67 velocity=0 time=8
note_on channel=7 note=79 velocity=0 time=2
note_on channel=4 note=31 velocity=0 time=5
note_on channel=9 note=44 velocity=0 time=10
note_on channel=3 note=67 velocity=0 time=0
note_on channel=8 note=67 velocity=0 time=0
note_on channel=3 note=62 velocity=0 time=0
note_on channel=1 note=67 velocity=90 time=0
note_on channel=3 note=67 velocity=49 time=0
note_on channel=3 note=62 velocity=88 time=0
note_on channel=8 note=67 velocity=68 time=0
note_on channel=9 note=44 velocity=100 time=0
note_on channel=9 note=40 velocity=0 time=15
note_on channel=8 note=67 velocity=0 time=15
note_on channel=3 note=62 velocity=0 time=0
note_on channel=3 note=67 velocity=0 time=0
note_on channel=1 note=67 velocity=0 time=7
note_on channel=1 note=64 velocity=102 time=20
note_on channel=9 note=44 velocity=0 time=3
note_on channel=3 note=69 velocity=86 time=0
note_on channel=3 note=62 velocity=92 time=0
note_on channel=8 note=69 velocity=83 time=0
note_on channel=8 note=67 velocity=90 time=0
note_on channel=9 note=35 velocity=108 time=0
note_on channel=9 note=44 velocity=100 time=0
note_on channel=4 note=31 velocity=115 time=7
note_on channel=4 note=31 velocity=0 time=18
note_on channel=8 note=67 velocity=0 time=5
note_on channel=8 note=69 velocity=0 time=0
note_on channel=3 note=62 velocity=0 time=0
note_on channel=3 note=69 velocity=0 time=0
note_on channel=1 note=64 velocity=0 time=4
note_on channel=9 note=35 velocity=0 time=11
note_on channel=9 note=44 velocity=0 time=15
note_on channel=1 note=67 velocity=127 time=0
note_on channel=3 note=62 velocity=88 time=0
note_on channel=3 note=71 velocity=108 time=0
note_on channel=8 note=71 velocity=94 time=0
note_on channel=8 note=67 velocity=81 time=0
note_on channel=9 note=35 velocity=108 time=0
note_on channel=9 note=44 velocity=100 time=0
note_on channel=4 note=31 velocity=127 time=13
note_on channel=9 note=35 velocity=0 time=32
note_on channel=8 note=71 velocity=0 time=15
note_on channel=8 note=67 velocity=0 time=0
note_on channel=3 note=62 velocity=0 time=0
note_on channel=3 note=71 velocity=0 time=0
note_on channel=9 note=44 velocity=0 time=0
note_on channel=9 note=44 velocity=100 time=0
note_on channel=1 note=67 velocity=0 time=1
note_on channel=3 note=74 velocity=92 time=29
note_on channel=3 note=62 velocity=83 time=0
note_on channel=8 note=74 velocity=67 time=0
note_on channel=8 note=67 velocity=97 time=0
note_on channel=1 note=67 velocity=127 time=7
note_on channel=8 note=67 velocity=0 time=23
note_on channel=9 note=44 velocity=0 time=0
note_on channel=9 note=40 velocity=108 time=0
note_on channel=9 note=44 velocity=100 time=0
note_on channel=8 note=74 velocity=0 time=30
note_on channel=3 note=62 velocity=0 time=0
note_on channel=3 note=74 velocity=0 time=0
note_on channel=1 note=67 velocity=0 time=7
note_on channel=9 note=40 velocity=0 time=8
note_on channel=9 note=44 velocity=0 time=15
note_on channel=1 note=71 velocity=74 time=0
note_on channel=3 note=71 velocity=74 time=0
note_on channel=3 note=62 velocity=78 time=0
note_on channel=8 note=71 velocity=66 time=0
note_on channel=8 note=67 velocity=74 time=0
note_on channel=9 note=44 velocity=100 time=0
note_on channel=8 note=67 velocity=0 time=30
note_on channel=3 note=62 velocity=0 time=0
note_on channel=1 note=71 velocity=0 time=0
note_on channel=3 note=71 velocity=0 time=0
note_on channel=8 note=71 velocity=0 time=0
note_on channel=9 note=40 velocity=127 time=0
note_on channel=9 note=40 velocity=0 time=15
note_on channel=4 note=31 velocity=0 time=2
note_on channel=9 note=44 velocity=0 time=13
note_on channel=1 note=72 velocity=105 time=0
note_on channel=3 note=64 velocity=92 time=0
note_on channel=3 note=76 velocity=99 time=0
note_on channel=8 note=76 velocity=92 time=0
note_on channel=8 note=64 velocity=108 time=0
note_on channel=9 note=49 velocity=115 time=0
note_on channel=9 note=40 velocity=127 time=0
note_on channel=9 note=36 velocity=127 time=0
note_on channel=4 note=40 velocity=127 time=8
note_on channel=9 note=40 velocity=0 time=7
note_on channel=9 note=36 velocity=0 time=18
note_on channel=9 note=49 velocity=0 time=10
note_on channel=8 note=64 velocity=0 time=17
note_on channel=8 note=76 velocity=0 time=0
note_on channel=3 note=76 velocity=0 time=0
note_on channel=3 note=64 velocity=0 time=0
note_on channel=1 note=72 velocity=0 time=10
note_on channel=4 note=40 velocity=0 time=7
note_on channel=3 note=78 velocity=102 time=13
note_on channel=3 note=62 velocity=92 time=0
note_on channel=8 note=78 velocity=99 time=0
note_on channel=8 note=62 velocity=94 time=0
note_on channel=9 note=40 velocity=127 time=0
note_on channel=4 note=38 velocity=127 time=1
note_on channel=9 note=36 velocity=127 time=4
note_on channel=1 note=74 velocity=105 time=1
note_on channel=9 note=49 velocity=120 time=0
note_on channel=9 note=40 velocity=0 time=9
note_on channel=9 note=36 velocity=0 time=23
note_on channel=9 note=49 velocity=0 time=8
note_on channel=3 note=62 velocity=0 time=14
note_on channel=8 note=62 velocity=0 time=0
note_on channel=8 note=78 velocity=0 time=0
note_on channel=3 note=78 velocity=0 time=0
note_on channel=1 note=74 velocity=0 time=6
note_on channel=4 note=38 velocity=0 time=16
note_on channel=1 note=76 velocity=105 time=8
note_on channel=3 note=60 velocity=92 time=0
note_on channel=3 note=79 velocity=102 time=0
note_on channel=8 note=79 velocity=78 time=0
note_on channel=8 note=60 velocity=90 time=0
note_on channel=4 note=36 velocity=108 time=7
control_change channel=0 control=7 value=105 time=2
note_on channel=9 note=49 velocity=127 time=0
note_on channel=9 note=40 velocity=127 time=0
note_on channel=9 note=36 velocity=127 time=0
note_on channel=9 note=40 velocity=0 time=15
control_change channel=0 control=7 value=103 time=1
note_on channel=9 note=49 velocity=0 time=7
control_change channel=0 control=7 value=102 time=14
control_change channel=0 control=7 value=100 time=5
note_on channel=9 note=36 velocity=0 time=10
control_change channel=0 control=7 value=99 time=0
note_on channel=9 note=44 velocity=119 time=13
note_on channel=9 note=44 velocity=0 time=21
control_change channel=0 control=7 value=97 time=5
note_on channel=9 note=44 velocity=88 time=30
note_on channel=9 note=44 velocity=0 time=20
note_on channel=9 note=44 velocity=88 time=48
note_on channel=9 note=44 velocity=0 time=21
note_on channel=9 note=44 velocity=94 time=29
note_on channel=1 note=76 velocity=0 time=2
note_on channel=5 note=78 velocity=89 time=2
note_on channel=10 note=78 velocity=94 time=0
control_change channel=1 control=7 value=87 time=10
note_on channel=3 note=79 velocity=0 time=8
note_on channel=3 note=60 velocity=0 time=0
note_on channel=9 note=44 velocity=0 time=0
control_change channel=1 control=7 value=88 time=2
note_on channel=10 note=79 velocity=115 time=0
note_on channel=10 note=78 velocity=0 time=4
note_on channel=5 note=78 velocity=0 time=0
note_on channel=5 note=79 velocity=89 time=0
control_change channel=0 control=7 value=96 time=15
note_on channel=5 note=81 velocity=78 time=4
<meta message time_signature numerator=2 denominator=4 clocks_per_click=24 notated_32nd_notes_per_beat=8 time=5>
note_on channel=8 note=60 velocity=0 time=0
note_on channel=8 note=79 velocity=0 time=0
note_on channel=10 note=81 velocity=124 time=1
note_on channel=10 note=79 velocity=0 time=3
note_on channel=4 note=39 velocity=127 time=2
note_on channel=5 note=79 velocity=0 time=4
note_on channel=4 note=36 velocity=0 time=1
note_on channel=9 note=36 velocity=127 time=2
note_on channel=9 note=44 velocity=127 time=0
note_on channel=9 note=44 velocity=0 time=24
note_on channel=9 note=36 velocity=0 time=27
note_on channel=9 note=44 velocity=84 time=1
note_on channel=9 note=44 velocity=0 time=19
note_on channel=5 note=81 velocity=0 time=27
note_on channel=10 note=81 velocity=0 time=5
note_on channel=10 note=79 velocity=99 time=0
note_on channel=4 note=38 velocity=127 time=4
note_on channel=5 note=79 velocity=47 time=0
note_on channel=9 note=36 velocity=112 time=0
note_on channel=9 note=44 velocity=127 time=3
control_change channel=0 control=64 value=127 time=4
control_change channel=0 control=64 value=127 time=0
control_change channel=0 control=64 value=127 time=0
control_change channel=0 control=7 value=95 time=10
note_on channel=9 note=44 velocity=0 time=7
note_on channel=4 note=39 velocity=0 time=0
note_on channel=9 note=36 velocity=0 time=11
control_change channel=1 control=7 value=87 time=26
note_on channel=9 note=44 velocity=90 time=0
note_on channel=9 note=44 velocity=0 time=21
control_change channel=0 control=64 value=0 time=7
control_change channel=0 control=64 value=0 time=0
control_change channel=0 control=64 value=0 time=0
control_change channel=1 control=7 value=86 time=8
note_on channel=0 note=60 velocity=75 time=16
note_on channel=10 note=76 velocity=108 time=3
<meta message time_signature numerator=4 denominator=4 clocks_per_click=24 notated_32nd_notes_per_beat=8 time=4>
note_on channel=4 note=38 velocity=0 time=0
note_on channel=4 note=36 velocity=119 time=0
control_change channel=6 control=64 value=2 time=0
control_change channel=0 control=64 value=127 time=1
control_change channel=0 control=64 value=127 time=1
control_change channel=0 control=64 value=127 time=0
note_on channel=9 note=44 velocity=127 time=0
note_on channel=9 note=36 velocity=127 time=1
note_on channel=10 note=79 velocity=0 time=1
note_on channel=5 note=79 velocity=0 time=2
control_change channel=6 control=64 value=3 time=0
note_on channel=5 note=76 velocity=58 time=1
control_change channel=6 control=64 value=4 time=17
note_on channel=0 note=64 velocity=53 time=1
note_on channel=9 note=44 velocity=0 time=3
note_on channel=0 note=60 velocity=0 time=18
control_change channel=6 control=64 value=5 time=0
control_change channel=6 control=64 value=6 time=2
note_on channel=0 note=67 velocity=52 time=7
control_change channel=6 control=64 value=8 time=3
note_on channel=9 note=44 velocity=99 time=3
note_on channel=0 note=64 velocity=0 time=1
control_change channel=6 control=64 value=9 time=2
control_change channel=6 control=64 value=10 time=2
control_change channel=6 control=64 value=11 time=4
control_change channel=6 control=64 value=12 time=2
control_change channel=6 control=64 value=13 time=2
control_change channel=6 control=64 value=14 time=2
note_on channel=9 note=44 velocity=0 time=8
control_change channel=6 control=64 value=15 time=2
note_on channel=0 note=72 velocity=53 time=1
control_change channel=6 control=64 value=16 time=1
control_change channel=6 control=64 value=17 time=14
control_change channel=6 control=64 value=18 time=4
control_change channel=6 control=64 value=19 time=6
note_on channel=0 note=76 velocity=74 time=2
control_change channel=6 control=64 value=20 time=4
note_on channel=9 note=44 velocity=119 time=3
note_on channel=0 note=72 velocity=0 time=1
note_on channel=0 note=67 velocity=0 time=16
control_change channel=6 control=64 value=22 time=0
note_on channel=9 note=44 velocity=0 time=7
note_on channel=0 note=79 velocity=55 time=3
control_change channel=6 control=64 value=23 time=0
control_change channel=6 control=64 value=24 time=2
note_on channel=0 note=76 velocity=0 time=2
control_change channel=6 control=64 value=25 time=2
control_change channel=6 control=64 value=26 time=4
control_change channel=6 control=64 value=27 time=2
control_change channel=6 control=64 value=29 time=2
control_change channel=6 control=64 value=30 time=6
note_on channel=0 note=79 velocity=0 time=7
control_change channel=6 control=64 value=33 time=1
note_on channel=9 note=44 velocity=115 time=4
note_on channel=0 note=84 velocity=94 time=1
control_change channel=6 control=64 value=35 time=1
control_change channel=6 control=64 value=36 time=2
control_change channel=6 control=64 value=37 time=2
control_change channel=6 control=64 value=38 time=2
control_change channel=6 control=64 value=39 time=2
control_change channel=6 control=64 value=40 time=2
note_on channel=9 note=36 velocity=0 time=2
control_change channel=6 control=64 value=44 time=0
control_change channel=6 control=64 value=49 time=4
control_change channel=6 control=64 value=51 time=2
control_change channel=6 control=64 value=54 time=2
note_on channel=9 note=44 velocity=0 time=3
control_change channel=6 control=64 value=59 time=3
note_on channel=0 note=88 velocity=127 time=5
control_change channel=6 control=64 value=65 time=1
control_change channel=6 control=64 value=70 time=4
note_on channel=0 note=84 velocity=0 time=4
control_change channel=6 control=64 value=73 time=2
control_change channel=6 control=64 value=75 time=2
control_change channel=6 control=64 value=77 time=4
control_change channel=6 control=64 value=80 time=2
control_change channel=6 control=64 value=84 time=2
control_change channel=6 control=64 value=88 time=2
control_change channel=6 control=64 value=94 time=2
note_on channel=9 note=47 velocity=127 time=0
note_on channel=9 note=40 velocity=127 time=1
control_change channel=6 control=64 value=100 time=1
note_on channel=9 note=44 velocity=108 time=0
control_change channel=6 control=64 value=110 time=2
control_change channel=6 control=64 value=126 time=2
note_on channel=0 note=91 velocity=127 time=1
note_on channel=0 note=88 velocity=0 time=1
control_change channel=6 control=64 value=125 time=0
note_on channel=9 note=44 velocity=0 time=7
control_change channel=6 control=64 value=124 time=1
control_change channel=6 control=64 value=122 time=8
note_on channel=0 note=88 velocity=127 time=6
note_on channel=9 note=47 velocity=0 time=6
control_change channel=6 control=64 value=118 time=0
note_on channel=0 note=91 velocity=0 time=10
note_on channel=9 note=40 velocity=0 time=5
control_change channel=6 control=64 value=113 time=1
note_on channel=0 note=84 velocity=99 time=5
note_on channel=5 note=67 velocity=47 time=1
note_on channel=9 note=44 velocity=108 time=0
note_on channel=5 note=76 velocity=0 time=1
note_on channel=0 note=88 velocity=0 time=0
note_on channel=10 note=76 velocity=0 time=1
control_change channel=6 control=64 value=111 time=4
note_on channel=10 note=67 velocity=81 time=3
control_change channel=6 control=64 value=109 time=1
control_change channel=6 control=64 value=107 time=8
note_on channel=9 note=44 velocity=0 time=4
control_change channel=6 control=64 value=103 time=4
note_on channel=0 note=79 velocity=54 time=3
control_change channel=6 control=64 value=96 time=13
note_on channel=0 note=84 velocity=0 time=7
note_on channel=5 note=72 velocity=44 time=7
control_change channel=6 control=64 value=90 time=0
note_on channel=0 note=76 velocity=46 time=2
control_change channel=6 control=64 value=89 time=0
note_on channel=0 note=79 velocity=0 time=5
control_change channel=6 control=64 value=87 time=1
note_on channel=9 note=44 velocity=81 time=0
note_on channel=10 note=72 velocity=99 time=0
control_change channel=6 control=64 value=85 time=6
note_on channel=5 note=67 velocity=0 time=4
control_change channel=6 control=64 value=81 time=0
control_change channel=6 control=64 value=78 time=6
note_on channel=9 note=44 velocity=0 time=1
note_on channel=10 note=67 velocity=0 time=4
control_change channel=6 control=64 value=73 time=1
control_change channel=6 control=64 value=70 time=4
note_on channel=0 note=72 velocity=94 time=1
control_change channel=6 control=64 value=67 time=3
note_on channel=0 note=76 velocity=0 time=2
control_change channel=6 control=64 value=64 time=0
control_change channel=0 control=7 value=94 time=2
control_change channel=6 control=64 value=61 time=0
control_change channel=6 control=64 value=58 time=4
control_change channel=6 control=64 value=55 time=2
control_change channel=6 control=64 value=51 time=6
note_on channel=5 note=76 velocity=69 time=5
control_change channel=6 control=64 value=45 time=1
note_on channel=9 note=44 velocity=102 time=2
note_on channel=10 note=76 velocity=97 time=0
control_change channel=6 control=64 value=39 time=4
note_on channel=5 note=72 velocity=0 time=1
control_change channel=0 control=7 value=92 time=0
note_on channel=0 note=67 velocity=58 time=0
note_on channel=10 note=72 velocity=0 time=3
control_change channel=6 control=64 value=34 time=4
note_on channel=9 note=44 velocity=0 time=4
note_on channel=4 note=36 velocity=0 time=1
control_change channel=6 control=64 value=28 time=3
note_on channel=0 note=64 velocity=77 time=11
control_change channel=6 control=64 value=21 time=1
note_on channel=0 note=67 velocity=0 time=3
note_on channel=5 note=76 velocity=0 time=3
note_on channel=0 note=64 velocity=0 time=4
control_change channel=6 control=64 value=14 time=2
note_on channel=10 note=76 velocity=0 time=8
control_change channel=6 control=64 value=9 time=4
note_on channel=0 note=62 velocity=83 time=4
note_on channel=0 note=64 velocity=86 time=0
note_on channel=10 note=78 velocity=88 time=1
note_on channel=9 note=36 velocity=127 time=1
note_on channel=0 note=72 velocity=0 time=1
note_on channel=9 note=44 velocity=127 time=0
note_on channel=0 note=64 velocity=0 time=1
control_change channel=0 control=64 value=0 time=0
control_change channel=0 control=64 value=0 time=0
control_change channel=0 control=64 value=0 time=0
control_change channel=6 control=64 value=5 time=0
note_on channel=4 note=36 velocity=127 time=2
note_on channel=5 note=78 velocity=82 time=3
control_change channel=6 control=64 value=4 time=1
control_change channel=6 control=64 value=8 time=4
control_change channel=6 control=64 value=12 time=2
control_change channel=6 control=64 value=17 time=6
note_on channel=9 note=44 velocity=0 time=3
note_on channel=0 note=66 velocity=51 time=3
control_change channel=6 control=64 value=22 time=0
control_change channel=6 control=64 value=25 time=6
control_change channel=0 control=64 value=0 time=2
control_change channel=0 control=64 value=0 time=0
control_change channel=0 control=64 value=0 time=0
control_change channel=6 control=64 value=28 time=4
note_on channel=9 note=36 velocity=0 time=9
control_change channel=6 control=64 value=31 time=3
note_on channel=0 note=69 velocity=56 time=6
control_change channel=6 control=64 value=33 time=2
note_on channel=9 note=44 velocity=108 time=0
control_change channel=6 control=64 value=36 time=12
note_on channel=9 note=44 velocity=0 time=9
note_on channel=0 note=74 velocity=39 time=5
note_on channel=0 note=72 velocity=35 time=1
control_change channel=6 control=64 value=42 time=1
note_on channel=0 note=72 velocity=0 time=3
note_on channel=0 note=78 velocity=97 time=24
control_change channel=6 control=64 value=48 time=1
note_on channel=9 note=44 velocity=119 time=5
control_change channel=0 control=64 value=0 time=2
control_change channel=0 control=64 value=0 time=0
control_change channel=0 control=64 value=0 time=1
control_change channel=6 control=64 value=52 time=12
note_on channel=9 note=44 velocity=0 time=4
control_change channel=6 control=64 value=55 time=4
note_on channel=0 note=81 velocity=56 time=1
note_on channel=0 note=78 velocity=0 time=3
control_change channel=6 control=64 value=58 time=2
control_change channel=0 control=64 value=127 time=6
control_change channel=0 control=64 value=127 time=0
control_change channel=0 control=64 value=127 time=0
control_change channel=6 control=64 value=64 time=0
control_change channel=6 control=64 value=70 time=4
control_change channel=6 control=64 value=77 time=8
control_change channel=6 control=64 value=84 time=6
note_on channel=0 note=86 velocity=68 time=1
note_on channel=0 note=81 velocity=0 time=1
control_change channel=6 control=64 value=89 time=6
note_on channel=0 note=86 velocity=0 time=4
note_on channel=9 note=44 velocity=115 time=0
control_change channel=6 control=64 value=93 time=6
control_change channel=6 control=64 value=96 time=8
note_on channel=0 note=90 velocity=75 time=5
note_on channel=9 note=44 velocity=0 time=3
control_change channel=6 control=64 value=98 time=8
note_on channel=0 note=90 velocity=0 time=17
note_on channel=0 note=93 velocity=127 time=7
note_on channel=9 note=47 velocity=127 time=5
note_on channel=9 note=44 velocity=115 time=1
note_on channel=9 note=40 velocity=127 time=0
control_change channel=6 control=64 value=94 time=10
control_change channel=6 control=64 value=91 time=8
note_on channel=9 note=44 velocity=0 time=4
note_on channel=0 note=90 velocity=92 time=1
note_on channel=9 note=40 velocity=0 time=3
control_change channel=6 control=64 value=87 time=0
note_on channel=10 note=78 velocity=0 time=2
note_on channel=9 note=47 velocity=0 time=2
note_on channel=0 note=93 velocity=0 time=2
note_on channel=5 note=78 velocity=0 time=3
control_change channel=6 control=64 value=83 time=3
control_change channel=6 control=64 value=80 time=8
control_change channel=6 control=64 value=79 time=6
note_on channel=0 note=86 velocity=78 time=1
note_on channel=0 note=90 velocity=0 time=4
note_on channel=10 note=78 velocity=72 time=3
note_on channel=9 note=44 velocity=108 time=1
control_change channel=6 control=64 value=77 time=1
note_on channel=5 note=78 velocity=69 time=2
note_on channel=0 note=86 velocity=0 time=2
control_change channel=6 control=64 value=75 time=8
note_on channel=9 note=44 velocity=0 time=6
note_on channel=0 note=81 velocity=83 time=4
control_change channel=6 control=64 value=70 time=6
note_on channel=0 note=81 velocity=0 time=5
control_change channel=6 control=64 value=66 time=7
note_on channel=5 note=79 velocity=62 time=8
note_on channel=10 note=79 velocity=105 time=1
note_on channel=5 note=78 velocity=0 time=3
note_on channel=0 note=78 velocity=97 time=0
control_change channel=6 control=64 value=58 time=0
note_on channel=0 note=69 velocity=0 time=1
note_on channel=0 note=74 velocity=0 time=1
note_on channel=0 note=62 velocity=0 time=0
control_change channel=6 control=64 value=17 time=0
note_on channel=0 note=66 velocity=0 time=1
note_on channel=10 note=78 velocity=0 time=1
control_change channel=0 control=64 value=0 time=0
control_change channel=0 control=64 value=0 time=0
control_change channel=0 control=64 value=0 time=0
control_change channel=6 control=64 value=56 time=0
control_change channel=6 control=64 value=55 time=2
control_change channel=6 control=64 value=54 time=2
control_change channel=6 control=64 value=52 time=2
note_on channel=9 note=44 velocity=115 time=0
control_change channel=6 control=64 value=48 time=6
control_change channel=6 control=64 value=45 time=8
note_on channel=9 note=44 velocity=0 time=1
note_on channel=0 note=74 velocity=56 time=5
control_change channel=6 control=64 value=41 time=0
control_change channel=6 control=64 value=39 time=4
control_change channel=0 control=64 value=127 time=3
control_change channel=0 control=64 value=127 time=0
control_change channel=0 control=64 value=127 time=1
control_change channel=6 control=64 value=37 time=0
control_change channel=6 control=64 value=36 time=2
control_change channel=6 control=64 value=33 time=8
control_change channel=6 control=64 value=30 time=6
note_on channel=5 note=81 velocity=85 time=4
note_on channel=0 note=69 velocity=52 time=1
note_on channel=10 note=81 velocity=70 time=0
control_change channel=6 control=64 value=27 time=3
note_on channel=9 note=44 velocity=112 time=3
note_on channel=5 note=79 velocity=0 time=1
control_change channel=6 control=64 value=25 time=0
note_on channel=10 note=79 velocity=0 time=2
control_change channel=6 control=64 value=23 time=4
note_on channel=9 note=44 velocity=0 time=6
control_change channel=6 control=64 value=22 time=0
control_change channel=6 control=64 value=21 time=4
control_change channel=6 control=64 value=19 time=6
note_on channel=0 note=66 velocity=51 time=1
control_change channel=6 control=64 value=18 time=3
note_on channel=0 note=74 velocity=0 time=2
note_on channel=0 note=69 velocity=0 time=1
control_change channel=6 control=64 value=17 time=1
control_change channel=6 control=64 value=16 time=2
note_on channel=0 note=66 velocity=0 time=3
note_on channel=4 note=36 velocity=0 time=3
control_change channel=6 control=64 value=14 time=0
control_change channel=6 control=64 value=12 time=2
control_change channel=6 control=64 value=11 time=4
control_change channel=6 control=64 value=9 time=2
note_on channel=10 note=81 velocity=0 time=2
control_change channel=6 control=64 value=5 time=0
note_on channel=5 note=81 velocity=0 time=3
control_change channel=6 control=64 value=3 time=1
note_on channel=10 note=74 velocity=94 time=1
note_on channel=0 note=59 velocity=102 time=1
control_change channel=6 control=64 value=2 time=0
control_change channel=6 control=64 value=0 time=2
note_on channel=0 note=78 velocity=0 time=1
control_change channel=0 control=64 value=0 time=0
control_change channel=0 control=64 value=0 time=0
note_on channel=5 note=74 velocity=89 time=0
control_change channel=0 control=64 value=0 time=1
control_change channel=6 control=64 value=0 time=0
note_on channel=9 note=36 velocity=127 time=0
note_on channel=9 note=44 velocity=127 time=0
note_on channel=4 note=35 velocity=127 time=2
note_on channel=9 note=44 velocity=0 time=18
note_on channel=0 note=62 velocity=40 time=4
control_change channel=6 control=64 value=1 time=2
note_on channel=9 note=36 velocity=0 time=2
control_change channel=6 control=64 value=2 time=4
control_change channel=0 control=64 value=127 time=5
control_change channel=0 control=64 value=127 time=0
control_change channel=0 control=64 value=127 time=0
control_change channel=6 control=64 value=4 time=3
note_on channel=0 note=59 velocity=0 time=12
note_on channel=0 note=67 velocity=50 time=2
control_change channel=6 control=64 value=7 time=0
note_on channel=9 note=44 velocity=108 time=5
control_change channel=6 control=64 value=11 time=11
note_on channel=9 note=44 velocity=0 time=7
note_on channel=0 note=62 velocity=0 time=9
note_on channel=0 note=71 velocity=36 time=2
control_change channel=6 control=64 value=16 time=0
control_change channel=6 control=64 value=20 time=18
note_on channel=0 note=74 velocity=49 time=11
note_on channel=9 note=44 velocity=127 time=0
note_on channel=0 note=71 velocity=0 time=11
control_change channel=0 control=64 value=0 time=0
control_change channel=0 control=64 value=0 time=0
control_change channel=0 control=64 value=0 time=0
control_change channel=6 control=64 value=22 time=0
control_change channel=0 control=64 value=0 time=1
control_change channel=0 control=64 value=0 time=0
control_change channel=0 control=64 value=0 time=0
control_change channel=6 control=64 value=25 time=1
control_change channel=6 control=64 value=28 time=2
control_change channel=6 control=64 value=10 time=2
note_on channel=9 note=44 velocity=0 time=3
note_on channel=0 note=67 velocity=0 time=4
note_on channel=0 note=79 velocity=64 time=4
control_change channel=6 control=64 value=33 time=3
note_on channel=0 note=74 velocity=0 time=4
control_change channel=6 control=64 value=10 time=0
control_change channel=0 control=64 value=127 time=2
control_change channel=0 control=64 value=127 time=0
control_change channel=0 control=64 value=127 time=0
control_change channel=6 control=64 value=31 time=4
control_change channel=6 control=64 value=12 time=2
control_change channel=6 control=64 value=37 time=2
control_change channel=6 control=64 value=40 time=10
note_on channel=0 note=79 velocity=0 time=4
note_on channel=0 note=83 velocity=97 time=1
note_on channel=9 note=44 velocity=127 time=0
control_change channel=6 control=64 value=16 time=1
control_change channel=6 control=64 value=42 time=2
control_change channel=6 control=64 value=35 time=2
control_change channel=6 control=64 value=45 time=8
control_change channel=6 control=64 value=46 time=6
note_on channel=9 note=44 velocity=0 time=1
control_change channel=6 control=64 value=38 time=1
control_change channel=6 control=64 value=21 time=2
control_change channel=6 control=64 value=49 time=4
note_on channel=0 note=86 velocity=86 time=2
control_change channel=6 control=64 value=52 time=6
control_change channel=6 control=64 value=53 time=6
control_change channel=6 control=64 value=27 time=6
control_change channel=6 control=64 value=53 time=6
note_on channel=0 note=83 velocity=0 time=3
control_change channel=6 control=64 value=54 time=3
note_on channel=0 note=91 velocity=127 time=2
note_on channel=0 note=86 velocity=0 time=2
control_change channel=6 control=64 value=72 time=0
note_on channel=9 note=44 velocity=115 time=2
note_on channel=9 note=47 velocity=127 time=1
control_change channel=6 control=64 value=71 time=1
note_on channel=9 note=40 velocity=127 time=2
control_change channel=6 control=64 value=55 time=2
control_change channel=6 control=64 value=54 time=2
control_change channel=6 control=64 value=69 time=2
control_change channel=6 control=64 value=51 time=2
control_change channel=6 control=64 value=65 time=6
note_on channel=10 note=74 velocity=0 time=2
control_change channel=6 control=64 value=53 time=0
note_on channel=9 note=44 velocity=0 time=2
note_on channel=9 note=40 velocity=0 time=3
note_on channel=0 note=86 velocity=84 time=0
control_change channel=6 control=64 value=63 time=1
control_change channel=6 control=64 value=33 time=2
note_on channel=5 note=74 velocity=0 time=1
note_on channel=9 note=47 velocity=0 time=0
control_change channel=6 control=64 value=61 time=1
control_change channel=6 control=64 value=59 time=4
control_change channel=6 control=64 value=58 time=4
control_change channel=6 control=64 value=55 time=4
control_change channel=6 control=64 value=38 time=2
control_change channel=6 control=64 value=69 time=2
control_change channel=6 control=64 value=67 time=2
control_change channel=6 control=64 value=53 time=2
control_change channel=6 control=64 value=42 time=2
note_on channel=0 note=83 velocity=40 time=2
control_change channel=6 control=64 value=47 time=0
control_change channel=6 control=64 value=51 time=2
note_on channel=0 note=91 velocity=0 time=1
control_change channel=6 control=64 value=63 time=1
note_on channel=0 note=86 velocity=0 time=3
note_on channel=9 note=44 velocity=124 time=0
note_on channel=10 note=74 velocity=102 time=1
note_on channel=5 note=74 velocity=69 time=2
control_change channel=6 control=64 value=48 time=0
control_change channel=6 control=64 value=46 time=8
control_change channel=6 control=64 value=44 time=4
note_on channel=9 note=44 velocity=0 time=2
control_change channel=6 control=64 value=43 time=0
control_change channel=6 control=64 value=42 time=6
note_on channel=0 note=79 velocity=54 time=6
control_change channel=6 control=64 value=41 time=0
note_on channel=0 note=83 velocity=0 time=3
control_change channel=6 control=64 value=39 time=3
control_change channel=6 control=64 value=38 time=2
control_change channel=6 control=64 value=37 time=4
control_change channel=6 control=64 value=35 time=4
control_change channel=6 control=64 value=33 time=2
control_change channel=6 control=64 value=31 time=4
note_on channel=10 note=74 velocity=0 time=3
control_change channel=6 control=64 value=29 time=1
note_on channel=0 note=74 velocity=92 time=2
note_on channel=5 note=79 velocity=75 time=1
control_change channel=6 control=64 value=27 time=1
control_change channel=6 control=64 value=25 time=2
note_on channel=9 note=44 velocity=112 time=1
control_change channel=6 control=64 value=23 time=1
note_on channel=10 note=67 velocity=92 time=1
control_change channel=6 control=64 value=21 time=1
control_change channel=6 control=64 value=19 time=2
note_on channel=0 note=79 velocity=0 time=1
note_on channel=5 note=74 velocity=0 time=1
note_on channel=9 note=44 velocity=0 time=11
note_on channel=0 note=71 velocity=57 time=6
control_change channel=6 control=64 value=17 time=1
note_on channel=0 note=74 velocity=0 time=1
control_change channel=6 control=64 value=16 time=19
note_on channel=5 note=79 velocity=0 time=7
note_on channel=5 note=86 velocity=37 time=3
note_on channel=0 note=67 velocity=69 time=1
note_on channel=9 note=44 velocity=97 time=0
note_on channel=0 note=71 velocity=0 time=1
control_change channel=6 control=64 value=15 time=8
note_on channel=10 note=74 velocity=127 time=0
note_on channel=10 note=67 velocity=0 time=1
note_on channel=9 note=44 velocity=0 time=5
control_change channel=6 control=64 value=14 time=2
control_change channel=6 control=64 value=13 time=4
note_on channel=0 note=62 velocity=92 time=8
control_change channel=6 control=64 value=12 time=0
control_change channel=6 control=64 value=11 time=2
control_change channel=6 control=64 value=10 time=2
note_on channel=5 note=86 velocity=0 time=4
note_on channel=0 note=62 velocity=0 time=2
control_change channel=6 control=64 value=9 time=0
note_on channel=10 note=74 velocity=0 time=3
control_change channel=6 control=64 value=8 time=3
control_change channel=6 control=64 value=7 time=2
control_change channel=6 control=64 value=6 time=6
control_change channel=6 control=64 value=5 time=2
control_change channel=0 control=64 value=0 time=2
control_change channel=0 control=64 value=0 time=0
control_change channel=0 control=64 value=0 time=0
control_change channel=6 control=64 value=4 time=0
note_on channel=0 note=67 velocity=0 time=2
note_on channel=0 note=60 velocity=90 time=0
note_on channel=5 note=86 velocity=69 time=2
control_change channel=6 control=64 value=3 time=0
note_on channel=10 note=74 velocity=73 time=1
control_change channel=6 control=64 value=2 time=1
note_on channel=9 note=44 velocity=127 time=1
note_on channel=9 note=36 velocity=127 time=0
note_on channel=4 note=36 velocity=105 time=1
control_change channel=6 control=64 value=1 time=0
control_change channel=6 control=64 value=0 time=2
note_on channel=4 note=35 velocity=0 time=3
control_change channel=6 control=64 value=3 time=15
note_on channel=9 note=44 velocity=0 time=1
note_on channel=0 note=64 velocity=56 time=2
control_change channel=6 control=64 value=5 time=3
note_on channel=9 note=36 velocity=0 time=1
control_change channel=0 control=64 value=127 time=4
control_change channel=0 control=64 value=127 time=0
control_change channel=0 control=64 value=127 time=0
control_change channel=6 control=64 value=6 time=1
control_change channel=6 control=64 value=7 time=2
control_change channel=6 control=64 value=9 time=6
note_on channel=0 note=60 velocity=0 time=1
control_change channel=6 control=64 value=11 time=5
control_change channel=6 control=64 value=12 time=4
note_on channel=0 note=67 velocity=70 time=6
control_change channel=6 control=64 value=14 time=0
note_on channel=9 note=44 velocity=99 time=0
control_change channel=6 control=64 value=15 time=2
note_on channel=0 note=64 velocity=0 time=4
control_change channel=6 control=64 value=17 time=0
control_change channel=6 control=64 value=18 time=2
control_change channel=6 control=64 value=19 time=2
control_change channel=6 control=64 value=20 time=4
control_change channel=6 control=64 value=21 time=2
note_on channel=9 note=44 velocity=0 time=6
control_change channel=6 control=64 value=23 time=2
note_on channel=0 note=72 velocity=66 time=3
control_change channel=6 control=64 value=27 time=13
note_on channel=10 note=72 velocity=92 time=13
note_on channel=0 note=76 velocity=73 time=2
note_on channel=5 note=84 velocity=34 time=3
note_on channel=9 note=44 velocity=102 time=2
note_on channel=0 note=72 velocity=0 time=1
note_on channel=0 note=67 velocity=0 time=1
control_change channel=6 control=64 value=32 time=0
note_on channel=10 note=74 velocity=0 time=4
note_on channel=5 note=86 velocity=0 time=6
control_change channel=0 control=64 value=0 time=5
control_change channel=0 control=64 value=0 time=0
control_change channel=0 control=64 value=0 time=0
control_change channel=6 control=64 value=36 time=1
note_on channel=9 note=44 velocity=0 time=4
note_on channel=0 note=79 velocity=78 time=1
note_on channel=0 note=76 velocity=0 time=4
control_change channel=6 control=64 value=38 time=3
control_change channel=6 control=64 value=40 time=8
control_change channel=6 control=64 value=42 time=6
control_change channel=0 control=64 value=127 time=4
control_change channel=0 control=64 value=127 time=0
control_change channel=0 control=64 value=127 time=0
note_on channel=10 note=71 velocity=124 time=3
control_change channel=6 control=64 value=43 time=1
note_on channel=5 note=83 velocity=60 time=5
control_change channel=6 control=64 value=45 time=1
note_on channel=0 note=84 velocity=92 time=1
control_change channel=6 control=64 value=46 time=1
note_on channel=9 note=44 velocity=112 time=0
note_on channel=0 note=79 velocity=0 time=3
note_on channel=10 note=72 velocity=0 time=1
control_change channel=6 control=64 value=47 time=2
note_on channel=5 note=84 velocity=0 time=1
control_change channel=6 control=64 value=49 time=3
control_change channel=6 control=64 value=51 time=6
note_on channel=9 note=44 velocity=0 time=7
control_change channel=6 control=64 value=53 time=1
note_on channel=0 note=88 velocity=119 time=3
control_change channel=6 control=64 value=56 time=11
note_on channel=0 note=91 velocity=108 time=18
note_on channel=9 note=47 velocity=127 time=0
note_on channel=0 note=88 velocity=0 time=1
note_on channel=5 note=81 velocity=78 time=0
note_on channel=0 note=84 velocity=0 time=1
note_on channel=9 note=40 velocity=127 time=1
note_on channel=10 note=69 velocity=86 time=1
note_on channel=9 note=44 velocity=112 time=2
control_change channel=0 control=64 value=0 time=2
control_change channel=0 control=64 value=0 time=1
control_change channel=0 control=64 value=0 time=0
note_on channel=10 note=71 velocity=0 time=1
note_on channel=9 note=44 velocity=0 time=4
note_on channel=5 note=83 velocity=0 time=2
note_on channel=9 note=40 velocity=0 time=11
note_on channel=9 note=47 velocity=0 time=3
control_change channel=6 control=64 value=57 time=0
note_on channel=0 note=88 velocity=127 time=1
note_on channel=0 note=91 velocity=0 time=6
note_on channel=9 note=44 velocity=108 time=22
note_on channel=0 note=84 velocity=84 time=1
control_change channel=0 control=64 value=127 time=1
control_change channel=0 control=64 value=127 time=0
control_change channel=0 control=64 value=127 time=0
note_on channel=0 note=88 velocity=0 time=1
control_change channel=6 control=64 value=56 time=2
control_change channel=6 control=64 value=55 time=12
note_on channel=9 note=44 velocity=0 time=5
note_on channel=0 note=79 velocity=65 time=10
control_change channel=0 control=7 value=93 time=10
note_on channel=10 note=69 velocity=0 time=5
note_on channel=0 note=84 velocity=0 time=8
note_on channel=10 note=67 velocity=45 time=2
control_change channel=6 control=64 value=53 time=4
note_on channel=0 note=76 velocity=92 time=2
note_on channel=0 note=79 velocity=0 time=3
note_on channel=9 note=44 velocity=97 time=3
note_on channel=5 note=81 velocity=0 time=1
note_on channel=5 note=79 velocity=78 time=0
control_change channel=6 control=64 value=51 time=5
note_on channel=9 note=44 velocity=0 time=11
note_on channel=0 note=76 velocity=0 time=7
control_change channel=6 control=64 value=48 time=0
note_on channel=0 note=72 velocity=75 time=1
control_change channel=0 control=7 value=95 time=9
control_change channel=6 control=64 value=46 time=0
control_change channel=6 control=64 value=45 time=6
control_change channel=6 control=64 value=44 time=6
control_change channel=0 control=7 value=97 time=5
note_on channel=0 note=67 velocity=88 time=3
control_change channel=6 control=64 value=43 time=0
note_on channel=9 note=44 velocity=90 time=1
control_change channel=6 control=64 value=41 time=3
control_change channel=6 control=64 value=40 time=4
control_change channel=6 control=64 value=39 time=2
control_change channel=6 control=64 value=37 time=2
note_on channel=0 note=72 velocity=0 time=2
note_on channel=9 note=44 velocity=0 time=2
control_change channel=6 control=64 value=35 time=2
control_change channel=0 control=7 value=98 time=4
control_change channel=6 control=64 value=33 time=0
control_change channel=6 control=64 value=31 time=4
control_change channel=6 control=64 value=28 time=6
note_on channel=0 note=64 velocity=127 time=1
control_change channel=6 control=64 value=25 time=1
note_on channel=0 note=67 velocity=0 time=1
control_change channel=6 control=64 value=23 time=3
control_change channel=0 control=7 value=100 time=1
control_change channel=0 control=64 value=0 time=0
control_change channel=0 control=64 value=0 time=0
control_change channel=0 control=64 value=0 time=0
control_change channel=6 control=64 value=21 time=3
control_change channel=6 control=64 value=20 time=2
control_change channel=6 control=64 value=19 time=2
control_change channel=6 control=64 value=18 time=2
control_change channel=6 control=64 value=15 time=2
control_change channel=6 control=64 value=11 time=2
control_change channel=6 control=64 value=10 time=2
control_change channel=6 control=64 value=8 time=2
note_on channel=0 note=64 velocity=0 time=1
control_change channel=6 control=64 value=5 time=1
note_on channel=0 note=72 velocity=70 time=2
control_change channel=6 control=64 value=4 time=0
control_change channel=6 control=64 value=3 time=2
note_on channel=9 note=36 velocity=127 time=0
note_on channel=9 note=44 velocity=127 time=0
note_on channel=0 note=69 velocity=119 time=2
control_change channel=6 control=64 value=2 time=0
note_on channel=4 note=36 velocity=0 time=1
note_on channel=10 note=69 velocity=70 time=0
note_on channel=10 note=67 velocity=0 time=1
note_on channel=0 note=81 velocity=127 time=0
note_on channel=4 note=33 velocity=127 time=0
control_change channel=6 control=64 value=4 time=2
control_change channel=6 control=64 value=5 time=2
note_on channel=5 note=81 velocity=94 time=3
control_change channel=6 control=64 value=6 time=3
note_on channel=5 note=79 velocity=0 time=3
control_change channel=6 control=64 value=9 time=5
note_on channel=9 note=44 velocity=0 time=1
note_on channel=9 note=36 velocity=0 time=8
control_change channel=6 control=64 value=15 time=1
control_change channel=6 control=64 value=19 time=8
control_change channel=6 control=64 value=21 time=6
control_change channel=6 control=64 value=22 time=2
control_change channel=6 control=64 value=23 time=4
control_change channel=6 control=64 value=25 time=4
note_on channel=9 note=44 velocity=83 time=1
control_change channel=6 control=64 value=26 time=7
control_change channel=6 control=64 value=27 time=6
note_on channel=9 note=44 velocity=0 time=5
note_on channel=0 note=74 velocity=75 time=11
note_on channel=5 note=83 velocity=43 time=2
note_on channel=0 note=83 velocity=127 time=1
note_on channel=0 note=71 velocity=127 time=1
note_on channel=10 note=71 velocity=81 time=1
note_on channel=0 note=72 velocity=0 time=2
note_on channel=5 note=81 velocity=0 time=4
note_on channel=10 note=69 velocity=0 time=0
note_on channel=0 note=69 velocity=0 time=3
note_on channel=0 note=81 velocity=0 time=2
control_change channel=6 control=64 value=28 time=2
control_change channel=6 control=64 value=29 time=2
control_change channel=6 control=64 value=32 time=6
note_on channel=9 note=44 velocity=127 time=4
control_change channel=6 control=64 value=37 time=2
control_change channel=6 control=64 value=42 time=4
control_change channel=6 control=64 value=43 time=4
control_change channel=6 control=64 value=48 time=2
control_change channel=6 control=64 value=49 time=2
control_change channel=6 control=64 value=51 time=4
note_on channel=9 note=44 velocity=0 time=1
control_change channel=6 control=64 value=53 time=1
control_change channel=6 control=64 value=51 time=18
control_change channel=6 control=64 value=46 time=8
note_on channel=0 note=76 velocity=79 time=6
control_change channel=6 control=64 value=41 time=2
note_on channel=0 note=74 velocity=0 time=5
note_on channel=0 note=84 velocity=119 time=0
note_on channel=0 note=83 velocity=0 time=1
note_on channel=9 note=44 velocity=112 time=0
note_on channel=10 note=72 velocity=70 time=0
note_on channel=0 note=72 velocity=70 time=1
control_change channel=6 control=64 value=35 time=1
note_on channel=0 note=71 velocity=0 time=4
note_on channel=10 note=71 velocity=0 time=1
note_on channel=5 note=84 velocity=89 time=1
control_change channel=6 control=64 value=32 time=2
note_on channel=5 note=83 velocity=0 time=3
control_change channel=6 control=64 value=31 time=1
control_change channel=6 control=64 value=29 time=2
note_on channel=9 note=44 velocity=0 time=2
control_change channel=6 control=64 value=28 time=0
control_change channel=6 control=64 value=27 time=2
control_change channel=6 control=64 value=26 time=2
control_change channel=6 control=64 value=25 time=2
control_change channel=6 control=64 value=23 time=2
control_change channel=6 control=64 value=21 time=4
control_change channel=6 control=64 value=18 time=2
control_change channel=6 control=64 value=15 time=4
control_change channel=6 control=64 value=10 time=2
control_change channel=6 control=64 value=6 time=2
control_change channel=6 control=64 value=4 time=2
control_change channel=6 control=64 value=3 time=6
control_change channel=6 control=64 value=2 time=2
control_change channel=6 control=64 value=1 time=6
note_on channel=9 note=47 velocity=127 time=7
note_on channel=9 note=40 velocity=127 time=1
control_change channel=6 control=64 value=2 time=4
note_on channel=0 note=77 velocity=74 time=1
note_on channel=0 note=74 velocity=108 time=0
note_on channel=0 note=86 velocity=127 time=0
note_on channel=4 note=33 velocity=0 time=1
control_change channel=6 control=64 value=5 time=0
note_on channel=4 note=35 velocity=115 time=1
note_on channel=0 note=84 velocity=0 time=1
note_on channel=0 note=76 velocity=0 time=2
note_on channel=5 note=84 velocity=0 time=1
note_on channel=5 note=86 velocity=39 time=0
note_on channel=10 note=74 velocity=88 time=0
note_on channel=10 note=72 velocity=0 time=6
note_on channel=0 note=72 velocity=0 time=3
note_on channel=9 note=40 velocity=0 time=4
note_on channel=9 note=47 velocity=0 time=3
control_change channel=6 control=64 value=12 time=1
control_change channel=6 control=64 value=20 time=26
note_on channel=9 note=44 velocity=112 time=4
control_change channel=6 control=64 value=24 time=12
note_on channel=9 note=44 velocity=0 time=7
control_change channel=6 control=64 value=27 time=5
control_change channel=6 control=64 value=30 time=4
control_change channel=6 control=64 value=34 time=8
control_change channel=6 control=64 value=40 time=8
control_change channel=6 control=64 value=46 time=4
control_change channel=6 control=64 value=51 time=2
control_change channel=6 control=64 value=59 time=2
note_on channel=0 note=77 velocity=0 time=4
control_change channel=6 control=64 value=63 time=0
control_change channel=6 control=64 value=64 time=2
note_on channel=0 note=74 velocity=0 time=3
note_on channel=9 note=44 velocity=105 time=5
note_on channel=0 note=86 velocity=0 time=2
control_change channel=0 control=7 value=101 time=0
note_on channel=5 note=86 velocity=0 time=3
control_change channel=0 control=7 value=103 time=0
note_on channel=0 note=67 velocity=88 time=0
note_on channel=5 note=79 velocity=56 time=0
note_on channel=0 note=79 velocity=112 time=3
control_change channel=6 control=64 value=61 time=0
note_on channel=0 note=71 velocity=112 time=3
note_on channel=9 note=44 velocity=0 time=4
note_on channel=10 note=74 velocity=0 time=0
note_on channel=10 note=67 velocity=73 time=2
control_change channel=6 control=64 value=56 time=1
control_change channel=0 control=7 value=104 time=6
control_change channel=6 control=64 value=53 time=0
control_change channel=6 control=64 value=50 time=8
control_change channel=6 control=64 value=46 time=10
control_change channel=6 control=64 value=43 time=6
note_on channel=9 note=44 velocity=119 time=4
control_change channel=6 control=64 value=39 time=2
control_change channel=6 control=64 value=36 time=4
control_change channel=6 control=64 value=34 time=4
control_change channel=6 control=64 value=32 time=2
note_on channel=9 note=44 velocity=0 time=2
control_change channel=6 control=64 value=29 time=0
control_change channel=6 control=64 value=26 time=4
control_change channel=6 control=64 value=23 time=2
control_change channel=6 control=64 value=21 time=2
control_change channel=6 control=64 value=19 time=4
control_change channel=6 control=64 value=16 time=2
control_change channel=6 control=64 value=15 time=2
control_change channel=6 control=64 value=13 time=4
control_change channel=6 control=64 value=11 time=2
control_change channel=6 control=64 value=10 time=2
note_on channel=0 note=67 velocity=0 time=1
note_on channel=5 note=79 velocity=0 time=1
control_change channel=6 control=64 value=9 time=2
control_change channel=6 control=64 value=7 time=2
note_on channel=10 note=67 velocity=0 time=4
control_change channel=6 control=64 value=5 time=0
note_on channel=0 note=79 velocity=0 time=1
note_on channel=0 note=71 velocity=0 time=3
control_change channel=6 control=64 value=3 time=0
control_change channel=6 control=64 value=2 time=2
control_change channel=6 control=64 value=1 time=4
control_change channel=6 control=64 value=0 time=2
note_on channel=9 note=36 velocity=127 time=3
note_on channel=9 note=44 velocity=127 time=0
note_on channel=0 note=79 velocity=115 time=1
note_on channel=5 note=79 velocity=58 time=2
note_on channel=4 note=29 velocity=127 time=2
note_on channel=0 note=67 velocity=99 time=1
note_on channel=10 note=67 velocity=83 time=0
note_on channel=4 note=35 velocity=0 time=5
note_on channel=0 note=71 velocity=83 time=2
note_on channel=9 note=44 velocity=0 time=10
control_change channel=6 control=64 value=0 time=0
control_change channel=6 control=64 value=1 time=2
note_on channel=9 note=36 velocity=0 time=1
control_change channel=6 control=64 value=4 time=7
control_change channel=6 control=64 value=9 time=8
control_change channel=6 control=64 value=15 time=14
note_on channel=9 note=44 velocity=97 time=2
control_change channel=6 control=64 value=23 time=14
note_on channel=9 note=44 velocity=0 time=3
control_change channel=6 control=64 value=31 time=9
note_on channel=5 note=81 velocity=64 time=1
note_on channel=0 note=67 velocity=0 time=7
note_on channel=0 note=69 velocity=64 time=0
note_on channel=10 note=69 velocity=92 time=1
note_on channel=5 note=79 velocity=0 time=1
note_on channel=0 note=72 velocity=74 time=0
note_on channel=0 note=79 velocity=0 time=2
note_on channel=0 note=81 velocity=124 time=2
control_change channel=6 control=64 value=37 time=0
note_on channel=10 note=67 velocity=0 time=2
note_on channel=0 note=71 velocity=0 time=1
control_change channel=6 control=64 value=43 time=7
note_on channel=9 note=44 velocity=127 time=8
control_change channel=6 control=64 value=48 time=4
control_change channel=6 control=64 value=51 time=10
note_on channel=9 note=44 velocity=0 time=5
control_change channel=6 control=64 value=54 time=1
control_change channel=6 control=64 value=58 time=8
control_change channel=6 control=64 value=60 time=8
control_change channel=6 control=64 value=63 time=4
control_change channel=6 control=64 value=64 time=4
control_change channel=6 control=64 value=65 time=4
control_change channel=6 control=64 value=66 time=6
note_on channel=10 note=71 velocity=78 time=3
note_on channel=0 note=74 velocity=67 time=1
note_on channel=5 note=83 velocity=51 time=2
control_change channel=6 control=64 value=67 time=0
note_on channel=0 note=71 velocity=119 time=1
note_on channel=0 note=83 velocity=97 time=2
control_change channel=6 control=64 value=68 time=3
note_on channel=9 note=44 velocity=127 time=0
note_on channel=0 note=69 velocity=0 time=2
note_on channel=0 note=72 velocity=0 time=0
note_on channel=10 note=69 velocity=0 time=1
note_on channel=5 note=81 velocity=0 time=0
control_change channel=6 control=64 value=70 time=3
note_on channel=9 note=44 velocity=0 time=12
control_change channel=6 control=64 value=71 time=8
note_on channel=0 note=81 velocity=0 time=7
control_change channel=6 control=64 value=72 time=5
control_change channel=6 control=64 value=73 time=16
note_on channel=9 note=47 velocity=127 time=1
note_on channel=10 note=71 velocity=0 time=4
note_on channel=9 note=40 velocity=127 time=0
note_on channel=10 note=72 velocity=86 time=0
control_change channel=6 control=64 value=74 time=3
note_on channel=0 note=84 velocity=88 time=2
note_on channel=0 note=83 velocity=0 time=1
note_on channel=0 note=76 velocity=70 time=1
note_on channel=5 note=84 velocity=60 time=0
note_on channel=5 note=83 velocity=0 time=1
note_on channel=0 note=72 velocity=127 time=0
note_on channel=4 note=29 velocity=0 time=1
note_on channel=0 note=74 velocity=0 time=3
note_on channel=0 note=71 velocity=0 time=0
note_on channel=4 note=34 velocity=124 time=0
note_on channel=9 note=40 velocity=0 time=10
note_on channel=9 note=47 velocity=0 time=3
control_change channel=0 control=10 value=64 time=34
control_change channel=1 control=7 value=83 time=0
control_change channel=1 control=10 value=64 time=0
control_change channel=2 control=7 value=127 time=0
control_change channel=2 control=10 value=64 time=0
control_change channel=3 control=7 value=104 time=0
control_change channel=3 control=10 value=64 time=0
control_change channel=4 control=7 value=127 time=0
control_change channel=4 control=10 value=64 time=0
control_change channel=5 control=7 value=127 time=0
control_change channel=5 control=10 value=64 time=0
control_change channel=6 control=7 value=127 time=0
control_change channel=6 control=10 value=64 time=0
control_change channel=7 control=7 value=81 time=0
control_change channel=7 control=10 value=64 time=0
control_change channel=8 control=7 value=95 time=0
control_change channel=8 control=10 value=64 time=0
control_change channel=9 control=7 value=78 time=0
control_change channel=9 control=10 value=64 time=0
note_on channel=9 note=44 velocity=115 time=0
control_change channel=10 control=7 value=124 time=0
control_change channel=10 control=10 value=64 time=0
control_change channel=11 control=7 value=127 time=0
control_change channel=11 control=10 value=64 time=0
control_change channel=12 control=7 value=127 time=0
control_change channel=12 control=10 value=64 time=0
control_change channel=13 control=7 value=127 time=0
control_change channel=13 control=10 value=64 time=0
control_change channel=14 control=7 value=127 time=0
control_change channel=14 control=10 value=64 time=0
control_change channel=15 control=7 value=127 time=0
control_change channel=15 control=10 value=64 time=0
note_on channel=9 note=44 velocity=0 time=18
note_on channel=0 note=84 velocity=0 time=41
note_on channel=0 note=77 velocity=86 time=0
note_on channel=0 note=76 velocity=0 time=1
note_on channel=5 note=84 velocity=0 time=0
note_on channel=0 note=65 velocity=66 time=0
note_on channel=10 note=65 velocity=92 time=0
note_on channel=10 note=72 velocity=0 time=1
note_on channel=0 note=69 velocity=81 time=0
note_on channel=5 note=77 velocity=62 time=2
control_change channel=6 control=64 value=73 time=1
note_on channel=0 note=72 velocity=0 time=3
note_on channel=9 note=44 velocity=105 time=1
control_change channel=6 control=64 value=72 time=4
control_change channel=6 control=64 value=69 time=6
note_on channel=9 note=44 velocity=0 time=7
control_change channel=6 control=64 value=67 time=1
control_change channel=6 control=64 value=65 time=8
control_change channel=6 control=64 value=64 time=6
control_change channel=6 control=64 value=62 time=10
control_change channel=6 control=64 value=61 time=8
control_change channel=6 control=64 value=59 time=6
note_on channel=9 note=44 velocity=127 time=1
control_change channel=6 control=64 value=57 time=7
note_on channel=9 note=44 velocity=0 time=8
control_change channel=6 control=64 value=53 time=0
note_on channel=0 note=65 velocity=0 time=1
control_change channel=6 control=64 value=51 time=3
control_change channel=6 control=64 value=48 time=4
control_change channel=6 control=64 value=47 time=2
note_on channel=0 note=77 velocity=0 time=2
note_on channel=0 note=69 velocity=0 time=0
control_change channel=6 control=64 value=44 time=0
control_change channel=6 control=64 value=41 time=4
control_change channel=6 control=64 value=38 time=2
control_change channel=6 control=64 value=35 time=2
control_change channel=6 control=64 value=31 time=4
control_change channel=6 control=64 value=26 time=2
control_change channel=6 control=64 value=19 time=2
note_on channel=5 note=77 velocity=0 time=1
note_on channel=4 note=34 velocity=0 time=3
control_change channel=6 control=64 value=15 time=0
control_change channel=6 control=64 value=13 time=2
control_change channel=6 control=64 value=10 time=2
note_on channel=4 note=29 velocity=115 time=1
control_change channel=6 control=64 value=9 time=1
note_on channel=0 note=76 velocity=97 time=1
note_on channel=0 note=64 velocity=92 time=1
control_change channel=6 control=64 value=7 time=0
note_on channel=10 note=64 velocity=66 time=0
note_on channel=9 note=36 velocity=127 time=1
control_change channel=6 control=64 value=5 time=1
note_on channel=10 note=65 velocity=0 time=1
control_change channel=6 control=64 value=3 time=1
note_on channel=9 note=44 velocity=127 time=1
control_change channel=6 control=64 value=2 time=1
note_on channel=0 note=67 velocity=78 time=2
control_change channel=6 control=64 value=4 time=0
control_change channel=6 control=64 value=8 time=8
note_on channel=5 note=76 velocity=83 time=1
note_on channel=9 note=44 velocity=0 time=8
note_on channel=9 note=36 velocity=0 time=3
control_change channel=6 control=64 value=20 time=0
control_change channel=6 control=64 value=32 time=12
control_change channel=6 control=64 value=38 time=10
control_change channel=6 control=64 value=40 time=6
note_on channel=9 note=44 velocity=105 time=4
control_change channel=6 control=64 value=42 time=4
note_on channel=10 note=65 velocity=78 time=7
control_change channel=6 control=64 value=43 time=5
note_on channel=9 note=44 velocity=0 time=4
note_on channel=10 note=64 velocity=0 time=1
control_change channel=6 control=64 value=44 time=1
note_on channel=0 note=65 velocity=78 time=3
note_on channel=0 note=77 velocity=124 time=0
note_on channel=5 note=77 velocity=74 time=0
note_on channel=0 note=69 velocity=65 time=3
note_on channel=5 note=76 velocity=0 time=2
note_on channel=0 note=76 velocity=0 time=1
control_change channel=6 control=64 value=46 time=1
note_on channel=0 note=64 velocity=0 time=1
note_on channel=0 note=67 velocity=0 time=9
control_change channel=6 control=64 value=50 time=0
control_change channel=6 control=64 value=54 time=10
note_on channel=9 note=44 velocity=119 time=6
control_change channel=6 control=64 value=59 time=8
note_on channel=9 note=44 velocity=0 time=10
control_change channel=6 control=64 value=63 time=6
control_change channel=6 control=64 value=65 time=14
note_on channel=10 note=67 velocity=105 time=4
note_on channel=5 note=79 velocity=82 time=7
note_on channel=10 note=65 velocity=0 time=1
control_change channel=6 control=64 value=68 time=0
note_on channel=0 note=79 velocity=99 time=1
note_on channel=0 note=67 velocity=97 time=2
note_on channel=0 note=71 velocity=51 time=3
note_on channel=9 note=44 velocity=119 time=1
control_change channel=6 control=64 value=71 time=1
note_on channel=5 note=77 velocity=0 time=2
note_on channel=0 note=77 velocity=0 time=0
note_on channel=0 note=65 velocity=0 time=2
note_on channel=0 note=69 velocity=0 time=2
control_change channel=6 control=64 value=73 time=2
control_change channel=6 control=64 value=74 time=6
note_on channel=9 note=44 velocity=0 time=6
control_change channel=6 control=64 value=75 time=0
note_on channel=0 note=79 velocity=0 time=17
note_on channel=0 note=67 velocity=0 time=0
note_on channel=4 note=34 velocity=124 time=11
control_change channel=6 control=64 value=74 time=8
note_on channel=0 note=71 velocity=0 time=3
note_on channel=0 note=60 velocity=99 time=2
note_on channel=10 note=67 velocity=0 time=3
note_on channel=9 note=47 velocity=127 time=0
note_on channel=9 note=40 velocity=127 time=0
note_on channel=0 note=72 velocity=102 time=2
note_on channel=0 note=64 velocity=79 time=2
note_on channel=10 note=60 velocity=97 time=1
note_on channel=5 note=79 velocity=0 time=1
control_change channel=6 control=64 value=73 time=0
note_on channel=5 note=72 velocity=56 time=7
control_change channel=6 control=64 value=71 time=1
note_on channel=4 note=29 velocity=0 time=6
note_on channel=9 note=40 velocity=0 time=4
control_change channel=6 control=64 value=69 time=0
note_on channel=9 note=47 velocity=0 time=5
control_change channel=6 control=64 value=66 time=11
control_change channel=6 control=64 value=62 time=14
note_on channel=9 note=44 velocity=119 time=8
control_change channel=6 control=64 value=59 time=2
note_on channel=0 note=60 velocity=0 time=9
control_change channel=6 control=64 value=55 time=3
note_on channel=9 note=44 velocity=0 time=2
control_change channel=6 control=64 value=52 time=6
control_change channel=6 control=64 value=47 time=8
note_on channel=0 note=64 velocity=0 time=4
control_change channel=6 control=64 value=42 time=0
note_on channel=0 note=72 velocity=0 time=1
control_change channel=6 control=64 value=38 time=5
note_on channel=10 note=60 velocity=0 time=1
note_on channel=5 note=72 velocity=0 time=3
control_change channel=6 control=64 value=35 time=2
control_change channel=6 control=64 value=31 time=2
control_change channel=6 control=64 value=27 time=2
note_on channel=0 note=72 velocity=127 time=3
control_change channel=6 control=64 value=24 time=1
control_change channel=6 control=64 value=21 time=2
control_change channel=6 control=64 value=19 time=2
note_on channel=0 note=60 velocity=86 time=2
note_on channel=10 note=60 velocity=88 time=0
control_change channel=6 control=64 value=15 time=2
note_on channel=9 note=44 velocity=97 time=0
control_change channel=6 control=64 value=13 time=2
note_on channel=5 note=72 velocity=64 time=2
control_change channel=6 control=64 value=9 time=0
note_on channel=0 note=64 velocity=92 time=1
note_on channel=9 note=44 velocity=0 time=9
note_on channel=9 note=44 velocity=108 time=42
note_on channel=9 note=44 velocity=0 time=16
control_change channel=0 control=7 value=106 time=15
control_change channel=0 control=7 value=107 time=10
note_on channel=0 note=69 velocity=86 time=10
note_on channel=0 note=77 velocity=127 time=1
note_on channel=0 note=65 velocity=127 time=0
note_on channel=5 note=72 velocity=0 time=1
note_on channel=0 note=72 velocity=0 time=4
note_on channel=5 note=77 velocity=67 time=0
note_on channel=0 note=64 velocity=0 time=1
note_on channel=10 note=65 velocity=97 time=2
note_on channel=4 note=34 velocity=0 time=1
note_on channel=9 note=36 velocity=127 time=0
note_on channel=4 note=38 velocity=105 time=1
note_on channel=9 note=44 velocity=127 time=0
note_on channel=0 note=60 velocity=0 time=1
note_on channel=10 note=60 velocity=0 time=6
note_on channel=9 note=44 velocity=0 time=18
note_on channel=9 note=44 velocity=99 time=34
note_on channel=9 note=44 velocity=0 time=19
note_on channel=5 note=77 velocity=0 time=25
note_on channel=0 note=65 velocity=0 time=0
note_on channel=4 note=38 velocity=0 time=2
note_on channel=0 note=77 velocity=0 time=1
note_on channel=5 note=76 velocity=67 time=1
note_on channel=4 note=40 velocity=112 time=1
note_on channel=10 note=64 velocity=65 time=1
note_on channel=0 note=64 velocity=119 time=1
note_on channel=0 note=76 velocity=127 time=1
note_on channel=0 note=69 velocity=0 time=2
note_on channel=10 note=65 velocity=0 time=1
note_on channel=0 note=67 velocity=59 time=1
note_on channel=9 note=44 velocity=119 time=3
note_on channel=9 note=44 velocity=0 time=17
note_on channel=9 note=36 velocity=0 time=1
note_on channel=9 note=44 velocity=102 time=44
note_on channel=9 note=44 velocity=0 time=15
note_on channel=0 note=64 velocity=0 time=24
note_on channel=4 note=41 velocity=119 time=6
note_on channel=0 note=76 velocity=0 time=1
note_on channel=0 note=62 velocity=115 time=1
note_on channel=0 note=74 velocity=127 time=2
note_on channel=0 note=67 velocity=0 time=2
note_on channel=0 note=65 velocity=94 time=1
note_on channel=9 note=44 velocity=127 time=1
note_on channel=9 note=40 velocity=127 time=1
note_on channel=10 note=62 velocity=99 time=1
note_on channel=4 note=40 velocity=0 time=1
note_on channel=10 note=64 velocity=0 time=2
control_change channel=0 control=64 value=127 time=6
control_change channel=0 control=64 value=127 time=0
control_change channel=0 control=64 value=127 time=0
note_on channel=5 note=74 velocity=75 time=0
note_on channel=5 note=76 velocity=0 time=1
note_on channel=9 note=40 velocity=0 time=26
control_change channel=0 control=64 value=0 time=8
control_change channel=0 control=64 value=0 time=0
control_change channel=0 control=64 value=0 time=0
note_on channel=9 note=44 velocity=0 time=26
note_on channel=9 note=40 velocity=81 time=46
note_on channel=9 note=40 velocity=127 time=3
note_on channel=9 note=44 velocity=127 time=1
note_on channel=9 note=40 velocity=127 time=0
note_on channel=9 note=40 velocity=0 time=13
control_change channel=0 control=7 value=106 time=0
note_on channel=9 note=40 velocity=0 time=3
note_on channel=9 note=44 velocity=0 time=4
control_change channel=0 control=7 value=105 time=5
note_on channel=9 note=40 velocity=0 time=3
control_change channel=0 control=7 value=103 time=5
control_change channel=0 control=7 value=102 time=5
control_change channel=0 control=7 value=100 time=10
note_on channel=9 note=44 velocity=105 time=0
control_change channel=0 control=7 value=99 time=10
note_on channel=9 note=40 velocity=77 time=11
note_on channel=9 note=44 velocity=0 time=4
control_change channel=0 control=7 value=97 time=5
note_on channel=9 note=40 velocity=0 time=2
note_on channel=0 note=62 velocity=0 time=2
note_on channel=0 note=65 velocity=0 time=3
control_change channel=0 control=7 value=96 time=0
note_on channel=0 note=74 velocity=0 time=10
note_on channel=9 note=40 velocity=94 time=0
note_on channel=10 note=62 velocity=0 time=13
note_on channel=5 note=74 velocity=0 time=2
note_on channel=9 note=40 velocity=0 time=2
note_on channel=9 note=40 velocity=81 time=8
note_on channel=4 note=41 velocity=0 time=1
note_on channel=5 note=76 velocity=60 time=0
control_change channel=6 control=64 value=3 time=0
note_on channel=0 note=60 velocity=61 time=4
note_on channel=4 note=40 velocity=124 time=0
control_change channel=6 control=64 value=6 time=0
note_on channel=9 note=36 velocity=127 time=0
note_on channel=10 note=64 velocity=94 time=1
note_on channel=9 note=49 velocity=124 time=1
note_on channel=9 note=40 velocity=0 time=1
control_change channel=0 control=64 value=127 time=14
control_change channel=0 control=64 value=127 time=1
control_change channel=0 control=64 value=127 time=0
control_change channel=6 control=64 value=17 time=2
note_on channel=9 note=49 velocity=0 time=7
control_change channel=0 control=7 value=95 time=0
note_on channel=9 note=36 velocity=0 time=1
note_on channel=0 note=60 velocity=0 time=2
control_change channel=0 control=7 value=94 time=0
note_on channel=0 note=64 velocity=48 time=0
control_change channel=0 control=7 value=92 time=14
control_change channel=6 control=64 value=34 time=0
control_change channel=0 control=7 value=91 time=10
note_on channel=0 note=64 velocity=0 time=6
note_on channel=0 note=67 velocity=50 time=0
note_on channel=9 note=44 velocity=112 time=6
control_change channel=6 control=64 value=53 time=2
note_on channel=9 note=44 velocity=0 time=12
control_change channel=6 control=64 value=66 time=8
note_on channel=0 note=72 velocity=72 time=2
control_change channel=6 control=64 value=75 time=18
note_on channel=0 note=72 velocity=0 time=12
note_on channel=0 note=67 velocity=0 time=0
note_on channel=0 note=76 velocity=57 time=0
control_change channel=6 control=64 value=81 time=2
note_on channel=9 note=44 velocity=86 time=2
control_change channel=6 control=64 value=86 time=10
note_on channel=9 note=44 velocity=0 time=5
control_change channel=6 control=64 value=96 time=3
note_on channel=0 note=76 velocity=0 time=8
note_on channel=0 note=79 velocity=65 time=0
control_change channel=6 control=64 value=106 time=2
control_change channel=6 control=64 value=113 time=6
control_change channel=6 control=64 value=121 time=8
control_change channel=6 control=64 value=127 time=4
note_on channel=0 note=79 velocity=0 time=10
note_on channel=0 note=84 velocity=68 time=0
note_on channel=9 note=44 velocity=94 time=0
note_on channel=9 note=44 velocity=0 time=14
control_change channel=0 control=7 value=92 time=5
note_on channel=0 note=88 velocity=124 time=11
note_on channel=0 note=88 velocity=0 time=30
note_on channel=0 note=84 velocity=0 time=0
note_on channel=0 note=91 velocity=127 time=0
note_on channel=9 note=47 velocity=105 time=3
note_on channel=9 note=45 velocity=94 time=1
note_on channel=9 note=40 velocity=127 time=5
note_on channel=0 note=91 velocity=0 time=21
note_on channel=0 note=88 velocity=108 time=0
note_on channel=9 note=40 velocity=0 time=3
note_on channel=9 note=45 velocity=0 time=2
note_on channel=9 note=47 velocity=0 time=4
note_on channel=10 note=64 velocity=0 time=10
note_on channel=5 note=76 velocity=0 time=7
note_on channel=10 note=55 velocity=52 time=0
note_on channel=5 note=67 velocity=64 time=3
note_on channel=0 note=88 velocity=0 time=1
note_on channel=0 note=84 velocity=84 time=0
note_on channel=9 note=44 velocity=99 time=4
note_on channel=9 note=44 velocity=0 time=21
note_on channel=0 note=79 velocity=90 time=5
note_on channel=0 note=79 velocity=0 time=30
note_on channel=0 note=84 velocity=0 time=0
note_on channel=0 note=76 velocity=127 time=0
note_on channel=9 note=44 velocity=108 time=0
note_on channel=5 note=72 velocity=36 time=5
note_on channel=10 note=60 velocity=79 time=0
note_on channel=10 note=55 velocity=0 time=6
note_on channel=9 note=44 velocity=0 time=5
note_on channel=5 note=67 velocity=0 time=8
note_on channel=0 note=76 velocity=0 time=6
note_on channel=0 note=72 velocity=70 time=0
control_change channel=6 control=64 value=123 time=22
note_on channel=0 note=67 velocity=68 time=8
note_on channel=5 note=76 velocity=85 time=1
control_change channel=6 control=64 value=115 time=1
note_on channel=10 note=64 velocity=94 time=0
note_on channel=9 note=44 velocity=102 time=1
note_on channel=10 note=60 velocity=0 time=1
control_change channel=6 control=64 value=108 time=4
note_on channel=5 note=72 velocity=0 time=3
control_change channel=6 control=64 value=102 time=1
control_change channel=6 control=64 value=97 time=6
note_on channel=9 note=44 velocity=0 time=2
control_change channel=6 control=64 value=90 time=4
note_on channel=0 note=72 velocity=0 time=6
note_on channel=0 note=67 velocity=0 time=0
note_on channel=0 note=64 velocity=70 time=0
control_change channel=0 control=7 value=91 time=2
control_change channel=6 control=64 value=83 time=0
control_change channel=6 control=64 value=78 time=4
note_on channel=5 note=76 velocity=0 time=6
control_change channel=6 control=64 value=72 time=2
note_on channel=4 note=40 velocity=0 time=3
control_change channel=6 control=64 value=66 time=3
control_change channel=6 control=64 value=2 time=2
control_change channel=0 control=7 value=89 time=4
control_change channel=6 control=64 value=0 time=0
control_change channel=6 control=64 value=3 time=2
note_on channel=0 note=64 velocity=0 time=2
note_on channel=0 note=62 velocity=65 time=0
note_on channel=4 note=45 velocity=108 time=0
control_change channel=6 control=64 value=6 time=0
control_change channel=6 control=64 value=3 time=2
control_change channel=6 control=64 value=2 time=2
note_on channel=9 note=36 velocity=127 time=1
control_change channel=0 control=64 value=0 time=1
control_change channel=0 control=64 value=0 time=0
control_change channel=0 control=64 value=0 time=0
note_on channel=5 note=78 velocity=97 time=1
note_on channel=9 note=44 velocity=127 time=0
note_on channel=10 note=64 velocity=0 time=3
note_on channel=10 note=66 velocity=88 time=3
note_on channel=9 note=44 velocity=0 time=15
note_on channel=0 note=66 velocity=79 time=2
note_on channel=9 note=36 velocity=0 time=8
note_on channel=9 note=44 velocity=88 time=20
note_on channel=0 note=69 velocity=55 time=2
note_on channel=9 note=44 velocity=0 time=17
note_on channel=0 note=74 velocity=36 time=13
note_on channel=0 note=78 velocity=55 time=30
note_on channel=9 note=44 velocity=108 time=0
note_on channel=9 note=44 velocity=0 time=18
note_on channel=0 note=78 velocity=0 time=12
note_on channel=0 note=74 velocity=0 time=0
note_on channel=0 note=69 velocity=0 time=0
note_on channel=0 note=66 velocity=0 time=0
note_on channel=0 note=62 velocity=0 time=0
note_on channel=0 note=81 velocity=37 time=0
note_on channel=0 note=81 velocity=0 time=30
control_change channel=0 control=64 value=127 time=0
note_on channel=0 note=86 velocity=66 time=0
note_on channel=9 note=44 velocity=119 time=0
note_on channel=9 note=44 velocity=0 time=21
note_on channel=0 note=86 velocity=0 time=9
note_on channel=0 note=90 velocity=103 time=0
note_on channel=10 note=66 velocity=0 time=3
note_on channel=9 note=40 velocity=127 time=19
note_on channel=9 note=47 velocity=108 time=2
note_on channel=0 note=90 velocity=0 time=6
note_on channel=0 note=93 velocity=127 time=0
note_on channel=9 note=44 velocity=90 time=0
note_on channel=9 note=44 velocity=0 time=6
note_on channel=9 note=40 velocity=0 time=12
note_on channel=9 note=47 velocity=0 time=5
note_on channel=0 note=93 velocity=0 time=7
note_on channel=0 note=90 velocity=29 time=0
note_on channel=5 note=78 velocity=0 time=1
control_change channel=0 control=7 value=90 time=0
note_on channel=9 note=44 velocity=105 time=24
note_on channel=0 note=90 velocity=0 time=5
note_on channel=0 note=86 velocity=94 time=0
note_on channel=5 note=78 velocity=78 time=1
note_on channel=9 note=44 velocity=0 time=14
note_on channel=10 note=66 velocity=73 time=0
note_on channel=0 note=86 velocity=0 time=15
note_on channel=0 note=81 velocity=84 time=0
note_on channel=10 note=66 velocity=0 time=18
control_change channel=0 control=7 value=92 time=0
note_on channel=5 note=78 velocity=0 time=3
note_on channel=9 note=44 velocity=99 time=3
note_on channel=5 note=79 velocity=82 time=2
note_on channel=0 note=81 velocity=0 time=4
note_on channel=0 note=78 velocity=77 time=0
note_on channel=10 note=67 velocity=66 time=8
note_on channel=9 note=44 velocity=0 time=7
note_on channel=0 note=78 velocity=0 time=15
note_on channel=0 note=74 velocity=92 time=0
note_on channel=10 note=69 velocity=44 time=19
note_on channel=5 note=81 velocity=53 time=3
note_on channel=5 note=79 velocity=0 time=1
note_on channel=10 note=67 velocity=0 time=5
note_on channel=9 note=44 velocity=112 time=0
note_on channel=0 note=69 velocity=49 time=2
note_on channel=9 note=44 velocity=0 time=14
note_on channel=0 note=69 velocity=0 time=16
note_on channel=0 note=66 velocity=73 time=0
note_on channel=10 note=69 velocity=0 time=16
note_on channel=5 note=81 velocity=0 time=5
note_on channel=9 note=49 velocity=127 time=4
note_on channel=9 note=36 velocity=127 time=2
control_change channel=0 control=64 value=0 time=2
control_change channel=0 control=64 value=0 time=0
control_change channel=0 control=64 value=0 time=0
note_on channel=0 note=66 velocity=0 time=1
note_on channel=0 note=74 velocity=0 time=0
note_on channel=4 note=43 velocity=119 time=0
note_on channel=10 note=69 velocity=69 time=4
note_on channel=0 note=69 velocity=127 time=3
note_on channel=4 note=45 velocity=0 time=2
note_on channel=5 note=81 velocity=97 time=0
note_on channel=0 note=81 velocity=105 time=3
note_on channel=9 note=49 velocity=0 time=15
note_on channel=9 note=36 velocity=0 time=3
note_on channel=9 note=44 velocity=36 time=59
note_on channel=9 note=38 velocity=99 time=25
note_on channel=9 note=44 velocity=0 time=1
note_on channel=9 note=38 velocity=0 time=26
note_on channel=4 note=43 velocity=0 time=18
note_on channel=9 note=49 velocity=124 time=8
note_on channel=9 note=36 velocity=127 time=2
note_on channel=0 note=69 velocity=0 time=8
note_on channel=0 note=71 velocity=127 time=2
note_on channel=0 note=81 velocity=0 time=2
note_on channel=0 note=83 velocity=127 time=0
note_on channel=4 note=43 velocity=92 time=4
note_on channel=10 note=69 velocity=0 time=10
note_on channel=5 note=81 velocity=0 time=2
note_on channel=10 note=71 velocity=92 time=0
note_on channel=5 note=83 velocity=54 time=5
note_on channel=9 note=49 velocity=0 time=5
note_on channel=9 note=36 velocity=0 time=0
note_on channel=9 note=44 velocity=75 time=71
note_on channel=9 note=44 velocity=0 time=21
note_on channel=9 note=38 velocity=84 time=1
control_change channel=1 control=7 value=87 time=4
note_on channel=9 note=38 velocity=0 time=20
note_on channel=4 note=43 velocity=0 time=27
control_change channel=1 control=7 value=88 time=0
note_on channel=10 note=71 velocity=0 time=22
note_on channel=5 note=79 velocity=78 time=0
note_on channel=9 note=49 velocity=119 time=0
note_on channel=9 note=36 velocity=127 time=0
note_on channel=10 note=67 velocity=90 time=0
note_on channel=0 note=79 velocity=127 time=1
note_on channel=0 note=67 velocity=90 time=0
note_on channel=5 note=83 velocity=0 time=1
note_on channel=4 note=41 velocity=115 time=0
note_on channel=0 note=83 velocity=0 time=2
note_on channel=0 note=71 velocity=0 time=2
note_on channel=11 note=60 velocity=112 time=173
note_on channel=2 note=60 velocity=97 time=3
note_on channel=14 note=60 velocity=97 time=0
note_on channel=2 note=72 velocity=97 time=1
note_on channel=11 note=72 velocity=97 time=0
note_on channel=14 note=72 velocity=97 time=0
note_on channel=11 note=60 velocity=0 time=8
note_on channel=0 note=67 velocity=0 time=2
note_on channel=0 note=79 velocity=0 time=5
note_on channel=2 note=60 velocity=0 time=2
note_on channel=14 note=60 velocity=0 time=0
note_on channel=11 note=72 velocity=0 time=1
note_on channel=2 note=72 velocity=0 time=0
note_on channel=14 note=72 velocity=0 time=0
note_on channel=11 note=60 velocity=105 time=9
note_on channel=2 note=72 velocity=63 time=1
note_on channel=11 note=72 velocity=63 time=0
note_on channel=14 note=72 velocity=63 time=0
note_on channel=2 note=60 velocity=97 time=1
note_on channel=14 note=60 velocity=97 time=0
note_on channel=4 note=41 velocity=26 time=5
note_on channel=14 note=60 velocity=0 time=13
note_on channel=2 note=60 velocity=0 time=0
note_on channel=11 note=60 velocity=0 time=5
note_on channel=11 note=72 velocity=0 time=2
note_on channel=14 note=72 velocity=0 time=0
note_on channel=2 note=72 velocity=0 time=0
note_on channel=4 note=41 velocity=0 time=9
note_on channel=2 note=74 velocity=127 time=26
note_on channel=2 note=62 velocity=97 time=0
note_on channel=14 note=74 velocity=127 time=0
note_on channel=14 note=62 velocity=97 time=0
note_on channel=11 note=62 velocity=127 time=4
note_on channel=11 note=74 velocity=127 time=3
note_on channel=4 note=41 velocity=38 time=6
note_on channel=14 note=62 velocity=0 time=5
note_on channel=2 note=62 velocity=0 time=0
note_on channel=14 note=74 velocity=0 time=5
note_on channel=2 note=74 velocity=0 time=0
note_on channel=11 note=74 velocity=0 time=7
note_on channel=11 note=62 velocity=0 time=2
note_on channel=4 note=41 velocity=0 time=7
note_on channel=11 note=62 velocity=119 time=25
note_on channel=2 note=74 velocity=119 time=4
note_on channel=11 note=74 velocity=119 time=0
note_on channel=14 note=74 velocity=119 time=0
note_on channel=4 note=41 velocity=43 time=6
note_on channel=2 note=62 velocity=97 time=1
note_on channel=14 note=62 velocity=97 time=0
note_on channel=11 note=62 velocity=0 time=56
note_on channel=14 note=74 velocity=0 time=6
note_on channel=11 note=74 velocity=0 time=0
note_on channel=2 note=74 velocity=0 time=0
note_on channel=2 note=62 velocity=0 time=7
note_on channel=14 note=62 velocity=0 time=0
note_on channel=11 note=64 velocity=127 time=15
note_on channel=2 note=76 velocity=127 time=3
note_on channel=11 note=76 velocity=127 time=0
note_on channel=14 note=76 velocity=127 time=0
note_on channel=2 note=64 velocity=97 time=3
note_on channel=14 note=64 velocity=97 time=0
note_on channel=4 note=48 velocity=38 time=6
note_on channel=9 note=36 velocity=0 time=2
note_on channel=4 note=41 velocity=0 time=5
note_on channel=2 note=64 velocity=0 time=5
note_on channel=14 note=64 velocity=0 time=0
note_on channel=9 note=49 velocity=0 time=3
note_on channel=4 note=48 velocity=0 time=3
note_on channel=2 note=76 velocity=0 time=18
note_on channel=11 note=76 velocity=0 time=0
note_on channel=14 note=76 velocity=0 time=0
note_on channel=11 note=64 velocity=0 time=2
note_on channel=2 note=72 velocity=99 time=60
note_on channel=11 note=72 velocity=99 time=0
note_on channel=14 note=72 velocity=99 time=0
note_on channel=2 note=60 velocity=97 time=1
note_on channel=14 note=60 velocity=97 time=0
note_on channel=11 note=60 velocity=127 time=1
note_on channel=14 note=72 velocity=0 time=13
note_on channel=2 note=72 velocity=0 time=0
note_on channel=11 note=72 velocity=0 time=0
note_on channel=11 note=60 velocity=0 time=3
note_on channel=14 note=60 velocity=0 time=1
note_on channel=2 note=60 velocity=0 time=0
note_on channel=2 note=72 velocity=97 time=11
note_on channel=11 note=60 velocity=115 time=0
note_on channel=11 note=72 velocity=97 time=0
note_on channel=14 note=72 velocity=97 time=0
note_on channel=2 note=60 velocity=97 time=1
note_on channel=14 note=60 velocity=97 time=0
note_on channel=5 note=79 velocity=0 time=15
note_on channel=4 note=41 velocity=34 time=1
note_on channel=14 note=60 velocity=0 time=2
note_on channel=2 note=60 velocity=0 time=0
note_on channel=10 note=67 velocity=0 time=4
note_on channel=11 note=60 velocity=0 time=3
note_on channel=11 note=72 velocity=0 time=3
note_on channel=2 note=72 velocity=0 time=0
note_on channel=14 note=72 velocity=0 time=0
note_on channel=4 note=41 velocity=0 time=15
note_on channel=4 note=41 velocity=0 time=15
note_on channel=2 note=62 velocity=97 time=2
note_on channel=14 note=62 velocity=97 time=0
note_on channel=11 note=62 velocity=127 time=1
note_on channel=2 note=74 velocity=127 time=4
note_on channel=11 note=74 velocity=127 time=0
note_on channel=14 note=74 velocity=127 time=0
note_on channel=4 note=41 velocity=44 time=10
note_on channel=14 note=62 velocity=0 time=3
note_on channel=2 note=62 velocity=0 time=0
note_on channel=11 note=62 velocity=0 time=9
note_on channel=11 note=74 velocity=0 time=3
note_on channel=2 note=74 velocity=0 time=0
note_on channel=14 note=74 velocity=0 time=0
note_on channel=4 note=41 velocity=0 time=9
note_on channel=11 note=64 velocity=127 time=23
note_on channel=2 note=76 velocity=127 time=7
note_on channel=11 note=76 velocity=127 time=0
note_on channel=14 note=76 velocity=127 time=0
note_on channel=2 note=64 velocity=97 time=6
note_on channel=14 note=64 velocity=97 time=0
note_on channel=4 note=41 velocity=39 time=6
note_on channel=14 note=64 velocity=0 time=12
note_on channel=2 note=64 velocity=0 time=0
note_on channel=11 note=64 velocity=0 time=6
note_on channel=14 note=76 velocity=0 time=27
note_on channel=2 note=76 velocity=0 time=0
note_on channel=11 note=76 velocity=0 time=0
note_on channel=4 note=41 velocity=0 time=19
note_on channel=11 note=67 velocity=127 time=14
note_on channel=2 note=79 velocity=115 time=3
note_on channel=11 note=79 velocity=115 time=0
note_on channel=14 note=79 velocity=115 time=0
note_on channel=2 note=67 velocity=97 time=3
note_on channel=14 note=67 velocity=97 time=0
note_on channel=4 note=41 velocity=42 time=5
note_on channel=14 note=67 velocity=0 time=13
note_on channel=2 note=67 velocity=0 time=0
note_on channel=11 note=67 velocity=0 time=21
note_on channel=4 note=41 velocity=0 time=3
note_on channel=2 note=79 velocity=0 time=5
note_on channel=14 note=79 velocity=0 time=0
note_on channel=11 note=79 velocity=0 time=0
pitchwheel channel=7 pitch=-358 time=26
pitchwheel channel=7 pitch=-358 time=0
pitchwheel channel=7 pitch=-358 time=0
pitchwheel channel=7 pitch=-597 time=11
pitchwheel channel=7 pitch=-597 time=0
pitchwheel channel=7 pitch=-597 time=0
note_on channel=11 note=72 velocity=88 time=6
pitchwheel channel=7 pitch=-955 time=1
pitchwheel channel=7 pitch=-955 time=1
pitchwheel channel=7 pitch=-955 time=0
note_on channel=11 note=60 velocity=127 time=2
pitchwheel channel=7 pitch=-1364 time=5
note_on channel=2 note=72 velocity=88 time=1
pitchwheel channel=7 pitch=-1364 time=0
pitchwheel channel=7 pitch=-1364 time=0
note_on channel=14 note=72 velocity=88 time=0
note_on channel=2 note=60 velocity=97 time=5
note_on channel=14 note=60 velocity=97 time=0
pitchwheel channel=7 pitch=-1706 time=5
pitchwheel channel=7 pitch=-1706 time=0
pitchwheel channel=7 pitch=-1706 time=1
note_on channel=2 note=62 velocity=97 time=9
note_on channel=14 note=62 velocity=97 time=0
note_on channel=14 note=60 velocity=0 time=3
note_on channel=11 note=72 velocity=0 time=0
note_on channel=2 note=60 velocity=0 time=0
note_on channel=2 note=74 velocity=102 time=0
note_on channel=11 note=74 velocity=102 time=0
note_on channel=14 note=74 velocity=102 time=0
note_on channel=11 note=62 velocity=127 time=1
note_on channel=11 note=60 velocity=0 time=5
note_on channel=14 note=72 velocity=0 time=4
note_on channel=2 note=72 velocity=0 time=0
note_on channel=2 note=62 velocity=0 time=5
note_on channel=14 note=62 velocity=0 time=0
pitchwheel channel=7 pitch=-2048 time=7
pitchwheel channel=7 pitch=-2048 time=0
pitchwheel channel=7 pitch=-2048 time=0
note_on channel=2 note=64 velocity=97 time=5
note_on channel=14 note=64 velocity=97 time=0
note_on channel=2 note=76 velocity=127 time=1
note_on channel=11 note=76 velocity=127 time=0
note_on channel=14 note=76 velocity=127 time=0
note_on channel=11 note=64 velocity=127 time=6
note_on channel=11 note=74 velocity=0 time=2
note_on channel=14 note=74 velocity=0 time=0
note_on channel=2 note=74 velocity=0 time=0
note_on channel=2 note=64 velocity=0 time=9
note_on channel=14 note=64 velocity=0 time=0
note_on channel=11 note=62 velocity=0 time=4
note_on channel=14 note=76 velocity=0 time=11
note_on channel=11 note=76 velocity=0 time=0
note_on channel=2 note=76 velocity=0 time=0
note_on channel=11 note=64 velocity=0 time=1
note_on channel=9 note=40 velocity=127 time=20
note_on channel=2 note=67 velocity=97 time=6
note_on channel=5 note=78 velocity=56 time=0
note_on channel=9 note=47 velocity=100 time=0
note_on channel=14 note=67 velocity=97 time=0
note_on channel=4 note=41 velocity=37 time=2
note_on channel=2 note=79 velocity=127 time=4
note_on channel=11 note=79 velocity=127 time=0
note_on channel=14 note=79 velocity=127 time=0
note_on channel=10 note=78 velocity=80 time=3
note_on channel=11 note=67 velocity=127 time=3
note_on channel=9 note=47 velocity=127 time=1
note_on channel=14 note=67 velocity=0 time=5
note_on channel=2 note=67 velocity=0 time=0
note_on channel=5 note=79 velocity=85 time=6
note_on channel=4 note=41 velocity=0 time=2
note_on channel=10 note=79 velocity=80 time=5
note_on channel=14 note=79 velocity=0 time=3
note_on channel=11 note=79 velocity=0 time=0
note_on channel=5 note=78 velocity=0 time=0
note_on channel=2 note=79 velocity=0 time=0
note_on channel=11 note=67 velocity=0 time=1
note_on channel=10 note=78 velocity=0 time=7
note_on channel=9 note=40 velocity=0 time=7
note_on channel=5 note=81 velocity=62 time=2
note_on channel=10 note=81 velocity=75 time=5
note_on channel=9 note=47 velocity=0 time=4
note_on channel=9 note=47 velocity=0 time=0
note_on channel=2 note=69 velocity=97 time=0
note_on channel=2 note=81 velocity=127 time=0
note_on channel=4 note=38 velocity=88 time=0
note_on channel=9 note=49 velocity=100 time=0
note_on channel=9 note=36 velocity=108 time=0
note_on channel=9 note=44 velocity=100 time=0
note_on channel=14 note=69 velocity=97 time=0
note_on channel=14 note=81 velocity=127 time=0
note_on channel=5 note=79 velocity=0 time=1
control_change channel=13 control=93 value=121 time=1
note_on channel=10 note=79 velocity=0 time=4
note_on channel=11 note=81 velocity=127 time=4
note_on channel=11 note=69 velocity=127 time=0
note_on channel=13 note=62 velocity=88 time=0
pitchwheel channel=7 pitch=-1535 time=5
pitchwheel channel=7 pitch=-1535 time=0
pitchwheel channel=7 pitch=-1535 time=0
note_on channel=7 note=81 velocity=94 time=1
note_on channel=7 note=93 velocity=99 time=0
note_on channel=14 note=69 velocity=0 time=2
note_on channel=2 note=69 velocity=0 time=0
pitchwheel channel=7 pitch=-1074 time=1
pitchwheel channel=7 pitch=-1074 time=0
pitchwheel channel=7 pitch=-1074 time=0
pitchwheel channel=7 pitch=0 time=2
pitchwheel channel=7 pitch=0 time=1
pitchwheel channel=7 pitch=0 time=0
note_on channel=9 note=36 velocity=0 time=23
note_on channel=13 note=62 velocity=0 time=1
note_on channel=9 note=49 velocity=0 time=14
note_on channel=9 note=44 velocity=0 time=0
note_on channel=4 note=38 velocity=0 time=0
note_on channel=9 note=44 velocity=100 time=0
note_on channel=14 note=81 velocity=0 time=14
note_on channel=2 note=81 velocity=0 time=0
pitchwheel channel=11 pitch=-358 time=11
pitchwheel channel=11 pitch=-358 time=0
note_on channel=7 note=81 velocity=0 time=1
pitchwheel channel=11 pitch=-358 time=0
note_on channel=7 note=93 velocity=0 time=1
pitchwheel channel=11 pitch=-597 time=2
pitchwheel channel=11 pitch=-597 time=0
note_on channel=9 note=40 velocity=108 time=1
pitchwheel channel=11 pitch=-597 time=0
note_on channel=12 note=62 velocity=127 time=0
pitchwheel channel=11 pitch=-955 time=3
pitchwheel channel=11 pitch=-955 time=0
pitchwheel channel=11 pitch=-955 time=0
note_on channel=13 note=62 velocity=84 time=1
pitchwheel channel=11 pitch=-1364 time=1
pitchwheel channel=11 pitch=-1364 time=0
pitchwheel channel=11 pitch=-1364 time=1
pitchwheel channel=11 pitch=-1706 time=4
pitchwheel channel=11 pitch=-1706 time=0
pitchwheel channel=11 pitch=-1706 time=0
pitchwheel channel=11 pitch=-2147 time=4
pitchwheel channel=11 pitch=-2147 time=0
pitchwheel channel=11 pitch=-2147 time=0
note_on channel=11 note=81 velocity=0 time=3
note_on channel=12 note=62 velocity=0 time=1
pitchwheel channel=11 pitch=-2446 time=0
pitchwheel channel=11 pitch=-2446 time=0
pitchwheel channel=11 pitch=-2446 time=0
note_on channel=11 note=69 velocity=0 time=1
pitchwheel channel=11 pitch=-2645 time=3
pitchwheel channel=11 pitch=-2645 time=0
pitchwheel channel=11 pitch=-2645 time=0
pitchwheel channel=11 pitch=-3003 time=2
pitchwheel channel=11 pitch=-3003 time=0
pitchwheel channel=11 pitch=-3003 time=0
control_change channel=13 control=93 value=122 time=0
note_on channel=12 note=62 velocity=67 time=3
note_on channel=13 note=62 velocity=0 time=1
note_on channel=4 note=38 velocity=73 time=1
pitchwheel channel=11 pitch=-3412 time=0
pitchwheel channel=11 pitch=-3412 time=0
note_on channel=9 note=44 velocity=0 time=1
note_on channel=9 note=44 velocity=100 time=0
pitchwheel channel=11 pitch=-3412 time=0
pitchwheel channel=11 pitch=-3754 time=8
pitchwheel channel=11 pitch=-3754 time=0
pitchwheel channel=11 pitch=-3754 time=0
note_on channel=9 note=40 velocity=0 time=7
note_on channel=12 note=62 velocity=0 time=10
pitchwheel channel=11 pitch=-3412 time=0
pitchwheel channel=11 pitch=-3412 time=0
pitchwheel channel=11 pitch=-3412 time=1
pitchwheel channel=11 pitch=-3003 time=0
pitchwheel channel=11 pitch=-3003 time=1
pitchwheel channel=11 pitch=-3003 time=0
pitchwheel channel=11 pitch=-2645 time=1
pitchwheel channel=11 pitch=-2645 time=0
pitchwheel channel=11 pitch=-2645 time=0
pitchwheel channel=11 pitch=-2346 time=1
pitchwheel channel=11 pitch=-2346 time=0
pitchwheel channel=11 pitch=-2346 time=1
pitchwheel channel=11 pitch=-1535 time=1
pitchwheel channel=11 pitch=-1535 time=0
pitchwheel channel=11 pitch=-1535 time=0
pitchwheel channel=11 pitch=-238 time=1
pitchwheel channel=11 pitch=-238 time=0
pitchwheel channel=11 pitch=-238 time=0
pitchwheel channel=11 pitch=0 time=1
pitchwheel channel=11 pitch=0 time=0
pitchwheel channel=11 pitch=0 time=1
note_on channel=12 note=64 velocity=127 time=24
note_on channel=9 note=44 velocity=0 time=2
note_on channel=9 note=35 velocity=108 time=0
note_on channel=9 note=44 velocity=100 time=0
note_on channel=4 note=38 velocity=0 time=5
control_change channel=13 control=93 value=121 time=21
note_on channel=12 note=64 velocity=0 time=3
note_on channel=9 note=35 velocity=0 time=16
note_on channel=12 note=66 velocity=127 time=8
note_on channel=4 note=38 velocity=86 time=4
note_on channel=13 note=62 velocity=84 time=0
note_on channel=9 note=44 velocity=0 time=3
note_on channel=9 note=35 velocity=108 time=0
note_on channel=9 note=44 velocity=100 time=0
note_on channel=9 note=35 velocity=0 time=45
note_on channel=12 note=66 velocity=0 time=5
note_on channel=13 note=62 velocity=0 time=10
note_on channel=9 note=44 velocity=0 time=0
note_on channel=9 note=46 velocity=100 time=0
note_on channel=4 note=38 velocity=0 time=10
control_change channel=13 control=93 value=120 time=8
note_on channel=12 note=69 velocity=127 time=3
note_on channel=13 note=62 velocity=94 time=14
note_on channel=13 note=62 velocity=0 time=17
note_on channel=9 note=46 velocity=0 time=8
note_on channel=4 note=38 velocity=94 time=0
note_on channel=9 note=40 velocity=108 time=0
note_on channel=9 note=44 velocity=100 time=0
note_on channel=12 note=69 velocity=0 time=20
control_change channel=13 control=93 value=121 time=18
note_on channel=9 note=40 velocity=0 time=7
control_change channel=13 control=93 value=122 time=9
note_on channel=4 note=38 velocity=0 time=2
note_on channel=9 note=44 velocity=0 time=4
note_on channel=9 note=44 velocity=100 time=0
note_on channel=12 note=72 velocity=127 time=9
control_change channel=13 control=93 value=124 time=5
note_on channel=9 note=44 velocity=0 time=46
note_on channel=4 note=38 velocity=88 time=0
note_on channel=9 note=35 velocity=108 time=0
note_on channel=9 note=44 velocity=100 time=0
note_on channel=13 note=62 velocity=63 time=7
note_on channel=9 note=35 velocity=0 time=38
note_on channel=2 note=74 velocity=97 time=11
note_on channel=11 note=74 velocity=97 time=0
note_on channel=9 note=44 velocity=0 time=4
note_on channel=9 note=44 velocity=100 time=0
note_on channel=11 note=62 velocity=97 time=0
note_on channel=14 note=74 velocity=97 time=0
note_on channel=13 note=62 velocity=0 time=2
note_on channel=4 note=38 velocity=0 time=6
control_change channel=13 control=93 value=125 time=0
note_on channel=2 note=76 velocity=112 time=7
note_on channel=11 note=64 velocity=97 time=0
note_on channel=11 note=76 velocity=112 time=0
note_on channel=14 note=76 velocity=112 time=4
note_on channel=11 note=74 velocity=0 time=1
note_on channel=2 note=74 velocity=0 time=0
note_on channel=11 note=62 velocity=0 time=4
note_on channel=14 note=74 velocity=0 time=0
note_on channel=9 note=40 velocity=108 time=6
control_change channel=13 control=93 value=126 time=0
note_on channel=11 note=64 velocity=0 time=9
note_on channel=2 note=76 velocity=0 time=0
note_on channel=11 note=76 velocity=0 time=0
note_on channel=13 note=62 velocity=99 time=3
note_on channel=14 note=76 velocity=0 time=1
control_change channel=13 control=93 value=127 time=7
note_on channel=9 note=44 velocity=0 time=10
note_on channel=4 note=38 velocity=94 time=0
note_on channel=9 note=44 velocity=100 time=0
control_change channel=13 control=93 value=125 time=0
control_change channel=13 control=93 value=126 time=4
note_on channel=2 note=78 velocity=124 time=5
note_on channel=11 note=78 velocity=124 time=0
note_on channel=13 note=62 velocity=0 time=1
note_on channel=14 note=78 velocity=124 time=3
note_on channel=9 note=40 velocity=0 time=2
note_on channel=11 note=66 velocity=124 time=0
note_on channel=2 note=78 velocity=0 time=13
note_on channel=11 note=78 velocity=0 time=0
note_on channel=14 note=78 velocity=0 time=4
note_on channel=11 note=66 velocity=0 time=2
note_on channel=9 note=44 velocity=0 time=26
note_on channel=9 note=35 velocity=108 time=0
note_on channel=9 note=44 velocity=100 time=0
note_on channel=11 note=69 velocity=108 time=0
note_on channel=2 note=81 velocity=108 time=4
note_on channel=11 note=81 velocity=108 time=0
note_on channel=14 note=81 velocity=108 time=4
note_on channel=4 note=38 velocity=0 time=6
note_on channel=11 note=69 velocity=0 time=7
note_on channel=11 note=81 velocity=0 time=4
note_on channel=2 note=81 velocity=0 time=0
note_on channel=14 note=81 velocity=0 time=4
note_on channel=9 note=35 velocity=0 time=16
note_on channel=9 note=44 velocity=0 time=15
note_on channel=2 note=81 velocity=115 time=0
note_on channel=2 note=84 velocity=115 time=0
note_on channel=2 note=72 velocity=100 time=0
note_on channel=2 note=72 velocity=127 time=0
note_on channel=2 note=74 velocity=127 time=0
note_on channel=9 note=33 velocity=108 time=0
note_on channel=9 note=44 velocity=100 time=0
note_on channel=11 note=74 velocity=100 time=0
note_on channel=11 note=81 velocity=115 time=0
note_on channel=11 note=84 velocity=115 time=0
note_on channel=11 note=72 velocity=100 time=0
note_on channel=14 note=81 velocity=115 time=4
note_on channel=14 note=72 velocity=100 time=0
note_on channel=14 note=72 velocity=127 time=0
note_on channel=14 note=74 velocity=127 time=0
note_on channel=4 note=38 velocity=94 time=3
note_on channel=11 note=81 velocity=0 time=7
note_on channel=2 note=81 velocity=0 time=0
note_on channel=2 note=84 velocity=0 time=3
note_on channel=11 note=84 velocity=0 time=0
note_on channel=2 note=72 velocity=0 time=1
note_on channel=14 note=81 velocity=0 time=0
note_on channel=2 note=74 velocity=0 time=1
note_on channel=13 note=62 velocity=105 time=1
note_on channel=14 note=72 velocity=0 time=2
note_on channel=14 note=74 velocity=0 time=1
note_on channel=11 note=74 velocity=0 time=7
note_on channel=11 note=72 velocity=0 time=0
note_on channel=2 note=72 velocity=0 time=0
note_on channel=2 note=72 velocity=124 time=0
note_on channel=2 note=84 velocity=127 time=0
note_on channel=2 note=81 velocity=124 time=0
note_on channel=11 note=74 velocity=124 time=0
note_on channel=11 note=72 velocity=124 time=0
note_on channel=11 note=84 velocity=127 time=0
note_on channel=11 note=81 velocity=124 time=0
note_on channel=14 note=72 velocity=0 time=4
note_on channel=14 note=72 velocity=124 time=0
note_on channel=14 note=81 velocity=124 time=0
note_on channel=2 note=74 velocity=127 time=4
note_on channel=2 note=72 velocity=127 time=0
note_on channel=14 note=74 velocity=127 time=4
note_on channel=14 note=72 velocity=127 time=0
note_on channel=9 note=33 velocity=0 time=3
note_on channel=2 note=81 velocity=0 time=9
note_on channel=2 note=72 velocity=0 time=0
note_on channel=11 note=72 velocity=0 time=0
note_on channel=11 note=74 velocity=0 time=0
note_on channel=11 note=81 velocity=0 time=0
note_on channel=14 note=81 velocity=0 time=4
note_on channel=14 note=72 velocity=0 time=0
note_on channel=2 note=84 velocity=0 time=1
note_on channel=11 note=84 velocity=0 time=0
note_on channel=9 note=44 velocity=0 time=1
note_on channel=9 note=44 velocity=100 time=0
note_on channel=2 note=74 velocity=0 time=2
note_on channel=2 note=72 velocity=0 time=0
pitchwheel channel=12 pitch=-119 time=0
pitchwheel channel=12 pitch=-119 time=0
pitchwheel channel=12 pitch=-119 time=1
note_on channel=14 note=72 velocity=0 time=3
note_on channel=14 note=74 velocity=0 time=0
note_on channel=4 note=38 velocity=0 time=4
note_on channel=13 note=62 velocity=0 time=2
pitchwheel channel=12 pitch=-477 time=0
pitchwheel channel=12 pitch=-477 time=0
pitchwheel channel=12 pitch=-477 time=0
note_on channel=2 note=71 velocity=127 time=18
note_on channel=11 note=74 velocity=127 time=0
note_on channel=11 note=71 velocity=127 time=0
note_on channel=2 note=79 velocity=127 time=1
note_on channel=2 note=83 velocity=127 time=0
note_on channel=11 note=79 velocity=127 time=0
note_on channel=11 note=83 velocity=127 time=0
note_on channel=14 note=71 velocity=127 time=3
note_on channel=14 note=79 velocity=127 time=1
note_on channel=2 note=72 velocity=127 time=6
note_on channel=2 note=74 velocity=127 time=1
pitchwheel channel=12 pitch=-716 time=2
pitchwheel channel=12 pitch=-716 time=0
pitchwheel channel=12 pitch=-716 time=1
note_on channel=13 note=62 velocity=78 time=0
note_on channel=14 note=72 velocity=127 time=0
note_on channel=14 note=74 velocity=127 time=1
note_on channel=4 note=38 velocity=83 time=12
note_on channel=9 note=44 velocity=0 time=2
note_on channel=9 note=46 velocity=108 time=0
note_on channel=9 note=44 velocity=100 time=0
pitchwheel channel=12 pitch=-1074 time=0
pitchwheel channel=12 pitch=-1074 time=0
pitchwheel channel=12 pitch=-1074 time=0
note_on channel=13 note=62 velocity=0 time=10
pitchwheel channel=12 pitch=-1535 time=0
pitchwheel channel=12 pitch=-1535 time=0
pitchwheel channel=12 pitch=-1535 time=1
note_on channel=11 note=83 velocity=0 time=14
note_on channel=2 note=83 velocity=0 time=0
note_on channel=2 note=71 velocity=0 time=2
note_on channel=11 note=71 velocity=0 time=0
note_on channel=11 note=74 velocity=0 time=0
note_on channel=2 note=79 velocity=0 time=1
note_on channel=11 note=79 velocity=0 time=0
note_on channel=14 note=71 velocity=0 time=3
note_on channel=14 note=79 velocity=0 time=1
note_on channel=5 note=81 velocity=0 time=3
note_on channel=2 note=72 velocity=0 time=2
note_on channel=2 note=74 velocity=0 time=1
pitchwheel channel=12 pitch=-2048 time=0
pitchwheel channel=12 pitch=-2048 time=0
pitchwheel channel=12 pitch=-2048 time=0
note_on channel=14 note=72 velocity=0 time=3
note_on channel=14 note=74 velocity=0 time=1
note_on channel=9 note=46 velocity=0 time=3
note_on channel=10 note=81 velocity=0 time=5
note_on channel=2 note=69 velocity=127 time=3
note_on channel=2 note=81 velocity=127 time=0
note_on channel=2 note=78 velocity=127 time=0
note_on channel=11 note=69 velocity=127 time=0
note_on channel=11 note=81 velocity=127 time=0
note_on channel=11 note=78 velocity=127 time=0
note_on channel=14 note=69 velocity=127 time=4
note_on channel=14 note=81 velocity=127 time=0
note_on channel=14 note=78 velocity=127 time=0
note_on channel=9 note=44 velocity=0 time=3
note_on channel=4 note=38 velocity=0 time=0
note_on channel=11 note=74 velocity=127 time=0
note_on channel=2 note=72 velocity=127 time=2
note_on channel=2 note=74 velocity=127 time=0
pitchwheel channel=12 pitch=-2346 time=0
pitchwheel channel=12 pitch=-2346 time=0
pitchwheel channel=12 pitch=-2346 time=1
note_on channel=14 note=72 velocity=127 time=3
note_on channel=14 note=74 velocity=127 time=0
note_on channel=10 note=78 velocity=49 time=2
pitchwheel channel=12 pitch=-2545 time=3
pitchwheel channel=12 pitch=-2545 time=0
pitchwheel channel=12 pitch=-2545 time=0
note_on channel=5 note=78 velocity=75 time=1
note_on channel=11 note=78 velocity=0 time=12
note_on channel=2 note=69 velocity=0 time=0
note_on channel=2 note=78 velocity=0 time=0
note_on channel=11 note=69 velocity=0 time=0
note_on channel=11 note=81 velocity=0 time=3
note_on channel=2 note=81 velocity=0 time=0
note_on channel=14 note=69 velocity=0 time=1
note_on channel=14 note=78 velocity=0 time=0
note_on channel=14 note=81 velocity=0 time=3
note_on channel=11 note=74 velocity=0 time=0
note_on channel=10 note=79 velocity=90 time=3
note_on channel=5 note=79 velocity=62 time=1
note_on channel=2 note=74 velocity=0 time=1
note_on channel=2 note=72 velocity=0 time=2
note_on channel=14 note=74 velocity=0 time=2
pitchwheel channel=12 pitch=-835 time=0
pitchwheel channel=12 pitch=-835 time=0
pitchwheel channel=12 pitch=-835 time=1
note_on channel=12 note=72 velocity=0 time=1
note_on channel=14 note=72 velocity=0 time=0
control_change channel=13 control=93 value=127 time=0
pitchwheel channel=12 pitch=0 time=1
pitchwheel channel=12 pitch=0 time=0
pitchwheel channel=12 pitch=0 time=0
note_on channel=10 note=78 velocity=0 time=1
note_on channel=5 note=78 velocity=0 time=1
note_on channel=5 note=81 velocity=60 time=0
note_on channel=5 note=79 velocity=0 time=5
note_on channel=10 note=81 velocity=75 time=9
note_on channel=5 note=81 velocity=0 time=1
note_on channel=4 note=38 velocity=94 time=0
note_on channel=5 note=81 velocity=65 time=0
note_on channel=9 note=36 velocity=108 time=0
note_on channel=9 note=44 velocity=100 time=0
note_on channel=13 note=62 velocity=66 time=0
note_on channel=10 note=79 velocity=0 time=4
note_on channel=9 note=36 velocity=0 time=41
note_on channel=13 note=62 velocity=0 time=8
note_on channel=9 note=44 velocity=0 time=7
note_on channel=9 note=44 velocity=100 time=0
note_on channel=4 note=38 velocity=0 time=4
note_on channel=12 note=62 velocity=127 time=7
note_on channel=9 note=40 velocity=108 time=19
note_on channel=12 note=62 velocity=0 time=2
note_on channel=12 note=62 velocity=86 time=10
note_on channel=13 note=62 velocity=70 time=1
note_on channel=9 note=44 velocity=0 time=17
note_on channel=4 note=38 velocity=66 time=0
note_on channel=9 note=44 velocity=100 time=0
note_on channel=13 note=62 velocity=0 time=7
note_on channel=12 note=62 velocity=0 time=5
note_on channel=9 note=40 velocity=0 time=3
note_on channel=12 note=64 velocity=127 time=29
note_on channel=4 note=38 velocity=0 time=13
note_on channel=9 note=44 velocity=0 time=3
note_on channel=9 note=35 velocity=108 time=0
note_on channel=9 note=44 velocity=100 time=0
note_on channel=12 note=64 velocity=0 time=16
note_on channel=12 note=66 velocity=127 time=24
note_on channel=9 note=35 velocity=0 time=5
note_on channel=13 note=62 velocity=70 time=14
note_on channel=9 note=44 velocity=0 time=1
note_on channel=4 note=38 velocity=81 time=0
note_on channel=9 note=35 velocity=108 time=0
note_on channel=9 note=44 velocity=100 time=0
note_on channel=9 note=35 velocity=0 time=45
note_on channel=12 note=66 velocity=0 time=5
note_on channel=13 note=62 velocity=0 time=7
note_on channel=9 note=44 velocity=0 time=3
note_on channel=9 note=46 velocity=100 time=0
note_on channel=4 note=38 velocity=0 time=13
note_on channel=12 note=69 velocity=127 time=6
note_on channel=13 note=62 velocity=70 time=7
note_on channel=13 note=62 velocity=0 time=26
note_on channel=9 note=46 velocity=0 time=8
note_on channel=9 note=40 velocity=108 time=0
note_on channel=9 note=44 velocity=100 time=0
note_on channel=4 note=38 velocity=90 time=3
note_on channel=9 note=40 velocity=0 time=42
note_on channel=9 note=44 velocity=0 time=15
note_on channel=9 note=44 velocity=100 time=0
note_on channel=4 note=38 velocity=0 time=7
note_on channel=12 note=69 velocity=0 time=44
control_change channel=13 control=93 value=126 time=1
control_change channel=13 control=93 value=125 time=2
note_on channel=12 note=71 velocity=127 time=2
control_change channel=13 control=93 value=126 time=0
note_on channel=12 note=70 velocity=127 time=2
note_on channel=9 note=44 velocity=0 time=2
note_on channel=4 note=38 velocity=84 time=0
note_on channel=9 note=35 velocity=108 time=0
note_on channel=9 note=44 velocity=100 time=0
note_on channel=13 note=62 velocity=60 time=1
note_on channel=12 note=71 velocity=73 time=2
note_on channel=12 note=70 velocity=0 time=5
note_on channel=9 note=35 velocity=0 time=37
note_on channel=9 note=44 velocity=0 time=15
note_on channel=9 note=44 velocity=100 time=0
note_on channel=4 note=38 velocity=0 time=2
note_on channel=13 note=62 velocity=0 time=4
note_on channel=9 note=40 velocity=108 time=24
note_on channel=12 note=74 velocity=127 time=4
note_on channel=12 note=71 velocity=0 time=1
note_on channel=12 note=71 velocity=0 time=4
note_on channel=13 note=62 velocity=44 time=1
pitchwheel channel=2 pitch=0 time=5
pitchwheel channel=2 pitch=0 time=0
pitchwheel channel=2 pitch=0 time=0
note_on channel=9 note=44 velocity=0 time=15
note_on channel=4 note=38 velocity=92 time=0
note_on channel=9 note=44 velocity=100 time=0
note_on channel=13 note=62 velocity=0 time=8
note_on channel=9 note=40 velocity=0 time=7
note_on channel=4 note=38 velocity=0 time=31
note_on channel=9 note=44 velocity=0 time=14
note_on channel=9 note=35 velocity=108 time=0
note_on channel=9 note=44 velocity=100 time=0
note_on channel=12 note=74 velocity=0 time=7
note_on channel=12 note=67 velocity=127 time=9
control_change channel=13 control=7 value=119 time=25
note_on channel=9 note=35 velocity=0 time=4
note_on channel=9 note=44 velocity=0 time=15
note_on channel=2 note=62 velocity=112 time=0
note_on channel=2 note=74 velocity=112 time=0
note_on channel=9 note=33 velocity=108 time=0
note_on channel=9 note=44 velocity=100 time=0
note_on channel=11 note=62 velocity=112 time=0
note_on channel=11 note=74 velocity=112 time=0
note_on channel=14 note=62 velocity=112 time=0
note_on channel=14 note=74 velocity=112 time=0
note_on channel=4 note=38 velocity=115 time=1
control_change channel=13 control=93 value=125 time=5
control_change channel=13 control=7 value=118 time=2
note_on channel=13 note=62 velocity=48 time=0
note_on channel=14 note=74 velocity=0 time=22
note_on channel=14 note=62 velocity=0 time=0
note_on channel=2 note=74 velocity=0 time=0
note_on channel=2 note=62 velocity=0 time=0
note_on channel=11 note=74 velocity=0 time=1
note_on channel=11 note=62 velocity=0 time=0
control_change channel=13 control=7 value=117 time=0
note_on channel=13 note=62 velocity=0 time=5
note_on channel=9 note=33 velocity=0 time=9
note_on channel=4 note=38 velocity=0 time=1
control_change channel=13 control=7 value=115 time=0
control_change channel=13 control=7 value=114 time=5
control_change channel=13 control=7 value=112 time=5
note_on channel=9 note=44 velocity=0 time=4
note_on channel=2 note=64 velocity=119 time=0
note_on channel=2 note=76 velocity=119 time=0
note_on channel=9 note=44 velocity=100 time=0
note_on channel=11 note=64 velocity=119 time=0
control_change channel=13 control=7 value=111 time=0
note_on channel=14 note=64 velocity=119 time=0
note_on channel=14 note=76 velocity=119 time=0
note_on channel=11 note=76 velocity=119 time=6
control_change channel=13 control=7 value=109 time=0
control_change channel=13 control=7 value=108 time=10
note_on channel=11 note=64 velocity=0 time=6
control_change channel=13 control=7 value=106 time=0
note_on channel=11 note=76 velocity=0 time=6
note_on channel=14 note=64 velocity=0 time=2
note_on channel=2 note=64 velocity=0 time=0
note_on channel=14 note=76 velocity=0 time=0
note_on channel=2 note=76 velocity=0 time=0
control_change channel=13 control=7 value=100 time=0
control_change channel=13 control=7 value=99 time=5
control_change channel=13 control=7 value=97 time=10
control_change channel=13 control=7 value=96 time=5
control_change channel=13 control=7 value=95 time=5
note_on channel=9 note=44 velocity=0 time=5
note_on channel=2 note=67 velocity=124 time=0
note_on channel=2 note=79 velocity=124 time=0
note_on channel=4 note=38 velocity=112 time=0
note_on channel=9 note=45 velocity=108 time=0
note_on channel=9 note=44 velocity=100 time=0
note_on channel=11 note=67 velocity=124 time=0
note_on channel=14 note=67 velocity=124 time=0
note_on channel=14 note=79 velocity=124 time=0
note_on channel=11 note=79 velocity=124 time=5
control_change channel=13 control=7 value=94 time=0
note_on channel=13 note=62 velocity=30 time=10
note_on channel=11 note=67 velocity=0 time=2
control_change channel=13 control=7 value=92 time=0
note_on channel=5 note=81 velocity=0 time=3
note_on channel=11 note=79 velocity=0 time=2
control_change channel=13 control=7 value=91 time=0
note_on channel=13 note=62 velocity=0 time=6
note_on channel=2 note=67 velocity=0 time=2
note_on channel=2 note=79 velocity=0 time=0
note_on channel=14 note=79 velocity=0 time=0
note_on channel=14 note=67 velocity=0 time=0
note_on channel=2 note=67 velocity=124 time=0
note_on channel=2 note=79 velocity=127 time=0
note_on channel=11 note=67 velocity=124 time=0
note_on channel=14 note=67 velocity=124 time=0
note_on channel=14 note=79 velocity=127 time=0
note_on channel=4 note=38 velocity=0 time=1
note_on channel=10 note=81 velocity=0 time=1
note_on channel=11 note=79 velocity=127 time=0
control_change channel=13 control=7 value=89 time=0
control_change channel=13 control=7 value=88 time=10
note_on channel=9 note=45 velocity=0 time=3
note_on channel=11 note=67 velocity=0 time=2
control_change channel=13 control=7 value=86 time=0
note_on channel=4 note=44 velocity=105 time=8
note_on channel=5 note=78 velocity=53 time=2
control_change channel=13 control=7 value=85 time=0
note_on channel=14 note=67 velocity=0 time=3
note_on channel=14 note=79 velocity=0 time=0
note_on channel=9 note=44 velocity=0 time=0
note_on channel=2 note=79 velocity=0 time=0
note_on channel=2 note=67 velocity=0 time=0
note_on channel=9 note=44 velocity=100 time=0
note_on channel=11 note=79 velocity=0 time=4
note_on channel=10 note=78 velocity=79 time=1
control_change channel=13 control=7 value=83 time=0
note_on channel=4 note=45 velocity=97 time=5
note_on channel=5 note=79 velocity=56 time=6
note_on channel=4 note=44 velocity=0 time=8
note_on channel=10 note=79 velocity=102 time=0
control_change channel=13 control=7 value=82 time=0
note_on channel=5 note=78 velocity=0 time=4
note_on channel=10 note=78 velocity=0 time=7
note_on channel=5 note=81 velocity=82 time=5
note_on channel=4 note=50 velocity=79 time=4
note_on channel=4 note=45 velocity=0 time=2
note_on channel=5 note=79 velocity=0 time=3
control_change channel=13 control=7 value=80 time=0
note_on channel=10 note=81 velocity=75 time=2
note_on channel=10 note=79 velocity=0 time=7
note_on channel=12 note=67 velocity=0 time=1
note_on channel=9 note=44 velocity=0 time=1
note_on channel=2 note=81 velocity=127 time=0
note_on channel=2 note=69 velocity=127 time=0
note_on channel=9 note=36 velocity=108 time=0
note_on channel=9 note=44 velocity=100 time=0
note_on channel=11 note=74 velocity=127 time=0
note_on channel=11 note=81 velocity=127 time=0
note_on channel=11 note=69 velocity=127 time=0
note_on channel=14 note=81 velocity=127 time=0
note_on channel=14 note=69 velocity=127 time=0
note_on channel=14 note=74 velocity=127 time=0
note_on channel=4 note=38 velocity=75 time=8
note_on channel=4 note=50 velocity=0 time=4
note_on channel=11 note=69 velocity=0 time=5
pitchwheel channel=2 pitch=-119 time=3
pitchwheel channel=2 pitch=-119 time=0
pitchwheel channel=2 pitch=-119 time=0
pitchwheel channel=2 pitch=-477 time=5
pitchwheel channel=2 pitch=-477 time=0
pitchwheel channel=2 pitch=-477 time=1
control_change channel=13 control=7 value=79 time=0
pitchwheel channel=2 pitch=-835 time=4
pitchwheel channel=2 pitch=-835 time=0
pitchwheel channel=2 pitch=-835 time=0
pitchwheel channel=2 pitch=-1535 time=3
pitchwheel channel=2 pitch=-1535 time=0
pitchwheel channel=2 pitch=-1535 time=0
control_change channel=13 control=7 value=77 time=0
pitchwheel channel=2 pitch=-1877 time=3
pitchwheel channel=2 pitch=-1877 time=0
pitchwheel channel=2 pitch=-1877 time=1
pitchwheel channel=2 pitch=-2346 time=2
pitchwheel channel=2 pitch=-2346 time=0
pitchwheel channel=2 pitch=-2346 time=0
note_on channel=11 note=74 velocity=0 time=2
pitchwheel channel=2 pitch=-2645 time=0
pitchwheel channel=2 pitch=-2645 time=0
pitchwheel channel=2 pitch=-2645 time=0
note_on channel=9 note=36 velocity=0 time=4
note_on channel=11 note=81 velocity=0 time=1
note_on channel=4 note=38 velocity=0 time=1
pitchwheel channel=2 pitch=-3003 time=0
pitchwheel channel=2 pitch=-3003 time=1
pitchwheel channel=2 pitch=-3003 time=0
pitchwheel channel=2 pitch=-2645 time=6
pitchwheel channel=2 pitch=-2645 time=0
pitchwheel channel=2 pitch=-2645 time=0
pitchwheel channel=2 pitch=-2346 time=3
pitchwheel channel=2 pitch=-2346 time=0
pitchwheel channel=2 pitch=-2346 time=0
pitchwheel channel=2 pitch=-2048 time=1
pitchwheel channel=2 pitch=-2048 time=0
pitchwheel channel=2 pitch=-2048 time=0
note_on channel=2 note=69 velocity=0 time=2
note_on channel=14 note=81 velocity=0 time=0
note_on channel=14 note=69 velocity=0 time=0
note_on channel=14 note=74 velocity=0 time=0
note_on channel=9 note=44 velocity=0 time=0
note_on channel=2 note=81 velocity=0 time=0
pitchwheel channel=2 pitch=-1074 time=0
pitchwheel channel=2 pitch=-1074 time=0
note_on channel=9 note=44 velocity=100 time=0
pitchwheel channel=2 pitch=-1074 time=1
pitchwheel channel=2 pitch=-597 time=1
pitchwheel channel=2 pitch=-597 time=0
pitchwheel channel=2 pitch=-597 time=1
pitchwheel channel=2 pitch=-238 time=0
pitchwheel channel=2 pitch=-238 time=1
pitchwheel channel=2 pitch=-238 time=0
note_on channel=13 note=62 velocity=124 time=13
note_on channel=9 note=40 velocity=108 time=13
note_on channel=12 note=66 velocity=127 time=3
note_on channel=13 note=62 velocity=0 time=5
note_on channel=13 note=62 velocity=79 time=8
note_on channel=12 note=66 velocity=0 time=3
note_on channel=12 note=66 velocity=77 time=10
note_on channel=9 note=44 velocity=0 time=1
note_on channel=9 note=44 velocity=100 time=0
note_on channel=4 note=38 velocity=102 time=3
note_on channel=9 note=40 velocity=0 time=12
note_on channel=13 note=62 velocity=0 time=2
control_change channel=13 control=93 value=126 time=1
note_on channel=12 note=66 velocity=0 time=11
note_on channel=4 note=38 velocity=0 time=16
note_on channel=13 note=64 velocity=127 time=4
note_on channel=9 note=44 velocity=0 time=11
note_on channel=9 note=35 velocity=108 time=0
note_on channel=9 note=44 velocity=100 time=0
note_on channel=12 note=67 velocity=108 time=1
note_on channel=13 note=64 velocity=0 time=24
control_change channel=13 control=7 value=76 time=11
note_on channel=12 note=67 velocity=0 time=2
note_on channel=9 note=35 velocity=0 time=7
note_on channel=12 note=69 velocity=127 time=12
note_on channel=13 note=66 velocity=127 time=1
note_on channel=9 note=44 velocity=0 time=2
note_on channel=4 note=38 velocity=86 time=0
note_on channel=9 note=35 velocity=108 time=0
note_on channel=9 note=44 velocity=100 time=0
control_change channel=13 control=7 value=74 time=0
control_change channel=13 control=7 value=73 time=10
note_on channel=9 note=35 velocity=0 time=35
control_change channel=13 control=93 value=125 time=1
note_on channel=9 note=44 velocity=0 time=14
note_on channel=9 note=44 velocity=100 time=0
note_on channel=13 note=66 velocity=0 time=6
note_on channel=4 note=38 velocity=0 time=5
note_on channel=12 note=69 velocity=0 time=3
note_on channel=12 note=74 velocity=127 time=12
note_on channel=13 note=66 velocity=127 time=5
control_change channel=13 control=7 value=71 time=7
note_on channel=9 note=44 velocity=0 time=22
note_on channel=9 note=40 velocity=108 time=0
note_on channel=9 note=44 velocity=100 time=0
control_change channel=13 control=93 value=124 time=0
note_on channel=4 note=38 velocity=88 time=2
note_on channel=13 note=66 velocity=0 time=36
note_on channel=9 note=40 velocity=0 time=7
note_on channel=12 note=74 velocity=0 time=8
note_on channel=4 note=38 velocity=0 time=0
note_on channel=9 note=44 velocity=0 time=7
note_on channel=9 note=44 velocity=100 time=0
note_on channel=12 note=76 velocity=127 time=4
note_on channel=13 note=67 velocity=127 time=4
note_on channel=9 note=44 velocity=0 time=52
note_on channel=9 note=35 velocity=108 time=0
note_on channel=9 note=44 velocity=100 time=0
note_on channel=4 note=38 velocity=88 time=6
note_on channel=9 note=35 velocity=0 time=39
note_on channel=2 note=67 velocity=97 time=10
note_on channel=2 note=79 velocity=115 time=0
note_on channel=9 note=44 velocity=0 time=5
note_on channel=9 note=44 velocity=100 time=0
note_on channel=11 note=79 velocity=115 time=0
note_on channel=14 note=67 velocity=127 time=0
note_on channel=4 note=38 velocity=0 time=6
note_on channel=9 note=40 velocity=108 time=24
note_on channel=14 note=67 velocity=0 time=13
note_on channel=2 note=67 velocity=0 time=9
note_on channel=2 note=79 velocity=0 time=1
note_on channel=2 note=69 velocity=61 time=3
note_on channel=2 note=81 velocity=124 time=1
note_on channel=11 note=79 velocity=0 time=1
note_on channel=9 note=44 velocity=0 time=2
note_on channel=9 note=44 velocity=100 time=0
note_on channel=11 note=81 velocity=124 time=0
note_on channel=14 note=69 velocity=124 time=0
note_on channel=4 note=38 velocity=70 time=1
note_on channel=9 note=40 velocity=0 time=14
note_on channel=2 note=81 velocity=0 time=8
note_on channel=11 note=81 velocity=0 time=3
note_on channel=14 note=69 velocity=0 time=0
control_change channel=13 control=93 value=125 time=0
note_on channel=2 note=69 velocity=0 time=1
note_on channel=2 note=74 velocity=127 time=26
note_on channel=2 note=86 velocity=127 time=0
note_on channel=4 note=38 velocity=0 time=7
note_on channel=9 note=44 velocity=0 time=0
note_on channel=9 note=35 velocity=108 time=0
note_on channel=9 note=44 velocity=100 time=0
note_on channel=11 note=86 velocity=127 time=0
note_on channel=14 note=74 velocity=127 time=0
control_change channel=13 control=7 value=72 time=10
note_on channel=2 note=86 velocity=0 time=12
note_on channel=2 note=74 velocity=0 time=1
note_on channel=14 note=74 velocity=0 time=6
note_on channel=11 note=86 velocity=0 time=0
note_on channel=9 note=35 velocity=0 time=16
note_on channel=2 note=81 velocity=127 time=0
note_on channel=11 note=84 velocity=127 time=0
note_on channel=14 note=72 velocity=127 time=0
note_on channel=2 note=84 velocity=127 time=5
note_on channel=2 note=72 velocity=127 time=1
note_on channel=9 note=44 velocity=0 time=9
note_on channel=9 note=33 velocity=108 time=0
note_on channel=9 note=44 velocity=100 time=0
note_on channel=4 note=38 velocity=88 time=1
note_on channel=14 note=72 velocity=0 time=15
note_on channel=11 note=84 velocity=0 time=0
note_on channel=2 note=81 velocity=0 time=0
note_on channel=2 note=84 velocity=0 time=5
note_on channel=2 note=86 velocity=115 time=3
note_on channel=2 note=72 velocity=0 time=2
note_on channel=2 note=74 velocity=127 time=1
note_on channel=2 note=81 velocity=115 time=3
note_on channel=11 note=86 velocity=115 time=0
note_on channel=14 note=74 velocity=115 time=0
note_on channel=9 note=33 velocity=0 time=15
note_on channel=2 note=86 velocity=0 time=15
note_on channel=9 note=44 velocity=0 time=0
note_on channel=9 note=46 velocity=100 time=0
note_on channel=2 note=74 velocity=0 time=1
note_on channel=11 note=86 velocity=0 time=5
note_on channel=2 note=81 velocity=0 time=0
note_on channel=14 note=74 velocity=0 time=0
note_on channel=4 note=38 velocity=0 time=3
note_on channel=2 note=76 velocity=127 time=17
note_on channel=2 note=88 velocity=127 time=2
note_on channel=2 note=79 velocity=127 time=2
note_on channel=11 note=88 velocity=127 time=0
note_on channel=14 note=76 velocity=127 time=0
pitchwheel channel=13 pitch=-358 time=25
pitchwheel channel=13 pitch=-358 time=0
pitchwheel channel=13 pitch=-358 time=1
note_on channel=9 note=46 velocity=0 time=4
note_on channel=4 note=38 velocity=69 time=0
note_on channel=9 note=45 velocity=108 time=0
note_on channel=9 note=44 velocity=100 time=0
pitchwheel channel=13 pitch=-597 time=9
pitchwheel channel=13 pitch=-597 time=0
pitchwheel channel=13 pitch=-597 time=0
pitchwheel channel=13 pitch=-955 time=13
pitchwheel channel=13 pitch=-955 time=0
pitchwheel channel=13 pitch=-955 time=0
note_on channel=10 note=81 velocity=0 time=5
pitchwheel channel=13 pitch=-1364 time=10
pitchwheel channel=13 pitch=-1364 time=1
pitchwheel channel=13 pitch=-1364 time=0
note_on channel=5 note=81 velocity=0 time=1
pitchwheel channel=12 pitch=-119 time=5
pitchwheel channel=12 pitch=-119 time=0
pitchwheel channel=12 pitch=-119 time=0
note_on channel=9 note=45 velocity=0 time=1
pitchwheel channel=13 pitch=-1706 time=3
pitchwheel channel=13 pitch=-1706 time=0
pitchwheel channel=13 pitch=-1706 time=0
pitchwheel channel=12 pitch=-477 time=1
pitchwheel channel=12 pitch=-477 time=0
pitchwheel channel=12 pitch=-477 time=0
note_on channel=2 note=88 velocity=0 time=2
note_on channel=2 note=76 velocity=0 time=1
control_change channel=13 control=93 value=126 time=0
note_on channel=14 note=76 velocity=0 time=1
note_on channel=2 note=79 velocity=0 time=0
note_on channel=11 note=88 velocity=0 time=0
note_on channel=2 note=74 velocity=127 time=0
note_on channel=2 note=86 velocity=127 time=1
pitchwheel channel=12 pitch=-716 time=4
pitchwheel channel=12 pitch=-716 time=0
pitchwheel channel=12 pitch=-716 time=1
note_on channel=9 note=44 velocity=0 time=1
note_on channel=2 note=81 velocity=127 time=0
note_on channel=9 note=44 velocity=100 time=0
note_on channel=11 note=86 velocity=127 time=0
note_on channel=14 note=74 velocity=127 time=0
note_on channel=4 note=38 velocity=0 time=1
pitchwheel channel=13 pitch=-2048 time=1
pitchwheel channel=12 pitch=-1194 time=1
pitchwheel channel=13 pitch=-2048 time=0
note_on channel=5 note=78 velocity=69 time=1
note_on channel=10 note=78 velocity=83 time=0
pitchwheel channel=12 pitch=-1194 time=0
pitchwheel channel=12 pitch=-1194 time=0
pitchwheel channel=13 pitch=-2048 time=0
pitchwheel channel=12 pitch=-1706 time=4
pitchwheel channel=12 pitch=-1706 time=1
pitchwheel channel=12 pitch=-1706 time=1
pitchwheel channel=13 pitch=-2346 time=0
pitchwheel channel=13 pitch=-2346 time=1
pitchwheel channel=13 pitch=-2346 time=0
pitchwheel channel=12 pitch=-2147 time=3
pitchwheel channel=12 pitch=-2147 time=1
pitchwheel channel=12 pitch=-2147 time=0
pitchwheel channel=12 pitch=-2545 time=3
pitchwheel channel=12 pitch=-2545 time=0
pitchwheel channel=12 pitch=-2545 time=1
pitchwheel channel=13 pitch=-2545 time=3
note_on channel=5 note=79 velocity=54 time=1
pitchwheel channel=13 pitch=-2545 time=0
pitchwheel channel=13 pitch=-2545 time=0
note_on channel=10 note=79 velocity=86 time=1
pitchwheel channel=12 pitch=-2883 time=0
pitchwheel channel=12 pitch=-2883 time=0
pitchwheel channel=12 pitch=-2883 time=0
pitchwheel channel=12 pitch=-3412 time=5
pitchwheel channel=12 pitch=-3412 time=0
pitchwheel channel=12 pitch=-3412 time=1
pitchwheel channel=13 pitch=-2883 time=0
pitchwheel channel=13 pitch=-2883 time=0
pitchwheel channel=13 pitch=-2883 time=1
note_on channel=10 note=78 velocity=0 time=2
note_on channel=5 note=78 velocity=0 time=0
pitchwheel channel=12 pitch=-3925 time=0
pitchwheel channel=12 pitch=-3925 time=1
pitchwheel channel=12 pitch=-3925 time=0
pitchwheel channel=12 pitch=-4454 time=1
pitchwheel channel=12 pitch=-4454 time=0
pitchwheel channel=12 pitch=-4454 time=1
note_on channel=2 note=86 velocity=0 time=1
pitchwheel channel=12 pitch=-4693 time=0
pitchwheel channel=12 pitch=-4693 time=1
pitchwheel channel=12 pitch=-4693 time=0
note_on channel=2 note=74 velocity=0 time=1
pitchwheel channel=12 pitch=-5091 time=1
pitchwheel channel=13 pitch=-3242 time=0
pitchwheel channel=13 pitch=-3242 time=0
pitchwheel channel=12 pitch=-5091 time=1
pitchwheel channel=12 pitch=-5091 time=0
pitchwheel channel=13 pitch=-3242 time=0
note_on channel=14 note=74 velocity=0 time=2
note_on channel=11 note=86 velocity=0 time=0
note_on channel=2 note=81 velocity=0 time=0
note_on channel=5 note=81 velocity=72 time=1
pitchwheel channel=12 pitch=-5460 time=0
pitchwheel channel=12 pitch=-5460 time=0
pitchwheel channel=12 pitch=-5460 time=0
control_change channel=13 control=93 value=127 time=0
note_on channel=10 note=81 velocity=72 time=1
pitchwheel channel=12 pitch=-5802 time=4
pitchwheel channel=12 pitch=-5802 time=1
pitchwheel channel=12 pitch=-5802 time=0
note_on channel=5 note=79 velocity=0 time=2
note_on channel=10 note=79 velocity=0 time=0
note_on channel=13 note=67 velocity=0 time=3
pitchwheel channel=12 pitch=-6263 time=1
pitchwheel channel=12 pitch=-6263 time=0
pitchwheel channel=12 pitch=-6263 time=1
note_on channel=9 note=44 velocity=0 time=3
note_on channel=9 note=36 velocity=108 time=0
note_on channel=9 note=44 velocity=100 time=0
pitchwheel channel=13 pitch=-2645 time=1
pitchwheel channel=13 pitch=-2645 time=0
pitchwheel channel=13 pitch=-2645 time=1
pitchwheel channel=13 pitch=-1706 time=2
pitchwheel channel=13 pitch=-1706 time=0
pitchwheel channel=13 pitch=-1706 time=0
note_on channel=12 note=76 velocity=0 time=1
pitchwheel channel=13 pitch=0 time=2
pitchwheel channel=13 pitch=0 time=0
pitchwheel channel=13 pitch=0 time=0
note_on channel=4 note=38 velocity=88 time=5
pitchwheel channel=12 pitch=-4991 time=0
pitchwheel channel=12 pitch=-4991 time=1
pitchwheel channel=12 pitch=-4991 time=0
pitchwheel channel=12 pitch=-119 time=3
pitchwheel channel=12 pitch=-119 time=0
pitchwheel channel=12 pitch=-119 time=0
pitchwheel channel=12 pitch=0 time=2
pitchwheel channel=12 pitch=0 time=0
pitchwheel channel=12 pitch=0 time=1
note_on channel=9 note=36 velocity=0 time=26
note_on channel=9 note=44 velocity=0 time=15
note_on channel=9 note=44 velocity=100 time=0
note_on channel=4 note=38 velocity=0 time=8
note_on channel=12 note=66 velocity=127 time=14
note_on channel=9 note=40 velocity=108 time=8
note_on channel=13 note=62 velocity=108 time=4
note_on channel=12 note=66 velocity=0 time=5
note_on channel=13 note=62 velocity=0 time=11
note_on channel=12 note=66 velocity=102 time=2
note_on channel=9 note=44 velocity=0 time=8
note_on channel=9 note=44 velocity=100 time=0
note_on channel=13 note=62 velocity=72 time=0
note_on channel=4 note=38 velocity=83 time=3
note_on channel=9 note=40 velocity=0 time=12
note_on channel=12 note=66 velocity=0 time=11
note_on channel=13 note=62 velocity=0 time=7
note_on channel=4 note=38 velocity=0 time=19
note_on channel=13 note=64 velocity=119 time=3
note_on channel=12 note=67 velocity=112 time=3
note_on channel=9 note=44 velocity=0 time=2
note_on channel=9 note=35 velocity=108 time=0
note_on channel=9 note=44 velocity=100 time=0
note_on channel=13 note=64 velocity=0 time=25
note_on channel=12 note=67 velocity=0 time=7
note_on channel=9 note=35 velocity=0 time=13
note_on channel=13 note=66 velocity=112 time=8
note_on channel=4 note=38 velocity=81 time=3
note_on channel=12 note=69 velocity=127 time=0
note_on channel=9 note=44 velocity=0 time=4
note_on channel=9 note=35 velocity=108 time=0
note_on channel=9 note=44 velocity=100 time=0
note_on channel=9 note=35 velocity=0 time=45
note_on channel=4 note=38 velocity=0 time=10
note_on channel=9 note=44 velocity=0 time=5
note_on channel=9 note=44 velocity=100 time=0
note_on channel=13 note=66 velocity=0 time=1
note_on channel=12 note=69 velocity=0 time=13
note_on channel=12 note=74 velocity=127 time=11
note_on channel=13 note=66 velocity=124 time=1
note_on channel=4 note=38 velocity=70 time=33
note_on channel=9 note=44 velocity=0 time=1
note_on channel=9 note=40 velocity=108 time=0
note_on channel=9 note=44 velocity=100 time=0
note_on channel=9 note=40 velocity=0 time=45
note_on channel=9 note=44 velocity=0 time=15
note_on channel=9 note=44 velocity=100 time=0
note_on channel=4 note=38 velocity=0 time=10
note_on channel=13 note=66 velocity=0 time=17
note_on channel=9 note=40 velocity=108 time=3
note_on channel=5 note=81 velocity=0 time=12
note_on channel=10 note=81 velocity=0 time=9
note_on channel=12 note=74 velocity=0 time=6
note_on channel=13 note=67 velocity=124 time=2
note_on channel=9 note=44 velocity=0 time=1
note_on channel=9 note=40 velocity=0 time=0
note_on channel=9 note=35 velocity=108 time=0
note_on channel=9 note=44 velocity=100 time=0
note_on channel=12 note=71 velocity=127 time=5
note_on channel=4 note=31 velocity=97 time=2
note_on channel=9 note=35 velocity=0 time=38
note_on channel=9 note=44 velocity=0 time=15
note_on channel=9 note=44 velocity=100 time=0
note_on channel=4 note=31 velocity=0 time=5
note_on channel=13 note=67 velocity=0 time=18
note_on channel=9 note=40 velocity=108 time=7
note_on channel=13 note=69 velocity=127 time=5
note_on channel=12 note=73 velocity=127 time=3
note_on channel=4 note=30 velocity=112 time=1
note_on channel=2 note=78 velocity=112 time=3
note_on channel=11 note=78 velocity=112 time=0
note_on channel=14 note=78 velocity=112 time=0
note_on channel=12 note=71 velocity=0 time=3
note_on channel=11 note=66 velocity=112 time=0
note_on channel=2 note=66 velocity=127 time=2
note_on channel=14 note=66 velocity=127 time=0
control_change channel=1 control=7 value=87 time=5
note_on channel=14 note=78 velocity=0 time=2
note_on channel=11 note=78 velocity=0 time=0
note_on channel=2 note=78 velocity=0 time=0
note_on channel=11 note=66 velocity=0 time=3
note_on channel=2 note=66 velocity=0 time=2
note_on channel=14 note=66 velocity=0 time=0
note_on channel=9 note=44 velocity=0 time=1
note_on channel=9 note=44 velocity=100 time=0
note_on channel=11 note=66 velocity=112 time=0
note_on channel=2 note=78 velocity=112 time=6
note_on channel=2 note=66 velocity=115 time=0
note_on channel=11 note=78 velocity=112 time=0
note_on channel=14 note=78 velocity=112 time=0
note_on channel=14 note=66 velocity=115 time=0
note_on channel=9 note=40 velocity=0 time=9
note_on channel=11 note=66 velocity=0 time=17
note_on channel=4 note=30 velocity=0 time=1
note_on channel=11 note=78 velocity=0 time=5
note_on channel=14 note=78 velocity=0 time=0
note_on channel=2 note=78 velocity=0 time=0
note_on channel=2 note=66 velocity=0 time=2
note_on channel=14 note=66 velocity=0 time=0
note_on channel=13 note=69 velocity=0 time=17
note_on channel=9 note=44 velocity=0 time=3
note_on channel=9 note=35 velocity=108 time=0
note_on channel=9 note=44 velocity=100 time=0
note_on channel=2 note=67 velocity=124 time=5
note_on channel=14 note=67 velocity=124 time=0
note_on channel=12 note=73 velocity=0 time=1
note_on channel=13 note=71 velocity=127 time=1
note_on channel=4 note=28 velocity=119 time=1
note_on channel=2 note=79 velocity=127 time=1
note_on channel=11 note=79 velocity=127 time=0
note_on channel=14 note=79 velocity=127 time=0
note_on channel=11 note=67 velocity=127 time=6
note_on channel=12 note=74 velocity=127 time=0
note_on channel=14 note=79 velocity=0 time=18
note_on channel=11 note=79 velocity=0 time=0
note_on channel=2 note=79 velocity=0 time=0
note_on channel=14 note=67 velocity=0 time=6
note_on channel=11 note=67 velocity=0 time=0
note_on channel=2 note=67 velocity=0 time=0
note_on channel=9 note=35 velocity=0 time=6
control_change channel=13 control=93 value=125 time=13
note_on channel=9 note=44 velocity=0 time=2
note_on channel=9 note=33 velocity=108 time=0
note_on channel=9 note=44 velocity=100 time=0
note_on channel=11 note=64 velocity=127 time=0
note_on channel=11 note=76 velocity=127 time=0
note_on channel=2 note=64 velocity=127 time=4
note_on channel=14 note=64 velocity=127 time=0
note_on channel=2 note=76 velocity=127 time=5
note_on channel=14 note=76 velocity=127 time=0
control_change channel=13 control=93 value=126 time=27
pitchwheel channel=2 pitch=-358 time=1
pitchwheel channel=2 pitch=-358 time=0
pitchwheel channel=2 pitch=-358 time=0
pitchwheel channel=2 pitch=-716 time=3
pitchwheel channel=2 pitch=-716 time=0
pitchwheel channel=2 pitch=-716 time=0
pitchwheel channel=2 pitch=-1074 time=2
pitchwheel channel=2 pitch=-1074 time=0
pitchwheel channel=2 pitch=-1074 time=1
pitchwheel channel=2 pitch=-1535 time=1
pitchwheel channel=2 pitch=-1535 time=0
note_on channel=9 note=33 velocity=0 time=1
pitchwheel channel=2 pitch=-1535 time=0
pitchwheel channel=2 pitch=-1877 time=0
pitchwheel channel=2 pitch=-1877 time=0
pitchwheel channel=2 pitch=-1877 time=1
pitchwheel channel=2 pitch=-2247 time=0
pitchwheel channel=2 pitch=-2247 time=1
pitchwheel channel=2 pitch=-2247 time=0
pitchwheel channel=2 pitch=-2545 time=1
pitchwheel channel=2 pitch=-2545 time=0
pitchwheel channel=2 pitch=-2545 time=0
pitchwheel channel=2 pitch=-2883 time=1
pitchwheel channel=2 pitch=-2883 time=0
pitchwheel channel=2 pitch=-2883 time=0
note_on channel=11 note=76 velocity=0 time=2
note_on channel=11 note=64 velocity=0 time=0
pitchwheel channel=2 pitch=-3583 time=1
pitchwheel channel=2 pitch=-3583 time=0
pitchwheel channel=2 pitch=-3583 time=0
note_on channel=14 note=64 velocity=0 time=3
note_on channel=2 note=64 velocity=0 time=0
pitchwheel channel=2 pitch=-4096 time=0
pitchwheel channel=2 pitch=-4096 time=0
pitchwheel channel=2 pitch=-4096 time=0
pitchwheel channel=2 pitch=-4454 time=2
pitchwheel channel=2 pitch=-4454 time=0
pitchwheel channel=2 pitch=-4454 time=0
pitchwheel channel=2 pitch=-4693 time=1
pitchwheel channel=2 pitch=-4693 time=0
pitchwheel channel=2 pitch=-4693 time=0
note_on channel=9 note=44 velocity=0 time=2
note_on channel=14 note=76 velocity=0 time=0
note_on channel=2 note=76 velocity=0 time=0
note_on channel=9 note=44 velocity=100 time=0
pitchwheel channel=2 pitch=-4991 time=1
pitchwheel channel=2 pitch=-4991 time=0
pitchwheel channel=2 pitch=-4991 time=1
pitchwheel channel=2 pitch=-5290 time=5
pitchwheel channel=2 pitch=-5290 time=0
pitchwheel channel=2 pitch=-5290 time=0
pitchwheel channel=2 pitch=-4892 time=8
pitchwheel channel=2 pitch=-4892 time=0
pitchwheel channel=2 pitch=-4892 time=0
pitchwheel channel=2 pitch=-4334 time=2
pitchwheel channel=2 pitch=-4334 time=0
pitchwheel channel=2 pitch=-4334 time=0
pitchwheel channel=2 pitch=-3122 time=2
pitchwheel channel=2 pitch=-3122 time=0
pitchwheel channel=2 pitch=-3122 time=0
pitchwheel channel=2 pitch=-1074 time=1
pitchwheel channel=2 pitch=-1074 time=0
pitchwheel channel=2 pitch=-1074 time=0
pitchwheel channel=2 pitch=0 time=1
pitchwheel channel=2 pitch=0 time=0
pitchwheel channel=2 pitch=0 time=1
control_change channel=1 control=7 value=88 time=15
note_on channel=4 note=28 velocity=0 time=3
control_change channel=1 control=7 value=91 time=11
note_on channel=9 note=44 velocity=0 time=9
note_on channel=4 note=33 velocity=102 time=0
note_on channel=9 note=45 velocity=108 time=0
note_on channel=9 note=44 velocity=100 time=0
note_on channel=11 note=57 velocity=127 time=0
note_on channel=2 note=57 velocity=127 time=3
note_on channel=14 note=57 velocity=127 time=0
control_change channel=13 control=93 value=127 time=1
note_on channel=2 note=69 velocity=127 time=2
note_on channel=11 note=69 velocity=127 time=0
note_on channel=14 note=69 velocity=127 time=0
control_change channel=1 control=7 value=92 time=4
pitchwheel channel=13 pitch=-358 time=22
pitchwheel channel=13 pitch=-358 time=0
pitchwheel channel=13 pitch=-358 time=0
control_change channel=1 control=7 value=94 time=1
pitchwheel channel=12 pitch=-238 time=3
pitchwheel channel=12 pitch=-238 time=1
pitchwheel channel=12 pitch=-238 time=0
pitchwheel channel=13 pitch=-597 time=0
pitchwheel channel=13 pitch=-597 time=0
pitchwheel channel=13 pitch=-597 time=0
pitchwheel channel=13 pitch=-955 time=4
pitchwheel channel=13 pitch=-955 time=0
pitchwheel channel=12 pitch=-597 time=1
pitchwheel channel=12 pitch=-597 time=0
pitchwheel channel=12 pitch=-597 time=0
pitchwheel channel=13 pitch=-955 time=0
note_on channel=9 note=45 velocity=0 time=3
pitchwheel channel=13 pitch=-1364 time=1
pitchwheel channel=13 pitch=-1364 time=1
pitchwheel channel=13 pitch=-1364 time=0
pitchwheel channel=12 pitch=-955 time=3
pitchwheel channel=12 pitch=-955 time=1
pitchwheel channel=12 pitch=-955 time=0
pitchwheel channel=13 pitch=-1877 time=0
pitchwheel channel=13 pitch=-1877 time=0
note_on channel=11 note=57 velocity=0 time=1
pitchwheel channel=13 pitch=-1877 time=0
pitchwheel channel=12 pitch=-1364 time=3
pitchwheel channel=12 pitch=-1364 time=1
pitchwheel channel=12 pitch=-1364 time=0
pitchwheel channel=13 pitch=-2147 time=0
pitchwheel channel=13 pitch=-2147 time=0
pitchwheel channel=13 pitch=-2147 time=0
note_on channel=14 note=69 velocity=0 time=2
note_on channel=11 note=69 velocity=0 time=0
note_on channel=2 note=69 velocity=0 time=0
note_on channel=9 note=44 velocity=0 time=2
note_on channel=9 note=40 velocity=82 time=0
note_on channel=9 note=44 velocity=100 time=0
note_on channel=2 note=79 velocity=81 time=1
note_on channel=14 note=79 velocity=81 time=0
pitchwheel channel=13 pitch=-2446 time=1
pitchwheel channel=13 pitch=-2446 time=1
pitchwheel channel=13 pitch=-2446 time=0
note_on channel=14 note=57 velocity=0 time=2
note_on channel=2 note=57 velocity=0 time=0
control_change channel=1 control=7 value=95 time=0
pitchwheel channel=12 pitch=-1706 time=1
pitchwheel channel=12 pitch=-1706 time=1
pitchwheel channel=12 pitch=-1706 time=0
note_on channel=13 note=71 velocity=0 time=3
pitchwheel channel=13 pitch=-2764 time=0
pitchwheel channel=13 pitch=-2764 time=1
pitchwheel channel=13 pitch=-2764 time=0
pitchwheel channel=13 pitch=-3122 time=2
control_change channel=1 control=7 value=96 time=1
pitchwheel channel=13 pitch=-3122 time=0
pitchwheel channel=13 pitch=-3122 time=0
pitchwheel channel=12 pitch=-2247 time=2
pitchwheel channel=12 pitch=-2247 time=1
pitchwheel channel=12 pitch=-2247 time=1
note_on channel=2 note=81 velocity=86 time=1
pitchwheel channel=13 pitch=-3583 time=0
note_on channel=14 note=81 velocity=86 time=0
pitchwheel channel=13 pitch=-3583 time=1
pitchwheel channel=13 pitch=-3583 time=0
pitchwheel channel=12 pitch=-2545 time=3
pitchwheel channel=12 pitch=-2545 time=0
pitchwheel channel=12 pitch=-2545 time=0
pitchwheel channel=13 pitch=-4096 time=4
pitchwheel channel=12 pitch=-2764 time=1
pitchwheel channel=12 pitch=-2764 time=0
pitchwheel channel=12 pitch=-2764 time=0
pitchwheel channel=13 pitch=-4096 time=0
pitchwheel channel=13 pitch=-4096 time=0
note_on channel=9 note=40 velocity=80 time=2
pitchwheel channel=13 pitch=-4334 time=2
pitchwheel channel=13 pitch=-4334 time=0
pitchwheel channel=13 pitch=-4334 time=1
note_on channel=14 note=79 velocity=0 time=1
note_on channel=2 note=79 velocity=0 time=0
pitchwheel channel=12 pitch=-3242 time=0
pitchwheel channel=12 pitch=-3242 time=0
pitchwheel channel=12 pitch=-3242 time=0
control_change channel=1 control=7 value=98 time=3
pitchwheel channel=13 pitch=-4693 time=0
note_on channel=4 note=33 velocity=0 time=1
control_change channel=1 control=7 value=99 time=0
pitchwheel channel=12 pitch=-3754 time=0
pitchwheel channel=12 pitch=-3754 time=0
pitchwheel channel=12 pitch=-3754 time=0
pitchwheel channel=13 pitch=-4693 time=0
pitchwheel channel=13 pitch=-4693 time=0
note_on channel=2 note=83 velocity=112 time=4
note_on channel=14 note=83 velocity=112 time=0
pitchwheel channel=12 pitch=-4215 time=2
pitchwheel channel=12 pitch=-4215 time=0
pitchwheel channel=12 pitch=-4215 time=0
pitchwheel channel=13 pitch=-4991 time=0
note_on channel=9 note=40 velocity=0 time=1
pitchwheel channel=13 pitch=-4991 time=0
pitchwheel channel=13 pitch=-4991 time=0
pitchwheel channel=12 pitch=-4693 time=1
pitchwheel channel=12 pitch=-4693 time=1
pitchwheel channel=12 pitch=-4693 time=0
pitchwheel channel=12 pitch=-4991 time=2
pitchwheel channel=12 pitch=-4991 time=0
pitchwheel channel=12 pitch=-4991 time=1
pitchwheel channel=12 pitch=-5290 time=1
pitchwheel channel=12 pitch=-5290 time=1
pitchwheel channel=12 pitch=-5290 time=0
note_on channel=7 note=83 velocity=75 time=1
note_on channel=10 note=71 velocity=86 time=0
pitchwheel channel=12 pitch=-5631 time=2
note_on channel=12 note=74 velocity=0 time=1
note_on channel=14 note=81 velocity=0 time=0
note_on channel=2 note=81 velocity=0 time=0
pitchwheel channel=12 pitch=-5631 time=0
pitchwheel channel=12 pitch=-5631 time=0
note_on channel=9 note=44 velocity=0 time=4
control_change channel=1 control=7 value=102 time=0
note_on channel=4 note=31 velocity=83 time=0
note_on channel=9 note=36 velocity=108 time=0
note_on channel=9 note=44 velocity=100 time=0
pitchwheel channel=12 pitch=-6263 time=1
pitchwheel channel=12 pitch=-6263 time=0
pitchwheel channel=12 pitch=-6263 time=0
note_on channel=0 note=71 velocity=102 time=2
note_on channel=2 note=84 velocity=79 time=2
pitchwheel channel=13 pitch=-4693 time=0
pitchwheel channel=13 pitch=-4693 time=0
note_on channel=14 note=84 velocity=79 time=0
pitchwheel channel=13 pitch=-4693 time=1
note_on channel=0 note=83 velocity=102 time=1
control_change channel=1 control=7 value=103 time=0
pitchwheel channel=12 pitch=-6621 time=0
pitchwheel channel=12 pitch=-6621 time=0
pitchwheel channel=12 pitch=-6621 time=0
pitchwheel channel=13 pitch=-4334 time=0
note_on channel=2 note=86 velocity=127 time=1
pitchwheel channel=13 pitch=-4334 time=0
pitchwheel channel=13 pitch=-4334 time=0
note_on channel=14 note=86 velocity=127 time=0
note_on channel=14 note=83 velocity=0 time=3
note_on channel=2 note=83 velocity=0 time=0
pitchwheel channel=12 pitch=-7218 time=0
pitchwheel channel=12 pitch=-7218 time=0
pitchwheel channel=13 pitch=-2764 time=0
pitchwheel channel=13 pitch=-2764 time=0
pitchwheel channel=13 pitch=-2764 time=0
pitchwheel channel=12 pitch=-7218 time=1
pitchwheel channel=13 pitch=0 time=0
pitchwheel channel=13 pitch=0 time=1
pitchwheel channel=13 pitch=0 time=0
note_on channel=9 note=40 velocity=0 time=2
note_on channel=14 note=84 velocity=0 time=4
note_on channel=2 note=84 velocity=0 time=0
pitchwheel channel=12 pitch=-710 time=0
pitchwheel channel=12 pitch=-7622 time=0
control_change channel=1 control=7 value=105 time=10
pitchwheel channel=12 pitch=-7218 time=5
pitchwheel channel=12 pitch=-7218 time=1
pitchwheel channel=12 pitch=-7218 time=0
pitchwheel channel=12 pitch=-6860 time=2
pitchwheel channel=12 pitch=-6860 time=1
pitchwheel channel=12 pitch=-6860 time=0
pitchwheel channel=12 pitch=-6263 time=3
pitchwheel channel=12 pitch=-6263 time=0
pitchwheel channel=12 pitch=-6263 time=0
pitchwheel channel=12 pitch=-5190 time=2
pitchwheel channel=12 pitch=-5190 time=0
pitchwheel channel=12 pitch=-5190 time=0
note_on channel=9 note=36 velocity=0 time=2
pitchwheel channel=12 pitch=-1535 time=0
pitchwheel channel=12 pitch=-1535 time=0
pitchwheel channel=12 pitch=-1535 time=1
note_on channel=2 note=86 velocity=0 time=1
note_on channel=14 note=86 velocity=0 time=0
pitchwheel channel=12 pitch=0 time=2
pitchwheel channel=12 pitch=0 time=0
pitchwheel channel=12 pitch=0 time=0
note_on channel=5 note=88 velocity=38 time=7
note_on channel=9 note=44 velocity=0 time=4
note_on channel=9 note=44 velocity=100 time=0
note_on channel=5 note=90 velocity=33 time=6
note_on channel=4 note=31 velocity=0 time=10
note_on channel=1 note=67 velocity=99 time=2
note_on channel=5 note=91 velocity=50 time=10
note_on channel=9 note=40 velocity=108 time=2
note_on channel=1 note=67 velocity=0 time=5
note_on channel=5 note=88 velocity=0 time=5
note_on channel=1 note=67 velocity=73 time=7
note_on channel=4 note=31 velocity=86 time=11
note_on channel=9 note=44 velocity=0 time=2
note_on channel=9 note=44 velocity=100 time=0
note_on channel=5 note=90 velocity=0 time=11
note_on channel=9 note=40 velocity=0 time=4
note_on channel=1 note=67 velocity=0 time=2
control_change channel=1 control=7 value=106 time=15
note_on channel=5 note=91 velocity=0 time=2
control_change channel=1 control=7 value=107 time=8
control_change channel=1 control=7 value=109 time=5
control_change channel=1 control=7 value=110 time=5
note_on channel=9 note=44 velocity=0 time=8
control_change channel=1 control=7 value=112 time=0
note_on channel=1 note=69 velocity=105 time=0
note_on channel=9 note=35 velocity=108 time=0
note_on channel=9 note=44 velocity=100 time=0
note_on channel=5 note=88 velocity=32 time=9
note_on channel=4 note=31 velocity=0 time=4
note_on channel=5 note=90 velocity=32 time=6
note_on channel=1 note=69 velocity=0 time=9
note_on channel=9 note=35 velocity=0 time=17
note_on channel=5 note=91 velocity=38 time=3
note_on channel=5 note=88 velocity=0 time=1
note_on channel=4 note=31 velocity=92 time=8
note_on channel=9 note=44 velocity=0 time=3
note_on channel=9 note=35 velocity=108 time=0
note_on channel=9 note=44 velocity=100 time=0
note_on channel=1 note=71 velocity=127 time=5
note_on channel=5 note=90 velocity=0 time=2
note_on channel=5 note=91 velocity=0 time=35
note_on channel=9 note=35 velocity=0 time=3
note_on channel=9 note=44 velocity=0 time=15
note_on channel=9 note=44 velocity=100 time=0
note_on channel=0 note=71 velocity=0 time=1
note_on channel=7 note=74 velocity=49 time=0
note_on channel=0 note=62 velocity=59 time=2
note_on channel=10 note=62 velocity=73 time=0
note_on channel=7 note=83 velocity=0 time=2
note_on channel=10 note=71 velocity=0 time=0
note_on channel=0 note=74 velocity=66 time=0
note_on channel=0 note=83 velocity=0 time=4
note_on channel=5 note=88 velocity=40 time=8
note_on channel=4 note=31 velocity=0 time=1
note_on channel=1 note=71 velocity=0 time=2
control_change channel=1 control=7 value=113 time=7
note_on channel=5 note=90 velocity=26 time=2
control_change channel=1 control=7 value=114 time=9
note_on channel=1 note=74 velocity=115 time=0
note_on channel=5 note=91 velocity=38 time=17
note_on channel=10 note=67 velocity=79 time=3
note_on channel=0 note=74 velocity=0 time=1
note_on channel=0 note=79 velocity=90 time=0
note_on channel=9 note=44 velocity=0 time=1
note_on channel=0 note=67 velocity=83 time=0
note_on channel=4 note=31 velocity=90 time=0
note_on channel=9 note=40 velocity=108 time=0
note_on channel=9 note=44 velocity=100 time=0
note_on channel=7 note=79 velocity=74 time=6
note_on channel=10 note=62 velocity=0 time=3
note_on channel=0 note=62 velocity=0 time=2
note_on channel=5 note=88 velocity=0 time=2
note_on channel=7 note=74 velocity=0 time=8
note_on channel=5 note=90 velocity=0 time=7
note_on channel=9 note=40 velocity=0 time=17
note_on channel=10 note=71 velocity=108 time=6
note_on channel=7 note=83 velocity=84 time=6
note_on channel=0 note=83 velocity=127 time=1
note_on channel=9 note=44 velocity=0 time=2
note_on channel=9 note=44 velocity=100 time=0
note_on channel=10 note=67 velocity=0 time=2
note_on channel=0 note=71 velocity=94 time=2
control_change channel=1 control=7 value=116 time=1
note_on channel=0 note=79 velocity=0 time=3
note_on channel=0 note=67 velocity=0 time=3
note_on channel=7 note=79 velocity=0 time=1
note_on channel=5 note=91 velocity=0 time=2
control_change channel=1 control=7 value=117 time=1
note_on channel=0 note=71 velocity=0 time=12
note_on channel=4 note=31 velocity=0 time=1
note_on channel=0 note=83 velocity=0 time=8
control_change channel=1 control=7 value=120 time=2
note_on channel=0 note=85 velocity=108 time=20
note_on channel=0 note=73 velocity=108 time=1
note_on channel=10 note=73 velocity=115 time=0
note_on channel=9 note=44 velocity=0 time=1
note_on channel=4 note=31 velocity=94 time=0
note_on channel=9 note=35 velocity=108 time=0
note_on channel=9 note=44 velocity=100 time=0
note_on channel=10 note=71 velocity=0 time=5
note_on channel=7 note=85 velocity=94 time=1
note_on channel=7 note=83 velocity=0 time=4
note_on channel=9 note=35 velocity=0 time=35
note_on channel=1 note=74 velocity=0 time=11
note_on channel=9 note=44 velocity=0 time=4
note_on channel=9 note=44 velocity=100 time=0
note_on channel=4 note=31 velocity=0 time=16
note_on channel=9 note=40 velocity=108 time=14
note_on channel=2 note=73 velocity=127 time=5
note_on channel=2 note=73 velocity=0 time=22
note_on channel=4 note=31 velocity=81 time=1
note_on channel=9 note=44 velocity=0 time=2
note_on channel=9 note=44 velocity=100 time=0
note_on channel=2 note=73 velocity=57 time=4
note_on channel=9 note=40 velocity=0 time=11
note_on channel=2 note=73 velocity=0 time=22
control_change channel=1 control=7 value=121 time=10
control_change channel=1 control=7 value=123 time=5
note_on channel=9 note=44 velocity=0 time=8
control_change channel=1 control=7 value=124 time=0
note_on channel=9 note=35 velocity=108 time=0
note_on channel=9 note=44 velocity=100 time=0
note_on channel=2 note=74 velocity=127 time=11
note_on channel=4 note=31 velocity=0 time=5
note_on channel=2 note=74 velocity=0 time=23
note_on channel=9 note=35 velocity=0 time=6
note_on channel=9 note=44 velocity=0 time=15
note_on channel=9 note=33 velocity=108 time=0
note_on channel=9 note=44 velocity=100 time=0
note_on channel=2 note=76 velocity=127 time=3
note_on channel=4 note=31 velocity=81 time=2
note_on channel=7 note=85 velocity=0 time=28
note_on channel=0 note=73 velocity=0 time=0
note_on channel=0 note=85 velocity=0 time=3
note_on channel=9 note=33 velocity=0 time=9
note_on channel=10 note=73 velocity=0 time=3
note_on channel=0 note=73 velocity=65 time=8
note_on channel=9 note=44 velocity=0 time=4
note_on channel=9 note=44 velocity=100 time=0
note_on channel=7 note=85 velocity=66 time=3
note_on channel=0 note=85 velocity=69 time=1
note_on channel=10 note=73 velocity=92 time=4
note_on channel=2 note=76 velocity=0 time=4
note_on channel=4 note=31 velocity=0 time=4
note_on channel=2 note=69 velocity=127 time=21
note_on channel=0 note=86 velocity=77 time=20
note_on channel=9 note=44 velocity=0 time=3
note_on channel=0 note=74 velocity=77 time=0
note_on channel=7 note=86 velocity=74 time=0
note_on channel=9 note=45 velocity=108 time=0
note_on channel=9 note=46 velocity=100 time=0
note_on channel=10 note=74 velocity=74 time=0
note_on channel=7 note=85 velocity=0 time=1
note_on channel=0 note=85 velocity=0 time=3
note_on channel=10 note=73 velocity=0 time=3
note_on channel=4 note=31 velocity=81 time=1
note_on channel=0 note=73 velocity=0 time=5
note_on channel=9 note=45 velocity=0 time=32
note_on channel=10 note=76 velocity=92 time=4
note_on channel=7 note=88 velocity=78 time=3
note_on channel=7 note=86 velocity=0 time=6
note_on channel=10 note=74 velocity=0 time=0
note_on channel=0 note=88 velocity=70 time=0
note_on channel=9 note=46 velocity=0 time=2
note_on channel=0 note=76 velocity=70 time=0
note_on channel=0 note=86 velocity=0 time=4
note_on channel=0 note=74 velocity=0 time=3
note_on channel=4 note=31 velocity=0 time=19
note_on channel=10 note=76 velocity=0 time=24
note_on channel=7 note=88 velocity=0 time=5
note_on channel=0 note=81 velocity=127 time=1
note_on channel=10 note=69 velocity=88 time=0
note_on channel=0 note=69 velocity=115 time=4
note_on channel=7 note=81 velocity=90 time=0
note_on channel=9 note=36 velocity=108 time=0
note_on channel=9 note=44 velocity=100 time=0
note_on channel=10 note=76 velocity=81 time=0
note_on channel=4 note=30 velocity=105 time=2
note_on channel=0 note=88 velocity=0 time=11
note_on channel=0 note=76 velocity=0 time=2
note_on channel=2 note=69 velocity=0 time=6
note_on channel=9 note=36 velocity=0 time=24
note_on channel=9 note=44 velocity=0 time=15
note_on channel=9 note=44 velocity=100 time=0
note_on channel=4 note=30 velocity=0 time=18
note_on channel=1 note=66 velocity=127 time=6
note_on channel=9 note=40 velocity=108 time=6
note_on channel=1 note=66 velocity=0 time=10
note_on channel=1 note=66 velocity=97 time=14
note_on channel=9 note=44 velocity=0 time=6
note_on channel=9 note=44 velocity=100 time=0
note_on channel=4 note=30 velocity=94 time=3
note_on channel=9 note=40 velocity=0 time=12
note_on channel=1 note=66 velocity=0 time=12
note_on channel=9 note=44 velocity=0 time=33
note_on channel=9 note=35 velocity=108 time=0
note_on channel=9 note=44 velocity=100 time=0
note_on channel=1 note=67 velocity=78 time=5
note_on channel=4 note=30 velocity=0 time=14
note_on channel=1 note=67 velocity=0 time=15
control_change channel=1 control=7 value=127 time=5
control_change channel=1 control=7 value=125 time=0
note_on channel=9 note=35 velocity=0 time=6
note_on channel=9 note=44 velocity=0 time=15
note_on channel=9 note=35 velocity=108 time=0
note_on channel=9 note=44 velocity=100 time=0
note_on channel=0 note=69 velocity=0 time=5
note_on channel=4 note=30 velocity=102 time=0
note_on channel=1 note=69 velocity=124 time=2
note_on channel=0 note=81 velocity=0 time=9
note_on channel=7 note=81 velocity=0 time=21
note_on channel=10 note=69 velocity=0 time=2
note_on channel=10 note=76 velocity=0 time=2
note_on channel=9 note=35 velocity=0 time=4
note_on channel=9 note=44 velocity=0 time=15
note_on channel=9 note=44 velocity=100 time=0
note_on channel=0 note=69 velocity=74 time=1
note_on channel=7 note=81 velocity=62 time=0
note_on channel=0 note=81 velocity=97 time=2
note_on channel=10 note=69 velocity=78 time=0
note_on channel=1 note=69 velocity=0 time=19
note_on channel=4 note=30 velocity=0 time=6
note_on channel=7 note=86 velocity=78 time=28
note_on channel=10 note=74 velocity=92 time=2
note_on channel=9 note=44 velocity=0 time=2
note_on channel=7 note=81 velocity=0 time=0
note_on channel=10 note=69 velocity=0 time=0
note_on channel=0 note=86 velocity=127 time=0
note_on channel=9 note=40 velocity=108 time=0
note_on channel=9 note=44 velocity=100 time=0
note_on channel=1 note=62 velocity=112 time=5
note_on channel=0 note=74 velocity=97 time=1
note_on channel=4 note=30 velocity=88 time=0
note_on channel=0 note=81 velocity=0 time=2
note_on channel=0 note=69 velocity=0 time=10
note_on channel=0 note=74 velocity=0 time=24
note_on channel=7 note=86 velocity=0 time=1
note_on channel=9 note=40 velocity=0 time=2
note_on channel=10 note=74 velocity=0 time=6
note_on channel=10 note=81 velocity=73 time=1
note_on channel=7 note=93 velocity=46 time=3
note_on channel=9 note=44 velocity=0 time=5
note_on channel=9 note=44 velocity=100 time=0
note_on channel=0 note=93 velocity=77 time=3
note_on channel=0 note=86 velocity=0 time=3
note_on channel=0 note=81 velocity=127 time=1
note_on channel=4 note=30 velocity=0 time=13
note_on channel=10 note=81 velocity=0 time=9
note_on channel=7 note=93 velocity=0 time=1
note_on channel=0 note=81 velocity=0 time=2
note_on channel=1 note=62 velocity=0 time=2
note_on channel=0 note=93 velocity=0 time=4
control_change channel=10 control=7 value=127 time=0
note_on channel=10 note=81 velocity=77 time=10
note_on channel=7 note=93 velocity=73 time=6
note_on channel=0 note=81 velocity=127 time=5
note_on channel=9 note=44 velocity=0 time=1
note_on channel=0 note=93 velocity=99 time=0
note_on channel=1 note=71 velocity=105 time=0
note_on channel=4 note=31 velocity=86 time=0
note_on channel=9 note=35 velocity=108 time=0
note_on channel=9 note=44 velocity=100 time=0
note_on channel=9 note=35 velocity=0 time=45
note_on channel=9 note=44 velocity=0 time=15
note_on channel=9 note=44 velocity=100 time=0
note_on channel=14 note=73 velocity=115 time=0
note_on channel=2 note=73 velocity=115 time=2
note_on channel=4 note=31 velocity=0 time=26
note_on channel=9 note=40 velocity=108 time=2
note_on channel=14 note=73 velocity=0 time=1
note_on channel=14 note=74 velocity=81 time=0
note_on channel=2 note=73 velocity=0 time=2
note_on channel=2 note=74 velocity=81 time=0
note_on channel=7 note=91 velocity=53 time=17
note_on channel=10 note=79 velocity=72 time=0
note_on channel=14 note=76 velocity=115 time=3
note_on channel=0 note=91 velocity=77 time=1
note_on channel=2 note=76 velocity=115 time=1
note_on channel=14 note=74 velocity=0 time=2
note_on channel=2 note=74 velocity=0 time=2
note_on channel=9 note=44 velocity=0 time=1
note_on channel=7 note=93 velocity=0 time=0
note_on channel=0 note=79 velocity=105 time=0
note_on channel=9 note=44 velocity=100 time=0
note_on channel=0 note=81 velocity=0 time=1
note_on channel=4 note=31 velocity=88 time=1
note_on channel=9 note=40 velocity=0 time=13
note_on channel=0 note=93 velocity=0 time=2
note_on channel=10 note=81 velocity=0 time=1
note_on channel=14 note=76 velocity=0 time=9
note_on channel=14 note=78 velocity=127 time=0
note_on channel=2 note=76 velocity=0 time=2
note_on channel=2 note=78 velocity=127 time=0
note_on channel=0 note=78 velocity=74 time=16
note_on channel=10 note=78 velocity=99 time=0
note_on channel=0 note=90 velocity=112 time=3
note_on channel=7 note=90 velocity=45 time=0
note_on channel=7 note=91 velocity=0 time=6
note_on channel=10 note=79 velocity=0 time=3
note_on channel=0 note=79 velocity=0 time=0
note_on channel=9 note=44 velocity=0 time=3
note_on channel=9 note=35 velocity=108 time=0
note_on channel=9 note=44 velocity=100 time=0
note_on channel=0 note=91 velocity=0 time=4
note_on channel=14 note=78 velocity=0 time=4
note_on channel=2 note=78 velocity=0 time=2
note_on channel=4 note=31 velocity=0 time=1
note_on channel=0 note=78 velocity=0 time=15
note_on channel=7 note=88 velocity=57 time=18
note_on channel=9 note=35 velocity=0 time=1
note_on channel=0 note=76 velocity=57 time=0
note_on channel=10 note=76 velocity=62 time=0
note_on channel=0 note=90 velocity=0 time=5
note_on channel=7 note=90 velocity=0 time=2
note_on channel=0 note=88 velocity=127 time=0
note_on channel=4 note=31 velocity=92 time=0
note_on channel=10 note=78 velocity=0 time=1
note_on channel=9 note=44 velocity=0 time=7
note_on channel=9 note=33 velocity=108 time=0
note_on channel=9 note=44 velocity=100 time=0
note_on channel=9 note=33 velocity=0 time=45
note_on channel=1 note=71 velocity=0 time=8
note_on channel=14 note=74 velocity=90 time=2
note_on channel=2 note=74 velocity=90 time=2
note_on channel=9 note=44 velocity=0 time=3
note_on channel=9 note=44 velocity=100 time=0
note_on channel=4 note=31 velocity=0 time=14
control_change channel=10 control=7 value=126 time=0
note_on channel=14 note=76 velocity=99 time=6
note_on channel=2 note=76 velocity=99 time=2
control_change channel=10 control=7 value=124 time=0
note_on channel=14 note=74 velocity=0 time=3
note_on channel=2 note=74 velocity=0 time=2
control_change channel=10 control=7 value=123 time=0
control_change channel=10 control=7 value=121 time=15
note_on channel=0 note=76 velocity=0 time=7
note_on channel=14 note=78 velocity=108 time=0
note_on channel=2 note=78 velocity=108 time=2
note_on channel=7 note=86 velocity=66 time=2
note_on channel=0 note=74 velocity=97 time=1
note_on channel=14 note=76 velocity=0 time=1
note_on channel=7 note=88 velocity=0 time=1
note_on channel=2 note=76 velocity=0 time=1
note_on channel=10 note=74 velocity=79 time=1
note_on channel=0 note=88 velocity=0 time=1
note_on channel=0 note=86 velocity=127 time=0
note_on channel=4 note=31 velocity=94 time=0
note_on channel=9 note=44 velocity=0 time=1
note_on channel=9 note=45 velocity=108 time=0
note_on channel=9 note=44 velocity=100 time=0
note_on channel=10 note=76 velocity=0 time=7
note_on channel=14 note=78 velocity=0 time=11
note_on channel=2 note=78 velocity=0 time=2
note_on channel=14 note=79 velocity=84 time=1
note_on channel=2 note=79 velocity=84 time=2
control_change channel=10 control=7 value=120 time=0
control_change channel=10 control=7 value=118 time=10
control_change channel=10 control=7 value=117 time=5
note_on channel=9 note=45 velocity=0 time=7
control_change channel=10 control=7 value=115 time=0
note_on channel=14 note=81 velocity=127 time=7
note_on channel=2 note=81 velocity=127 time=2
control_change channel=10 control=7 value=114 time=0
note_on channel=14 note=79 velocity=0 time=1
note_on channel=2 note=79 velocity=0 time=2
note_on channel=9 note=44 velocity=0 time=3
note_on channel=9 note=44 velocity=100 time=0
note_on channel=4 note=31 velocity=0 time=18
note_on channel=14 note=83 velocity=112 time=3
note_on channel=2 note=83 velocity=112 time=2
note_on channel=14 note=81 velocity=0 time=3
note_on channel=2 note=81 velocity=0 time=2
control_change channel=10 control=7 value=112 time=0
note_on channel=0 note=74 velocity=0 time=6
note_on channel=0 note=86 velocity=0 time=1
control_change channel=10 control=7 value=111 time=0
note_on channel=10 note=72 velocity=55 time=9
note_on channel=7 note=72 velocity=127 time=6
note_on channel=10 note=72 velocity=79 time=1
note_on channel=14 note=83 velocity=0 time=1
note_on channel=7 note=71 velocity=119 time=0
control_change channel=10 control=7 value=109 time=0
note_on channel=10 note=74 velocity=0 time=1
note_on channel=2 note=83 velocity=0 time=1
note_on channel=0 note=44 velocity=81 time=1
note_on channel=0 note=44 velocity=73 time=0
note_on channel=14 note=84 velocity=127 time=0
note_on channel=14 note=72 velocity=90 time=0
note_on channel=0 note=56 velocity=77 time=1
note_on channel=0 note=63 velocity=78 time=1
note_on channel=0 note=60 velocity=83 time=0
note_on channel=2 note=84 velocity=127 time=0
note_on channel=2 note=72 velocity=90 time=0
note_on channel=0 note=56 velocity=69 time=1
note_on channel=10 note=44 velocity=77 time=0
note_on channel=10 note=56 velocity=88 time=0
note_on channel=10 note=60 velocity=105 time=0
note_on channel=9 note=44 velocity=0 time=2
note_on channel=0 note=84 velocity=127 time=0
note_on channel=4 note=32 velocity=112 time=0
note_on channel=5 note=72 velocity=77 time=0
note_on channel=7 note=84 velocity=112 time=0
note_on channel=9 note=36 velocity=108 time=0
note_on channel=9 note=44 velocity=100 time=0
control_change channel=10 control=7 value=108 time=0
note_on channel=7 note=84 velocity=83 time=7
note_on channel=7 note=86 velocity=0 time=2
control_change channel=10 control=7 value=106 time=5
note_on channel=7 note=71 velocity=0 time=3
control_change channel=10 control=7 value=105 time=17
note_on channel=9 note=36 velocity=0 time=11
control_change channel=10 control=7 value=103 time=0
control_change channel=10 control=7 value=102 time=5
note_on channel=9 note=44 velocity=0 time=10
note_on channel=9 note=44 velocity=100 time=0
note_on channel=14 note=84 velocity=0 time=6
note_on channel=2 note=84 velocity=0 time=2
note_on channel=4 note=32 velocity=0 time=8
note_on channel=9 note=40 velocity=108 time=14
note_on channel=0 note=84 velocity=0 time=6
note_on channel=9 note=44 velocity=0 time=24
note_on channel=9 note=44 velocity=100 time=0
note_on channel=4 note=32 velocity=94 time=7
note_on channel=9 note=40 velocity=0 time=8
control_change channel=10 control=7 value=99 time=10
control_change channel=10 control=7 value=100 time=0
control_change channel=10 control=7 value=97 time=10
control_change channel=10 control=7 value=96 time=10
note_on channel=9 note=44 velocity=0 time=15
note_on channel=9 note=35 velocity=108 time=0
note_on channel=9 note=44 velocity=100 time=0
note_on channel=4 note=32 velocity=0 time=17
control_change channel=10 control=7 value=95 time=5
note_on channel=0 note=75 velocity=81 time=10
control_change channel=10 control=7 value=94 time=0
note_on channel=9 note=35 velocity=0 time=13
note_on channel=0 note=80 velocity=49 time=5
note_on channel=0 note=84 velocity=69 time=1
control_change channel=10 control=7 value=92 time=5
note_on channel=9 note=44 velocity=0 time=4
note_on channel=9 note=35 velocity=108 time=0
note_on channel=9 note=44 velocity=100 time=0
note_on channel=4 note=32 velocity=102 time=4
note_on channel=10 note=72 velocity=0 time=38
note_on channel=9 note=35 velocity=0 time=3
note_on channel=14 note=72 velocity=0 time=5
note_on channel=2 note=72 velocity=0 time=2
note_on channel=7 note=84 velocity=0 time=1
note_on channel=2 note=63 velocity=66 time=3
note_on channel=5 note=72 velocity=0 time=4
note_on channel=9 note=44 velocity=0 time=0
note_on channel=7 note=84 velocity=0 time=0
note_on channel=5 note=63 velocity=90 time=0
note_on channel=7 note=75 velocity=127 time=0
note_on channel=9 note=44 velocity=100 time=0
note_on channel=10 note=63 velocity=75 time=3
note_on channel=10 note=72 velocity=0 time=8
note_on channel=7 note=72 velocity=0 time=2
note_on channel=7 note=63 velocity=108 time=1
note_on channel=4 note=32 velocity=0 time=3
note_on channel=2 note=68 velocity=39 time=36
note_on channel=9 note=44 velocity=0 time=7
note_on channel=7 note=75 velocity=0 time=0
note_on channel=5 note=68 velocity=88 time=0
note_on channel=7 note=80 velocity=77 time=0
note_on channel=9 note=40 velocity=108 time=0
note_on channel=9 note=44 velocity=100 time=0
note_on channel=2 note=63 velocity=0 time=3
note_on channel=7 note=68 velocity=102 time=0
note_on channel=10 note=68 velocity=79 time=1
note_on channel=4 note=32 velocity=108 time=1
note_on channel=0 note=44 velocity=0 time=3
note_on channel=7 note=63 velocity=0 time=8
note_on channel=0 note=56 velocity=0 time=3
note_on channel=5 note=63 velocity=0 time=11
note_on channel=0 note=60 velocity=0 time=4
note_on channel=0 note=63 velocity=0 time=6
note_on channel=9 note=40 velocity=0 time=5
note_on channel=2 note=72 velocity=54 time=4
note_on channel=0 note=44 velocity=0 time=2
note_on channel=2 note=68 velocity=0 time=5
note_on channel=10 note=72 velocity=84 time=1
note_on channel=0 note=56 velocity=0 time=3
note_on channel=5 note=68 velocity=0 time=0
note_on channel=9 note=44 velocity=0 time=0
note_on channel=7 note=80 velocity=0 time=0
note_on channel=5 note=72 velocity=102 time=0
note_on channel=7 note=84 velocity=92 time=0
note_on channel=9 note=44 velocity=100 time=0
note_on channel=7 note=72 velocity=105 time=1
note_on channel=7 note=71 velocity=105 time=0
note_on channel=10 note=68 velocity=0 time=1
note_on channel=4 note=32 velocity=0 time=7
note_on channel=7 note=68 velocity=0 time=0
note_on channel=7 note=71 velocity=0 time=11
note_on channel=10 note=63 velocity=0 time=17
note_on channel=10 note=72 velocity=0 time=12
note_on channel=2 note=72 velocity=0 time=0
note_on channel=7 note=72 velocity=0 time=5
note_on channel=0 note=58 velocity=83 time=2
note_on channel=10 note=74 velocity=63 time=0
note_on channel=0 note=46 velocity=79 time=1
note_on channel=10 note=60 velocity=0 time=1
note_on channel=7 note=84 velocity=0 time=2
note_on channel=10 note=44 velocity=0 time=0
note_on channel=5 note=72 velocity=0 time=0
note_on channel=9 note=44 velocity=0 time=0
note_on channel=2 note=74 velocity=40 time=0
note_on channel=5 note=74 velocity=57 time=0
note_on channel=7 note=86 velocity=115 time=0
note_on channel=9 note=35 velocity=108 time=0
note_on channel=9 note=44 velocity=100 time=0
note_on channel=10 note=56 velocity=0 time=1
note_on channel=0 note=75 velocity=0 time=0
note_on channel=7 note=74 velocity=124 time=1
note_on channel=0 note=84 velocity=0 time=1
note_on channel=0 note=80 velocity=0 time=0
note_on channel=0 note=44 velocity=65 time=6
note_on channel=0 note=56 velocity=61 time=2
note_on channel=4 note=32 velocity=112 time=0
note_on channel=10 note=62 velocity=67 time=0
note_on channel=0 note=62 velocity=58 time=3
note_on channel=0 note=58 velocity=55 time=0
note_on channel=10 note=58 velocity=86 time=0
note_on channel=10 note=56 velocity=55 time=5
note_on channel=10 note=44 velocity=60 time=0
note_on channel=9 note=35 velocity=0 time=26
note_on channel=4 note=32 velocity=0 time=15
note_on channel=9 note=44 velocity=0 time=0
note_on channel=9 note=44 velocity=100 time=0
note_on channel=9 note=40 velocity=108 time=30
note_on channel=9 note=44 velocity=0 time=30
note_on channel=4 note=32 velocity=127 time=0
note_on channel=9 note=44 velocity=100 time=0
note_on channel=9 note=40 velocity=0 time=15
note_on channel=9 note=44 velocity=0 time=45
note_on channel=9 note=35 velocity=108 time=0
note_on channel=9 note=44 velocity=100 time=0
note_on channel=4 note=32 velocity=0 time=11
note_on channel=0 note=77 velocity=88 time=19
note_on channel=9 note=35 velocity=0 time=15
note_on channel=0 note=82 velocity=92 time=3
note_on channel=0 note=86 velocity=119 time=5
note_on channel=9 note=44 velocity=0 time=7
note_on channel=9 note=33 velocity=108 time=0
note_on channel=9 note=44 velocity=100 time=0
note_on channel=4 note=32 velocity=119 time=3
note_on channel=10 note=74 velocity=0 time=25
note_on channel=2 note=74 velocity=0 time=2
note_on channel=5 note=74 velocity=0 time=0
note_on channel=7 note=86 velocity=0 time=0
note_on channel=7 note=74 velocity=0 time=13
note_on channel=9 note=33 velocity=0 time=2
note_on channel=10 note=74 velocity=64 time=13
note_on channel=9 note=44 velocity=0 time=2
note_on channel=2 note=74 velocity=60 time=0
note_on channel=5 note=74 velocity=74 time=0
note_on channel=7 note=86 velocity=74 time=0
note_on channel=9 note=44 velocity=100 time=0
note_on channel=7 note=74 velocity=88 time=2
note_on channel=4 note=32 velocity=0 time=9
note_on channel=0 note=58 velocity=0 time=12
note_on channel=0 note=46 velocity=0 time=6
note_on channel=0 note=56 velocity=0 time=12
note_on channel=0 note=44 velocity=0 time=7
note_on channel=10 note=75 velocity=43 time=0
note_on channel=7 note=75 velocity=115 time=8
note_on channel=10 note=74 velocity=0 time=3
note_on channel=2 note=74 velocity=0 time=1
note_on channel=5 note=74 velocity=0 time=0
note_on channel=9 note=44 velocity=0 time=0
note_on channel=7 note=86 velocity=0 time=0
note_on channel=2 note=75 velocity=44 time=0
note_on channel=5 note=75 velocity=61 time=0
note_on channel=7 note=87 velocity=74 time=0
note_on channel=9 note=45 velocity=108 time=0
note_on channel=9 note=44 velocity=100 time=0
note_on channel=4 note=32 velocity=127 time=5
note_on channel=7 note=74 velocity=0 time=4
note_on channel=2 note=77 velocity=33 time=21
note_on channel=9 note=45 velocity=0 time=15
note_on channel=0 note=62 velocity=0 time=2
note_on channel=10 note=75 velocity=0 time=5
note_on channel=0 note=58 velocity=0 time=0
note_on channel=7 note=77 velocity=127 time=0
note_on channel=10 note=77 velocity=94 time=0
note_on channel=5 note=75 velocity=0 time=8
note_on channel=9 note=44 velocity=0 time=0
note_on channel=7 note=75 velocity=0 time=0
note_on channel=2 note=75 velocity=0 time=0
note_on channel=7 note=87 velocity=0 time=0
note_on channel=5 note=77 velocity=68 time=0
note_on channel=7 note=89 velocity=59 time=0
note_on channel=9 note=44 velocity=100 time=0
note_on channel=10 note=56 velocity=0 time=14
note_on channel=4 note=32 velocity=0 time=3
note_on channel=10 note=44 velocity=0 time=3
note_on channel=10 note=62 velocity=0 time=17
note_on channel=10 note=58 velocity=0 time=4
note_on channel=7 note=77 velocity=0 time=3
note_on channel=7 note=70 velocity=127 time=6
note_on channel=0 note=43 velocity=68 time=2
note_on channel=0 note=55 velocity=58 time=3
note_on channel=10 note=43 velocity=83 time=1
note_on channel=10 note=55 velocity=72 time=0
note_on channel=10 note=77 velocity=0 time=1
note_on channel=0 note=43 velocity=61 time=2
note_on channel=9 note=44 velocity=0 time=1
note_on channel=2 note=77 velocity=0 time=0
note_on channel=7 note=89 velocity=0 time=0
note_on channel=5 note=77 velocity=0 time=0
note_on channel=0 note=55 velocity=69 time=0
note_on channel=0 note=58 velocity=53 time=0
note_on channel=2 note=70 velocity=73 time=0
note_on channel=5 note=70 velocity=54 time=0
note_on channel=7 note=82 velocity=105 time=0
note_on channel=9 note=36 velocity=108 time=0
note_on channel=9 note=44 velocity=100 time=0
note_on channel=10 note=58 velocity=81 time=0
note_on channel=0 note=82 velocity=0 time=1
note_on channel=0 note=62 velocity=67 time=0
note_on channel=10 note=70 velocity=58 time=0
note_on channel=10 note=62 velocity=97 time=0
note_on channel=0 note=77 velocity=0 time=5
note_on channel=0 note=86 velocity=0 time=0
note_on channel=4 note=31 velocity=97 time=4
control_change channel=10 control=7 value=93 time=15
note_on channel=9 note=36 velocity=0 time=20
note_on channel=9 note=44 velocity=0 time=15
note_on channel=9 note=44 velocity=100 time=0
note_on channel=4 note=31 velocity=0 time=13
note_on channel=9 note=40 velocity=108 time=17
note_on channel=9 note=44 velocity=0 time=30
note_on channel=9 note=44 velocity=100 time=0
note_on channel=4 note=31 velocity=94 time=2
note_on channel=9 note=40 velocity=0 time=13
note_on channel=9 note=44 velocity=0 time=45
note_on channel=9 note=35 velocity=108 time=0
note_on channel=9 note=44 velocity=100 time=0
note_on channel=4 note=31 velocity=0 time=10
note_on channel=0 note=77 velocity=49 time=3
note_on channel=0 note=82 velocity=33 time=26
note_on channel=0 note=79 velocity=15 time=3
note_on channel=9 note=35 velocity=0 time=3
note_on channel=0 note=86 velocity=115 time=2
note_on channel=4 note=31 velocity=94 time=11
note_on channel=9 note=44 velocity=0 time=2
note_on channel=9 note=35 velocity=108 time=0
note_on channel=9 note=44 velocity=100 time=0
note_on channel=10 note=70 velocity=0 time=15
note_on channel=7 note=70 velocity=0 time=15
note_on channel=2 note=70 velocity=0 time=0
note_on channel=5 note=70 velocity=0 time=0
note_on channel=9 note=35 velocity=0 time=15
note_on channel=7 note=70 velocity=127 time=13
note_on channel=10 note=70 velocity=61 time=0
note_on channel=9 note=44 velocity=0 time=2
note_on channel=7 note=82 velocity=0 time=0
note_on channel=2 note=70 velocity=62 time=0
note_on channel=5 note=70 velocity=65 time=0
note_on channel=7 note=82 velocity=97 time=0
note_on channel=9 note=44 velocity=100 time=0
note_on channel=4 note=31 velocity=0 time=8
note_on channel=0 note=43 velocity=0 time=28
note_on channel=0 note=55 velocity=0 time=5
note_on channel=7 note=75 velocity=66 time=9
note_on channel=4 note=31 velocity=97 time=7
note_on channel=7 note=70 velocity=0 time=1
note_on channel=10 note=75 velocity=52 time=1
note_on channel=5 note=70 velocity=0 time=1
note_on channel=2 note=70 velocity=0 time=0
note_on channel=9 note=44 velocity=0 time=0
note_on channel=7 note=82 velocity=0 time=0
note_on channel=2 note=75 velocity=36 time=0
note_on channel=5 note=75 velocity=79 time=0
note_on channel=7 note=87 velocity=80 time=0
note_on channel=9 note=40 velocity=108 time=0
note_on channel=9 note=46 velocity=100 time=0
note_on channel=0 note=43 velocity=0 time=5
note_on channel=0 note=55 velocity=0 time=11
note_on channel=10 note=70 velocity=0 time=9
note_on channel=7 note=87 velocity=0 time=5
note_on channel=0 note=58 velocity=0 time=1
note_on channel=7 note=75 velocity=0 time=3
note_on channel=0 note=62 velocity=0 time=8
note_on channel=9 note=40 velocity=0 time=3
note_on channel=10 note=75 velocity=0 time=2
note_on channel=7 note=82 velocity=81 time=2
note_on channel=4 note=31 velocity=0 time=10
note_on channel=2 note=75 velocity=0 time=1
note_on channel=5 note=75 velocity=0 time=0
note_on channel=9 note=46 velocity=0 time=0
note_on channel=2 note=82 velocity=39 time=0
note_on channel=5 note=82 velocity=37 time=0
note_on channel=7 note=94 velocity=127 time=0
note_on channel=9 note=44 velocity=100 time=0
note_on channel=10 note=82 velocity=84 time=0
note_on channel=10 note=43 velocity=0 time=5
note_on channel=10 note=55 velocity=0 time=5
note_on channel=10 note=82 velocity=0 time=18
note_on channel=5 note=82 velocity=0 time=2
note_on channel=2 note=82 velocity=0 time=0
note_on channel=7 note=94 velocity=0 time=0
note_on channel=7 note=82 velocity=0 time=2
note_on channel=10 note=58 velocity=0 time=13
note_on channel=10 note=62 velocity=0 time=1
note_on channel=10 note=60 velocity=49 time=4
note_on channel=0 note=44 velocity=55 time=2
note_on channel=7 note=82 velocity=94 time=0
note_on channel=10 note=82 velocity=43 time=0
note_on channel=0 note=56 velocity=63 time=1
note_on channel=0 note=44 velocity=84 time=3
note_on channel=0 note=56 velocity=112 time=3
note_on channel=0 note=60 velocity=66 time=0
note_on channel=0 note=63 velocity=50 time=0
note_on channel=10 note=44 velocity=72 time=0
note_on channel=9 note=44 velocity=0 time=1
note_on channel=2 note=82 velocity=60 time=0
note_on channel=5 note=82 velocity=49 time=0
note_on channel=7 note=94 velocity=127 time=0
note_on channel=9 note=35 velocity=108 time=0
note_on channel=9 note=44 velocity=100 time=0
note_on channel=4 note=32 velocity=119 time=2
note_on channel=10 note=56 velocity=88 time=3
note_on channel=0 note=79 velocity=0 time=2
note_on channel=0 note=86 velocity=0 time=9
note_on channel=0 note=82 velocity=0 time=3
note_on channel=0 note=77 velocity=0 time=0
note_on channel=9 note=35 velocity=0 time=26
note_on channel=9 note=44 velocity=0 time=15
note_on channel=9 note=44 velocity=100 time=0
note_on channel=4 note=32 velocity=0 time=12
note_on channel=9 note=40 velocity=108 time=18
note_on channel=10 note=80 velocity=37 time=23
note_on channel=7 note=80 velocity=77 time=4
note_on channel=10 note=82 velocity=0 time=2
note_on channel=9 note=44 velocity=0 time=1
note_on channel=7 note=94 velocity=0 time=0
note_on channel=5 note=82 velocity=0 time=0
note_on channel=2 note=82 velocity=0 time=0
note_on channel=2 note=80 velocity=44 time=0
note_on channel=5 note=82 velocity=53 time=0
note_on channel=7 note=92 velocity=100 time=0
note_on channel=9 note=44 velocity=100 time=0
note_on channel=4 note=32 velocity=119 time=4
note_on channel=9 note=40 velocity=0 time=11
note_on channel=7 note=82 velocity=0 time=0
note_on channel=7 note=80 velocity=0 time=35
note_on channel=10 note=79 velocity=64 time=1
note_on channel=7 note=79 velocity=92 time=4
note_on channel=10 note=80 velocity=0 time=4
note_on channel=9 note=44 velocity=0 time=1
note_on channel=7 note=92 velocity=0 time=0
note_on channel=5 note=82 velocity=0 time=0
note_on channel=2 note=80 velocity=0 time=0
note_on channel=2 note=79 velocity=45 time=0
note_on channel=5 note=79 velocity=49 time=0
note_on channel=7 note=91 velocity=90 time=0
note_on channel=9 note=35 velocity=108 time=0
note_on channel=9 note=44 velocity=100 time=0
note_on channel=4 note=32 velocity=0 time=11
note_on channel=2 note=77 velocity=52 time=19
note_on channel=0 note=75 velocity=41 time=5
note_on channel=9 note=35 velocity=0 time=10
note_on channel=7 note=77 velocity=127 time=6
note_on channel=10 note=77 velocity=52 time=5
note_on channel=10 note=79 velocity=0 time=3
note_on channel=7 note=79 velocity=0 time=1
note_on channel=9 note=44 velocity=0 time=0
note_on channel=7 note=91 velocity=0 time=0
note_on channel=5 note=79 velocity=0 time=0
note_on channel=2 note=79 velocity=0 time=0
note_on channel=0 note=80 velocity=66 time=0
note_on channel=0 note=84 velocity=75 time=0
note_on channel=5 note=77 velocity=63 time=0
note_on channel=7 note=89 velocity=90 time=0
note_on channel=9 note=33 velocity=108 time=0
note_on channel=9 note=44 velocity=100 time=0
note_on channel=4 note=32 velocity=127 time=5
control_change channel=0 control=7 value=109 time=35
note_on channel=9 note=33 velocity=0 time=5
note_on channel=9 note=44 velocity=0 time=15
note_on channel=9 note=44 velocity=100 time=0
note_on channel=4 note=32 velocity=0 time=13
control_change channel=0 control=7 value=108 time=15
control_change channel=0 control=7 value=106 time=5
control_change channel=0 control=7 value=105 time=5
note_on channel=7 note=75 velocity=112 time=19
note_on channel=10 note=75 velocity=38 time=0
note_on channel=10 note=77 velocity=0 time=1
note_on channel=7 note=89 velocity=0 time=2
note_on channel=9 note=44 velocity=0 time=0
note_on channel=2 note=77 velocity=0 time=0
note_on channel=5 note=77 velocity=0 time=0
note_on channel=2 note=75 velocity=72 time=0
note_on channel=5 note=75 velocity=39 time=0
note_on channel=7 note=87 velocity=99 time=0
note_on channel=9 note=45 velocity=108 time=0
note_on channel=9 note=44 velocity=100 time=0
note_on channel=7 note=77 velocity=0 time=2
note_on channel=4 note=32 velocity=127 time=5
control_change channel=0 control=7 value=103 time=5
control_change channel=0 control=7 value=102 time=5
control_change channel=0 control=7 value=100 time=5
control_change channel=0 control=7 value=99 time=5
note_on channel=0 note=56 velocity=0 time=11
control_change channel=0 control=7 value=95 time=0
note_on channel=9 note=45 velocity=0 time=7
note_on channel=0 note=44 velocity=0 time=2
note_on channel=0 note=60 velocity=0 time=1
note_on channel=0 note=63 velocity=0 time=2
note_on channel=4 note=32 velocity=0 time=9
note_on channel=0 note=56 velocity=0 time=1
note_on channel=9 note=44 velocity=0 time=0
note_on channel=9 note=46 velocity=100 time=0
note_on channel=0 note=44 velocity=0 time=6
control_change channel=0 control=7 value=94 time=0
control_change channel=0 control=7 value=89 time=5
note_on channel=10 note=60 velocity=0 time=4
note_on channel=10 note=56 velocity=0 time=1
control_change channel=0 control=7 value=80 time=5
note_on channel=10 note=44 velocity=0 time=2
note_on channel=0 note=75 velocity=0 time=4
note_on channel=0 note=80 velocity=0 time=0
control_change channel=0 control=7 value=74 time=0
note_on channel=2 note=75 velocity=0 time=3
note_on channel=0 note=84 velocity=0 time=7
note_on channel=10 note=75 velocity=0 time=3
note_on channel=7 note=75 velocity=0 time=5
note_on channel=0 note=61 velocity=97 time=13
note_on channel=0 note=56 velocity=94 time=0
note_on channel=0 note=65 velocity=102 time=0
note_on channel=0 note=41 velocity=115 time=1
note_on channel=0 note=53 velocity=124 time=0
note_on channel=7 note=87 velocity=0 time=1
note_on channel=9 note=46 velocity=0 time=0
note_on channel=5 note=75 velocity=0 time=0
note_on channel=5 note=77 velocity=75 time=0
note_on channel=10 note=77 velocity=75 time=0
note_on channel=4 note=29 velocity=105 time=1
note_on channel=9 note=46 velocity=127 time=1
note_on channel=9 note=36 velocity=127 time=1
note_on channel=12 note=65 velocity=99 time=1
note_on channel=13 note=65 velocity=99 time=0
note_on channel=9 note=46 velocity=0 time=24
note_on channel=9 note=44 velocity=99 time=33
note_on channel=9 note=44 velocity=0 time=23
note_on channel=12 note=67 velocity=97 time=5
note_on channel=13 note=67 velocity=97 time=0
note_on channel=12 note=65 velocity=0 time=7
note_on channel=13 note=65 velocity=0 time=0
note_on channel=9 note=44 velocity=119 time=25
note_on channel=9 note=44 velocity=0 time=24
note_on channel=4 note=29 velocity=0 time=19
note_on channel=10 note=77 velocity=0 time=6
note_on channel=5 note=77 velocity=0 time=0
note_on channel=12 note=67 velocity=0 time=2
note_on channel=13 note=67 velocity=0 time=0
note_on channel=12 note=68 velocity=99 time=2
note_on channel=13 note=68 velocity=99 time=0
note_on channel=9 note=44 velocity=115 time=6
control_change channel=0 control=7 value=75 time=5
note_on channel=5 note=79 velocity=84 time=8
note_on channel=10 note=79 velocity=84 time=0
note_on channel=9 note=36 velocity=0 time=1
note_on channel=4 note=29 velocity=88 time=1
note_on channel=0 note=41 velocity=0 time=5
note_on channel=0 note=53 velocity=0 time=0
note_on channel=0 note=61 velocity=0 time=0
note_on channel=0 note=65 velocity=0 time=1
note_on channel=0 note=56 velocity=0 time=2
note_on channel=9 note=44 velocity=0 time=2
note_on channel=5 note=80 velocity=112 time=8
note_on channel=10 note=80 velocity=112 time=0
note_on channel=10 note=79 velocity=0 time=10
note_on channel=5 note=79 velocity=0 time=0
note_on channel=4 note=29 velocity=0 time=6
note_on channel=0 note=70 velocity=102 time=4
note_on channel=0 note=55 velocity=119 time=0
note_on channel=0 note=61 velocity=108 time=0
note_on channel=0 note=43 velocity=127 time=1
note_on channel=0 note=63 velocity=119 time=0
note_on channel=9 note=47 velocity=127 time=4
note_on channel=12 note=68 velocity=0 time=1
note_on channel=13 note=68 velocity=0 time=0
note_on channel=9 note=40 velocity=127 time=0
note_on channel=5 note=82 velocity=124 time=1
note_on channel=9 note=44 velocity=108 time=0
note_on channel=10 note=82 velocity=124 time=0
note_on channel=12 note=70 velocity=86 time=4
note_on channel=13 note=70 velocity=86 time=0
note_on channel=5 note=80 velocity=0 time=2
note_on channel=10 note=80 velocity=0 time=0
note_on channel=4 note=31 velocity=105 time=0
note_on channel=9 note=44 velocity=0 time=7
note_on channel=9 note=47 velocity=0 time=21
note_on channel=9 note=40 velocity=0 time=15
note_on channel=9 note=44 velocity=108 time=7
note_on channel=9 note=44 velocity=0 time=22
note_on channel=5 note=82 velocity=0 time=32
note_on channel=10 note=82 velocity=0 time=0
note_on channel=12 note=70 velocity=0 time=6
note_on channel=13 note=70 velocity=0 time=0
note_on channel=12 note=63 velocity=83 time=0
note_on channel=13 note=63 velocity=83 time=0
note_on channel=9 note=44 velocity=81 time=4
note_on channel=5 note=75 velocity=108 time=8
note_on channel=10 note=75 velocity=108 time=0
note_on channel=9 note=44 velocity=0 time=9
note_on channel=9 note=44 velocity=102 time=37
note_on channel=9 note=44 velocity=0 time=16
note_on channel=10 note=75 velocity=0 time=2
note_on channel=5 note=75 velocity=0 time=0
note_on channel=0 note=63 velocity=0 time=16
note_on channel=0 note=43 velocity=0 time=2
note_on channel=0 note=55 velocity=0 time=1
note_on channel=4 note=31 velocity=0 time=1
note_on channel=0 note=70 velocity=0 time=1
note_on channel=13 note=63 velocity=0 time=2
note_on channel=0 note=61 velocity=0 time=0
note_on channel=12 note=63 velocity=0 time=0
note_on channel=9 note=36 velocity=127 time=21
note_on channel=9 note=46 velocity=127 time=1
note_on channel=0 note=68 velocity=115 time=2
note_on channel=12 note=63 velocity=115 time=0
note_on channel=13 note=63 velocity=115 time=0
note_on channel=0 note=61 velocity=112 time=3
note_on channel=0 note=49 velocity=124 time=0
note_on channel=0 note=63 velocity=124 time=1
note_on channel=0 note=37 velocity=112 time=0
note_on channel=5 note=75 velocity=108 time=0
note_on channel=10 note=75 velocity=108 time=0
note_on channel=4 note=37 velocity=127 time=4
note_on channel=9 note=46 velocity=0 time=12
note_on channel=9 note=36 velocity=0 time=24
note_on channel=9 note=44 velocity=108 time=11
note_on channel=9 note=44 velocity=0 time=21
note_on channel=12 note=65 velocity=69 time=5
note_on channel=13 note=65 velocity=69 time=0
note_on channel=12 note=63 velocity=0 time=4
note_on channel=13 note=63 velocity=0 time=0
note_on channel=9 note=44 velocity=119 time=31
note_on channel=9 note=44 velocity=0 time=19
note_on channel=10 note=75 velocity=0 time=19
note_on channel=5 note=75 velocity=0 time=0
note_on channel=4 note=37 velocity=0 time=5
note_on channel=12 note=67 velocity=99 time=13
note_on channel=13 note=67 velocity=99 time=0
note_on channel=5 note=77 velocity=105 time=5
note_on channel=10 note=77 velocity=105 time=0
note_on channel=9 note=44 velocity=115 time=4
note_on channel=12 note=65 velocity=0 time=1
note_on channel=13 note=65 velocity=0 time=0
note_on channel=4 note=37 velocity=102 time=2
note_on channel=5 note=79 velocity=99 time=16
note_on channel=10 note=79 velocity=99 time=0
note_on channel=9 note=44 velocity=0 time=3
note_on channel=10 note=77 velocity=0 time=8
note_on channel=5 note=77 velocity=0 time=0
note_on channel=5 note=80 velocity=127 time=12
note_on channel=10 note=80 velocity=127 time=0
note_on channel=0 note=63 velocity=0 time=4
note_on channel=5 note=79 velocity=0 time=1
note_on channel=10 note=79 velocity=0 time=0
note_on channel=0 note=49 velocity=0 time=3
note_on channel=0 note=68 velocity=0 time=0
note_on channel=0 note=61 velocity=0 time=1
note_on channel=0 note=37 velocity=0 time=0
note_on channel=4 note=37 velocity=0 time=0
note_on channel=9 note=47 velocity=97 time=8
note_on channel=12 note=67 velocity=0 time=1
note_on channel=13 note=67 velocity=0 time=0
note_on channel=9 note=44 velocity=115 time=0
note_on channel=9 note=40 velocity=127 time=0
note_on channel=4 note=30 velocity=94 time=5
note_on channel=12 note=68 velocity=102 time=0
note_on channel=13 note=68 velocity=102 time=0
note_on channel=0 note=42 velocity=127 time=5
note_on channel=0 note=54 velocity=124 time=1
note_on channel=0 note=58 velocity=127 time=1
note_on channel=0 note=61 velocity=127 time=3
note_on channel=9 note=44 velocity=0 time=7
note_on channel=9 note=40 velocity=0 time=4
note_on channel=9 note=47 velocity=0 time=4
note_on channel=9 note=44 velocity=108 time=31
note_on channel=9 note=44 velocity=0 time=19
note_on channel=5 note=73 velocity=72 time=28
note_on channel=10 note=73 velocity=72 time=0
note_on channel=5 note=80 velocity=0 time=1
note_on channel=10 note=80 velocity=0 time=0
note_on channel=13 note=68 velocity=0 time=6
note_on channel=12 note=68 velocity=0 time=0
note_on channel=12 note=61 velocity=99 time=1
note_on channel=13 note=61 velocity=99 time=0
note_on channel=9 note=44 velocity=115 time=8
note_on channel=9 note=44 velocity=0 time=15
note_on channel=9 note=44 velocity=112 time=40
note_on channel=10 note=73 velocity=0 time=4
note_on channel=5 note=73 velocity=0 time=0
note_on channel=9 note=44 velocity=0 time=9
note_on channel=0 note=54 velocity=0 time=25
note_on channel=13 note=61 velocity=0 time=1
note_on channel=12 note=61 velocity=0 time=0
note_on channel=0 note=42 velocity=0 time=1
note_on channel=0 note=61 velocity=0 time=1
note_on channel=0 note=58 velocity=0 time=1
note_on channel=4 note=30 velocity=0 time=0
note_on channel=5 note=73 velocity=105 time=11
note_on channel=10 note=73 velocity=105 time=0
note_on channel=0 note=43 velocity=127 time=6
note_on channel=9 note=36 velocity=127 time=0
note_on channel=0 note=55 velocity=127 time=1
note_on channel=9 note=46 velocity=127 time=1
note_on channel=12 note=61 velocity=115 time=3
note_on channel=13 note=61 velocity=115 time=0
note_on channel=0 note=61 velocity=127 time=1
note_on channel=4 note=31 velocity=88 time=0
note_on channel=0 note=59 velocity=119 time=1
note_on channel=9 note=46 velocity=0 time=15
note_on channel=9 note=36 velocity=0 time=6
note_on channel=9 note=44 velocity=108 time=31
note_on channel=9 note=44 velocity=0 time=18
note_on channel=12 note=62 velocity=84 time=9
note_on channel=13 note=62 velocity=84 time=0
note_on channel=13 note=61 velocity=0 time=4
note_on channel=12 note=61 velocity=0 time=0
note_on channel=9 note=44 velocity=127 time=27
note_on channel=9 note=44 velocity=0 time=20
note_on channel=9 note=44 velocity=127 time=40
note_on channel=12 note=64 velocity=84 time=5
note_on channel=13 note=64 velocity=84 time=0
note_on channel=12 note=62 velocity=0 time=3
note_on channel=10 note=73 velocity=0 time=0
note_on channel=13 note=62 velocity=0 time=0
note_on channel=5 note=73 velocity=0 time=0
note_on channel=4 note=31 velocity=0 time=1
note_on channel=5 note=74 velocity=68 time=3
note_on channel=10 note=74 velocity=68 time=0
note_on channel=9 note=44 velocity=0 time=8
note_on channel=4 note=31 velocity=59 time=2
note_on channel=5 note=76 velocity=40 time=6
note_on channel=10 note=76 velocity=40 time=0
note_on channel=10 note=74 velocity=0 time=16
note_on channel=5 note=74 velocity=0 time=0
note_on channel=4 note=31 velocity=0 time=6
note_on channel=5 note=81 velocity=90 time=6
note_on channel=10 note=81 velocity=90 time=0
note_on channel=12 note=64 velocity=0 time=8
note_on channel=13 note=64 velocity=0 time=0
note_on channel=9 note=44 velocity=115 time=1
note_on channel=5 note=76 velocity=0 time=1
note_on channel=10 note=76 velocity=0 time=0
note_on channel=9 note=47 velocity=108 time=0
note_on channel=9 note=40 velocity=127 time=3
note_on channel=4 note=31 velocity=90 time=2
note_on channel=12 note=57 velocity=105 time=0
note_on channel=13 note=57 velocity=105 time=0
note_on channel=9 note=44 velocity=0 time=16
note_on channel=9 note=40 velocity=0 time=3
note_on channel=9 note=47 velocity=0 time=4
note_on channel=9 note=44 velocity=124 time=32
note_on channel=9 note=44 velocity=0 time=17
note_on channel=12 note=57 velocity=0 time=29
note_on channel=13 note=57 velocity=0 time=0
note_on channel=9 note=44 velocity=112 time=16
note_on channel=12 note=57 velocity=94 time=7
note_on channel=13 note=57 velocity=94 time=0
note_on channel=9 note=44 velocity=0 time=11
note_on channel=0 note=55 velocity=0 time=34
note_on channel=9 note=44 velocity=97 time=4
note_on channel=0 note=43 velocity=0 time=2
note_on channel=0 note=61 velocity=0 time=5
note_on channel=0 note=59 velocity=0 time=1
note_on channel=9 note=44 velocity=0 time=7
note_on channel=4 note=31 velocity=0 time=17
note_on channel=4 note=30 velocity=100 time=29
note_on channel=7 note=78 velocity=119 time=0
note_on channel=9 note=49 velocity=127 time=0
note_on channel=9 note=44 velocity=127 time=3
note_on channel=9 note=36 velocity=127 time=0
note_on channel=0 note=38 velocity=124 time=1
note_on channel=0 note=62 velocity=127 time=1
note_on channel=0 note=66 velocity=119 time=1
note_on channel=0 note=50 velocity=124 time=0
note_on channel=0 note=57 velocity=105 time=1
note_on channel=0 note=59 velocity=92 time=2
note_on channel=12 note=66 velocity=127 time=1
note_on channel=13 note=66 velocity=127 time=0
note_on channel=0 note=59 velocity=0 time=7
note_on channel=9 note=49 velocity=0 time=3
note_on channel=5 note=81 velocity=0 time=0
note_on channel=10 note=81 velocity=0 time=0
note_on channel=12 note=57 velocity=0 time=2
note_on channel=13 note=57 velocity=0 time=0
note_on channel=9 note=44 velocity=0 time=3
note_on channel=7 note=78 velocity=0 time=2
note_on channel=9 note=36 velocity=0 time=4
note_on channel=7 note=77 velocity=119 time=3
note_on channel=5 note=78 velocity=45 time=14
note_on channel=10 note=78 velocity=45 time=0
note_on channel=5 note=78 velocity=55 time=12
note_on channel=9 note=44 velocity=99 time=0
note_on channel=10 note=78 velocity=55 time=0
note_on channel=7 note=77 velocity=0 time=4
note_on channel=7 note=78 velocity=94 time=5
note_on channel=9 note=44 velocity=0 time=13
note_on channel=7 note=78 velocity=0 time=8
note_on channel=7 note=77 velocity=115 time=8
note_on channel=7 note=77 velocity=0 time=19
note_on channel=9 note=44 velocity=102 time=3
note_on channel=7 note=78 velocity=97 time=1
note_on channel=7 note=78 velocity=0 time=21
note_on channel=9 note=44 velocity=0 time=0
note_on channel=7 note=77 velocity=108 time=4
note_on channel=10 note=78 velocity=0 time=6
note_on channel=5 note=78 velocity=0 time=0
note_on channel=7 note=77 velocity=0 time=9
note_on channel=7 note=78 velocity=68 time=4
note_on channel=7 note=78 velocity=0 time=15
note_on channel=9 note=44 velocity=112 time=0
note_on channel=7 note=77 velocity=94 time=8
note_on channel=7 note=77 velocity=0 time=11
note_on channel=9 note=44 velocity=0 time=4
note_on channel=7 note=78 velocity=84 time=2
note_on channel=7 note=78 velocity=0 time=15
note_on channel=7 note=77 velocity=90 time=6
note_on channel=9 note=47 velocity=115 time=10
note_on channel=9 note=40 velocity=127 time=3
note_on channel=7 note=77 velocity=0 time=1
note_on channel=9 note=44 velocity=112 time=2
note_on channel=9 note=38 velocity=108 time=0
note_on channel=7 note=78 velocity=92 time=3
note_on channel=9 note=44 velocity=0 time=5
note_on channel=9 note=38 velocity=0 time=3
note_on channel=7 note=78 velocity=0 time=7
note_on channel=9 note=40 velocity=0 time=3
note_on channel=9 note=47 velocity=0 time=3
note_on channel=7 note=77 velocity=92 time=2
note_on channel=7 note=77 velocity=0 time=10
note_on channel=7 note=78 velocity=73 time=5
note_on channel=5 note=78 velocity=0 time=2
note_on channel=10 note=78 velocity=0 time=0
note_on channel=9 note=44 velocity=108 time=10
note_on channel=7 note=78 velocity=0 time=2
note_on channel=7 note=77 velocity=79 time=7
note_on channel=7 note=77 velocity=0 time=13
note_on channel=9 note=44 velocity=0 time=0
note_on channel=7 note=78 velocity=97 time=3
note_on channel=7 note=78 velocity=0 time=16
note_on channel=7 note=77 velocity=102 time=7
note_on channel=9 note=38 velocity=127 time=11
note_on channel=7 note=77 velocity=0 time=3
note_on channel=7 note=78 velocity=79 time=4
note_on channel=9 note=44 velocity=97 time=3
note_on channel=7 note=78 velocity=0 time=7
note_on channel=9 note=38 velocity=0 time=0
note_on channel=7 note=77 velocity=61 time=3
note_on channel=9 note=44 velocity=0 time=7
note_on channel=7 note=77 velocity=0 time=3
note_on channel=13 note=66 velocity=0 time=8
note_on channel=12 note=66 velocity=0 time=0
note_on channel=0 note=50 velocity=0 time=19
note_on channel=0 note=38 velocity=0 time=1
note_on channel=9 note=38 velocity=74 time=0
note_on channel=9 note=44 velocity=90 time=7
note_on channel=0 note=66 velocity=0 time=3
note_on channel=0 note=62 velocity=0 time=0
note_on channel=9 note=38 velocity=0 time=5
note_on channel=0 note=57 velocity=0 time=2
note_on channel=9 note=38 velocity=74 time=4
note_on channel=9 note=44 velocity=0 time=1
note_on channel=9 note=38 velocity=0 time=13
note_on channel=9 note=38 velocity=127 time=4
note_on channel=9 note=38 velocity=0 time=12
note_on channel=5 note=78 velocity=81 time=0
note_on channel=10 note=78 velocity=81 time=0
note_on channel=0 note=43 velocity=115 time=12
note_on channel=0 note=55 velocity=108 time=0
note_on channel=0 note=66 velocity=127 time=4
note_on channel=0 note=62 velocity=105 time=0
note_on channel=4 note=30 velocity=0 time=1
note_on channel=0 note=69 velocity=127 time=0
note_on channel=4 note=31 velocity=97 time=0
note_on channel=9 note=49 velocity=100 time=0
note_on channel=9 note=36 velocity=127 time=0
note_on channel=9 note=44 velocity=127 time=0
note_on channel=12 note=66 velocity=124 time=2
note_on channel=13 note=66 velocity=124 time=0
note_on channel=9 note=44 velocity=0 time=21
note_on channel=9 note=36 velocity=0 time=8
note_on channel=9 note=44 velocity=83 time=26
note_on channel=9 note=49 velocity=0 time=3
note_on channel=9 note=44 velocity=0 time=15
note_on channel=12 note=67 velocity=70 time=2
note_on channel=13 note=67 velocity=70 time=0
note_on channel=12 note=66 velocity=0 time=8
note_on channel=13 note=66 velocity=0 time=0
note_on channel=9 note=44 velocity=127 time=31
note_on channel=9 note=44 velocity=0 time=19
note_on channel=4 note=31 velocity=0 time=33
note_on channel=10 note=78 velocity=0 time=1
note_on channel=5 note=78 velocity=0 time=0
note_on channel=12 note=69 velocity=127 time=0
note_on channel=13 note=69 velocity=127 time=0
note_on channel=12 note=67 velocity=0 time=2
note_on channel=13 note=67 velocity=0 time=0
note_on channel=5 note=79 velocity=64 time=5
note_on channel=9 note=44 velocity=112 time=0
note_on channel=10 note=79 velocity=64 time=0
note_on channel=5 note=81 velocity=81 time=12
note_on channel=10 note=81 velocity=81 time=0
note_on channel=4 note=31 velocity=102 time=3
note_on channel=9 note=44 velocity=0 time=3
note_on channel=10 note=79 velocity=0 time=10
note_on channel=5 note=79 velocity=0 time=0
note_on channel=4 note=31 velocity=0 time=10
note_on channel=5 note=86 velocity=72 time=8
note_on channel=10 note=86 velocity=72 time=3
note_on channel=5 note=81 velocity=0 time=7
note_on channel=10 note=81 velocity=0 time=0
note_on channel=13 note=69 velocity=0 time=4
note_on channel=12 note=69 velocity=0 time=0
note_on channel=9 note=47 velocity=108 time=3
note_on channel=9 note=40 velocity=127 time=1
note_on channel=12 note=62 velocity=102 time=2
note_on channel=13 note=62 velocity=102 time=0
note_on channel=4 note=31 velocity=112 time=3
note_on channel=9 note=40 velocity=0 time=19
note_on channel=9 note=47 velocity=0 time=3
note_on channel=9 note=44 velocity=112 time=31
note_on channel=9 note=44 velocity=0 time=19
note_on channel=13 note=62 velocity=0 time=0
note_on channel=12 note=62 velocity=0 time=0
note_on channel=12 note=62 velocity=99 time=46
note_on channel=13 note=62 velocity=99 time=0
note_on channel=9 note=44 velocity=105 time=1
note_on channel=9 note=44 velocity=0 time=15
note_on channel=9 note=44 velocity=119 time=37
note_on channel=0 note=55 velocity=0 time=4
note_on channel=0 note=43 velocity=0 time=2
note_on channel=0 note=66 velocity=0 time=4
note_on channel=0 note=69 velocity=0 time=2
note_on channel=9 note=44 velocity=0 time=2
note_on channel=0 note=62 velocity=0 time=3
note_on channel=4 note=31 velocity=0 time=22
note_on channel=4 note=34 velocity=99 time=20
note_on channel=9 note=44 velocity=127 time=4
note_on channel=13 note=62 velocity=0 time=1
note_on channel=12 note=62 velocity=0 time=0
note_on channel=7 note=79 velocity=127 time=0
note_on channel=9 note=36 velocity=127 time=0
note_on channel=0 note=62 velocity=112 time=1
note_on channel=0 note=58 velocity=108 time=0
note_on channel=0 note=67 velocity=112 time=1
note_on channel=12 note=67 velocity=102 time=3
note_on channel=13 note=67 velocity=102 time=0
note_on channel=0 note=46 velocity=127 time=3
note_on channel=5 note=86 velocity=0 time=8
note_on channel=10 note=86 velocity=0 time=3
note_on channel=9 note=44 velocity=0 time=3
note_on channel=7 note=79 velocity=0 time=0
note_on channel=4 note=34 velocity=0 time=3
note_on channel=7 note=78 velocity=119 time=0
note_on channel=9 note=36 velocity=0 time=6
note_on channel=7 note=78 velocity=0 time=15
note_on channel=7 note=79 velocity=127 time=3
note_on channel=4 note=34 velocity=53 time=6
note_on channel=9 note=44 velocity=83 time=2
note_on channel=7 note=79 velocity=0 time=10
note_on channel=7 note=78 velocity=105 time=5
note_on channel=9 note=44 velocity=0 time=3
note_on channel=4 note=34 velocity=0 time=4
note_on channel=7 note=78 velocity=0 time=13
note_on channel=7 note=79 velocity=124 time=1
note_on channel=4 note=34 velocity=67 time=18
note_on channel=7 note=79 velocity=0 time=2
note_on channel=9 note=44 velocity=127 time=3
note_on channel=7 note=78 velocity=105 time=1
note_on channel=9 note=44 velocity=0 time=18
note_on channel=7 note=79 velocity=119 time=2
note_on channel=7 note=78 velocity=0 time=1
note_on channel=4 note=34 velocity=0 time=1
note_on channel=7 note=79 velocity=0 time=19
note_on channel=7 note=78 velocity=112 time=6
note_on channel=4 note=34 velocity=83 time=8
note_on channel=9 note=44 velocity=112 time=4
note_on channel=7 note=79 velocity=94 time=9
note_on channel=7 note=78 velocity=0 time=4
note_on channel=9 note=44 velocity=0 time=5
note_on channel=4 note=34 velocity=0 time=3
note_on channel=7 note=79 velocity=0 time=5
note_on channel=7 note=78 velocity=94 time=2
note_on channel=7 note=79 velocity=115 time=23
note_on channel=7 note=78 velocity=0 time=1
note_on channel=4 note=34 velocity=127 time=6
note_on channel=9 note=47 velocity=108 time=5
note_on channel=9 note=40 velocity=127 time=1
note_on channel=7 note=79 velocity=0 time=10
note_on channel=4 note=34 velocity=0 time=7
note_on channel=7 note=78 velocity=127 time=1
note_on channel=9 note=40 velocity=0 time=6
note_on channel=9 note=47 velocity=0 time=3
note_on channel=7 note=78 velocity=0 time=9
note_on channel=7 note=79 velocity=115 time=3
note_on channel=4 note=34 velocity=119 time=12
note_on channel=7 note=79 velocity=0 time=7
note_on channel=9 note=44 velocity=112 time=0
note_on channel=7 note=78 velocity=127 time=4
note_on channel=7 note=79 velocity=52 time=12
note_on channel=4 note=34 velocity=0 time=1
note_on channel=9 note=44 velocity=0 time=2
note_on channel=7 note=78 velocity=0 time=3
note_on channel=7 note=79 velocity=0 time=15
note_on channel=4 note=34 velocity=127 time=25
note_on channel=12 note=70 velocity=105 time=0
note_on channel=13 note=70 velocity=105 time=0
note_on channel=9 note=44 velocity=105 time=4
note_on channel=13 note=67 velocity=0 time=7
note_on channel=12 note=67 velocity=0 time=0
note_on channel=4 note=34 velocity=0 time=7
note_on channel=9 note=44 velocity=0 time=1
note_on channel=0 note=58 velocity=0 time=33
note_on channel=0 note=62 velocity=0 time=3
note_on channel=9 note=44 velocity=119 time=1
control_change channel=0 control=7 value=78 time=4
control_change channel=0 control=7 value=77 time=0
note_on channel=4 note=34 velocity=97 time=0
note_on channel=9 note=38 velocity=127 time=1
note_on channel=0 note=46 velocity=0 time=7
note_on channel=9 note=44 velocity=0 time=2
note_on channel=0 note=67 velocity=0 time=0
control_change channel=0 control=7 value=80 time=15
note_on channel=9 note=38 velocity=0 time=10
note_on channel=4 note=32 velocity=119 time=21
note_on channel=5 note=72 velocity=112 time=1
note_on channel=13 note=70 velocity=0 time=2
note_on channel=12 note=70 velocity=0 time=0
note_on channel=9 note=36 velocity=127 time=0
note_on channel=9 note=44 velocity=127 time=0
note_on channel=4 note=34 velocity=0 time=1
note_on channel=9 note=36 velocity=119 time=0
note_on channel=7 note=72 velocity=127 time=2
note_on channel=10 note=72 velocity=127 time=0
note_on channel=12 note=72 velocity=79 time=1
note_on channel=13 note=72 velocity=79 time=0
note_on channel=9 note=44 velocity=127 time=2
note_on channel=9 note=36 velocity=0 time=10
note_on channel=9 note=44 velocity=0 time=4
note_on channel=9 note=44 velocity=0 time=3
note_on channel=9 note=36 velocity=0 time=3
note_on channel=10 note=72 velocity=0 time=23
note_on channel=5 note=72 velocity=0 time=3
note_on channel=10 note=67 velocity=86 time=0
note_on channel=7 note=72 velocity=0 time=1
note_on channel=5 note=67 velocity=81 time=2
note_on channel=7 note=67 velocity=94 time=0
note_on channel=9 note=44 velocity=102 time=3
control_change channel=0 control=7 value=83 time=5
control_change channel=0 control=7 value=81 time=0
control_change channel=0 control=7 value=84 time=5
note_on channel=9 note=44 velocity=0 time=8
note_on channel=5 note=72 velocity=127 time=7
note_on channel=10 note=72 velocity=127 time=0
note_on channel=5 note=67 velocity=0 time=4
note_on channel=7 note=72 velocity=127 time=1
note_on channel=10 note=67 velocity=0 time=1
note_on channel=9 note=44 velocity=119 time=2
note_on channel=4 note=32 velocity=0 time=3
note_on channel=7 note=67 velocity=0 time=1
note_on channel=9 note=44 velocity=0 time=11
note_on channel=5 note=72 velocity=0 time=8
note_on channel=5 note=74 velocity=105 time=2
note_on channel=10 note=74 velocity=127 time=0
note_on channel=10 note=72 velocity=0 time=2
note_on channel=4 note=31 velocity=105 time=1
note_on channel=7 note=74 velocity=127 time=0
note_on channel=7 note=72 velocity=0 time=1
note_on channel=9 note=40 velocity=119 time=1
note_on channel=9 note=44 velocity=127 time=0
note_on channel=12 note=74 velocity=73 time=0
note_on channel=13 note=74 velocity=73 time=0
note_on channel=9 note=40 velocity=0 time=15
note_on channel=12 note=72 velocity=0 time=0
note_on channel=13 note=72 velocity=0 time=0
note_on channel=9 note=44 velocity=0 time=3
note_on channel=10 note=74 velocity=0 time=30
note_on channel=5 note=74 velocity=0 time=0
note_on channel=7 note=74 velocity=0 time=2
note_on channel=5 note=72 velocity=88 time=1
note_on channel=10 note=72 velocity=112 time=0
note_on channel=7 note=72 velocity=112 time=4
note_on channel=9 note=44 velocity=108 time=6
note_on channel=9 note=44 velocity=0 time=17
note_on channel=5 note=72 velocity=0 time=0
note_on channel=5 note=74 velocity=115 time=3
note_on channel=10 note=74 velocity=127 time=0
note_on channel=7 note=74 velocity=127 time=3
note_on channel=10 note=72 velocity=0 time=2
note_on channel=4 note=31 velocity=0 time=2
note_on channel=7 note=72 velocity=0 time=0
note_on channel=9 note=44 velocity=119 time=2
note_on channel=9 note=44 velocity=0 time=15
note_on channel=10 note=75 velocity=127 time=9
note_on channel=12 note=75 velocity=105 time=1
note_on channel=13 note=75 velocity=105 time=0
note_on channel=5 note=74 velocity=0 time=1
note_on channel=5 note=75 velocity=119 time=1
note_on channel=10 note=74 velocity=0 time=1
note_on channel=7 note=75 velocity=127 time=1
note_on channel=9 note=36 velocity=119 time=1
note_on channel=7 note=74 velocity=0 time=1
note_on channel=13 note=74 velocity=0 time=3
note_on channel=12 note=74 velocity=0 time=0
note_on channel=4 note=29 velocity=108 time=0
note_on channel=9 note=44 velocity=119 time=0
note_on channel=9 note=36 velocity=0 time=11
note_on channel=9 note=44 velocity=0 time=4
note_on channel=10 note=75 velocity=0 time=33
note_on channel=5 note=75 velocity=0 time=1
note_on channel=5 note=74 velocity=105 time=1
note_on channel=10 note=74 velocity=105 time=0
note_on channel=7 note=75 velocity=0 time=4
note_on channel=7 note=74 velocity=127 time=0
note_on channel=9 note=44 velocity=112 time=4
note_on channel=10 note=74 velocity=0 time=16
note_on channel=9 note=44 velocity=0 time=1
note_on channel=10 note=75 velocity=127 time=2
note_on channel=4 note=29 velocity=0 time=4
note_on channel=5 note=75 velocity=119 time=1
note_on channel=5 note=74 velocity=0 time=1
note_on channel=7 note=75 velocity=127 time=2
control_change channel=0 control=7 value=86 time=1
note_on channel=9 note=44 velocity=119 time=0
note_on channel=7 note=74 velocity=0 time=7
control_change channel=0 control=7 value=87 time=0
control_change channel=0 control=7 value=92 time=5
note_on channel=9 note=44 velocity=0 time=3
note_on channel=10 note=75 velocity=0 time=7
note_on channel=10 note=77 velocity=127 time=3
note_on channel=5 note=75 velocity=0 time=4
note_on channel=4 note=27 velocity=112 time=1
note_on channel=9 note=40 velocity=119 time=0
note_on channel=7 note=75 velocity=0 time=1
note_on channel=7 note=77 velocity=127 time=1
note_on channel=5 note=77 velocity=127 time=1
note_on channel=9 note=44 velocity=127 time=0
note_on channel=12 note=77 velocity=59 time=8
note_on channel=13 note=77 velocity=59 time=0
note_on channel=13 note=75 velocity=0 time=2
note_on channel=12 note=75 velocity=0 time=0
note_on channel=9 note=40 velocity=0 time=2
note_on channel=9 note=44 velocity=0 time=5
note_on channel=10 note=77 velocity=0 time=37
note_on channel=5 note=77 velocity=0 time=1
note_on channel=10 note=75 velocity=115 time=0
note_on channel=7 note=75 velocity=105 time=1
note_on channel=5 note=75 velocity=78 time=1
note_on channel=7 note=77 velocity=0 time=1
note_on channel=9 note=44 velocity=115 time=1
note_on channel=9 note=44 velocity=0 time=15
note_on channel=7 note=77 velocity=124 time=8
note_on channel=10 note=77 velocity=124 time=0
note_on channel=5 note=77 velocity=41 time=4
note_on channel=7 note=75 velocity=0 time=1
note_on channel=9 note=44 velocity=119 time=0
note_on channel=10 note=75 velocity=0 time=1
control_change channel=0 control=7 value=93 time=0
note_on channel=5 note=75 velocity=0 time=3
control_change channel=0 control=7 value=95 time=0
note_on channel=4 note=27 velocity=0 time=6
note_on channel=9 note=44 velocity=0 time=5
note_on channel=7 note=77 velocity=0 time=5
note_on channel=5 note=77 velocity=0 time=0
note_on channel=10 note=77 velocity=0 time=2
control_change channel=0 control=7 value=97 time=1
note_on channel=7 note=79 velocity=127 time=0
note_on channel=10 note=79 velocity=127 time=2
note_on channel=10 note=77 velocity=105 time=1
note_on channel=5 note=79 velocity=105 time=1
note_on channel=10 note=77 velocity=0 time=3
control_change channel=0 control=7 value=98 time=0
note_on channel=4 note=38 velocity=112 time=0
note_on channel=9 note=44 velocity=127 time=0
note_on channel=9 note=36 velocity=127 time=0
note_on channel=9 note=49 velocity=127 time=0
note_on channel=12 note=79 velocity=108 time=4
note_on channel=13 note=79 velocity=108 time=0
note_on channel=13 note=77 velocity=0 time=5
note_on channel=12 note=77 velocity=0 time=0
note_on channel=9 note=49 velocity=0 time=10
note_on channel=9 note=36 velocity=0 time=0
note_on channel=9 note=44 velocity=0 time=4
note_on channel=9 note=44 velocity=127 time=41
note_on channel=9 note=44 velocity=0 time=23
note_on channel=9 note=40 velocity=127 time=33
note_on channel=9 note=46 velocity=127 time=0
note_on channel=14 note=62 velocity=78 time=0
note_on channel=14 note=74 velocity=99 time=3
note_on channel=2 note=62 velocity=78 time=1
note_on channel=2 note=74 velocity=99 time=3
note_on channel=11 note=74 velocity=102 time=0
note_on channel=11 note=62 velocity=77 time=5
note_on channel=14 note=62 velocity=0 time=11
note_on channel=14 note=64 velocity=54 time=2
note_on channel=14 note=74 velocity=0 time=1
note_on channel=14 note=76 velocity=97 time=0
note_on channel=2 note=62 velocity=0 time=1
note_on channel=2 note=64 velocity=54 time=2
note_on channel=2 note=74 velocity=0 time=1
note_on channel=2 note=76 velocity=97 time=0
note_on channel=11 note=76 velocity=127 time=4
note_on channel=11 note=64 velocity=127 time=3
note_on channel=9 note=40 velocity=0 time=4
note_on channel=9 note=46 velocity=0 time=0
note_on channel=11 note=74 velocity=0 time=0
note_on channel=11 note=62 velocity=0 time=3
note_on channel=14 note=76 velocity=0 time=4
note_on channel=14 note=64 velocity=0 time=1
note_on channel=2 note=76 velocity=0 time=3
note_on channel=2 note=64 velocity=0 time=1
note_on channel=11 note=76 velocity=0 time=0
note_on channel=11 note=64 velocity=0 time=2
note_on channel=9 note=44 velocity=105 time=5
note_on channel=9 note=44 velocity=0 time=23
note_on channel=14 note=67 velocity=90 time=3
note_on channel=14 note=65 velocity=83 time=1
note_on channel=14 note=79 velocity=124 time=1
note_on channel=2 note=67 velocity=90 time=2
note_on channel=2 note=79 velocity=124 time=2
note_on channel=11 note=79 velocity=124 time=6
note_on channel=11 note=67 velocity=108 time=1
note_on channel=14 note=65 velocity=0 time=4
note_on channel=4 note=38 velocity=0 time=17
note_on channel=9 note=36 velocity=127 time=0
note_on channel=9 note=49 velocity=127 time=1
note_on channel=4 note=38 velocity=49 time=17
note_on channel=9 note=36 velocity=0 time=23
note_on channel=9 note=49 velocity=0 time=1
note_on channel=14 note=67 velocity=0 time=4
note_on channel=14 note=79 velocity=0 time=1
note_on channel=11 note=67 velocity=0 time=1
note_on channel=14 note=69 velocity=81 time=0
note_on channel=2 note=67 velocity=0 time=2
note_on channel=14 note=81 velocity=99 time=0
note_on channel=2 note=79 velocity=0 time=1
note_on channel=2 note=69 velocity=81 time=1
note_on channel=2 note=81 velocity=99 time=2
note_on channel=11 note=79 velocity=0 time=2
note_on channel=9 note=44 velocity=119 time=0
note_on channel=11 note=81 velocity=127 time=9
note_on channel=14 note=81 velocity=0 time=4
note_on channel=2 note=81 velocity=0 time=4
note_on channel=11 note=69 velocity=112 time=0
note_on channel=14 note=69 velocity=0 time=3
note_on channel=2 note=69 velocity=0 time=4
note_on channel=9 note=44 velocity=0 time=3
note_on channel=4 note=38 velocity=0 time=5
note_on channel=11 note=81 velocity=0 time=4
note_on channel=11 note=69 velocity=0 time=10
note_on channel=14 note=67 velocity=88 time=3
note_on channel=4 note=38 velocity=63 time=1
note_on channel=14 note=79 velocity=94 time=1
note_on channel=2 note=67 velocity=88 time=2
control_change channel=1 control=7 value=126 time=2
note_on channel=2 note=79 velocity=94 time=0
note_on channel=11 note=79 velocity=94 time=8
note_on channel=9 note=46 velocity=127 time=1
note_on channel=9 note=36 velocity=127 time=0
control_change channel=1 control=7 value=124 time=3
note_on channel=11 note=67 velocity=88 time=0
note_on channel=14 note=69 velocity=99 time=7
note_on channel=14 note=81 velocity=102 time=0
note_on channel=14 note=79 velocity=0 time=4
note_on channel=2 note=69 velocity=99 time=0
note_on channel=2 note=81 velocity=102 time=0
note_on channel=11 note=81 velocity=102 time=2
note_on channel=2 note=79 velocity=0 time=2
note_on channel=14 note=67 velocity=0 time=0
control_change channel=1 control=7 value=123 time=0
note_on channel=11 note=69 velocity=83 time=2
note_on channel=2 note=67 velocity=0 time=2
note_on channel=11 note=79 velocity=0 time=5
note_on channel=11 note=67 velocity=0 time=4
note_on channel=14 note=69 velocity=0 time=2
note_on channel=9 note=46 velocity=0 time=1
note_on channel=2 note=69 velocity=0 time=3
note_on channel=9 note=36 velocity=0 time=4
note_on channel=14 note=83 velocity=102 time=4
note_on channel=14 note=71 velocity=108 time=0
note_on channel=11 note=83 velocity=127 time=3
note_on channel=2 note=83 velocity=102 time=1
note_on channel=2 note=71 velocity=108 time=0
note_on channel=14 note=81 velocity=0 time=1
note_on channel=11 note=81 velocity=0 time=0
note_on channel=11 note=71 velocity=127 time=1
note_on channel=11 note=69 velocity=0 time=3
note_on channel=2 note=81 velocity=0 time=0
note_on channel=9 note=44 velocity=108 time=4
note_on channel=11 note=71 velocity=0 time=11
note_on channel=11 note=83 velocity=0 time=1
note_on channel=14 note=83 velocity=0 time=2
note_on channel=14 note=71 velocity=0 time=0
control_change channel=1 control=7 value=121 time=0
note_on channel=2 note=83 velocity=0 time=4
note_on channel=2 note=71 velocity=0 time=0
note_on channel=4 note=38 velocity=0 time=4
note_on channel=9 note=44 velocity=0 time=4
control_change channel=1 control=7 value=120 time=0
note_on channel=12 note=79 velocity=0 time=13
note_on channel=13 note=79 velocity=0 time=0
note_on channel=5 note=79 velocity=0 time=5
note_on channel=5 note=81 velocity=66 time=2
note_on channel=10 note=81 velocity=127 time=1
note_on channel=14 note=74 velocity=105 time=0
note_on channel=14 note=86 velocity=127 time=1
note_on channel=10 note=79 velocity=0 time=3
note_on channel=2 note=74 velocity=105 time=0
note_on channel=7 note=81 velocity=127 time=0
note_on channel=2 note=86 velocity=127 time=1
note_on channel=11 note=74 velocity=127 time=0
note_on channel=7 note=79 velocity=0 time=1
note_on channel=11 note=86 velocity=127 time=2
note_on channel=9 note=44 velocity=127 time=7
note_on channel=9 note=36 velocity=127 time=0
note_on channel=9 note=49 velocity=127 time=0
note_on channel=2 note=81 velocity=127 time=1
note_on channel=4 note=38 velocity=88 time=5
pitchwheel channel=12 pitch=273 time=0
pitchwheel channel=12 pitch=273 time=0
control_change channel=1 control=7 value=118 time=1
pitchwheel channel=12 pitch=273 time=0
pitchwheel channel=12 pitch=683 time=4
pitchwheel channel=12 pitch=683 time=1
pitchwheel channel=12 pitch=683 time=0
pitchwheel channel=12 pitch=1366 time=5
pitchwheel channel=12 pitch=1366 time=1
pitchwheel channel=12 pitch=1366 time=0
note_on channel=9 note=49 velocity=0 time=1
note_on channel=9 note=36 velocity=0 time=0
pitchwheel channel=12 pitch=1775 time=0
pitchwheel channel=12 pitch=1775 time=1
pitchwheel channel=12 pitch=1775 time=0
pitchwheel channel=12 pitch=2275 time=2
note_on channel=9 note=44 velocity=0 time=1
pitchwheel channel=12 pitch=2275 time=0
pitchwheel channel=12 pitch=2275 time=0
pitchwheel channel=12 pitch=2867 time=2
pitchwheel channel=12 pitch=2867 time=0
pitchwheel channel=12 pitch=2867 time=0
pitchwheel channel=12 pitch=3550 time=2
pitchwheel channel=12 pitch=3550 time=1
pitchwheel channel=12 pitch=3550 time=0
pitchwheel channel=12 pitch=4232 time=2
pitchwheel channel=12 pitch=4232 time=0
pitchwheel channel=12 pitch=4232 time=0
pitchwheel channel=12 pitch=5120 time=2
pitchwheel channel=12 pitch=5120 time=0
pitchwheel channel=12 pitch=5120 time=1
pitchwheel channel=12 pitch=6007 time=1
pitchwheel channel=12 pitch=6007 time=1
pitchwheel channel=12 pitch=6007 time=0
note_on channel=14 note=74 velocity=0 time=2
note_on channel=14 note=86 velocity=0 time=1
pitchwheel channel=12 pitch=6963 time=0
pitchwheel channel=12 pitch=6963 time=1
pitchwheel channel=12 pitch=6963 time=0
pitchwheel channel=12 pitch=7737 time=1
pitchwheel channel=12 pitch=7737 time=0
note_on channel=2 note=74 velocity=0 time=1
pitchwheel channel=12 pitch=7737 time=0
note_on channel=2 note=86 velocity=0 time=1
pitchwheel channel=12 pitch=8191 time=1
pitchwheel channel=12 pitch=8191 time=0
pitchwheel channel=12 pitch=8191 time=1
pitchwheel channel=2 pitch=-238 time=9
pitchwheel channel=2 pitch=-238 time=0
pitchwheel channel=2 pitch=-238 time=1
note_on channel=11 note=86 velocity=0 time=3
control_change channel=1 control=7 value=117 time=0
pitchwheel channel=2 pitch=-597 time=0
pitchwheel channel=2 pitch=-597 time=1
pitchwheel channel=2 pitch=-597 time=0
pitchwheel channel=2 pitch=-1074 time=6
pitchwheel channel=2 pitch=-1074 time=0
pitchwheel channel=2 pitch=-1074 time=0
note_on channel=9 note=44 velocity=127 time=0
pitchwheel channel=2 pitch=-1535 time=2
pitchwheel channel=2 pitch=-1535 time=0
pitchwheel channel=2 pitch=-1535 time=1
note_on channel=11 note=74 velocity=0 time=1
pitchwheel channel=2 pitch=-2048 time=0
pitchwheel channel=2 pitch=-2048 time=0
pitchwheel channel=2 pitch=-2048 time=1
pitchwheel channel=2 pitch=-2346 time=2
pitchwheel channel=2 pitch=-2346 time=0
pitchwheel channel=2 pitch=-2346 time=0
control_change channel=7 control=7 value=74 time=0
pitchwheel channel=2 pitch=-2764 time=5
pitchwheel channel=2 pitch=-2764 time=1
pitchwheel channel=2 pitch=-2764 time=0
note_on channel=2 note=81 velocity=0 time=2
pitchwheel channel=2 pitch=-3122 time=3
pitchwheel channel=2 pitch=-3122 time=0
control_change channel=1 control=7 value=115 time=1
pitchwheel channel=2 pitch=-3122 time=0
note_on channel=9 note=44 velocity=0 time=4
pitchwheel channel=2 pitch=-2764 time=15
pitchwheel channel=2 pitch=-2764 time=0
pitchwheel channel=2 pitch=-2764 time=1
pitchwheel channel=2 pitch=-2545 time=1
pitchwheel channel=2 pitch=-2545 time=0
pitchwheel channel=2 pitch=-2545 time=1
pitchwheel channel=2 pitch=-2247 time=2
pitchwheel channel=2 pitch=-2247 time=1
pitchwheel channel=2 pitch=-2247 time=0
pitchwheel channel=2 pitch=-1535 time=1
pitchwheel channel=2 pitch=-1535 time=1
pitchwheel channel=2 pitch=-1535 time=0
pitchwheel channel=2 pitch=-716 time=3
pitchwheel channel=2 pitch=-716 time=0
pitchwheel channel=2 pitch=-716 time=0
pitchwheel channel=2 pitch=0 time=3
pitchwheel channel=2 pitch=0 time=0
pitchwheel channel=2 pitch=0 time=0
note_on channel=9 note=40 velocity=127 time=4
note_on channel=9 note=46 velocity=127 time=0
control_change channel=1 control=7 value=114 time=30
control_change channel=7 control=7 value=75 time=0
control_change channel=7 control=7 value=80 time=5
note_on channel=4 note=38 velocity=0 time=5
note_on channel=9 note=40 velocity=0 time=1
note_on channel=9 note=46 velocity=0 time=0
control_change channel=7 control=7 value=81 time=0
note_on channel=14 note=84 velocity=124 time=8
note_on channel=14 note=72 velocity=124 time=1
note_on channel=2 note=84 velocity=124 time=3
control_change channel=0 control=7 value=100 time=1
note_on channel=2 note=72 velocity=124 time=0
control_change channel=7 control=7 value=83 time=0
note_on channel=9 note=44 velocity=105 time=6
note_on channel=11 note=84 velocity=127 time=1
note_on channel=4 note=38 velocity=73 time=5
control_change channel=7 control=7 value=84 time=0
note_on channel=11 note=72 velocity=127 time=6
note_on channel=9 note=44 velocity=0 time=11
control_change channel=1 control=7 value=112 time=5
control_change channel=7 control=7 value=86 time=0
note_on channel=4 note=38 velocity=0 time=7
note_on channel=14 note=72 velocity=0 time=2
note_on channel=2 note=72 velocity=0 time=4
control_change channel=7 control=7 value=87 time=0
note_on channel=14 note=84 velocity=0 time=5
note_on channel=11 note=84 velocity=0 time=4
note_on channel=2 note=84 velocity=0 time=0
control_change channel=7 control=7 value=89 time=0
control_change channel=7 control=7 value=90 time=5
note_on channel=9 note=49 velocity=127 time=5
note_on channel=9 note=36 velocity=127 time=0
note_on channel=11 note=72 velocity=0 time=1
control_change channel=7 control=7 value=95 time=0
control_change channel=1 control=7 value=111 time=5
note_on channel=4 note=38 velocity=108 time=5
control_change channel=7 control=7 value=97 time=0
control_change channel=7 control=7 value=103 time=5
control_change channel=7 control=7 value=104 time=5
control_change channel=7 control=7 value=106 time=15
note_on channel=9 note=49 velocity=0 time=5
note_on channel=9 note=36 velocity=0 time=0
note_on channel=14 note=83 velocity=105 time=9
note_on channel=11 note=83 velocity=124 time=1
note_on channel=14 note=71 velocity=119 time=0
note_on channel=2 note=83 velocity=105 time=3
note_on channel=2 note=71 velocity=119 time=1
note_on channel=9 note=44 velocity=119 time=1
control_change channel=1 control=7 value=109 time=1
note_on channel=9 note=48 velocity=127 time=0
note_on channel=11 note=71 velocity=127 time=0
control_change channel=0 control=7 value=101 time=20
control_change channel=1 control=7 value=108 time=0
note_on channel=9 note=44 velocity=0 time=6
control_change channel=0 control=7 value=106 time=0
control_change channel=1 control=7 value=106 time=0
note_on channel=9 note=48 velocity=0 time=1
note_on channel=14 note=71 velocity=0 time=8
note_on channel=2 note=71 velocity=0 time=4
note_on channel=14 note=83 velocity=0 time=1
note_on channel=11 note=83 velocity=0 time=3
note_on channel=2 note=83 velocity=0 time=1
control_change channel=1 control=7 value=105 time=0
note_on channel=11 note=71 velocity=0 time=6
control_change channel=1 control=7 value=103 time=5
note_on channel=9 note=46 velocity=127 time=8
note_on channel=9 note=36 velocity=127 time=0
control_change channel=1 control=7 value=102 time=10
control_change channel=7 control=7 value=107 time=0
control_change channel=7 control=7 value=109 time=11
note_on channel=11 note=81 velocity=127 time=0
control_change channel=1 control=7 value=100 time=5
note_on channel=14 note=69 velocity=72 time=3
note_on channel=14 note=81 velocity=119 time=0
note_on channel=11 note=69 velocity=127 time=2
note_on channel=2 note=69 velocity=72 time=2
note_on channel=2 note=81 velocity=119 time=0
note_on channel=9 note=46 velocity=0 time=1
control_change channel=7 control=7 value=110 time=1
note_on channel=9 note=47 velocity=127 time=0
note_on channel=11 note=81 velocity=0 time=5
note_on channel=10 note=79 velocity=124 time=0
note_on channel=9 note=36 velocity=0 time=1
note_on channel=11 note=69 velocity=0 time=5
note_on channel=14 note=69 velocity=0 time=2
note_on channel=14 note=81 velocity=0 time=0
note_on channel=14 note=67 velocity=83 time=1
note_on channel=10 note=79 velocity=0 time=2
note_on channel=14 note=79 velocity=124 time=0
note_on channel=9 note=47 velocity=0 time=1
note_on channel=2 note=69 velocity=0 time=0
note_on channel=2 note=81 velocity=0 time=0
note_on channel=2 note=67 velocity=83 time=1
note_on channel=2 note=79 velocity=124 time=2
control_change channel=7 control=7 value=112 time=0
control_change channel=1 control=7 value=99 time=3
note_on channel=9 note=44 velocity=108 time=0
note_on channel=10 note=79 velocity=97 time=0
note_on channel=11 note=79 velocity=127 time=0
note_on channel=9 note=45 velocity=127 time=1
note_on channel=9 note=40 velocity=108 time=1
note_on channel=11 note=67 velocity=127 time=6
control_change channel=1 control=7 value=97 time=5
note_on channel=9 note=45 velocity=0 time=3
note_on channel=14 note=67 velocity=0 time=4
note_on channel=14 note=79 velocity=0 time=2
note_on channel=2 note=67 velocity=0 time=2
note_on channel=9 note=44 velocity=0 time=2
note_on channel=2 note=79 velocity=0 time=0
note_on channel=11 note=79 velocity=0 time=1
note_on channel=9 note=40 velocity=0 time=1
note_on channel=4 note=38 velocity=0 time=6
note_on channel=11 note=67 velocity=0 time=2
note_on channel=10 note=79 velocity=0 time=5
note_on channel=5 note=81 velocity=0 time=2
note_on channel=10 note=81 velocity=0 time=1
note_on channel=7 note=90 velocity=127 time=4
note_on channel=7 note=81 velocity=0 time=6
note_on channel=2 note=79 velocity=127 time=0
pitchwheel channel=12 pitch=8077 time=0
pitchwheel channel=12 pitch=8077 time=0
pitchwheel channel=12 pitch=8077 time=0
note_on channel=14 note=67 velocity=127 time=0
note_on channel=14 note=79 velocity=127 time=0
pitchwheel channel=12 pitch=7737 time=2
pitchwheel channel=12 pitch=7737 time=0
note_on channel=14 note=67 velocity=127 time=0
note_on channel=2 note=67 velocity=127 time=1
pitchwheel channel=12 pitch=7737 time=0
note_on channel=2 note=67 velocity=127 time=1
note_on channel=2 note=79 velocity=127 time=0
note_on channel=14 note=79 velocity=127 time=0
note_on channel=4 note=31 velocity=97 time=3
note_on channel=6 note=79 velocity=119 time=1
note_on channel=9 note=36 velocity=127 time=0
note_on channel=9 note=36 velocity=108 time=0
note_on channel=9 note=44 velocity=100 time=0
pitchwheel channel=12 pitch=7373 time=0
pitchwheel channel=12 pitch=7373 time=0
note_on channel=11 note=79 velocity=127 time=1
pitchwheel channel=12 pitch=7373 time=0
note_on channel=15 note=43 velocity=127 time=0
note_on channel=10 note=79 velocity=127 time=1
pitchwheel channel=12 pitch=6963 time=0
note_on channel=11 note=91 velocity=127 time=1
pitchwheel channel=12 pitch=6963 time=0
pitchwheel channel=12 pitch=6963 time=0
note_on channel=5 note=79 velocity=97 time=1
note_on channel=11 note=79 velocity=127 time=1
pitchwheel channel=12 pitch=6690 time=0
pitchwheel channel=12 pitch=6690 time=0
pitchwheel channel=12 pitch=6690 time=1
note_on channel=9 note=49 velocity=127 time=1
pitchwheel channel=12 pitch=6280 time=0
note_on channel=7 note=91 velocity=127 time=1
pitchwheel channel=12 pitch=6280 time=0
pitchwheel channel=12 pitch=6280 time=0
note_on channel=11 note=67 velocity=127 time=1
pitchwheel channel=12 pitch=5871 time=1
pitchwheel channel=12 pitch=5871 time=1
pitchwheel channel=12 pitch=5871 time=0
pitchwheel channel=12 pitch=5598 time=1
pitchwheel channel=12 pitch=5598 time=1
pitchwheel channel=12 pitch=5598 time=0
pitchwheel channel=12 pitch=5006 time=2
pitchwheel channel=12 pitch=5006 time=1
pitchwheel channel=12 pitch=5006 time=0
pitchwheel channel=12 pitch=4505 time=2
pitchwheel channel=12 pitch=4505 time=0
pitchwheel channel=12 pitch=4505 time=0
note_on channel=7 note=90 velocity=0 time=2
pitchwheel channel=12 pitch=4096 time=0
pitchwheel channel=12 pitch=4096 time=0
pitchwheel channel=12 pitch=4096 time=0
pitchwheel channel=12 pitch=3414 time=2
pitchwheel channel=12 pitch=3414 time=1
pitchwheel channel=12 pitch=3414 time=0
pitchwheel channel=12 pitch=3004 time=2
pitchwheel channel=12 pitch=3004 time=0
pitchwheel channel=12 pitch=3004 time=1
pitchwheel channel=12 pitch=2503 time=1
pitchwheel channel=12 pitch=2503 time=1
pitchwheel channel=12 pitch=2503 time=0
pitchwheel channel=12 pitch=2275 time=2
pitchwheel channel=12 pitch=2275 time=0
pitchwheel channel=12 pitch=2275 time=1
note_on channel=14 note=79 velocity=0 time=3
pitchwheel channel=12 pitch=1911 time=1
pitchwheel channel=12 pitch=1911 time=1
pitchwheel channel=12 pitch=1911 time=0
note_on channel=2 note=79 velocity=0 time=2
note_on channel=14 note=67 velocity=0 time=0
note_on channel=9 note=36 velocity=0 time=3
note_on channel=2 note=67 velocity=0 time=1
note_on channel=9 note=49 velocity=0 time=1
note_on channel=9 note=36 velocity=0 time=2
note_on channel=2 note=79 velocity=0 time=7
note_on channel=2 note=67 velocity=0 time=2
note_on channel=11 note=79 velocity=0 time=0
note_on channel=11 note=67 velocity=0 time=3
note_on channel=6 note=79 velocity=0 time=2
note_on channel=15 note=43 velocity=0 time=1
note_on channel=9 note=44 velocity=0 time=0
note_on channel=9 note=44 velocity=100 time=0
pitchwheel channel=12 pitch=1502 time=1
pitchwheel channel=12 pitch=1502 time=1
pitchwheel channel=12 pitch=1502 time=0
note_on channel=11 note=91 velocity=0 time=1
note_on channel=7 note=91 velocity=0 time=2
note_on channel=10 note=79 velocity=0 time=0
pitchwheel channel=12 pitch=956 time=1
pitchwheel channel=12 pitch=956 time=1
pitchwheel channel=12 pitch=956 time=0
note_on channel=11 note=79 velocity=0 time=1
note_on channel=14 note=79 velocity=0 time=1
note_on channel=14 note=67 velocity=0 time=2
pitchwheel channel=12 pitch=409 time=1
pitchwheel channel=12 pitch=409 time=0
pitchwheel channel=12 pitch=409 time=0
pitchwheel channel=12 pitch=0 time=9
pitchwheel channel=12 pitch=0 time=0
pitchwheel channel=12 pitch=0 time=1
note_on channel=1 note=67 velocity=127 time=8
note_on channel=3 note=67 velocity=115 time=0
note_on channel=8 note=67 velocity=99 time=0
note_on channel=8 note=67 velocity=86 time=0
note_on channel=9 note=40 velocity=108 time=0
note_on channel=1 note=67 velocity=0 time=19
note_on channel=3 note=67 velocity=0 time=11
note_on channel=8 note=67 velocity=0 time=0
note_on channel=9 note=44 velocity=0 time=0
note_on channel=8 note=67 velocity=0 time=0
note_on channel=1 note=67 velocity=119 time=0
note_on channel=3 note=67 velocity=105 time=0
note_on channel=8 note=67 velocity=77 time=0
note_on channel=8 note=67 velocity=67 time=0
note_on channel=9 note=44 velocity=100 time=0
note_on channel=4 note=31 velocity=0 time=8
note_on channel=9 note=40 velocity=0 time=7
note_on channel=1 note=67 velocity=0 time=12
note_on channel=8 note=67 velocity=0 time=3
note_on channel=3 note=67 velocity=0 time=0
note_on channel=8 note=67 velocity=0 time=0
control_change channel=7 control=7 value=113 time=15
note_on channel=4 note=31 velocity=112 time=7
control_change channel=7 control=7 value=115 time=0
note_on channel=9 note=44 velocity=0 time=8
note_on channel=1 note=67 velocity=127 time=0
note_on channel=3 note=69 velocity=112 time=0
note_on channel=8 note=69 velocity=86 time=0
note_on channel=8 note=67 velocity=70 time=0
note_on channel=9 note=35 velocity=108 time=0
note_on channel=9 note=44 velocity=100 time=0
note_on channel=4 note=31 velocity=0 time=17
control_change channel=7 control=7 value=116 time=5
note_on channel=1 note=67 velocity=0 time=5
note_on channel=8 note=69 velocity=0 time=3
note_on channel=3 note=69 velocity=0 time=0
note_on channel=8 note=67 velocity=0 time=0
note_on channel=9 note=35 velocity=0 time=15
note_on channel=1 note=67 velocity=127 time=11
note_on channel=9 note=44 velocity=0 time=4
note_on channel=3 note=71 velocity=124 time=0
control_change channel=7 control=7 value=118 time=0
note_on channel=8 note=71 velocity=92 time=0
note_on channel=8 note=67 velocity=84 time=0
note_on channel=9 note=35 velocity=108 time=0
note_on channel=9 note=44 velocity=100 time=0
note_on channel=4 note=31 velocity=127 time=8
control_change channel=7 control=7 value=119 time=5
control_change channel=7 control=7 value=121 time=15
note_on channel=9 note=35 velocity=0 time=17
control_change channel=7 control=7 value=122 time=0
control_change channel=7 control=7 value=124 time=10
note_on channel=9 note=44 velocity=0 time=5
note_on channel=8 note=67 velocity=0 time=0
note_on channel=9 note=44 velocity=100 time=0
control_change channel=7 control=7 value=125 time=10
note_on channel=1 note=67 velocity=0 time=4
control_change channel=7 control=7 value=127 time=5
note_on channel=8 note=71 velocity=0 time=11
note_on channel=3 note=71 velocity=0 time=0
note_on channel=3 note=74 velocity=119 time=0
note_on channel=8 note=74 velocity=70 time=0
note_on channel=8 note=67 velocity=97 time=0
note_on channel=1 note=67 velocity=127 time=11
note_on channel=9 note=44 velocity=0 time=19
note_on channel=9 note=40 velocity=108 time=0
note_on channel=9 note=46 velocity=100 time=0
note_on channel=3 note=74 velocity=0 time=30
note_on channel=8 note=67 velocity=0 time=0
note_on channel=1 note=67 velocity=0 time=15
note_on channel=9 note=40 velocity=0 time=0
note_on channel=4 note=31 velocity=0 time=5
note_on channel=1 note=69 velocity=127 time=6
note_on channel=9 note=46 velocity=0 time=4
note_on channel=8 note=74 velocity=0 time=0
note_on channel=3 note=72 velocity=127 time=0
note_on channel=8 note=72 velocity=97 time=0
note_on channel=8 note=69 velocity=94 time=0
note_on channel=9 note=44 velocity=100 time=0
note_on channel=4 note=29 velocity=112 time=21
note_on channel=9 note=44 velocity=0 time=39
note_on channel=9 note=35 velocity=108 time=0
note_on channel=9 note=44 velocity=100 time=0
note_on channel=9 note=35 velocity=0 time=45
note_on channel=9 note=44 velocity=0 time=15
note_on channel=9 note=44 velocity=100 time=0
note_on channel=9 note=40 velocity=108 time=30
note_on channel=9 note=44 velocity=0 time=30
note_on channel=9 note=44 velocity=100 time=0
note_on channel=9 note=40 velocity=0 time=15
note_on channel=8 note=69 velocity=0 time=15
note_on channel=4 note=29 velocity=0 time=5
control_change channel=1 control=7 value=96 time=0
control_change channel=1 control=7 value=95 time=10
note_on channel=1 note=67 velocity=112 time=5
note_on channel=9 note=44 velocity=0 time=10
note_on channel=8 note=72 velocity=0 time=0
note_on channel=3 note=72 velocity=0 time=0
note_on channel=3 note=71 velocity=108 time=0
note_on channel=8 note=71 velocity=67 time=0
note_on channel=8 note=69 velocity=51 time=0
note_on channel=9 note=35 velocity=108 time=0
note_on channel=9 note=44 velocity=100 time=0
note_on channel=1 note=69 velocity=0 time=3
note_on channel=4 note=29 velocity=97 time=3
note_on channel=4 note=29 velocity=0 time=22
note_on channel=1 note=67 velocity=0 time=0
note_on channel=1 note=64 velocity=127 time=1
note_on channel=3 note=71 velocity=0 time=1
note_on channel=8 note=71 velocity=0 time=0
note_on channel=8 note=69 velocity=0 time=0
note_on channel=3 note=69 velocity=127 time=0
note_on channel=8 note=69 velocity=92 time=0
note_on channel=8 note=67 velocity=124 time=0
note_on channel=9 note=35 velocity=0 time=15
control_change channel=1 control=7 value=94 time=0
note_on channel=8 note=69 velocity=0 time=15
note_on channel=3 note=69 velocity=0 time=0
note_on channel=9 note=44 velocity=0 time=0
note_on channel=8 note=67 velocity=0 time=0
note_on channel=3 note=67 velocity=112 time=0
note_on channel=8 note=67 velocity=102 time=0
note_on channel=8 note=60 velocity=52 time=0
note_on channel=9 note=33 velocity=108 time=0
note_on channel=9 note=44 velocity=100 time=0
note_on channel=4 note=29 velocity=127 time=7
note_on channel=1 note=62 velocity=108 time=1
note_on channel=1 note=64 velocity=0 time=4
control_change channel=1 control=7 value=92 time=25
note_on channel=9 note=33 velocity=0 time=8
note_on channel=9 note=44 velocity=0 time=15
note_on channel=9 note=44 velocity=100 time=0
note_on channel=8 note=67 velocity=0 time=30
note_on channel=4 note=29 velocity=0 time=13
note_on channel=3 note=67 velocity=0 time=17
note_on channel=8 note=60 velocity=0 time=0
note_on channel=9 note=44 velocity=0 time=0
note_on channel=3 note=69 velocity=127 time=0
note_on channel=8 note=69 velocity=124 time=0
note_on channel=8 note=62 velocity=99 time=0
note_on channel=9 note=45 velocity=108 time=0
note_on channel=9 note=44 velocity=100 time=0
note_on channel=1 note=60 velocity=105 time=2
note_on channel=1 note=62 velocity=0 time=6
note_on channel=4 note=29 velocity=92 time=4
note_on channel=9 note=45 velocity=0 time=33
note_on channel=9 note=44 velocity=0 time=15
note_on channel=9 note=44 velocity=100 time=0
note_on channel=4 note=29 velocity=0 time=42
note_on channel=7 note=90 velocity=127 time=0
note_on channel=15 note=43 velocity=127 time=11
note_on channel=6 note=79 velocity=112 time=5
note_on channel=14 note=67 velocity=127 time=0
note_on channel=3 note=69 velocity=0 time=2
note_on channel=8 note=62 velocity=0 time=0
note_on channel=8 note=69 velocity=0 time=0
note_on channel=9 note=44 velocity=0 time=0
note_on channel=4 note=36 velocity=112 time=0
note_on channel=7 note=91 velocity=127 time=0
note_on channel=9 note=36 velocity=127 time=0
note_on channel=9 note=36 velocity=108 time=0
note_on channel=9 note=44 velocity=100 time=0
note_on channel=2 note=67 velocity=127 time=1
note_on channel=2 note=79 velocity=127 time=0
note_on channel=11 note=79 velocity=127 time=0
note_on channel=14 note=79 velocity=127 time=0
note_on channel=11 note=91 velocity=127 time=1
note_on channel=1 note=60 velocity=0 time=3
note_on channel=9 note=49 velocity=127 time=2
note_on channel=7 note=90 velocity=0 time=6
note_on channel=9 note=36 velocity=0 time=28
note_on channel=9 note=49 velocity=0 time=2
note_on channel=9 note=36 velocity=0 time=2
note_on channel=6 note=79 velocity=0 time=7
note_on channel=15 note=43 velocity=0 time=1
note_on channel=9 note=44 velocity=0 time=7
note_on channel=1 note=67 velocity=127 time=0
note_on channel=3 note=67 velocity=124 time=0
note_on channel=8 note=67 velocity=102 time=0
note_on channel=9 note=44 velocity=100 time=0
note_on channel=7 note=91 velocity=0 time=4
note_on channel=11 note=91 velocity=0 time=2
note_on channel=2 note=67 velocity=0 time=0
note_on channel=11 note=79 velocity=0 time=0
note_on channel=2 note=79 velocity=0 time=1
note_on channel=14 note=67 velocity=0 time=12
note_on channel=14 note=79 velocity=0 time=0
note_on channel=1 note=67 velocity=0 time=0
note_on channel=8 note=67 velocity=0 time=11
note_on channel=3 note=67 velocity=0 time=0
note_on channel=1 note=67 velocity=108 time=0
note_on channel=3 note=67 velocity=105 time=0
note_on channel=8 note=67 velocity=90 time=0
note_on channel=8 note=67 velocity=86 time=0
note_on channel=9 note=40 velocity=108 time=0
note_on channel=1 note=67 velocity=0 time=29
note_on channel=3 note=67 velocity=0 time=1
note_on channel=8 note=67 velocity=0 time=0
note_on channel=9 note=44 velocity=0 time=0
note_on channel=8 note=67 velocity=0 time=0
note_on channel=8 note=67 velocity=73 time=0
note_on channel=9 note=44 velocity=100 time=0
note_on channel=4 note=36 velocity=0 time=6
note_on channel=9 note=40 velocity=0 time=9
note_on channel=8 note=67 velocity=0 time=15
note_on channel=1 note=67 velocity=127 time=23
note_on channel=9 note=44 velocity=0 time=7
note_on channel=3 note=69 velocity=127 time=0
note_on channel=8 note=69 velocity=115 time=0
note_on channel=8 note=67 velocity=94 time=0
note_on channel=9 note=35 velocity=108 time=0
note_on channel=9 note=44 velocity=100 time=0
note_on channel=4 note=36 velocity=92 time=1
note_on channel=1 note=67 velocity=0 time=17
note_on channel=4 note=36 velocity=0 time=8
note_on channel=8 note=67 velocity=0 time=4
note_on channel=8 note=69 velocity=0 time=0
note_on channel=3 note=69 velocity=0 time=0
note_on channel=9 note=35 velocity=0 time=15
note_on channel=9 note=44 velocity=0 time=15
note_on channel=1 note=67 velocity=127 time=0
note_on channel=3 note=71 velocity=127 time=0
note_on channel=8 note=71 velocity=105 time=0
note_on channel=8 note=67 velocity=99 time=0
note_on channel=9 note=35 velocity=108 time=0
note_on channel=9 note=44 velocity=100 time=0
note_on channel=4 note=36 velocity=119 time=7
note_on channel=9 note=35 velocity=0 time=38
note_on channel=9 note=44 velocity=0 time=15
note_on channel=8 note=67 velocity=0 time=0
note_on channel=9 note=44 velocity=100 time=0
note_on channel=1 note=67 velocity=0 time=11
note_on channel=8 note=71 velocity=0 time=19
note_on channel=3 note=71 velocity=0 time=0
note_on channel=1 note=67 velocity=88 time=0
note_on channel=3 note=74 velocity=115 time=0
note_on channel=8 note=74 velocity=94 time=0
note_on channel=8 note=67 velocity=88 time=0
note_on channel=9 note=44 velocity=0 time=30
note_on channel=9 note=40 velocity=108 time=0
note_on channel=9 note=44 velocity=100 time=0
note_on channel=3 note=74 velocity=0 time=30
note_on channel=1 note=67 velocity=0 time=0
note_on channel=8 note=67 velocity=0 time=0
note_on channel=4 note=36 velocity=0 time=9
note_on channel=9 note=40 velocity=0 time=6
note_on channel=1 note=69 velocity=127 time=14
note_on channel=9 note=44 velocity=0 time=1
note_on channel=8 note=74 velocity=0 time=0
note_on channel=3 note=72 velocity=127 time=0
note_on channel=8 note=72 velocity=83 time=0
note_on channel=8 note=69 velocity=112 time=0
note_on channel=9 note=44 velocity=100 time=0
note_on channel=4 note=38 velocity=124 time=7
note_on channel=9 note=44 velocity=0 time=53
note_on channel=9 note=35 velocity=108 time=0
note_on channel=9 note=44 velocity=100 time=0
note_on channel=9 note=35 velocity=0 time=45
note_on channel=9 note=44 velocity=0 time=15
note_on channel=9 note=44 velocity=100 time=0
note_on channel=9 note=40 velocity=108 time=30
note_on channel=9 note=44 velocity=0 time=30
note_on channel=8 note=69 velocity=0 time=0
note_on channel=9 note=44 velocity=100 time=0
note_on channel=9 note=40 velocity=0 time=15
note_on channel=4 note=38 velocity=0 time=31
note_on channel=1 note=69 velocity=0 time=12
note_on channel=8 note=72 velocity=0 time=2
note_on channel=3 note=72 velocity=0 time=0
note_on channel=9 note=44 velocity=0 time=0
note_on channel=1 note=69 velocity=124 time=0
note_on channel=3 note=69 velocity=119 time=0
note_on channel=8 note=69 velocity=75 time=0
note_on channel=9 note=35 velocity=108 time=0
note_on channel=9 note=44 velocity=100 time=0
note_on channel=4 note=38 velocity=70 time=8
note_on channel=1 note=69 velocity=0 time=19
note_on channel=8 note=69 velocity=0 time=3
note_on channel=3 note=69 velocity=0 time=0
note_on channel=1 note=65 velocity=127 time=0
note_on channel=3 note=65 velocity=92 time=0
note_on channel=8 note=65 velocity=68 time=0
note_on channel=4 note=38 velocity=0 time=8
note_on channel=9 note=35 velocity=0 time=7
note_on channel=1 note=60 velocity=119 time=14
note_on channel=9 note=44 velocity=0 time=1
note_on channel=3 note=65 velocity=0 time=0
note_on channel=8 note=65 velocity=0 time=0
note_on channel=3 note=60 velocity=127 time=0
note_on channel=8 note=60 velocity=78 time=0
note_on channel=9 note=33 velocity=108 time=0
note_on channel=9 note=44 velocity=100 time=0
note_on channel=1 note=65 velocity=0 time=2
note_on channel=4 note=31 velocity=127 time=9
pitchwheel channel=4 pitch=-597 time=16
pitchwheel channel=4 pitch=-597 time=1
pitchwheel channel=4 pitch=-597 time=0
pitchwheel channel=4 pitch=-1194 time=2
pitchwheel channel=4 pitch=-1194 time=0
pitchwheel channel=4 pitch=-1194 time=0
pitchwheel channel=4 pitch=-2048 time=2
pitchwheel channel=4 pitch=-2048 time=0
pitchwheel channel=4 pitch=-2048 time=1
pitchwheel channel=4 pitch=-2545 time=2
pitchwheel channel=4 pitch=-2545 time=0
pitchwheel channel=4 pitch=-2545 time=0
pitchwheel channel=4 pitch=-2883 time=2
pitchwheel channel=4 pitch=-2883 time=0
pitchwheel channel=4 pitch=-2883 time=0
pitchwheel channel=4 pitch=-3583 time=4
pitchwheel channel=4 pitch=-3583 time=0
pitchwheel channel=4 pitch=-3583 time=1
pitchwheel channel=4 pitch=-4573 time=1
pitchwheel channel=4 pitch=-4573 time=0
pitchwheel channel=4 pitch=-4573 time=0
note_on channel=9 note=33 velocity=0 time=2
pitchwheel channel=4 pitch=-5290 time=0
pitchwheel channel=4 pitch=-5290 time=1
pitchwheel channel=4 pitch=-5290 time=0
pitchwheel channel=4 pitch=-6621 time=2
pitchwheel channel=4 pitch=-6621 time=0
pitchwheel channel=4 pitch=-6621 time=0
pitchwheel channel=4 pitch=-7622 time=2
pitchwheel channel=4 pitch=-7622 time=0
pitchwheel channel=4 pitch=-7622 time=1
pitchwheel channel=4 pitch=-8192 time=1
pitchwheel channel=4 pitch=-8192 time=0
pitchwheel channel=4 pitch=-8192 time=1
note_on channel=9 note=44 velocity=0 time=7
note_on channel=9 note=44 velocity=100 time=0
note_on channel=4 note=31 velocity=0 time=27
pitchwheel channel=4 pitch=-6263 time=20
pitchwheel channel=4 pitch=-6263 time=0
pitchwheel channel=4 pitch=-6263 time=1
pitchwheel channel=4 pitch=-4454 time=2
pitchwheel channel=4 pitch=-4454 time=0
pitchwheel channel=4 pitch=-4454 time=0
pitchwheel channel=4 pitch=-2048 time=2
pitchwheel channel=4 pitch=-2048 time=0
pitchwheel channel=4 pitch=-2048 time=1
pitchwheel channel=4 pitch=409 time=2
pitchwheel channel=4 pitch=409 time=0
pitchwheel channel=4 pitch=409 time=1
pitchwheel channel=4 pitch=0 time=1
pitchwheel channel=4 pitch=0 time=1
pitchwheel channel=4 pitch=0 time=0
note_on channel=8 note=60 velocity=0 time=2
note_on channel=3 note=60 velocity=0 time=0
note_on channel=9 note=44 velocity=0 time=0
note_on channel=1 note=62 velocity=127 time=0
note_on channel=3 note=62 velocity=92 time=0
note_on channel=8 note=62 velocity=112 time=0
note_on channel=9 note=45 velocity=108 time=0
note_on channel=9 note=46 velocity=100 time=0
note_on channel=4 note=28 velocity=119 time=10
note_on channel=1 note=60 velocity=0 time=24
note_on channel=9 note=45 velocity=0 time=11
note_on channel=9 note=46 velocity=0 time=15
note_on channel=9 note=44 velocity=100 time=0
note_on channel=4 note=28 velocity=0 time=20
note_on channel=5 note=79 velocity=0 time=12
note_on channel=5 note=93 velocity=68 time=22
note_on channel=5 note=81 velocity=43 time=3
note_on channel=11 note=81 velocity=127 time=0
note_on channel=11 note=93 velocity=127 time=2
note_on channel=8 note=62 velocity=0 time=1
note_on channel=3 note=62 velocity=0 time=0
note_on channel=1 note=62 velocity=0 time=0
note_on channel=9 note=44 velocity=0 time=0
note_on channel=4 note=33 velocity=127 time=0
note_on channel=6 note=81 velocity=127 time=0
note_on channel=9 note=36 velocity=127 time=0
note_on channel=9 note=36 velocity=108 time=0
note_on channel=9 note=44 velocity=100 time=0
note_on channel=2 note=69 velocity=127 time=1
note_on channel=14 note=69 velocity=127 time=0
note_on channel=14 note=81 velocity=127 time=0
note_on channel=2 note=81 velocity=127 time=3
note_on channel=15 note=45 velocity=119 time=0
note_on channel=5 note=83 velocity=43 time=3
note_on channel=9 note=49 velocity=127 time=0
note_on channel=5 note=79 velocity=79 time=32
note_on channel=9 note=36 velocity=0 time=2
note_on channel=9 note=49 velocity=0 time=2
note_on channel=5 note=93 velocity=0 time=0
note_on channel=9 note=36 velocity=0 time=2
note_on channel=5 note=83 velocity=0 time=0
note_on channel=9 note=44 velocity=0 time=15
note_on channel=15 note=45 velocity=0 time=0
note_on channel=3 note=69 velocity=119 time=0
note_on channel=8 note=69 velocity=119 time=0
note_on channel=9 note=44 velocity=100 time=0
note_on channel=11 note=93 velocity=0 time=2
note_on channel=11 note=81 velocity=0 time=2
note_on channel=6 note=81 velocity=0 time=1
note_on channel=14 note=69 velocity=0 time=2
note_on channel=2 note=69 velocity=0 time=1
note_on channel=5 note=81 velocity=0 time=0
note_on channel=2 note=81 velocity=0 time=1
note_on channel=14 note=81 velocity=0 time=0
note_on channel=5 note=79 velocity=0 time=1
note_on channel=1 note=69 velocity=119 time=5
note_on channel=3 note=69 velocity=0 time=3
note_on channel=8 note=69 velocity=0 time=0
note_on channel=3 note=69 velocity=119 time=12
note_on channel=8 note=69 velocity=119 time=0
note_on channel=9 note=40 velocity=108 time=0
note_on channel=1 note=69 velocity=0 time=3
note_on channel=1 note=69 velocity=124 time=7
note_on channel=5 note=93 velocity=68 time=15
note_on channel=9 note=44 velocity=0 time=5
note_on channel=9 note=44 velocity=100 time=0
note_on channel=5 note=81 velocity=51 time=5
note_on channel=4 note=33 velocity=0 time=2
note_on channel=5 note=83 velocity=55 time=0
note_on channel=3 note=69 velocity=0 time=8
note_on channel=9 note=40 velocity=0 time=0
note_on channel=8 note=69 velocity=0 time=3
note_on channel=1 note=69 velocity=0 time=7
note_on channel=5 note=93 velocity=0 time=20
note_on channel=4 note=33 velocity=124 time=3
note_on channel=5 note=83 velocity=0 time=5
note_on channel=5 note=81 velocity=0 time=7
note_on channel=9 note=44 velocity=0 time=0
note_on channel=1 note=69 velocity=127 time=0
note_on channel=3 note=71 velocity=124 time=0
note_on channel=8 note=71 velocity=115 time=0
note_on channel=8 note=69 velocity=102 time=0
note_on channel=9 note=35 velocity=108 time=0
note_on channel=9 note=44 velocity=100 time=0
note_on channel=4 note=33 velocity=0 time=14
note_on channel=1 note=69 velocity=0 time=13
note_on channel=8 note=71 velocity=0 time=3
note_on channel=8 note=69 velocity=0 time=0
note_on channel=3 note=71 velocity=0 time=0
note_on channel=9 note=35 velocity=0 time=15
note_on channel=1 note=69 velocity=127 time=11
note_on channel=5 note=93 velocity=72 time=1
note_on channel=9 note=44 velocity=0 time=3
note_on channel=3 note=73 velocity=124 time=0
note_on channel=8 note=73 velocity=127 time=0
note_on channel=8 note=69 velocity=105 time=0
note_on channel=9 note=35 velocity=108 time=0
note_on channel=9 note=44 velocity=100 time=0
note_on channel=5 note=81 velocity=54 time=4
note_on channel=4 note=33 velocity=127 time=3
note_on channel=5 note=81 velocity=0 time=35
note_on channel=9 note=35 velocity=0 time=3
note_on channel=5 note=93 velocity=0 time=3
note_on channel=8 note=69 velocity=0 time=12
note_on channel=9 note=44 velocity=0 time=0
note_on channel=9 note=44 velocity=100 time=0
note_on channel=1 note=69 velocity=0 time=18
note_on channel=8 note=73 velocity=0 time=12
note_on channel=3 note=73 velocity=0 time=0
note_on channel=1 note=69 velocity=115 time=0
note_on channel=3 note=76 velocity=127 time=0
note_on channel=8 note=76 velocity=90 time=0
note_on channel=8 note=69 velocity=92 time=0
note_on channel=5 note=81 velocity=92 time=28
note_on channel=5 note=93 velocity=78 time=0
note_on channel=9 note=44 velocity=0 time=2
note_on channel=9 note=40 velocity=108 time=0
note_on channel=9 note=44 velocity=100 time=0
note_on channel=5 note=83 velocity=57 time=6
note_on channel=5 note=85 velocity=62 time=20
note_on channel=3 note=76 velocity=0 time=4
note_on channel=8 note=69 velocity=0 time=0
note_on channel=4 note=33 velocity=0 time=3
note_on channel=5 note=81 velocity=0 time=9
note_on channel=5 note=83 velocity=0 time=2
note_on channel=9 note=40 velocity=0 time=1
note_on channel=5 note=93 velocity=0 time=3
note_on channel=5 note=85 velocity=0 time=3
note_on channel=1 note=69 velocity=0 time=3
note_on channel=8 note=76 velocity=0 time=6
note_on channel=9 note=44 velocity=0 time=0
note_on channel=3 note=74 velocity=127 time=0
note_on channel=4 note=33 velocity=127 time=0
note_on channel=8 note=74 velocity=124 time=0
note_on channel=8 note=71 velocity=108 time=0
note_on channel=9 note=44 velocity=100 time=0
note_on channel=1 note=71 velocity=127 time=11
note_on channel=9 note=44 velocity=0 time=49
note_on channel=9 note=35 velocity=108 time=0
note_on channel=9 note=44 velocity=100 time=0
note_on channel=5 note=81 velocity=52 time=3
note_on channel=5 note=93 velocity=78 time=0
note_on channel=5 note=85 velocity=33 time=18
note_on channel=5 note=81 velocity=0 time=20
note_on channel=9 note=35 velocity=0 time=4
note_on channel=5 note=93 velocity=0 time=5
note_on channel=5 note=85 velocity=0 time=8
note_on channel=9 note=44 velocity=0 time=2
note_on channel=9 note=44 velocity=100 time=0
note_on channel=9 note=40 velocity=108 time=30
note_on channel=5 note=81 velocity=56 time=21
note_on channel=5 note=93 velocity=77 time=4
note_on channel=9 note=44 velocity=0 time=5
note_on channel=8 note=71 velocity=0 time=0
note_on channel=9 note=44 velocity=100 time=0
note_on channel=5 note=83 velocity=53 time=4
note_on channel=5 note=85 velocity=38 time=5
note_on channel=9 note=40 velocity=0 time=6
note_on channel=4 note=33 velocity=0 time=6
note_on channel=5 note=81 velocity=0 time=8
note_on channel=5 note=83 velocity=0 time=6
note_on channel=5 note=93 velocity=0 time=6
note_on channel=5 note=85 velocity=0 time=3
note_on channel=1 note=69 velocity=94 time=1
note_on channel=1 note=71 velocity=0 time=7
note_on channel=4 note=33 velocity=78 time=5
note_on channel=4 note=35 velocity=74 time=1
note_on channel=3 note=74 velocity=0 time=2
note_on channel=8 note=74 velocity=0 time=0
note_on channel=9 note=44 velocity=0 time=0
note_on channel=3 note=73 velocity=127 time=0
note_on channel=8 note=73 velocity=97 time=0
note_on channel=8 note=71 velocity=69 time=0
note_on channel=9 note=35 velocity=108 time=0
note_on channel=9 note=44 velocity=100 time=0
note_on channel=4 note=35 velocity=0 time=18
note_on channel=4 note=33 velocity=0 time=2
note_on channel=1 note=69 velocity=0 time=3
note_on channel=1 note=66 velocity=127 time=2
note_on channel=3 note=73 velocity=0 time=5
note_on channel=8 note=73 velocity=0 time=0
note_on channel=8 note=71 velocity=0 time=0
note_on channel=3 note=71 velocity=127 time=0
note_on channel=8 note=71 velocity=124 time=0
note_on channel=8 note=69 velocity=61 time=0
note_on channel=9 note=35 velocity=0 time=15
note_on channel=5 note=81 velocity=49 time=4
note_on channel=1 note=66 velocity=0 time=4
note_on channel=5 note=93 velocity=73 time=1
note_on channel=5 note=83 velocity=61 time=2
note_on channel=9 note=44 velocity=0 time=4
note_on channel=3 note=71 velocity=0 time=0
note_on channel=8 note=71 velocity=0 time=0
note_on channel=8 note=69 velocity=0 time=0
note_on channel=1 note=64 velocity=127 time=0
note_on channel=3 note=69 velocity=102 time=0
note_on channel=4 note=33 velocity=102 time=0
note_on channel=8 note=64 velocity=127 time=0
note_on channel=8 note=69 velocity=102 time=0
note_on channel=9 note=33 velocity=108 time=0
note_on channel=9 note=46 velocity=100 time=0
note_on channel=5 note=85 velocity=54 time=12
note_on channel=5 note=83 velocity=0 time=13
note_on channel=5 note=81 velocity=0 time=1
note_on channel=5 note=85 velocity=0 time=13
note_on channel=9 note=33 velocity=0 time=6
note_on channel=5 note=93 velocity=0 time=2
note_on channel=9 note=46 velocity=0 time=13
note_on channel=9 note=44 velocity=100 time=0
note_on channel=3 note=69 velocity=0 time=30
note_on channel=8 note=69 velocity=0 time=0
note_on channel=8 note=64 velocity=0 time=0
note_on channel=4 note=33 velocity=0 time=8
note_on channel=5 note=81 velocity=65 time=8
note_on channel=1 note=62 velocity=127 time=9
note_on channel=9 note=44 velocity=0 time=5
note_on channel=3 note=71 velocity=127 time=0
note_on channel=5 note=83 velocity=32 time=0
note_on channel=5 note=93 velocity=90 time=0
note_on channel=8 note=71 velocity=127 time=0
note_on channel=8 note=62 velocity=99 time=0
note_on channel=9 note=45 velocity=108 time=0
note_on channel=9 note=44 velocity=100 time=0
note_on channel=1 note=64 velocity=0 time=2
note_on channel=5 note=85 velocity=31 time=0
note_on channel=4 note=32 velocity=127 time=9
note_on channel=4 note=31 velocity=59 time=7
note_on channel=5 note=81 velocity=0 time=5
note_on channel=5 note=83 velocity=0 time=5
note_on channel=5 note=85 velocity=0 time=11
note_on channel=9 note=45 velocity=0 time=6
control_change channel=5 control=7 value=126 time=10
note_on channel=9 note=44 velocity=0 time=5
note_on channel=9 note=44 velocity=100 time=0
note_on channel=5 note=93 velocity=0 time=1
control_change channel=5 control=7 value=124 time=0
control_change channel=5 control=7 value=118 time=5
note_on channel=4 note=31 velocity=0 time=13
control_change channel=5 control=7 value=117 time=0
note_on channel=4 note=32 velocity=0 time=8
note_on channel=8 note=62 velocity=0 time=3
note_on channel=3 note=71 velocity=0 time=0
note_on channel=8 note=71 velocity=0 time=0
note_on channel=1 note=62 velocity=0 time=17
note_on channel=5 note=86 velocity=79 time=7
note_on channel=5 note=88 velocity=88 time=2
note_on channel=9 note=44 velocity=0 time=4
note_on channel=9 note=36 velocity=127 time=0
note_on channel=9 note=36 velocity=108 time=0
note_on channel=9 note=44 velocity=100 time=0
note_on channel=5 note=84 velocity=78 time=4
note_on channel=10 note=72 velocity=88 time=0
note_on channel=4 note=31 velocity=119 time=2
note_on channel=9 note=49 velocity=127 time=1
note_on channel=5 note=88 velocity=0 time=3
note_on channel=5 note=86 velocity=0 time=1
note_on channel=5 note=84 velocity=0 time=14
note_on channel=10 note=72 velocity=0 time=6
note_on channel=9 note=36 velocity=0 time=10
note_on channel=9 note=49 velocity=0 time=2
note_on channel=9 note=36 velocity=0 time=2
note_on channel=9 note=44 velocity=0 time=15
note_on channel=9 note=44 velocity=100 time=0
note_on channel=2 note=60 velocity=88 time=9
note_on channel=2 note=72 velocity=112 time=5
note_on channel=9 note=40 velocity=108 time=16
note_on channel=2 note=72 velocity=0 time=4
note_on channel=2 note=60 velocity=0 time=0
note_on channel=2 note=60 velocity=90 time=10
note_on channel=2 note=72 velocity=84 time=1
note_on channel=5 note=86 velocity=77 time=5
control_change channel=5 control=7 value=115 time=7
note_on channel=10 note=72 velocity=90 time=0
note_on channel=9 note=44 velocity=0 time=3
note_on channel=9 note=44 velocity=100 time=0
control_change channel=5 control=7 value=114 time=1
note_on channel=5 note=88 velocity=78 time=0
note_on channel=4 note=31 velocity=0 time=4
control_change channel=5 control=7 value=112 time=3
note_on channel=5 note=84 velocity=54 time=0
note_on channel=5 note=86 velocity=0 time=5
note_on channel=9 note=40 velocity=0 time=2
note_on channel=2 note=72 velocity=0 time=1
control_change channel=5 control=7 value=111 time=0
note_on channel=5 note=88 velocity=0 time=4
note_on channel=10 note=72 velocity=0 time=9
note_on channel=2 note=60 velocity=0 time=0
note_on channel=5 note=84 velocity=0 time=0
note_on channel=2 note=62 velocity=72 time=27
note_on channel=2 note=74 velocity=124 time=2
note_on channel=9 note=44 velocity=0 time=2
note_on channel=4 note=31 velocity=127 time=0
note_on channel=9 note=35 velocity=108 time=0
note_on channel=9 note=44 velocity=100 time=0
note_on channel=4 note=31 velocity=0 time=21
note_on channel=2 note=74 velocity=0 time=8
note_on channel=2 note=62 velocity=0 time=2
note_on channel=5 note=86 velocity=84 time=12
note_on channel=10 note=72 velocity=94 time=0
note_on channel=9 note=35 velocity=0 time=2
note_on channel=5 note=88 velocity=66 time=6
note_on channel=2 note=62 velocity=94 time=6
note_on channel=9 note=44 velocity=0 time=3
note_on channel=5 note=84 velocity=74 time=0
note_on channel=9 note=35 velocity=108 time=0
note_on channel=9 note=44 velocity=100 time=0
note_on channel=2 note=74 velocity=115 time=1
note_on channel=5 note=86 velocity=0 time=2
note_on channel=5 note=88 velocity=0 time=4
note_on channel=4 note=31 velocity=127 time=0
note_on channel=10 note=72 velocity=0 time=10
note_on channel=5 note=84 velocity=0 time=14
note_on channel=9 note=35 velocity=0 time=14
note_on channel=9 note=44 velocity=0 time=15
note_on channel=9 note=44 velocity=100 time=0
note_on channel=2 note=62 velocity=0 time=22
note_on channel=2 note=64 velocity=99 time=3
note_on channel=2 note=76 velocity=127 time=2
note_on channel=2 note=74 velocity=0 time=1
note_on channel=5 note=86 velocity=70 time=11
note_on channel=5 note=88 velocity=56 time=9
note_on channel=10 note=72 velocity=99 time=0
note_on channel=5 note=84 velocity=66 time=8
note_on channel=5 note=86 velocity=0 time=3
note_on channel=9 note=44 velocity=0 time=1
note_on channel=9 note=40 velocity=108 time=0
note_on channel=9 note=44 velocity=100 time=0
note_on channel=5 note=88 velocity=0 time=3
note_on channel=4 note=31 velocity=0 time=14
note_on channel=10 note=72 velocity=0 time=4
note_on channel=5 note=84 velocity=0 time=12
note_on channel=9 note=40 velocity=0 time=12
note_on channel=9 note=44 velocity=0 time=15
note_on channel=9 note=44 velocity=100 time=0
note_on channel=2 note=76 velocity=0 time=4
note_on channel=4 note=31 velocity=127 time=4
note_on channel=2 note=64 velocity=0 time=5
note_on channel=2 note=60 velocity=84 time=17
note_on channel=2 note=72 velocity=97 time=2
note_on channel=5 note=86 velocity=79 time=8
note_on channel=5 note=88 velocity=84 time=5
note_on channel=2 note=60 velocity=0 time=8
note_on channel=2 note=72 velocity=0 time=2
note_on channel=5 note=84 velocity=88 time=1
note_on channel=10 note=72 velocity=92 time=1
note_on channel=5 note=86 velocity=0 time=2
note_on channel=9 note=44 velocity=0 time=1
note_on channel=9 note=35 velocity=108 time=0
note_on channel=9 note=44 velocity=100 time=0
note_on channel=5 note=88 velocity=0 time=1
note_on channel=2 note=60 velocity=67 time=0
note_on channel=2 note=72 velocity=59 time=1
note_on channel=10 note=72 velocity=0 time=23
note_on channel=5 note=84 velocity=0 time=3
note_on channel=2 note=72 velocity=0 time=8
note_on channel=2 note=60 velocity=0 time=5
note_on channel=9 note=35 velocity=0 time=4
note_on channel=2 note=74 velocity=124 time=11
note_on channel=2 note=62 velocity=75 time=3
note_on channel=9 note=44 velocity=0 time=1
note_on channel=9 note=44 velocity=100 time=0
note_on channel=2 note=74 velocity=0 time=26
note_on channel=2 note=62 velocity=0 time=3
note_on channel=9 note=40 velocity=108 time=1
note_on channel=5 note=86 velocity=97 time=8
note_on channel=4 note=31 velocity=0 time=3
note_on channel=5 note=88 velocity=90 time=6
note_on channel=2 note=64 velocity=119 time=3
note_on channel=2 note=76 velocity=127 time=5
note_on channel=10 note=72 velocity=102 time=0
note_on channel=5 note=84 velocity=72 time=2
note_on channel=5 note=86 velocity=0 time=2
note_on channel=9 note=44 velocity=0 time=1
note_on channel=9 note=44 velocity=100 time=0
note_on channel=5 note=88 velocity=0 time=2
note_on channel=9 note=40 velocity=0 time=13
note_on channel=5 note=84 velocity=0 time=4
note_on channel=10 note=72 velocity=0 time=6
note_on channel=4 note=31 velocity=119 time=29
control_change channel=7 control=7 value=126 time=0
note_on channel=9 note=44 velocity=0 time=6
note_on channel=9 note=35 velocity=108 time=0
note_on channel=9 note=44 velocity=100 time=0
note_on channel=4 note=31 velocity=0 time=15
note_on channel=2 note=67 velocity=63 time=1
note_on channel=2 note=79 velocity=108 time=0
note_on channel=2 note=76 velocity=0 time=3
note_on channel=2 note=64 velocity=0 time=7
note_on channel=5 note=86 velocity=66 time=4
note_on channel=5 note=88 velocity=88 time=8
note_on channel=9 note=35 velocity=0 time=7
note_on channel=10 note=76 velocity=88 time=0
note_on channel=5 note=86 velocity=0 time=2
control_change channel=5 control=7 value=112 time=0
note_on channel=5 note=84 velocity=51 time=0
note_on channel=5 note=88 velocity=0 time=10
control_change channel=5 control=7 value=113 time=0
note_on channel=9 note=44 velocity=0 time=3
note_on channel=4 note=31 velocity=127 time=0
note_on channel=9 note=49 velocity=108 time=0
note_on channel=9 note=35 velocity=108 time=0
note_on channel=9 note=44 velocity=100 time=0
note_on channel=10 note=76 velocity=0 time=4
control_change channel=5 control=7 value=118 time=0
note_on channel=10 note=72 velocity=63 time=5
note_on channel=5 note=84 velocity=0 time=1
control_change channel=5 control=7 value=124 time=0
note_on channel=2 note=79 velocity=0 time=3
note_on channel=2 note=67 velocity=0 time=6
control_change channel=5 control=7 value=127 time=0
note_on channel=10 note=72 velocity=0 time=4
note_on channel=9 note=35 velocity=0 time=22
note_on channel=9 note=49 velocity=0 time=0
note_on channel=5 note=86 velocity=58 time=11
note_on channel=9 note=44 velocity=0 time=4
control_change channel=7 control=7 value=124 time=0
note_on channel=10 note=74 velocity=58 time=0
control_change channel=7 control=7 value=123 time=10
note_on channel=5 note=86 velocity=0 time=14
note_on channel=5 note=84 velocity=102 time=0
note_on channel=10 note=74 velocity=0 time=4
note_on channel=10 note=72 velocity=102 time=2
note_on channel=5 note=84 velocity=0 time=7
note_on channel=10 note=72 velocity=0 time=6
control_change channel=7 control=7 value=121 time=0
note_on channel=5 note=79 velocity=68 time=13
control_change channel=7 control=7 value=120 time=4
note_on channel=9 note=45 velocity=108 time=0
note_on channel=9 note=44 velocity=100 time=0
note_on channel=10 note=67 velocity=68 time=0
note_on channel=4 note=31 velocity=0 time=11
note_on channel=5 note=79 velocity=0 time=5
note_on channel=10 note=67 velocity=0 time=4
control_change channel=7 control=7 value=118 time=0
note_on channel=5 note=84 velocity=99 time=7
control_change channel=7 control=7 value=117 time=3
note_on channel=10 note=72 velocity=99 time=0
note_on channel=5 note=84 velocity=0 time=13
note_on channel=9 note=45 velocity=0 time=2
note_on channel=10 note=72 velocity=0 time=1
control_change channel=7 control=7 value=115 time=5
note_on channel=9 note=44 velocity=0 time=9
note_on channel=5 note=86 velocity=88 time=0
note_on channel=10 note=74 velocity=88 time=0
control_change channel=7 control=7 value=114 time=5
note_on channel=10 note=74 velocity=0 time=9
note_on channel=5 note=86 velocity=0 time=0
note_on channel=5 note=91 velocity=115 time=15
control_change channel=5 control=7 value=118 time=1
note_on channel=10 note=79 velocity=115 time=0
control_change channel=5 control=7 value=109 time=10
control_change channel=5 control=7 value=108 time=5
note_on channel=5 note=91 velocity=0 time=9
note_on channel=10 note=79 velocity=0 time=1
control_change channel=5 control=7 value=106 time=0
note_on channel=10 note=72 velocity=99 time=3
note_on channel=4 note=29 velocity=115 time=2
note_on channel=9 note=49 velocity=127 time=0
note_on channel=9 note=36 velocity=127 time=0
note_on channel=9 note=44 velocity=100 time=0
note_on channel=5 note=84 velocity=84 time=1
control_change channel=5 control=7 value=105 time=6
note_on channel=5 note=86 velocity=94 time=0
control_change channel=7 control=7 value=112 time=0
control_change channel=7 control=7 value=111 time=5
control_change channel=5 control=7 value=103 time=5
note_on channel=5 note=88 velocity=78 time=1
note_on channel=5 note=84 velocity=0 time=6
note_on channel=10 note=72 velocity=0 time=3
control_change channel=7 control=7 value=109 time=0
note_on channel=9 note=49 velocity=0 time=9
note_on channel=9 note=36 velocity=0 time=5
note_on channel=5 note=86 velocity=0 time=0
control_change channel=5 control=7 value=102 time=4
note_on channel=5 note=88 velocity=0 time=6
control_change channel=5 control=7 value=100 time=0
note_on channel=2 note=60 velocity=86 time=7
note_on channel=5 note=84 velocity=36 time=0
note_on channel=9 note=44 velocity=0 time=2
control_change channel=5 control=7 value=99 time=0
note_on channel=9 note=44 velocity=100 time=0
note_on channel=2 note=72 velocity=94 time=4
control_change channel=5 control=7 value=95 time=0
control_change channel=5 control=7 value=89 time=10
note_on channel=5 note=84 velocity=0 time=2
control_change channel=7 control=7 value=108 time=0
note_on channel=2 note=72 velocity=0 time=7
note_on channel=2 note=60 velocity=0 time=2
note_on channel=9 note=40 velocity=108 time=5
note_on channel=2 note=72 velocity=81 time=7
note_on channel=2 note=60 velocity=77 time=1
note_on channel=10 note=72 velocity=112 time=18
note_on channel=9 note=44 velocity=0 time=4
note_on channel=5 note=84 velocity=102 time=0
note_on channel=9 note=44 velocity=100 time=0
note_on channel=4 note=29 velocity=0 time=3
note_on channel=5 note=86 velocity=92 time=3
note_on channel=2 note=72 velocity=0 time=3
note_on channel=2 note=60 velocity=0 time=5
note_on channel=9 note=40 velocity=0 time=1
note_on channel=5 note=88 velocity=63 time=2
note_on channel=10 note=72 velocity=0 time=5
note_on channel=5 note=84 velocity=0 time=3
control_change channel=7 control=7 value=106 time=0
control_change channel=7 control=7 value=105 time=5
note_on channel=5 note=86 velocity=0 time=12
control_change channel=7 control=7 value=103 time=0
note_on channel=2 note=62 velocity=84 time=5
note_on channel=5 note=88 velocity=0 time=1
note_on channel=2 note=74 velocity=99 time=0
note_on channel=9 note=44 velocity=0 time=12
note_on channel=4 note=29 velocity=119 time=0
control_change channel=7 control=7 value=102 time=0
note_on channel=9 note=35 velocity=108 time=0
note_on channel=9 note=44 velocity=100 time=0
control_change channel=7 control=7 value=100 time=10
note_on channel=4 note=29 velocity=0 time=11
note_on channel=2 note=62 velocity=0 time=3
note_on channel=2 note=74 velocity=0 time=1
control_change channel=7 control=7 value=99 time=5
note_on channel=9 note=35 velocity=0 time=15
control_change channel=7 control=7 value=97 time=5
note_on channel=2 note=64 velocity=105 time=4
note_on channel=10 note=72 velocity=99 time=2
note_on channel=2 note=76 velocity=124 time=2
note_on channel=9 note=44 velocity=0 time=2
note_on channel=4 note=29 velocity=127 time=0
note_on channel=9 note=35 velocity=108 time=0
note_on channel=9 note=44 velocity=100 time=0
control_change channel=7 control=7 value=96 time=15
note_on channel=10 note=72 velocity=0 time=12
note_on channel=9 note=35 velocity=0 time=18
note_on channel=9 note=44 velocity=0 time=15
note_on channel=9 note=44 velocity=100 time=0
control_change channel=7 control=7 value=95 time=5
note_on channel=10 note=67 velocity=64 time=10
note_on channel=5 note=79 velocity=64 time=2
note_on channel=2 note=76 velocity=0 time=5
note_on channel=2 note=79 velocity=108 time=5
note_on channel=2 note=64 velocity=0 time=1
note_on channel=2 note=67 velocity=86 time=1
control_change channel=7 control=7 value=94 time=5
note_on channel=10 note=69 velocity=78 time=11
note_on channel=5 note=81 velocity=78 time=2
note_on channel=9 note=44 velocity=0 time=13
note_on channel=9 note=40 velocity=108 time=0
note_on channel=9 note=44 velocity=100 time=0
note_on channel=10 note=72 velocity=124 time=0
note_on channel=10 note=67 velocity=0 time=3
note_on channel=5 note=79 velocity=0 time=2
note_on channel=5 note=83 velocity=83 time=8
note_on channel=10 note=71 velocity=83 time=2
note_on channel=10 note=69 velocity=0 time=11
note_on channel=10 note=72 velocity=0 time=2
note_on channel=5 note=81 velocity=0 time=0
control_change channel=7 control=7 value=92 time=2
note_on channel=10 note=72 velocity=75 time=0
note_on channel=5 note=84 velocity=75 time=6
control_change channel=7 control=7 value=91 time=0
note_on channel=9 note=40 velocity=0 time=9
note_on channel=2 note=64 velocity=62 time=0
note_on channel=2 note=76 velocity=72 time=0
note_on channel=2 note=79 velocity=0 time=2
note_on channel=2 note=67 velocity=0 time=1
note_on channel=5 note=83 velocity=0 time=5
note_on channel=10 note=71 velocity=0 time=2
control_change channel=5 control=7 value=90 time=0
note_on channel=4 note=29 velocity=0 time=4
note_on channel=9 note=44 velocity=0 time=1
control_change channel=5 control=7 value=92 time=0
control_change channel=7 control=7 value=89 time=0
note_on channel=9 note=40 velocity=127 time=0
note_on channel=9 note=44 velocity=100 time=0
note_on channel=10 note=74 velocity=92 time=0
control_change channel=5 control=7 value=100 time=4
note_on channel=5 note=86 velocity=92 time=0
note_on channel=10 note=72 velocity=0 time=3
note_on channel=5 note=84 velocity=0 time=6
control_change channel=5 control=7 value=106 time=0
control_change channel=5 control=7 value=115 time=5
note_on channel=2 note=76 velocity=0 time=5
control_change channel=7 control=7 value=88 time=0
control_change channel=5 control=7 value=121 time=5
note_on channel=9 note=40 velocity=0 time=2
note_on channel=9 note=40 velocity=127 time=0
note_on channel=2 note=64 velocity=0 time=1
control_change channel=5 control=7 value=122 time=5
control_change channel=7 control=7 value=86 time=0
control_change channel=5 control=7 value=124 time=5
note_on channel=5 note=88 velocity=112 time=4
note_on channel=10 note=76 velocity=112 time=0
note_on channel=10 note=74 velocity=0 time=3
control_change channel=5 control=7 value=127 time=0
note_on channel=5 note=86 velocity=0 time=4
note_on channel=9 note=36 velocity=127 time=6
note_on channel=9 note=44 velocity=0 time=2
note_on channel=9 note=40 velocity=0 time=0
note_on channel=2 note=81 velocity=105 time=0
note_on channel=4 note=29 velocity=108 time=0
note_on channel=9 note=49 velocity=108 time=0
note_on channel=2 note=69 velocity=108 time=6
note_on channel=10 note=76 velocity=127 time=6
note_on channel=9 note=49 velocity=0 time=33
note_on channel=9 note=36 velocity=0 time=2
note_on channel=2 note=69 velocity=0 time=13
note_on channel=2 note=81 velocity=0 time=3
note_on channel=9 note=36 velocity=127 time=24
note_on channel=2 note=83 velocity=124 time=3
note_on channel=4 note=29 velocity=108 time=0
note_on channel=9 note=40 velocity=108 time=0
note_on channel=9 note=49 velocity=127 time=0
note_on channel=2 note=71 velocity=127 time=1
note_on channel=4 note=29 velocity=0 time=15
note_on channel=4 note=29 velocity=0 time=14
note_on channel=9 note=36 velocity=0 time=10
note_on channel=9 note=49 velocity=0 time=3
note_on channel=9 note=40 velocity=0 time=2
note_on channel=2 note=71 velocity=0 time=10
note_on channel=2 note=83 velocity=0 time=3
note_on channel=2 note=72 velocity=127 time=25
note_on channel=2 note=84 velocity=127 time=0
control_change channel=7 control=7 value=85 time=0
note_on channel=4 note=29 velocity=115 time=7
control_change channel=7 control=7 value=83 time=0
note_on channel=9 note=44 velocity=100 time=0
note_on channel=9 note=49 velocity=127 time=0
note_on channel=9 note=36 velocity=127 time=5
control_change channel=5 control=7 value=126 time=5
control_change channel=7 control=7 value=82 time=0
control_change channel=5 control=7 value=124 time=7
control_change channel=5 control=7 value=123 time=5
control_change channel=5 control=7 value=121 time=10
control_change channel=5 control=7 value=120 time=5
control_change channel=5 control=7 value=118 time=8
control_change channel=5 control=7 value=117 time=11
note_on channel=9 note=44 velocity=0 time=4
note_on channel=9 note=44 velocity=100 time=0
control_change channel=5 control=7 value=115 time=10
control_change channel=5 control=7 value=114 time=5
control_change channel=5 control=7 value=106 time=5
note_on channel=9 note=49 velocity=0 time=5
note_on channel=5 note=88 velocity=0 time=1
note_on channel=10 note=76 velocity=0 time=0
note_on channel=10 note=76 velocity=0 time=4
note_on channel=9 note=36 velocity=0 time=0
control_change channel=5 control=7 value=105 time=0
note_on channel=10 note=67 velocity=66 time=26
note_on channel=9 note=44 velocity=0 time=4
note_on channel=5 note=67 velocity=66 time=8
note_on channel=10 note=72 velocity=47 time=49
note_on channel=9 note=45 velocity=108 time=3
note_on channel=9 note=44 velocity=100 time=0
note_on channel=10 note=67 velocity=0 time=8
note_on channel=5 note=72 velocity=47 time=1
note_on channel=5 note=67 velocity=0 time=11
note_on channel=9 note=45 velocity=0 time=25
note_on channel=10 note=72 velocity=0 time=8
control_change channel=5 control=7 value=106 time=1
note_on channel=10 note=76 velocity=83 time=0
note_on channel=9 note=44 velocity=0 time=6
note_on channel=4 note=29 velocity=0 time=0
note_on channel=9 note=44 velocity=100 time=0
control_change channel=5 control=7 value=107 time=1
note_on channel=5 note=72 velocity=0 time=4
control_change channel=5 control=7 value=109 time=1
note_on channel=5 note=76 velocity=83 time=0
control_change channel=5 control=7 value=110 time=5
note_on channel=10 note=76 velocity=0 time=20
control_change channel=7 control=7 value=80 time=0
note_on channel=5 note=76 velocity=0 time=12
note_on channel=2 note=84 velocity=0 time=3
note_on channel=2 note=72 velocity=0 time=1
note_on channel=9 note=44 velocity=0 time=13
note_on channel=9 note=36 velocity=127 time=0
note_on channel=9 note=36 velocity=108 time=0
note_on channel=9 note=44 velocity=100 time=0
note_on channel=10 note=78 velocity=124 time=0
note_on channel=4 note=38 velocity=90 time=1
note_on channel=5 note=78 velocity=124 time=11
note_on channel=9 note=36 velocity=0 time=29
control_change channel=5 control=7 value=112 time=0
note_on channel=9 note=36 velocity=0 time=4
note_on channel=9 note=44 velocity=0 time=15
note_on channel=9 note=44 velocity=100 time=0
note_on channel=9 note=40 velocity=108 time=30
note_on channel=9 note=44 velocity=0 time=30
note_on channel=9 note=44 velocity=100 time=0
note_on channel=9 note=40 velocity=0 time=15
note_on channel=4 note=38 velocity=0 time=12
note_on channel=9 note=44 velocity=0 time=33
note_on channel=4 note=38 velocity=92 time=0
note_on channel=9 note=49 velocity=127 time=0
note_on channel=9 note=35 velocity=108 time=0
note_on channel=9 note=44 velocity=100 time=0
note_on channel=4 note=38 velocity=0 time=41
note_on channel=9 note=35 velocity=0 time=4
note_on channel=9 note=49 velocity=0 time=15
note_on channel=9 note=44 velocity=0 time=0
note_on channel=4 note=36 velocity=92 time=0
note_on channel=9 note=44 velocity=100 time=0
note_on channel=10 note=78 velocity=0 time=36
control_change channel=7 control=7 value=81 time=0
note_on channel=5 note=78 velocity=0 time=12
note_on channel=10 note=78 velocity=84 time=9
note_on channel=9 note=44 velocity=0 time=3
note_on channel=9 note=44 velocity=100 time=0
note_on channel=5 note=78 velocity=84 time=9
note_on channel=9 note=44 velocity=0 time=51
note_on channel=9 note=40 velocity=108 time=0
note_on channel=9 note=44 velocity=100 time=0
note_on channel=10 note=78 velocity=0 time=1
note_on channel=10 note=79 velocity=105 time=0
note_on channel=5 note=78 velocity=0 time=12
note_on channel=5 note=79 velocity=105 time=0
note_on channel=4 note=36 velocity=0 time=18
note_on channel=9 note=40 velocity=0 time=14
note_on channel=10 note=81 velocity=84 time=8
note_on channel=9 note=44 velocity=0 time=7
note_on channel=10 note=79 velocity=0 time=0
note_on channel=9 note=44 velocity=100 time=0
note_on channel=5 note=81 velocity=84 time=5
note_on channel=4 note=36 velocity=79 time=4
note_on channel=5 note=79 velocity=0 time=3
note_on channel=4 note=36 velocity=0 time=29
note_on channel=10 note=81 velocity=0 time=10
note_on channel=9 note=44 velocity=0 time=9
note_on channel=9 note=35 velocity=108 time=0
note_on channel=9 note=44 velocity=100 time=0
note_on channel=10 note=74 velocity=92 time=0
note_on channel=5 note=81 velocity=0 time=3
note_on channel=4 note=35 velocity=90 time=9
note_on channel=5 note=74 velocity=92 time=0
note_on channel=9 note=35 velocity=0 time=33
note_on channel=9 note=44 velocity=0 time=15
note_on channel=9 note=44 velocity=100 time=0
note_on channel=9 note=40 velocity=108 time=30
note_on channel=9 note=44 velocity=0 time=30
note_on channel=9 note=44 velocity=100 time=0
note_on channel=9 note=40 velocity=0 time=15
note_on channel=4 note=35 velocity=0 time=14
note_on channel=9 note=49 velocity=127 time=27
note_on channel=9 note=44 velocity=0 time=4
note_on channel=4 note=35 velocity=64 time=0
note_on channel=9 note=35 velocity=108 time=0
note_on channel=9 note=44 velocity=100 time=0
note_on channel=4 note=35 velocity=0 time=32
note_on channel=9 note=35 velocity=0 time=13
note_on channel=4 note=33 velocity=105 time=9
note_on channel=9 note=44 velocity=0 time=6
note_on channel=9 note=33 velocity=108 time=0
note_on channel=9 note=44 velocity=100 time=0
note_on channel=9 note=33 velocity=0 time=45
note_on channel=10 note=74 velocity=0 time=1
note_on channel=5 note=74 velocity=0 time=12
note_on channel=9 note=44 velocity=0 time=2
note_on channel=9 note=44 velocity=100 time=0
note_on channel=10 note=62 velocity=68 time=0
note_on channel=9 note=49 velocity=0 time=1
note_on channel=5 note=62 velocity=68 time=11
note_on channel=10 note=67 velocity=79 time=47
note_on channel=9 note=44 velocity=0 time=1
note_on channel=9 note=45 velocity=108 time=0
note_on channel=9 note=44 velocity=100 time=0
note_on channel=10 note=62 velocity=0 time=11
note_on channel=5 note=67 velocity=79 time=0
note_on channel=5 note=62 velocity=0 time=12
note_on channel=4 note=33 velocity=0 time=6
note_on channel=9 note=45 velocity=0 time=16
note_on channel=10 note=67 velocity=0 time=13
note_on channel=9 note=44 velocity=0 time=2
note_on channel=9 note=44 velocity=100 time=0
note_on channel=10 note=74 velocity=112 time=3
note_on channel=4 note=33 velocity=78 time=1
note_on channel=5 note=67 velocity=0 time=6
note_on channel=5 note=74 velocity=112 time=5
note_on channel=10 note=74 velocity=0 time=20
note_on channel=4 note=33 velocity=0 time=10
note_on channel=5 note=74 velocity=0 time=2
note_on channel=10 note=74 velocity=119 time=9
note_on channel=9 note=44 velocity=0 time=4
note_on channel=4 note=32 velocity=105 time=0
note_on channel=9 note=36 velocity=127 time=0
note_on channel=9 note=36 velocity=108 time=0
note_on channel=9 note=44 velocity=100 time=0
note_on channel=9 note=49 velocity=127 time=7
note_on channel=5 note=74 velocity=119 time=1
note_on channel=9 note=36 velocity=0 time=33
note_on channel=9 note=49 velocity=0 time=2
note_on channel=9 note=36 velocity=0 time=2
note_on channel=9 note=44 velocity=0 time=15
note_on channel=9 note=44 velocity=100 time=0
note_on channel=9 note=40 velocity=108 time=30
note_on channel=4 note=32 velocity=0 time=15
note_on channel=10 note=72 velocity=78 time=4
note_on channel=9 note=44 velocity=0 time=11
note_on channel=9 note=44 velocity=100 time=0
note_on channel=5 note=72 velocity=78 time=1
note_on channel=10 note=74 velocity=0 time=3
note_on channel=4 note=31 velocity=119 time=3
note_on channel=9 note=40 velocity=0 time=8
note_on channel=5 note=74 velocity=0 time=1
note_on channel=10 note=71 velocity=127 time=37
note_on channel=9 note=44 velocity=0 time=7
note_on channel=9 note=35 velocity=108 time=0
note_on channel=9 note=44 velocity=100 time=0
note_on channel=5 note=71 velocity=127 time=5
note_on channel=10 note=72 velocity=0 time=2
note_on channel=5 note=72 velocity=0 time=12
note_on channel=9 note=35 velocity=0 time=26
note_on channel=10 note=69 velocity=60 time=3
note_on channel=10 note=71 velocity=0 time=11
note_on channel=9 note=44 velocity=0 time=1
note_on channel=5 note=69 velocity=60 time=0
note_on channel=9 note=35 velocity=108 time=0
note_on channel=9 note=44 velocity=100 time=0
note_on channel=5 note=71 velocity=0 time=11
note_on channel=9 note=35 velocity=0 time=34
note_on channel=9 note=44 velocity=0 time=15
note_on channel=9 note=44 velocity=100 time=0
note_on channel=10 note=67 velocity=75 time=52
note_on channel=10 note=69 velocity=0 time=5
note_on channel=9 note=44 velocity=0 time=3
note_on channel=9 note=40 velocity=108 time=0
note_on channel=9 note=44 velocity=100 time=0
note_on channel=5 note=67 velocity=75 time=4
note_on channel=5 note=69 velocity=0 time=5
note_on channel=9 note=40 velocity=0 time=36
note_on channel=9 note=44 velocity=0 time=15
note_on channel=9 note=44 velocity=100 time=0
note_on channel=4 note=31 velocity=0 time=6
note_on channel=10 note=67 velocity=0 time=32
note_on channel=5 note=67 velocity=0 time=12
note_on channel=4 note=34 velocity=127 time=3
note_on channel=9 note=44 velocity=0 time=7
note_on channel=9 note=49 velocity=108 time=0
note_on channel=9 note=35 velocity=108 time=0
note_on channel=9 note=44 velocity=100 time=0
note_on channel=10 note=76 velocity=124 time=0
note_on channel=5 note=76 velocity=124 time=12
note_on channel=9 note=35 velocity=0 time=33
note_on channel=9 note=49 velocity=0 time=0
note_on channel=9 note=44 velocity=0 time=15
note_on channel=9 note=44 velocity=100 time=0
note_on channel=9 note=40 velocity=108 time=30
note_on channel=10 note=74 velocity=77 time=25
note_on channel=4 note=34 velocity=0 time=1
note_on channel=9 note=44 velocity=0 time=4
note_on channel=9 note=44 velocity=100 time=0
note_on channel=5 note=74 velocity=77 time=7
note_on channel=4 note=33 velocity=119 time=2
note_on channel=10 note=76 velocity=0 time=2
note_on channel=9 note=40 velocity=0 time=4
note_on channel=5 note=76 velocity=0 time=8
note_on channel=10 note=73 velocity=115 time=31
note_on channel=9 note=44 velocity=0 time=6
note_on channel=9 note=35 velocity=108 time=0
note_on channel=9 note=44 velocity=100 time=0
note_on channel=5 note=73 velocity=115 time=6
note_on channel=10 note=74 velocity=0 time=4
note_on channel=5 note=74 velocity=0 time=12
note_on channel=9 note=35 velocity=0 time=23
note_on channel=10 note=71 velocity=112 time=13
note_on channel=10 note=73 velocity=0 time=1
note_on channel=9 note=44 velocity=0 time=1
note_on channel=9 note=33 velocity=108 time=0
note_on channel=9 note=44 velocity=100 time=0
note_on channel=5 note=71 velocity=112 time=10
note_on channel=5 note=73 velocity=0 time=1
note_on channel=9 note=33 velocity=0 time=34
note_on channel=9 note=44 velocity=0 time=15
note_on channel=9 note=44 velocity=100 time=0
note_on channel=10 note=71 velocity=0 time=54
note_on channel=9 note=44 velocity=0 time=6
note_on channel=2 note=69 velocity=97 time=0
note_on channel=9 note=45 velocity=108 time=0
note_on channel=9 note=44 velocity=100 time=0
note_on channel=10 note=69 velocity=108 time=0
note_on channel=11 note=57 velocity=97 time=0
note_on channel=14 note=69 velocity=97 time=0
note_on channel=5 note=71 velocity=0 time=6
note_on channel=5 note=69 velocity=108 time=6
note_on channel=14 note=69 velocity=0 time=18
note_on channel=11 note=57 velocity=0 time=0
note_on channel=2 note=69 velocity=0 time=0
note_on channel=9 note=45 velocity=0 time=15
note_on channel=9 note=44 velocity=0 time=15
note_on channel=2 note=71 velocity=99 time=0
note_on channel=9 note=44 velocity=100 time=0
note_on channel=11 note=59 velocity=99 time=0
note_on channel=14 note=71 velocity=99 time=0
note_on channel=14 note=71 velocity=0 time=30
note_on channel=2 note=71 velocity=0 time=0
note_on channel=11 note=59 velocity=0 time=0
note_on channel=9 note=44 velocity=0 time=30
note_on channel=2 note=74 velocity=81 time=0
note_on channel=9 note=36 velocity=108 time=0
note_on channel=9 note=44 velocity=100 time=0
note_on channel=11 note=62 velocity=81 time=0
note_on channel=14 note=74 velocity=81 time=0
note_on channel=14 note=74 velocity=0 time=30
note_on channel=11 note=62 velocity=0 time=0
note_on channel=2 note=74 velocity=0 time=0
note_on channel=2 note=76 velocity=81 time=0
note_on channel=11 note=64 velocity=59 time=0
note_on channel=14 note=76 velocity=59 time=0
note_on channel=9 note=36 velocity=0 time=15
note_on channel=14 note=76 velocity=0 time=15
note_on channel=2 note=76 velocity=0 time=0
note_on channel=9 note=44 velocity=0 time=0
note_on channel=11 note=64 velocity=0 time=0
note_on channel=2 note=79 velocity=102 time=0
note_on channel=9 note=44 velocity=100 time=0
note_on channel=11 note=67 velocity=102 time=0
note_on channel=14 note=79 velocity=102 time=0
note_on channel=14 note=79 velocity=0 time=30
note_on channel=2 note=79 velocity=0 time=0
note_on channel=11 note=67 velocity=0 time=0
note_on channel=9 note=40 velocity=108 time=0
note_on channel=9 note=48 velocity=97 time=26
note_on channel=9 note=44 velocity=0 time=4
note_on channel=2 note=79 velocity=92 time=0
note_on channel=9 note=44 velocity=100 time=0
note_on channel=11 note=67 velocity=92 time=0
note_on channel=14 note=79 velocity=92 time=0
note_on channel=9 note=40 velocity=0 time=15
note_on channel=9 note=48 velocity=0 time=9
note_on channel=9 note=47 velocity=115 time=1
note_on channel=14 note=79 velocity=0 time=5
note_on channel=11 note=67 velocity=0 time=0
note_on channel=2 note=79 velocity=0 time=0
note_on channel=2 note=81 velocity=92 time=0
note_on channel=11 note=69 velocity=92 time=0
note_on channel=14 note=81 velocity=92 time=0
note_on channel=4 note=33 velocity=0 time=4
note_on channel=9 note=47 velocity=0 time=12
note_on channel=2 note=81 velocity=0 time=14
note_on channel=9 note=44 velocity=0 time=0
note_on channel=14 note=81 velocity=0 time=0
note_on channel=11 note=69 velocity=0 time=0
note_on channel=9 note=35 velocity=108 time=0
note_on channel=9 note=44 velocity=100 time=0
control_change channel=13 control=7 value=71 time=20
note_on channel=2 note=79 velocity=92 time=10
note_on channel=2 note=83 velocity=127 time=0
note_on channel=11 note=71 velocity=115 time=0
note_on channel=11 note=67 velocity=115 time=0
note_on channel=14 note=83 velocity=127 time=0
note_on channel=9 note=35 velocity=0 time=15
note_on channel=2 note=79 velocity=0 time=15
note_on channel=9 note=44 velocity=0 time=0
note_on channel=9 note=35 velocity=108 time=0
note_on channel=9 note=44 velocity=100 time=0
control_change channel=13 control=7 value=72 time=15
control_change channel=13 control=7 value=77 time=5
note_on channel=2 note=83 velocity=0 time=10
note_on channel=14 note=83 velocity=0 time=0
note_on channel=11 note=67 velocity=0 time=0
note_on channel=11 note=71 velocity=0 time=0
control_change channel=13 control=7 value=78 time=5
note_on channel=9 note=35 velocity=0 time=10
control_change channel=13 control=7 value=80 time=0
note_on channel=9 note=44 velocity=0 time=15
note_on channel=2 note=79 velocity=119 time=0
note_on channel=2 note=81 velocity=119 time=0
note_on channel=9 note=44 velocity=100 time=0
note_on channel=11 note=67 velocity=119 time=0
note_on channel=11 note=69 velocity=119 time=0
control_change channel=13 control=7 value=81 time=0
note_on channel=14 note=79 velocity=119 time=0
note_on channel=14 note=81 velocity=119 time=0
control_change channel=13 control=7 value=83 time=10
control_change channel=13 control=7 value=84 time=10
control_change channel=13 control=7 value=86 time=5
note_on channel=14 note=81 velocity=0 time=5
note_on channel=2 note=79 velocity=0 time=0
note_on channel=14 note=79 velocity=0 time=0
note_on channel=2 note=81 velocity=0 time=0
note_on channel=11 note=69 velocity=0 time=0
note_on channel=11 note=67 velocity=0 time=0
note_on channel=9 note=47 velocity=88 time=1
control_change channel=13 control=7 value=87 time=0
note_on channel=10 note=69 velocity=0 time=7
control_change channel=13 control=7 value=89 time=0
note_on channel=9 note=45 velocity=112 time=7
note_on channel=9 note=47 velocity=0 time=7
note_on channel=5 note=69 velocity=0 time=2
control_change channel=13 control=7 value=90 time=0
note_on channel=9 note=44 velocity=0 time=6
note_on channel=2 note=79 velocity=92 time=0
note_on channel=9 note=40 velocity=108 time=0
note_on channel=9 note=44 velocity=100 time=0
note_on channel=11 note=67 velocity=92 time=0
control_change channel=13 control=7 value=92 time=0
note_on channel=14 note=79 velocity=92 time=0
control_change channel=13 control=7 value=93 time=5
note_on channel=9 note=45 velocity=0 time=9
control_change channel=13 control=7 value=95 time=0
note_on channel=9 note=43 velocity=66 time=5
note_on channel=11 note=67 velocity=0 time=11
note_on channel=2 note=79 velocity=0 time=0
note_on channel=14 note=79 velocity=0 time=0
note_on channel=2 note=81 velocity=119 time=0
note_on channel=11 note=69 velocity=119 time=0
control_change channel=13 control=7 value=97 time=0
note_on channel=14 note=81 velocity=119 time=0
note_on channel=9 note=43 velocity=0 time=6
control_change channel=13 control=7 value=98 time=0
control_change channel=13 control=7 value=100 time=5
note_on channel=9 note=40 velocity=0 time=4
control_change channel=13 control=7 value=101 time=5
control_change channel=13 control=7 value=103 time=5
note_on channel=2 note=81 velocity=0 time=5
note_on channel=9 note=44 velocity=0 time=0
note_on channel=14 note=81 velocity=0 time=0
note_on channel=11 note=69 velocity=0 time=0
note_on channel=2 note=83 velocity=127 time=0
note_on channel=9 note=44 velocity=100 time=0
note_on channel=11 note=71 velocity=127 time=0
note_on channel=14 note=83 velocity=127 time=0
control_change channel=13 control=7 value=104 time=5
control_change channel=13 control=7 value=106 time=10
control_change channel=13 control=7 value=107 time=10
note_on channel=14 note=83 velocity=0 time=5
note_on channel=11 note=71 velocity=0 time=0
note_on channel=2 note=83 velocity=0 time=0
control_change channel=13 control=7 value=109 time=5
control_change channel=13 control=7 value=110 time=10
note_on channel=10 note=50 velocity=68 time=8
note_on channel=4 note=38 velocity=102 time=3
note_on channel=10 note=74 velocity=127 time=1
note_on channel=9 note=44 velocity=0 time=3
note_on channel=2 note=74 velocity=127 time=0
note_on channel=2 note=86 velocity=127 time=0
note_on channel=9 note=36 velocity=127 time=0
note_on channel=9 note=36 velocity=108 time=0
note_on channel=9 note=44 velocity=100 time=0
note_on channel=11 note=74 velocity=127 time=0
note_on channel=11 note=86 velocity=127 time=0
note_on channel=14 note=86 velocity=127 time=0
note_on channel=5 note=62 velocity=115 time=1
control_change channel=13 control=7 value=112 time=0
note_on channel=9 note=49 velocity=127 time=6
control_change channel=13 control=7 value=113 time=0
control_change channel=13 control=7 value=115 time=10
control_change channel=13 control=7 value=116 time=5
control_change channel=13 control=7 value=118 time=10
control_change channel=13 control=7 value=119 time=5
note_on channel=9 note=36 velocity=0 time=4
note_on channel=9 note=49 velocity=0 time=2
note_on channel=9 note=36 velocity=0 time=2
control_change channel=13 control=7 value=121 time=10
note_on channel=9 note=44 velocity=0 time=5
note_on channel=9 note=44 velocity=100 time=0
note_on channel=5 note=62 velocity=0 time=1
control_change channel=13 control=7 value=122 time=0
note_on channel=13 note=74 velocity=90 time=22
note_on channel=10 note=74 velocity=0 time=1
note_on channel=12 note=74 velocity=49 time=2
note_on channel=9 note=40 velocity=108 time=4
note_on channel=13 note=74 velocity=0 time=6
note_on channel=12 note=74 velocity=0 time=6
note_on channel=13 note=74 velocity=70 time=8
note_on channel=9 note=44 velocity=0 time=10
note_on channel=11 note=74 velocity=0 time=0
note_on channel=2 note=86 velocity=0 time=0
note_on channel=11 note=86 velocity=0 time=0
note_on channel=2 note=74 velocity=0 time=0
note_on channel=14 note=86 velocity=0 time=0
note_on channel=9 note=44 velocity=100 time=0
note_on channel=12 note=74 velocity=63 time=2
note_on channel=4 note=38 velocity=0 time=9
note_on channel=9 note=40 velocity=0 time=4
control_change channel=13 control=7 value=124 time=0
note_on channel=13 note=74 velocity=0 time=4
control_change channel=13 control=7 value=125 time=0
control_change channel=13 control=7 value=127 time=5
note_on channel=12 note=74 velocity=0 time=8
note_on channel=4 note=38 velocity=102 time=23
note_on channel=9 note=44 velocity=0 time=5
note_on channel=9 note=35 velocity=108 time=0
note_on channel=9 note=44 velocity=100 time=0
note_on channel=13 note=76 velocity=105 time=0
note_on channel=12 note=74 velocity=53 time=4
note_on channel=4 note=38 velocity=0 time=18
note_on channel=13 note=76 velocity=0 time=5
note_on channel=12 note=74 velocity=0 time=1
note_on channel=9 note=35 velocity=0 time=17
note_on channel=9 note=44 velocity=0 time=15
note_on channel=4 note=38 velocity=115 time=0
note_on channel=9 note=35 velocity=108 time=0
note_on channel=9 note=44 velocity=100 time=0
note_on channel=13 note=78 velocity=105 time=3
note_on channel=12 note=74 velocity=61 time=4
note_on channel=9 note=35 velocity=0 time=38
note_on channel=13 note=78 velocity=0 time=13
note_on channel=9 note=44 velocity=0 time=2
note_on channel=9 note=44 velocity=100 time=0
note_on channel=12 note=74 velocity=0 time=6
note_on channel=13 note=81 velocity=66 time=24
note_on channel=12 note=74 velocity=51 time=13
note_on channel=9 note=44 velocity=0 time=17
note_on channel=9 note=40 velocity=108 time=0
note_on channel=9 note=44 velocity=100 time=0
note_on channel=12 note=74 velocity=0 time=12
note_on channel=4 note=38 velocity=0 time=12
note_on channel=13 note=81 velocity=0 time=8
note_on channel=9 note=40 velocity=0 time=13
note_on channel=9 note=44 velocity=0 time=15
note_on channel=9 note=44 velocity=100 time=0
note_on channel=12 note=74 velocity=66 time=2
note_on channel=13 note=79 velocity=90 time=1
note_on channel=4 note=38 velocity=124 time=8
note_on channel=9 note=44 velocity=0 time=49
note_on channel=9 note=35 velocity=108 time=0
note_on channel=9 note=44 velocity=100 time=0
note_on channel=9 note=35 velocity=0 time=45
note_on channel=9 note=44 velocity=0 time=15
note_on channel=9 note=44 velocity=100 time=0
note_on channel=9 note=40 velocity=108 time=30
note_on channel=9 note=44 velocity=0 time=30
note_on channel=9 note=44 velocity=100 time=0
note_on channel=12 note=74 velocity=0 time=9
note_on channel=9 note=40 velocity=0 time=6
note_on channel=4 note=38 velocity=0 time=6
note_on channel=13 note=79 velocity=0 time=33
note_on channel=13 note=78 velocity=92 time=2
note_on channel=12 note=74 velocity=62 time=1
note_on channel=9 note=44 velocity=0 time=3
note_on channel=9 note=35 velocity=108 time=0
note_on channel=9 note=44 velocity=100 time=0
note_on channel=4 note=38 velocity=112 time=4
note_on channel=13 note=78 velocity=0 time=13
note_on channel=13 note=76 velocity=124 time=4
note_on channel=12 note=73 velocity=81 time=5
note_on channel=4 note=38 velocity=0 time=3
note_on channel=12 note=74 velocity=0 time=2
note_on channel=9 note=35 velocity=0 time=14
note_on channel=13 note=76 velocity=0 time=0
note_on channel=13 note=74 velocity=105 time=0
note_on channel=10 note=71 velocity=127 time=5
note_on channel=12 note=71 velocity=61 time=2
note_on channel=12 note=73 velocity=0 time=2
note_on channel=10 note=50 velocity=0 time=0
note_on channel=2 note=67 velocity=90 time=2
note_on channel=5 note=59 velocity=124 time=0
note_on channel=9 note=44 velocity=0 time=4
note_on channel=2 note=79 velocity=127 time=0
note_on channel=9 note=33 velocity=108 time=0
note_on channel=9 note=44 velocity=100 time=0
note_on channel=10 note=59 velocity=55 time=0
note_on channel=11 note=67 velocity=127 time=0
note_on channel=14 note=67 velocity=127 time=0
note_on channel=4 note=31 velocity=119 time=7
note_on channel=9 note=33 velocity=0 time=38
note_on channel=9 note=44 velocity=0 time=15
note_on channel=9 note=44 velocity=100 time=0
note_on channel=5 note=59 velocity=0 time=8
note_on channel=10 note=71 velocity=0 time=12
note_on channel=14 note=67 velocity=0 time=4
note_on channel=11 note=67 velocity=0 time=0
note_on channel=2 note=79 velocity=0 time=0
note_on channel=2 note=67 velocity=0 time=1
note_on channel=4 note=31 velocity=0 time=12
note_on channel=13 note=74 velocity=0 time=13
note_on channel=10 note=55 velocity=48 time=1
note_on channel=2 note=81 velocity=112 time=2
note_on channel=10 note=69 velocity=127 time=0
note_on channel=10 note=59 velocity=0 time=1
note_on channel=13 note=76 velocity=119 time=2
note_on channel=5 note=57 velocity=92 time=2
note_on channel=10 note=71 velocity=97 time=1
note_on channel=9 note=44 velocity=0 time=1
note_on channel=2 note=79 velocity=112 time=0
note_on channel=2 note=69 velocity=66 time=0
note_on channel=9 note=46 velocity=108 time=0
note_on channel=9 note=45 velocity=100 time=0
note_on channel=11 note=69 velocity=112 time=0
note_on channel=12 note=73 velocity=59 time=0
note_on channel=14 note=67 velocity=112 time=0
note_on channel=14 note=69 velocity=112 time=0
note_on channel=12 note=71 velocity=0 time=3
note_on channel=4 note=33 velocity=115 time=2
note_on channel=10 note=71 velocity=0 time=12
note_on channel=9 note=46 velocity=0 time=28
note_on channel=9 note=45 velocity=0 time=15
note_on channel=9 note=44 velocity=100 time=0
note_on channel=5 note=57 velocity=0 time=9
note_on channel=4 note=33 velocity=0 time=6
note_on channel=2 note=81 velocity=0 time=1
note_on channel=14 note=67 velocity=0 time=7
note_on channel=10 note=69 velocity=0 time=0
note_on channel=2 note=79 velocity=0 time=0
note_on channel=14 note=69 velocity=0 time=0
note_on channel=11 note=69 velocity=0 time=0
note_on channel=10 note=55 velocity=0 time=20
note_on channel=2 note=69 velocity=0 time=5
note_on channel=5 note=62 velocity=102 time=3
note_on channel=10 note=74 velocity=127 time=3
note_on channel=2 note=74 velocity=105 time=1
note_on channel=2 note=86 velocity=127 time=3
note_on channel=9 note=44 velocity=0 time=2
note_on channel=9 note=36 velocity=108 time=0
note_on channel=9 note=44 velocity=100 time=0
note_on channel=9 note=49 velocity=127 time=0
note_on channel=10 note=50 velocity=52 time=0
note_on channel=11 note=74 velocity=112 time=0
note_on channel=14 note=74 velocity=112 time=0
note_on channel=4 note=38 velocity=105 time=3
note_on channel=9 note=49 velocity=75 time=3
note_on channel=12 note=73 velocity=0 time=6
note_on channel=13 note=76 velocity=0 time=4
note_on channel=9 note=49 velocity=0 time=7
note_on channel=9 note=49 velocity=0 time=11
note_on channel=9 note=36 velocity=0 time=11
note_on channel=9 note=44 velocity=0 time=15
note_on channel=9 note=44 velocity=100 time=0
note_on channel=5 note=62 velocity=0 time=3
note_on channel=2 note=74 velocity=0 time=2
note_on channel=13 note=74 velocity=115 time=2
note_on channel=2 note=86 velocity=0 time=2
note_on channel=12 note=74 velocity=65 time=7
note_on channel=11 note=74 velocity=0 time=7
note_on channel=14 note=74 velocity=0 time=0
note_on channel=13 note=74 velocity=0 time=5
note_on channel=10 note=74 velocity=0 time=0
note_on channel=9 note=40 velocity=108 time=2
note_on channel=12 note=74 velocity=0 time=5
note_on channel=13 note=74 velocity=72 time=6
note_on channel=12 note=74 velocity=59 time=11
note_on channel=9 note=44 velocity=0 time=8
note_on channel=9 note=44 velocity=100 time=0
note_on channel=13 note=74 velocity=0 time=12
note_on channel=4 note=38 velocity=0 time=0
note_on channel=9 note=40 velocity=0 time=3
note_on channel=12 note=74 velocity=0 time=4
note_on channel=13 note=76 velocity=94 time=26
note_on channel=12 note=74 velocity=66 time=7
note_on channel=9 note=44 velocity=0 time=8
note_on channel=9 note=35 velocity=108 time=0
note_on channel=9 note=44 velocity=100 time=0
note_on channel=4 note=38 velocity=119 time=1
note_on channel=12 note=74 velocity=0 time=13
note_on channel=13 note=76 velocity=0 time=5
note_on channel=4 note=38 velocity=0 time=8
note_on channel=9 note=35 velocity=0 time=18
note_on channel=13 note=78 velocity=102 time=8
note_on channel=9 note=44 velocity=0 time=7
note_on channel=4 note=38 velocity=115 time=0
note_on channel=9 note=35 velocity=108 time=0
note_on channel=9 note=44 velocity=100 time=0
note_on channel=12 note=74 velocity=94 time=4
note_on channel=9 note=35 velocity=0 time=41
note_on channel=9 note=44 velocity=0 time=15
note_on channel=9 note=44 velocity=100 time=0
note_on channel=13 note=78 velocity=0 time=9
note_on channel=12 note=74 velocity=0 time=6
note_on channel=13 note=81 velocity=81 time=14
note_on channel=12 note=74 velocity=55 time=13
note_on channel=9 note=44 velocity=0 time=18
note_on channel=9 note=40 velocity=108 time=0
note_on channel=9 note=44 velocity=100 time=0
note_on channel=12 note=74 velocity=0 time=11
note_on channel=13 note=81 velocity=0 time=12
note_on channel=4 note=38 velocity=0 time=4
note_on channel=9 note=40 velocity=0 time=18
note_on channel=9 note=44 velocity=0 time=15
note_on channel=9 note=44 velocity=100 time=0
note_on channel=12 note=74 velocity=84 time=0
note_on channel=13 note=84 velocity=105 time=7
note_on channel=4 note=38 velocity=119 time=4
note_on channel=9 note=44 velocity=0 time=49
note_on channel=9 note=35 velocity=108 time=0
note_on channel=9 note=44 velocity=100 time=0
note_on channel=9 note=35 velocity=0 time=45
note_on channel=9 note=44 velocity=0 time=15
note_on channel=9 note=44 velocity=100 time=0
note_on channel=9 note=40 velocity=108 time=30
note_on channel=9 note=44 velocity=0 time=30
note_on channel=9 note=44 velocity=100 time=0
note_on channel=9 note=40 velocity=0 time=15
note_on channel=4 note=38 velocity=0 time=6
note_on channel=12 note=74 velocity=0 time=36
note_on channel=12 note=79 velocity=38 time=2
note_on channel=9 note=44 velocity=0 time=1
note_on channel=9 note=35 velocity=108 time=0
note_on channel=9 note=44 velocity=100 time=0
note_on channel=4 note=38 velocity=94 time=4
note_on channel=13 note=84 velocity=0 time=1
note_on channel=13 note=83 velocity=105 time=1
note_on channel=12 note=78 velocity=60 time=15
note_on channel=13 note=83 velocity=0 time=6
note_on channel=4 note=38 velocity=0 time=5
note_on channel=13 note=81 velocity=108 time=0
note_on channel=12 note=79 velocity=0 time=3
note_on channel=10 note=50 velocity=0 time=6
note_on channel=9 note=35 velocity=0 time=4
note_on channel=10 note=55 velocity=47 time=5
note_on channel=10 note=67 velocity=127 time=3
note_on channel=13 note=79 velocity=102 time=0
note_on channel=2 note=84 velocity=108 time=1
note_on channel=13 note=81 velocity=0 time=1
note_on channel=2 note=72 velocity=127 time=0
note_on channel=12 note=76 velocity=70 time=1
note_on channel=12 note=77 velocity=53 time=2
note_on channel=9 note=44 velocity=0 time=2
note_on channel=5 note=55 velocity=115 time=0
note_on channel=9 note=33 velocity=108 time=0
note_on channel=9 note=44 velocity=100 time=0
note_on channel=11 note=60 velocity=108 time=0
note_on channel=14 note=72 velocity=108 time=0
note_on channel=12 note=78 velocity=0 time=2
note_on channel=4 note=36 velocity=83 time=2
note_on channel=12 note=77 velocity=0 time=6
note_on channel=9 note=33 velocity=0 time=35
note_on channel=4 note=36 velocity=0 time=0
note_on channel=9 note=44 velocity=0 time=15
note_on channel=9 note=44 velocity=100 time=0
note_on channel=5 note=55 velocity=0 time=13
note_on channel=10 note=67 velocity=0 time=9
note_on channel=2 note=84 velocity=0 time=9
note_on channel=2 note=72 velocity=0 time=6
note_on channel=11 note=60 velocity=0 time=0
note_on channel=14 note=72 velocity=0 time=0
note_on channel=5 note=57 velocity=94 time=13
note_on channel=10 note=55 velocity=0 time=1
note_on channel=10 note=57 velocity=61 time=2
note_on channel=12 note=76 velocity=0 time=2
note_on channel=12 note=74 velocity=52 time=1
note_on channel=10 note=69 velocity=127 time=1
note_on channel=13 note=81 velocity=94 time=2
note_on channel=9 note=44 velocity=0 time=1
note_on channel=2 note=67 velocity=127 time=0
note_on channel=2 note=69 velocity=127 time=0
note_on channel=2 note=81 velocity=127 time=0
note_on channel=4 note=31 velocity=127 time=0
note_on channel=9 note=45 velocity=108 time=0
note_on channel=9 note=44 velocity=100 time=0
note_on channel=11 note=57 velocity=127 time=0
note_on channel=14 note=79 velocity=127 time=0
note_on channel=14 note=69 velocity=127 time=0
note_on channel=13 note=79 velocity=0 time=3
note_on channel=9 note=45 velocity=0 time=42
note_on channel=9 note=44 velocity=0 time=15
note_on channel=9 note=44 velocity=100 time=0
note_on channel=4 note=31 velocity=0 time=18
note_on channel=2 note=81 velocity=0 time=1
note_on channel=2 note=67 velocity=0 time=0
note_on channel=14 note=79 velocity=0 time=0
note_on channel=10 note=69 velocity=0 time=4
note_on channel=2 note=69 velocity=0 time=5
note_on channel=11 note=57 velocity=0 time=0
note_on channel=14 note=69 velocity=0 time=0
note_on channel=5 note=57 velocity=0 time=1
note_on channel=10 note=57 velocity=0 time=22
note_on channel=2 note=74 velocity=127 time=3
note_on channel=2 note=86 velocity=115 time=1
note_on channel=10 note=50 velocity=52 time=0
note_on channel=10 note=74 velocity=127 time=0
note_on channel=5 note=62 velocity=127 time=3
note_on channel=9 note=44 velocity=0 time=2
note_on channel=4 note=38 velocity=97 time=0
note_on channel=9 note=36 velocity=127 time=0
note_on channel=9 note=44 velocity=100 time=0
note_on channel=11 note=62 velocity=127 time=0
note_on channel=14 note=74 velocity=127 time=0
note_on channel=9 note=49 velocity=127 time=7
note_on channel=13 note=81 velocity=0 time=14
note_on channel=12 note=74 velocity=0 time=1
note_on channel=9 note=36 velocity=0 time=19
note_on channel=9 note=49 velocity=0 time=2
note_on channel=9 note=44 velocity=0 time=17
note_on channel=9 note=44 velocity=100 time=0
note_on channel=2 note=86 velocity=0 time=10
note_on channel=13 note=74 velocity=105 time=2
note_on channel=12 note=74 velocity=62 time=1
note_on channel=5 note=62 velocity=0 time=1
note_on channel=2 note=74 velocity=0 time=0
note_on channel=14 note=74 velocity=0 time=14
note_on channel=11 note=62 velocity=0 time=0
note_on channel=9 note=40 velocity=108 time=2
note_on channel=10 note=74 velocity=0 time=2
note_on channel=13 note=74 velocity=0 time=4
note_on channel=12 note=74 velocity=0 time=0
note_on channel=13 note=74 velocity=53 time=10
note_on channel=12 note=74 velocity=65 time=4
note_on channel=9 note=44 velocity=0 time=10
note_on channel=9 note=44 velocity=100 time=0
note_on channel=9 note=40 velocity=0 time=15
note_on channel=4 note=38 velocity=0 time=1
note_on channel=13 note=74 velocity=0 time=4
note_on channel=12 note=74 velocity=0 time=5
note_on channel=13 note=76 velocity=94 time=24
note_on channel=12 note=74 velocity=58 time=8
note_on channel=9 note=44 velocity=0 time=3
note_on channel=9 note=35 velocity=108 time=0
note_on channel=9 note=44 velocity=100 time=0
note_on channel=4 note=38 velocity=78 time=5
note_on channel=13 note=76 velocity=0 time=18
note_on channel=12 note=74 velocity=0 time=3
note_on channel=4 note=38 velocity=0 time=4
note_on channel=9 note=35 velocity=0 time=15
note_on channel=13 note=78 velocity=88 time=8
note_on channel=9 note=44 velocity=0 time=7
note_on channel=4 note=38 velocity=102 time=0
note_on channel=9 note=35 velocity=108 time=0
note_on channel=9 note=44 velocity=100 time=0
note_on channel=12 note=74 velocity=61 time=0
note_on channel=9 note=35 velocity=0 time=45
note_on channel=9 note=44 velocity=0 time=15
note_on channel=9 note=44 velocity=100 time=0
note_on channel=12 note=74 velocity=0 time=9
note_on channel=13 note=78 velocity=0 time=4
note_on channel=13 note=81 velocity=81 time=13
note_on channel=12 note=74 velocity=61 time=12
note_on channel=9 note=44 velocity=0 time=22
note_on channel=9 note=40 velocity=108 time=0
note_on channel=9 note=44 velocity=100 time=0
note_on channel=4 note=38 velocity=0 time=5
note_on channel=12 note=74 velocity=0 time=5
note_on channel=13 note=81 velocity=0 time=17
note_on channel=9 note=40 velocity=0 time=18
note_on channel=12 note=74 velocity=56 time=7
note_on channel=9 note=44 velocity=0 time=8
note_on channel=4 note=38 velocity=112 time=0
note_on channel=9 note=44 velocity=100 time=0
note_on channel=13 note=78 velocity=86 time=0
note_on channel=10 note=50 velocity=0 time=9
note_on channel=13 note=78 velocity=0 time=19
note_on channel=4 note=38 velocity=0 time=2
note_on channel=12 note=74 velocity=0 time=5
note_on channel=2 note=67 velocity=68 time=23
note_on channel=9 note=44 velocity=0 time=2
note_on channel=4 note=31 velocity=127 time=0
note_on channel=9 note=49 velocity=100 time=0
note_on channel=9 note=35 velocity=108 time=0
note_on channel=9 note=44 velocity=100 time=0
note_on channel=11 note=67 velocity=115 time=0
note_on channel=12 note=79 velocity=58 time=0
note_on channel=14 note=67 velocity=115 time=0
note_on channel=2 note=79 velocity=115 time=3
note_on channel=10 note=71 velocity=105 time=5
note_on channel=13 note=83 velocity=66 time=0
note_on channel=9 note=35 velocity=0 time=37
note_on channel=9 note=49 velocity=0 time=15
note_on channel=13 note=83 velocity=0 time=0
note_on channel=9 note=44 velocity=0 time=0
note_on channel=4 note=31 velocity=0 time=6
note_on channel=10 note=71 velocity=0 time=14
note_on channel=2 note=67 velocity=0 time=1
note_on channel=11 note=67 velocity=0 time=6
note_on channel=14 note=67 velocity=0 time=0
note_on channel=2 note=79 velocity=0 time=3
note_on channel=2 note=78 velocity=127 time=0
note_on channel=9 note=49 velocity=108 time=0
note_on channel=9 note=40 velocity=108 time=0
note_on channel=10 note=73 velocity=102 time=0
note_on channel=11 note=66 velocity=127 time=0
note_on channel=14 note=66 velocity=127 time=0
note_on channel=12 note=79 velocity=0 time=3
note_on channel=2 note=66 velocity=55 time=0
note_on channel=12 note=78 velocity=43 time=0
note_on channel=13 note=85 velocity=102 time=3
note_on channel=4 note=30 velocity=127 time=3
note_on channel=9 note=40 velocity=0 time=36
note_on channel=9 note=49 velocity=0 time=0
note_on channel=4 note=30 velocity=0 time=13
note_on channel=2 note=78 velocity=0 time=0
note_on channel=14 note=66 velocity=0 time=0
note_on channel=11 note=66 velocity=0 time=0
note_on channel=2 note=66 velocity=0 time=9
note_on channel=13 note=85 velocity=0 time=1
note_on channel=10 note=73 velocity=0 time=12
note_on channel=2 note=64 velocity=99 time=7
note_on channel=4 note=28 velocity=127 time=0
note_on channel=2 note=76 velocity=127 time=1
note_on channel=9 note=49 velocity=108 time=2
note_on channel=9 note=35 velocity=108 time=0
note_on channel=11 note=64 velocity=127 time=0
note_on channel=14 note=64 velocity=127 time=0
note_on channel=10 note=74 velocity=97 time=3
note_on channel=12 note=78 velocity=0 time=2
note_on channel=12 note=76 velocity=63 time=0
note_on channel=13 note=86 velocity=99 time=0
note_on channel=9 note=49 velocity=0 time=40
note_on channel=9 note=35 velocity=0 time=0
note_on channel=9 note=38 velocity=127 time=129
note_on channel=9 note=36 velocity=127 time=0
note_on channel=4 note=28 velocity=0 time=59
note_on channel=2 note=73 velocity=127 time=17
note_on channel=11 note=73 velocity=115 time=0
note_on channel=5 note=73 velocity=124 time=4
note_on channel=14 note=73 velocity=119 time=1
note_on channel=2 note=64 velocity=0 time=2
note_on channel=10 note=74 velocity=0 time=2
note_on channel=2 note=76 velocity=0 time=0
note_on channel=14 note=64 velocity=0 time=2
note_on channel=11 note=64 velocity=0 time=0
note_on channel=13 note=86 velocity=0 time=8
note_on channel=5 note=74 velocity=127 time=4
note_on channel=11 note=74 velocity=127 time=0
note_on channel=2 note=73 velocity=0 time=2
note_on channel=12 note=76 velocity=0 time=0
note_on channel=2 note=74 velocity=102 time=1
note_on channel=14 note=74 velocity=127 time=0
note_on channel=11 note=73 velocity=0 time=2
note_on channel=14 note=76 velocity=112 time=1
note_on channel=5 note=73 velocity=0 time=2
note_on channel=14 note=73 velocity=0 time=2
note_on channel=2 note=76 velocity=127 time=3
note_on channel=14 note=76 velocity=0 time=1
note_on channel=9 note=38 velocity=0 time=0
note_on channel=9 note=36 velocity=0 time=4
note_on channel=11 note=76 velocity=102 time=2
note_on channel=2 note=74 velocity=0 time=4
note_on channel=11 note=74 velocity=0 time=2
note_on channel=2 note=70 velocity=119 time=0
note_on channel=2 note=82 velocity=124 time=0
note_on channel=5 note=76 velocity=119 time=0
note_on channel=4 note=34 velocity=127 time=2
note_on channel=14 note=76 velocity=127 time=0
note_on channel=5 note=74 velocity=0 time=3
note_on channel=9 note=38 velocity=127 time=2
note_on channel=14 note=74 velocity=0 time=2
note_on channel=2 note=76 velocity=0 time=95
note_on channel=5 note=76 velocity=0 time=8
note_on channel=11 note=76 velocity=0 time=0
note_on channel=14 note=76 velocity=0 time=4
note_on channel=11 note=73 velocity=127 time=1
note_on channel=5 note=73 velocity=127 time=2
note_on channel=14 note=73 velocity=127 time=1
note_on channel=2 note=73 velocity=127 time=1
note_on channel=4 note=34 velocity=0 time=79
note_on channel=2 note=73 velocity=0 time=22
note_on channel=9 note=38 velocity=0 time=0
note_on channel=11 note=73 velocity=0 time=13
note_on channel=2 note=82 velocity=0 time=0
note_on channel=5 note=78 velocity=127 time=0
note_on channel=2 note=81 velocity=90 time=1
note_on channel=2 note=70 velocity=0 time=3
note_on channel=11 note=78 velocity=127 time=0
note_on channel=5 note=73 velocity=0 time=1
note_on channel=2 note=78 velocity=127 time=0
note_on channel=2 note=69 velocity=83 time=0
note_on channel=4 note=33 velocity=127 time=1
note_on channel=14 note=78 velocity=127 time=1
note_on channel=9 note=36 velocity=127 time=4
note_on channel=14 note=73 velocity=0 time=1
note_on channel=9 note=49 velocity=127 time=0
note_on channel=5 note=78 velocity=0 time=163
note_on channel=2 note=78 velocity=0 time=2
note_on channel=9 note=49 velocity=0 time=6
note_on channel=11 note=78 velocity=0 time=3
note_on channel=14 note=78 velocity=0 time=4
note_on channel=5 note=76 velocity=97 time=2
note_on channel=9 note=36 velocity=0 time=1
note_on channel=2 note=76 velocity=74 time=2
note_on channel=11 note=76 velocity=88 time=3
note_on channel=14 note=76 velocity=112 time=5
note_on channel=5 note=78 velocity=81 time=9
note_on channel=2 note=78 velocity=124 time=5
note_on channel=11 note=78 velocity=99 time=5
note_on channel=5 note=76 velocity=0 time=4
note_on channel=4 note=33 velocity=0 time=0
note_on channel=14 note=78 velocity=119 time=0
note_on channel=2 note=76 velocity=0 time=2
note_on channel=11 note=76 velocity=0 time=2
note_on channel=2 note=69 velocity=0 time=6
note_on channel=14 note=76 velocity=0 time=1
note_on channel=5 note=79 velocity=124 time=0
note_on channel=2 note=81 velocity=0 time=6
note_on channel=2 note=79 velocity=124 time=0
note_on channel=2 note=70 velocity=67 time=0
note_on channel=2 note=82 velocity=108 time=2
<meta message time_signature numerator=2 denominator=4 clocks_per_click=24 notated_32nd_notes_per_beat=8 time=1>
note_on channel=5 note=78 velocity=0 time=0
note_on channel=11 note=79 velocity=127 time=1
note_on channel=9 note=38 velocity=127 time=2
note_on channel=2 note=78 velocity=0 time=3
note_on channel=9 note=49 velocity=127 time=0
note_on channel=14 note=79 velocity=127 time=0
note_on channel=11 note=78 velocity=0 time=3
note_on channel=4 note=34 velocity=127 time=0
note_on channel=14 note=78 velocity=0 time=8
note_on channel=9 note=49 velocity=0 time=43
note_on channel=9 note=38 velocity=0 time=3
note_on channel=4 note=34 velocity=0 time=36
note_on channel=11 note=79 velocity=0 time=5
note_on channel=14 note=79 velocity=0 time=7
note_on channel=2 note=79 velocity=0 time=1
note_on channel=11 note=81 velocity=119 time=0
note_on channel=5 note=81 velocity=127 time=2
note_on channel=5 note=79 velocity=0 time=2
note_on channel=14 note=81 velocity=127 time=1
note_on channel=9 note=36 velocity=127 time=1
note_on channel=9 note=49 velocity=127 time=2
note_on channel=2 note=81 velocity=127 time=2
note_on channel=2 note=70 velocity=0 time=9
note_on channel=4 note=33 velocity=90 time=1
note_on channel=2 note=82 velocity=0 time=1
note_on channel=2 note=69 velocity=92 time=2
note_on channel=2 note=81 velocity=127 time=1
note_on channel=9 note=49 velocity=0 time=22
note_on channel=9 note=36 velocity=0 time=4
note_on channel=14 note=81 velocity=0 time=43
note_on channel=2 note=81 velocity=0 time=3
note_on channel=5 note=81 velocity=0 time=3
note_on channel=4 note=33 velocity=0 time=1
note_on channel=11 note=81 velocity=0 time=6
note_on channel=2 note=81 velocity=0 time=6
note_on channel=2 note=69 velocity=0 time=0
note_on channel=7 note=98 velocity=127 time=3
note_on channel=15 note=50 velocity=127 time=3
note_on channel=4 note=38 velocity=127 time=6
note_on channel=10 note=74 velocity=119 time=2
<meta message time_signature numerator=4 denominator=4 clocks_per_click=24 notated_32nd_notes_per_beat=8 time=2>
note_on channel=5 note=86 velocity=40 time=0
note_on channel=9 note=36 velocity=127 time=0
note_on channel=9 note=49 velocity=127 time=0
note_on channel=9 note=51 velocity=102 time=6
note_on channel=9 note=51 velocity=0 time=3
note_on channel=4 note=38 velocity=127 time=2
note_on channel=10 note=86 velocity=97 time=1
note_on channel=10 note=74 velocity=0 time=6
note_on channel=15 note=50 velocity=0 time=5
note_on channel=10 note=86 velocity=0 time=9
note_on channel=15 note=50 velocity=79 time=4
note_on channel=10 note=74 velocity=70 time=6
note_on channel=15 note=50 velocity=0 time=13
note_on channel=10 note=86 velocity=61 time=0
note_on channel=10 note=74 velocity=0 time=8
note_on channel=10 note=86 velocity=0 time=16
note_on channel=2 note=62 velocity=119 time=0
note_on channel=2 note=64 velocity=105 time=1
note_on channel=14 note=62 velocity=119 time=1
note_on channel=11 note=62 velocity=127 time=3
note_on channel=10 note=74 velocity=68 time=3
note_on channel=2 note=64 velocity=0 time=3
note_on channel=15 note=50 velocity=34 time=3
note_on channel=2 note=62 velocity=0 time=3
note_on channel=11 note=62 velocity=0 time=2
note_on channel=14 note=62 velocity=0 time=2
note_on channel=15 note=50 velocity=0 time=0
note_on channel=10 note=86 velocity=72 time=6
note_on channel=10 note=74 velocity=0 time=3
note_on channel=2 note=62 velocity=105 time=1
note_on channel=14 note=62 velocity=73 time=1
note_on channel=11 note=62 velocity=99 time=2
note_on channel=10 note=86 velocity=0 time=12
note_on channel=10 note=74 velocity=61 time=4
note_on channel=14 note=62 velocity=0 time=7
note_on channel=2 note=62 velocity=0 time=2
note_on channel=11 note=62 velocity=0 time=0
note_on channel=10 note=86 velocity=56 time=12
note_on channel=10 note=74 velocity=0 time=3
note_on channel=10 note=86 velocity=0 time=14
note_on channel=4 note=38 velocity=0 time=2
note_on channel=14 note=64 velocity=127 time=2
note_on channel=10 note=74 velocity=53 time=1
note_on channel=11 note=64 velocity=127 time=0
note_on channel=2 note=64 velocity=127 time=5
note_on channel=10 note=74 velocity=0 time=16
note_on channel=14 note=64 velocity=0 time=1
note_on channel=15 note=50 velocity=31 time=0
note_on channel=11 note=64 velocity=0 time=1
note_on channel=10 note=86 velocity=70 time=1
note_on channel=15 note=50 velocity=0 time=4
note_on channel=2 note=64 velocity=0 time=2
note_on channel=10 note=86 velocity=0 time=10
note_on channel=10 note=74 velocity=67 time=6
note_on channel=11 note=64 velocity=127 time=6
note_on channel=15 note=50 velocity=29 time=2
note_on channel=14 note=64 velocity=127 time=3
note_on channel=10 note=74 velocity=0 time=9
note_on channel=2 note=64 velocity=127 time=0
note_on channel=10 note=86 velocity=78 time=3
note_on channel=15 note=50 velocity=0 time=7
note_on channel=10 note=86 velocity=0 time=11
note_on channel=10 note=74 velocity=59 time=1
note_on channel=15 note=50 velocity=32 time=12
note_on channel=10 note=74 velocity=0 time=7
note_on channel=10 note=86 velocity=73 time=5
note_on channel=11 note=64 velocity=0 time=6
note_on channel=15 note=50 velocity=0 time=6
note_on channel=14 note=64 velocity=0 time=5
note_on channel=10 note=86 velocity=0 time=2
note_on channel=2 note=64 velocity=0 time=1
note_on channel=10 note=74 velocity=64 time=2
note_on channel=11 note=66 velocity=127 time=6
note_on channel=15 note=50 velocity=42 time=3
note_on channel=14 note=66 velocity=127 time=4
note_on channel=2 note=66 velocity=127 time=2
note_on channel=10 note=74 velocity=0 time=7
note_on channel=10 note=86 velocity=74 time=3
note_on channel=10 note=86 velocity=0 time=15
note_on channel=15 note=50 velocity=0 time=2
note_on channel=10 note=74 velocity=66 time=3
note_on channel=15 note=50 velocity=42 time=13
note_on channel=10 note=74 velocity=0 time=7
note_on channel=10 note=86 velocity=79 time=3
note_on channel=11 note=66 velocity=0 time=2
note_on channel=14 note=66 velocity=0 time=1
note_on channel=2 note=66 velocity=0 time=11
note_on channel=10 note=86 velocity=0 time=4
note_on channel=15 note=50 velocity=0 time=2
note_on channel=10 note=74 velocity=57 time=2
note_on channel=15 note=50 velocity=39 time=17
note_on channel=10 note=74 velocity=0 time=3
note_on channel=10 note=86 velocity=66 time=2
note_on channel=11 note=62 velocity=127 time=11
note_on channel=14 note=62 velocity=108 time=0
note_on channel=10 note=86 velocity=0 time=7
note_on channel=15 note=50 velocity=0 time=1
note_on channel=2 note=62 velocity=124 time=3
note_on channel=10 note=74 velocity=63 time=3
note_on channel=11 note=62 velocity=0 time=5
note_on channel=14 note=62 velocity=0 time=1
note_on channel=2 note=62 velocity=0 time=10
note_on channel=11 note=62 velocity=105 time=1
note_on channel=10 note=74 velocity=0 time=2
note_on channel=14 note=62 velocity=74 time=0
note_on channel=10 note=86 velocity=72 time=2
note_on channel=2 note=62 velocity=75 time=5
note_on channel=10 note=86 velocity=0 time=15
note_on channel=11 note=62 velocity=0 time=2
note_on channel=14 note=62 velocity=0 time=4
note_on channel=10 note=74 velocity=45 time=0
note_on channel=2 note=62 velocity=0 time=9
note_on channel=10 note=74 velocity=0 time=3
note_on channel=10 note=86 velocity=66 time=6
note_on channel=14 note=64 velocity=127 time=14
note_on channel=10 note=86 velocity=0 time=4
note_on channel=10 note=74 velocity=55 time=1
note_on channel=11 note=64 velocity=127 time=0
note_on channel=2 note=64 velocity=127 time=2
note_on channel=10 note=74 velocity=0 time=16
note_on channel=14 note=64 velocity=0 time=4
note_on channel=11 note=64 velocity=0 time=1
note_on channel=10 note=86 velocity=64 time=2
note_on channel=9 note=49 velocity=0 time=5
note_on channel=9 note=36 velocity=0 time=2
note_on channel=2 note=64 velocity=0 time=3
note_on channel=10 note=86 velocity=0 time=6
note_on channel=10 note=74 velocity=42 time=7
note_on channel=14 note=66 velocity=127 time=7
note_on channel=11 note=66 velocity=127 time=2
note_on channel=4 note=38 velocity=0 time=3
note_on channel=10 note=74 velocity=0 time=1
note_on channel=2 note=66 velocity=127 time=3
note_on channel=15 note=43 velocity=127 time=1
note_on channel=10 note=86 velocity=57 time=3
note_on channel=4 note=31 velocity=127 time=1
note_on channel=9 note=36 velocity=127 time=4
note_on channel=9 note=49 velocity=127 time=0
note_on channel=15 note=43 velocity=0 time=9
note_on channel=10 note=86 velocity=0 time=3
note_on channel=15 note=43 velocity=99 time=1
note_on channel=10 note=74 velocity=79 time=11
note_on channel=15 note=43 velocity=0 time=4
note_on channel=15 note=43 velocity=102 time=12
note_on channel=10 note=86 velocity=61 time=1
note_on channel=10 note=74 velocity=0 time=1
note_on channel=2 note=66 velocity=0 time=12
note_on channel=11 note=66 velocity=0 time=2
note_on channel=15 note=43 velocity=0 time=1
note_on channel=10 note=86 velocity=0 time=0
note_on channel=14 note=66 velocity=0 time=4
note_on channel=15 note=43 velocity=86 time=1
note_on channel=10 note=74 velocity=94 time=8
note_on channel=11 note=69 velocity=127 time=0
note_on channel=2 note=69 velocity=119 time=3
note_on channel=14 note=69 velocity=124 time=2
note_on channel=15 note=43 velocity=0 time=4
note_on channel=10 note=74 velocity=0 time=1
note_on channel=15 note=43 velocity=84 time=10
note_on channel=15 note=43 velocity=0 time=16
note_on channel=15 note=43 velocity=81 time=8
note_on channel=15 note=43 velocity=0 time=13
note_on channel=11 note=69 velocity=0 time=4
note_on channel=2 note=69 velocity=0 time=2
note_on channel=15 note=43 velocity=72 time=10
note_on channel=14 note=69 velocity=0 time=2
note_on channel=15 note=43 velocity=0 time=11
note_on channel=5 note=86 velocity=0 time=6
note_on channel=15 note=43 velocity=88 time=3
note_on channel=9 note=49 velocity=0 time=7
note_on channel=7 note=98 velocity=0 time=1
note_on channel=9 note=36 velocity=0 time=4
note_on channel=15 note=43 velocity=0 time=3
note_on channel=5 note=88 velocity=48 time=0
note_on channel=10 note=64 velocity=110 time=0
note_on channel=10 note=76 velocity=75 time=0
note_on channel=7 note=88 velocity=119 time=3
note_on channel=15 note=43 velocity=78 time=9
note_on channel=10 note=76 velocity=0 time=3
note_on channel=10 note=64 velocity=0 time=5
note_on channel=15 note=43 velocity=0 time=8
note_on channel=10 note=74 velocity=127 time=1
note_on channel=5 note=86 velocity=75 time=1
note_on channel=7 note=88 velocity=0 time=2
note_on channel=10 note=62 velocity=127 time=0
note_on channel=5 note=88 velocity=0 time=2
note_on channel=7 note=86 velocity=94 time=0
note_on channel=15 note=43 velocity=90 time=0
note_on channel=10 note=74 velocity=0 time=11
note_on channel=10 note=62 velocity=0 time=1
note_on channel=15 note=43 velocity=0 time=3
note_on channel=5 note=86 velocity=0 time=5
note_on channel=7 note=81 velocity=66 time=0
note_on channel=7 note=86 velocity=0 time=4
note_on channel=5 note=81 velocity=63 time=2
note_on channel=10 note=57 velocity=117 time=0
note_on channel=10 note=69 velocity=97 time=3
note_on channel=15 note=43 velocity=78 time=0
note_on channel=10 note=57 velocity=0 time=12
note_on channel=15 note=43 velocity=0 time=3
note_on channel=10 note=69 velocity=0 time=5
note_on channel=15 note=43 velocity=94 time=0
note_on channel=7 note=86 velocity=83 time=4
note_on channel=5 note=86 velocity=36 time=3
note_on channel=10 note=62 velocity=105 time=3
note_on channel=10 note=74 velocity=90 time=2
note_on channel=5 note=81 velocity=0 time=3
note_on channel=7 note=88 velocity=90 time=1
note_on channel=15 note=43 velocity=0 time=1
note_on channel=7 note=81 velocity=0 time=0
note_on channel=10 note=62 velocity=0 time=7
note_on channel=7 note=86 velocity=0 time=6
note_on channel=5 note=86 velocity=0 time=0
note_on channel=15 note=43 velocity=77 time=0
note_on channel=10 note=74 velocity=0 time=2
note_on channel=5 note=88 velocity=67 time=5
note_on channel=10 note=64 velocity=112 time=2
note_on channel=10 note=76 velocity=54 time=5
note_on channel=15 note=43 velocity=0 time=1
note_on channel=7 note=88 velocity=0 time=10
note_on channel=10 note=64 velocity=0 time=1
note_on channel=7 note=93 velocity=127 time=2
note_on channel=5 note=88 velocity=0 time=5
note_on channel=10 note=76 velocity=0 time=0
note_on channel=10 note=69 velocity=127 time=2
note_on channel=5 note=93 velocity=79 time=2
note_on channel=15 note=43 velocity=99 time=1
note_on channel=10 note=81 velocity=83 time=5
note_on channel=10 note=69 velocity=0 time=9
note_on channel=5 note=93 velocity=0 time=1
note_on channel=7 note=93 velocity=0 time=1
note_on channel=15 note=43 velocity=0 time=9
note_on channel=10 note=81 velocity=0 time=2
note_on channel=7 note=98 velocity=79 time=0
note_on channel=4 note=31 velocity=0 time=1
note_on channel=9 note=36 velocity=127 time=0
note_on channel=9 note=49 velocity=127 time=0
note_on channel=4 note=38 velocity=127 time=1
note_on channel=5 note=86 velocity=64 time=2
note_on channel=10 note=74 velocity=115 time=2
note_on channel=15 note=50 velocity=127 time=1
note_on channel=10 note=86 velocity=97 time=8
note_on channel=15 note=50 velocity=0 time=6
note_on channel=10 note=74 velocity=0 time=5
note_on channel=10 note=86 velocity=0 time=10
note_on channel=10 note=74 velocity=79 time=13
note_on channel=10 note=86 velocity=73 time=16
note_on channel=10 note=74 velocity=0 time=7
note_on channel=2 note=62 velocity=108 time=0
note_on channel=11 note=62 velocity=112 time=0
note_on channel=10 note=86 velocity=0 time=10
note_on channel=2 note=62 velocity=0 time=2
note_on channel=14 note=62 velocity=127 time=3
note_on channel=11 note=62 velocity=0 time=7
note_on channel=10 note=74 velocity=61 time=6
note_on channel=14 note=62 velocity=0 time=2
note_on channel=2 note=62 velocity=108 time=3
note_on channel=11 note=62 velocity=115 time=5
note_on channel=10 note=86 velocity=79 time=5
note_on channel=10 note=74 velocity=0 time=3
note_on channel=14 note=62 velocity=102 time=1
note_on channel=2 note=62 velocity=0 time=13
note_on channel=11 note=62 velocity=0 time=3
note_on channel=10 note=86 velocity=0 time=1
note_on channel=14 note=62 velocity=0 time=6
note_on channel=10 note=74 velocity=57 time=2
note_on channel=10 note=86 velocity=66 time=17
note_on channel=10 note=74 velocity=0 time=2
note_on channel=2 note=64 velocity=127 time=0
note_on channel=14 note=64 velocity=127 time=17
note_on channel=10 note=86 velocity=0 time=1
note_on channel=10 note=74 velocity=52 time=9
note_on channel=11 note=64 velocity=127 time=0
note_on channel=2 note=64 velocity=0 time=1
note_on channel=14 note=64 velocity=0 time=12
note_on channel=10 note=74 velocity=0 time=5
note_on channel=10 note=86 velocity=75 time=0
note_on channel=11 note=64 velocity=0 time=4
note_on channel=10 note=86 velocity=0 time=16
note_on channel=14 note=64 velocity=127 time=4
note_on channel=2 note=64 velocity=127 time=2
note_on channel=10 note=74 velocity=64 time=1
note_on channel=11 note=64 velocity=127 time=1
note_on channel=10 note=74 velocity=0 time=17
note_on channel=10 note=86 velocity=66 time=3
note_on channel=10 note=86 velocity=0 time=18
note_on channel=10 note=74 velocity=59 time=9
note_on channel=10 note=74 velocity=0 time=16
note_on channel=11 note=64 velocity=0 time=0
note_on channel=14 note=64 velocity=0 time=1
note_on channel=2 note=64 velocity=0 time=1
note_on channel=10 note=86 velocity=67 time=3
note_on channel=10 note=86 velocity=0 time=17
note_on channel=2 note=66 velocity=127 time=3
note_on channel=11 note=66 velocity=127 time=0
note_on channel=14 note=66 velocity=127 time=3
note_on channel=10 note=74 velocity=53 time=1
note_on channel=10 note=74 velocity=0 time=19
note_on channel=10 note=86 velocity=67 time=2
note_on channel=10 note=86 velocity=0 time=17
note_on channel=10 note=74 velocity=54 time=9
note_on channel=2 note=66 velocity=0 time=9
note_on channel=11 note=66 velocity=0 time=3
note_on channel=10 note=74 velocity=0 time=5
note_on channel=10 note=86 velocity=69 time=3
note_on channel=14 note=66 velocity=0 time=1
note_on channel=10 note=86 velocity=0 time=20
note_on channel=10 note=74 velocity=62 time=5
note_on channel=11 note=62 velocity=127 time=10
note_on channel=2 note=62 velocity=127 time=1
note_on channel=14 note=62 velocity=119 time=0
note_on channel=10 note=74 velocity=0 time=8
note_on channel=10 note=86 velocity=62 time=4
note_on channel=14 note=62 velocity=0 time=6
note_on channel=11 note=62 velocity=0 time=0
note_on channel=2 note=62 velocity=0 time=3
note_on channel=11 note=62 velocity=46 time=4
note_on channel=2 note=62 velocity=68 time=3
note_on channel=10 note=86 velocity=0 time=4
note_on channel=14 note=62 velocity=88 time=1
note_on channel=10 note=74 velocity=62 time=3
note_on channel=11 note=62 velocity=0 time=15
note_on channel=10 note=74 velocity=0 time=5
note_on channel=2 note=62 velocity=0 time=1
note_on channel=10 note=86 velocity=57 time=2
note_on channel=14 note=62 velocity=0 time=1
note_on channel=9 note=36 velocity=0 time=6
note_on channel=9 note=49 velocity=0 time=7
note_on channel=10 note=86 velocity=0 time=6
note_on channel=10 note=74 velocity=61 time=3
note_on channel=11 note=64 velocity=127 time=6
note_on channel=2 note=64 velocity=127 time=4
note_on channel=14 note=64 velocity=127 time=0
note_on channel=10 note=74 velocity=0 time=10
note_on channel=10 note=86 velocity=52 time=4
note_on channel=11 note=64 velocity=0 time=8
note_on channel=14 note=64 velocity=0 time=6
note_on channel=2 note=64 velocity=0 time=1
note_on channel=10 note=86 velocity=0 time=4
note_on channel=10 note=74 velocity=57 time=1
note_on channel=10 note=74 velocity=0 time=20
note_on channel=4 note=38 velocity=0 time=1
note_on channel=10 note=86 velocity=58 time=3
note_on channel=11 note=66 velocity=127 time=2
note_on channel=2 note=66 velocity=127 time=2
note_on channel=14 note=66 velocity=127 time=0
note_on channel=15 note=43 velocity=90 time=7
note_on channel=10 note=86 velocity=0 time=9
note_on channel=4 note=31 velocity=127 time=0
note_on channel=9 note=49 velocity=127 time=0
note_on channel=9 note=36 velocity=127 time=0
note_on channel=10 note=74 velocity=64 time=0
note_on channel=15 note=43 velocity=0 time=9
note_on channel=15 note=43 velocity=88 time=4
note_on channel=10 note=74 velocity=0 time=6
note_on channel=10 note=86 velocity=61 time=7
note_on channel=15 note=43 velocity=0 time=3
note_on channel=2 note=66 velocity=0 time=15
note_on channel=10 note=86 velocity=0 time=2
note_on channel=15 note=43 velocity=49 time=0
note_on channel=10 note=74 velocity=78 time=6
note_on channel=11 note=66 velocity=0 time=1
note_on channel=15 note=43 velocity=0 time=5
note_on channel=14 note=66 velocity=0 time=0
note_on channel=10 note=74 velocity=0 time=4
note_on channel=11 note=69 velocity=127 time=6
note_on channel=2 note=69 velocity=119 time=1
note_on channel=15 note=43 velocity=40 time=3
note_on channel=14 note=69 velocity=115 time=5
note_on channel=15 note=43 velocity=0 time=6
note_on channel=15 note=43 velocity=63 time=12
note_on channel=15 note=43 velocity=0 time=17
note_on channel=2 note=69 velocity=0 time=8
note_on channel=11 note=69 velocity=0 time=1
note_on channel=15 note=43 velocity=61 time=1
note_on channel=15 note=43 velocity=0 time=12
note_on channel=14 note=69 velocity=0 time=3
note_on channel=5 note=86 velocity=0 time=9
note_on channel=15 note=43 velocity=59 time=3
note_on channel=15 note=43 velocity=0 time=13
note_on channel=7 note=98 velocity=0 time=0
note_on channel=10 note=64 velocity=99 time=4
note_on channel=10 note=76 velocity=64 time=2
note_on channel=5 note=88 velocity=46 time=1
note_on channel=15 note=43 velocity=86 time=1
note_on channel=7 note=88 velocity=119 time=5
note_on channel=9 note=49 velocity=0 time=7
note_on channel=9 note=36 velocity=0 time=1
note_on channel=10 note=76 velocity=0 time=5
note_on channel=15 note=43 velocity=0 time=0
note_on channel=10 note=64 velocity=0 time=1
note_on channel=10 note=62 velocity=127 time=8
note_on channel=5 note=88 velocity=0 time=1
note_on channel=10 note=74 velocity=119 time=0
note_on channel=5 note=86 velocity=75 time=1
note_on channel=15 note=43 velocity=55 time=2
note_on channel=7 note=88 velocity=0 time=6
note_on channel=7 note=86 velocity=86 time=1
note_on channel=10 note=62 velocity=0 time=2
note_on channel=10 note=74 velocity=0 time=2
note_on channel=15 note=43 velocity=0 time=2
note_on channel=5 note=86 velocity=0 time=3
note_on channel=15 note=43 velocity=86 time=5
note_on channel=7 note=81 velocity=70 time=4
note_on channel=10 note=57 velocity=105 time=1
note_on channel=10 note=69 velocity=92 time=1
note_on channel=7 note=86 velocity=0 time=2
note_on channel=5 note=81 velocity=58 time=0
note_on channel=15 note=43 velocity=0 time=9
note_on channel=10 note=57 velocity=0 time=3
note_on channel=10 note=69 velocity=0 time=4
note_on channel=15 note=43 velocity=77 time=6
note_on channel=10 note=62 velocity=119 time=2
note_on channel=10 note=74 velocity=99 time=1
note_on channel=5 note=81 velocity=0 time=3
note_on channel=5 note=86 velocity=38 time=3
note_on channel=7 note=86 velocity=68 time=0
note_on channel=15 note=43 velocity=0 time=6
note_on channel=7 note=81 velocity=0 time=0
note_on channel=7 note=88 velocity=32 time=3
note_on channel=10 note=62 velocity=0 time=1
note_on channel=10 note=74 velocity=0 time=2
note_on channel=15 note=43 velocity=92 time=1
note_on channel=5 note=86 velocity=0 time=7
note_on channel=10 note=64 velocity=112 time=4
note_on channel=5 note=88 velocity=48 time=1
note_on channel=10 note=76 velocity=92 time=2
note_on channel=7 note=86 velocity=0 time=4
note_on channel=15 note=43 velocity=0 time=2
note_on channel=7 note=93 velocity=124 time=5
note_on channel=7 note=91 velocity=108 time=2
note_on channel=10 note=64 velocity=0 time=1
note_on channel=7 note=88 velocity=0 time=2
note_on channel=5 note=88 velocity=0 time=0
note_on channel=10 note=76 velocity=0 time=0
note_on channel=15 note=43 velocity=90 time=2
note_on channel=10 note=69 velocity=119 time=3
note_on channel=7 note=91 velocity=0 time=5
note_on channel=10 note=81 velocity=84 time=2
note_on channel=15 note=43 velocity=0 time=7
note_on channel=5 note=93 velocity=55 time=0
note_on channel=7 note=93 velocity=0 time=2
note_on channel=10 note=81 velocity=0 time=5
note_on channel=10 note=69 velocity=0 time=0
note_on channel=5 note=93 velocity=0 time=7
note_on channel=7 note=98 velocity=86 time=2
note_on channel=15 note=43 velocity=99 time=0
note_on channel=4 note=31 velocity=0 time=14
note_on channel=15 note=50 velocity=127 time=0
note_on channel=15 note=43 velocity=0 time=3
note_on channel=5 note=86 velocity=73 time=3
note_on channel=10 note=74 velocity=97 time=1
note_on channel=4 note=38 velocity=127 time=4
note_on channel=10 note=86 velocity=75 time=0
note_on channel=15 note=50 velocity=0 time=2
note_on channel=9 note=36 velocity=127 time=3
note_on channel=9 note=49 velocity=127 time=0
note_on channel=10 note=74 velocity=0 time=7
note_on channel=10 note=86 velocity=0 time=8
note_on channel=10 note=74 velocity=68 time=9
note_on channel=10 note=74 velocity=0 time=21
note_on channel=10 note=86 velocity=77 time=0
note_on channel=14 note=62 velocity=127 time=13
note_on channel=2 note=62 velocity=127 time=3
note_on channel=10 note=86 velocity=0 time=4
note_on channel=11 note=62 velocity=127 time=3
note_on channel=14 note=62 velocity=0 time=5
note_on channel=10 note=74 velocity=59 time=0
note_on channel=2 note=62 velocity=0 time=4
note_on channel=11 note=62 velocity=0 time=6
note_on channel=10 note=74 velocity=0 time=9
note_on channel=2 note=62 velocity=102 time=1
note_on channel=14 note=62 velocity=105 time=0
note_on channel=10 note=86 velocity=66 time=3
note_on channel=11 note=62 velocity=115 time=5
note_on channel=10 note=86 velocity=0 time=13
note_on channel=14 note=62 velocity=0 time=2
note_on channel=2 note=62 velocity=0 time=3
note_on channel=10 note=74 velocity=59 time=2
note_on channel=11 note=62 velocity=0 time=4
note_on channel=10 note=74 velocity=0 time=16
note_on channel=10 note=86 velocity=62 time=3
note_on channel=2 note=64 velocity=108 time=5
note_on channel=14 note=64 velocity=127 time=9
note_on channel=10 note=86 velocity=0 time=5
note_on channel=11 note=64 velocity=127 time=0
note_on channel=10 note=74 velocity=59 time=8
note_on channel=2 note=64 velocity=0 time=10
note_on channel=14 note=64 velocity=0 time=7
note_on channel=10 note=74 velocity=0 time=2
note_on channel=10 note=86 velocity=59 time=1
note_on channel=11 note=64 velocity=0 time=2
note_on channel=10 note=86 velocity=0 time=17
note_on channel=2 note=66 velocity=127 time=6
note_on channel=10 note=74 velocity=52 time=3
note_on channel=11 note=66 velocity=127 time=2
note_on channel=14 note=66 velocity=127 time=0
note_on channel=10 note=74 velocity=0 time=15
note_on channel=10 note=86 velocity=60 time=4
note_on channel=10 note=86 velocity=0 time=18
note_on channel=10 note=74 velocity=65 time=5
note_on channel=11 note=66 velocity=0 time=21
note_on channel=2 note=66 velocity=0 time=0
note_on channel=10 note=74 velocity=0 time=1
note_on channel=10 note=86 velocity=60 time=1
note_on channel=14 note=66 velocity=0 time=2
note_on channel=14 note=69 velocity=119 time=13
note_on channel=10 note=86 velocity=0 time=6
note_on channel=2 note=69 velocity=127 time=1
note_on channel=11 note=69 velocity=127 time=0
note_on channel=10 note=74 velocity=55 time=3
note_on channel=10 note=74 velocity=0 time=19
note_on channel=10 note=86 velocity=61 time=4
note_on channel=10 note=86 velocity=0 time=21
note_on channel=14 note=69 velocity=0 time=0
note_on channel=10 note=74 velocity=99 time=6
note_on channel=7 note=98 velocity=0 time=5
note_on channel=9 note=36 velocity=0 time=5
note_on channel=10 note=74 velocity=0 time=4
note_on channel=11 note=69 velocity=0 time=2
note_on channel=9 note=49 velocity=0 time=0
note_on channel=2 note=69 velocity=0 time=2
note_on channel=5 note=86 velocity=0 time=11
note_on channel=10 note=69 velocity=127 time=13
note_on channel=2 note=69 velocity=99 time=10
note_on channel=11 note=69 velocity=108 time=13
note_on channel=10 note=69 velocity=0 time=20
note_on channel=4 note=38 velocity=0 time=11
note_on channel=2 note=69 velocity=0 time=0
note_on channel=5 note=83 velocity=57 time=1
note_on channel=11 note=69 velocity=0 time=2
note_on channel=10 note=71 velocity=127 time=4
note_on channel=4 note=31 velocity=105 time=5
note_on channel=9 note=36 velocity=112 time=0
note_on channel=9 note=38 velocity=102 time=2
note_on channel=2 note=71 velocity=105 time=1
note_on channel=11 note=71 velocity=119 time=0
note_on channel=9 note=49 velocity=127 time=1
note_on channel=9 note=36 velocity=127 time=2
note_on channel=9 note=38 velocity=0 time=1
note_on channel=2 note=55 velocity=81 time=0
note_on channel=9 note=49 velocity=127 time=0
note_on channel=11 note=55 velocity=70 time=0
note_on channel=10 note=69 velocity=127 time=52
note_on channel=10 note=71 velocity=0 time=1
note_on channel=9 note=49 velocity=0 time=12
note_on channel=9 note=36 velocity=0 time=1
note_on channel=9 note=36 velocity=0 time=4
note_on channel=9 note=49 velocity=0 time=1
note_on channel=2 note=55 velocity=0 time=12
note_on channel=10 note=71 velocity=127 time=0
note_on channel=10 note=69 velocity=0 time=4
note_on channel=11 note=55 velocity=0 time=11
note_on channel=5 note=85 velocity=39 time=8
note_on channel=5 note=83 velocity=0 time=2
note_on channel=11 note=71 velocity=0 time=0
note_on channel=2 note=54 velocity=82 time=4
note_on channel=9 note=36 velocity=115 time=3
note_on channel=9 note=49 velocity=127 time=1
note_on channel=10 note=73 velocity=127 time=2
note_on channel=11 note=73 velocity=127 time=0
note_on channel=2 note=73 velocity=124 time=1
note_on channel=11 note=54 velocity=67 time=1
note_on channel=4 note=30 velocity=127 time=2
note_on channel=2 note=71 velocity=0 time=1
note_on channel=10 note=71 velocity=0 time=0
note_on channel=4 note=31 velocity=0 time=7
note_on channel=10 note=71 velocity=108 time=43
note_on channel=10 note=73 velocity=0 time=1
note_on channel=9 note=49 velocity=0 time=16
note_on channel=9 note=36 velocity=0 time=1
note_on channel=2 note=54 velocity=0 time=13
note_on channel=10 note=73 velocity=127 time=1
note_on channel=10 note=71 velocity=0 time=6
note_on channel=11 note=73 velocity=0 time=2
note_on channel=11 note=54 velocity=0 time=9
note_on channel=5 note=85 velocity=0 time=10
note_on channel=2 note=53 velocity=83 time=1
note_on channel=5 note=86 velocity=45 time=1
note_on channel=11 note=74 velocity=124 time=0
note_on channel=9 note=49 velocity=127 time=1
note_on channel=2 note=73 velocity=0 time=3
note_on channel=9 note=36 velocity=105 time=0
note_on channel=10 note=74 velocity=127 time=1
note_on channel=2 note=74 velocity=74 time=1
note_on channel=10 note=73 velocity=0 time=1
note_on channel=11 note=53 velocity=72 time=0
note_on channel=4 note=30 velocity=0 time=3
note_on channel=4 note=29 velocity=88 time=2
note_on channel=10 note=73 velocity=127 time=53
note_on channel=10 note=74 velocity=0 time=2
note_on channel=9 note=49 velocity=0 time=6
note_on channel=9 note=36 velocity=0 time=0
note_on channel=2 note=53 velocity=0 time=22
note_on channel=10 note=74 velocity=127 time=0
note_on channel=10 note=73 velocity=0 time=4
note_on channel=11 note=74 velocity=0 time=1
note_on channel=11 note=53 velocity=0 time=2
note_on channel=5 note=88 velocity=59 time=16
note_on channel=11 note=52 velocity=65 time=3
note_on channel=2 note=52 velocity=88 time=1
note_on channel=5 note=86 velocity=0 time=1
note_on channel=10 note=74 velocity=0 time=2
note_on channel=2 note=76 velocity=115 time=1
note_on channel=9 note=36 velocity=112 time=0
note_on channel=9 note=49 velocity=127 time=0
note_on channel=10 note=76 velocity=127 time=1
note_on channel=11 note=76 velocity=127 time=0
note_on channel=4 note=28 velocity=127 time=6
note_on channel=2 note=74 velocity=0 time=3
note_on channel=4 note=29 velocity=0 time=6
note_on channel=9 note=36 velocity=0 time=28
note_on channel=9 note=49 velocity=0 time=4
note_on channel=10 note=76 velocity=0 time=16
note_on channel=10 note=74 velocity=127 time=2
note_on channel=11 note=76 velocity=0 time=14
note_on channel=11 note=52 velocity=0 time=5
note_on channel=10 note=76 velocity=127 time=6
note_on channel=2 note=52 velocity=0 time=5
note_on channel=10 note=74 velocity=0 time=1
note_on channel=2 note=51 velocity=78 time=13
note_on channel=9 note=36 velocity=105 time=5
note_on channel=9 note=49 velocity=127 time=0
note_on channel=11 note=78 velocity=127 time=2
note_on channel=11 note=51 velocity=74 time=0
note_on channel=4 note=27 velocity=127 time=2
note_on channel=4 note=28 velocity=0 time=1
note_on channel=5 note=88 velocity=0 time=2
note_on channel=9 note=57 velocity=127 time=0
note_on channel=5 note=90 velocity=62 time=2
note_on channel=2 note=78 velocity=99 time=1
note_on channel=2 note=76 velocity=0 time=2
note_on channel=10 note=78 velocity=112 time=0
note_on channel=10 note=76 velocity=0 time=4
note_on channel=10 note=78 velocity=0 time=157
note_on channel=10 note=76 velocity=124 time=2
note_on channel=2 note=78 velocity=0 time=5
note_on channel=9 note=36 velocity=0 time=10
note_on channel=10 note=78 velocity=127 time=10
note_on channel=9 note=49 velocity=0 time=1
note_on channel=10 note=76 velocity=0 time=4
note_on channel=2 note=76 velocity=90 time=9
note_on channel=10 note=78 velocity=0 time=16
note_on channel=10 note=79 velocity=127 time=1
note_on channel=5 note=90 velocity=0 time=3
note_on channel=2 note=78 velocity=108 time=0
note_on channel=5 note=91 velocity=57 time=2
note_on channel=11 note=51 velocity=0 time=8
note_on channel=2 note=76 velocity=0 time=1
note_on channel=9 note=36 velocity=112 time=0
note_on channel=11 note=79 velocity=127 time=0
note_on channel=9 note=49 velocity=127 time=1
note_on channel=11 note=50 velocity=66 time=3
note_on channel=11 note=78 velocity=0 time=8
note_on channel=2 note=79 velocity=127 time=7
note_on channel=2 note=78 velocity=0 time=5
note_on channel=1 note=62 velocity=127 time=33
note_on channel=0 note=74 velocity=82 time=8
note_on channel=0 note=86 velocity=82 time=9
note_on channel=9 note=57 velocity=0 time=41
note_on channel=0 note=79 velocity=70 time=1
note_on channel=1 note=67 velocity=127 time=3
note_on channel=0 note=91 velocity=79 time=1
note_on channel=1 note=62 velocity=0 time=3
note_on channel=0 note=74 velocity=0 time=4
note_on channel=9 note=36 velocity=0 time=8
note_on channel=0 note=86 velocity=0 time=2
note_on channel=9 note=49 velocity=0 time=10
note_on channel=0 note=79 velocity=0 time=21
note_on channel=0 note=91 velocity=0 time=1
note_on channel=1 note=67 velocity=0 time=1
note_on channel=0 note=86 velocity=86 time=2
note_on channel=1 note=74 velocity=127 time=4
note_on channel=0 note=98 velocity=84 time=1
note_on channel=10 note=79 velocity=0 time=3
note_on channel=10 note=78 velocity=127 time=0
note_on channel=10 note=79 velocity=127 time=25
note_on channel=10 note=78 velocity=0 time=3
note_on channel=0 note=86 velocity=0 time=3
note_on channel=0 note=98 velocity=0 time=3
note_on channel=1 note=74 velocity=0 time=2
note_on channel=2 note=51 velocity=0 time=11
note_on channel=5 note=91 velocity=0 time=2
note_on channel=10 note=79 velocity=0 time=0
note_on channel=10 note=81 velocity=127 time=2
note_on channel=4 note=27 velocity=0 time=2
note_on channel=0 note=98 velocity=80 time=0
note_on channel=0 note=86 velocity=78 time=0
note_on channel=9 note=49 velocity=127 time=0
note_on channel=1 note=74 velocity=127 time=2
note_on channel=2 note=45 velocity=87 time=0
note_on channel=5 note=93 velocity=84 time=0
note_on channel=9 note=36 velocity=127 time=1
note_on channel=4 note=33 velocity=127 time=1
note_on channel=9 note=57 velocity=127 time=3
note_on channel=11 note=79 velocity=0 time=2
note_on channel=11 note=81 velocity=119 time=0
note_on channel=11 note=45 velocity=74 time=4
note_on channel=11 note=50 velocity=0 time=1
note_on channel=2 note=79 velocity=0 time=5
note_on channel=2 note=81 velocity=99 time=2
note_on channel=1 note=72 velocity=127 time=93
note_on channel=0 note=84 velocity=66 time=3
note_on channel=0 note=96 velocity=54 time=4
note_on channel=0 note=86 velocity=0 time=5
note_on channel=1 note=74 velocity=0 time=5
note_on channel=0 note=98 velocity=0 time=10
note_on channel=0 note=82 velocity=80 time=36
note_on channel=0 note=94 velocity=80 time=1
note_on channel=1 note=70 velocity=127 time=0
note_on channel=0 note=84 velocity=0 time=5
note_on channel=1 note=72 velocity=0 time=2
note_on channel=0 note=96 velocity=0 time=4
note_on channel=0 note=81 velocity=75 time=53
note_on channel=1 note=69 velocity=127 time=0
note_on channel=0 note=82 velocity=0 time=2
note_on channel=0 note=94 velocity=0 time=1
note_on channel=0 note=93 velocity=74 time=2
note_on channel=1 note=70 velocity=0 time=11
note_on channel=9 note=36 velocity=0 time=18
note_on channel=9 note=57 velocity=0 time=26
note_on channel=0 note=81 velocity=0 time=53
note_on channel=0 note=93 velocity=0 time=2
note_on channel=0 note=79 velocity=53 time=0
note_on channel=0 note=91 velocity=79 time=6
note_on channel=1 note=67 velocity=127 time=0
note_on channel=9 note=40 velocity=127 time=1
note_on channel=9 note=41 velocity=124 time=1
note_on channel=1 note=69 velocity=0 time=4
note_on channel=9 note=41 velocity=0 time=11
note_on channel=9 note=40 velocity=0 time=41
note_on channel=9 note=49 velocity=0 time=6
note_on channel=2 note=45 velocity=0 time=38
note_on channel=2 note=81 velocity=0 time=2
note_on channel=2 note=50 velocity=102 time=6
note_on channel=10 note=81 velocity=0 time=2
note_on channel=5 note=50 velocity=119 time=2
note_on channel=4 note=33 velocity=0 time=1
note_on channel=0 note=79 velocity=0 time=1
note_on channel=11 note=45 velocity=0 time=0
note_on channel=10 note=74 velocity=54 time=0
note_on channel=0 note=86 velocity=74 time=3
note_on channel=0 note=98 velocity=74 time=0
note_on channel=10 note=86 velocity=52 time=0
note_on channel=4 note=38 velocity=119 time=2
note_on channel=9 note=36 velocity=127 time=0
note_on channel=9 note=57 velocity=127 time=0
note_on channel=9 note=49 velocity=127 time=1
note_on channel=0 note=91 velocity=0 time=3
note_on channel=11 note=81 velocity=0 time=0
note_on channel=1 note=66 velocity=125 time=0
note_on channel=1 note=66 velocity=0 time=1
note_on channel=15 note=50 velocity=124 time=1
note_on channel=5 note=93 velocity=0 time=1
note_on channel=1 note=67 velocity=0 time=6
note_on channel=15 note=50 velocity=0 time=25
note_on channel=15 note=50 velocity=65 time=15
note_on channel=15 note=50 velocity=0 time=23
note_on channel=11 note=50 velocity=115 time=9
note_on channel=14 note=50 velocity=119 time=3
note_on channel=14 note=50 velocity=0 time=14
note_on channel=11 note=50 velocity=0 time=1
note_on channel=11 note=50 velocity=90 time=11
note_on channel=14 note=50 velocity=90 time=0
note_on channel=14 note=50 velocity=0 time=25
note_on channel=11 note=50 velocity=0 time=0
note_on channel=15 note=50 velocity=51 time=12
note_on channel=15 note=50 velocity=0 time=7
note_on channel=14 note=52 velocity=127 time=16
note_on channel=11 note=52 velocity=124 time=3
note_on channel=15 note=50 velocity=59 time=10
note_on channel=1 note=62 velocity=127 time=1
note_on channel=15 note=50 velocity=0 time=5
note_on channel=14 note=52 velocity=0 time=6
note_on channel=11 note=52 velocity=0 time=1
note_on channel=1 note=62 velocity=0 time=7
note_on channel=1 note=62 velocity=127 time=12
note_on channel=15 note=50 velocity=57 time=4
note_on channel=15 note=50 velocity=0 time=6
note_on channel=14 note=54 velocity=127 time=3
note_on channel=11 note=54 velocity=124 time=6
note_on channel=1 note=62 velocity=0 time=10
note_on channel=15 note=50 velocity=61 time=23
note_on channel=15 note=50 velocity=0 time=9
note_on channel=1 note=64 velocity=127 time=5
note_on channel=11 note=54 velocity=0 time=6
note_on channel=15 note=50 velocity=69 time=0
note_on channel=14 note=54 velocity=0 time=9
note_on channel=15 note=50 velocity=0 time=3
note_on channel=1 note=64 velocity=0 time=8
note_on channel=15 note=50 velocity=63 time=0
note_on channel=15 note=50 velocity=0 time=7
note_on channel=2 note=74 velocity=127 time=8
note_on channel=14 note=57 velocity=127 time=2
note_on channel=11 note=62 velocity=127 time=2
note_on channel=15 note=50 velocity=72 time=1
note_on channel=2 note=62 velocity=127 time=4
note_on channel=11 note=57 velocity=94 time=3
note_on channel=15 note=50 velocity=0 time=1
note_on channel=11 note=62 velocity=0 time=5
note_on channel=2 note=74 velocity=0 time=0
note_on channel=15 note=50 velocity=51 time=5
note_on channel=2 note=62 velocity=0 time=3
note_on channel=1 note=66 velocity=127 time=0
note_on channel=15 note=50 velocity=0 time=4
note_on channel=2 note=74 velocity=88 time=0
note_on channel=11 note=62 velocity=97 time=3
note_on channel=2 note=62 velocity=79 time=3
note_on channel=9 note=36 velocity=0 time=6
note_on channel=15 note=50 velocity=57 time=1
note_on channel=15 note=50 velocity=0 time=6
note_on channel=1 note=66 velocity=0 time=0
note_on channel=9 note=49 velocity=0 time=3
note_on channel=0 note=98 velocity=0 time=4
note_on channel=2 note=74 velocity=0 time=1
note_on channel=11 note=62 velocity=0 time=2
note_on channel=15 note=50 velocity=56 time=0
note_on channel=2 note=62 velocity=0 time=3
note_on channel=15 note=50 velocity=0 time=4
note_on channel=15 note=50 velocity=66 time=12
note_on channel=1 note=69 velocity=127 time=5
note_on channel=2 note=76 velocity=108 time=0
note_on channel=11 note=64 velocity=108 time=5
note_on channel=15 note=50 velocity=0 time=1
note_on channel=2 note=64 velocity=127 time=1
note_on channel=11 note=57 velocity=0 time=12
note_on channel=0 note=86 velocity=0 time=0
note_on channel=1 note=69 velocity=0 time=8
note_on channel=2 note=76 velocity=0 time=0
note_on channel=11 note=64 velocity=0 time=3
note_on channel=2 note=64 velocity=0 time=2
note_on channel=15 note=50 velocity=63 time=1
note_on channel=15 note=50 velocity=0 time=9
note_on channel=15 note=50 velocity=59 time=7
note_on channel=15 note=50 velocity=0 time=9
note_on channel=9 note=49 velocity=127 time=1
note_on channel=1 note=69 velocity=127 time=1
note_on channel=11 note=57 velocity=92 time=0
note_on channel=10 note=74 velocity=0 time=1
note_on channel=1 note=66 velocity=127 time=1
note_on channel=11 note=66 velocity=127 time=0
note_on channel=10 note=86 velocity=0 time=2
note_on channel=9 note=36 velocity=127 time=0
note_on channel=2 note=78 velocity=99 time=1
note_on channel=2 note=66 velocity=124 time=0
note_on channel=5 note=67 velocity=108 time=1
note_on channel=7 note=81 velocity=127 time=0
note_on channel=5 note=62 velocity=102 time=1
<meta message time_signature numerator=2 denominator=4 clocks_per_click=24 notated_32nd_notes_per_beat=8 time=2>
note_on channel=10 note=66 velocity=99 time=0
note_on channel=10 note=78 velocity=45 time=0
note_on channel=4 note=38 velocity=0 time=2
note_on channel=4 note=31 velocity=127 time=2
note_on channel=15 note=50 velocity=49 time=0
note_on channel=15 note=50 velocity=0 time=5
note_on channel=15 note=50 velocity=64 time=9
note_on channel=15 note=50 velocity=0 time=12
note_on channel=9 note=49 velocity=0 time=6
note_on channel=9 note=36 velocity=0 time=1
note_on channel=10 note=78 velocity=0 time=12
note_on channel=2 note=78 velocity=0 time=1
note_on channel=2 note=66 velocity=0 time=3
note_on channel=1 note=69 velocity=0 time=1
note_on channel=5 note=62 velocity=0 time=2
note_on channel=1 note=66 velocity=0 time=0
note_on channel=11 note=57 velocity=0 time=1
note_on channel=11 note=66 velocity=0 time=0
note_on channel=10 note=69 velocity=29 time=3
note_on channel=10 note=81 velocity=29 time=0
note_on channel=7 note=81 velocity=0 time=1
note_on channel=5 note=67 velocity=0 time=2
note_on channel=4 note=31 velocity=0 time=6
note_on channel=9 note=57 velocity=0 time=11
note_on channel=9 note=36 velocity=127 time=0
note_on channel=9 note=49 velocity=127 time=1
note_on channel=5 note=67 velocity=102 time=3
note_on channel=10 note=66 velocity=0 time=1
note_on channel=2 note=81 velocity=124 time=1
note_on channel=2 note=69 velocity=119 time=0
note_on channel=5 note=62 velocity=90 time=0
note_on channel=11 note=69 velocity=127 time=2
note_on channel=1 note=69 velocity=127 time=4
note_on channel=7 note=81 velocity=127 time=0
note_on channel=10 note=69 velocity=0 time=1
note_on channel=10 note=81 velocity=0 time=0
note_on channel=1 note=66 velocity=127 time=0
note_on channel=11 note=57 velocity=97 time=1
note_on channel=4 note=31 velocity=127 time=6
note_on channel=10 note=81 velocity=108 time=1
note_on channel=10 note=69 velocity=94 time=2
note_on channel=9 note=49 velocity=0 time=9
note_on channel=9 note=36 velocity=0 time=0
note_on channel=5 note=67 velocity=0 time=27
note_on channel=5 note=62 velocity=0 time=1
note_on channel=2 note=69 velocity=0 time=1
note_on channel=11 note=69 velocity=0 time=0
note_on channel=2 note=81 velocity=0 time=3
note_on channel=11 note=57 velocity=0 time=0
note_on channel=10 note=69 velocity=0 time=1
note_on channel=5 note=50 velocity=0 time=1
note_on channel=1 note=69 velocity=0 time=0
note_on channel=14 note=57 velocity=0 time=1
note_on channel=10 note=81 velocity=0 time=0
note_on channel=7 note=81 velocity=0 time=4
note_on channel=1 note=66 velocity=0 time=3
note_on channel=4 note=31 velocity=0 time=10
note_on channel=10 note=70 velocity=115 time=1
note_on channel=10 note=82 velocity=119 time=1
note_on channel=5 note=70 velocity=115 time=1
note_on channel=5 note=67 velocity=127 time=0
note_on channel=5 note=62 velocity=102 time=1
note_on channel=5 note=50 velocity=86 time=0
note_on channel=9 note=57 velocity=127 time=2
note_on channel=2 note=50 velocity=0 time=3
note_on channel=9 note=49 velocity=127 time=0
note_on channel=9 note=36 velocity=127 time=1
note_on channel=11 note=70 velocity=127 time=2
note_on channel=2 note=50 velocity=108 time=4
note_on channel=7 note=82 velocity=127 time=0
note_on channel=2 note=70 velocity=127 time=1
note_on channel=15 note=46 velocity=127 time=0
note_on channel=14 note=58 velocity=127 time=1
note_on channel=2 note=82 velocity=127 time=2
note_on channel=1 note=70 velocity=127 time=1
note_on channel=11 note=58 velocity=102 time=1
note_on channel=4 note=33 velocity=127 time=9
note_on channel=15 note=46 velocity=0 time=10
<meta message time_signature numerator=4 denominator=4 clocks_per_click=24 notated_32nd_notes_per_beat=8 time=35>
note_on channel=15 note=46 velocity=26 time=72
note_on channel=15 note=46 velocity=0 time=20
note_on channel=11 note=74 velocity=127 time=8
note_on channel=2 note=82 velocity=0 time=15
note_on channel=2 note=74 velocity=124 time=6
note_on channel=7 note=74 velocity=97 time=1
note_on channel=11 note=76 velocity=127 time=15
note_on channel=15 note=46 velocity=61 time=8
note_on channel=11 note=74 velocity=0 time=3
note_on channel=2 note=76 velocity=127 time=4
note_on channel=15 note=46 velocity=0 time=4
note_on channel=7 note=76 velocity=124 time=0
note_on channel=2 note=74 velocity=0 time=5
note_on channel=11 note=76 velocity=0 time=1
note_on channel=7 note=74 velocity=0 time=3
note_on channel=2 note=76 velocity=0 time=8
note_on channel=7 note=76 velocity=0 time=2
note_on channel=2 note=70 velocity=0 time=5
note_on channel=15 note=46 velocity=84 time=3
note_on channel=15 note=46 velocity=0 time=9
note_on channel=15 note=46 velocity=84 time=8
note_on channel=15 note=46 velocity=0 time=9
note_on channel=11 note=79 velocity=127 time=0
note_on channel=2 note=79 velocity=127 time=4
note_on channel=7 note=79 velocity=97 time=12
note_on channel=15 note=46 velocity=90 time=13
note_on channel=15 note=46 velocity=0 time=8
note_on channel=15 note=46 velocity=83 time=13
note_on channel=15 note=46 velocity=0 time=8
note_on channel=11 note=79 velocity=0 time=3
note_on channel=7 note=79 velocity=0 time=5
note_on channel=15 note=46 velocity=119 time=0
note_on channel=2 note=79 velocity=0 time=4
note_on channel=15 note=46 velocity=0 time=8
note_on channel=15 note=46 velocity=86 time=11
note_on channel=11 note=81 velocity=127 time=4
note_on channel=15 note=46 velocity=0 time=5
note_on channel=2 note=81 velocity=124 time=0
note_on channel=7 note=81 velocity=124 time=8
note_on channel=15 note=46 velocity=97 time=0
note_on channel=15 note=46 velocity=0 time=10
note_on channel=11 note=81 velocity=0 time=8
note_on channel=15 note=46 velocity=86 time=3
note_on channel=2 note=81 velocity=0 time=1
note_on channel=15 note=46 velocity=0 time=9
note_on channel=7 note=81 velocity=0 time=0
note_on channel=15 note=46 velocity=64 time=12
note_on channel=11 note=79 velocity=115 time=3
note_on channel=15 note=46 velocity=0 time=1
note_on channel=2 note=79 velocity=102 time=3
note_on channel=7 note=79 velocity=63 time=4
note_on channel=15 note=46 velocity=86 time=7
note_on channel=2 note=81 velocity=62 time=3
note_on channel=15 note=46 velocity=0 time=5
note_on channel=7 note=81 velocity=81 time=0
note_on channel=11 note=81 velocity=57 time=7
note_on channel=15 note=46 velocity=92 time=4
note_on channel=7 note=79 velocity=0 time=3
note_on channel=11 note=79 velocity=0 time=1
note_on channel=15 note=46 velocity=0 time=3
note_on channel=2 note=79 velocity=0 time=7
note_on channel=2 note=82 velocity=127 time=0
note_on channel=2 note=81 velocity=0 time=6
note_on channel=15 note=46 velocity=94 time=0
note_on channel=7 note=82 velocity=127 time=2
note_on channel=7 note=81 velocity=0 time=2
note_on channel=15 note=46 velocity=0 time=5
note_on channel=11 note=82 velocity=83 time=0
note_on channel=11 note=81 velocity=0 time=10
note_on channel=15 note=46 velocity=99 time=0
note_on channel=2 note=82 velocity=0 time=1
note_on channel=15 note=46 velocity=0 time=7
note_on channel=7 note=82 velocity=0 time=0
note_on channel=11 note=82 velocity=0 time=7
note_on channel=15 note=46 velocity=108 time=6
note_on channel=15 note=46 velocity=0 time=8
note_on channel=15 note=46 velocity=102 time=11
note_on channel=2 note=86 velocity=127 time=4
note_on channel=7 note=86 velocity=127 time=3
note_on channel=15 note=46 velocity=0 time=1
note_on channel=10 note=86 velocity=54 time=1
note_on channel=11 note=74 velocity=119 time=2
note_on channel=7 note=86 velocity=127 time=2
note_on channel=11 note=86 velocity=127 time=0
note_on channel=15 note=46 velocity=94 time=9
note_on channel=14 note=50 velocity=99 time=7
note_on channel=15 note=46 velocity=0 time=1
note_on channel=15 note=46 velocity=94 time=11
note_on channel=15 note=46 velocity=0 time=6
note_on channel=15 note=46 velocity=115 time=4
note_on channel=15 note=46 velocity=0 time=10
note_on channel=15 note=46 velocity=115 time=5
note_on channel=15 note=46 velocity=0 time=10
note_on channel=15 note=46 velocity=73 time=5
note_on channel=15 note=46 velocity=0 time=5
note_on channel=15 note=46 velocity=127 time=11
note_on channel=15 note=46 velocity=0 time=12
note_on channel=15 note=46 velocity=115 time=2
note_on channel=15 note=46 velocity=0 time=10
note_on channel=15 note=46 velocity=115 time=5
note_on channel=15 note=46 velocity=0 time=10
note_on channel=15 note=46 velocity=102 time=2
note_on channel=15 note=46 velocity=0 time=7
note_on channel=15 note=46 velocity=79 time=10
note_on channel=15 note=46 velocity=0 time=7
note_on channel=15 note=46 velocity=112 time=14
note_on channel=15 note=46 velocity=0 time=7
control_change channel=6 control=7 value=120 time=0
control_change channel=6 control=7 value=121 time=0
note_on channel=15 note=46 velocity=112 time=10
note_on channel=15 note=46 velocity=115 time=8
note_on channel=15 note=46 velocity=0 time=1
note_on channel=4 note=33 velocity=0 time=4
note_on channel=15 note=46 velocity=0 time=5
note_on channel=15 note=46 velocity=124 time=3
note_on channel=15 note=46 velocity=0 time=11
control_change channel=6 control=7 value=118 time=11
note_on channel=15 note=46 velocity=88 time=0
note_on channel=15 note=46 velocity=0 time=4
control_change channel=6 control=7 value=117 time=11
note_on channel=15 note=46 velocity=119 time=0
control_change channel=6 control=7 value=115 time=5
control_change channel=6 control=7 value=114 time=5
note_on channel=15 note=46 velocity=115 time=0
note_on channel=15 note=46 velocity=0 time=4
note_on channel=15 note=46 velocity=0 time=6
note_on channel=15 note=46 velocity=94 time=1
note_on channel=15 note=46 velocity=0 time=7
note_on channel=15 note=46 velocity=119 time=12
note_on channel=15 note=46 velocity=0 time=14
control_change channel=6 control=7 value=112 time=0
control_change channel=6 control=7 value=111 time=6
note_on channel=15 note=46 velocity=102 time=0
note_on channel=15 note=46 velocity=0 time=8
note_on channel=15 note=46 velocity=115 time=2
note_on channel=15 note=46 velocity=112 time=9
note_on channel=15 note=46 velocity=0 time=1
control_change channel=6 control=7 value=109 time=9
note_on channel=15 note=46 velocity=0 time=5
control_change channel=6 control=7 value=108 time=0
control_change channel=6 control=7 value=103 time=9
note_on channel=15 note=46 velocity=97 time=0
note_on channel=15 note=46 velocity=0 time=7
control_change channel=6 control=7 value=102 time=0
control_change channel=6 control=7 value=100 time=5
control_change channel=6 control=7 value=95 time=8
note_on channel=15 note=46 velocity=99 time=0
control_change channel=6 control=7 value=94 time=5
note_on channel=15 note=46 velocity=0 time=6
note_on channel=9 note=57 velocity=0 time=8
note_on channel=11 note=58 velocity=0 time=1
note_on channel=9 note=36 velocity=0 time=1
note_on channel=9 note=49 velocity=0 time=1
note_on channel=15 note=46 velocity=115 time=15
note_on channel=5 note=67 velocity=0 time=3
note_on channel=15 note=46 velocity=105 time=6
note_on channel=15 note=46 velocity=0 time=1
note_on channel=15 note=46 velocity=0 time=14
note_on channel=14 note=58 velocity=0 time=3
note_on channel=2 note=86 velocity=0 time=12
note_on channel=2 note=50 velocity=0 time=3
note_on channel=14 note=50 velocity=0 time=0
note_on channel=5 note=62 velocity=0 time=1
note_on channel=5 note=70 velocity=0 time=1
note_on channel=5 note=50 velocity=0 time=3
note_on channel=7 note=86 velocity=0 time=6
note_on channel=11 note=86 velocity=0 time=0
note_on channel=9 note=57 velocity=127 time=5
note_on channel=7 note=82 velocity=0 time=2
note_on channel=9 note=49 velocity=127 time=2
note_on channel=7 note=86 velocity=0 time=2
note_on channel=5 note=69 velocity=97 time=2
note_on channel=11 note=70 velocity=0 time=1
note_on channel=5 note=62 velocity=83 time=0
note_on channel=9 note=36 velocity=127 time=0
note_on channel=5 note=66 velocity=127 time=1
note_on channel=5 note=50 velocity=79 time=2
note_on channel=11 note=50 velocity=127 time=2
note_on channel=2 note=50 velocity=127 time=2
note_on channel=2 note=86 velocity=127 time=1
note_on channel=4 note=38 velocity=127 time=0
note_on channel=7 note=86 velocity=127 time=0
note_on channel=11 note=74 velocity=115 time=0
note_on channel=11 note=62 velocity=127 time=0
note_on channel=14 note=50 velocity=127 time=0
note_on channel=15 note=50 velocity=127 time=0
note_on channel=9 note=49 velocity=0 time=5
note_on channel=10 note=70 velocity=0 time=2
note_on channel=10 note=82 velocity=0 time=2
note_on channel=10 note=86 velocity=0 time=0
note_on channel=6 note=74 velocity=127 time=0
note_on channel=11 note=74 velocity=0 time=2
note_on channel=9 note=36 velocity=0 time=0
note_on channel=11 note=50 velocity=0 time=5
note_on channel=9 note=57 velocity=0 time=0
note_on channel=2 note=86 velocity=0 time=1
note_on channel=7 note=86 velocity=0 time=1
note_on channel=14 note=50 velocity=0 time=1
note_on channel=4 note=38 velocity=0 time=0
note_on channel=15 note=50 velocity=0 time=0
note_on channel=2 note=50 velocity=0 time=0
note_on channel=11 note=62 velocity=0 time=1
note_on channel=11 note=74 velocity=0 time=1
note_on channel=6 note=74 velocity=0 time=7
note_on channel=11 note=50 velocity=108 time=0
note_on channel=2 note=50 velocity=127 time=2
note_on channel=4 note=38 velocity=127 time=0
note_on channel=7 note=86 velocity=127 time=0
note_on channel=14 note=50 velocity=88 time=0
note_on channel=15 note=50 velocity=127 time=0
note_on channel=11 note=62 velocity=119 time=3
note_on channel=11 note=74 velocity=115 time=1
note_on channel=11 note=72 velocity=127 time=0
note_on channel=2 note=86 velocity=127 time=2
note_on channel=6 note=74 velocity=124 time=0
note_on channel=1 note=70 velocity=0 time=3
note_on channel=15 note=50 velocity=0 time=6
note_on channel=14 note=50 velocity=0 time=0
note_on channel=11 note=50 velocity=0 time=1
note_on channel=2 note=50 velocity=0 time=1
note_on channel=4 note=38 velocity=0 time=2
note_on channel=7 note=86 velocity=0 time=2
note_on channel=11 note=72 velocity=0 time=0
note_on channel=6 note=74 velocity=0 time=2
note_on channel=11 note=62 velocity=0 time=1
note_on channel=11 note=74 velocity=0 time=1
note_on channel=2 note=86 velocity=0 time=3
note_on channel=2 note=86 velocity=127 time=2
note_on channel=4 note=38 velocity=127 time=0
note_on channel=7 note=86 velocity=124 time=0
note_on channel=11 note=74 velocity=115 time=0
note_on channel=15 note=50 velocity=127 time=0
note_on channel=11 note=50 velocity=127 time=2
note_on channel=11 note=62 velocity=127 time=1
note_on channel=2 note=50 velocity=127 time=1
control_change channel=6 control=7 value=92 time=3
note_on channel=6 note=74 velocity=127 time=0
note_on channel=14 note=50 velocity=127 time=6
control_change channel=6 control=7 value=91 time=1
note_on channel=15 note=50 velocity=0 time=1
note_on channel=4 note=38 velocity=0 time=0
note_on channel=7 note=86 velocity=0 time=3
note_on channel=11 note=74 velocity=0 time=3
note_on channel=2 note=86 velocity=0 time=0
note_on channel=11 note=50 velocity=0 time=1
note_on channel=2 note=50 velocity=0 time=4
note_on channel=6 note=74 velocity=0 time=3
note_on channel=11 note=74 velocity=115 time=1
note_on channel=15 note=50 velocity=115 time=0
note_on channel=2 note=50 velocity=127 time=2
note_on channel=6 note=74 velocity=124 time=1
note_on channel=14 note=50 velocity=0 time=1
note_on channel=11 note=50 velocity=115 time=0
note_on channel=2 note=86 velocity=127 time=3
note_on channel=4 note=38 velocity=127 time=0
note_on channel=7 note=86 velocity=127 time=0
note_on channel=14 note=50 velocity=127 time=2
note_on channel=11 note=62 velocity=0 time=5
note_on channel=2 note=50 velocity=0 time=4
note_on channel=11 note=50 velocity=0 time=1
note_on channel=9 note=36 velocity=127 time=0
note_on channel=15 note=50 velocity=0 time=1
note_on channel=9 note=49 velocity=127 time=0
note_on channel=9 note=57 velocity=127 time=0
note_on channel=11 note=74 velocity=0 time=1
note_on channel=4 note=38 velocity=0 time=2
note_on channel=6 note=74 velocity=0 time=1
note_on channel=7 note=86 velocity=0 time=3
note_on channel=14 note=50 velocity=0 time=0
note_on channel=2 note=86 velocity=0 time=2
note_on channel=11 note=62 velocity=127 time=0
note_on channel=2 note=50 velocity=127 time=1
note_on channel=2 note=86 velocity=127 time=0
note_on channel=4 note=38 velocity=127 time=0
note_on channel=7 note=86 velocity=127 time=0
note_on channel=11 note=74 velocity=115 time=0
note_on channel=14 note=91 velocity=127 time=0
note_on channel=15 note=50 velocity=127 time=0
note_on channel=9 note=49 velocity=0 time=8
note_on channel=6 note=74 velocity=127 time=2
note_on channel=15 note=50 velocity=0 time=1
note_on channel=14 note=50 velocity=127 time=0
note_on channel=9 note=36 velocity=0 time=4
note_on channel=9 note=57 velocity=0 time=5
note_on channel=11 note=74 velocity=0 time=1
note_on channel=11 note=62 velocity=0 time=5
note_on channel=14 note=91 velocity=0 time=3
note_on channel=4 note=38 velocity=0 time=1
note_on channel=5 note=69 velocity=0 time=5
note_on channel=5 note=62 velocity=0 time=0
note_on channel=5 note=66 velocity=0 time=2
note_on channel=2 note=86 velocity=0 time=1
note_on channel=5 note=50 velocity=0 time=0
note_on channel=2 note=50 velocity=0 time=3
note_on channel=14 note=50 velocity=0 time=8
note_on channel=7 note=86 velocity=0 time=6
note_on channel=6 note=74 velocity=0 time=11
<meta message end_of_track time=0>
